%TF.GenerationSoftware,KiCad,Pcbnew,5.99.0-unknown-64d35ecebc~127~ubuntu20.04.1*%
%TF.CreationDate,2021-05-01T12:49:23+10:00*%
%TF.ProjectId,bm83-featherwing,626d3833-2d66-4656-9174-68657277696e,rev?*%
%TF.SameCoordinates,Original*%
%TF.FileFunction,Profile,NP*%
%FSLAX46Y46*%
G04 Gerber Fmt 4.6, Leading zero omitted, Abs format (unit mm)*
G04 Created by KiCad (PCBNEW 5.99.0-unknown-64d35ecebc~127~ubuntu20.04.1) date 2021-05-01 12:49:23*
%MOMM*%
%LPD*%
G01*
G04 APERTURE LIST*
%TA.AperFunction,Profile*%
%ADD10C,0.050000*%
%TD*%
%TA.AperFunction,Profile*%
%ADD11C,0.100000*%
%TD*%
G04 APERTURE END LIST*
D10*
X141732000Y-129286000D02*
G75*
G02*
X141224000Y-128778000I0J508000D01*
G01*
X154940000Y-128270000D02*
X151892000Y-128270000D01*
X140716000Y-128270000D02*
G75*
G02*
X141224000Y-128778000I0J-508000D01*
G01*
X150876000Y-129286000D02*
X141732000Y-129286000D01*
X157480000Y-125730000D02*
G75*
G02*
X154940000Y-128270000I-2540000J0D01*
G01*
X134620000Y-72390000D02*
G75*
G02*
X137160000Y-69850000I2540000J0D01*
G01*
X137160000Y-128270000D02*
G75*
G02*
X134620000Y-125730000I0J2540000D01*
G01*
X151384000Y-128778000D02*
G75*
G02*
X150876000Y-129286000I-508000J0D01*
G01*
X151384000Y-128778000D02*
G75*
G02*
X151892000Y-128270000I508000J0D01*
G01*
X137160000Y-69850000D02*
X154940000Y-69850000D01*
X154940000Y-69850000D02*
G75*
G02*
X157480000Y-72390000I0J-2540000D01*
G01*
X140716000Y-128270000D02*
X137160000Y-128270000D01*
X157480000Y-72390000D02*
X157480000Y-125730000D01*
X134620000Y-125730000D02*
X134620000Y-72390000D01*
D11*
%TO.C,J3*%
X149429000Y-123759000D02*
X149179000Y-123759000D01*
X149179000Y-123129000D02*
X149429000Y-123129000D01*
X149429000Y-123129000D02*
G75*
G02*
X149744000Y-123444000I0J-315000D01*
G01*
X149179000Y-123759000D02*
G75*
G02*
X148864000Y-123444000I0J315000D01*
G01*
X149744000Y-123444000D02*
G75*
G02*
X149429000Y-123759000I-315000J0D01*
G01*
X148864000Y-123444000D02*
G75*
G02*
X149179000Y-123129000I315000J0D01*
G01*
%TD*%
M02*
