%TF.GenerationSoftware,KiCad,Pcbnew,5.99.0-unknown-64d35ecebc~127~ubuntu20.04.1*%
%TF.CreationDate,2021-05-01T12:49:23+10:00*%
%TF.ProjectId,bm83-featherwing,626d3833-2d66-4656-9174-68657277696e,rev?*%
%TF.SameCoordinates,Original*%
%TF.FileFunction,Legend,Top*%
%TF.FilePolarity,Positive*%
%FSLAX46Y46*%
G04 Gerber Fmt 4.6, Leading zero omitted, Abs format (unit mm)*
G04 Created by KiCad (PCBNEW 5.99.0-unknown-64d35ecebc~127~ubuntu20.04.1) date 2021-05-01 12:49:23*
%MOMM*%
%LPD*%
G01*
G04 APERTURE LIST*
%ADD10C,0.200000*%
%ADD11C,0.120000*%
%ADD12C,0.127000*%
%ADD13C,0.100000*%
G04 APERTURE END LIST*
D10*
X143411714Y-104290000D02*
X143840285Y-104290000D01*
X143326000Y-104547142D02*
X143626000Y-103647142D01*
X143926000Y-104547142D01*
X144226000Y-104547142D02*
X144226000Y-103647142D01*
X144568857Y-103647142D01*
X144654571Y-103690000D01*
X144697428Y-103732857D01*
X144740285Y-103818571D01*
X144740285Y-103947142D01*
X144697428Y-104032857D01*
X144654571Y-104075714D01*
X144568857Y-104118571D01*
X144226000Y-104118571D01*
X145126000Y-104547142D02*
X145126000Y-103647142D01*
X145468857Y-103647142D01*
X145554571Y-103690000D01*
X145597428Y-103732857D01*
X145640285Y-103818571D01*
X145640285Y-103947142D01*
X145597428Y-104032857D01*
X145554571Y-104075714D01*
X145468857Y-104118571D01*
X145126000Y-104118571D01*
X148605142Y-114199142D02*
X148305142Y-113770571D01*
X148090857Y-114199142D02*
X148090857Y-113299142D01*
X148433714Y-113299142D01*
X148519428Y-113342000D01*
X148562285Y-113384857D01*
X148605142Y-113470571D01*
X148605142Y-113599142D01*
X148562285Y-113684857D01*
X148519428Y-113727714D01*
X148433714Y-113770571D01*
X148090857Y-113770571D01*
X148948000Y-114156285D02*
X149076571Y-114199142D01*
X149290857Y-114199142D01*
X149376571Y-114156285D01*
X149419428Y-114113428D01*
X149462285Y-114027714D01*
X149462285Y-113942000D01*
X149419428Y-113856285D01*
X149376571Y-113813428D01*
X149290857Y-113770571D01*
X149119428Y-113727714D01*
X149033714Y-113684857D01*
X148990857Y-113642000D01*
X148948000Y-113556285D01*
X148948000Y-113470571D01*
X148990857Y-113384857D01*
X149033714Y-113342000D01*
X149119428Y-113299142D01*
X149333714Y-113299142D01*
X149462285Y-113342000D01*
X149719428Y-113299142D02*
X150233714Y-113299142D01*
X149976571Y-114199142D02*
X149976571Y-113299142D01*
X143090285Y-112283142D02*
X143604571Y-112283142D01*
X143347428Y-113183142D02*
X143347428Y-112283142D01*
X143904571Y-112711714D02*
X144204571Y-112711714D01*
X144333142Y-113183142D02*
X143904571Y-113183142D01*
X143904571Y-112283142D01*
X144333142Y-112283142D01*
X144676000Y-113140285D02*
X144804571Y-113183142D01*
X145018857Y-113183142D01*
X145104571Y-113140285D01*
X145147428Y-113097428D01*
X145190285Y-113011714D01*
X145190285Y-112926000D01*
X145147428Y-112840285D01*
X145104571Y-112797428D01*
X145018857Y-112754571D01*
X144847428Y-112711714D01*
X144761714Y-112668857D01*
X144718857Y-112626000D01*
X144676000Y-112540285D01*
X144676000Y-112454571D01*
X144718857Y-112368857D01*
X144761714Y-112326000D01*
X144847428Y-112283142D01*
X145061714Y-112283142D01*
X145190285Y-112326000D01*
X145447428Y-112283142D02*
X145961714Y-112283142D01*
X145704571Y-113183142D02*
X145704571Y-112283142D01*
X138754000Y-114199142D02*
X138754000Y-113299142D01*
X139096857Y-113299142D01*
X139182571Y-113342000D01*
X139225428Y-113384857D01*
X139268285Y-113470571D01*
X139268285Y-113599142D01*
X139225428Y-113684857D01*
X139182571Y-113727714D01*
X139096857Y-113770571D01*
X138754000Y-113770571D01*
X139568285Y-113299142D02*
X139782571Y-114199142D01*
X139954000Y-113556285D01*
X140125428Y-114199142D01*
X140339714Y-113299142D01*
X141196857Y-114199142D02*
X140896857Y-113770571D01*
X140682571Y-114199142D02*
X140682571Y-113299142D01*
X141025428Y-113299142D01*
X141111142Y-113342000D01*
X141154000Y-113384857D01*
X141196857Y-113470571D01*
X141196857Y-113599142D01*
X141154000Y-113684857D01*
X141111142Y-113727714D01*
X141025428Y-113770571D01*
X140682571Y-113770571D01*
X154748714Y-117794285D02*
X154748714Y-118480000D01*
X154405857Y-118137142D02*
X155091571Y-118137142D01*
X155305857Y-118822857D02*
X155305857Y-119380000D01*
X154963000Y-119080000D01*
X154963000Y-119208571D01*
X154920142Y-119294285D01*
X154877285Y-119337142D01*
X154791571Y-119380000D01*
X154577285Y-119380000D01*
X154491571Y-119337142D01*
X154448714Y-119294285D01*
X154405857Y-119208571D01*
X154405857Y-118951428D01*
X154448714Y-118865714D01*
X154491571Y-118822857D01*
X155305857Y-119637142D02*
X154405857Y-119937142D01*
X155305857Y-120237142D01*
X155305857Y-120451428D02*
X155305857Y-121008571D01*
X154963000Y-120708571D01*
X154963000Y-120837142D01*
X154920142Y-120922857D01*
X154877285Y-120965714D01*
X154791571Y-121008571D01*
X154577285Y-121008571D01*
X154491571Y-120965714D01*
X154448714Y-120922857D01*
X154405857Y-120837142D01*
X154405857Y-120580000D01*
X154448714Y-120494285D01*
X154491571Y-120451428D01*
X155263000Y-113614285D02*
X155305857Y-113528571D01*
X155305857Y-113400000D01*
X155263000Y-113271428D01*
X155177285Y-113185714D01*
X155091571Y-113142857D01*
X154920142Y-113100000D01*
X154791571Y-113100000D01*
X154620142Y-113142857D01*
X154534428Y-113185714D01*
X154448714Y-113271428D01*
X154405857Y-113400000D01*
X154405857Y-113485714D01*
X154448714Y-113614285D01*
X154491571Y-113657142D01*
X154791571Y-113657142D01*
X154791571Y-113485714D01*
X154405857Y-114042857D02*
X155305857Y-114042857D01*
X154405857Y-114557142D01*
X155305857Y-114557142D01*
X154405857Y-114985714D02*
X155305857Y-114985714D01*
X155305857Y-115200000D01*
X155263000Y-115328571D01*
X155177285Y-115414285D01*
X155091571Y-115457142D01*
X154920142Y-115500000D01*
X154791571Y-115500000D01*
X154620142Y-115457142D01*
X154534428Y-115414285D01*
X154448714Y-115328571D01*
X154405857Y-115200000D01*
X154405857Y-114985714D01*
X154491571Y-106508571D02*
X154448714Y-106465714D01*
X154405857Y-106337142D01*
X154405857Y-106251428D01*
X154448714Y-106122857D01*
X154534428Y-106037142D01*
X154620142Y-105994285D01*
X154791571Y-105951428D01*
X154920142Y-105951428D01*
X155091571Y-105994285D01*
X155177285Y-106037142D01*
X155263000Y-106122857D01*
X155305857Y-106251428D01*
X155305857Y-106337142D01*
X155263000Y-106465714D01*
X155220142Y-106508571D01*
X154405857Y-106894285D02*
X155305857Y-106894285D01*
X154405857Y-107408571D02*
X154920142Y-107022857D01*
X155305857Y-107408571D02*
X154791571Y-106894285D01*
X154405857Y-103968571D02*
X154405857Y-103540000D01*
X155305857Y-103540000D01*
X154405857Y-104782857D02*
X154834428Y-104482857D01*
X154405857Y-104268571D02*
X155305857Y-104268571D01*
X155305857Y-104611428D01*
X155263000Y-104697142D01*
X155220142Y-104740000D01*
X155134428Y-104782857D01*
X155005857Y-104782857D01*
X154920142Y-104740000D01*
X154877285Y-104697142D01*
X154834428Y-104611428D01*
X154834428Y-104268571D01*
X154405857Y-101150000D02*
X155305857Y-101150000D01*
X155305857Y-101364285D01*
X155263000Y-101492857D01*
X155177285Y-101578571D01*
X155091571Y-101621428D01*
X154920142Y-101664285D01*
X154791571Y-101664285D01*
X154620142Y-101621428D01*
X154534428Y-101578571D01*
X154448714Y-101492857D01*
X154405857Y-101364285D01*
X154405857Y-101150000D01*
X154405857Y-102050000D02*
X155305857Y-102050000D01*
X154405857Y-87700000D02*
X155305857Y-87700000D01*
X154663000Y-88000000D01*
X155305857Y-88300000D01*
X154405857Y-88300000D01*
X154491571Y-89242857D02*
X154448714Y-89200000D01*
X154405857Y-89071428D01*
X154405857Y-88985714D01*
X154448714Y-88857142D01*
X154534428Y-88771428D01*
X154620142Y-88728571D01*
X154791571Y-88685714D01*
X154920142Y-88685714D01*
X155091571Y-88728571D01*
X155177285Y-88771428D01*
X155263000Y-88857142D01*
X155305857Y-88985714D01*
X155305857Y-89071428D01*
X155263000Y-89200000D01*
X155220142Y-89242857D01*
X154405857Y-89628571D02*
X155305857Y-89628571D01*
X154405857Y-90142857D02*
X154920142Y-89757142D01*
X155305857Y-90142857D02*
X154791571Y-89628571D01*
X137694142Y-102735714D02*
X136794142Y-102735714D01*
X137437000Y-102435714D01*
X136794142Y-102135714D01*
X137694142Y-102135714D01*
X137222714Y-101407142D02*
X137222714Y-101707142D01*
X137694142Y-101707142D02*
X136794142Y-101707142D01*
X136794142Y-101278571D01*
X137222714Y-100635714D02*
X137265571Y-100507142D01*
X137308428Y-100464285D01*
X137394142Y-100421428D01*
X137522714Y-100421428D01*
X137608428Y-100464285D01*
X137651285Y-100507142D01*
X137694142Y-100592857D01*
X137694142Y-100935714D01*
X136794142Y-100935714D01*
X136794142Y-100635714D01*
X136837000Y-100550000D01*
X136879857Y-100507142D01*
X136965571Y-100464285D01*
X137051285Y-100464285D01*
X137137000Y-100507142D01*
X137179857Y-100550000D01*
X137222714Y-100635714D01*
X137222714Y-100935714D01*
X136794142Y-99745714D02*
X136794142Y-99231428D01*
X137694142Y-99488571D02*
X136794142Y-99488571D01*
X136794142Y-99017142D02*
X137694142Y-98417142D01*
X136794142Y-98417142D02*
X137694142Y-99017142D01*
X137694142Y-96670000D02*
X137265571Y-96970000D01*
X137694142Y-97184285D02*
X136794142Y-97184285D01*
X136794142Y-96841428D01*
X136837000Y-96755714D01*
X136879857Y-96712857D01*
X136965571Y-96670000D01*
X137094142Y-96670000D01*
X137179857Y-96712857D01*
X137222714Y-96755714D01*
X137265571Y-96841428D01*
X137265571Y-97184285D01*
X136794142Y-96370000D02*
X137694142Y-95770000D01*
X136794142Y-95770000D02*
X137694142Y-96370000D01*
%TO.C,D1*%
X143533904Y-118816380D02*
X143533904Y-117816380D01*
X143772000Y-117816380D01*
X143914857Y-117864000D01*
X144010095Y-117959238D01*
X144057714Y-118054476D01*
X144105333Y-118244952D01*
X144105333Y-118387809D01*
X144057714Y-118578285D01*
X144010095Y-118673523D01*
X143914857Y-118768761D01*
X143772000Y-118816380D01*
X143533904Y-118816380D01*
X145057714Y-118816380D02*
X144486285Y-118816380D01*
X144772000Y-118816380D02*
X144772000Y-117816380D01*
X144676761Y-117959238D01*
X144581523Y-118054476D01*
X144486285Y-118102095D01*
%TO.C,C2*%
X153868380Y-117435238D02*
X153868380Y-118006666D01*
X153868380Y-117720952D02*
X152868380Y-117720952D01*
X153011238Y-117816190D01*
X153106476Y-117911428D01*
X153154095Y-118006666D01*
X153201714Y-116578095D02*
X153868380Y-116578095D01*
X153201714Y-117006666D02*
X153725523Y-117006666D01*
X153820761Y-116959047D01*
X153868380Y-116863809D01*
X153868380Y-116720952D01*
X153820761Y-116625714D01*
X153773142Y-116578095D01*
X153344571Y-115768571D02*
X153344571Y-116101904D01*
X153868380Y-116101904D02*
X152868380Y-116101904D01*
X152868380Y-115625714D01*
%TO.C,D2*%
X147851904Y-118816380D02*
X147851904Y-117816380D01*
X148090000Y-117816380D01*
X148232857Y-117864000D01*
X148328095Y-117959238D01*
X148375714Y-118054476D01*
X148423333Y-118244952D01*
X148423333Y-118387809D01*
X148375714Y-118578285D01*
X148328095Y-118673523D01*
X148232857Y-118768761D01*
X148090000Y-118816380D01*
X147851904Y-118816380D01*
X148804285Y-117911619D02*
X148851904Y-117864000D01*
X148947142Y-117816380D01*
X149185238Y-117816380D01*
X149280476Y-117864000D01*
X149328095Y-117911619D01*
X149375714Y-118006857D01*
X149375714Y-118102095D01*
X149328095Y-118244952D01*
X148756666Y-118816380D01*
X149375714Y-118816380D01*
%TO.C,*%
D11*
%TO.C,D5*%
X154122000Y-112096000D02*
X154122000Y-109236000D01*
X152202000Y-112096000D02*
X154122000Y-112096000D01*
X152202000Y-109236000D02*
X152202000Y-112096000D01*
D12*
%TO.C,J3*%
X141834000Y-124249000D02*
X141834000Y-125014000D01*
X150774000Y-128074000D02*
X150774000Y-128494000D01*
X141834000Y-128494000D02*
X141834000Y-128074000D01*
X150774000Y-124249000D02*
X150774000Y-125014000D01*
X150774000Y-128494000D02*
X141834000Y-128494000D01*
D10*
X143304000Y-120944000D02*
G75*
G03*
X143304000Y-120944000I-100000J0D01*
G01*
D11*
%TO.C,U1*%
X138557000Y-70366000D02*
X153557000Y-70366000D01*
X153557000Y-102366000D02*
X138557000Y-102366000D01*
X138557000Y-75696000D02*
X138557000Y-70366000D01*
X153557000Y-70366000D02*
X153557000Y-102366000D01*
X138557000Y-102366000D02*
X138557000Y-76966000D01*
X138557000Y-76966000D02*
G75*
G03*
X138557000Y-75696000I0J635000D01*
G01*
%TO.C,SW3*%
X145206000Y-105118000D02*
X145206000Y-105697000D01*
X143906000Y-111218000D02*
X143196000Y-111218000D01*
X143906000Y-105697000D02*
X143196000Y-105697000D01*
X145856000Y-111218000D02*
X145146000Y-111218000D01*
X145856000Y-105697000D02*
X145206000Y-105697000D01*
X145856000Y-105697000D02*
X145856000Y-111218000D01*
X143196000Y-105697000D02*
X143196000Y-111218000D01*
%TO.C,D1*%
X142372000Y-119038000D02*
X145522000Y-119038000D01*
X142372000Y-120738000D02*
X145522000Y-120738000D01*
X142372000Y-119038000D02*
X142372000Y-120738000D01*
D13*
%TO.C,SW1*%
X147248000Y-105154000D02*
X150948000Y-105154000D01*
X147248000Y-111254000D02*
X147248000Y-105154000D01*
X150948000Y-111254000D02*
X147248000Y-111254000D01*
X150948000Y-105154000D02*
X150948000Y-111254000D01*
D11*
X149352000Y-110744000D02*
G75*
G03*
X149352000Y-110744000I-254000J0D01*
G01*
%TO.C,D4*%
X154122000Y-107163000D02*
X154122000Y-104303000D01*
X154122000Y-104303000D02*
X152202000Y-104303000D01*
X152202000Y-104303000D02*
X152202000Y-107163000D01*
%TO.C,C2*%
X152681000Y-120134748D02*
X152681000Y-120657252D01*
X154151000Y-120134748D02*
X154151000Y-120657252D01*
%TO.C,D2*%
X150490000Y-120738000D02*
X150490000Y-119038000D01*
X150490000Y-120738000D02*
X147340000Y-120738000D01*
X150490000Y-119038000D02*
X147340000Y-119038000D01*
D13*
%TO.C,SW2*%
X141804000Y-105154000D02*
X141804000Y-111254000D01*
X138104000Y-111254000D02*
X138104000Y-105154000D01*
X141804000Y-111254000D02*
X138104000Y-111254000D01*
X138104000Y-105154000D02*
X141804000Y-105154000D01*
D11*
X140208000Y-105664000D02*
G75*
G03*
X140208000Y-105664000I-254000J0D01*
G01*
%TD*%
M02*
