M48
; DRILL file {KiCad 5.99.0-unknown-64d35ecebc~127~ubuntu20.04.1} date Sat May  1 14:43:09 2021
; FORMAT={-:-/ absolute / inch / decimal}
; #@! TF.CreationDate,2021-05-01T14:43:09+10:00
; #@! TF.GenerationSoftware,Kicad,Pcbnew,5.99.0-unknown-64d35ecebc~127~ubuntu20.04.1
; #@! TF.FileFunction,Plated,1,2,PTH
FMAT,2
INCH
; #@! TA.AperFunction,Plated,PTH,ViaDrill
T1C0.0157
; #@! TA.AperFunction,Plated,PTH,ComponentDrill
T2C0.0256
; #@! TA.AperFunction,Plated,PTH,ComponentDrill
T3C0.0374
; #@! TA.AperFunction,Plated,PTH,ComponentDrill
T4C0.0394
; #@! TA.AperFunction,Plated,PTH,ComponentDrill
T5C0.1063
%
G90
G05
T1
X5.4Y-3.22
X5.52Y-4.75
X5.57Y-3.71
X5.57Y-4.09
X5.58Y-3.28
X5.58Y-3.32
X5.58Y-3.36
X5.6Y-3.96
X5.62Y-3.71
X5.6291Y-4.1074
X5.65Y-3.76
X5.65Y-3.94
X5.68Y-4.72
X5.7087Y-3.5813
X5.74Y-4.18
X5.75Y-3.76
X5.75Y-3.94
X5.8251Y-4.8649
X5.85Y-3.36
X5.87Y-4.23
X5.9494Y-3.3706
X5.95Y-4.75
X5.97Y-4.21
X5.97Y-4.26
X6.0594Y-4.6206
X6.1Y-4.35
T3
X5.35Y-3.3
X5.35Y-3.4
X5.35Y-3.5
X5.35Y-3.6
X5.35Y-3.7
X5.35Y-3.8
X5.35Y-3.9
X5.35Y-4.0
X5.35Y-4.1
X5.35Y-4.2
X5.35Y-4.3
X5.35Y-4.4
T4
X6.15Y-3.3
X6.15Y-3.4
X6.15Y-3.5
X6.15Y-3.6
X6.15Y-3.7
X6.15Y-3.8
X6.15Y-3.9
X6.15Y-4.0
X6.15Y-4.1
X6.15Y-4.2
X6.15Y-4.3
X6.15Y-4.4
X6.15Y-4.5
X6.15Y-4.6
X6.15Y-4.7
X6.15Y-4.8
T5
X5.4Y-4.95
X6.1Y-4.95
T2
G00X5.5899Y-4.8118
M15
G01X5.5899Y-4.8511
M16
G05
G00X5.5899Y-4.9565
M15
G01X5.5899Y-5.0076
M16
G05
G00X5.9301Y-4.8118
M15
G01X5.9301Y-4.8511
M16
G05
G00X5.9301Y-4.9565
M15
G01X5.9301Y-5.0076
M16
G05
T0
M30
