%TF.GenerationSoftware,KiCad,Pcbnew,5.99.0-unknown-64d35ecebc~127~ubuntu20.04.1*%
%TF.CreationDate,2021-05-01T14:43:11+10:00*%
%TF.ProjectId,bm83-featherwing,626d3833-2d66-4656-9174-68657277696e,rev?*%
%TF.SameCoordinates,Original*%
%TF.FileFunction,Copper,L2,Bot*%
%TF.FilePolarity,Positive*%
%FSLAX46Y46*%
G04 Gerber Fmt 4.6, Leading zero omitted, Abs format (unit mm)*
G04 Created by KiCad (PCBNEW 5.99.0-unknown-64d35ecebc~127~ubuntu20.04.1) date 2021-05-01 14:43:11*
%MOMM*%
%LPD*%
G01*
G04 APERTURE LIST*
G04 Aperture macros list*
%AMRoundRect*
0 Rectangle with rounded corners*
0 $1 Rounding radius*
0 $2 $3 $4 $5 $6 $7 $8 $9 X,Y pos of 4 corners*
0 Add a 4 corners polygon primitive as box body*
4,1,4,$2,$3,$4,$5,$6,$7,$8,$9,$2,$3,0*
0 Add four circle primitives for the rounded corners*
1,1,$1+$1,$2,$3*
1,1,$1+$1,$4,$5*
1,1,$1+$1,$6,$7*
1,1,$1+$1,$8,$9*
0 Add four rect primitives between the rounded corners*
20,1,$1+$1,$2,$3,$4,$5,0*
20,1,$1+$1,$4,$5,$6,$7,0*
20,1,$1+$1,$6,$7,$8,$9,0*
20,1,$1+$1,$8,$9,$2,$3,0*%
G04 Aperture macros list end*
%TA.AperFunction,ComponentPad*%
%ADD10C,1.270000*%
%TD*%
%TA.AperFunction,ComponentPad*%
%ADD11O,1.158000X2.316000*%
%TD*%
%TA.AperFunction,ComponentPad*%
%ADD12O,1.200000X2.400000*%
%TD*%
%TA.AperFunction,ComponentPad*%
%ADD13C,4.700000*%
%TD*%
%TA.AperFunction,SMDPad,CuDef*%
%ADD14RoundRect,0.250000X0.337500X0.475000X-0.337500X0.475000X-0.337500X-0.475000X0.337500X-0.475000X0*%
%TD*%
%TA.AperFunction,SMDPad,CuDef*%
%ADD15RoundRect,0.250000X0.475000X-0.337500X0.475000X0.337500X-0.475000X0.337500X-0.475000X-0.337500X0*%
%TD*%
%TA.AperFunction,SMDPad,CuDef*%
%ADD16RoundRect,0.250000X-0.350000X-0.450000X0.350000X-0.450000X0.350000X0.450000X-0.350000X0.450000X0*%
%TD*%
%TA.AperFunction,SMDPad,CuDef*%
%ADD17RoundRect,0.250000X-0.450000X0.350000X-0.450000X-0.350000X0.450000X-0.350000X0.450000X0.350000X0*%
%TD*%
%TA.AperFunction,SMDPad,CuDef*%
%ADD18RoundRect,0.250000X0.450000X-0.350000X0.450000X0.350000X-0.450000X0.350000X-0.450000X-0.350000X0*%
%TD*%
%TA.AperFunction,SMDPad,CuDef*%
%ADD19R,3.500000X2.300000*%
%TD*%
%TA.AperFunction,ViaPad*%
%ADD20C,0.800000*%
%TD*%
%TA.AperFunction,Conductor*%
%ADD21C,0.250000*%
%TD*%
%TA.AperFunction,Conductor*%
%ADD22C,0.750000*%
%TD*%
G04 APERTURE END LIST*
D10*
%TO.P,J1,1,Pin_1*%
%TO.N,unconnected-(J1-Pad1)*%
X135890000Y-111760000D03*
%TO.P,J1,2,Pin_2*%
%TO.N,unconnected-(J1-Pad2)*%
X135890000Y-109220000D03*
%TO.P,J1,3,Pin_3*%
%TO.N,unconnected-(J1-Pad3)*%
X135890000Y-106680000D03*
%TO.P,J1,4,Pin_4*%
%TO.N,unconnected-(J1-Pad4)*%
X135890000Y-104140000D03*
%TO.P,J1,5,Pin_5*%
%TO.N,MFB*%
X135890000Y-101600000D03*
%TO.P,J1,6,Pin_6*%
%TO.N,TXD*%
X135890000Y-99060000D03*
%TO.P,J1,7,Pin_7*%
%TO.N,RXD*%
X135890000Y-96520000D03*
%TO.P,J1,8,Pin_8*%
%TO.N,unconnected-(J1-Pad8)*%
X135890000Y-93980000D03*
%TO.P,J1,9,Pin_9*%
%TO.N,unconnected-(J1-Pad9)*%
X135890000Y-91440000D03*
%TO.P,J1,10,Pin_10*%
%TO.N,unconnected-(J1-Pad10)*%
X135890000Y-88900000D03*
%TO.P,J1,11,Pin_11*%
%TO.N,unconnected-(J1-Pad11)*%
X135890000Y-86360000D03*
%TO.P,J1,12,Pin_12*%
%TO.N,unconnected-(J1-Pad12)*%
X135890000Y-83820000D03*
%TD*%
D11*
%TO.P,J3,S3,SHIELD*%
%TO.N,GND*%
X141984000Y-122719000D03*
%TO.P,J3,S4,SHIELD*%
X150624000Y-122719000D03*
D12*
%TO.P,J3,S5,SHIELD*%
X141984000Y-126544000D03*
%TO.P,J3,S6,SHIELD*%
X150624000Y-126544000D03*
%TD*%
D10*
%TO.P,J2,1,Pin_1*%
%TO.N,+3.3VA*%
X156210000Y-83820000D03*
%TO.P,J2,2,Pin_2*%
%TO.N,unconnected-(J2-Pad2)*%
X156210000Y-86360000D03*
%TO.P,J2,3,Pin_3*%
%TO.N,MCK*%
X156210000Y-88900000D03*
%TO.P,J2,4,Pin_4*%
%TO.N,unconnected-(J2-Pad4)*%
X156210000Y-91440000D03*
%TO.P,J2,5,Pin_5*%
%TO.N,unconnected-(J2-Pad5)*%
X156210000Y-93980000D03*
%TO.P,J2,6,Pin_6*%
%TO.N,unconnected-(J2-Pad6)*%
X156210000Y-96520000D03*
%TO.P,J2,7,Pin_7*%
%TO.N,unconnected-(J2-Pad7)*%
X156210000Y-99060000D03*
%TO.P,J2,8,Pin_8*%
%TO.N,SDI*%
X156210000Y-101600000D03*
%TO.P,J2,9,Pin_9*%
%TO.N,LRCK*%
X156210000Y-104140000D03*
%TO.P,J2,10,Pin_10*%
%TO.N,SCK*%
X156210000Y-106680000D03*
%TO.P,J2,11,Pin_11*%
%TO.N,unconnected-(J2-Pad11)*%
X156210000Y-109220000D03*
%TO.P,J2,12,Pin_12*%
%TO.N,unconnected-(J2-Pad12)*%
X156210000Y-111760000D03*
%TO.P,J2,13,Pin_13*%
%TO.N,GND*%
X156210000Y-114300000D03*
%TO.P,J2,14,Pin_14*%
%TO.N,unconnected-(J2-Pad14)*%
X156210000Y-116840000D03*
%TO.P,J2,15,Pin_15*%
%TO.N,+3V3*%
X156210000Y-119380000D03*
%TO.P,J2,16,Pin_16*%
%TO.N,unconnected-(J2-Pad16)*%
X156210000Y-121920000D03*
%TD*%
D13*
%TO.P,REF\u002A\u002A,1*%
%TO.N,GND*%
X137160000Y-125730000D03*
%TD*%
%TO.P,,1*%
%TO.N,GND*%
X154940000Y-125730000D03*
%TD*%
D14*
%TO.P,C1,1*%
%TO.N,ADAP_IN*%
X147341500Y-121412000D03*
%TO.P,C1,2*%
%TO.N,GND*%
X145266500Y-121412000D03*
%TD*%
D15*
%TO.P,C4,1*%
%TO.N,SYS_PWR*%
X143510000Y-98827500D03*
%TO.P,C4,2*%
%TO.N,GND*%
X143510000Y-96752500D03*
%TD*%
D16*
%TO.P,R3,1*%
%TO.N,VDD_IO*%
X149114000Y-87376000D03*
%TO.P,R3,2*%
%TO.N,RST_N*%
X151114000Y-87376000D03*
%TD*%
D17*
%TO.P,R1,1*%
%TO.N,GND*%
X152400000Y-117364000D03*
%TO.P,R1,2*%
%TO.N,Net-(J3-Pad9)*%
X152400000Y-119364000D03*
%TD*%
D15*
%TO.P,C3,1*%
%TO.N,VDD_IO*%
X146050000Y-98827500D03*
%TO.P,C3,2*%
%TO.N,GND*%
X146050000Y-96752500D03*
%TD*%
D18*
%TO.P,R2,1*%
%TO.N,Net-(J3-Pad3)*%
X140192000Y-119380000D03*
%TO.P,R2,2*%
%TO.N,GND*%
X140192000Y-117380000D03*
%TD*%
D19*
%TO.P,D3,1,A1*%
%TO.N,ADAP_IN*%
X149004000Y-117856000D03*
%TO.P,D3,2,A2*%
%TO.N,GND*%
X143604000Y-117856000D03*
%TD*%
D20*
%TO.N,GND*%
X144272000Y-119888000D03*
X153908000Y-117364000D03*
X143510000Y-95504000D03*
X146050000Y-95504000D03*
%TO.N,Net-(J3-Pad9)*%
X151130000Y-120650000D03*
%TO.N,Net-(J3-Pad3)*%
X140208000Y-120650000D03*
%TO.N,ADAP_IN*%
X147957969Y-123568031D03*
X141478000Y-103886000D03*
%TO.N,LRCK*%
X141732000Y-83312000D03*
%TO.N,SCK*%
X141732000Y-84328000D03*
%TO.N,SDI*%
X141732000Y-85344000D03*
%TO.N,MCK*%
X137160000Y-81788000D03*
%TO.N,+3V3*%
X142240000Y-100584000D03*
%TO.N,SYS_PWR*%
X151638000Y-108204000D03*
X142978120Y-104329000D03*
X143510000Y-100076000D03*
%TO.N,VDD_IO*%
X145000480Y-90965520D03*
X146050000Y-100076000D03*
X148590000Y-85344000D03*
%TO.N,RXD*%
X142748000Y-94234000D03*
%TO.N,TXD*%
X141478000Y-94234000D03*
%TO.N,P3_4*%
X151638000Y-106934000D03*
X145796000Y-106172000D03*
%TO.N,RST_N*%
X154940000Y-110490000D03*
X149098000Y-107442000D03*
X151114000Y-85614000D03*
%TD*%
D21*
%TO.N,GND*%
X146050000Y-96752500D02*
X146050000Y-95504000D01*
X143510000Y-96752500D02*
X143510000Y-96774000D01*
X143128000Y-117380000D02*
X143604000Y-117856000D01*
X144272000Y-119888000D02*
X144272000Y-118524000D01*
X144272000Y-118524000D02*
X143604000Y-117856000D01*
X140192000Y-117380000D02*
X143128000Y-117380000D01*
X145266500Y-121412000D02*
X144780000Y-121412000D01*
X152400000Y-117364000D02*
X153908000Y-117364000D01*
X143510000Y-96774000D02*
X143510000Y-95504000D01*
X144780000Y-121412000D02*
X144272000Y-120904000D01*
X144272000Y-120904000D02*
X144272000Y-119888000D01*
%TO.N,Net-(J3-Pad9)*%
X152400000Y-119380000D02*
X151130000Y-120650000D01*
X152400000Y-119364000D02*
X152400000Y-119380000D01*
%TO.N,Net-(J3-Pad3)*%
X140208000Y-119396000D02*
X140192000Y-119380000D01*
X140208000Y-120650000D02*
X140208000Y-119396000D01*
D22*
%TO.N,ADAP_IN*%
X141478000Y-110330000D02*
X149004000Y-117856000D01*
X147341500Y-122951562D02*
X147957969Y-123568031D01*
X141478000Y-103886000D02*
X141478000Y-110330000D01*
X149004000Y-119749500D02*
X147341500Y-121412000D01*
X149004000Y-117856000D02*
X149004000Y-119749500D01*
X147341500Y-121412000D02*
X147341500Y-122951562D01*
D21*
%TO.N,LRCK*%
X148716998Y-97407377D02*
X148716999Y-97407377D01*
X152495653Y-100045463D02*
X152305558Y-100235558D01*
X149569884Y-98260263D02*
X149613959Y-98304338D01*
X150418411Y-99108790D02*
X150418410Y-99108789D01*
X149141263Y-97451451D02*
X149331358Y-97261356D01*
X152539725Y-100849916D02*
X152539726Y-100849916D01*
X150608506Y-98538506D02*
X150418410Y-98728601D01*
X151647128Y-99196937D02*
X151647127Y-99196937D01*
X153300105Y-100469726D02*
X153344180Y-100513801D01*
X153344180Y-100893989D02*
X153344179Y-100893989D01*
X141788277Y-83312000D02*
X148336000Y-89859723D01*
X149950076Y-97499885D02*
X149950075Y-97499885D01*
X149994148Y-98304338D02*
X150374337Y-97924146D01*
X150754527Y-97924148D02*
X150798602Y-97968223D01*
X152451579Y-99621200D02*
X152495654Y-99665275D01*
X152539726Y-100849916D02*
X152919915Y-100469724D01*
X152115463Y-100805842D02*
X152115462Y-100805841D01*
X149569885Y-98260264D02*
X149569884Y-98260263D01*
X150798602Y-98348411D02*
X150798601Y-98348411D01*
X149141262Y-97451452D02*
X149141263Y-97451452D01*
X151691200Y-100001390D02*
X152071389Y-99621198D01*
X148336000Y-96266000D02*
X148717000Y-96647000D01*
X151603053Y-98772674D02*
X151647128Y-98816749D01*
X153388252Y-101698442D02*
X153388252Y-101698441D01*
X148716999Y-97027189D02*
X148717000Y-97027188D01*
X151603054Y-98772675D02*
X151603053Y-98772674D01*
X151691199Y-100001390D02*
X151691200Y-100001390D01*
X150418410Y-99108789D02*
X150462485Y-99152864D01*
X152963989Y-101654368D02*
X152963988Y-101654367D01*
X148336000Y-89859723D02*
X148336000Y-96266000D01*
X152963988Y-101654367D02*
X153008063Y-101698442D01*
X153154084Y-101084084D02*
X152963988Y-101274179D01*
X149141263Y-97451452D02*
X149141263Y-97451451D01*
X152115462Y-100805841D02*
X152159537Y-100849916D01*
X149994147Y-98304338D02*
X149994148Y-98304338D01*
X151266937Y-99957316D02*
X151266936Y-99957315D01*
X151647127Y-99196937D02*
X151457032Y-99387032D01*
X151457032Y-99387032D02*
X151266936Y-99577127D01*
X149759980Y-97689980D02*
X149569884Y-97880075D01*
X149335717Y-97265717D02*
X149525811Y-97075620D01*
X148716999Y-97407377D02*
X148761074Y-97451452D01*
X151266936Y-99957315D02*
X151311011Y-100001390D01*
X153300106Y-100469727D02*
X153300105Y-100469726D01*
X149906002Y-97075623D02*
X149906001Y-97075622D01*
X150798601Y-98348411D02*
X150608506Y-98538506D01*
X149331358Y-97261356D02*
X149335717Y-97265717D01*
X148717000Y-97027188D02*
X148716999Y-97027188D01*
X150842673Y-99152864D02*
X150842674Y-99152864D01*
X150754528Y-97924149D02*
X150754527Y-97924148D01*
X150842674Y-99152864D02*
X151222863Y-98772672D01*
X149906001Y-97075622D02*
X149950076Y-97119697D01*
X141732000Y-83312000D02*
X141788277Y-83312000D01*
X153388251Y-101698442D02*
X153388252Y-101698442D01*
X152305558Y-100235558D02*
X152115462Y-100425653D01*
X152451580Y-99621201D02*
X152451579Y-99621200D01*
X149950075Y-97499885D02*
X149759980Y-97689980D01*
X153768441Y-101698440D02*
X153768441Y-101698441D01*
X152495654Y-100045463D02*
X152495653Y-100045463D01*
X153344179Y-100893989D02*
X153154084Y-101084084D01*
X153768441Y-101698441D02*
X156210000Y-104140000D01*
X149141262Y-97451452D02*
G75*
G02*
X148761074Y-97451452I-190094J190092D01*
G01*
X149950076Y-97499885D02*
G75*
G03*
X149950076Y-97119697I-190092J190094D01*
G01*
X149569886Y-98260263D02*
G75*
G02*
X149569885Y-97880076I190094J190094D01*
G01*
X148716999Y-97407376D02*
G75*
G02*
X148717000Y-97027189I190095J190093D01*
G01*
X153768440Y-101698441D02*
G75*
G03*
X153388253Y-101698442I-190093J-190095D01*
G01*
X151691199Y-100001390D02*
G75*
G02*
X151311011Y-100001390I-190094J190092D01*
G01*
X152963990Y-101654367D02*
G75*
G02*
X152963989Y-101274180I190094J190094D01*
G01*
X150754527Y-97924150D02*
G75*
G03*
X150374338Y-97924147I-190096J-190099D01*
G01*
X151603053Y-98772676D02*
G75*
G03*
X151222864Y-98772673I-190096J-190099D01*
G01*
X151266938Y-99957315D02*
G75*
G02*
X151266937Y-99577128I190094J190094D01*
G01*
X150418412Y-99108789D02*
G75*
G02*
X150418411Y-98728602I190094J190094D01*
G01*
X149994147Y-98304338D02*
G75*
G02*
X149613959Y-98304338I-190094J190092D01*
G01*
X151647128Y-99196937D02*
G75*
G03*
X151647128Y-98816749I-190092J190094D01*
G01*
X152539725Y-100849916D02*
G75*
G02*
X152159537Y-100849916I-190094J190092D01*
G01*
X152451579Y-99621202D02*
G75*
G03*
X152071390Y-99621199I-190096J-190099D01*
G01*
X153300105Y-100469728D02*
G75*
G03*
X152919916Y-100469725I-190096J-190099D01*
G01*
X149906001Y-97075624D02*
G75*
G03*
X149525812Y-97075621I-190096J-190099D01*
G01*
X148716998Y-97027188D02*
G75*
G03*
X148716999Y-96647001I-190094J190094D01*
G01*
X150842673Y-99152864D02*
G75*
G02*
X150462485Y-99152864I-190094J190092D01*
G01*
X150798602Y-98348411D02*
G75*
G03*
X150798602Y-97968223I-190092J190094D01*
G01*
X153388251Y-101698442D02*
G75*
G02*
X153008063Y-101698442I-190094J190092D01*
G01*
X152115464Y-100805841D02*
G75*
G02*
X152115463Y-100425654I190094J190094D01*
G01*
X152495654Y-100045463D02*
G75*
G03*
X152495654Y-99665275I-190092J190094D01*
G01*
X153344180Y-100893989D02*
G75*
G03*
X153344180Y-100513801I-190092J190094D01*
G01*
%TO.N,SCK*%
X149530214Y-99614013D02*
X149144011Y-100000212D01*
X151795656Y-102651858D02*
X151795657Y-102651858D01*
X153242515Y-103712515D02*
X153242516Y-103712515D01*
X152712188Y-102795987D02*
X152325985Y-103182186D01*
X150204668Y-101447071D02*
X150204669Y-101447071D01*
X152856314Y-103712516D02*
X152856315Y-103712516D01*
X149386084Y-99083682D02*
X149530213Y-99227811D01*
X148081999Y-98938201D02*
X148082000Y-98938200D01*
X150590872Y-100674671D02*
X150204669Y-101060870D01*
X150446743Y-100144340D02*
X150446742Y-100144340D01*
X150204669Y-101447071D02*
X150348798Y-101591200D01*
X150734999Y-101591200D02*
X151121198Y-101204997D01*
X149530213Y-99614011D02*
X149530214Y-99614013D01*
X148082000Y-98938200D02*
X148081999Y-98938200D01*
X152325984Y-103568387D02*
X152325985Y-103568387D01*
X148081999Y-99324400D02*
X148081999Y-99324401D01*
X148081999Y-99324401D02*
X148226128Y-99468530D01*
X151651530Y-101735329D02*
X151265327Y-102121528D01*
X152856315Y-103712516D02*
X152856315Y-103712515D01*
X153242516Y-103712515D02*
X156210000Y-106680000D01*
X150734998Y-101591200D02*
X150734999Y-101591200D01*
X151265327Y-102507729D02*
X151409456Y-102651858D01*
X148806783Y-99276783D02*
X148999882Y-99083681D01*
X149674340Y-100530542D02*
X149674341Y-100530542D01*
X152325985Y-103568387D02*
X152470114Y-103712516D01*
X141732000Y-84328000D02*
X141788277Y-84328000D01*
X148612329Y-99468529D02*
X148805429Y-99275429D01*
X148612329Y-99468530D02*
X148612329Y-99468529D01*
X149386085Y-99083682D02*
X149386084Y-99083682D01*
X147828000Y-98298000D02*
X148082000Y-98552000D01*
X141788277Y-84328000D02*
X147828000Y-90367723D01*
X148805429Y-99275429D02*
X148806783Y-99276783D01*
X149144010Y-100386413D02*
X149144011Y-100386413D01*
X152568059Y-102265656D02*
X152568058Y-102265656D01*
X150590871Y-100674669D02*
X150590872Y-100674671D01*
X151795657Y-102651858D02*
X152181856Y-102265655D01*
X152568058Y-102265656D02*
X152712187Y-102409785D01*
X151651529Y-101735327D02*
X151651530Y-101735329D01*
X148612328Y-99468530D02*
X148612329Y-99468530D01*
X151265326Y-102507729D02*
X151265327Y-102507729D01*
X149144011Y-100386413D02*
X149288140Y-100530542D01*
X150446742Y-100144340D02*
X150590871Y-100288469D01*
X151507401Y-101204998D02*
X151507400Y-101204998D01*
X147828000Y-90367723D02*
X147828000Y-98298000D01*
X149674341Y-100530542D02*
X150060540Y-100144339D01*
X152712187Y-102795985D02*
X152712188Y-102795987D01*
X151507400Y-101204998D02*
X151651529Y-101349127D01*
X152856313Y-103712515D02*
G75*
G02*
X152470115Y-103712515I-193099J193098D01*
G01*
X150204668Y-101447071D02*
G75*
G02*
X150204669Y-101060870I193102J193100D01*
G01*
X148081999Y-98938201D02*
G75*
G03*
X148082000Y-98552000I-193101J193101D01*
G01*
X148082000Y-99324399D02*
G75*
G02*
X148082000Y-98938201I193098J193099D01*
G01*
X150446742Y-100144341D02*
G75*
G03*
X150060541Y-100144340I-193101J-193103D01*
G01*
X151507400Y-101204999D02*
G75*
G03*
X151121199Y-101204998I-193101J-193103D01*
G01*
X149674339Y-100530541D02*
G75*
G02*
X149288141Y-100530541I-193099J193098D01*
G01*
X152568058Y-102265657D02*
G75*
G03*
X152181857Y-102265656I-193101J-193103D01*
G01*
X148612327Y-99468529D02*
G75*
G02*
X148226129Y-99468529I-193099J193098D01*
G01*
X153242514Y-103712516D02*
G75*
G03*
X152856316Y-103712516I-193099J-193098D01*
G01*
X150590871Y-100674669D02*
G75*
G03*
X150590871Y-100288469I-193095J193100D01*
G01*
X149144010Y-100386413D02*
G75*
G02*
X149144011Y-100000212I193102J193100D01*
G01*
X149386084Y-99083683D02*
G75*
G03*
X148999883Y-99083682I-193101J-193103D01*
G01*
X151795655Y-102651857D02*
G75*
G02*
X151409457Y-102651857I-193099J193098D01*
G01*
X152712187Y-102795985D02*
G75*
G03*
X152712187Y-102409785I-193095J193100D01*
G01*
X151265326Y-102507729D02*
G75*
G02*
X151265327Y-102121528I193102J193100D01*
G01*
X152325984Y-103568387D02*
G75*
G02*
X152325985Y-103182186I193102J193100D01*
G01*
X150734997Y-101591199D02*
G75*
G02*
X150348799Y-101591199I-193099J193098D01*
G01*
X149530213Y-99614011D02*
G75*
G03*
X149530213Y-99227811I-193095J193100D01*
G01*
X151651529Y-101735327D02*
G75*
G03*
X151651529Y-101349127I-193095J193100D01*
G01*
%TO.N,SDI*%
X157169511Y-107140566D02*
X156670566Y-107639511D01*
X147320000Y-90932000D02*
X141732000Y-85344000D01*
X155391511Y-107639511D02*
X147320000Y-99568000D01*
X147320000Y-99568000D02*
X147320000Y-90932000D01*
X157169511Y-102559511D02*
X157169511Y-107140566D01*
X156210000Y-101600000D02*
X157169511Y-102559511D01*
X156670566Y-107639511D02*
X155391511Y-107639511D01*
%TO.N,MCK*%
X144998408Y-85587065D02*
X144998407Y-85587066D01*
X137160000Y-81788000D02*
X141478000Y-81788000D01*
X143440684Y-83750684D02*
X143931473Y-83259892D01*
X147749842Y-87078263D02*
X147749843Y-87078262D01*
X143725617Y-84592934D02*
X143871223Y-84738540D01*
X145846933Y-86435592D02*
X146477051Y-85805470D01*
X146901316Y-86229737D02*
X146901317Y-86229736D01*
X141478000Y-81788000D02*
X142875000Y-83185000D01*
X144355739Y-83684158D02*
X143725617Y-84314276D01*
X143725618Y-84592935D02*
X143725617Y-84592934D01*
X147822643Y-88132644D02*
X148590000Y-88900000D01*
X143299265Y-83887921D02*
X143299264Y-83887922D01*
X144149881Y-84738540D02*
X144779999Y-84108418D01*
X143438593Y-83748592D02*
X143440684Y-83750684D01*
X144149882Y-84738539D02*
X144149881Y-84738540D01*
X147119722Y-87987039D02*
X147119721Y-87987038D01*
X144574143Y-85441460D02*
X144719749Y-85587066D01*
X146695459Y-87284118D02*
X147325577Y-86653996D01*
X145846934Y-86435591D02*
X145846933Y-86435592D01*
X147749843Y-87078262D02*
X147119721Y-87708380D01*
X144355738Y-83684159D02*
X144355739Y-83684158D01*
X144998407Y-85587066D02*
X145628525Y-84956944D01*
X145204265Y-84532684D02*
X144574143Y-85162802D01*
X143299264Y-83887922D02*
X143438593Y-83748592D01*
X142874999Y-83463659D02*
X142875000Y-83463658D01*
X144574144Y-85441461D02*
X144574143Y-85441460D01*
X146695460Y-87284117D02*
X146695459Y-87284118D01*
X145204264Y-84532685D02*
X145204265Y-84532684D01*
X148590000Y-88900000D02*
X156210000Y-88900000D01*
X142875000Y-83742316D02*
X143020606Y-83887922D01*
X146271196Y-87138513D02*
X146271195Y-87138512D01*
X145422670Y-86289987D02*
X145422669Y-86289986D01*
X147119721Y-87987038D02*
X147265327Y-88132644D01*
X147543986Y-88132643D02*
X147543985Y-88132644D01*
X146052791Y-85381210D02*
X145422669Y-86011328D01*
X145422669Y-86289986D02*
X145568275Y-86435592D01*
X146271195Y-87138512D02*
X146416801Y-87284118D01*
X146901317Y-86229736D02*
X146271195Y-86859854D01*
X146052790Y-85381211D02*
X146052791Y-85381210D01*
X143725619Y-84592934D02*
G75*
G02*
X143725618Y-84314277I139327J139329D01*
G01*
X145204264Y-84108421D02*
G75*
G03*
X144780000Y-84108419I-212133J-212136D01*
G01*
X143299264Y-83887920D02*
G75*
G02*
X143020607Y-83887921I-139329J139327D01*
G01*
X146052790Y-85381211D02*
G75*
G03*
X146052791Y-84956946I-212134J212133D01*
G01*
X142875001Y-83742315D02*
G75*
G02*
X142875001Y-83463659I139328J139328D01*
G01*
X144355738Y-83259895D02*
G75*
G03*
X143931474Y-83259893I-212133J-212136D01*
G01*
X145204264Y-84532685D02*
G75*
G03*
X145204265Y-84108420I-212134J212133D01*
G01*
X146901316Y-85805473D02*
G75*
G03*
X146477052Y-85805471I-212133J-212136D01*
G01*
X146271197Y-87138512D02*
G75*
G02*
X146271196Y-86859855I139327J139329D01*
G01*
X147543985Y-88132642D02*
G75*
G02*
X147265328Y-88132643I-139329J139327D01*
G01*
X146901316Y-86229737D02*
G75*
G03*
X146901317Y-85805472I-212134J212133D01*
G01*
X147749842Y-86653999D02*
G75*
G03*
X147325578Y-86653997I-212133J-212136D01*
G01*
X142874998Y-83463658D02*
G75*
G03*
X142874999Y-83185001I-139327J139329D01*
G01*
X147749842Y-87078263D02*
G75*
G03*
X147749843Y-86653998I-212134J212133D01*
G01*
X144574145Y-85441460D02*
G75*
G02*
X144574144Y-85162803I139327J139329D01*
G01*
X145422671Y-86289986D02*
G75*
G02*
X145422670Y-86011329I139327J139329D01*
G01*
X147822642Y-88132645D02*
G75*
G03*
X147543986Y-88132645I-139328J-139328D01*
G01*
X146052790Y-84956947D02*
G75*
G03*
X145628526Y-84956945I-212133J-212136D01*
G01*
X147119723Y-87987038D02*
G75*
G02*
X147119722Y-87708381I139327J139329D01*
G01*
X145846933Y-86435590D02*
G75*
G02*
X145568276Y-86435591I-139329J139327D01*
G01*
X144149881Y-84738538D02*
G75*
G02*
X143871224Y-84738539I-139329J139327D01*
G01*
X144355738Y-83684159D02*
G75*
G03*
X144355739Y-83259894I-212134J212133D01*
G01*
X144998407Y-85587064D02*
G75*
G02*
X144719750Y-85587065I-139329J139327D01*
G01*
X146695459Y-87284116D02*
G75*
G02*
X146416802Y-87284117I-139329J139327D01*
G01*
%TO.N,SYS_PWR*%
X152362511Y-106586234D02*
X152362511Y-107479489D01*
X150105277Y-104329000D02*
X152362511Y-106586234D01*
X142978120Y-104329000D02*
X150105277Y-104329000D01*
X152362511Y-107479489D02*
X151638000Y-108204000D01*
X150105277Y-104329000D02*
X150170277Y-104394000D01*
X143510000Y-100076000D02*
X143510000Y-98827500D01*
%TO.N,VDD_IO*%
X146050000Y-100076000D02*
X146050000Y-98827500D01*
X145000480Y-97777980D02*
X145000480Y-90965520D01*
X149114000Y-85868000D02*
X149114000Y-87376000D01*
X148590000Y-85344000D02*
X149114000Y-85868000D01*
X146050000Y-98827500D02*
X145000480Y-97777980D01*
%TO.N,RXD*%
X141732000Y-93218000D02*
X140208000Y-93218000D01*
X136906000Y-96520000D02*
X135890000Y-96520000D01*
X142748000Y-94234000D02*
X141732000Y-93218000D01*
X140208000Y-93218000D02*
X136906000Y-96520000D01*
%TO.N,TXD*%
X135890000Y-98298000D02*
X135890000Y-99060000D01*
X139954000Y-94234000D02*
X135890000Y-98298000D01*
X141478000Y-94234000D02*
X139954000Y-94234000D01*
%TO.N,P3_4*%
X145796000Y-106172000D02*
X150876000Y-106172000D01*
X150876000Y-106172000D02*
X151638000Y-106934000D01*
%TO.N,RST_N*%
X149098000Y-107442000D02*
X152146000Y-110490000D01*
X151114000Y-87376000D02*
X151114000Y-85614000D01*
X152146000Y-110490000D02*
X154940000Y-110490000D01*
%TD*%
%TA.AperFunction,Conductor*%
%TO.N,+3V3*%
G36*
X157207694Y-80028306D02*
G01*
X157226000Y-80072500D01*
X157226000Y-83783421D01*
X157212004Y-83817209D01*
X157212072Y-83817246D01*
X157226000Y-83856579D01*
X157226000Y-86323421D01*
X157212004Y-86357209D01*
X157212072Y-86357246D01*
X157226000Y-86396579D01*
X157226000Y-88863421D01*
X157212004Y-88897209D01*
X157212072Y-88897246D01*
X157226000Y-88936579D01*
X157226000Y-91403421D01*
X157212004Y-91437209D01*
X157212072Y-91437246D01*
X157226000Y-91476579D01*
X157226000Y-93943421D01*
X157212004Y-93977209D01*
X157212072Y-93977246D01*
X157226000Y-94016579D01*
X157226000Y-96483421D01*
X157212004Y-96517209D01*
X157212072Y-96517246D01*
X157226000Y-96556579D01*
X157226000Y-99023421D01*
X157212004Y-99057209D01*
X157212072Y-99057246D01*
X157226000Y-99096579D01*
X157226000Y-101563421D01*
X157212004Y-101597209D01*
X157212072Y-101597246D01*
X157226000Y-101636579D01*
X157226000Y-101928417D01*
X157207694Y-101972611D01*
X157163500Y-101990917D01*
X157119306Y-101972611D01*
X157074690Y-101927995D01*
X157056384Y-101883801D01*
X157059442Y-101864490D01*
X157082994Y-101792007D01*
X157083941Y-101789092D01*
X157083941Y-101789091D01*
X157084953Y-101785977D01*
X157101342Y-101630046D01*
X157116600Y-101601943D01*
X157101342Y-101569954D01*
X157098331Y-101541307D01*
X157084953Y-101414023D01*
X157027166Y-101236174D01*
X157016121Y-101217043D01*
X156935304Y-101077062D01*
X156935301Y-101077058D01*
X156933666Y-101074226D01*
X156926504Y-101066271D01*
X156816835Y-100944473D01*
X156808537Y-100935257D01*
X156657250Y-100825340D01*
X156486416Y-100749280D01*
X156483209Y-100748598D01*
X156483208Y-100748598D01*
X156306711Y-100711082D01*
X156306708Y-100711082D01*
X156303501Y-100710400D01*
X156116499Y-100710400D01*
X156113292Y-100711082D01*
X156113289Y-100711082D01*
X155936792Y-100748598D01*
X155936791Y-100748598D01*
X155933584Y-100749280D01*
X155762750Y-100825340D01*
X155611463Y-100935257D01*
X155603165Y-100944473D01*
X155493497Y-101066271D01*
X155486334Y-101074226D01*
X155484699Y-101077058D01*
X155484696Y-101077062D01*
X155403879Y-101217043D01*
X155392834Y-101236174D01*
X155335047Y-101414023D01*
X155315500Y-101600000D01*
X155335047Y-101785977D01*
X155336059Y-101789091D01*
X155336059Y-101789092D01*
X155345091Y-101816890D01*
X155392834Y-101963826D01*
X155394469Y-101966659D01*
X155394470Y-101966660D01*
X155484696Y-102122938D01*
X155484699Y-102122942D01*
X155486334Y-102125774D01*
X155488525Y-102128208D01*
X155488527Y-102128210D01*
X155563074Y-102211002D01*
X155611463Y-102264743D01*
X155762750Y-102374660D01*
X155933584Y-102450720D01*
X155936791Y-102451402D01*
X155936792Y-102451402D01*
X156113289Y-102488918D01*
X156113292Y-102488918D01*
X156116499Y-102489600D01*
X156303501Y-102489600D01*
X156306706Y-102488919D01*
X156306713Y-102488918D01*
X156484241Y-102451183D01*
X156531275Y-102459900D01*
X156541429Y-102468123D01*
X156771705Y-102698399D01*
X156790011Y-102742593D01*
X156790011Y-103339134D01*
X156771705Y-103383328D01*
X156727511Y-103401634D01*
X156690774Y-103389697D01*
X156686110Y-103386308D01*
X156657250Y-103365340D01*
X156486416Y-103289280D01*
X156483209Y-103288598D01*
X156483208Y-103288598D01*
X156306711Y-103251082D01*
X156306708Y-103251082D01*
X156303501Y-103250400D01*
X156116499Y-103250400D01*
X156113294Y-103251081D01*
X156113287Y-103251082D01*
X155935760Y-103288817D01*
X155888726Y-103280100D01*
X155878572Y-103271877D01*
X154093659Y-101486964D01*
X154082975Y-101472679D01*
X154075221Y-101458449D01*
X154068900Y-101451666D01*
X154067907Y-101450770D01*
X154067899Y-101450762D01*
X153975433Y-101367318D01*
X153964391Y-101357353D01*
X153962959Y-101356437D01*
X153960565Y-101354457D01*
X153940731Y-101336692D01*
X153940727Y-101336689D01*
X153937795Y-101334063D01*
X153932915Y-101331528D01*
X153930758Y-101330407D01*
X153930746Y-101330401D01*
X153929567Y-101329789D01*
X153928330Y-101329277D01*
X153928320Y-101329272D01*
X153911274Y-101322212D01*
X153901503Y-101317113D01*
X153886661Y-101307615D01*
X153886659Y-101307614D01*
X153882308Y-101304830D01*
X153877290Y-101303605D01*
X153877289Y-101303605D01*
X153855336Y-101298248D01*
X153846243Y-101295275D01*
X153834566Y-101290438D01*
X153827703Y-101286415D01*
X153827504Y-101286777D01*
X153822973Y-101284286D01*
X153818921Y-101281092D01*
X153814052Y-101279382D01*
X153775080Y-101265696D01*
X153771878Y-101264472D01*
X153750669Y-101255687D01*
X153748152Y-101255104D01*
X153748150Y-101255103D01*
X153741988Y-101253675D01*
X153735390Y-101251759D01*
X153711934Y-101243522D01*
X153698243Y-101238714D01*
X153689006Y-101237914D01*
X153689019Y-101237768D01*
X153646139Y-101217802D01*
X153629753Y-101172861D01*
X153645796Y-101133678D01*
X153658978Y-101119072D01*
X153685261Y-101089948D01*
X153686185Y-101088505D01*
X153688156Y-101086122D01*
X153708558Y-101063343D01*
X153712832Y-101055116D01*
X153720411Y-101036817D01*
X153725507Y-101027054D01*
X153735001Y-101012219D01*
X153737786Y-101007867D01*
X153740570Y-100996462D01*
X153744369Y-100980893D01*
X153747342Y-100971800D01*
X153752182Y-100960117D01*
X153756203Y-100953258D01*
X153755839Y-100953058D01*
X153758327Y-100948532D01*
X153761527Y-100944473D01*
X153776921Y-100900639D01*
X153778145Y-100897437D01*
X153785946Y-100878604D01*
X153785948Y-100878596D01*
X153786934Y-100876217D01*
X153787516Y-100873707D01*
X153787519Y-100873697D01*
X153788949Y-100867529D01*
X153790864Y-100860935D01*
X153799917Y-100835155D01*
X153803906Y-100823796D01*
X153804706Y-100814559D01*
X153804706Y-100806689D01*
X153806320Y-100792577D01*
X153807770Y-100786320D01*
X153808937Y-100781286D01*
X153805031Y-100743162D01*
X153804706Y-100736792D01*
X153804706Y-100711733D01*
X153805795Y-100703853D01*
X153805384Y-100703808D01*
X153805951Y-100698674D01*
X153807353Y-100693703D01*
X153804800Y-100647304D01*
X153804706Y-100643870D01*
X153804706Y-100620920D01*
X153803242Y-100612121D01*
X153802489Y-100605305D01*
X153801816Y-100593062D01*
X153800326Y-100565994D01*
X153797530Y-100557154D01*
X153794519Y-100549883D01*
X153790609Y-100536227D01*
X153789554Y-100529887D01*
X153789554Y-100529886D01*
X153788706Y-100524794D01*
X153770507Y-100491065D01*
X153767769Y-100485305D01*
X153724418Y-100380646D01*
X153723428Y-100378256D01*
X153722521Y-100376801D01*
X153721213Y-100373993D01*
X153719301Y-100369424D01*
X153715366Y-100360025D01*
X153710926Y-100349418D01*
X153710924Y-100349414D01*
X153709407Y-100345791D01*
X153706896Y-100342471D01*
X153704622Y-100339466D01*
X153704619Y-100339463D01*
X153703813Y-100338397D01*
X153702914Y-100337400D01*
X153702905Y-100337390D01*
X153690546Y-100323695D01*
X153683914Y-100314897D01*
X153674594Y-100299953D01*
X153674593Y-100299951D01*
X153671860Y-100295570D01*
X153667855Y-100292309D01*
X153667853Y-100292307D01*
X153650328Y-100278039D01*
X153643391Y-100271447D01*
X153610681Y-100235203D01*
X153608172Y-100232096D01*
X153606886Y-100229736D01*
X153600565Y-100222953D01*
X153599572Y-100222057D01*
X153599564Y-100222049D01*
X153497965Y-100130363D01*
X153496056Y-100128640D01*
X153494624Y-100127724D01*
X153492230Y-100125744D01*
X153472396Y-100107979D01*
X153472392Y-100107976D01*
X153469460Y-100105350D01*
X153464580Y-100102815D01*
X153462423Y-100101694D01*
X153462411Y-100101688D01*
X153461232Y-100101076D01*
X153459995Y-100100564D01*
X153459985Y-100100559D01*
X153442939Y-100093499D01*
X153433168Y-100088400D01*
X153418326Y-100078902D01*
X153418324Y-100078901D01*
X153413973Y-100076117D01*
X153387004Y-100069536D01*
X153377906Y-100066561D01*
X153371943Y-100064092D01*
X153366233Y-100061726D01*
X153359375Y-100057708D01*
X153359176Y-100058070D01*
X153354647Y-100055580D01*
X153350592Y-100052383D01*
X153310697Y-100038372D01*
X153306768Y-100036992D01*
X153303561Y-100035766D01*
X153294842Y-100032155D01*
X153282334Y-100026974D01*
X153273635Y-100024958D01*
X153267056Y-100023046D01*
X153229916Y-100010003D01*
X153220679Y-100009203D01*
X153212810Y-100009203D01*
X153198698Y-100007589D01*
X153192437Y-100006138D01*
X153187402Y-100004971D01*
X153182266Y-100005497D01*
X153182263Y-100005497D01*
X153149279Y-100008877D01*
X153142909Y-100009202D01*
X153117858Y-100009202D01*
X153109975Y-100008111D01*
X153109930Y-100008523D01*
X153104794Y-100007956D01*
X153099824Y-100006554D01*
X153053420Y-100009107D01*
X153049989Y-100009201D01*
X153027041Y-100009201D01*
X153026053Y-100009365D01*
X152980824Y-99994868D01*
X152958938Y-99952333D01*
X152959619Y-99942990D01*
X152958920Y-99942946D01*
X152959244Y-99937795D01*
X152960411Y-99932760D01*
X152956505Y-99894636D01*
X152956180Y-99888266D01*
X152956180Y-99863207D01*
X152957269Y-99855327D01*
X152956858Y-99855282D01*
X152957425Y-99850148D01*
X152958827Y-99845177D01*
X152956274Y-99798778D01*
X152956180Y-99795344D01*
X152956180Y-99772394D01*
X152954716Y-99763595D01*
X152953963Y-99756779D01*
X152953871Y-99755097D01*
X152952486Y-99729936D01*
X152952016Y-99721389D01*
X152952016Y-99721387D01*
X152951800Y-99717468D01*
X152949004Y-99708628D01*
X152948095Y-99706432D01*
X152945993Y-99701359D01*
X152942083Y-99687701D01*
X152941028Y-99681361D01*
X152941028Y-99681360D01*
X152940180Y-99676268D01*
X152921981Y-99642539D01*
X152919243Y-99636779D01*
X152875892Y-99532120D01*
X152874902Y-99529730D01*
X152873995Y-99528275D01*
X152872687Y-99525467D01*
X152862400Y-99500892D01*
X152862398Y-99500888D01*
X152860881Y-99497265D01*
X152858370Y-99493945D01*
X152856096Y-99490940D01*
X152856093Y-99490937D01*
X152855287Y-99489871D01*
X152854388Y-99488874D01*
X152854379Y-99488864D01*
X152842020Y-99475169D01*
X152835388Y-99466371D01*
X152826068Y-99451427D01*
X152826067Y-99451425D01*
X152823334Y-99447044D01*
X152819329Y-99443783D01*
X152819327Y-99443781D01*
X152801802Y-99429513D01*
X152794865Y-99422921D01*
X152762155Y-99386677D01*
X152759646Y-99383570D01*
X152758360Y-99381210D01*
X152752039Y-99374427D01*
X152751046Y-99373531D01*
X152751038Y-99373523D01*
X152649439Y-99281837D01*
X152647530Y-99280114D01*
X152646098Y-99279198D01*
X152643704Y-99277218D01*
X152623870Y-99259453D01*
X152623866Y-99259450D01*
X152620934Y-99256824D01*
X152616054Y-99254289D01*
X152613897Y-99253168D01*
X152613885Y-99253162D01*
X152612706Y-99252550D01*
X152611469Y-99252038D01*
X152611459Y-99252033D01*
X152594413Y-99244973D01*
X152584642Y-99239874D01*
X152569800Y-99230376D01*
X152569798Y-99230375D01*
X152565447Y-99227591D01*
X152538478Y-99221010D01*
X152529380Y-99218035D01*
X152523417Y-99215566D01*
X152517707Y-99213200D01*
X152510849Y-99209182D01*
X152510650Y-99209544D01*
X152506121Y-99207054D01*
X152502066Y-99203857D01*
X152490839Y-99199914D01*
X152458242Y-99188466D01*
X152455035Y-99187240D01*
X152446316Y-99183629D01*
X152433808Y-99178448D01*
X152425109Y-99176432D01*
X152418530Y-99174520D01*
X152381390Y-99161477D01*
X152372153Y-99160677D01*
X152364284Y-99160677D01*
X152350172Y-99159063D01*
X152343911Y-99157612D01*
X152338876Y-99156445D01*
X152333740Y-99156971D01*
X152333737Y-99156971D01*
X152300753Y-99160351D01*
X152294383Y-99160676D01*
X152269332Y-99160676D01*
X152261449Y-99159585D01*
X152261404Y-99159997D01*
X152256268Y-99159430D01*
X152251298Y-99158028D01*
X152204894Y-99160581D01*
X152201463Y-99160675D01*
X152178515Y-99160675D01*
X152177527Y-99160839D01*
X152132298Y-99146342D01*
X152110412Y-99103807D01*
X152111093Y-99094464D01*
X152110394Y-99094420D01*
X152110718Y-99089269D01*
X152111885Y-99084234D01*
X152109402Y-99060000D01*
X155315500Y-99060000D01*
X155335047Y-99245977D01*
X155336059Y-99249091D01*
X155336059Y-99249092D01*
X155337982Y-99255010D01*
X155392834Y-99423826D01*
X155394469Y-99426659D01*
X155394470Y-99426660D01*
X155484696Y-99582938D01*
X155484699Y-99582942D01*
X155486334Y-99585774D01*
X155488525Y-99588208D01*
X155488527Y-99588210D01*
X155571180Y-99680004D01*
X155611463Y-99724743D01*
X155614118Y-99726672D01*
X155621268Y-99731867D01*
X155762750Y-99834660D01*
X155933584Y-99910720D01*
X155936791Y-99911402D01*
X155936792Y-99911402D01*
X156113289Y-99948918D01*
X156113292Y-99948918D01*
X156116499Y-99949600D01*
X156303501Y-99949600D01*
X156306708Y-99948918D01*
X156306711Y-99948918D01*
X156483208Y-99911402D01*
X156483209Y-99911402D01*
X156486416Y-99910720D01*
X156657250Y-99834660D01*
X156798732Y-99731867D01*
X156805882Y-99726672D01*
X156808537Y-99724743D01*
X156848820Y-99680004D01*
X156931473Y-99588210D01*
X156931475Y-99588208D01*
X156933666Y-99585774D01*
X156935301Y-99582942D01*
X156935304Y-99582938D01*
X157025530Y-99426660D01*
X157025531Y-99426659D01*
X157027166Y-99423826D01*
X157082018Y-99255010D01*
X157083941Y-99249092D01*
X157083941Y-99249091D01*
X157084953Y-99245977D01*
X157101342Y-99090046D01*
X157116600Y-99061943D01*
X157101342Y-99029954D01*
X157098961Y-99007301D01*
X157084953Y-98874023D01*
X157077893Y-98852293D01*
X157058956Y-98794014D01*
X157027166Y-98696174D01*
X157022263Y-98687681D01*
X156935304Y-98537062D01*
X156935301Y-98537058D01*
X156933666Y-98534226D01*
X156931161Y-98531443D01*
X156810733Y-98397696D01*
X156810734Y-98397696D01*
X156808537Y-98395257D01*
X156657250Y-98285340D01*
X156486416Y-98209280D01*
X156483209Y-98208598D01*
X156483208Y-98208598D01*
X156306711Y-98171082D01*
X156306708Y-98171082D01*
X156303501Y-98170400D01*
X156116499Y-98170400D01*
X156113292Y-98171082D01*
X156113289Y-98171082D01*
X155936792Y-98208598D01*
X155936791Y-98208598D01*
X155933584Y-98209280D01*
X155762750Y-98285340D01*
X155611463Y-98395257D01*
X155609266Y-98397696D01*
X155609267Y-98397696D01*
X155488840Y-98531443D01*
X155486334Y-98534226D01*
X155484699Y-98537058D01*
X155484696Y-98537062D01*
X155397737Y-98687681D01*
X155392834Y-98696174D01*
X155361044Y-98794014D01*
X155342108Y-98852293D01*
X155335047Y-98874023D01*
X155315500Y-99060000D01*
X152109402Y-99060000D01*
X152107979Y-99046110D01*
X152107654Y-99039740D01*
X152107654Y-99014681D01*
X152108743Y-99006801D01*
X152108332Y-99006756D01*
X152108899Y-99001622D01*
X152110301Y-98996651D01*
X152107748Y-98950252D01*
X152107654Y-98946818D01*
X152107654Y-98923868D01*
X152106190Y-98915069D01*
X152105437Y-98908253D01*
X152103490Y-98872863D01*
X152103490Y-98872861D01*
X152103274Y-98868942D01*
X152100478Y-98860102D01*
X152097467Y-98852831D01*
X152093557Y-98839175D01*
X152092502Y-98832835D01*
X152092502Y-98832834D01*
X152091654Y-98827742D01*
X152073455Y-98794013D01*
X152070717Y-98788253D01*
X152027366Y-98683594D01*
X152026376Y-98681204D01*
X152025469Y-98679749D01*
X152024161Y-98676941D01*
X152013874Y-98652366D01*
X152013872Y-98652362D01*
X152012355Y-98648739D01*
X152009844Y-98645419D01*
X152007570Y-98642414D01*
X152007567Y-98642411D01*
X152006761Y-98641345D01*
X152005862Y-98640348D01*
X152005853Y-98640338D01*
X151993494Y-98626643D01*
X151986862Y-98617845D01*
X151977542Y-98602901D01*
X151977541Y-98602899D01*
X151974808Y-98598518D01*
X151970803Y-98595257D01*
X151970801Y-98595255D01*
X151953276Y-98580987D01*
X151946339Y-98574395D01*
X151942611Y-98570264D01*
X151913629Y-98538151D01*
X151911120Y-98535044D01*
X151909834Y-98532684D01*
X151903513Y-98525901D01*
X151902520Y-98525005D01*
X151902512Y-98524997D01*
X151819802Y-98450357D01*
X151799004Y-98431588D01*
X151797572Y-98430672D01*
X151795178Y-98428692D01*
X151775344Y-98410927D01*
X151775340Y-98410924D01*
X151772408Y-98408298D01*
X151767528Y-98405763D01*
X151765371Y-98404642D01*
X151765359Y-98404636D01*
X151764180Y-98404024D01*
X151762943Y-98403512D01*
X151762933Y-98403507D01*
X151745887Y-98396447D01*
X151736116Y-98391348D01*
X151721274Y-98381850D01*
X151721272Y-98381849D01*
X151716921Y-98379065D01*
X151689952Y-98372484D01*
X151680854Y-98369509D01*
X151674891Y-98367040D01*
X151669181Y-98364674D01*
X151662323Y-98360656D01*
X151662124Y-98361018D01*
X151657595Y-98358528D01*
X151653540Y-98355331D01*
X151618272Y-98342945D01*
X151609716Y-98339940D01*
X151606509Y-98338714D01*
X151596127Y-98334414D01*
X151585282Y-98329922D01*
X151576583Y-98327906D01*
X151570004Y-98325994D01*
X151532864Y-98312951D01*
X151523627Y-98312151D01*
X151515758Y-98312151D01*
X151501646Y-98310537D01*
X151495385Y-98309086D01*
X151490350Y-98307919D01*
X151485214Y-98308445D01*
X151485211Y-98308445D01*
X151452227Y-98311825D01*
X151445857Y-98312150D01*
X151420806Y-98312150D01*
X151412923Y-98311059D01*
X151412878Y-98311471D01*
X151407742Y-98310904D01*
X151402772Y-98309502D01*
X151356368Y-98312055D01*
X151352937Y-98312149D01*
X151329989Y-98312149D01*
X151329001Y-98312313D01*
X151283772Y-98297816D01*
X151261886Y-98255281D01*
X151262567Y-98245938D01*
X151261868Y-98245894D01*
X151262192Y-98240743D01*
X151263359Y-98235708D01*
X151259453Y-98197584D01*
X151259128Y-98191214D01*
X151259128Y-98166155D01*
X151260217Y-98158275D01*
X151259806Y-98158230D01*
X151260373Y-98153096D01*
X151261775Y-98148125D01*
X151259222Y-98101726D01*
X151259128Y-98098292D01*
X151259128Y-98075342D01*
X151257664Y-98066543D01*
X151256911Y-98059727D01*
X151254964Y-98024337D01*
X151254964Y-98024335D01*
X151254748Y-98020416D01*
X151251952Y-98011576D01*
X151248941Y-98004305D01*
X151245031Y-97990649D01*
X151243976Y-97984309D01*
X151243976Y-97984308D01*
X151243128Y-97979216D01*
X151224929Y-97945487D01*
X151222191Y-97939727D01*
X151178840Y-97835068D01*
X151177850Y-97832678D01*
X151176943Y-97831223D01*
X151175635Y-97828415D01*
X151165348Y-97803840D01*
X151165346Y-97803836D01*
X151163829Y-97800213D01*
X151159770Y-97794847D01*
X151159044Y-97793888D01*
X151159041Y-97793885D01*
X151158235Y-97792819D01*
X151157336Y-97791822D01*
X151157327Y-97791812D01*
X151144968Y-97778117D01*
X151138336Y-97769319D01*
X151129016Y-97754375D01*
X151129015Y-97754373D01*
X151126282Y-97749992D01*
X151122277Y-97746731D01*
X151122275Y-97746729D01*
X151104750Y-97732461D01*
X151097813Y-97725869D01*
X151065103Y-97689625D01*
X151062594Y-97686518D01*
X151061308Y-97684158D01*
X151054987Y-97677375D01*
X151053994Y-97676479D01*
X151053986Y-97676471D01*
X150976191Y-97606266D01*
X150950478Y-97583062D01*
X150949046Y-97582146D01*
X150946652Y-97580166D01*
X150926818Y-97562401D01*
X150926814Y-97562398D01*
X150923882Y-97559772D01*
X150919002Y-97557237D01*
X150916845Y-97556116D01*
X150916833Y-97556110D01*
X150915654Y-97555498D01*
X150914417Y-97554986D01*
X150914407Y-97554981D01*
X150897361Y-97547921D01*
X150887590Y-97542822D01*
X150887428Y-97542718D01*
X150873951Y-97534094D01*
X150872748Y-97533324D01*
X150872746Y-97533323D01*
X150868395Y-97530539D01*
X150841426Y-97523958D01*
X150832328Y-97520983D01*
X150826365Y-97518514D01*
X150820655Y-97516148D01*
X150813797Y-97512130D01*
X150813598Y-97512492D01*
X150809069Y-97510002D01*
X150805014Y-97506805D01*
X150781315Y-97498482D01*
X150761190Y-97491414D01*
X150757983Y-97490188D01*
X150749264Y-97486577D01*
X150736756Y-97481396D01*
X150728057Y-97479380D01*
X150721478Y-97477468D01*
X150684338Y-97464425D01*
X150675101Y-97463625D01*
X150667232Y-97463625D01*
X150653120Y-97462011D01*
X150646859Y-97460560D01*
X150641824Y-97459393D01*
X150636688Y-97459919D01*
X150636685Y-97459919D01*
X150603701Y-97463299D01*
X150597331Y-97463624D01*
X150572280Y-97463624D01*
X150564397Y-97462533D01*
X150564352Y-97462945D01*
X150559216Y-97462378D01*
X150554246Y-97460976D01*
X150507842Y-97463529D01*
X150504411Y-97463623D01*
X150481463Y-97463623D01*
X150480475Y-97463787D01*
X150435246Y-97449290D01*
X150413360Y-97406755D01*
X150414041Y-97397412D01*
X150413342Y-97397368D01*
X150413666Y-97392217D01*
X150414833Y-97387182D01*
X150410927Y-97349058D01*
X150410602Y-97342688D01*
X150410602Y-97317629D01*
X150411691Y-97309749D01*
X150411280Y-97309704D01*
X150411847Y-97304570D01*
X150413249Y-97299599D01*
X150410696Y-97253200D01*
X150410602Y-97249766D01*
X150410602Y-97226816D01*
X150409138Y-97218017D01*
X150408385Y-97211201D01*
X150406438Y-97175811D01*
X150406438Y-97175809D01*
X150406222Y-97171890D01*
X150403426Y-97163050D01*
X150400415Y-97155779D01*
X150396505Y-97142123D01*
X150395450Y-97135783D01*
X150395450Y-97135782D01*
X150394602Y-97130690D01*
X150376403Y-97096961D01*
X150373665Y-97091201D01*
X150330314Y-96986542D01*
X150329324Y-96984152D01*
X150328417Y-96982697D01*
X150327109Y-96979889D01*
X150316822Y-96955314D01*
X150316820Y-96955310D01*
X150315303Y-96951687D01*
X150309709Y-96944293D01*
X150308810Y-96943296D01*
X150308801Y-96943286D01*
X150296442Y-96929591D01*
X150289810Y-96920793D01*
X150280490Y-96905849D01*
X150280489Y-96905847D01*
X150277756Y-96901466D01*
X150273751Y-96898205D01*
X150273749Y-96898203D01*
X150256224Y-96883935D01*
X150249287Y-96877343D01*
X150216577Y-96841099D01*
X150214068Y-96837992D01*
X150212782Y-96835632D01*
X150206461Y-96828849D01*
X150205468Y-96827953D01*
X150205460Y-96827945D01*
X150110155Y-96741939D01*
X150101952Y-96734536D01*
X150100520Y-96733620D01*
X150098126Y-96731640D01*
X150078292Y-96713875D01*
X150078288Y-96713872D01*
X150075356Y-96711246D01*
X150070476Y-96708711D01*
X150068319Y-96707590D01*
X150068307Y-96707584D01*
X150067128Y-96706972D01*
X150065891Y-96706460D01*
X150065881Y-96706455D01*
X150048835Y-96699395D01*
X150039064Y-96694296D01*
X150034936Y-96691654D01*
X150030944Y-96689100D01*
X150024222Y-96684798D01*
X150024220Y-96684797D01*
X150019869Y-96682013D01*
X149992900Y-96675432D01*
X149983802Y-96672457D01*
X149976484Y-96669426D01*
X149972129Y-96667622D01*
X149965271Y-96663604D01*
X149965072Y-96663966D01*
X149960543Y-96661476D01*
X149956488Y-96658279D01*
X149942729Y-96653447D01*
X149912664Y-96642888D01*
X149909457Y-96641662D01*
X149900738Y-96638051D01*
X149888230Y-96632870D01*
X149879531Y-96630854D01*
X149872952Y-96628942D01*
X149835812Y-96615899D01*
X149826575Y-96615099D01*
X149818706Y-96615099D01*
X149804594Y-96613485D01*
X149798333Y-96612034D01*
X149793298Y-96610867D01*
X149788162Y-96611393D01*
X149788159Y-96611393D01*
X149755175Y-96614773D01*
X149748805Y-96615098D01*
X149723754Y-96615098D01*
X149715871Y-96614007D01*
X149715826Y-96614419D01*
X149710690Y-96613852D01*
X149705720Y-96612450D01*
X149659316Y-96615003D01*
X149655885Y-96615097D01*
X149632937Y-96615097D01*
X149624134Y-96616562D01*
X149617330Y-96617313D01*
X149589507Y-96618844D01*
X149581934Y-96619261D01*
X149581933Y-96619261D01*
X149578011Y-96619477D01*
X149574265Y-96620662D01*
X149574262Y-96620662D01*
X149570463Y-96621863D01*
X149570453Y-96621867D01*
X149569171Y-96622272D01*
X149567919Y-96622791D01*
X149567915Y-96622792D01*
X149561901Y-96625283D01*
X149548250Y-96629192D01*
X149536810Y-96631096D01*
X149503078Y-96649297D01*
X149497336Y-96652026D01*
X149390272Y-96696372D01*
X149388828Y-96697273D01*
X149386020Y-96698580D01*
X149361450Y-96708864D01*
X149361446Y-96708866D01*
X149357820Y-96710384D01*
X149354684Y-96712757D01*
X149354682Y-96712758D01*
X149353206Y-96713875D01*
X149350427Y-96715978D01*
X149335718Y-96729251D01*
X149326931Y-96735873D01*
X149307585Y-96747938D01*
X149304324Y-96751943D01*
X149304322Y-96751945D01*
X149290058Y-96769466D01*
X149283469Y-96776400D01*
X149279504Y-96779978D01*
X149234432Y-96795996D01*
X149191233Y-96775452D01*
X149175226Y-96737012D01*
X149173361Y-96703115D01*
X149173361Y-96703113D01*
X149173145Y-96699194D01*
X149170349Y-96690354D01*
X149167338Y-96683084D01*
X149163428Y-96669426D01*
X149162375Y-96663097D01*
X149162375Y-96663096D01*
X149161526Y-96657997D01*
X149148334Y-96633548D01*
X149143329Y-96624271D01*
X149140591Y-96618511D01*
X149113818Y-96553876D01*
X149099786Y-96520000D01*
X155315500Y-96520000D01*
X155335047Y-96705977D01*
X155336059Y-96709091D01*
X155336059Y-96709092D01*
X155338587Y-96716873D01*
X155392834Y-96883826D01*
X155394469Y-96886659D01*
X155394470Y-96886660D01*
X155484696Y-97042938D01*
X155484699Y-97042942D01*
X155486334Y-97045774D01*
X155488525Y-97048208D01*
X155488527Y-97048210D01*
X155579437Y-97149175D01*
X155611463Y-97184743D01*
X155762750Y-97294660D01*
X155933584Y-97370720D01*
X155936791Y-97371402D01*
X155936792Y-97371402D01*
X156113289Y-97408918D01*
X156113292Y-97408918D01*
X156116499Y-97409600D01*
X156303501Y-97409600D01*
X156306708Y-97408918D01*
X156306711Y-97408918D01*
X156483208Y-97371402D01*
X156483209Y-97371402D01*
X156486416Y-97370720D01*
X156657250Y-97294660D01*
X156808537Y-97184743D01*
X156840563Y-97149175D01*
X156931473Y-97048210D01*
X156931475Y-97048208D01*
X156933666Y-97045774D01*
X156935301Y-97042942D01*
X156935304Y-97042938D01*
X157025530Y-96886660D01*
X157025531Y-96886659D01*
X157027166Y-96883826D01*
X157081413Y-96716873D01*
X157083941Y-96709092D01*
X157083941Y-96709091D01*
X157084953Y-96705977D01*
X157101342Y-96550046D01*
X157116600Y-96521943D01*
X157101342Y-96489954D01*
X157094911Y-96428770D01*
X157084953Y-96334023D01*
X157027166Y-96156174D01*
X157018117Y-96140500D01*
X156935304Y-95997062D01*
X156935301Y-95997058D01*
X156933666Y-95994226D01*
X156928672Y-95988679D01*
X156810733Y-95857696D01*
X156810734Y-95857696D01*
X156808537Y-95855257D01*
X156657250Y-95745340D01*
X156486416Y-95669280D01*
X156483209Y-95668598D01*
X156483208Y-95668598D01*
X156306711Y-95631082D01*
X156306708Y-95631082D01*
X156303501Y-95630400D01*
X156116499Y-95630400D01*
X156113292Y-95631082D01*
X156113289Y-95631082D01*
X155936792Y-95668598D01*
X155936791Y-95668598D01*
X155933584Y-95669280D01*
X155762750Y-95745340D01*
X155611463Y-95855257D01*
X155609266Y-95857696D01*
X155609267Y-95857696D01*
X155491329Y-95988679D01*
X155486334Y-95994226D01*
X155484699Y-95997058D01*
X155484696Y-95997062D01*
X155401883Y-96140500D01*
X155392834Y-96156174D01*
X155335047Y-96334023D01*
X155315500Y-96520000D01*
X149099786Y-96520000D01*
X149096247Y-96511456D01*
X149095342Y-96510006D01*
X149094037Y-96507202D01*
X149082232Y-96478999D01*
X149076637Y-96471606D01*
X149063369Y-96456903D01*
X149056739Y-96448106D01*
X149047414Y-96433154D01*
X149047411Y-96433151D01*
X149044679Y-96428770D01*
X149023150Y-96411242D01*
X149016211Y-96404647D01*
X148984056Y-96369016D01*
X148984055Y-96369015D01*
X148982324Y-96367097D01*
X148956480Y-96346550D01*
X148943476Y-96336212D01*
X148938177Y-96331483D01*
X148733806Y-96127111D01*
X148715500Y-96082917D01*
X148715500Y-93980000D01*
X155315500Y-93980000D01*
X155335047Y-94165977D01*
X155392834Y-94343826D01*
X155394469Y-94346659D01*
X155394470Y-94346660D01*
X155484696Y-94502938D01*
X155484699Y-94502942D01*
X155486334Y-94505774D01*
X155488525Y-94508208D01*
X155488527Y-94508210D01*
X155585259Y-94615640D01*
X155611463Y-94644743D01*
X155762750Y-94754660D01*
X155933584Y-94830720D01*
X155936791Y-94831402D01*
X155936792Y-94831402D01*
X156113289Y-94868918D01*
X156113292Y-94868918D01*
X156116499Y-94869600D01*
X156303501Y-94869600D01*
X156306708Y-94868918D01*
X156306711Y-94868918D01*
X156483208Y-94831402D01*
X156483209Y-94831402D01*
X156486416Y-94830720D01*
X156657250Y-94754660D01*
X156808537Y-94644743D01*
X156834741Y-94615640D01*
X156931473Y-94508210D01*
X156931475Y-94508208D01*
X156933666Y-94505774D01*
X156935301Y-94502942D01*
X156935304Y-94502938D01*
X157025530Y-94346660D01*
X157025531Y-94346659D01*
X157027166Y-94343826D01*
X157084953Y-94165977D01*
X157101342Y-94010046D01*
X157116600Y-93981943D01*
X157101342Y-93949954D01*
X157085295Y-93797279D01*
X157084953Y-93794023D01*
X157027166Y-93616174D01*
X157021741Y-93606778D01*
X156935304Y-93457062D01*
X156935301Y-93457058D01*
X156933666Y-93454226D01*
X156808537Y-93315257D01*
X156657250Y-93205340D01*
X156486416Y-93129280D01*
X156483209Y-93128598D01*
X156483208Y-93128598D01*
X156306711Y-93091082D01*
X156306708Y-93091082D01*
X156303501Y-93090400D01*
X156116499Y-93090400D01*
X156113292Y-93091082D01*
X156113289Y-93091082D01*
X155936792Y-93128598D01*
X155936791Y-93128598D01*
X155933584Y-93129280D01*
X155762750Y-93205340D01*
X155611463Y-93315257D01*
X155486334Y-93454226D01*
X155484699Y-93457058D01*
X155484696Y-93457062D01*
X155398259Y-93606778D01*
X155392834Y-93616174D01*
X155335047Y-93794023D01*
X155315500Y-93980000D01*
X148715500Y-93980000D01*
X148715500Y-91440000D01*
X155315500Y-91440000D01*
X155335047Y-91625977D01*
X155392834Y-91803826D01*
X155394469Y-91806659D01*
X155394470Y-91806660D01*
X155484696Y-91962938D01*
X155484699Y-91962942D01*
X155486334Y-91965774D01*
X155611463Y-92104743D01*
X155762750Y-92214660D01*
X155933584Y-92290720D01*
X155936791Y-92291402D01*
X155936792Y-92291402D01*
X156113289Y-92328918D01*
X156113292Y-92328918D01*
X156116499Y-92329600D01*
X156303501Y-92329600D01*
X156306708Y-92328918D01*
X156306711Y-92328918D01*
X156483208Y-92291402D01*
X156483209Y-92291402D01*
X156486416Y-92290720D01*
X156657250Y-92214660D01*
X156808537Y-92104743D01*
X156933666Y-91965774D01*
X156935301Y-91962942D01*
X156935304Y-91962938D01*
X157025530Y-91806660D01*
X157025531Y-91806659D01*
X157027166Y-91803826D01*
X157084953Y-91625977D01*
X157101342Y-91470046D01*
X157116600Y-91441943D01*
X157101342Y-91409954D01*
X157095011Y-91349717D01*
X157084953Y-91254023D01*
X157027166Y-91076174D01*
X157011002Y-91048177D01*
X156935304Y-90917062D01*
X156935301Y-90917058D01*
X156933666Y-90914226D01*
X156905427Y-90882863D01*
X156810733Y-90777696D01*
X156810734Y-90777696D01*
X156808537Y-90775257D01*
X156657250Y-90665340D01*
X156486416Y-90589280D01*
X156483209Y-90588598D01*
X156483208Y-90588598D01*
X156306711Y-90551082D01*
X156306708Y-90551082D01*
X156303501Y-90550400D01*
X156116499Y-90550400D01*
X156113292Y-90551082D01*
X156113289Y-90551082D01*
X155936792Y-90588598D01*
X155936791Y-90588598D01*
X155933584Y-90589280D01*
X155762750Y-90665340D01*
X155611463Y-90775257D01*
X155609266Y-90777696D01*
X155609267Y-90777696D01*
X155514574Y-90882863D01*
X155486334Y-90914226D01*
X155484699Y-90917058D01*
X155484696Y-90917062D01*
X155408998Y-91048177D01*
X155392834Y-91076174D01*
X155335047Y-91254023D01*
X155315500Y-91440000D01*
X148715500Y-91440000D01*
X148715500Y-89905728D01*
X148716900Y-89892574D01*
X148718985Y-89882888D01*
X148720073Y-89877836D01*
X148715933Y-89842856D01*
X148715500Y-89835510D01*
X148715500Y-89829683D01*
X148711844Y-89807718D01*
X148711429Y-89804802D01*
X148705840Y-89757580D01*
X148705233Y-89752451D01*
X148702997Y-89747795D01*
X148701899Y-89744016D01*
X148700618Y-89740275D01*
X148699770Y-89735177D01*
X148674738Y-89688784D01*
X148673403Y-89686164D01*
X148652282Y-89642179D01*
X148652279Y-89642175D01*
X148650579Y-89638634D01*
X148645172Y-89632201D01*
X148645197Y-89632180D01*
X148643272Y-89629901D01*
X148642268Y-89628607D01*
X148639815Y-89624060D01*
X148603897Y-89590858D01*
X148602128Y-89589157D01*
X148363871Y-89350900D01*
X148345565Y-89306706D01*
X148363871Y-89262512D01*
X148408065Y-89244206D01*
X148425973Y-89246827D01*
X148471374Y-89260405D01*
X148474171Y-89261314D01*
X148523893Y-89278775D01*
X148527811Y-89279114D01*
X148527814Y-89279115D01*
X148532265Y-89279500D01*
X148532262Y-89279532D01*
X148535220Y-89279782D01*
X148536863Y-89279990D01*
X148541810Y-89281469D01*
X148590691Y-89279548D01*
X148593146Y-89279500D01*
X155365798Y-89279500D01*
X155409992Y-89297806D01*
X155419925Y-89310750D01*
X155484696Y-89422938D01*
X155484699Y-89422942D01*
X155486334Y-89425774D01*
X155611463Y-89564743D01*
X155762750Y-89674660D01*
X155933584Y-89750720D01*
X155936791Y-89751402D01*
X155936792Y-89751402D01*
X156113289Y-89788918D01*
X156113292Y-89788918D01*
X156116499Y-89789600D01*
X156303501Y-89789600D01*
X156306708Y-89788918D01*
X156306711Y-89788918D01*
X156483208Y-89751402D01*
X156483209Y-89751402D01*
X156486416Y-89750720D01*
X156657250Y-89674660D01*
X156808537Y-89564743D01*
X156933666Y-89425774D01*
X156935301Y-89422942D01*
X156935304Y-89422938D01*
X157025530Y-89266660D01*
X157025531Y-89266659D01*
X157027166Y-89263826D01*
X157084953Y-89085977D01*
X157101342Y-88930046D01*
X157116600Y-88901943D01*
X157101342Y-88869954D01*
X157085295Y-88717279D01*
X157084953Y-88714023D01*
X157027166Y-88536174D01*
X157025530Y-88533340D01*
X156935304Y-88377062D01*
X156935301Y-88377058D01*
X156933666Y-88374226D01*
X156894218Y-88330414D01*
X156810733Y-88237696D01*
X156810734Y-88237696D01*
X156808537Y-88235257D01*
X156657250Y-88125340D01*
X156486416Y-88049280D01*
X156483209Y-88048598D01*
X156483208Y-88048598D01*
X156306711Y-88011082D01*
X156306708Y-88011082D01*
X156303501Y-88010400D01*
X156116499Y-88010400D01*
X156113292Y-88011082D01*
X156113289Y-88011082D01*
X155936792Y-88048598D01*
X155936791Y-88048598D01*
X155933584Y-88049280D01*
X155762750Y-88125340D01*
X155611463Y-88235257D01*
X155609266Y-88237696D01*
X155609267Y-88237696D01*
X155525783Y-88330414D01*
X155486334Y-88374226D01*
X155484699Y-88377058D01*
X155484696Y-88377062D01*
X155419925Y-88489250D01*
X155381974Y-88518370D01*
X155365798Y-88520500D01*
X148773082Y-88520500D01*
X148728888Y-88502194D01*
X148663888Y-88437194D01*
X148645582Y-88393000D01*
X148663888Y-88348806D01*
X148708082Y-88330500D01*
X149498914Y-88330500D01*
X149607000Y-88315021D01*
X149672752Y-88285125D01*
X149734449Y-88257073D01*
X149734451Y-88257072D01*
X149738504Y-88255229D01*
X149847941Y-88160933D01*
X149926513Y-88039711D01*
X149935279Y-88010400D01*
X149966935Y-87904550D01*
X149966935Y-87904548D01*
X149967904Y-87901309D01*
X149968500Y-87893288D01*
X149968500Y-86891086D01*
X149963864Y-86858712D01*
X150259500Y-86858712D01*
X150259500Y-87860914D01*
X150274979Y-87969000D01*
X150276823Y-87973055D01*
X150311481Y-88049280D01*
X150334771Y-88100504D01*
X150429067Y-88209941D01*
X150550289Y-88288513D01*
X150554551Y-88289788D01*
X150554552Y-88289788D01*
X150685450Y-88328935D01*
X150685452Y-88328935D01*
X150688691Y-88329904D01*
X150692067Y-88330155D01*
X150692068Y-88330155D01*
X150695550Y-88330414D01*
X150695559Y-88330414D01*
X150696712Y-88330500D01*
X151498914Y-88330500D01*
X151607000Y-88315021D01*
X151672752Y-88285125D01*
X151734449Y-88257073D01*
X151734451Y-88257072D01*
X151738504Y-88255229D01*
X151847941Y-88160933D01*
X151926513Y-88039711D01*
X151935279Y-88010400D01*
X151966935Y-87904550D01*
X151966935Y-87904548D01*
X151967904Y-87901309D01*
X151968500Y-87893288D01*
X151968500Y-86891086D01*
X151953021Y-86783000D01*
X151912556Y-86694002D01*
X151895073Y-86655551D01*
X151895072Y-86655549D01*
X151893229Y-86651496D01*
X151798933Y-86542059D01*
X151677711Y-86463487D01*
X151668446Y-86460716D01*
X151539309Y-86422096D01*
X151539840Y-86420320D01*
X151504536Y-86397456D01*
X151493500Y-86361992D01*
X151493500Y-86360000D01*
X155315500Y-86360000D01*
X155335047Y-86545977D01*
X155392834Y-86723826D01*
X155394469Y-86726659D01*
X155394470Y-86726660D01*
X155484696Y-86882938D01*
X155484699Y-86882942D01*
X155486334Y-86885774D01*
X155488525Y-86888208D01*
X155488527Y-86888210D01*
X155543806Y-86949603D01*
X155611463Y-87024743D01*
X155762750Y-87134660D01*
X155933584Y-87210720D01*
X155936791Y-87211402D01*
X155936792Y-87211402D01*
X156113289Y-87248918D01*
X156113292Y-87248918D01*
X156116499Y-87249600D01*
X156303501Y-87249600D01*
X156306708Y-87248918D01*
X156306711Y-87248918D01*
X156483208Y-87211402D01*
X156483209Y-87211402D01*
X156486416Y-87210720D01*
X156657250Y-87134660D01*
X156808537Y-87024743D01*
X156876194Y-86949603D01*
X156931473Y-86888210D01*
X156931475Y-86888208D01*
X156933666Y-86885774D01*
X156935301Y-86882942D01*
X156935304Y-86882938D01*
X157025530Y-86726660D01*
X157025531Y-86726659D01*
X157027166Y-86723826D01*
X157084953Y-86545977D01*
X157101342Y-86390046D01*
X157116600Y-86361943D01*
X157101342Y-86329954D01*
X157092892Y-86249561D01*
X157084953Y-86174023D01*
X157027166Y-85996174D01*
X157003359Y-85954938D01*
X156935304Y-85837062D01*
X156935301Y-85837058D01*
X156933666Y-85834226D01*
X156915943Y-85814542D01*
X156810733Y-85697696D01*
X156810734Y-85697696D01*
X156808537Y-85695257D01*
X156657250Y-85585340D01*
X156486416Y-85509280D01*
X156483209Y-85508598D01*
X156483208Y-85508598D01*
X156306711Y-85471082D01*
X156306708Y-85471082D01*
X156303501Y-85470400D01*
X156116499Y-85470400D01*
X156113292Y-85471082D01*
X156113289Y-85471082D01*
X155936792Y-85508598D01*
X155936791Y-85508598D01*
X155933584Y-85509280D01*
X155762750Y-85585340D01*
X155611463Y-85695257D01*
X155609266Y-85697696D01*
X155609267Y-85697696D01*
X155504058Y-85814542D01*
X155486334Y-85834226D01*
X155484699Y-85837058D01*
X155484696Y-85837062D01*
X155416641Y-85954938D01*
X155392834Y-85996174D01*
X155335047Y-86174023D01*
X155315500Y-86360000D01*
X151493500Y-86360000D01*
X151493500Y-86178634D01*
X151511806Y-86134440D01*
X151516161Y-86130477D01*
X151594755Y-86065459D01*
X151598878Y-86059785D01*
X151684491Y-85941947D01*
X151691924Y-85931717D01*
X151693371Y-85928063D01*
X151751333Y-85781669D01*
X151751334Y-85781667D01*
X151752781Y-85778011D01*
X151773500Y-85614000D01*
X151752781Y-85449989D01*
X151746033Y-85432944D01*
X151693371Y-85299937D01*
X151693370Y-85299935D01*
X151691924Y-85296283D01*
X151639034Y-85223486D01*
X151597065Y-85165720D01*
X151597064Y-85165718D01*
X151594755Y-85162541D01*
X151467378Y-85057166D01*
X151399229Y-85025097D01*
X151321350Y-84988450D01*
X151317797Y-84986778D01*
X151313939Y-84986042D01*
X151159275Y-84956538D01*
X151159273Y-84956538D01*
X151155410Y-84955801D01*
X151143697Y-84956538D01*
X150994347Y-84965935D01*
X150990422Y-84966182D01*
X150833199Y-85017267D01*
X150693619Y-85105847D01*
X150690930Y-85108711D01*
X150690927Y-85108713D01*
X150594630Y-85211259D01*
X150580453Y-85226356D01*
X150500812Y-85371222D01*
X150459700Y-85531343D01*
X150459700Y-85696657D01*
X150500812Y-85856778D01*
X150580453Y-86001644D01*
X150583148Y-86004513D01*
X150583148Y-86004514D01*
X150590899Y-86012768D01*
X150693619Y-86122153D01*
X150696941Y-86124261D01*
X150696942Y-86124262D01*
X150705489Y-86129686D01*
X150732995Y-86168822D01*
X150734500Y-86182456D01*
X150734500Y-86366537D01*
X150716194Y-86410731D01*
X150680861Y-86428406D01*
X150651501Y-86432611D01*
X150621000Y-86436979D01*
X150568794Y-86460716D01*
X150493551Y-86494927D01*
X150493549Y-86494928D01*
X150489496Y-86496771D01*
X150380059Y-86591067D01*
X150301487Y-86712289D01*
X150300212Y-86716551D01*
X150300212Y-86716552D01*
X150274731Y-86801756D01*
X150260096Y-86850691D01*
X150259500Y-86858712D01*
X149963864Y-86858712D01*
X149953021Y-86783000D01*
X149912556Y-86694002D01*
X149895073Y-86655551D01*
X149895072Y-86655549D01*
X149893229Y-86651496D01*
X149798933Y-86542059D01*
X149677711Y-86463487D01*
X149668446Y-86460716D01*
X149539309Y-86422096D01*
X149539840Y-86420320D01*
X149504536Y-86397456D01*
X149493500Y-86361992D01*
X149493500Y-85914005D01*
X149494900Y-85900851D01*
X149496985Y-85891165D01*
X149498073Y-85886113D01*
X149495549Y-85864783D01*
X149493933Y-85851133D01*
X149493500Y-85843787D01*
X149493500Y-85837960D01*
X149489844Y-85815995D01*
X149489429Y-85813079D01*
X149483840Y-85765857D01*
X149483233Y-85760728D01*
X149480997Y-85756072D01*
X149479899Y-85752293D01*
X149478618Y-85748552D01*
X149477770Y-85743454D01*
X149454577Y-85700469D01*
X149452738Y-85697061D01*
X149451401Y-85694437D01*
X149430282Y-85650456D01*
X149430281Y-85650454D01*
X149428579Y-85646910D01*
X149423172Y-85640478D01*
X149423195Y-85640458D01*
X149421280Y-85638188D01*
X149420268Y-85636883D01*
X149417815Y-85632337D01*
X149381898Y-85599136D01*
X149380129Y-85597435D01*
X149257376Y-85474682D01*
X149239070Y-85430488D01*
X149239562Y-85422664D01*
X149249500Y-85344000D01*
X149228781Y-85179989D01*
X149223132Y-85165720D01*
X149169371Y-85029937D01*
X149169370Y-85029935D01*
X149167924Y-85026283D01*
X149119622Y-84959801D01*
X149073065Y-84895720D01*
X149073064Y-84895718D01*
X149070755Y-84892541D01*
X148943378Y-84787166D01*
X148911651Y-84772236D01*
X148804316Y-84721728D01*
X148793797Y-84716778D01*
X148789939Y-84716042D01*
X148635275Y-84686538D01*
X148635273Y-84686538D01*
X148631410Y-84685801D01*
X148619697Y-84686538D01*
X148470347Y-84695935D01*
X148466422Y-84696182D01*
X148309199Y-84747267D01*
X148169619Y-84835847D01*
X148166930Y-84838711D01*
X148166927Y-84838713D01*
X148064893Y-84947368D01*
X148056453Y-84956356D01*
X147976812Y-85101222D01*
X147935700Y-85261343D01*
X147935700Y-85426657D01*
X147976812Y-85586778D01*
X148056453Y-85731644D01*
X148059148Y-85734513D01*
X148059148Y-85734514D01*
X148166927Y-85849287D01*
X148166930Y-85849289D01*
X148169619Y-85852153D01*
X148309199Y-85940733D01*
X148466422Y-85991818D01*
X148470347Y-85992065D01*
X148535637Y-85996173D01*
X148631410Y-86002199D01*
X148635273Y-86001462D01*
X148635275Y-86001462D01*
X148652390Y-85998197D01*
X148660289Y-85996690D01*
X148707130Y-86006390D01*
X148733393Y-86046372D01*
X148734500Y-86058083D01*
X148734500Y-86366537D01*
X148716194Y-86410731D01*
X148680861Y-86428406D01*
X148651501Y-86432611D01*
X148621000Y-86436979D01*
X148568794Y-86460716D01*
X148493551Y-86494927D01*
X148493549Y-86494928D01*
X148489496Y-86496771D01*
X148380059Y-86591067D01*
X148322252Y-86680253D01*
X148313340Y-86694002D01*
X148273941Y-86721131D01*
X148226899Y-86712455D01*
X148203059Y-86681913D01*
X148202899Y-86680953D01*
X148184703Y-86647229D01*
X148181965Y-86641469D01*
X148143701Y-86549092D01*
X148132966Y-86523176D01*
X148132437Y-86522327D01*
X148131552Y-86520414D01*
X148119950Y-86492318D01*
X148114392Y-86484897D01*
X148100440Y-86469285D01*
X148094014Y-86460716D01*
X148084134Y-86444874D01*
X148084131Y-86444871D01*
X148081399Y-86440490D01*
X148071721Y-86432611D01*
X148060175Y-86418780D01*
X148059671Y-86419147D01*
X148057356Y-86415969D01*
X148055456Y-86412521D01*
X148052385Y-86409259D01*
X148050028Y-86406754D01*
X148050019Y-86406746D01*
X148049101Y-86405770D01*
X148024771Y-86384027D01*
X148019822Y-86379077D01*
X148018246Y-86377313D01*
X148018237Y-86377304D01*
X148016519Y-86375382D01*
X148014503Y-86373763D01*
X148003816Y-86365182D01*
X148001300Y-86363050D01*
X147941514Y-86309620D01*
X147941507Y-86309615D01*
X147939585Y-86307897D01*
X147938741Y-86307363D01*
X147937113Y-86306023D01*
X147917400Y-86288366D01*
X147917397Y-86288364D01*
X147914472Y-86285744D01*
X147910984Y-86283932D01*
X147907435Y-86282088D01*
X147907423Y-86282082D01*
X147906244Y-86281470D01*
X147905007Y-86280958D01*
X147904997Y-86280953D01*
X147886901Y-86273458D01*
X147877386Y-86268522D01*
X147861614Y-86258537D01*
X147857248Y-86255773D01*
X147831244Y-86249561D01*
X147821848Y-86246513D01*
X147800014Y-86237469D01*
X147793153Y-86233448D01*
X147792953Y-86233811D01*
X147788428Y-86231323D01*
X147784371Y-86228125D01*
X147779498Y-86226414D01*
X147779497Y-86226413D01*
X147740532Y-86212729D01*
X147737326Y-86211503D01*
X147718499Y-86203705D01*
X147718498Y-86203705D01*
X147716111Y-86202716D01*
X147707420Y-86200702D01*
X147700837Y-86198789D01*
X147673882Y-86189323D01*
X147667402Y-86187047D01*
X147667400Y-86187047D01*
X147663694Y-86185745D01*
X147659781Y-86185406D01*
X147659778Y-86185405D01*
X147655800Y-86185060D01*
X147655789Y-86185060D01*
X147654457Y-86184944D01*
X147646582Y-86184944D01*
X147632470Y-86183330D01*
X147628699Y-86182456D01*
X147621179Y-86180713D01*
X147583071Y-86184618D01*
X147576700Y-86184944D01*
X147566660Y-86184944D01*
X147539471Y-86184943D01*
X147531591Y-86183853D01*
X147531546Y-86184265D01*
X147526416Y-86183699D01*
X147521442Y-86182296D01*
X147490963Y-86183973D01*
X147475041Y-86184849D01*
X147471607Y-86184943D01*
X147448659Y-86184943D01*
X147446114Y-86185367D01*
X147446108Y-86185367D01*
X147443677Y-86185772D01*
X147397077Y-86174969D01*
X147371766Y-86134379D01*
X147372532Y-86110008D01*
X147373435Y-86106111D01*
X147374602Y-86101077D01*
X147370697Y-86062966D01*
X147370371Y-86056594D01*
X147370372Y-86019361D01*
X147371462Y-86011481D01*
X147371050Y-86011436D01*
X147371616Y-86006306D01*
X147373019Y-86001332D01*
X147370466Y-85954938D01*
X147370372Y-85951504D01*
X147370372Y-85928553D01*
X147368907Y-85919752D01*
X147368154Y-85912931D01*
X147366207Y-85877546D01*
X147366207Y-85877545D01*
X147365991Y-85873623D01*
X147363196Y-85864783D01*
X147360184Y-85857511D01*
X147356276Y-85843861D01*
X147356253Y-85843723D01*
X147354373Y-85832427D01*
X147344723Y-85814542D01*
X147336177Y-85798703D01*
X147333439Y-85792943D01*
X147306620Y-85728197D01*
X147284440Y-85674650D01*
X147283911Y-85673801D01*
X147283026Y-85671888D01*
X147271424Y-85643792D01*
X147265866Y-85636371D01*
X147251914Y-85620759D01*
X147245488Y-85612190D01*
X147235608Y-85596348D01*
X147235605Y-85596345D01*
X147232873Y-85591964D01*
X147223195Y-85584085D01*
X147211649Y-85570254D01*
X147211145Y-85570621D01*
X147208830Y-85567443D01*
X147206930Y-85563995D01*
X147203859Y-85560733D01*
X147201502Y-85558228D01*
X147201493Y-85558220D01*
X147200575Y-85557244D01*
X147176245Y-85535501D01*
X147171296Y-85530551D01*
X147169720Y-85528787D01*
X147169711Y-85528778D01*
X147167993Y-85526856D01*
X147155290Y-85516656D01*
X147152774Y-85514524D01*
X147092988Y-85461094D01*
X147092981Y-85461089D01*
X147091059Y-85459371D01*
X147090215Y-85458837D01*
X147088587Y-85457497D01*
X147068874Y-85439840D01*
X147068871Y-85439838D01*
X147065946Y-85437218D01*
X147062458Y-85435406D01*
X147058909Y-85433562D01*
X147058897Y-85433556D01*
X147057718Y-85432944D01*
X147056481Y-85432432D01*
X147056471Y-85432427D01*
X147038375Y-85424932D01*
X147028860Y-85419996D01*
X147013088Y-85410011D01*
X147008722Y-85407247D01*
X146982718Y-85401035D01*
X146973322Y-85397987D01*
X146951488Y-85388943D01*
X146944627Y-85384922D01*
X146944427Y-85385285D01*
X146939902Y-85382797D01*
X146935845Y-85379599D01*
X146930972Y-85377888D01*
X146930971Y-85377887D01*
X146892006Y-85364203D01*
X146888800Y-85362977D01*
X146869973Y-85355179D01*
X146869972Y-85355179D01*
X146867585Y-85354190D01*
X146858894Y-85352176D01*
X146852311Y-85350263D01*
X146823363Y-85340097D01*
X146818876Y-85338521D01*
X146818874Y-85338521D01*
X146815168Y-85337219D01*
X146811255Y-85336880D01*
X146811252Y-85336879D01*
X146807274Y-85336534D01*
X146807263Y-85336534D01*
X146805931Y-85336418D01*
X146798056Y-85336418D01*
X146783944Y-85334804D01*
X146780708Y-85334054D01*
X146772653Y-85332187D01*
X146734545Y-85336092D01*
X146728174Y-85336418D01*
X146718134Y-85336418D01*
X146690945Y-85336417D01*
X146683065Y-85335327D01*
X146683020Y-85335739D01*
X146677890Y-85335173D01*
X146672916Y-85333770D01*
X146642437Y-85335447D01*
X146626515Y-85336323D01*
X146623081Y-85336417D01*
X146600133Y-85336417D01*
X146597588Y-85336841D01*
X146597582Y-85336841D01*
X146595151Y-85337246D01*
X146548551Y-85326443D01*
X146523240Y-85285853D01*
X146524006Y-85261482D01*
X146524909Y-85257585D01*
X146526076Y-85252551D01*
X146522171Y-85214440D01*
X146521845Y-85208068D01*
X146521846Y-85170835D01*
X146522936Y-85162955D01*
X146522524Y-85162910D01*
X146523090Y-85157780D01*
X146524493Y-85152806D01*
X146521940Y-85106412D01*
X146521846Y-85102978D01*
X146521846Y-85080027D01*
X146520381Y-85071226D01*
X146519628Y-85064405D01*
X146517681Y-85029020D01*
X146517681Y-85029019D01*
X146517465Y-85025097D01*
X146514670Y-85016257D01*
X146511658Y-85008985D01*
X146507750Y-84995335D01*
X146507727Y-84995197D01*
X146505847Y-84983901D01*
X146496943Y-84967398D01*
X146487651Y-84950177D01*
X146484913Y-84944417D01*
X146460847Y-84886318D01*
X146435914Y-84826124D01*
X146435385Y-84825275D01*
X146434500Y-84823362D01*
X146422898Y-84795266D01*
X146417340Y-84787845D01*
X146403388Y-84772233D01*
X146396962Y-84763664D01*
X146387082Y-84747822D01*
X146387079Y-84747819D01*
X146384347Y-84743438D01*
X146374669Y-84735559D01*
X146363123Y-84721728D01*
X146362619Y-84722095D01*
X146360304Y-84718917D01*
X146358404Y-84715469D01*
X146355326Y-84712199D01*
X146352976Y-84709702D01*
X146352967Y-84709694D01*
X146352049Y-84708718D01*
X146327719Y-84686975D01*
X146322770Y-84682025D01*
X146321194Y-84680261D01*
X146321185Y-84680252D01*
X146319467Y-84678330D01*
X146310839Y-84671402D01*
X146306764Y-84668130D01*
X146304248Y-84665998D01*
X146244462Y-84612568D01*
X146244455Y-84612563D01*
X146242533Y-84610845D01*
X146241689Y-84610311D01*
X146240061Y-84608971D01*
X146220348Y-84591314D01*
X146220345Y-84591312D01*
X146217420Y-84588692D01*
X146213932Y-84586880D01*
X146210383Y-84585036D01*
X146210371Y-84585030D01*
X146209192Y-84584418D01*
X146207955Y-84583906D01*
X146207945Y-84583901D01*
X146189849Y-84576406D01*
X146180334Y-84571470D01*
X146164562Y-84561485D01*
X146160196Y-84558721D01*
X146134192Y-84552509D01*
X146124796Y-84549461D01*
X146102962Y-84540417D01*
X146096101Y-84536396D01*
X146095901Y-84536759D01*
X146091376Y-84534271D01*
X146087319Y-84531073D01*
X146082446Y-84529362D01*
X146082445Y-84529361D01*
X146043480Y-84515677D01*
X146040274Y-84514451D01*
X146021447Y-84506653D01*
X146021446Y-84506653D01*
X146019059Y-84505664D01*
X146010368Y-84503650D01*
X146003785Y-84501737D01*
X145976830Y-84492271D01*
X145970350Y-84489995D01*
X145970348Y-84489995D01*
X145966642Y-84488693D01*
X145962729Y-84488354D01*
X145962726Y-84488353D01*
X145958748Y-84488008D01*
X145958737Y-84488008D01*
X145957405Y-84487892D01*
X145949530Y-84487892D01*
X145935418Y-84486278D01*
X145932182Y-84485528D01*
X145924127Y-84483661D01*
X145886019Y-84487566D01*
X145879648Y-84487892D01*
X145869608Y-84487892D01*
X145842419Y-84487891D01*
X145834539Y-84486801D01*
X145834494Y-84487213D01*
X145829364Y-84486647D01*
X145824390Y-84485244D01*
X145793911Y-84486921D01*
X145777989Y-84487797D01*
X145774555Y-84487891D01*
X145751607Y-84487891D01*
X145749062Y-84488315D01*
X145749056Y-84488315D01*
X145746625Y-84488720D01*
X145700025Y-84477917D01*
X145674714Y-84437327D01*
X145675480Y-84412956D01*
X145676383Y-84409059D01*
X145677550Y-84404025D01*
X145673645Y-84365914D01*
X145673319Y-84359542D01*
X145673320Y-84322309D01*
X145674410Y-84314429D01*
X145673998Y-84314384D01*
X145674564Y-84309254D01*
X145675967Y-84304280D01*
X145673414Y-84257886D01*
X145673320Y-84254452D01*
X145673320Y-84231501D01*
X145671855Y-84222700D01*
X145671102Y-84215879D01*
X145669155Y-84180494D01*
X145669155Y-84180493D01*
X145668939Y-84176571D01*
X145666144Y-84167731D01*
X145663132Y-84160459D01*
X145659224Y-84146809D01*
X145659201Y-84146671D01*
X145657321Y-84135375D01*
X145639125Y-84101651D01*
X145636387Y-84095891D01*
X145588371Y-83979972D01*
X145587388Y-83977598D01*
X145586859Y-83976749D01*
X145585974Y-83974836D01*
X145574372Y-83946740D01*
X145568814Y-83939319D01*
X145554862Y-83923707D01*
X145548436Y-83915138D01*
X145538556Y-83899296D01*
X145538553Y-83899293D01*
X145535821Y-83894912D01*
X145526143Y-83887033D01*
X145514597Y-83873202D01*
X145514093Y-83873569D01*
X145511778Y-83870391D01*
X145509878Y-83866943D01*
X145505963Y-83862784D01*
X145504450Y-83861176D01*
X145504441Y-83861168D01*
X145503523Y-83860192D01*
X145479193Y-83838449D01*
X145474244Y-83833499D01*
X145472668Y-83831735D01*
X145472659Y-83831726D01*
X145470941Y-83829804D01*
X145468925Y-83828185D01*
X145458731Y-83820000D01*
X155315500Y-83820000D01*
X155335047Y-84005977D01*
X155392834Y-84183826D01*
X155394469Y-84186659D01*
X155394470Y-84186660D01*
X155484696Y-84342938D01*
X155484699Y-84342942D01*
X155486334Y-84345774D01*
X155488525Y-84348208D01*
X155488527Y-84348210D01*
X155555220Y-84422279D01*
X155611463Y-84484743D01*
X155614118Y-84486672D01*
X155615666Y-84487797D01*
X155762750Y-84594660D01*
X155933584Y-84670720D01*
X155936791Y-84671402D01*
X155936792Y-84671402D01*
X156113289Y-84708918D01*
X156113292Y-84708918D01*
X156116499Y-84709600D01*
X156303501Y-84709600D01*
X156306708Y-84708918D01*
X156306711Y-84708918D01*
X156483208Y-84671402D01*
X156483209Y-84671402D01*
X156486416Y-84670720D01*
X156657250Y-84594660D01*
X156804334Y-84487797D01*
X156805882Y-84486672D01*
X156808537Y-84484743D01*
X156864780Y-84422279D01*
X156931473Y-84348210D01*
X156931475Y-84348208D01*
X156933666Y-84345774D01*
X156935301Y-84342942D01*
X156935304Y-84342938D01*
X157025530Y-84186660D01*
X157025531Y-84186659D01*
X157027166Y-84183826D01*
X157084953Y-84005977D01*
X157101342Y-83850046D01*
X157116600Y-83821943D01*
X157101342Y-83789954D01*
X157098351Y-83761500D01*
X157084953Y-83634023D01*
X157027166Y-83456174D01*
X157000138Y-83409360D01*
X156935304Y-83297062D01*
X156935301Y-83297058D01*
X156933666Y-83294226D01*
X156922931Y-83282303D01*
X156829394Y-83178421D01*
X156808537Y-83155257D01*
X156657250Y-83045340D01*
X156486416Y-82969280D01*
X156483209Y-82968598D01*
X156483208Y-82968598D01*
X156306711Y-82931082D01*
X156306708Y-82931082D01*
X156303501Y-82930400D01*
X156116499Y-82930400D01*
X156113292Y-82931082D01*
X156113289Y-82931082D01*
X155936792Y-82968598D01*
X155936791Y-82968598D01*
X155933584Y-82969280D01*
X155762750Y-83045340D01*
X155611463Y-83155257D01*
X155590606Y-83178421D01*
X155497070Y-83282303D01*
X155486334Y-83294226D01*
X155484699Y-83297058D01*
X155484696Y-83297062D01*
X155419862Y-83409360D01*
X155392834Y-83456174D01*
X155335047Y-83634023D01*
X155315500Y-83820000D01*
X145458731Y-83820000D01*
X145458238Y-83819604D01*
X145455722Y-83817472D01*
X145395936Y-83764042D01*
X145395929Y-83764037D01*
X145394007Y-83762319D01*
X145393163Y-83761785D01*
X145391535Y-83760445D01*
X145371822Y-83742788D01*
X145371819Y-83742786D01*
X145368894Y-83740166D01*
X145365406Y-83738354D01*
X145361857Y-83736510D01*
X145361845Y-83736504D01*
X145360666Y-83735892D01*
X145359429Y-83735380D01*
X145359419Y-83735375D01*
X145341323Y-83727880D01*
X145331808Y-83722944D01*
X145316036Y-83712959D01*
X145311670Y-83710195D01*
X145285666Y-83703983D01*
X145276270Y-83700935D01*
X145254436Y-83691891D01*
X145247575Y-83687870D01*
X145247375Y-83688233D01*
X145242850Y-83685745D01*
X145238793Y-83682547D01*
X145233920Y-83680836D01*
X145233919Y-83680835D01*
X145194954Y-83667151D01*
X145191748Y-83665925D01*
X145172921Y-83658127D01*
X145172920Y-83658127D01*
X145170533Y-83657138D01*
X145161842Y-83655124D01*
X145155259Y-83653211D01*
X145128304Y-83643745D01*
X145121824Y-83641469D01*
X145121822Y-83641469D01*
X145118116Y-83640167D01*
X145114203Y-83639828D01*
X145114200Y-83639827D01*
X145110222Y-83639482D01*
X145110211Y-83639482D01*
X145108879Y-83639366D01*
X145101004Y-83639366D01*
X145086892Y-83637752D01*
X145083656Y-83637002D01*
X145075601Y-83635135D01*
X145037493Y-83639040D01*
X145031122Y-83639366D01*
X145021082Y-83639366D01*
X144993893Y-83639365D01*
X144986013Y-83638275D01*
X144985968Y-83638687D01*
X144980838Y-83638121D01*
X144975864Y-83636718D01*
X144945385Y-83638395D01*
X144929463Y-83639271D01*
X144926029Y-83639365D01*
X144903081Y-83639365D01*
X144900536Y-83639789D01*
X144900530Y-83639789D01*
X144898099Y-83640194D01*
X144851499Y-83629391D01*
X144826188Y-83588801D01*
X144826954Y-83564430D01*
X144827857Y-83560533D01*
X144829024Y-83555499D01*
X144825119Y-83517388D01*
X144824793Y-83511016D01*
X144824794Y-83473783D01*
X144825884Y-83465903D01*
X144825472Y-83465858D01*
X144826038Y-83460728D01*
X144827441Y-83455754D01*
X144824888Y-83409360D01*
X144824794Y-83405926D01*
X144824794Y-83382975D01*
X144823329Y-83374174D01*
X144822576Y-83367353D01*
X144820629Y-83331968D01*
X144820629Y-83331967D01*
X144820413Y-83328045D01*
X144817618Y-83319205D01*
X144815323Y-83313664D01*
X144814606Y-83311933D01*
X144810698Y-83298283D01*
X144810495Y-83297062D01*
X144808795Y-83286849D01*
X144790599Y-83253125D01*
X144787861Y-83247365D01*
X144748909Y-83153328D01*
X144738862Y-83129072D01*
X144738333Y-83128223D01*
X144737448Y-83126310D01*
X144725846Y-83098214D01*
X144720288Y-83090793D01*
X144706336Y-83075181D01*
X144699910Y-83066612D01*
X144690030Y-83050770D01*
X144690027Y-83050767D01*
X144687295Y-83046386D01*
X144677617Y-83038507D01*
X144666071Y-83024676D01*
X144665567Y-83025043D01*
X144663252Y-83021865D01*
X144661352Y-83018417D01*
X144658281Y-83015155D01*
X144655924Y-83012650D01*
X144655915Y-83012642D01*
X144654997Y-83011666D01*
X144630667Y-82989923D01*
X144625718Y-82984973D01*
X144624142Y-82983209D01*
X144624133Y-82983200D01*
X144622415Y-82981278D01*
X144620399Y-82979659D01*
X144609712Y-82971078D01*
X144607196Y-82968946D01*
X144547410Y-82915516D01*
X144547403Y-82915511D01*
X144545481Y-82913793D01*
X144544637Y-82913259D01*
X144543009Y-82911919D01*
X144523296Y-82894262D01*
X144523293Y-82894260D01*
X144520368Y-82891640D01*
X144516880Y-82889828D01*
X144513331Y-82887984D01*
X144513319Y-82887978D01*
X144512140Y-82887366D01*
X144510903Y-82886854D01*
X144510893Y-82886849D01*
X144492797Y-82879354D01*
X144483282Y-82874418D01*
X144467510Y-82864433D01*
X144463144Y-82861669D01*
X144437140Y-82855457D01*
X144427744Y-82852409D01*
X144405910Y-82843365D01*
X144399049Y-82839344D01*
X144398849Y-82839707D01*
X144394324Y-82837219D01*
X144390267Y-82834021D01*
X144385394Y-82832310D01*
X144385393Y-82832309D01*
X144346428Y-82818625D01*
X144343222Y-82817399D01*
X144324395Y-82809601D01*
X144324394Y-82809601D01*
X144322007Y-82808612D01*
X144313316Y-82806598D01*
X144306733Y-82804685D01*
X144279163Y-82795003D01*
X144273298Y-82792943D01*
X144273296Y-82792943D01*
X144269590Y-82791641D01*
X144265677Y-82791302D01*
X144265674Y-82791301D01*
X144261696Y-82790956D01*
X144261685Y-82790956D01*
X144260353Y-82790840D01*
X144252478Y-82790840D01*
X144238366Y-82789226D01*
X144235130Y-82788476D01*
X144227075Y-82786609D01*
X144188967Y-82790514D01*
X144182596Y-82790840D01*
X144172556Y-82790840D01*
X144145367Y-82790839D01*
X144137487Y-82789749D01*
X144137442Y-82790161D01*
X144132312Y-82789595D01*
X144127338Y-82788192D01*
X144091552Y-82790161D01*
X144080937Y-82790745D01*
X144077503Y-82790839D01*
X144054555Y-82790839D01*
X144045752Y-82792304D01*
X144038948Y-82793055D01*
X144011125Y-82794586D01*
X144003552Y-82795003D01*
X144003551Y-82795003D01*
X143999629Y-82795219D01*
X143995883Y-82796404D01*
X143995880Y-82796404D01*
X143993134Y-82797272D01*
X143990789Y-82798014D01*
X143989542Y-82798530D01*
X143989538Y-82798532D01*
X143983518Y-82801026D01*
X143969858Y-82804936D01*
X143963529Y-82805989D01*
X143963527Y-82805990D01*
X143958429Y-82806838D01*
X143924708Y-82825032D01*
X143918958Y-82827766D01*
X143854881Y-82854307D01*
X143806328Y-82874418D01*
X143800654Y-82876768D01*
X143799810Y-82877294D01*
X143797896Y-82878180D01*
X143773438Y-82888279D01*
X143773436Y-82888280D01*
X143769801Y-82889781D01*
X143766656Y-82892137D01*
X143763459Y-82894531D01*
X143763452Y-82894537D01*
X143762381Y-82895339D01*
X143761372Y-82896241D01*
X143746769Y-82909290D01*
X143738198Y-82915717D01*
X143722354Y-82925598D01*
X143722348Y-82925604D01*
X143717968Y-82928335D01*
X143701088Y-82949069D01*
X143694271Y-82956205D01*
X143654788Y-82991489D01*
X143654784Y-82991493D01*
X143652864Y-82993209D01*
X143651252Y-82995217D01*
X143651244Y-82995225D01*
X143619945Y-83034204D01*
X143615406Y-83039266D01*
X143409300Y-83245373D01*
X143365107Y-83263679D01*
X143320913Y-83245373D01*
X143304296Y-83215611D01*
X143295470Y-83178421D01*
X143295469Y-83178420D01*
X143294277Y-83173395D01*
X143294326Y-83173383D01*
X143290548Y-83156191D01*
X143290419Y-83152467D01*
X143290418Y-83152463D01*
X143290239Y-83147302D01*
X143276620Y-83111620D01*
X143274648Y-83105533D01*
X143272102Y-83096029D01*
X143263969Y-83078140D01*
X143262485Y-83074585D01*
X143261894Y-83073035D01*
X143244631Y-83027807D01*
X143241152Y-83022891D01*
X143240057Y-83021344D01*
X143240051Y-83021336D01*
X143239275Y-83020240D01*
X143239331Y-83020201D01*
X143236927Y-83016217D01*
X143236789Y-83016309D01*
X143233906Y-83012019D01*
X143231769Y-83007319D01*
X143199812Y-82973466D01*
X143197558Y-82970945D01*
X143150761Y-82915648D01*
X143149098Y-82913683D01*
X143093546Y-82866556D01*
X143089785Y-82863091D01*
X141778877Y-81552182D01*
X141770565Y-81541890D01*
X141765191Y-81533567D01*
X141765189Y-81533564D01*
X141762388Y-81529227D01*
X141734726Y-81507420D01*
X141729234Y-81502539D01*
X141725106Y-81498411D01*
X141706944Y-81485432D01*
X141704650Y-81483709D01*
X141663234Y-81451060D01*
X141658357Y-81449347D01*
X141654891Y-81447442D01*
X141651362Y-81445713D01*
X141647157Y-81442708D01*
X141596588Y-81427584D01*
X141593858Y-81426696D01*
X141544107Y-81409225D01*
X141540189Y-81408886D01*
X141540186Y-81408885D01*
X141535735Y-81408500D01*
X141535738Y-81408468D01*
X141532781Y-81408218D01*
X141531138Y-81408010D01*
X141526191Y-81406531D01*
X141483263Y-81408218D01*
X141477308Y-81408452D01*
X141474854Y-81408500D01*
X137724881Y-81408500D01*
X137680687Y-81390194D01*
X137674317Y-81382736D01*
X137640755Y-81336541D01*
X137637726Y-81334035D01*
X137637724Y-81334033D01*
X137516408Y-81233673D01*
X137513378Y-81231166D01*
X137363797Y-81160778D01*
X137359939Y-81160042D01*
X137205275Y-81130538D01*
X137205273Y-81130538D01*
X137201410Y-81129801D01*
X137189697Y-81130538D01*
X137040347Y-81139935D01*
X137036422Y-81140182D01*
X136879199Y-81191267D01*
X136739619Y-81279847D01*
X136736930Y-81282711D01*
X136736927Y-81282713D01*
X136683390Y-81339724D01*
X136626453Y-81400356D01*
X136546812Y-81545222D01*
X136505700Y-81705343D01*
X136505700Y-81870657D01*
X136546812Y-82030778D01*
X136626453Y-82175644D01*
X136629148Y-82178513D01*
X136629148Y-82178514D01*
X136736927Y-82293287D01*
X136736930Y-82293289D01*
X136739619Y-82296153D01*
X136879199Y-82384733D01*
X137036422Y-82435818D01*
X137040347Y-82436065D01*
X137118916Y-82441008D01*
X137201410Y-82446199D01*
X137205273Y-82445462D01*
X137205275Y-82445462D01*
X137359939Y-82415958D01*
X137363797Y-82415222D01*
X137513378Y-82344834D01*
X137569679Y-82298258D01*
X137637724Y-82241967D01*
X137637726Y-82241965D01*
X137640755Y-82239459D01*
X137674318Y-82193263D01*
X137715103Y-82168270D01*
X137724881Y-82167500D01*
X141294918Y-82167500D01*
X141339112Y-82185806D01*
X141707234Y-82553928D01*
X141725540Y-82598122D01*
X141707234Y-82642316D01*
X141666965Y-82660498D01*
X141616843Y-82663652D01*
X141612347Y-82663935D01*
X141608422Y-82664182D01*
X141451199Y-82715267D01*
X141311619Y-82803847D01*
X141308930Y-82806711D01*
X141308927Y-82806713D01*
X141201148Y-82921486D01*
X141198453Y-82924356D01*
X141118812Y-83069222D01*
X141077700Y-83229343D01*
X141077700Y-83394657D01*
X141118812Y-83554778D01*
X141198453Y-83699644D01*
X141232007Y-83735375D01*
X141271298Y-83777216D01*
X141288206Y-83821963D01*
X141271298Y-83862784D01*
X141262707Y-83871933D01*
X141198453Y-83940356D01*
X141118812Y-84085222D01*
X141077700Y-84245343D01*
X141077700Y-84410657D01*
X141118812Y-84570778D01*
X141198453Y-84715644D01*
X141230126Y-84749372D01*
X141271298Y-84793216D01*
X141288206Y-84837963D01*
X141271298Y-84878784D01*
X141198453Y-84956356D01*
X141118812Y-85101222D01*
X141077700Y-85261343D01*
X141077700Y-85426657D01*
X141118812Y-85586778D01*
X141198453Y-85731644D01*
X141201148Y-85734513D01*
X141201148Y-85734514D01*
X141308927Y-85849287D01*
X141308930Y-85849289D01*
X141311619Y-85852153D01*
X141451199Y-85940733D01*
X141608422Y-85991818D01*
X141612347Y-85992065D01*
X141677637Y-85996173D01*
X141773410Y-86002199D01*
X141777272Y-86001462D01*
X141777277Y-86001462D01*
X141808170Y-85995569D01*
X141855011Y-86005270D01*
X141864074Y-86012768D01*
X146922194Y-91070888D01*
X146940500Y-91115082D01*
X146940500Y-95968289D01*
X146922194Y-96012483D01*
X146878000Y-96030789D01*
X146844007Y-96020736D01*
X146738711Y-95952487D01*
X146734448Y-95951212D01*
X146654141Y-95927195D01*
X146617045Y-95896993D01*
X146612169Y-95849407D01*
X146621484Y-95830581D01*
X146627924Y-95821717D01*
X146688781Y-95668011D01*
X146709500Y-95504000D01*
X146688781Y-95339989D01*
X146659105Y-95265035D01*
X146629371Y-95189937D01*
X146629370Y-95189935D01*
X146627924Y-95186283D01*
X146530755Y-95052541D01*
X146403378Y-94947166D01*
X146253797Y-94876778D01*
X146216169Y-94869600D01*
X146095275Y-94846538D01*
X146095273Y-94846538D01*
X146091410Y-94845801D01*
X146079697Y-94846538D01*
X145930347Y-94855935D01*
X145926422Y-94856182D01*
X145769199Y-94907267D01*
X145629619Y-94995847D01*
X145626930Y-94998711D01*
X145626927Y-94998713D01*
X145573394Y-95055720D01*
X145516453Y-95116356D01*
X145514558Y-95119803D01*
X145497249Y-95151288D01*
X145459917Y-95181196D01*
X145412370Y-95175947D01*
X145382462Y-95138615D01*
X145379980Y-95121178D01*
X145379980Y-91530154D01*
X145398286Y-91485960D01*
X145402641Y-91481997D01*
X145481235Y-91416979D01*
X145491086Y-91403421D01*
X145576095Y-91286415D01*
X145578404Y-91283237D01*
X145608075Y-91208298D01*
X145637813Y-91133189D01*
X145637814Y-91133187D01*
X145639261Y-91129531D01*
X145659980Y-90965520D01*
X145639261Y-90801509D01*
X145628104Y-90773328D01*
X145579851Y-90651457D01*
X145579850Y-90651455D01*
X145578404Y-90647803D01*
X145481235Y-90514061D01*
X145353858Y-90408686D01*
X145204277Y-90338298D01*
X145200419Y-90337562D01*
X145045755Y-90308058D01*
X145045753Y-90308058D01*
X145041890Y-90307321D01*
X145030177Y-90308058D01*
X144880827Y-90317455D01*
X144876902Y-90317702D01*
X144719679Y-90368787D01*
X144580099Y-90457367D01*
X144577410Y-90460231D01*
X144577407Y-90460233D01*
X144523874Y-90517240D01*
X144466933Y-90577876D01*
X144387292Y-90722742D01*
X144346180Y-90882863D01*
X144346180Y-91048177D01*
X144387292Y-91208298D01*
X144466933Y-91353164D01*
X144580099Y-91473673D01*
X144583421Y-91475781D01*
X144583422Y-91475782D01*
X144591969Y-91481206D01*
X144619475Y-91520342D01*
X144620980Y-91533976D01*
X144620980Y-97731975D01*
X144619580Y-97745129D01*
X144616407Y-97759867D01*
X144617014Y-97764997D01*
X144617014Y-97764999D01*
X144620547Y-97794847D01*
X144620980Y-97802193D01*
X144620980Y-97808020D01*
X144623744Y-97824626D01*
X144624636Y-97829985D01*
X144625051Y-97832901D01*
X144626160Y-97842273D01*
X144631247Y-97885252D01*
X144633483Y-97889908D01*
X144634581Y-97893687D01*
X144635862Y-97897428D01*
X144636710Y-97902526D01*
X144639164Y-97907074D01*
X144661742Y-97948919D01*
X144663079Y-97951543D01*
X144679551Y-97985845D01*
X144685901Y-97999070D01*
X144688433Y-98002082D01*
X144691308Y-98005502D01*
X144691285Y-98005522D01*
X144693200Y-98007792D01*
X144694212Y-98009097D01*
X144696665Y-98013643D01*
X144700460Y-98017151D01*
X144732583Y-98046845D01*
X144734352Y-98048546D01*
X145052873Y-98367067D01*
X145071007Y-98415893D01*
X145070500Y-98422712D01*
X145070500Y-99199914D01*
X145085979Y-99308000D01*
X145096170Y-99330413D01*
X145140503Y-99427917D01*
X145145771Y-99439504D01*
X145240067Y-99548941D01*
X145361289Y-99627513D01*
X145365551Y-99628788D01*
X145365552Y-99628788D01*
X145449127Y-99653782D01*
X145486223Y-99683983D01*
X145491099Y-99731570D01*
X145485989Y-99743770D01*
X145436812Y-99833222D01*
X145395700Y-99993343D01*
X145395700Y-100158657D01*
X145436812Y-100318778D01*
X145516453Y-100463644D01*
X145519148Y-100466513D01*
X145519148Y-100466514D01*
X145626927Y-100581287D01*
X145626930Y-100581289D01*
X145629619Y-100584153D01*
X145769199Y-100672733D01*
X145772934Y-100673947D01*
X145772935Y-100673947D01*
X145778540Y-100675768D01*
X145926422Y-100723818D01*
X145930347Y-100724065D01*
X146008916Y-100729008D01*
X146091410Y-100734199D01*
X146095273Y-100733462D01*
X146095275Y-100733462D01*
X146249939Y-100703958D01*
X146253797Y-100703222D01*
X146376258Y-100645596D01*
X146399821Y-100634508D01*
X146399822Y-100634507D01*
X146403378Y-100632834D01*
X146530755Y-100527459D01*
X146536098Y-100520106D01*
X146625615Y-100396895D01*
X146627924Y-100393717D01*
X146631148Y-100385575D01*
X146687333Y-100243669D01*
X146687334Y-100243667D01*
X146688781Y-100240011D01*
X146709500Y-100076000D01*
X146708308Y-100066560D01*
X146704377Y-100035443D01*
X146688781Y-99911989D01*
X146681911Y-99894636D01*
X146629371Y-99761937D01*
X146629370Y-99761935D01*
X146627924Y-99758283D01*
X146625616Y-99755107D01*
X146625611Y-99755097D01*
X146624048Y-99752946D01*
X146623753Y-99751718D01*
X146623718Y-99751654D01*
X146623736Y-99751644D01*
X146612883Y-99706432D01*
X146637879Y-99665647D01*
X146659592Y-99656840D01*
X146659318Y-99655902D01*
X146663591Y-99654652D01*
X146668000Y-99654021D01*
X146750623Y-99616454D01*
X146795449Y-99596073D01*
X146795451Y-99596072D01*
X146799504Y-99594229D01*
X146838061Y-99561006D01*
X146883489Y-99546027D01*
X146926205Y-99567557D01*
X146940509Y-99598094D01*
X146944156Y-99620006D01*
X146944571Y-99622921D01*
X146948553Y-99656562D01*
X146950767Y-99675272D01*
X146953003Y-99679928D01*
X146954101Y-99683707D01*
X146955382Y-99687448D01*
X146956230Y-99692546D01*
X146958684Y-99697094D01*
X146981262Y-99738939D01*
X146982599Y-99741563D01*
X146998414Y-99774497D01*
X147005421Y-99789090D01*
X147007953Y-99792102D01*
X147010828Y-99795522D01*
X147010805Y-99795542D01*
X147012720Y-99797812D01*
X147013732Y-99799117D01*
X147016185Y-99803663D01*
X147019980Y-99807171D01*
X147052103Y-99836865D01*
X147053872Y-99838566D01*
X155090632Y-107875326D01*
X155098943Y-107885616D01*
X155107123Y-107898284D01*
X155111181Y-107901483D01*
X155134786Y-107920092D01*
X155140286Y-107924980D01*
X155144405Y-107929099D01*
X155162553Y-107942068D01*
X155164848Y-107943791D01*
X155206277Y-107976451D01*
X155211150Y-107978162D01*
X155214589Y-107980053D01*
X155218150Y-107981798D01*
X155222354Y-107984802D01*
X155227301Y-107986281D01*
X155227302Y-107986282D01*
X155272869Y-107999909D01*
X155275665Y-108000819D01*
X155325404Y-108018286D01*
X155329322Y-108018625D01*
X155329325Y-108018626D01*
X155333776Y-108019011D01*
X155333773Y-108019042D01*
X155336752Y-108019294D01*
X155338369Y-108019498D01*
X155343320Y-108020979D01*
X155392188Y-108019059D01*
X155394641Y-108019011D01*
X156624561Y-108019011D01*
X156637715Y-108020411D01*
X156652453Y-108023584D01*
X156657583Y-108022977D01*
X156657585Y-108022977D01*
X156687433Y-108019444D01*
X156694779Y-108019011D01*
X156700606Y-108019011D01*
X156717212Y-108016247D01*
X156722571Y-108015355D01*
X156725487Y-108014940D01*
X156772709Y-108009351D01*
X156777838Y-108008744D01*
X156782494Y-108006508D01*
X156786273Y-108005410D01*
X156790014Y-108004129D01*
X156795112Y-108003281D01*
X156829360Y-107984802D01*
X156841505Y-107978249D01*
X156844129Y-107976912D01*
X156888110Y-107955793D01*
X156888112Y-107955792D01*
X156891656Y-107954090D01*
X156898088Y-107948683D01*
X156898108Y-107948706D01*
X156900378Y-107946791D01*
X156901683Y-107945779D01*
X156906229Y-107943326D01*
X156939431Y-107907408D01*
X156941132Y-107905639D01*
X157119306Y-107727465D01*
X157163500Y-107709159D01*
X157207694Y-107727465D01*
X157226000Y-107771659D01*
X157226000Y-109183421D01*
X157212004Y-109217209D01*
X157212072Y-109217246D01*
X157226000Y-109256579D01*
X157226000Y-111723421D01*
X157212004Y-111757209D01*
X157212072Y-111757246D01*
X157226000Y-111796579D01*
X157226000Y-114263421D01*
X157212004Y-114297209D01*
X157212072Y-114297246D01*
X157226000Y-114336579D01*
X157226000Y-116803421D01*
X157212004Y-116837209D01*
X157212072Y-116837246D01*
X157226000Y-116876579D01*
X157226000Y-118713550D01*
X157207694Y-118757744D01*
X157178886Y-118774127D01*
X157173788Y-118775422D01*
X156578000Y-119371210D01*
X156574359Y-119380000D01*
X156578000Y-119388790D01*
X157170048Y-119980838D01*
X157187418Y-119988033D01*
X157221243Y-120021858D01*
X157226000Y-120045775D01*
X157226000Y-121883421D01*
X157212004Y-121917209D01*
X157212072Y-121917246D01*
X157226000Y-121956579D01*
X157226000Y-124253848D01*
X157207694Y-124298042D01*
X157163500Y-124316348D01*
X157119306Y-124298042D01*
X157110210Y-124286504D01*
X157078578Y-124234885D01*
X157078576Y-124234882D01*
X157077577Y-124233252D01*
X157071992Y-124226230D01*
X156907170Y-124019022D01*
X156879236Y-123983904D01*
X156651986Y-123760585D01*
X156618710Y-123735051D01*
X156507492Y-123649711D01*
X156399214Y-123566626D01*
X156124688Y-123404918D01*
X156122623Y-123404020D01*
X155834258Y-123278635D01*
X155834251Y-123278632D01*
X155832502Y-123277872D01*
X155830668Y-123277329D01*
X155830666Y-123277328D01*
X155528847Y-123187925D01*
X155528845Y-123187924D01*
X155527010Y-123187381D01*
X155525127Y-123187066D01*
X155525123Y-123187065D01*
X155354626Y-123158534D01*
X155212767Y-123134795D01*
X155210873Y-123134712D01*
X155210870Y-123134712D01*
X155053612Y-123127846D01*
X154894458Y-123120897D01*
X154576828Y-123145895D01*
X154574951Y-123146277D01*
X154574950Y-123146277D01*
X154266488Y-123209035D01*
X154266483Y-123209036D01*
X154264612Y-123209417D01*
X154262798Y-123210024D01*
X154262794Y-123210025D01*
X154007910Y-123295308D01*
X153962464Y-123310514D01*
X153792742Y-123391467D01*
X153691125Y-123439936D01*
X153674889Y-123447680D01*
X153673276Y-123448707D01*
X153673277Y-123448707D01*
X153480857Y-123571292D01*
X153406174Y-123618870D01*
X153404706Y-123620080D01*
X153404702Y-123620083D01*
X153281768Y-123721423D01*
X153160325Y-123821533D01*
X153159017Y-123822911D01*
X153159012Y-123822916D01*
X152942318Y-124051264D01*
X152941007Y-124052646D01*
X152751489Y-124308764D01*
X152750551Y-124310421D01*
X152750547Y-124310428D01*
X152747198Y-124316348D01*
X152594597Y-124586070D01*
X152472669Y-124880430D01*
X152387524Y-125187454D01*
X152387242Y-125189342D01*
X152387241Y-125189346D01*
X152340714Y-125500666D01*
X152340430Y-125502567D01*
X152332090Y-125821070D01*
X152362627Y-126138216D01*
X152363039Y-126140076D01*
X152363040Y-126140080D01*
X152372585Y-126183135D01*
X152431588Y-126449276D01*
X152432222Y-126451066D01*
X152432223Y-126451070D01*
X152537305Y-126747812D01*
X152537943Y-126749613D01*
X152680107Y-127034750D01*
X152855961Y-127300436D01*
X152857198Y-127301884D01*
X152857203Y-127301891D01*
X153061643Y-127541260D01*
X153061649Y-127541267D01*
X153062883Y-127542711D01*
X153064283Y-127543994D01*
X153064287Y-127543998D01*
X153274615Y-127736728D01*
X153297788Y-127757962D01*
X153299343Y-127759071D01*
X153299344Y-127759072D01*
X153500588Y-127902618D01*
X153525937Y-127943185D01*
X153515176Y-127989794D01*
X153474609Y-128015143D01*
X153464294Y-128016000D01*
X151948113Y-128016000D01*
X151937642Y-128015117D01*
X151925032Y-128012974D01*
X151909868Y-128010397D01*
X151906794Y-128010483D01*
X151906792Y-128010483D01*
X151867693Y-128011579D01*
X151863463Y-128011362D01*
X151859825Y-128010127D01*
X151816379Y-128012974D01*
X151814055Y-128013083D01*
X151792982Y-128013674D01*
X151789991Y-128014356D01*
X151787834Y-128014630D01*
X151785671Y-128014987D01*
X151782611Y-128015188D01*
X151779648Y-128015982D01*
X151779647Y-128015982D01*
X151762259Y-128020641D01*
X151760004Y-128021200D01*
X151717543Y-128030891D01*
X151714409Y-128033115D01*
X151710415Y-128034533D01*
X151678077Y-128043198D01*
X151670056Y-128044794D01*
X151668325Y-128045022D01*
X151662181Y-128044619D01*
X151656352Y-128046597D01*
X151656348Y-128046598D01*
X151624419Y-128057436D01*
X151620506Y-128058623D01*
X151608293Y-128061895D01*
X151608285Y-128061898D01*
X151605326Y-128062691D01*
X151601019Y-128064815D01*
X151593460Y-128067946D01*
X151588908Y-128069491D01*
X151575274Y-128077363D01*
X151571680Y-128079284D01*
X151541447Y-128094192D01*
X151541444Y-128094194D01*
X151535927Y-128096915D01*
X151531869Y-128101541D01*
X151530482Y-128102606D01*
X151523693Y-128107142D01*
X151497799Y-128122093D01*
X151495177Y-128123607D01*
X151487847Y-128127222D01*
X151486236Y-128127889D01*
X151480199Y-128129090D01*
X151473964Y-128133256D01*
X151447063Y-128151230D01*
X151443604Y-128153382D01*
X151429960Y-128161260D01*
X151427652Y-128163284D01*
X151426343Y-128164432D01*
X151419861Y-128169407D01*
X151415861Y-128172079D01*
X151404747Y-128183193D01*
X151401762Y-128185989D01*
X151371783Y-128212280D01*
X151369061Y-128217799D01*
X151367994Y-128219190D01*
X151362604Y-128225336D01*
X151339333Y-128248607D01*
X151333186Y-128253998D01*
X151331799Y-128255063D01*
X151326280Y-128257784D01*
X151322223Y-128262410D01*
X151299985Y-128287767D01*
X151297193Y-128290747D01*
X151286079Y-128301861D01*
X151284374Y-128304413D01*
X151283409Y-128305857D01*
X151278432Y-128312343D01*
X151275260Y-128315960D01*
X151267393Y-128329586D01*
X151265240Y-128333049D01*
X151243089Y-128366199D01*
X151241888Y-128372236D01*
X151241220Y-128373849D01*
X151237604Y-128381181D01*
X151221144Y-128409690D01*
X151216602Y-128416489D01*
X151215544Y-128417868D01*
X151210915Y-128421927D01*
X151208193Y-128427447D01*
X151208191Y-128427450D01*
X151193281Y-128457686D01*
X151191360Y-128461280D01*
X151183491Y-128474909D01*
X151182503Y-128477819D01*
X151182503Y-128477820D01*
X151181947Y-128479458D01*
X151178819Y-128487012D01*
X151176691Y-128491326D01*
X151175899Y-128494283D01*
X151175898Y-128494285D01*
X151172620Y-128506520D01*
X151171432Y-128510435D01*
X151158619Y-128548181D01*
X151159022Y-128554322D01*
X151158793Y-128556058D01*
X151157200Y-128564070D01*
X151148531Y-128596422D01*
X151147115Y-128600408D01*
X151144891Y-128603543D01*
X151143521Y-128609547D01*
X151135204Y-128645988D01*
X151134642Y-128648255D01*
X151129188Y-128668611D01*
X151128987Y-128671671D01*
X151128630Y-128673834D01*
X151128356Y-128675991D01*
X151127674Y-128678982D01*
X151127588Y-128682050D01*
X151127083Y-128700050D01*
X151126974Y-128702379D01*
X151124127Y-128745825D01*
X151125362Y-128749463D01*
X151125579Y-128753694D01*
X151124291Y-128799642D01*
X151122186Y-128814067D01*
X151108421Y-128865439D01*
X151102178Y-128880513D01*
X151077868Y-128922619D01*
X151067935Y-128935563D01*
X151033564Y-128969934D01*
X151020620Y-128979867D01*
X150978512Y-129004178D01*
X150963439Y-129010421D01*
X150912061Y-129024188D01*
X150897644Y-129026292D01*
X150843616Y-129027806D01*
X150840619Y-129028490D01*
X150832105Y-129030433D01*
X150818199Y-129032000D01*
X141789801Y-129032000D01*
X141775895Y-129030433D01*
X141767381Y-129028490D01*
X141764384Y-129027806D01*
X141710355Y-129026292D01*
X141695940Y-129024188D01*
X141644559Y-129010421D01*
X141629487Y-129004178D01*
X141587381Y-128979868D01*
X141574437Y-128969935D01*
X141540066Y-128935564D01*
X141530133Y-128922620D01*
X141505822Y-128880512D01*
X141499579Y-128865438D01*
X141485814Y-128814067D01*
X141483709Y-128799642D01*
X141482421Y-128753694D01*
X141482638Y-128749463D01*
X141483873Y-128745825D01*
X141481026Y-128702379D01*
X141480917Y-128700050D01*
X141480412Y-128682050D01*
X141480326Y-128678982D01*
X141479644Y-128675991D01*
X141479370Y-128673834D01*
X141479013Y-128671671D01*
X141478812Y-128668611D01*
X141473358Y-128648255D01*
X141472796Y-128645988D01*
X141464479Y-128609547D01*
X141463109Y-128603543D01*
X141460885Y-128600409D01*
X141459467Y-128596415D01*
X141456053Y-128583672D01*
X141450801Y-128564074D01*
X141449206Y-128556056D01*
X141448978Y-128554325D01*
X141449381Y-128548181D01*
X141447403Y-128542352D01*
X141447402Y-128542348D01*
X141436564Y-128510419D01*
X141435377Y-128506506D01*
X141432105Y-128494293D01*
X141432102Y-128494285D01*
X141431309Y-128491326D01*
X141429838Y-128488342D01*
X141429187Y-128487024D01*
X141426054Y-128479460D01*
X141425497Y-128477819D01*
X141424509Y-128474908D01*
X141416637Y-128461274D01*
X141414716Y-128457680D01*
X141399808Y-128427447D01*
X141399806Y-128427444D01*
X141397085Y-128421927D01*
X141392459Y-128417869D01*
X141391394Y-128416482D01*
X141386858Y-128409693D01*
X141370393Y-128381177D01*
X141366778Y-128373847D01*
X141366111Y-128372236D01*
X141364910Y-128366199D01*
X141342761Y-128333049D01*
X141340611Y-128329593D01*
X141340601Y-128329574D01*
X141332740Y-128315960D01*
X141329568Y-128312343D01*
X141324590Y-128305856D01*
X141323627Y-128304414D01*
X141323627Y-128304413D01*
X141321921Y-128301861D01*
X141310807Y-128290747D01*
X141308011Y-128287762D01*
X141285778Y-128262410D01*
X141285777Y-128262409D01*
X141281720Y-128257783D01*
X141276201Y-128255061D01*
X141274810Y-128253994D01*
X141268664Y-128248604D01*
X141245393Y-128225333D01*
X141240002Y-128219186D01*
X141238937Y-128217799D01*
X141236216Y-128212280D01*
X141206233Y-128185985D01*
X141203249Y-128183189D01*
X141192139Y-128172079D01*
X141188143Y-128169409D01*
X141181653Y-128164429D01*
X141178040Y-128161260D01*
X141164414Y-128153393D01*
X141160951Y-128151240D01*
X141134037Y-128133256D01*
X141127801Y-128129089D01*
X141121764Y-128127888D01*
X141120151Y-128127220D01*
X141112819Y-128123604D01*
X141084310Y-128107144D01*
X141077511Y-128102602D01*
X141076132Y-128101544D01*
X141072073Y-128096915D01*
X141066551Y-128094192D01*
X141066550Y-128094191D01*
X141036314Y-128079281D01*
X141032709Y-128077354D01*
X141019091Y-128069491D01*
X141014542Y-128067947D01*
X141006988Y-128064819D01*
X141002674Y-128062691D01*
X140999717Y-128061899D01*
X140999715Y-128061898D01*
X140987480Y-128058620D01*
X140983565Y-128057432D01*
X140975943Y-128054845D01*
X140945819Y-128044619D01*
X140939678Y-128045022D01*
X140937942Y-128044793D01*
X140929930Y-128043200D01*
X140897578Y-128034531D01*
X140893592Y-128033115D01*
X140890457Y-128030891D01*
X140847996Y-128021200D01*
X140845741Y-128020641D01*
X140828353Y-128015982D01*
X140828352Y-128015982D01*
X140825389Y-128015188D01*
X140822329Y-128014987D01*
X140820166Y-128014630D01*
X140818009Y-128014356D01*
X140815018Y-128013674D01*
X140793945Y-128013083D01*
X140791621Y-128012974D01*
X140748175Y-128010127D01*
X140744537Y-128011362D01*
X140740307Y-128011579D01*
X140701208Y-128010483D01*
X140701206Y-128010483D01*
X140698132Y-128010397D01*
X140682968Y-128012974D01*
X140670358Y-128015117D01*
X140659887Y-128016000D01*
X138633656Y-128016000D01*
X138589462Y-127997694D01*
X138571156Y-127953500D01*
X138589462Y-127909306D01*
X138598256Y-127901992D01*
X138764994Y-127787397D01*
X138765000Y-127787393D01*
X138766569Y-127786314D01*
X139005195Y-127575195D01*
X139216314Y-127336569D01*
X139217393Y-127335000D01*
X139217397Y-127334994D01*
X139395696Y-127075567D01*
X139395699Y-127075562D01*
X139396778Y-127073992D01*
X139417206Y-127034750D01*
X139543012Y-126793080D01*
X139543015Y-126793074D01*
X139543897Y-126791379D01*
X139620503Y-126586488D01*
X139654805Y-126494742D01*
X139654806Y-126494738D01*
X139655477Y-126492944D01*
X139655924Y-126491084D01*
X139655926Y-126491076D01*
X139729408Y-126185000D01*
X139729856Y-126183135D01*
X139765924Y-125866571D01*
X139766238Y-125854560D01*
X141129500Y-125854560D01*
X141129500Y-127190026D01*
X141144550Y-127328565D01*
X141145628Y-127331770D01*
X141145629Y-127331772D01*
X141147724Y-127337997D01*
X141203765Y-127504519D01*
X141299383Y-127663653D01*
X141426941Y-127798542D01*
X141580489Y-127902893D01*
X141646727Y-127929386D01*
X141749719Y-127970581D01*
X141749723Y-127970582D01*
X141752863Y-127971838D01*
X141756200Y-127972390D01*
X141756202Y-127972391D01*
X141932680Y-128001607D01*
X141932681Y-128001607D01*
X141936021Y-128002160D01*
X141939402Y-128001983D01*
X141939406Y-128001983D01*
X142072906Y-127994986D01*
X142121418Y-127992444D01*
X142124676Y-127991547D01*
X142124680Y-127991546D01*
X142277037Y-127949579D01*
X142300403Y-127943143D01*
X142464626Y-127856558D01*
X142549245Y-127785050D01*
X142581299Y-127757962D01*
X142606426Y-127736728D01*
X142719186Y-127589244D01*
X142780371Y-127458031D01*
X142796213Y-127424059D01*
X142796214Y-127424055D01*
X142797645Y-127420987D01*
X142838144Y-127239808D01*
X142838500Y-127233440D01*
X142838500Y-125897974D01*
X142833784Y-125854560D01*
X149769500Y-125854560D01*
X149769500Y-127190026D01*
X149784550Y-127328565D01*
X149785628Y-127331770D01*
X149785629Y-127331772D01*
X149787724Y-127337997D01*
X149843765Y-127504519D01*
X149939383Y-127663653D01*
X150066941Y-127798542D01*
X150220489Y-127902893D01*
X150286727Y-127929386D01*
X150389719Y-127970581D01*
X150389723Y-127970582D01*
X150392863Y-127971838D01*
X150396200Y-127972390D01*
X150396202Y-127972391D01*
X150572680Y-128001607D01*
X150572681Y-128001607D01*
X150576021Y-128002160D01*
X150579402Y-128001983D01*
X150579406Y-128001983D01*
X150712906Y-127994986D01*
X150761418Y-127992444D01*
X150764676Y-127991547D01*
X150764680Y-127991546D01*
X150917037Y-127949579D01*
X150940403Y-127943143D01*
X151104626Y-127856558D01*
X151189245Y-127785050D01*
X151221299Y-127757962D01*
X151246426Y-127736728D01*
X151359186Y-127589244D01*
X151420371Y-127458031D01*
X151436213Y-127424059D01*
X151436214Y-127424055D01*
X151437645Y-127420987D01*
X151478144Y-127239808D01*
X151478500Y-127233440D01*
X151478500Y-125897974D01*
X151463450Y-125759435D01*
X151404235Y-125583481D01*
X151308617Y-125424347D01*
X151181059Y-125289458D01*
X151027511Y-125185107D01*
X150930835Y-125146439D01*
X150858281Y-125117419D01*
X150858277Y-125117418D01*
X150855137Y-125116162D01*
X150851800Y-125115610D01*
X150851798Y-125115609D01*
X150675320Y-125086393D01*
X150675319Y-125086393D01*
X150671979Y-125085840D01*
X150668598Y-125086017D01*
X150668594Y-125086017D01*
X150535094Y-125093014D01*
X150486582Y-125095556D01*
X150483324Y-125096453D01*
X150483320Y-125096454D01*
X150407209Y-125117419D01*
X150307597Y-125144857D01*
X150143374Y-125231442D01*
X150001574Y-125351272D01*
X149888814Y-125498756D01*
X149810355Y-125667013D01*
X149809617Y-125670316D01*
X149809616Y-125670318D01*
X149791844Y-125749825D01*
X149769856Y-125848192D01*
X149769500Y-125854560D01*
X142833784Y-125854560D01*
X142823450Y-125759435D01*
X142764235Y-125583481D01*
X142668617Y-125424347D01*
X142541059Y-125289458D01*
X142387511Y-125185107D01*
X142290835Y-125146439D01*
X142218281Y-125117419D01*
X142218277Y-125117418D01*
X142215137Y-125116162D01*
X142211800Y-125115610D01*
X142211798Y-125115609D01*
X142035320Y-125086393D01*
X142035319Y-125086393D01*
X142031979Y-125085840D01*
X142028598Y-125086017D01*
X142028594Y-125086017D01*
X141895094Y-125093014D01*
X141846582Y-125095556D01*
X141843324Y-125096453D01*
X141843320Y-125096454D01*
X141767209Y-125117419D01*
X141667597Y-125144857D01*
X141503374Y-125231442D01*
X141361574Y-125351272D01*
X141248814Y-125498756D01*
X141170355Y-125667013D01*
X141169617Y-125670316D01*
X141169616Y-125670318D01*
X141151844Y-125749825D01*
X141129856Y-125848192D01*
X141129500Y-125854560D01*
X139766238Y-125854560D01*
X139769500Y-125730000D01*
X139769417Y-125728641D01*
X139750166Y-125413892D01*
X139750166Y-125413889D01*
X139750049Y-125411982D01*
X139691987Y-125098705D01*
X139691409Y-125096871D01*
X139596755Y-124796667D01*
X139596751Y-124796658D01*
X139596178Y-124794839D01*
X139464052Y-124504914D01*
X139342912Y-124307232D01*
X139298578Y-124234885D01*
X139298576Y-124234882D01*
X139297577Y-124233252D01*
X139291992Y-124226230D01*
X139127170Y-124019022D01*
X139099236Y-123983904D01*
X138871986Y-123760585D01*
X138838710Y-123735051D01*
X138727492Y-123649711D01*
X138619214Y-123566626D01*
X138344688Y-123404918D01*
X138342623Y-123404020D01*
X138054258Y-123278635D01*
X138054251Y-123278632D01*
X138052502Y-123277872D01*
X138050668Y-123277329D01*
X138050666Y-123277328D01*
X137748847Y-123187925D01*
X137748845Y-123187924D01*
X137747010Y-123187381D01*
X137745127Y-123187066D01*
X137745123Y-123187065D01*
X137574626Y-123158534D01*
X137432767Y-123134795D01*
X137430873Y-123134712D01*
X137430870Y-123134712D01*
X137273612Y-123127846D01*
X137114458Y-123120897D01*
X136796828Y-123145895D01*
X136794951Y-123146277D01*
X136794950Y-123146277D01*
X136486488Y-123209035D01*
X136486483Y-123209036D01*
X136484612Y-123209417D01*
X136482798Y-123210024D01*
X136482794Y-123210025D01*
X136227910Y-123295308D01*
X136182464Y-123310514D01*
X136012742Y-123391467D01*
X135911125Y-123439936D01*
X135894889Y-123447680D01*
X135893276Y-123448707D01*
X135893277Y-123448707D01*
X135700857Y-123571292D01*
X135626174Y-123618870D01*
X135624706Y-123620080D01*
X135624702Y-123620083D01*
X135501768Y-123721423D01*
X135380325Y-123821533D01*
X135379017Y-123822911D01*
X135379012Y-123822916D01*
X135162318Y-124051264D01*
X135161007Y-124052646D01*
X135056720Y-124193581D01*
X134986741Y-124288152D01*
X134945738Y-124312789D01*
X134899323Y-124301216D01*
X134874686Y-124260213D01*
X134874000Y-124250975D01*
X134874000Y-122050575D01*
X141150500Y-122050575D01*
X141150500Y-123344027D01*
X141165060Y-123478056D01*
X141166141Y-123481268D01*
X141212450Y-123618870D01*
X141222829Y-123649711D01*
X141316110Y-123804956D01*
X141318436Y-123807416D01*
X141318437Y-123807417D01*
X141355857Y-123846988D01*
X141440551Y-123936550D01*
X141443350Y-123938452D01*
X141443351Y-123938453D01*
X141468722Y-123955695D01*
X141590348Y-124038352D01*
X141758511Y-124105612D01*
X141881006Y-124125891D01*
X141933853Y-124134640D01*
X141933854Y-124134640D01*
X141937194Y-124135193D01*
X141940575Y-124135016D01*
X141940579Y-124135016D01*
X142069358Y-124128266D01*
X142118060Y-124125714D01*
X142121318Y-124124817D01*
X142121322Y-124124816D01*
X142249876Y-124089406D01*
X142292672Y-124077618D01*
X142452883Y-123993148D01*
X142457417Y-123989317D01*
X142588631Y-123878432D01*
X142591218Y-123876246D01*
X142596754Y-123869006D01*
X142699170Y-123735051D01*
X142701223Y-123732366D01*
X142701446Y-123731889D01*
X142739350Y-123704048D01*
X142786635Y-123711287D01*
X142806304Y-123731376D01*
X142806468Y-123731250D01*
X142897767Y-123850233D01*
X142901012Y-123852723D01*
X142974238Y-123908911D01*
X143016750Y-123941532D01*
X143020533Y-123943099D01*
X143144816Y-123994578D01*
X143155308Y-123998924D01*
X143159364Y-123999458D01*
X143159368Y-123999459D01*
X143299936Y-124017965D01*
X143304000Y-124018500D01*
X143308064Y-124017965D01*
X143448632Y-123999459D01*
X143448636Y-123999458D01*
X143452692Y-123998924D01*
X143463185Y-123994578D01*
X143587467Y-123943099D01*
X143591250Y-123941532D01*
X143633763Y-123908911D01*
X143706988Y-123852723D01*
X143710233Y-123850233D01*
X143801532Y-123731250D01*
X143816016Y-123696283D01*
X143857358Y-123596473D01*
X143857358Y-123596472D01*
X143858924Y-123592692D01*
X143861742Y-123571292D01*
X143877965Y-123448064D01*
X143878500Y-123444000D01*
X143873254Y-123404154D01*
X143859459Y-123299368D01*
X143859458Y-123299364D01*
X143858924Y-123295308D01*
X143844472Y-123260416D01*
X143803099Y-123160533D01*
X143801532Y-123156750D01*
X143710233Y-123037767D01*
X143623609Y-122971298D01*
X143594499Y-122948961D01*
X143591250Y-122946468D01*
X143587467Y-122944901D01*
X143456473Y-122890642D01*
X143456472Y-122890642D01*
X143452692Y-122889076D01*
X143448636Y-122888542D01*
X143448632Y-122888541D01*
X143308064Y-122870035D01*
X143304000Y-122869500D01*
X143299936Y-122870035D01*
X143159368Y-122888541D01*
X143159364Y-122888542D01*
X143155308Y-122889076D01*
X143151528Y-122890642D01*
X143151527Y-122890642D01*
X143020533Y-122944901D01*
X143016750Y-122946468D01*
X142922233Y-123018994D01*
X142918048Y-123022205D01*
X142871842Y-123034585D01*
X142830415Y-123010668D01*
X142817500Y-122972620D01*
X142817500Y-122093973D01*
X142802940Y-121959944D01*
X142788402Y-121916746D01*
X142746251Y-121791497D01*
X142746250Y-121791494D01*
X142745171Y-121788289D01*
X142651890Y-121633044D01*
X142527449Y-121501450D01*
X142377652Y-121399648D01*
X142209489Y-121332388D01*
X142061884Y-121307952D01*
X142034147Y-121303360D01*
X142034146Y-121303360D01*
X142030806Y-121302807D01*
X142027425Y-121302984D01*
X142027421Y-121302984D01*
X141898642Y-121309734D01*
X141849940Y-121312286D01*
X141846682Y-121313183D01*
X141846678Y-121313184D01*
X141718124Y-121348594D01*
X141675328Y-121360382D01*
X141515117Y-121444852D01*
X141376782Y-121561754D01*
X141266777Y-121705634D01*
X141190235Y-121869780D01*
X141189497Y-121873083D01*
X141189496Y-121873085D01*
X141179737Y-121916746D01*
X141150726Y-122046533D01*
X141150500Y-122050575D01*
X134874000Y-122050575D01*
X134874000Y-118962712D01*
X139237500Y-118962712D01*
X139237500Y-119764914D01*
X139252979Y-119873000D01*
X139254823Y-119877055D01*
X139310010Y-119998431D01*
X139312771Y-120004504D01*
X139315679Y-120007879D01*
X139351053Y-120048933D01*
X139407067Y-120113941D01*
X139528289Y-120192513D01*
X139612648Y-120217742D01*
X139649743Y-120247942D01*
X139654619Y-120295529D01*
X139649509Y-120307730D01*
X139594812Y-120407222D01*
X139553700Y-120567343D01*
X139553700Y-120732657D01*
X139594812Y-120892778D01*
X139674453Y-121037644D01*
X139677148Y-121040513D01*
X139677148Y-121040514D01*
X139784927Y-121155287D01*
X139784930Y-121155289D01*
X139787619Y-121158153D01*
X139927199Y-121246733D01*
X140084422Y-121297818D01*
X140088347Y-121298065D01*
X140166527Y-121302984D01*
X140249410Y-121308199D01*
X140253273Y-121307462D01*
X140253275Y-121307462D01*
X140407939Y-121277958D01*
X140411797Y-121277222D01*
X140561378Y-121206834D01*
X140688755Y-121101459D01*
X140706117Y-121077563D01*
X140783615Y-120970895D01*
X140785924Y-120967717D01*
X140803025Y-120924525D01*
X140845333Y-120817669D01*
X140845334Y-120817667D01*
X140846781Y-120814011D01*
X140867500Y-120650000D01*
X140846781Y-120485989D01*
X140840721Y-120470682D01*
X140815595Y-120407222D01*
X140785924Y-120332283D01*
X140768842Y-120308771D01*
X140757674Y-120262259D01*
X140782668Y-120221472D01*
X140793536Y-120215140D01*
X140912449Y-120161073D01*
X140912451Y-120161072D01*
X140916504Y-120159229D01*
X141025941Y-120064933D01*
X141104513Y-119943711D01*
X141121174Y-119888000D01*
X141144935Y-119808550D01*
X141144935Y-119808548D01*
X141145904Y-119805309D01*
X141146500Y-119797288D01*
X141146500Y-118995086D01*
X141131021Y-118887000D01*
X141079700Y-118774127D01*
X141073073Y-118759551D01*
X141073072Y-118759549D01*
X141071229Y-118755496D01*
X140976933Y-118646059D01*
X140855711Y-118567487D01*
X140802211Y-118551487D01*
X140720550Y-118527065D01*
X140720548Y-118527065D01*
X140717309Y-118526096D01*
X140713933Y-118525845D01*
X140713932Y-118525845D01*
X140710450Y-118525586D01*
X140710441Y-118525586D01*
X140709288Y-118525500D01*
X139707086Y-118525500D01*
X139599000Y-118540979D01*
X139570565Y-118553908D01*
X139471551Y-118598927D01*
X139471549Y-118598928D01*
X139467496Y-118600771D01*
X139358059Y-118695067D01*
X139279487Y-118816289D01*
X139278212Y-118820551D01*
X139278212Y-118820552D01*
X139240135Y-118947874D01*
X139238096Y-118954691D01*
X139237500Y-118962712D01*
X134874000Y-118962712D01*
X134874000Y-116962712D01*
X139237500Y-116962712D01*
X139237500Y-117764914D01*
X139252979Y-117873000D01*
X139254823Y-117877055D01*
X139307067Y-117991958D01*
X139312771Y-118004504D01*
X139407067Y-118113941D01*
X139528289Y-118192513D01*
X139532551Y-118193788D01*
X139532552Y-118193788D01*
X139663450Y-118232935D01*
X139663452Y-118232935D01*
X139666691Y-118233904D01*
X139670067Y-118234155D01*
X139670068Y-118234155D01*
X139673550Y-118234414D01*
X139673559Y-118234414D01*
X139674712Y-118234500D01*
X140676914Y-118234500D01*
X140785000Y-118219021D01*
X140875686Y-118177788D01*
X140912449Y-118161073D01*
X140912451Y-118161072D01*
X140916504Y-118159229D01*
X141025941Y-118064933D01*
X141104513Y-117943711D01*
X141112105Y-117918327D01*
X141145904Y-117805309D01*
X141147680Y-117805840D01*
X141170544Y-117770536D01*
X141206008Y-117759500D01*
X141532000Y-117759500D01*
X141576194Y-117777806D01*
X141594500Y-117822000D01*
X141594500Y-119006000D01*
X141595099Y-119009010D01*
X141595099Y-119009013D01*
X141605696Y-119062288D01*
X141614253Y-119105306D01*
X141617672Y-119110423D01*
X141617673Y-119110425D01*
X141658290Y-119171211D01*
X141670506Y-119189494D01*
X141675623Y-119192913D01*
X141749575Y-119242327D01*
X141749577Y-119242328D01*
X141754694Y-119245747D01*
X141797712Y-119254304D01*
X141850987Y-119264901D01*
X141850990Y-119264901D01*
X141854000Y-119265500D01*
X143817014Y-119265500D01*
X143861208Y-119283806D01*
X143879514Y-119328000D01*
X143861208Y-119372194D01*
X143856854Y-119376157D01*
X143854945Y-119377736D01*
X143851619Y-119379847D01*
X143848922Y-119382719D01*
X143798380Y-119436541D01*
X143738453Y-119500356D01*
X143658812Y-119645222D01*
X143617700Y-119805343D01*
X143617700Y-119970657D01*
X143658812Y-120130778D01*
X143738453Y-120275644D01*
X143851619Y-120396153D01*
X143854941Y-120398261D01*
X143854942Y-120398262D01*
X143863489Y-120403686D01*
X143890995Y-120442822D01*
X143892500Y-120456456D01*
X143892500Y-120857995D01*
X143891100Y-120871149D01*
X143887927Y-120885887D01*
X143888534Y-120891017D01*
X143888534Y-120891019D01*
X143892067Y-120920867D01*
X143892500Y-120928213D01*
X143892500Y-120934040D01*
X143892924Y-120936585D01*
X143896156Y-120956005D01*
X143896571Y-120958921D01*
X143902767Y-121011272D01*
X143905003Y-121015928D01*
X143906101Y-121019707D01*
X143907382Y-121023448D01*
X143908230Y-121028546D01*
X143910684Y-121033094D01*
X143933262Y-121074939D01*
X143934599Y-121077563D01*
X143946074Y-121101459D01*
X143957421Y-121125090D01*
X143959953Y-121128102D01*
X143962828Y-121131522D01*
X143962805Y-121131542D01*
X143964720Y-121133812D01*
X143965732Y-121135117D01*
X143968185Y-121139663D01*
X143971980Y-121143171D01*
X144004103Y-121172865D01*
X144005872Y-121174566D01*
X144406194Y-121574888D01*
X144424500Y-121619082D01*
X144424500Y-121921914D01*
X144439979Y-122030000D01*
X144499771Y-122161504D01*
X144594067Y-122270941D01*
X144715289Y-122349513D01*
X144719551Y-122350788D01*
X144719552Y-122350788D01*
X144850450Y-122389935D01*
X144850452Y-122389935D01*
X144853691Y-122390904D01*
X144857067Y-122391155D01*
X144857068Y-122391155D01*
X144860550Y-122391414D01*
X144860559Y-122391414D01*
X144861712Y-122391500D01*
X145638914Y-122391500D01*
X145747000Y-122376021D01*
X145848652Y-122329802D01*
X145874449Y-122318073D01*
X145874451Y-122318072D01*
X145878504Y-122316229D01*
X145987941Y-122221933D01*
X146066513Y-122100711D01*
X146069031Y-122092292D01*
X146106935Y-121965550D01*
X146106935Y-121965548D01*
X146107904Y-121962309D01*
X146108155Y-121958932D01*
X146108414Y-121955450D01*
X146108414Y-121955441D01*
X146108500Y-121954288D01*
X146108500Y-120902086D01*
X146093021Y-120794000D01*
X146033229Y-120662496D01*
X145938933Y-120553059D01*
X145817711Y-120474487D01*
X145804988Y-120470682D01*
X145682550Y-120434065D01*
X145682548Y-120434065D01*
X145679309Y-120433096D01*
X145675933Y-120432845D01*
X145675932Y-120432845D01*
X145672450Y-120432586D01*
X145672441Y-120432586D01*
X145671288Y-120432500D01*
X144894086Y-120432500D01*
X144805490Y-120445188D01*
X144759147Y-120433332D01*
X144734761Y-120392179D01*
X144746617Y-120345836D01*
X144750195Y-120341577D01*
X144752755Y-120339459D01*
X144849924Y-120205717D01*
X144855152Y-120192513D01*
X144909333Y-120055669D01*
X144909334Y-120055667D01*
X144910781Y-120052011D01*
X144931500Y-119888000D01*
X144910781Y-119723989D01*
X144909142Y-119719848D01*
X144851371Y-119573937D01*
X144851370Y-119573935D01*
X144849924Y-119570283D01*
X144834547Y-119549119D01*
X144755065Y-119439720D01*
X144755064Y-119439718D01*
X144752755Y-119436541D01*
X144679763Y-119376157D01*
X144657379Y-119333882D01*
X144671445Y-119288161D01*
X144713720Y-119265777D01*
X144719602Y-119265500D01*
X145354000Y-119265500D01*
X145357010Y-119264901D01*
X145357013Y-119264901D01*
X145410288Y-119254304D01*
X145453306Y-119245747D01*
X145458423Y-119242328D01*
X145458425Y-119242327D01*
X145532377Y-119192913D01*
X145537494Y-119189494D01*
X145549710Y-119171211D01*
X145590327Y-119110425D01*
X145590328Y-119110423D01*
X145593747Y-119105306D01*
X145602304Y-119062288D01*
X145612901Y-119009013D01*
X145612901Y-119009010D01*
X145613500Y-119006000D01*
X145613500Y-116706000D01*
X145611326Y-116695067D01*
X145599066Y-116633434D01*
X145593747Y-116606694D01*
X145589790Y-116600771D01*
X145540913Y-116527623D01*
X145537494Y-116522506D01*
X145468154Y-116476174D01*
X145458425Y-116469673D01*
X145458423Y-116469672D01*
X145453306Y-116466253D01*
X145410288Y-116457696D01*
X145357013Y-116447099D01*
X145357010Y-116447099D01*
X145354000Y-116446500D01*
X141854000Y-116446500D01*
X141850990Y-116447099D01*
X141850987Y-116447099D01*
X141797712Y-116457696D01*
X141754694Y-116466253D01*
X141749577Y-116469672D01*
X141749575Y-116469673D01*
X141739846Y-116476174D01*
X141670506Y-116522506D01*
X141667087Y-116527623D01*
X141618211Y-116600771D01*
X141614253Y-116606694D01*
X141608934Y-116633434D01*
X141596675Y-116695067D01*
X141594500Y-116706000D01*
X141594500Y-116938000D01*
X141576194Y-116982194D01*
X141532000Y-117000500D01*
X141201463Y-117000500D01*
X141157269Y-116982194D01*
X141139594Y-116946861D01*
X141134320Y-116910035D01*
X141131021Y-116887000D01*
X141093534Y-116804552D01*
X141073073Y-116759551D01*
X141073072Y-116759549D01*
X141071229Y-116755496D01*
X140976933Y-116646059D01*
X140855711Y-116567487D01*
X140802211Y-116551487D01*
X140720550Y-116527065D01*
X140720548Y-116527065D01*
X140717309Y-116526096D01*
X140713933Y-116525845D01*
X140713932Y-116525845D01*
X140710450Y-116525586D01*
X140710441Y-116525586D01*
X140709288Y-116525500D01*
X139707086Y-116525500D01*
X139599000Y-116540979D01*
X139570565Y-116553908D01*
X139471551Y-116598927D01*
X139471549Y-116598928D01*
X139467496Y-116600771D01*
X139358059Y-116695067D01*
X139279487Y-116816289D01*
X139278212Y-116820551D01*
X139278212Y-116820552D01*
X139240135Y-116947874D01*
X139238096Y-116954691D01*
X139237500Y-116962712D01*
X134874000Y-116962712D01*
X134874000Y-111796579D01*
X134887996Y-111762791D01*
X134887928Y-111762754D01*
X134886265Y-111758057D01*
X134983400Y-111758057D01*
X134998658Y-111790046D01*
X135015047Y-111945977D01*
X135072834Y-112123826D01*
X135074469Y-112126659D01*
X135074470Y-112126660D01*
X135164696Y-112282938D01*
X135164699Y-112282942D01*
X135166334Y-112285774D01*
X135291463Y-112424743D01*
X135442750Y-112534660D01*
X135613584Y-112610720D01*
X135616791Y-112611402D01*
X135616792Y-112611402D01*
X135793289Y-112648918D01*
X135793292Y-112648918D01*
X135796499Y-112649600D01*
X135983501Y-112649600D01*
X135986708Y-112648918D01*
X135986711Y-112648918D01*
X136163208Y-112611402D01*
X136163209Y-112611402D01*
X136166416Y-112610720D01*
X136337250Y-112534660D01*
X136488537Y-112424743D01*
X136613666Y-112285774D01*
X136615301Y-112282942D01*
X136615304Y-112282938D01*
X136705530Y-112126660D01*
X136705531Y-112126659D01*
X136707166Y-112123826D01*
X136764953Y-111945977D01*
X136784500Y-111760000D01*
X136764953Y-111574023D01*
X136707166Y-111396174D01*
X136705530Y-111393340D01*
X136615304Y-111237062D01*
X136615301Y-111237058D01*
X136613666Y-111234226D01*
X136536207Y-111148199D01*
X136490733Y-111097696D01*
X136490734Y-111097696D01*
X136488537Y-111095257D01*
X136337250Y-110985340D01*
X136166416Y-110909280D01*
X136163209Y-110908598D01*
X136163208Y-110908598D01*
X135986711Y-110871082D01*
X135986708Y-110871082D01*
X135983501Y-110870400D01*
X135796499Y-110870400D01*
X135793292Y-110871082D01*
X135793289Y-110871082D01*
X135616792Y-110908598D01*
X135616791Y-110908598D01*
X135613584Y-110909280D01*
X135442750Y-110985340D01*
X135291463Y-111095257D01*
X135289266Y-111097696D01*
X135289267Y-111097696D01*
X135243794Y-111148199D01*
X135166334Y-111234226D01*
X135164699Y-111237058D01*
X135164696Y-111237062D01*
X135074470Y-111393340D01*
X135072834Y-111396174D01*
X135015047Y-111574023D01*
X135014705Y-111577279D01*
X134998658Y-111729954D01*
X134983400Y-111758057D01*
X134886265Y-111758057D01*
X134874000Y-111723421D01*
X134874000Y-109256579D01*
X134887996Y-109222791D01*
X134887928Y-109222754D01*
X134886265Y-109218057D01*
X134983400Y-109218057D01*
X134998658Y-109250046D01*
X135015047Y-109405977D01*
X135072834Y-109583826D01*
X135074469Y-109586659D01*
X135074470Y-109586660D01*
X135164696Y-109742938D01*
X135164699Y-109742942D01*
X135166334Y-109745774D01*
X135168525Y-109748208D01*
X135168527Y-109748210D01*
X135244016Y-109832048D01*
X135291463Y-109884743D01*
X135442750Y-109994660D01*
X135613584Y-110070720D01*
X135616791Y-110071402D01*
X135616792Y-110071402D01*
X135793289Y-110108918D01*
X135793292Y-110108918D01*
X135796499Y-110109600D01*
X135983501Y-110109600D01*
X135986708Y-110108918D01*
X135986711Y-110108918D01*
X136163208Y-110071402D01*
X136163209Y-110071402D01*
X136166416Y-110070720D01*
X136337250Y-109994660D01*
X136488537Y-109884743D01*
X136535984Y-109832048D01*
X136611473Y-109748210D01*
X136611475Y-109748208D01*
X136613666Y-109745774D01*
X136615301Y-109742942D01*
X136615304Y-109742938D01*
X136705530Y-109586660D01*
X136705531Y-109586659D01*
X136707166Y-109583826D01*
X136764953Y-109405977D01*
X136784500Y-109220000D01*
X136764953Y-109034023D01*
X136707166Y-108856174D01*
X136691795Y-108829550D01*
X136615304Y-108697062D01*
X136615301Y-108697058D01*
X136613666Y-108694226D01*
X136581017Y-108657965D01*
X136490733Y-108557696D01*
X136490734Y-108557696D01*
X136488537Y-108555257D01*
X136337250Y-108445340D01*
X136166416Y-108369280D01*
X136163209Y-108368598D01*
X136163208Y-108368598D01*
X135986711Y-108331082D01*
X135986708Y-108331082D01*
X135983501Y-108330400D01*
X135796499Y-108330400D01*
X135793292Y-108331082D01*
X135793289Y-108331082D01*
X135616792Y-108368598D01*
X135616791Y-108368598D01*
X135613584Y-108369280D01*
X135442750Y-108445340D01*
X135291463Y-108555257D01*
X135289266Y-108557696D01*
X135289267Y-108557696D01*
X135198984Y-108657965D01*
X135166334Y-108694226D01*
X135164699Y-108697058D01*
X135164696Y-108697062D01*
X135088205Y-108829550D01*
X135072834Y-108856174D01*
X135015047Y-109034023D01*
X135014705Y-109037279D01*
X134998658Y-109189954D01*
X134983400Y-109218057D01*
X134886265Y-109218057D01*
X134874000Y-109183421D01*
X134874000Y-106716579D01*
X134887996Y-106682791D01*
X134887928Y-106682754D01*
X134886265Y-106678057D01*
X134983400Y-106678057D01*
X134998658Y-106710046D01*
X135015047Y-106865977D01*
X135016059Y-106869091D01*
X135016059Y-106869092D01*
X135027998Y-106905835D01*
X135072834Y-107043826D01*
X135074469Y-107046659D01*
X135074470Y-107046660D01*
X135164696Y-107202938D01*
X135164699Y-107202942D01*
X135166334Y-107205774D01*
X135291463Y-107344743D01*
X135442750Y-107454660D01*
X135613584Y-107530720D01*
X135616791Y-107531402D01*
X135616792Y-107531402D01*
X135793289Y-107568918D01*
X135793292Y-107568918D01*
X135796499Y-107569600D01*
X135983501Y-107569600D01*
X135986708Y-107568918D01*
X135986711Y-107568918D01*
X136163208Y-107531402D01*
X136163209Y-107531402D01*
X136166416Y-107530720D01*
X136337250Y-107454660D01*
X136488537Y-107344743D01*
X136613666Y-107205774D01*
X136615301Y-107202942D01*
X136615304Y-107202938D01*
X136705530Y-107046660D01*
X136705531Y-107046659D01*
X136707166Y-107043826D01*
X136752002Y-106905835D01*
X136763941Y-106869092D01*
X136763941Y-106869091D01*
X136764953Y-106865977D01*
X136784500Y-106680000D01*
X136764953Y-106494023D01*
X136707166Y-106316174D01*
X136705530Y-106313340D01*
X136615304Y-106157062D01*
X136615301Y-106157058D01*
X136613666Y-106154226D01*
X136551813Y-106085531D01*
X136490733Y-106017696D01*
X136490734Y-106017696D01*
X136488537Y-106015257D01*
X136337250Y-105905340D01*
X136166416Y-105829280D01*
X136163209Y-105828598D01*
X136163208Y-105828598D01*
X135986711Y-105791082D01*
X135986708Y-105791082D01*
X135983501Y-105790400D01*
X135796499Y-105790400D01*
X135793292Y-105791082D01*
X135793289Y-105791082D01*
X135616792Y-105828598D01*
X135616791Y-105828598D01*
X135613584Y-105829280D01*
X135442750Y-105905340D01*
X135291463Y-106015257D01*
X135289266Y-106017696D01*
X135289267Y-106017696D01*
X135228188Y-106085531D01*
X135166334Y-106154226D01*
X135164699Y-106157058D01*
X135164696Y-106157062D01*
X135074470Y-106313340D01*
X135072834Y-106316174D01*
X135015047Y-106494023D01*
X135001777Y-106620276D01*
X134998658Y-106649954D01*
X134983400Y-106678057D01*
X134886265Y-106678057D01*
X134874000Y-106643421D01*
X134874000Y-104176579D01*
X134887996Y-104142791D01*
X134887928Y-104142754D01*
X134886265Y-104138057D01*
X134983400Y-104138057D01*
X134998658Y-104170046D01*
X135015047Y-104325977D01*
X135072834Y-104503826D01*
X135074469Y-104506659D01*
X135074470Y-104506660D01*
X135164696Y-104662938D01*
X135164699Y-104662942D01*
X135166334Y-104665774D01*
X135291463Y-104804743D01*
X135442750Y-104914660D01*
X135613584Y-104990720D01*
X135616791Y-104991402D01*
X135616792Y-104991402D01*
X135793289Y-105028918D01*
X135793292Y-105028918D01*
X135796499Y-105029600D01*
X135983501Y-105029600D01*
X135986708Y-105028918D01*
X135986711Y-105028918D01*
X136163208Y-104991402D01*
X136163209Y-104991402D01*
X136166416Y-104990720D01*
X136337250Y-104914660D01*
X136488537Y-104804743D01*
X136613666Y-104665774D01*
X136615301Y-104662942D01*
X136615304Y-104662938D01*
X136705530Y-104506660D01*
X136705531Y-104506659D01*
X136707166Y-104503826D01*
X136764953Y-104325977D01*
X136784500Y-104140000D01*
X136764953Y-103954023D01*
X136763609Y-103949885D01*
X136741583Y-103882097D01*
X136715994Y-103803343D01*
X140823700Y-103803343D01*
X140823700Y-103968657D01*
X140838320Y-104025598D01*
X140846536Y-104057598D01*
X140848500Y-104073141D01*
X140848500Y-110253612D01*
X140847515Y-110262531D01*
X140847543Y-110262534D01*
X140847173Y-110266449D01*
X140846315Y-110270288D01*
X140846439Y-110274221D01*
X140848469Y-110338813D01*
X140848500Y-110340777D01*
X140848500Y-110369579D01*
X140849379Y-110376535D01*
X140849838Y-110382379D01*
X140851312Y-110429257D01*
X140858304Y-110453323D01*
X140860292Y-110462925D01*
X140863434Y-110487794D01*
X140864881Y-110491450D01*
X140864882Y-110491452D01*
X140880699Y-110531401D01*
X140882606Y-110536972D01*
X140895685Y-110581990D01*
X140908447Y-110603569D01*
X140912751Y-110612355D01*
X140921983Y-110635673D01*
X140924294Y-110638853D01*
X140924294Y-110638854D01*
X140949547Y-110673612D01*
X140952779Y-110678533D01*
X140976646Y-110718890D01*
X140976678Y-110718926D01*
X140994377Y-110736625D01*
X141000746Y-110744082D01*
X141013155Y-110761161D01*
X141013158Y-110761164D01*
X141015469Y-110764345D01*
X141025762Y-110772860D01*
X141051572Y-110794212D01*
X141055927Y-110798175D01*
X146976194Y-116718441D01*
X146994500Y-116762635D01*
X146994500Y-119006000D01*
X146995099Y-119009010D01*
X146995099Y-119009013D01*
X147005696Y-119062288D01*
X147014253Y-119105306D01*
X147017672Y-119110423D01*
X147017673Y-119110425D01*
X147058290Y-119171211D01*
X147070506Y-119189494D01*
X147075623Y-119192913D01*
X147149575Y-119242327D01*
X147149577Y-119242328D01*
X147154694Y-119245747D01*
X147197712Y-119254304D01*
X147250987Y-119264901D01*
X147250990Y-119264901D01*
X147254000Y-119265500D01*
X148312000Y-119265500D01*
X148356194Y-119283806D01*
X148374500Y-119328000D01*
X148374500Y-119462864D01*
X148356194Y-119507058D01*
X147449059Y-120414194D01*
X147404865Y-120432500D01*
X146969086Y-120432500D01*
X146861000Y-120447979D01*
X146811068Y-120470682D01*
X146733551Y-120505927D01*
X146733549Y-120505928D01*
X146729496Y-120507771D01*
X146620059Y-120602067D01*
X146541487Y-120723289D01*
X146540212Y-120727551D01*
X146540212Y-120727552D01*
X146521553Y-120789945D01*
X146500096Y-120861691D01*
X146499500Y-120869712D01*
X146499500Y-121921914D01*
X146514979Y-122030000D01*
X146574771Y-122161504D01*
X146669067Y-122270941D01*
X146683495Y-122280293D01*
X146710623Y-122319690D01*
X146712000Y-122332738D01*
X146712000Y-122875174D01*
X146711015Y-122884093D01*
X146711043Y-122884096D01*
X146710673Y-122888011D01*
X146709815Y-122891850D01*
X146711314Y-122939524D01*
X146711969Y-122960375D01*
X146712000Y-122962339D01*
X146712000Y-122991141D01*
X146712879Y-122998096D01*
X146713338Y-123003941D01*
X146714812Y-123050819D01*
X146720417Y-123070112D01*
X146721804Y-123074885D01*
X146723792Y-123084487D01*
X146726934Y-123109356D01*
X146728381Y-123113012D01*
X146728382Y-123113014D01*
X146744199Y-123152963D01*
X146746106Y-123158534D01*
X146758086Y-123199770D01*
X146759185Y-123203552D01*
X146771947Y-123225131D01*
X146776251Y-123233917D01*
X146785483Y-123257235D01*
X146787794Y-123260415D01*
X146787794Y-123260416D01*
X146813047Y-123295174D01*
X146816279Y-123300095D01*
X146840146Y-123340452D01*
X146840178Y-123340488D01*
X146857877Y-123358187D01*
X146864246Y-123365644D01*
X146876655Y-123382723D01*
X146876658Y-123382726D01*
X146878969Y-123385907D01*
X146911527Y-123412841D01*
X146915072Y-123415774D01*
X146919427Y-123419737D01*
X147380349Y-123880658D01*
X147390924Y-123894743D01*
X147416647Y-123941532D01*
X147424422Y-123955675D01*
X147427117Y-123958544D01*
X147427117Y-123958545D01*
X147534896Y-124073318D01*
X147534899Y-124073320D01*
X147537588Y-124076184D01*
X147677168Y-124164764D01*
X147834391Y-124215849D01*
X147838316Y-124216096D01*
X147916885Y-124221040D01*
X147999379Y-124226230D01*
X148003242Y-124225493D01*
X148003244Y-124225493D01*
X148157908Y-124195989D01*
X148161766Y-124195253D01*
X148289399Y-124135193D01*
X148307790Y-124126539D01*
X148307791Y-124126538D01*
X148311347Y-124124865D01*
X148438724Y-124019490D01*
X148442860Y-124013798D01*
X148529411Y-123894670D01*
X148535893Y-123885748D01*
X148537909Y-123880658D01*
X148583186Y-123766301D01*
X148616476Y-123731949D01*
X148664305Y-123731198D01*
X148693280Y-123754611D01*
X148693806Y-123755398D01*
X148728331Y-123807069D01*
X148744532Y-123817894D01*
X148753994Y-123825661D01*
X148797339Y-123869006D01*
X148805109Y-123878472D01*
X148815932Y-123894670D01*
X148821049Y-123898089D01*
X148878610Y-123936550D01*
X148896458Y-123948476D01*
X148896460Y-123948477D01*
X148901577Y-123951896D01*
X148918066Y-123955176D01*
X148920675Y-123955695D01*
X148932398Y-123959251D01*
X148980227Y-123979062D01*
X148993988Y-123986939D01*
X148997133Y-123989316D01*
X148997135Y-123989317D01*
X149002046Y-123993028D01*
X149008003Y-123994577D01*
X149008005Y-123994578D01*
X149018696Y-123997358D01*
X149026776Y-123999459D01*
X149029833Y-124000254D01*
X149038018Y-124002999D01*
X149041169Y-124004304D01*
X149044186Y-124004904D01*
X149057383Y-124007529D01*
X149060920Y-124008340D01*
X149073957Y-124011730D01*
X149073959Y-124011730D01*
X149076934Y-124012504D01*
X149080339Y-124012702D01*
X149088892Y-124013797D01*
X149111021Y-124018198D01*
X149111022Y-124018198D01*
X149117061Y-124019399D01*
X149123098Y-124018198D01*
X149123099Y-124018198D01*
X149126970Y-124017428D01*
X149142791Y-124016332D01*
X149185994Y-124018844D01*
X149185998Y-124018844D01*
X149189062Y-124019022D01*
X149228044Y-124013597D01*
X149236658Y-124013000D01*
X149258130Y-124013000D01*
X149266287Y-124013535D01*
X149304000Y-124018500D01*
X149341713Y-124013535D01*
X149349870Y-124013000D01*
X149371342Y-124013000D01*
X149379956Y-124013597D01*
X149418938Y-124019022D01*
X149422002Y-124018844D01*
X149422006Y-124018844D01*
X149465209Y-124016332D01*
X149481030Y-124017428D01*
X149484901Y-124018198D01*
X149484902Y-124018198D01*
X149490939Y-124019399D01*
X149496977Y-124018198D01*
X149519098Y-124013798D01*
X149527662Y-124012702D01*
X149528006Y-124012682D01*
X149531067Y-124012504D01*
X149534039Y-124011731D01*
X149534040Y-124011731D01*
X149547081Y-124008340D01*
X149550615Y-124007529D01*
X149553184Y-124007018D01*
X149566832Y-124004303D01*
X149569663Y-124003130D01*
X149569674Y-124003127D01*
X149569980Y-124003000D01*
X149578159Y-124000257D01*
X149589305Y-123997358D01*
X149605955Y-123993028D01*
X149610864Y-123989318D01*
X149610867Y-123989317D01*
X149614017Y-123986937D01*
X149627778Y-123979060D01*
X149675596Y-123959253D01*
X149687320Y-123955696D01*
X149700386Y-123953097D01*
X149706423Y-123951896D01*
X149719589Y-123943099D01*
X149733071Y-123934090D01*
X149770761Y-123908906D01*
X149792069Y-123894669D01*
X149802894Y-123878468D01*
X149810661Y-123869006D01*
X149854006Y-123825661D01*
X149863472Y-123817891D01*
X149879669Y-123807068D01*
X149880607Y-123808471D01*
X149917907Y-123793021D01*
X149963317Y-123812578D01*
X150080551Y-123936550D01*
X150083350Y-123938452D01*
X150083351Y-123938453D01*
X150108722Y-123955695D01*
X150230348Y-124038352D01*
X150398511Y-124105612D01*
X150521006Y-124125891D01*
X150573853Y-124134640D01*
X150573854Y-124134640D01*
X150577194Y-124135193D01*
X150580575Y-124135016D01*
X150580579Y-124135016D01*
X150709358Y-124128266D01*
X150758060Y-124125714D01*
X150761318Y-124124817D01*
X150761322Y-124124816D01*
X150889876Y-124089406D01*
X150932672Y-124077618D01*
X151092883Y-123993148D01*
X151097417Y-123989317D01*
X151228631Y-123878432D01*
X151231218Y-123876246D01*
X151236754Y-123869006D01*
X151284109Y-123807068D01*
X151341223Y-123732366D01*
X151386442Y-123635393D01*
X151416333Y-123571292D01*
X151416334Y-123571288D01*
X151417765Y-123568220D01*
X151445532Y-123444000D01*
X151456714Y-123393972D01*
X151457274Y-123391467D01*
X151457500Y-123387425D01*
X151457500Y-122093973D01*
X151442940Y-121959944D01*
X151429497Y-121920000D01*
X155315500Y-121920000D01*
X155335047Y-122105977D01*
X155392834Y-122283826D01*
X155394469Y-122286659D01*
X155394470Y-122286660D01*
X155484696Y-122442938D01*
X155484699Y-122442942D01*
X155486334Y-122445774D01*
X155611463Y-122584743D01*
X155762750Y-122694660D01*
X155933584Y-122770720D01*
X155936791Y-122771402D01*
X155936792Y-122771402D01*
X156113289Y-122808918D01*
X156113292Y-122808918D01*
X156116499Y-122809600D01*
X156303501Y-122809600D01*
X156306708Y-122808918D01*
X156306711Y-122808918D01*
X156483208Y-122771402D01*
X156483209Y-122771402D01*
X156486416Y-122770720D01*
X156657250Y-122694660D01*
X156808537Y-122584743D01*
X156933666Y-122445774D01*
X156935301Y-122442942D01*
X156935304Y-122442938D01*
X157025530Y-122286660D01*
X157025531Y-122286659D01*
X157027166Y-122283826D01*
X157084953Y-122105977D01*
X157101342Y-121950046D01*
X157116600Y-121921943D01*
X157101342Y-121889954D01*
X157090994Y-121791497D01*
X157084953Y-121734023D01*
X157027166Y-121556174D01*
X156996992Y-121503910D01*
X156935304Y-121397062D01*
X156935301Y-121397058D01*
X156933666Y-121394226D01*
X156917834Y-121376642D01*
X156810733Y-121257696D01*
X156810734Y-121257696D01*
X156808537Y-121255257D01*
X156657250Y-121145340D01*
X156486416Y-121069280D01*
X156483209Y-121068598D01*
X156483208Y-121068598D01*
X156306711Y-121031082D01*
X156306708Y-121031082D01*
X156303501Y-121030400D01*
X156116499Y-121030400D01*
X156113292Y-121031082D01*
X156113289Y-121031082D01*
X155936792Y-121068598D01*
X155936791Y-121068598D01*
X155933584Y-121069280D01*
X155762750Y-121145340D01*
X155611463Y-121255257D01*
X155609266Y-121257696D01*
X155609267Y-121257696D01*
X155502167Y-121376642D01*
X155486334Y-121394226D01*
X155484699Y-121397058D01*
X155484696Y-121397062D01*
X155423008Y-121503910D01*
X155392834Y-121556174D01*
X155335047Y-121734023D01*
X155315500Y-121920000D01*
X151429497Y-121920000D01*
X151428402Y-121916746D01*
X151386251Y-121791497D01*
X151386250Y-121791494D01*
X151385171Y-121788289D01*
X151291890Y-121633044D01*
X151167449Y-121501450D01*
X151042631Y-121416623D01*
X151016368Y-121376642D01*
X151026068Y-121329801D01*
X151066050Y-121303538D01*
X151081685Y-121302554D01*
X151167484Y-121307952D01*
X151171410Y-121308199D01*
X151175273Y-121307462D01*
X151175275Y-121307462D01*
X151329939Y-121277958D01*
X151333797Y-121277222D01*
X151483378Y-121206834D01*
X151610755Y-121101459D01*
X151628117Y-121077563D01*
X151705615Y-120970895D01*
X151707924Y-120967717D01*
X151725025Y-120924525D01*
X151767333Y-120817669D01*
X151767334Y-120817667D01*
X151768781Y-120814011D01*
X151789500Y-120650000D01*
X151779563Y-120571344D01*
X151792185Y-120525206D01*
X151797376Y-120519318D01*
X151968625Y-120348069D01*
X155606290Y-120348069D01*
X155608261Y-120352826D01*
X155659838Y-120387289D01*
X155664857Y-120390014D01*
X155852616Y-120470682D01*
X155858039Y-120472445D01*
X156057366Y-120517548D01*
X156063014Y-120518291D01*
X156267222Y-120526315D01*
X156272917Y-120526016D01*
X156475159Y-120496692D01*
X156480708Y-120495360D01*
X156674220Y-120429671D01*
X156679433Y-120427350D01*
X156808780Y-120354913D01*
X156814672Y-120347440D01*
X156814194Y-120343404D01*
X156218790Y-119748000D01*
X156210000Y-119744359D01*
X156201210Y-119748000D01*
X155609931Y-120339279D01*
X155606290Y-120348069D01*
X151968625Y-120348069D01*
X152079888Y-120236806D01*
X152124082Y-120218500D01*
X152884914Y-120218500D01*
X152993000Y-120203021D01*
X153069960Y-120168029D01*
X153120449Y-120145073D01*
X153120451Y-120145072D01*
X153124504Y-120143229D01*
X153143380Y-120126965D01*
X153230566Y-120051841D01*
X153233941Y-120048933D01*
X153312513Y-119927711D01*
X153324389Y-119888000D01*
X153352935Y-119792550D01*
X153352935Y-119792548D01*
X153353904Y-119789309D01*
X153354500Y-119781288D01*
X153354500Y-119352813D01*
X155062581Y-119352813D01*
X155075946Y-119556724D01*
X155076840Y-119562367D01*
X155127142Y-119760431D01*
X155129049Y-119765815D01*
X155214604Y-119951399D01*
X155217455Y-119956338D01*
X155233883Y-119979582D01*
X155241928Y-119984658D01*
X155247361Y-119983429D01*
X155842000Y-119388790D01*
X155845641Y-119380000D01*
X155842000Y-119371210D01*
X155248528Y-118777738D01*
X155239738Y-118774097D01*
X155236274Y-118775532D01*
X155150717Y-118938149D01*
X155148538Y-118943409D01*
X155087935Y-119138586D01*
X155086751Y-119144157D01*
X155062730Y-119347101D01*
X155062581Y-119352813D01*
X153354500Y-119352813D01*
X153354500Y-118979086D01*
X153339021Y-118871000D01*
X153286504Y-118755496D01*
X153281073Y-118743551D01*
X153281072Y-118743549D01*
X153279229Y-118739496D01*
X153184933Y-118630059D01*
X153063711Y-118551487D01*
X153026465Y-118540348D01*
X152928550Y-118511065D01*
X152928548Y-118511065D01*
X152925309Y-118510096D01*
X152921933Y-118509845D01*
X152921932Y-118509845D01*
X152918450Y-118509586D01*
X152918441Y-118509586D01*
X152917288Y-118509500D01*
X151915086Y-118509500D01*
X151807000Y-118524979D01*
X151767755Y-118542823D01*
X151679551Y-118582927D01*
X151679549Y-118582928D01*
X151675496Y-118584771D01*
X151566059Y-118679067D01*
X151487487Y-118800289D01*
X151486212Y-118804551D01*
X151486212Y-118804552D01*
X151462768Y-118882945D01*
X151446096Y-118938691D01*
X151445500Y-118946712D01*
X151445500Y-119748914D01*
X151445814Y-119751106D01*
X151445815Y-119751121D01*
X151447192Y-119760732D01*
X151435338Y-119807075D01*
X151429518Y-119813788D01*
X151262073Y-119981232D01*
X151217879Y-119999538D01*
X151206168Y-119998431D01*
X151175275Y-119992538D01*
X151175273Y-119992538D01*
X151171410Y-119991801D01*
X151159697Y-119992538D01*
X151010347Y-120001935D01*
X151006422Y-120002182D01*
X150878347Y-120043796D01*
X150853065Y-120052011D01*
X150849199Y-120053267D01*
X150709619Y-120141847D01*
X150706930Y-120144711D01*
X150706927Y-120144713D01*
X150621651Y-120235523D01*
X150596453Y-120262356D01*
X150516812Y-120407222D01*
X150475700Y-120567343D01*
X150475700Y-120732657D01*
X150516812Y-120892778D01*
X150596453Y-121037644D01*
X150599148Y-121040513D01*
X150599148Y-121040514D01*
X150706927Y-121155287D01*
X150706930Y-121155289D01*
X150709619Y-121158153D01*
X150772325Y-121197948D01*
X150799831Y-121237084D01*
X150791607Y-121284207D01*
X150752470Y-121311713D01*
X150728629Y-121312379D01*
X150674149Y-121303360D01*
X150674145Y-121303360D01*
X150670806Y-121302807D01*
X150667425Y-121302984D01*
X150667421Y-121302984D01*
X150538642Y-121309734D01*
X150489940Y-121312286D01*
X150486682Y-121313183D01*
X150486678Y-121313184D01*
X150358124Y-121348594D01*
X150315328Y-121360382D01*
X150155117Y-121444852D01*
X150016782Y-121561754D01*
X149906777Y-121705634D01*
X149830235Y-121869780D01*
X149829497Y-121873083D01*
X149829496Y-121873085D01*
X149819737Y-121916746D01*
X149790726Y-122046533D01*
X149790500Y-122050575D01*
X149790500Y-122878692D01*
X149772194Y-122922886D01*
X149728000Y-122941192D01*
X149708119Y-122937237D01*
X149706423Y-122936104D01*
X149687319Y-122932304D01*
X149675596Y-122928747D01*
X149627778Y-122908940D01*
X149614017Y-122901063D01*
X149610867Y-122898683D01*
X149610864Y-122898682D01*
X149605955Y-122894972D01*
X149581227Y-122888541D01*
X149578159Y-122887743D01*
X149569980Y-122885000D01*
X149569674Y-122884873D01*
X149569663Y-122884870D01*
X149566832Y-122883697D01*
X149550615Y-122880471D01*
X149547081Y-122879660D01*
X149534040Y-122876269D01*
X149534039Y-122876269D01*
X149531067Y-122875496D01*
X149527662Y-122875298D01*
X149519098Y-122874202D01*
X149496977Y-122869802D01*
X149490939Y-122868601D01*
X149484902Y-122869802D01*
X149484901Y-122869802D01*
X149481030Y-122870572D01*
X149465209Y-122871668D01*
X149422006Y-122869156D01*
X149422002Y-122869156D01*
X149418938Y-122868978D01*
X149415891Y-122869402D01*
X149379957Y-122874403D01*
X149371342Y-122875000D01*
X149349870Y-122875000D01*
X149341712Y-122874465D01*
X149339715Y-122874202D01*
X149304000Y-122869500D01*
X149268286Y-122874202D01*
X149266288Y-122874465D01*
X149258130Y-122875000D01*
X149236658Y-122875000D01*
X149228043Y-122874403D01*
X149192109Y-122869402D01*
X149189062Y-122868978D01*
X149185998Y-122869156D01*
X149185994Y-122869156D01*
X149142791Y-122871668D01*
X149126970Y-122870572D01*
X149123099Y-122869802D01*
X149123098Y-122869802D01*
X149117061Y-122868601D01*
X149111022Y-122869802D01*
X149111021Y-122869802D01*
X149088892Y-122874203D01*
X149080339Y-122875298D01*
X149076934Y-122875496D01*
X149073959Y-122876270D01*
X149073957Y-122876270D01*
X149060920Y-122879660D01*
X149057383Y-122880471D01*
X149049319Y-122882075D01*
X149041169Y-122883696D01*
X149038018Y-122885001D01*
X149029835Y-122887745D01*
X149024718Y-122889076D01*
X149008005Y-122893422D01*
X149008003Y-122893423D01*
X149002046Y-122894972D01*
X148997135Y-122898683D01*
X148997133Y-122898684D01*
X148993988Y-122901061D01*
X148980227Y-122908938D01*
X148932398Y-122928749D01*
X148920674Y-122932305D01*
X148901577Y-122936104D01*
X148896460Y-122939523D01*
X148896458Y-122939524D01*
X148893962Y-122941192D01*
X148880270Y-122950341D01*
X148815932Y-122993330D01*
X148805109Y-123009528D01*
X148797339Y-123018994D01*
X148753994Y-123062339D01*
X148744532Y-123070106D01*
X148728331Y-123080931D01*
X148714094Y-123102239D01*
X148692131Y-123135109D01*
X148675143Y-123160533D01*
X148671104Y-123166577D01*
X148669903Y-123172614D01*
X148667304Y-123185680D01*
X148663748Y-123197401D01*
X148662768Y-123199770D01*
X148645878Y-123240546D01*
X148612053Y-123274371D01*
X148564218Y-123274372D01*
X148536701Y-123249727D01*
X148535893Y-123250314D01*
X148441034Y-123119751D01*
X148441033Y-123119749D01*
X148438724Y-123116572D01*
X148311347Y-123011197D01*
X148293065Y-123002594D01*
X148283507Y-122998096D01*
X148265925Y-122985739D01*
X147989306Y-122709121D01*
X147971000Y-122664927D01*
X147971000Y-122329802D01*
X147992702Y-122282455D01*
X148062941Y-122221933D01*
X148141513Y-122100711D01*
X148144031Y-122092292D01*
X148181935Y-121965550D01*
X148181935Y-121965548D01*
X148182904Y-121962309D01*
X148183155Y-121958932D01*
X148183414Y-121955450D01*
X148183414Y-121955441D01*
X148183500Y-121954288D01*
X148183500Y-121486136D01*
X148201806Y-121441942D01*
X149395111Y-120248636D01*
X149402116Y-120243024D01*
X149402098Y-120243002D01*
X149405122Y-120240501D01*
X149408446Y-120238391D01*
X149455395Y-120188395D01*
X149456761Y-120186986D01*
X149477110Y-120166637D01*
X149481396Y-120161111D01*
X149485218Y-120156637D01*
X149514628Y-120125319D01*
X149514632Y-120125313D01*
X149517321Y-120122450D01*
X149529394Y-120100489D01*
X149534779Y-120092291D01*
X149547729Y-120075597D01*
X149547730Y-120075595D01*
X149550141Y-120072487D01*
X149558458Y-120053267D01*
X149568767Y-120029445D01*
X149571358Y-120024156D01*
X149593943Y-119983075D01*
X149600177Y-119958795D01*
X149603350Y-119949531D01*
X149611746Y-119930130D01*
X149611748Y-119930122D01*
X149613307Y-119926520D01*
X149620646Y-119880185D01*
X149621836Y-119874438D01*
X149633497Y-119829024D01*
X149633500Y-119828976D01*
X149633500Y-119803946D01*
X149634269Y-119794169D01*
X149637573Y-119773310D01*
X149637573Y-119773307D01*
X149638187Y-119769431D01*
X149633777Y-119722778D01*
X149633500Y-119716896D01*
X149633500Y-119328000D01*
X149651806Y-119283806D01*
X149696000Y-119265500D01*
X150754000Y-119265500D01*
X150757010Y-119264901D01*
X150757013Y-119264901D01*
X150810288Y-119254304D01*
X150853306Y-119245747D01*
X150858423Y-119242328D01*
X150858425Y-119242327D01*
X150932377Y-119192913D01*
X150937494Y-119189494D01*
X150949710Y-119171211D01*
X150990327Y-119110425D01*
X150990328Y-119110423D01*
X150993747Y-119105306D01*
X151002304Y-119062288D01*
X151012901Y-119009013D01*
X151012901Y-119009010D01*
X151013500Y-119006000D01*
X151013500Y-118413263D01*
X155606195Y-118413263D01*
X155606826Y-118417616D01*
X156201210Y-119012000D01*
X156210000Y-119015641D01*
X156218790Y-119012000D01*
X156809754Y-118421036D01*
X156813395Y-118412246D01*
X156811573Y-118407848D01*
X156733606Y-118358655D01*
X156728522Y-118356064D01*
X156538707Y-118280335D01*
X156533241Y-118278716D01*
X156332805Y-118238847D01*
X156327141Y-118238252D01*
X156122791Y-118235576D01*
X156117104Y-118236024D01*
X155915706Y-118270631D01*
X155910183Y-118272110D01*
X155718461Y-118342840D01*
X155713312Y-118345296D01*
X155611889Y-118405637D01*
X155606195Y-118413263D01*
X151013500Y-118413263D01*
X151013500Y-116946712D01*
X151445500Y-116946712D01*
X151445500Y-117748914D01*
X151460979Y-117857000D01*
X151520771Y-117988504D01*
X151615067Y-118097941D01*
X151736289Y-118176513D01*
X151740551Y-118177788D01*
X151740552Y-118177788D01*
X151871450Y-118216935D01*
X151871452Y-118216935D01*
X151874691Y-118217904D01*
X151878067Y-118218155D01*
X151878068Y-118218155D01*
X151881550Y-118218414D01*
X151881559Y-118218414D01*
X151882712Y-118218500D01*
X152884914Y-118218500D01*
X152993000Y-118203021D01*
X153085259Y-118161073D01*
X153120449Y-118145073D01*
X153120451Y-118145072D01*
X153124504Y-118143229D01*
X153233941Y-118048933D01*
X153312513Y-117927711D01*
X153315320Y-117918327D01*
X153336300Y-117848173D01*
X153366502Y-117811077D01*
X153414088Y-117806201D01*
X153441740Y-117823297D01*
X153484927Y-117869287D01*
X153484930Y-117869289D01*
X153487619Y-117872153D01*
X153627199Y-117960733D01*
X153784422Y-118011818D01*
X153788347Y-118012065D01*
X153866916Y-118017008D01*
X153949410Y-118022199D01*
X153953273Y-118021462D01*
X153953275Y-118021462D01*
X154107939Y-117991958D01*
X154111797Y-117991222D01*
X154261378Y-117920834D01*
X154388755Y-117815459D01*
X154395482Y-117806201D01*
X154483615Y-117684895D01*
X154485924Y-117681717D01*
X154546781Y-117528011D01*
X154567500Y-117364000D01*
X154546781Y-117199989D01*
X154485924Y-117046283D01*
X154413582Y-116946712D01*
X154391065Y-116915720D01*
X154391064Y-116915718D01*
X154388755Y-116912541D01*
X154301068Y-116840000D01*
X155315500Y-116840000D01*
X155335047Y-117025977D01*
X155392834Y-117203826D01*
X155394469Y-117206659D01*
X155394470Y-117206660D01*
X155484696Y-117362938D01*
X155484699Y-117362942D01*
X155486334Y-117365774D01*
X155611463Y-117504743D01*
X155762750Y-117614660D01*
X155933584Y-117690720D01*
X155936791Y-117691402D01*
X155936792Y-117691402D01*
X156113289Y-117728918D01*
X156113292Y-117728918D01*
X156116499Y-117729600D01*
X156303501Y-117729600D01*
X156306708Y-117728918D01*
X156306711Y-117728918D01*
X156483208Y-117691402D01*
X156483209Y-117691402D01*
X156486416Y-117690720D01*
X156657250Y-117614660D01*
X156808537Y-117504743D01*
X156933666Y-117365774D01*
X156935301Y-117362942D01*
X156935304Y-117362938D01*
X157025530Y-117206660D01*
X157025531Y-117206659D01*
X157027166Y-117203826D01*
X157084953Y-117025977D01*
X157101342Y-116870046D01*
X157116600Y-116841943D01*
X157101342Y-116809954D01*
X157095618Y-116755496D01*
X157084953Y-116654023D01*
X157027166Y-116476174D01*
X156999465Y-116428194D01*
X156935304Y-116317062D01*
X156935301Y-116317058D01*
X156933666Y-116314226D01*
X156808537Y-116175257D01*
X156657250Y-116065340D01*
X156486416Y-115989280D01*
X156483209Y-115988598D01*
X156483208Y-115988598D01*
X156306711Y-115951082D01*
X156306708Y-115951082D01*
X156303501Y-115950400D01*
X156116499Y-115950400D01*
X156113292Y-115951082D01*
X156113289Y-115951082D01*
X155936792Y-115988598D01*
X155936791Y-115988598D01*
X155933584Y-115989280D01*
X155762750Y-116065340D01*
X155611463Y-116175257D01*
X155486334Y-116314226D01*
X155484699Y-116317058D01*
X155484696Y-116317062D01*
X155420535Y-116428194D01*
X155392834Y-116476174D01*
X155335047Y-116654023D01*
X155315500Y-116840000D01*
X154301068Y-116840000D01*
X154261378Y-116807166D01*
X154111797Y-116736778D01*
X154107939Y-116736042D01*
X153953275Y-116706538D01*
X153953273Y-116706538D01*
X153949410Y-116705801D01*
X153937697Y-116706538D01*
X153788347Y-116715935D01*
X153784422Y-116716182D01*
X153627199Y-116767267D01*
X153487619Y-116855847D01*
X153484930Y-116858711D01*
X153484927Y-116858713D01*
X153445282Y-116900931D01*
X153401685Y-116920616D01*
X153356938Y-116903707D01*
X153339734Y-116875688D01*
X153339652Y-116875409D01*
X153339021Y-116871000D01*
X153337178Y-116866946D01*
X153281073Y-116743551D01*
X153281072Y-116743549D01*
X153279229Y-116739496D01*
X153184933Y-116630059D01*
X153063711Y-116551487D01*
X153026465Y-116540348D01*
X152928550Y-116511065D01*
X152928548Y-116511065D01*
X152925309Y-116510096D01*
X152921933Y-116509845D01*
X152921932Y-116509845D01*
X152918450Y-116509586D01*
X152918441Y-116509586D01*
X152917288Y-116509500D01*
X151915086Y-116509500D01*
X151807000Y-116524979D01*
X151767755Y-116542823D01*
X151679551Y-116582927D01*
X151679549Y-116582928D01*
X151675496Y-116584771D01*
X151566059Y-116679067D01*
X151487487Y-116800289D01*
X151486212Y-116804551D01*
X151486212Y-116804552D01*
X151451502Y-116920616D01*
X151446096Y-116938691D01*
X151445500Y-116946712D01*
X151013500Y-116946712D01*
X151013500Y-116706000D01*
X151011326Y-116695067D01*
X150999066Y-116633434D01*
X150993747Y-116606694D01*
X150989790Y-116600771D01*
X150940913Y-116527623D01*
X150937494Y-116522506D01*
X150868154Y-116476174D01*
X150858425Y-116469673D01*
X150858423Y-116469672D01*
X150853306Y-116466253D01*
X150810288Y-116457696D01*
X150757013Y-116447099D01*
X150757010Y-116447099D01*
X150754000Y-116446500D01*
X148510636Y-116446500D01*
X148466442Y-116428194D01*
X146338248Y-114300000D01*
X155315500Y-114300000D01*
X155335047Y-114485977D01*
X155392834Y-114663826D01*
X155394469Y-114666659D01*
X155394470Y-114666660D01*
X155484696Y-114822938D01*
X155484699Y-114822942D01*
X155486334Y-114825774D01*
X155611463Y-114964743D01*
X155762750Y-115074660D01*
X155933584Y-115150720D01*
X155936791Y-115151402D01*
X155936792Y-115151402D01*
X156113289Y-115188918D01*
X156113292Y-115188918D01*
X156116499Y-115189600D01*
X156303501Y-115189600D01*
X156306708Y-115188918D01*
X156306711Y-115188918D01*
X156483208Y-115151402D01*
X156483209Y-115151402D01*
X156486416Y-115150720D01*
X156657250Y-115074660D01*
X156808537Y-114964743D01*
X156933666Y-114825774D01*
X156935301Y-114822942D01*
X156935304Y-114822938D01*
X157025530Y-114666660D01*
X157025531Y-114666659D01*
X157027166Y-114663826D01*
X157084953Y-114485977D01*
X157101342Y-114330046D01*
X157116600Y-114301943D01*
X157101342Y-114269954D01*
X157085295Y-114117279D01*
X157084953Y-114114023D01*
X157027166Y-113936174D01*
X157025530Y-113933340D01*
X156935304Y-113777062D01*
X156935301Y-113777058D01*
X156933666Y-113774226D01*
X156808537Y-113635257D01*
X156657250Y-113525340D01*
X156486416Y-113449280D01*
X156483209Y-113448598D01*
X156483208Y-113448598D01*
X156306711Y-113411082D01*
X156306708Y-113411082D01*
X156303501Y-113410400D01*
X156116499Y-113410400D01*
X156113292Y-113411082D01*
X156113289Y-113411082D01*
X155936792Y-113448598D01*
X155936791Y-113448598D01*
X155933584Y-113449280D01*
X155762750Y-113525340D01*
X155611463Y-113635257D01*
X155486334Y-113774226D01*
X155484699Y-113777058D01*
X155484696Y-113777062D01*
X155394470Y-113933340D01*
X155392834Y-113936174D01*
X155335047Y-114114023D01*
X155315500Y-114300000D01*
X146338248Y-114300000D01*
X143798247Y-111760000D01*
X155315500Y-111760000D01*
X155335047Y-111945977D01*
X155392834Y-112123826D01*
X155394469Y-112126659D01*
X155394470Y-112126660D01*
X155484696Y-112282938D01*
X155484699Y-112282942D01*
X155486334Y-112285774D01*
X155611463Y-112424743D01*
X155762750Y-112534660D01*
X155933584Y-112610720D01*
X155936791Y-112611402D01*
X155936792Y-112611402D01*
X156113289Y-112648918D01*
X156113292Y-112648918D01*
X156116499Y-112649600D01*
X156303501Y-112649600D01*
X156306708Y-112648918D01*
X156306711Y-112648918D01*
X156483208Y-112611402D01*
X156483209Y-112611402D01*
X156486416Y-112610720D01*
X156657250Y-112534660D01*
X156808537Y-112424743D01*
X156933666Y-112285774D01*
X156935301Y-112282942D01*
X156935304Y-112282938D01*
X157025530Y-112126660D01*
X157025531Y-112126659D01*
X157027166Y-112123826D01*
X157084953Y-111945977D01*
X157101342Y-111790046D01*
X157116600Y-111761943D01*
X157101342Y-111729954D01*
X157085295Y-111577279D01*
X157084953Y-111574023D01*
X157027166Y-111396174D01*
X157025530Y-111393340D01*
X156935304Y-111237062D01*
X156935301Y-111237058D01*
X156933666Y-111234226D01*
X156856207Y-111148199D01*
X156810733Y-111097696D01*
X156810734Y-111097696D01*
X156808537Y-111095257D01*
X156657250Y-110985340D01*
X156486416Y-110909280D01*
X156483209Y-110908598D01*
X156483208Y-110908598D01*
X156306711Y-110871082D01*
X156306708Y-110871082D01*
X156303501Y-110870400D01*
X156116499Y-110870400D01*
X156113292Y-110871082D01*
X156113289Y-110871082D01*
X155936792Y-110908598D01*
X155936791Y-110908598D01*
X155933584Y-110909280D01*
X155762750Y-110985340D01*
X155611463Y-111095257D01*
X155609266Y-111097696D01*
X155609267Y-111097696D01*
X155563794Y-111148199D01*
X155486334Y-111234226D01*
X155484699Y-111237058D01*
X155484696Y-111237062D01*
X155394470Y-111393340D01*
X155392834Y-111396174D01*
X155335047Y-111574023D01*
X155315500Y-111760000D01*
X143798247Y-111760000D01*
X142125806Y-110087559D01*
X142107500Y-110043365D01*
X142107500Y-107359343D01*
X148443700Y-107359343D01*
X148443700Y-107524657D01*
X148484812Y-107684778D01*
X148564453Y-107829644D01*
X148567148Y-107832513D01*
X148567148Y-107832514D01*
X148674927Y-107947287D01*
X148674930Y-107947289D01*
X148677619Y-107950153D01*
X148817199Y-108038733D01*
X148974422Y-108089818D01*
X148978347Y-108090065D01*
X149056272Y-108094968D01*
X149139410Y-108100199D01*
X149143272Y-108099462D01*
X149143277Y-108099462D01*
X149174170Y-108093569D01*
X149221011Y-108103270D01*
X149230074Y-108110768D01*
X151845121Y-110725815D01*
X151853432Y-110736105D01*
X151861612Y-110748773D01*
X151865670Y-110751972D01*
X151889275Y-110770581D01*
X151894775Y-110775469D01*
X151898895Y-110779589D01*
X151900991Y-110781087D01*
X151900997Y-110781092D01*
X151917021Y-110792543D01*
X151919375Y-110794311D01*
X151956706Y-110823741D01*
X151956713Y-110823745D01*
X151960766Y-110826940D01*
X151965639Y-110828651D01*
X151969106Y-110830557D01*
X151972639Y-110832288D01*
X151976843Y-110835292D01*
X152027412Y-110850416D01*
X152030142Y-110851304D01*
X152079893Y-110868775D01*
X152083811Y-110869114D01*
X152083814Y-110869115D01*
X152088265Y-110869500D01*
X152088262Y-110869532D01*
X152091219Y-110869782D01*
X152092862Y-110869990D01*
X152097809Y-110871469D01*
X152146691Y-110869548D01*
X152149146Y-110869500D01*
X154371760Y-110869500D01*
X154417320Y-110889216D01*
X154516927Y-110995287D01*
X154516930Y-110995289D01*
X154519619Y-110998153D01*
X154659199Y-111086733D01*
X154816422Y-111137818D01*
X154820347Y-111138065D01*
X154898916Y-111143008D01*
X154981410Y-111148199D01*
X154985273Y-111147462D01*
X154985275Y-111147462D01*
X155139939Y-111117958D01*
X155143797Y-111117222D01*
X155293378Y-111046834D01*
X155420755Y-110941459D01*
X155444135Y-110909280D01*
X155515615Y-110810895D01*
X155517924Y-110807717D01*
X155531725Y-110772860D01*
X155577333Y-110657669D01*
X155577334Y-110657667D01*
X155578781Y-110654011D01*
X155599500Y-110490000D01*
X155578781Y-110325989D01*
X155558285Y-110274221D01*
X155519371Y-110175937D01*
X155519370Y-110175935D01*
X155517924Y-110172283D01*
X155444630Y-110071402D01*
X155423065Y-110041720D01*
X155423064Y-110041718D01*
X155420755Y-110038541D01*
X155293378Y-109933166D01*
X155143797Y-109862778D01*
X155139939Y-109862042D01*
X154985275Y-109832538D01*
X154985273Y-109832538D01*
X154981410Y-109831801D01*
X154969697Y-109832538D01*
X154820347Y-109841935D01*
X154816422Y-109842182D01*
X154659199Y-109893267D01*
X154519619Y-109981847D01*
X154516930Y-109984711D01*
X154516927Y-109984713D01*
X154417320Y-110090784D01*
X154371760Y-110110500D01*
X152329082Y-110110500D01*
X152284888Y-110092194D01*
X151412694Y-109220000D01*
X155315500Y-109220000D01*
X155335047Y-109405977D01*
X155392834Y-109583826D01*
X155394469Y-109586659D01*
X155394470Y-109586660D01*
X155484696Y-109742938D01*
X155484699Y-109742942D01*
X155486334Y-109745774D01*
X155488525Y-109748208D01*
X155488527Y-109748210D01*
X155564016Y-109832048D01*
X155611463Y-109884743D01*
X155762750Y-109994660D01*
X155933584Y-110070720D01*
X155936791Y-110071402D01*
X155936792Y-110071402D01*
X156113289Y-110108918D01*
X156113292Y-110108918D01*
X156116499Y-110109600D01*
X156303501Y-110109600D01*
X156306708Y-110108918D01*
X156306711Y-110108918D01*
X156483208Y-110071402D01*
X156483209Y-110071402D01*
X156486416Y-110070720D01*
X156657250Y-109994660D01*
X156808537Y-109884743D01*
X156855984Y-109832048D01*
X156931473Y-109748210D01*
X156931475Y-109748208D01*
X156933666Y-109745774D01*
X156935301Y-109742942D01*
X156935304Y-109742938D01*
X157025530Y-109586660D01*
X157025531Y-109586659D01*
X157027166Y-109583826D01*
X157084953Y-109405977D01*
X157101342Y-109250046D01*
X157116600Y-109221943D01*
X157101342Y-109189954D01*
X157085295Y-109037279D01*
X157084953Y-109034023D01*
X157027166Y-108856174D01*
X157011795Y-108829550D01*
X156935304Y-108697062D01*
X156935301Y-108697058D01*
X156933666Y-108694226D01*
X156901017Y-108657965D01*
X156810733Y-108557696D01*
X156810734Y-108557696D01*
X156808537Y-108555257D01*
X156657250Y-108445340D01*
X156486416Y-108369280D01*
X156483209Y-108368598D01*
X156483208Y-108368598D01*
X156306711Y-108331082D01*
X156306708Y-108331082D01*
X156303501Y-108330400D01*
X156116499Y-108330400D01*
X156113292Y-108331082D01*
X156113289Y-108331082D01*
X155936792Y-108368598D01*
X155936791Y-108368598D01*
X155933584Y-108369280D01*
X155762750Y-108445340D01*
X155611463Y-108555257D01*
X155609266Y-108557696D01*
X155609267Y-108557696D01*
X155518984Y-108657965D01*
X155486334Y-108694226D01*
X155484699Y-108697058D01*
X155484696Y-108697062D01*
X155408205Y-108829550D01*
X155392834Y-108856174D01*
X155335047Y-109034023D01*
X155315500Y-109220000D01*
X151412694Y-109220000D01*
X149765376Y-107572682D01*
X149747070Y-107528488D01*
X149747562Y-107520664D01*
X149757500Y-107442000D01*
X149736781Y-107277989D01*
X149709154Y-107208210D01*
X149677371Y-107127937D01*
X149677370Y-107127935D01*
X149675924Y-107124283D01*
X149600499Y-107020469D01*
X149581065Y-106993720D01*
X149581064Y-106993718D01*
X149578755Y-106990541D01*
X149451378Y-106885166D01*
X149417220Y-106869092D01*
X149305350Y-106816450D01*
X149301797Y-106814778D01*
X149297939Y-106814042D01*
X149143275Y-106784538D01*
X149143273Y-106784538D01*
X149139410Y-106783801D01*
X149127697Y-106784538D01*
X148978347Y-106793935D01*
X148974422Y-106794182D01*
X148817199Y-106845267D01*
X148677619Y-106933847D01*
X148674930Y-106936711D01*
X148674927Y-106936713D01*
X148621394Y-106993720D01*
X148564453Y-107054356D01*
X148484812Y-107199222D01*
X148443700Y-107359343D01*
X142107500Y-107359343D01*
X142107500Y-104246343D01*
X142323820Y-104246343D01*
X142323820Y-104411657D01*
X142364932Y-104571778D01*
X142444573Y-104716644D01*
X142447268Y-104719513D01*
X142447268Y-104719514D01*
X142555047Y-104834287D01*
X142555050Y-104834289D01*
X142557739Y-104837153D01*
X142697319Y-104925733D01*
X142854542Y-104976818D01*
X142858467Y-104977065D01*
X142937036Y-104982008D01*
X143019530Y-104987199D01*
X143023393Y-104986462D01*
X143023395Y-104986462D01*
X143178059Y-104956958D01*
X143181917Y-104956222D01*
X143251182Y-104923628D01*
X143327941Y-104887508D01*
X143327942Y-104887507D01*
X143331498Y-104885834D01*
X143387799Y-104839258D01*
X143455844Y-104782967D01*
X143455846Y-104782965D01*
X143458875Y-104780459D01*
X143492438Y-104734263D01*
X143533223Y-104709270D01*
X143543001Y-104708500D01*
X149922195Y-104708500D01*
X149966389Y-104726806D01*
X150925074Y-105685491D01*
X150943380Y-105729685D01*
X150925074Y-105773879D01*
X150883332Y-105792137D01*
X150877956Y-105792348D01*
X150875305Y-105792452D01*
X150872854Y-105792500D01*
X146360881Y-105792500D01*
X146316687Y-105774194D01*
X146310317Y-105766736D01*
X146283398Y-105729685D01*
X146276755Y-105720541D01*
X146273726Y-105718035D01*
X146273724Y-105718033D01*
X146152408Y-105617673D01*
X146149378Y-105615166D01*
X145999797Y-105544778D01*
X145995939Y-105544042D01*
X145841275Y-105514538D01*
X145841273Y-105514538D01*
X145837410Y-105513801D01*
X145825697Y-105514538D01*
X145676347Y-105523935D01*
X145672422Y-105524182D01*
X145515199Y-105575267D01*
X145375619Y-105663847D01*
X145372930Y-105666711D01*
X145372927Y-105666713D01*
X145271996Y-105774194D01*
X145262453Y-105784356D01*
X145182812Y-105929222D01*
X145141700Y-106089343D01*
X145141700Y-106254657D01*
X145182812Y-106414778D01*
X145213563Y-106470714D01*
X145257976Y-106551500D01*
X145262453Y-106559644D01*
X145265148Y-106562513D01*
X145265148Y-106562514D01*
X145372927Y-106677287D01*
X145372930Y-106677289D01*
X145375619Y-106680153D01*
X145515199Y-106768733D01*
X145672422Y-106819818D01*
X145676347Y-106820065D01*
X145731481Y-106823534D01*
X145837410Y-106830199D01*
X145841273Y-106829462D01*
X145841275Y-106829462D01*
X145995939Y-106799958D01*
X145999797Y-106799222D01*
X146149378Y-106728834D01*
X146205679Y-106682258D01*
X146273724Y-106625967D01*
X146273726Y-106625965D01*
X146276755Y-106623459D01*
X146310318Y-106577263D01*
X146351103Y-106552270D01*
X146360881Y-106551500D01*
X150692918Y-106551500D01*
X150737112Y-106569806D01*
X150966410Y-106799104D01*
X150984716Y-106843298D01*
X150984375Y-106848714D01*
X150983700Y-106851343D01*
X150983700Y-107016657D01*
X151024812Y-107176778D01*
X151104453Y-107321644D01*
X151107148Y-107324513D01*
X151107148Y-107324514D01*
X151214927Y-107439287D01*
X151214930Y-107439289D01*
X151217619Y-107442153D01*
X151220932Y-107444255D01*
X151220941Y-107444263D01*
X151334344Y-107516230D01*
X151361850Y-107555366D01*
X151353625Y-107602489D01*
X151334344Y-107621770D01*
X151220941Y-107693737D01*
X151220932Y-107693745D01*
X151217619Y-107695847D01*
X151214930Y-107698711D01*
X151214927Y-107698713D01*
X151142666Y-107775663D01*
X151104453Y-107816356D01*
X151024812Y-107961222D01*
X150983700Y-108121343D01*
X150983700Y-108286657D01*
X151024812Y-108446778D01*
X151104453Y-108591644D01*
X151107148Y-108594513D01*
X151107148Y-108594514D01*
X151214927Y-108709287D01*
X151214930Y-108709289D01*
X151217619Y-108712153D01*
X151357199Y-108800733D01*
X151514422Y-108851818D01*
X151518347Y-108852065D01*
X151583653Y-108856174D01*
X151679410Y-108862199D01*
X151683273Y-108861462D01*
X151683275Y-108861462D01*
X151837939Y-108831958D01*
X151841797Y-108831222D01*
X151991378Y-108760834D01*
X152118755Y-108655459D01*
X152215924Y-108521717D01*
X152246164Y-108445340D01*
X152275333Y-108371669D01*
X152275334Y-108371667D01*
X152276781Y-108368011D01*
X152297500Y-108204000D01*
X152287563Y-108125344D01*
X152300185Y-108079206D01*
X152305376Y-108073318D01*
X152598326Y-107780368D01*
X152608617Y-107772056D01*
X152616943Y-107766680D01*
X152621284Y-107763877D01*
X152643092Y-107736214D01*
X152647980Y-107730714D01*
X152652099Y-107726595D01*
X152665068Y-107708447D01*
X152666791Y-107706152D01*
X152699451Y-107664723D01*
X152701162Y-107659850D01*
X152703053Y-107656411D01*
X152704798Y-107652850D01*
X152707802Y-107648646D01*
X152722910Y-107598127D01*
X152723820Y-107595330D01*
X152733067Y-107569000D01*
X152741286Y-107545596D01*
X152742011Y-107537224D01*
X152742042Y-107537227D01*
X152742294Y-107534248D01*
X152742498Y-107532631D01*
X152743979Y-107527680D01*
X152742059Y-107478812D01*
X152742011Y-107476359D01*
X152742011Y-106632239D01*
X152743411Y-106619085D01*
X152745496Y-106609399D01*
X152746584Y-106604347D01*
X152742444Y-106569367D01*
X152742011Y-106562021D01*
X152742011Y-106556194D01*
X152738355Y-106534229D01*
X152737940Y-106531313D01*
X152732351Y-106484091D01*
X152731744Y-106478962D01*
X152729508Y-106474306D01*
X152728410Y-106470527D01*
X152727129Y-106466786D01*
X152726281Y-106461688D01*
X152702830Y-106418226D01*
X152701249Y-106415295D01*
X152699912Y-106412671D01*
X152678793Y-106368690D01*
X152678792Y-106368688D01*
X152677090Y-106365144D01*
X152671683Y-106358712D01*
X152671706Y-106358692D01*
X152669791Y-106356422D01*
X152668779Y-106355117D01*
X152666326Y-106350571D01*
X152630409Y-106317370D01*
X152628640Y-106315669D01*
X150406154Y-104093182D01*
X150397842Y-104082890D01*
X150392468Y-104074567D01*
X150392466Y-104074564D01*
X150389665Y-104070227D01*
X150362003Y-104048420D01*
X150356511Y-104043539D01*
X150352383Y-104039411D01*
X150334221Y-104026432D01*
X150331927Y-104024709D01*
X150290511Y-103992060D01*
X150285634Y-103990347D01*
X150282168Y-103988442D01*
X150278639Y-103986713D01*
X150274434Y-103983708D01*
X150223865Y-103968584D01*
X150221135Y-103967696D01*
X150171384Y-103950225D01*
X150167466Y-103949886D01*
X150167463Y-103949885D01*
X150163012Y-103949500D01*
X150163015Y-103949468D01*
X150160058Y-103949218D01*
X150158415Y-103949010D01*
X150153468Y-103947531D01*
X150110540Y-103949218D01*
X150104585Y-103949452D01*
X150102131Y-103949500D01*
X143543001Y-103949500D01*
X143498807Y-103931194D01*
X143492437Y-103923736D01*
X143467856Y-103889903D01*
X143458875Y-103877541D01*
X143455846Y-103875035D01*
X143455844Y-103875033D01*
X143364577Y-103799531D01*
X143331498Y-103772166D01*
X143181917Y-103701778D01*
X143178059Y-103701042D01*
X143023395Y-103671538D01*
X143023393Y-103671538D01*
X143019530Y-103670801D01*
X143007817Y-103671538D01*
X142858467Y-103680935D01*
X142854542Y-103681182D01*
X142697319Y-103732267D01*
X142557739Y-103820847D01*
X142555050Y-103823711D01*
X142555047Y-103823713D01*
X142461119Y-103923736D01*
X142444573Y-103941356D01*
X142364932Y-104086222D01*
X142323820Y-104246343D01*
X142107500Y-104246343D01*
X142107500Y-104085375D01*
X142111889Y-104062368D01*
X142115332Y-104053672D01*
X142115333Y-104053668D01*
X142116781Y-104050011D01*
X142137500Y-103886000D01*
X142136834Y-103880724D01*
X142133735Y-103856198D01*
X142116781Y-103721989D01*
X142108488Y-103701042D01*
X142057371Y-103571937D01*
X142057370Y-103571935D01*
X142055924Y-103568283D01*
X142033000Y-103536731D01*
X141961065Y-103437720D01*
X141961064Y-103437718D01*
X141958755Y-103434541D01*
X141831378Y-103329166D01*
X141814125Y-103321047D01*
X141704765Y-103269586D01*
X141681797Y-103258778D01*
X141677939Y-103258042D01*
X141523275Y-103228538D01*
X141523273Y-103228538D01*
X141519410Y-103227801D01*
X141507697Y-103228538D01*
X141358347Y-103237935D01*
X141354422Y-103238182D01*
X141197199Y-103289267D01*
X141057619Y-103377847D01*
X141054930Y-103380711D01*
X141054927Y-103380713D01*
X140965674Y-103475758D01*
X140944453Y-103498356D01*
X140864812Y-103643222D01*
X140823700Y-103803343D01*
X136715994Y-103803343D01*
X136707166Y-103776174D01*
X136683032Y-103734372D01*
X136615304Y-103617062D01*
X136615301Y-103617058D01*
X136613666Y-103614226D01*
X136593429Y-103591750D01*
X136490733Y-103477696D01*
X136490734Y-103477696D01*
X136488537Y-103475257D01*
X136337250Y-103365340D01*
X136166416Y-103289280D01*
X136163209Y-103288598D01*
X136163208Y-103288598D01*
X135986711Y-103251082D01*
X135986708Y-103251082D01*
X135983501Y-103250400D01*
X135796499Y-103250400D01*
X135793292Y-103251082D01*
X135793289Y-103251082D01*
X135616792Y-103288598D01*
X135616791Y-103288598D01*
X135613584Y-103289280D01*
X135442750Y-103365340D01*
X135291463Y-103475257D01*
X135289266Y-103477696D01*
X135289267Y-103477696D01*
X135186572Y-103591750D01*
X135166334Y-103614226D01*
X135164699Y-103617058D01*
X135164696Y-103617062D01*
X135096968Y-103734372D01*
X135072834Y-103776174D01*
X135038417Y-103882097D01*
X135016392Y-103949885D01*
X135015047Y-103954023D01*
X135000354Y-104093820D01*
X134998658Y-104109954D01*
X134983400Y-104138057D01*
X134886265Y-104138057D01*
X134874000Y-104103421D01*
X134874000Y-101636579D01*
X134887996Y-101602791D01*
X134887928Y-101602754D01*
X134886265Y-101598057D01*
X134983400Y-101598057D01*
X134998658Y-101630046D01*
X135015047Y-101785977D01*
X135016059Y-101789091D01*
X135016059Y-101789092D01*
X135025091Y-101816890D01*
X135072834Y-101963826D01*
X135074469Y-101966659D01*
X135074470Y-101966660D01*
X135164696Y-102122938D01*
X135164699Y-102122942D01*
X135166334Y-102125774D01*
X135168525Y-102128208D01*
X135168527Y-102128210D01*
X135243074Y-102211002D01*
X135291463Y-102264743D01*
X135442750Y-102374660D01*
X135613584Y-102450720D01*
X135616791Y-102451402D01*
X135616792Y-102451402D01*
X135793289Y-102488918D01*
X135793292Y-102488918D01*
X135796499Y-102489600D01*
X135983501Y-102489600D01*
X135986708Y-102488918D01*
X135986711Y-102488918D01*
X136163208Y-102451402D01*
X136163209Y-102451402D01*
X136166416Y-102450720D01*
X136337250Y-102374660D01*
X136488537Y-102264743D01*
X136536926Y-102211002D01*
X136611473Y-102128210D01*
X136611475Y-102128208D01*
X136613666Y-102125774D01*
X136615301Y-102122942D01*
X136615304Y-102122938D01*
X136705530Y-101966660D01*
X136705531Y-101966659D01*
X136707166Y-101963826D01*
X136754909Y-101816890D01*
X136763941Y-101789092D01*
X136763941Y-101789091D01*
X136764953Y-101785977D01*
X136784500Y-101600000D01*
X136764953Y-101414023D01*
X136707166Y-101236174D01*
X136696121Y-101217043D01*
X136615304Y-101077062D01*
X136615301Y-101077058D01*
X136613666Y-101074226D01*
X136606504Y-101066271D01*
X136496835Y-100944473D01*
X136488537Y-100935257D01*
X136337250Y-100825340D01*
X136166416Y-100749280D01*
X136163209Y-100748598D01*
X136163208Y-100748598D01*
X135986711Y-100711082D01*
X135986708Y-100711082D01*
X135983501Y-100710400D01*
X135796499Y-100710400D01*
X135793292Y-100711082D01*
X135793289Y-100711082D01*
X135616792Y-100748598D01*
X135616791Y-100748598D01*
X135613584Y-100749280D01*
X135442750Y-100825340D01*
X135291463Y-100935257D01*
X135283165Y-100944473D01*
X135173497Y-101066271D01*
X135166334Y-101074226D01*
X135164699Y-101077058D01*
X135164696Y-101077062D01*
X135083879Y-101217043D01*
X135072834Y-101236174D01*
X135015047Y-101414023D01*
X135001669Y-101541307D01*
X134998658Y-101569954D01*
X134983400Y-101598057D01*
X134886265Y-101598057D01*
X134874000Y-101563421D01*
X134874000Y-99096579D01*
X134887996Y-99062791D01*
X134887928Y-99062754D01*
X134874000Y-99023421D01*
X134874000Y-96556579D01*
X134887996Y-96522791D01*
X134887928Y-96522754D01*
X134886265Y-96518057D01*
X134983400Y-96518057D01*
X134998658Y-96550046D01*
X135015047Y-96705977D01*
X135016059Y-96709091D01*
X135016059Y-96709092D01*
X135018587Y-96716873D01*
X135072834Y-96883826D01*
X135074469Y-96886659D01*
X135074470Y-96886660D01*
X135164696Y-97042938D01*
X135164699Y-97042942D01*
X135166334Y-97045774D01*
X135168525Y-97048208D01*
X135168527Y-97048210D01*
X135259437Y-97149175D01*
X135291463Y-97184743D01*
X135442750Y-97294660D01*
X135613584Y-97370720D01*
X135616791Y-97371402D01*
X135616792Y-97371402D01*
X135793289Y-97408918D01*
X135793292Y-97408918D01*
X135796499Y-97409600D01*
X135983501Y-97409600D01*
X135986706Y-97408919D01*
X135986713Y-97408918D01*
X136105018Y-97383771D01*
X136152052Y-97392488D01*
X136179146Y-97431911D01*
X136170429Y-97478945D01*
X136162206Y-97489099D01*
X135654182Y-97997123D01*
X135643890Y-98005435D01*
X135635567Y-98010809D01*
X135635564Y-98010811D01*
X135631227Y-98013612D01*
X135609420Y-98041274D01*
X135604539Y-98046766D01*
X135600411Y-98050894D01*
X135587432Y-98069056D01*
X135585709Y-98071350D01*
X135553060Y-98112766D01*
X135551347Y-98117643D01*
X135549442Y-98121109D01*
X135547713Y-98124638D01*
X135544708Y-98128843D01*
X135529584Y-98179412D01*
X135528696Y-98182142D01*
X135511225Y-98231893D01*
X135509376Y-98231244D01*
X135485803Y-98265356D01*
X135477319Y-98269948D01*
X135445746Y-98284005D01*
X135445738Y-98284010D01*
X135442750Y-98285340D01*
X135291463Y-98395257D01*
X135289266Y-98397696D01*
X135289267Y-98397696D01*
X135168840Y-98531443D01*
X135166334Y-98534226D01*
X135164699Y-98537058D01*
X135164696Y-98537062D01*
X135077737Y-98687681D01*
X135072834Y-98696174D01*
X135041044Y-98794014D01*
X135022108Y-98852293D01*
X135015047Y-98874023D01*
X135001039Y-99007301D01*
X134998658Y-99029954D01*
X134983400Y-99058057D01*
X134998658Y-99090046D01*
X135015047Y-99245977D01*
X135016059Y-99249091D01*
X135016059Y-99249092D01*
X135017982Y-99255010D01*
X135072834Y-99423826D01*
X135074469Y-99426659D01*
X135074470Y-99426660D01*
X135164696Y-99582938D01*
X135164699Y-99582942D01*
X135166334Y-99585774D01*
X135168525Y-99588208D01*
X135168527Y-99588210D01*
X135251180Y-99680004D01*
X135291463Y-99724743D01*
X135294118Y-99726672D01*
X135301268Y-99731867D01*
X135442750Y-99834660D01*
X135613584Y-99910720D01*
X135616791Y-99911402D01*
X135616792Y-99911402D01*
X135793289Y-99948918D01*
X135793292Y-99948918D01*
X135796499Y-99949600D01*
X135983501Y-99949600D01*
X135986708Y-99948918D01*
X135986711Y-99948918D01*
X136163208Y-99911402D01*
X136163209Y-99911402D01*
X136166416Y-99910720D01*
X136337250Y-99834660D01*
X136478732Y-99731867D01*
X136485882Y-99726672D01*
X136488537Y-99724743D01*
X136528820Y-99680004D01*
X136611473Y-99588210D01*
X136611475Y-99588208D01*
X136613666Y-99585774D01*
X136615301Y-99582942D01*
X136615304Y-99582938D01*
X136705530Y-99426660D01*
X136705531Y-99426659D01*
X136707166Y-99423826D01*
X136762018Y-99255010D01*
X136763941Y-99249092D01*
X136763941Y-99249091D01*
X136764953Y-99245977D01*
X136784500Y-99060000D01*
X136764953Y-98874023D01*
X136757893Y-98852293D01*
X136738956Y-98794014D01*
X136707166Y-98696174D01*
X136702263Y-98687681D01*
X136615304Y-98537062D01*
X136615301Y-98537058D01*
X136613666Y-98534226D01*
X136611161Y-98531443D01*
X136513258Y-98422712D01*
X142530500Y-98422712D01*
X142530500Y-99199914D01*
X142545979Y-99308000D01*
X142556170Y-99330413D01*
X142600503Y-99427917D01*
X142605771Y-99439504D01*
X142700067Y-99548941D01*
X142821289Y-99627513D01*
X142825551Y-99628788D01*
X142825552Y-99628788D01*
X142909127Y-99653782D01*
X142946223Y-99683983D01*
X142951099Y-99731570D01*
X142945989Y-99743770D01*
X142896812Y-99833222D01*
X142855700Y-99993343D01*
X142855700Y-100158657D01*
X142896812Y-100318778D01*
X142976453Y-100463644D01*
X142979148Y-100466513D01*
X142979148Y-100466514D01*
X143086927Y-100581287D01*
X143086930Y-100581289D01*
X143089619Y-100584153D01*
X143229199Y-100672733D01*
X143232934Y-100673947D01*
X143232935Y-100673947D01*
X143238540Y-100675768D01*
X143386422Y-100723818D01*
X143390347Y-100724065D01*
X143468916Y-100729008D01*
X143551410Y-100734199D01*
X143555273Y-100733462D01*
X143555275Y-100733462D01*
X143709939Y-100703958D01*
X143713797Y-100703222D01*
X143836258Y-100645596D01*
X143859821Y-100634508D01*
X143859822Y-100634507D01*
X143863378Y-100632834D01*
X143990755Y-100527459D01*
X143996098Y-100520106D01*
X144085615Y-100396895D01*
X144087924Y-100393717D01*
X144091148Y-100385575D01*
X144147333Y-100243669D01*
X144147334Y-100243667D01*
X144148781Y-100240011D01*
X144169500Y-100076000D01*
X144168308Y-100066560D01*
X144164377Y-100035443D01*
X144148781Y-99911989D01*
X144141911Y-99894636D01*
X144089371Y-99761937D01*
X144089370Y-99761935D01*
X144087924Y-99758283D01*
X144085616Y-99755107D01*
X144085611Y-99755097D01*
X144084048Y-99752946D01*
X144083753Y-99751718D01*
X144083718Y-99751654D01*
X144083736Y-99751644D01*
X144072883Y-99706432D01*
X144097879Y-99665647D01*
X144119592Y-99656840D01*
X144119318Y-99655902D01*
X144123591Y-99654652D01*
X144128000Y-99654021D01*
X144210623Y-99616454D01*
X144255449Y-99596073D01*
X144255451Y-99596072D01*
X144259504Y-99594229D01*
X144266490Y-99588210D01*
X144365566Y-99502841D01*
X144368941Y-99499933D01*
X144447513Y-99378711D01*
X144466125Y-99316476D01*
X144487935Y-99243550D01*
X144487935Y-99243548D01*
X144488904Y-99240309D01*
X144489500Y-99232288D01*
X144489500Y-98455086D01*
X144474021Y-98347000D01*
X144438987Y-98269948D01*
X144416073Y-98219551D01*
X144416072Y-98219549D01*
X144414229Y-98215496D01*
X144319933Y-98106059D01*
X144198711Y-98027487D01*
X144188178Y-98024337D01*
X144063550Y-97987065D01*
X144063548Y-97987065D01*
X144060309Y-97986096D01*
X144056933Y-97985845D01*
X144056932Y-97985845D01*
X144053450Y-97985586D01*
X144053441Y-97985586D01*
X144052288Y-97985500D01*
X143000086Y-97985500D01*
X142892000Y-98000979D01*
X142836504Y-98026212D01*
X142764551Y-98058927D01*
X142764549Y-98058928D01*
X142760496Y-98060771D01*
X142757121Y-98063679D01*
X142749539Y-98070212D01*
X142651059Y-98155067D01*
X142572487Y-98276289D01*
X142571212Y-98280551D01*
X142571212Y-98280552D01*
X142532222Y-98410927D01*
X142531096Y-98414691D01*
X142530500Y-98422712D01*
X136513258Y-98422712D01*
X136490733Y-98397696D01*
X136490734Y-98397696D01*
X136488537Y-98395257D01*
X136455589Y-98371319D01*
X136430596Y-98330533D01*
X136441762Y-98284020D01*
X136448132Y-98276562D01*
X138376982Y-96347712D01*
X142530500Y-96347712D01*
X142530500Y-97124914D01*
X142545979Y-97233000D01*
X142605771Y-97364504D01*
X142700067Y-97473941D01*
X142821289Y-97552513D01*
X142825551Y-97553788D01*
X142825552Y-97553788D01*
X142956450Y-97592935D01*
X142956452Y-97592935D01*
X142959691Y-97593904D01*
X142963067Y-97594155D01*
X142963068Y-97594155D01*
X142966550Y-97594414D01*
X142966559Y-97594414D01*
X142967712Y-97594500D01*
X144019914Y-97594500D01*
X144128000Y-97579021D01*
X144228504Y-97533324D01*
X144255449Y-97521073D01*
X144255451Y-97521072D01*
X144259504Y-97519229D01*
X144368941Y-97424933D01*
X144447513Y-97303711D01*
X144448788Y-97299448D01*
X144487935Y-97168550D01*
X144487935Y-97168548D01*
X144488904Y-97165309D01*
X144489500Y-97157288D01*
X144489500Y-96380086D01*
X144474021Y-96272000D01*
X144422773Y-96159287D01*
X144416073Y-96144551D01*
X144416072Y-96144549D01*
X144414229Y-96140496D01*
X144319933Y-96031059D01*
X144198711Y-95952487D01*
X144194448Y-95951212D01*
X144114141Y-95927195D01*
X144077045Y-95896993D01*
X144072169Y-95849407D01*
X144081484Y-95830581D01*
X144087924Y-95821717D01*
X144148781Y-95668011D01*
X144169500Y-95504000D01*
X144148781Y-95339989D01*
X144119105Y-95265035D01*
X144089371Y-95189937D01*
X144089370Y-95189935D01*
X144087924Y-95186283D01*
X143990755Y-95052541D01*
X143863378Y-94947166D01*
X143713797Y-94876778D01*
X143676169Y-94869600D01*
X143555275Y-94846538D01*
X143555273Y-94846538D01*
X143551410Y-94845801D01*
X143539697Y-94846538D01*
X143390347Y-94855935D01*
X143386422Y-94856182D01*
X143229199Y-94907267D01*
X143089619Y-94995847D01*
X143086930Y-94998711D01*
X143086927Y-94998713D01*
X143033394Y-95055720D01*
X142976453Y-95116356D01*
X142896812Y-95261222D01*
X142855700Y-95421343D01*
X142855700Y-95586657D01*
X142896812Y-95746778D01*
X142942881Y-95830577D01*
X142944263Y-95833090D01*
X142949512Y-95880637D01*
X142919604Y-95917969D01*
X142898356Y-95925069D01*
X142892000Y-95925979D01*
X142839981Y-95949631D01*
X142764551Y-95983927D01*
X142764549Y-95983928D01*
X142760496Y-95985771D01*
X142757121Y-95988679D01*
X142750683Y-95994226D01*
X142651059Y-96080067D01*
X142572487Y-96201289D01*
X142571212Y-96205551D01*
X142571212Y-96205552D01*
X142532798Y-96334001D01*
X142531096Y-96339691D01*
X142530500Y-96347712D01*
X138376982Y-96347712D01*
X140092888Y-94631806D01*
X140137082Y-94613500D01*
X140909760Y-94613500D01*
X140955320Y-94633216D01*
X141054927Y-94739287D01*
X141054930Y-94739289D01*
X141057619Y-94742153D01*
X141197199Y-94830733D01*
X141354422Y-94881818D01*
X141358347Y-94882065D01*
X141436916Y-94887008D01*
X141519410Y-94892199D01*
X141523273Y-94891462D01*
X141523275Y-94891462D01*
X141677939Y-94861958D01*
X141681797Y-94861222D01*
X141831378Y-94790834D01*
X141958755Y-94685459D01*
X141986936Y-94646672D01*
X142053615Y-94554895D01*
X142055924Y-94551717D01*
X142057371Y-94548063D01*
X142059265Y-94544617D01*
X142060270Y-94545169D01*
X142090593Y-94513875D01*
X142138422Y-94513122D01*
X142170186Y-94541124D01*
X142172410Y-94545169D01*
X142214453Y-94621644D01*
X142217148Y-94624513D01*
X142217148Y-94624514D01*
X142324927Y-94739287D01*
X142324930Y-94739289D01*
X142327619Y-94742153D01*
X142467199Y-94830733D01*
X142624422Y-94881818D01*
X142628347Y-94882065D01*
X142706916Y-94887008D01*
X142789410Y-94892199D01*
X142793273Y-94891462D01*
X142793275Y-94891462D01*
X142947939Y-94861958D01*
X142951797Y-94861222D01*
X143101378Y-94790834D01*
X143228755Y-94685459D01*
X143256936Y-94646672D01*
X143323615Y-94554895D01*
X143325924Y-94551717D01*
X143343150Y-94508210D01*
X143385333Y-94401669D01*
X143385334Y-94401667D01*
X143386781Y-94398011D01*
X143407500Y-94234000D01*
X143386781Y-94069989D01*
X143365635Y-94016579D01*
X143327371Y-93919937D01*
X143327370Y-93919935D01*
X143325924Y-93916283D01*
X143237097Y-93794023D01*
X143231065Y-93785720D01*
X143231064Y-93785718D01*
X143228755Y-93782541D01*
X143101378Y-93677166D01*
X142951797Y-93606778D01*
X142947939Y-93606042D01*
X142793275Y-93576538D01*
X142793273Y-93576538D01*
X142789410Y-93575801D01*
X142664303Y-93583673D01*
X142616184Y-93565490D01*
X142032877Y-92982182D01*
X142024565Y-92971890D01*
X142019191Y-92963567D01*
X142019189Y-92963564D01*
X142016388Y-92959227D01*
X141988726Y-92937420D01*
X141983234Y-92932539D01*
X141979106Y-92928411D01*
X141960944Y-92915432D01*
X141958650Y-92913709D01*
X141917234Y-92881060D01*
X141912357Y-92879347D01*
X141908891Y-92877442D01*
X141905362Y-92875713D01*
X141901157Y-92872708D01*
X141850588Y-92857584D01*
X141847858Y-92856696D01*
X141798107Y-92839225D01*
X141794189Y-92838886D01*
X141794186Y-92838885D01*
X141789735Y-92838500D01*
X141789738Y-92838468D01*
X141786781Y-92838218D01*
X141785138Y-92838010D01*
X141780191Y-92836531D01*
X141737263Y-92838218D01*
X141731308Y-92838452D01*
X141728854Y-92838500D01*
X140254004Y-92838500D01*
X140240850Y-92837100D01*
X140238207Y-92836531D01*
X140226112Y-92833927D01*
X140220982Y-92834534D01*
X140220980Y-92834534D01*
X140191132Y-92838067D01*
X140183786Y-92838500D01*
X140177960Y-92838500D01*
X140175420Y-92838923D01*
X140175418Y-92838923D01*
X140171337Y-92839602D01*
X140155972Y-92842160D01*
X140153086Y-92842570D01*
X140100728Y-92848767D01*
X140096071Y-92851003D01*
X140092293Y-92852101D01*
X140088552Y-92853382D01*
X140083454Y-92854230D01*
X140078906Y-92856684D01*
X140037061Y-92879262D01*
X140034437Y-92880599D01*
X139990456Y-92901718D01*
X139990454Y-92901719D01*
X139986910Y-92903421D01*
X139980478Y-92908828D01*
X139980458Y-92908805D01*
X139978188Y-92910720D01*
X139976883Y-92911732D01*
X139972337Y-92914185D01*
X139968829Y-92917980D01*
X139939136Y-92950102D01*
X139937435Y-92951871D01*
X136774265Y-96115040D01*
X136730071Y-96133346D01*
X136685877Y-96115040D01*
X136675946Y-96102099D01*
X136636880Y-96034434D01*
X136615304Y-95997062D01*
X136615301Y-95997058D01*
X136613666Y-95994226D01*
X136608672Y-95988679D01*
X136490733Y-95857696D01*
X136490734Y-95857696D01*
X136488537Y-95855257D01*
X136337250Y-95745340D01*
X136166416Y-95669280D01*
X136163209Y-95668598D01*
X136163208Y-95668598D01*
X135986711Y-95631082D01*
X135986708Y-95631082D01*
X135983501Y-95630400D01*
X135796499Y-95630400D01*
X135793292Y-95631082D01*
X135793289Y-95631082D01*
X135616792Y-95668598D01*
X135616791Y-95668598D01*
X135613584Y-95669280D01*
X135442750Y-95745340D01*
X135291463Y-95855257D01*
X135289266Y-95857696D01*
X135289267Y-95857696D01*
X135171329Y-95988679D01*
X135166334Y-95994226D01*
X135164699Y-95997058D01*
X135164696Y-95997062D01*
X135081883Y-96140500D01*
X135072834Y-96156174D01*
X135015047Y-96334023D01*
X135005089Y-96428770D01*
X134998658Y-96489954D01*
X134983400Y-96518057D01*
X134886265Y-96518057D01*
X134874000Y-96483421D01*
X134874000Y-94016579D01*
X134887996Y-93982791D01*
X134887928Y-93982754D01*
X134886265Y-93978057D01*
X134983400Y-93978057D01*
X134998658Y-94010046D01*
X135015047Y-94165977D01*
X135072834Y-94343826D01*
X135074469Y-94346659D01*
X135074470Y-94346660D01*
X135164696Y-94502938D01*
X135164699Y-94502942D01*
X135166334Y-94505774D01*
X135168525Y-94508208D01*
X135168527Y-94508210D01*
X135265259Y-94615640D01*
X135291463Y-94644743D01*
X135442750Y-94754660D01*
X135613584Y-94830720D01*
X135616791Y-94831402D01*
X135616792Y-94831402D01*
X135793289Y-94868918D01*
X135793292Y-94868918D01*
X135796499Y-94869600D01*
X135983501Y-94869600D01*
X135986708Y-94868918D01*
X135986711Y-94868918D01*
X136163208Y-94831402D01*
X136163209Y-94831402D01*
X136166416Y-94830720D01*
X136337250Y-94754660D01*
X136488537Y-94644743D01*
X136514741Y-94615640D01*
X136611473Y-94508210D01*
X136611475Y-94508208D01*
X136613666Y-94505774D01*
X136615301Y-94502942D01*
X136615304Y-94502938D01*
X136705530Y-94346660D01*
X136705531Y-94346659D01*
X136707166Y-94343826D01*
X136764953Y-94165977D01*
X136784500Y-93980000D01*
X136764953Y-93794023D01*
X136707166Y-93616174D01*
X136701741Y-93606778D01*
X136615304Y-93457062D01*
X136615301Y-93457058D01*
X136613666Y-93454226D01*
X136488537Y-93315257D01*
X136337250Y-93205340D01*
X136166416Y-93129280D01*
X136163209Y-93128598D01*
X136163208Y-93128598D01*
X135986711Y-93091082D01*
X135986708Y-93091082D01*
X135983501Y-93090400D01*
X135796499Y-93090400D01*
X135793292Y-93091082D01*
X135793289Y-93091082D01*
X135616792Y-93128598D01*
X135616791Y-93128598D01*
X135613584Y-93129280D01*
X135442750Y-93205340D01*
X135291463Y-93315257D01*
X135166334Y-93454226D01*
X135164699Y-93457058D01*
X135164696Y-93457062D01*
X135078259Y-93606778D01*
X135072834Y-93616174D01*
X135015047Y-93794023D01*
X135014705Y-93797279D01*
X134998658Y-93949954D01*
X134983400Y-93978057D01*
X134886265Y-93978057D01*
X134874000Y-93943421D01*
X134874000Y-91476579D01*
X134887996Y-91442791D01*
X134887928Y-91442754D01*
X134886265Y-91438057D01*
X134983400Y-91438057D01*
X134998658Y-91470046D01*
X135015047Y-91625977D01*
X135072834Y-91803826D01*
X135074469Y-91806659D01*
X135074470Y-91806660D01*
X135164696Y-91962938D01*
X135164699Y-91962942D01*
X135166334Y-91965774D01*
X135291463Y-92104743D01*
X135442750Y-92214660D01*
X135613584Y-92290720D01*
X135616791Y-92291402D01*
X135616792Y-92291402D01*
X135793289Y-92328918D01*
X135793292Y-92328918D01*
X135796499Y-92329600D01*
X135983501Y-92329600D01*
X135986708Y-92328918D01*
X135986711Y-92328918D01*
X136163208Y-92291402D01*
X136163209Y-92291402D01*
X136166416Y-92290720D01*
X136337250Y-92214660D01*
X136488537Y-92104743D01*
X136613666Y-91965774D01*
X136615301Y-91962942D01*
X136615304Y-91962938D01*
X136705530Y-91806660D01*
X136705531Y-91806659D01*
X136707166Y-91803826D01*
X136764953Y-91625977D01*
X136784500Y-91440000D01*
X136764953Y-91254023D01*
X136707166Y-91076174D01*
X136691002Y-91048177D01*
X136615304Y-90917062D01*
X136615301Y-90917058D01*
X136613666Y-90914226D01*
X136585427Y-90882863D01*
X136490733Y-90777696D01*
X136490734Y-90777696D01*
X136488537Y-90775257D01*
X136337250Y-90665340D01*
X136166416Y-90589280D01*
X136163209Y-90588598D01*
X136163208Y-90588598D01*
X135986711Y-90551082D01*
X135986708Y-90551082D01*
X135983501Y-90550400D01*
X135796499Y-90550400D01*
X135793292Y-90551082D01*
X135793289Y-90551082D01*
X135616792Y-90588598D01*
X135616791Y-90588598D01*
X135613584Y-90589280D01*
X135442750Y-90665340D01*
X135291463Y-90775257D01*
X135289266Y-90777696D01*
X135289267Y-90777696D01*
X135194574Y-90882863D01*
X135166334Y-90914226D01*
X135164699Y-90917058D01*
X135164696Y-90917062D01*
X135088998Y-91048177D01*
X135072834Y-91076174D01*
X135015047Y-91254023D01*
X135004989Y-91349717D01*
X134998658Y-91409954D01*
X134983400Y-91438057D01*
X134886265Y-91438057D01*
X134874000Y-91403421D01*
X134874000Y-88936579D01*
X134887996Y-88902791D01*
X134887928Y-88902754D01*
X134886265Y-88898057D01*
X134983400Y-88898057D01*
X134998658Y-88930046D01*
X135015047Y-89085977D01*
X135072834Y-89263826D01*
X135074469Y-89266659D01*
X135074470Y-89266660D01*
X135164696Y-89422938D01*
X135164699Y-89422942D01*
X135166334Y-89425774D01*
X135291463Y-89564743D01*
X135442750Y-89674660D01*
X135613584Y-89750720D01*
X135616791Y-89751402D01*
X135616792Y-89751402D01*
X135793289Y-89788918D01*
X135793292Y-89788918D01*
X135796499Y-89789600D01*
X135983501Y-89789600D01*
X135986708Y-89788918D01*
X135986711Y-89788918D01*
X136163208Y-89751402D01*
X136163209Y-89751402D01*
X136166416Y-89750720D01*
X136337250Y-89674660D01*
X136488537Y-89564743D01*
X136613666Y-89425774D01*
X136615301Y-89422942D01*
X136615304Y-89422938D01*
X136705530Y-89266660D01*
X136705531Y-89266659D01*
X136707166Y-89263826D01*
X136764953Y-89085977D01*
X136784500Y-88900000D01*
X136764953Y-88714023D01*
X136707166Y-88536174D01*
X136705530Y-88533340D01*
X136615304Y-88377062D01*
X136615301Y-88377058D01*
X136613666Y-88374226D01*
X136574218Y-88330414D01*
X136490733Y-88237696D01*
X136490734Y-88237696D01*
X136488537Y-88235257D01*
X136337250Y-88125340D01*
X136166416Y-88049280D01*
X136163209Y-88048598D01*
X136163208Y-88048598D01*
X135986711Y-88011082D01*
X135986708Y-88011082D01*
X135983501Y-88010400D01*
X135796499Y-88010400D01*
X135793292Y-88011082D01*
X135793289Y-88011082D01*
X135616792Y-88048598D01*
X135616791Y-88048598D01*
X135613584Y-88049280D01*
X135442750Y-88125340D01*
X135291463Y-88235257D01*
X135289266Y-88237696D01*
X135289267Y-88237696D01*
X135205783Y-88330414D01*
X135166334Y-88374226D01*
X135164699Y-88377058D01*
X135164696Y-88377062D01*
X135074470Y-88533340D01*
X135072834Y-88536174D01*
X135015047Y-88714023D01*
X135014705Y-88717279D01*
X134998658Y-88869954D01*
X134983400Y-88898057D01*
X134886265Y-88898057D01*
X134874000Y-88863421D01*
X134874000Y-86396579D01*
X134887996Y-86362791D01*
X134887928Y-86362754D01*
X134886265Y-86358057D01*
X134983400Y-86358057D01*
X134998658Y-86390046D01*
X135015047Y-86545977D01*
X135072834Y-86723826D01*
X135074469Y-86726659D01*
X135074470Y-86726660D01*
X135164696Y-86882938D01*
X135164699Y-86882942D01*
X135166334Y-86885774D01*
X135168525Y-86888208D01*
X135168527Y-86888210D01*
X135223806Y-86949603D01*
X135291463Y-87024743D01*
X135442750Y-87134660D01*
X135613584Y-87210720D01*
X135616791Y-87211402D01*
X135616792Y-87211402D01*
X135793289Y-87248918D01*
X135793292Y-87248918D01*
X135796499Y-87249600D01*
X135983501Y-87249600D01*
X135986708Y-87248918D01*
X135986711Y-87248918D01*
X136163208Y-87211402D01*
X136163209Y-87211402D01*
X136166416Y-87210720D01*
X136337250Y-87134660D01*
X136488537Y-87024743D01*
X136556194Y-86949603D01*
X136611473Y-86888210D01*
X136611475Y-86888208D01*
X136613666Y-86885774D01*
X136615301Y-86882942D01*
X136615304Y-86882938D01*
X136705530Y-86726660D01*
X136705531Y-86726659D01*
X136707166Y-86723826D01*
X136764953Y-86545977D01*
X136784500Y-86360000D01*
X136764953Y-86174023D01*
X136707166Y-85996174D01*
X136683359Y-85954938D01*
X136615304Y-85837062D01*
X136615301Y-85837058D01*
X136613666Y-85834226D01*
X136595943Y-85814542D01*
X136490733Y-85697696D01*
X136490734Y-85697696D01*
X136488537Y-85695257D01*
X136337250Y-85585340D01*
X136166416Y-85509280D01*
X136163209Y-85508598D01*
X136163208Y-85508598D01*
X135986711Y-85471082D01*
X135986708Y-85471082D01*
X135983501Y-85470400D01*
X135796499Y-85470400D01*
X135793292Y-85471082D01*
X135793289Y-85471082D01*
X135616792Y-85508598D01*
X135616791Y-85508598D01*
X135613584Y-85509280D01*
X135442750Y-85585340D01*
X135291463Y-85695257D01*
X135289266Y-85697696D01*
X135289267Y-85697696D01*
X135184058Y-85814542D01*
X135166334Y-85834226D01*
X135164699Y-85837058D01*
X135164696Y-85837062D01*
X135096641Y-85954938D01*
X135072834Y-85996174D01*
X135015047Y-86174023D01*
X135007108Y-86249561D01*
X134998658Y-86329954D01*
X134983400Y-86358057D01*
X134886265Y-86358057D01*
X134874000Y-86323421D01*
X134874000Y-83856579D01*
X134887996Y-83822791D01*
X134887928Y-83822754D01*
X134886265Y-83818057D01*
X134983400Y-83818057D01*
X134998658Y-83850046D01*
X135015047Y-84005977D01*
X135072834Y-84183826D01*
X135074469Y-84186659D01*
X135074470Y-84186660D01*
X135164696Y-84342938D01*
X135164699Y-84342942D01*
X135166334Y-84345774D01*
X135168525Y-84348208D01*
X135168527Y-84348210D01*
X135235220Y-84422279D01*
X135291463Y-84484743D01*
X135294118Y-84486672D01*
X135295666Y-84487797D01*
X135442750Y-84594660D01*
X135613584Y-84670720D01*
X135616791Y-84671402D01*
X135616792Y-84671402D01*
X135793289Y-84708918D01*
X135793292Y-84708918D01*
X135796499Y-84709600D01*
X135983501Y-84709600D01*
X135986708Y-84708918D01*
X135986711Y-84708918D01*
X136163208Y-84671402D01*
X136163209Y-84671402D01*
X136166416Y-84670720D01*
X136337250Y-84594660D01*
X136484334Y-84487797D01*
X136485882Y-84486672D01*
X136488537Y-84484743D01*
X136544780Y-84422279D01*
X136611473Y-84348210D01*
X136611475Y-84348208D01*
X136613666Y-84345774D01*
X136615301Y-84342942D01*
X136615304Y-84342938D01*
X136705530Y-84186660D01*
X136705531Y-84186659D01*
X136707166Y-84183826D01*
X136764953Y-84005977D01*
X136784500Y-83820000D01*
X136764953Y-83634023D01*
X136707166Y-83456174D01*
X136680138Y-83409360D01*
X136615304Y-83297062D01*
X136615301Y-83297058D01*
X136613666Y-83294226D01*
X136602931Y-83282303D01*
X136509394Y-83178421D01*
X136488537Y-83155257D01*
X136337250Y-83045340D01*
X136166416Y-82969280D01*
X136163209Y-82968598D01*
X136163208Y-82968598D01*
X135986711Y-82931082D01*
X135986708Y-82931082D01*
X135983501Y-82930400D01*
X135796499Y-82930400D01*
X135793292Y-82931082D01*
X135793289Y-82931082D01*
X135616792Y-82968598D01*
X135616791Y-82968598D01*
X135613584Y-82969280D01*
X135442750Y-83045340D01*
X135291463Y-83155257D01*
X135270606Y-83178421D01*
X135177070Y-83282303D01*
X135166334Y-83294226D01*
X135164699Y-83297058D01*
X135164696Y-83297062D01*
X135099862Y-83409360D01*
X135072834Y-83456174D01*
X135015047Y-83634023D01*
X135001649Y-83761500D01*
X134998658Y-83789954D01*
X134983400Y-83818057D01*
X134886265Y-83818057D01*
X134874000Y-83783421D01*
X134874000Y-80072500D01*
X134892306Y-80028306D01*
X134936500Y-80010000D01*
X157163500Y-80010000D01*
X157207694Y-80028306D01*
G37*
%TD.AperFunction*%
%TD*%
M02*
