%TF.GenerationSoftware,KiCad,Pcbnew,5.99.0-unknown-64d35ecebc~127~ubuntu20.04.1*%
%TF.CreationDate,2021-05-01T14:43:11+10:00*%
%TF.ProjectId,bm83-featherwing,626d3833-2d66-4656-9174-68657277696e,rev?*%
%TF.SameCoordinates,Original*%
%TF.FileFunction,Legend,Top*%
%TF.FilePolarity,Positive*%
%FSLAX46Y46*%
G04 Gerber Fmt 4.6, Leading zero omitted, Abs format (unit mm)*
G04 Created by KiCad (PCBNEW 5.99.0-unknown-64d35ecebc~127~ubuntu20.04.1) date 2021-05-01 14:43:11*
%MOMM*%
%LPD*%
G01*
G04 APERTURE LIST*
%ADD10C,0.120000*%
%ADD11C,0.200000*%
%ADD12C,0.150000*%
%ADD13C,0.127000*%
%ADD14C,0.100000*%
G04 APERTURE END LIST*
D10*
X153924000Y-114935000D02*
X153924000Y-116459000D01*
X138684000Y-117983000D02*
X138684000Y-114935000D01*
X147320000Y-116459000D02*
X147320000Y-117983000D01*
X147320000Y-117983000D02*
X138684000Y-117983000D01*
X138684000Y-114935000D02*
X153924000Y-114935000D01*
X153924000Y-116459000D02*
X147320000Y-116459000D01*
D11*
X154320142Y-104954285D02*
X155220142Y-104740000D01*
X154577285Y-104568571D01*
X155220142Y-104397142D01*
X154320142Y-104182857D01*
X155177285Y-103882857D02*
X155220142Y-103754285D01*
X155220142Y-103540000D01*
X155177285Y-103454285D01*
X155134428Y-103411428D01*
X155048714Y-103368571D01*
X154963000Y-103368571D01*
X154877285Y-103411428D01*
X154834428Y-103454285D01*
X154791571Y-103540000D01*
X154748714Y-103711428D01*
X154705857Y-103797142D01*
X154663000Y-103840000D01*
X154577285Y-103882857D01*
X154491571Y-103882857D01*
X154405857Y-103840000D01*
X154363000Y-103797142D01*
X154320142Y-103711428D01*
X154320142Y-103497142D01*
X154363000Y-103368571D01*
X143411714Y-104290000D02*
X143840285Y-104290000D01*
X143326000Y-104547142D02*
X143626000Y-103647142D01*
X143926000Y-104547142D01*
X144226000Y-104547142D02*
X144226000Y-103647142D01*
X144568857Y-103647142D01*
X144654571Y-103690000D01*
X144697428Y-103732857D01*
X144740285Y-103818571D01*
X144740285Y-103947142D01*
X144697428Y-104032857D01*
X144654571Y-104075714D01*
X144568857Y-104118571D01*
X144226000Y-104118571D01*
X145126000Y-104547142D02*
X145126000Y-103647142D01*
X145468857Y-103647142D01*
X145554571Y-103690000D01*
X145597428Y-103732857D01*
X145640285Y-103818571D01*
X145640285Y-103947142D01*
X145597428Y-104032857D01*
X145554571Y-104075714D01*
X145468857Y-104118571D01*
X145126000Y-104118571D01*
X154748714Y-107515714D02*
X154791571Y-107387142D01*
X154834428Y-107344285D01*
X154920142Y-107301428D01*
X155048714Y-107301428D01*
X155134428Y-107344285D01*
X155177285Y-107387142D01*
X155220142Y-107472857D01*
X155220142Y-107815714D01*
X154320142Y-107815714D01*
X154320142Y-107515714D01*
X154363000Y-107430000D01*
X154405857Y-107387142D01*
X154491571Y-107344285D01*
X154577285Y-107344285D01*
X154663000Y-107387142D01*
X154705857Y-107430000D01*
X154748714Y-107515714D01*
X154748714Y-107815714D01*
X155134428Y-106401428D02*
X155177285Y-106444285D01*
X155220142Y-106572857D01*
X155220142Y-106658571D01*
X155177285Y-106787142D01*
X155091571Y-106872857D01*
X155005857Y-106915714D01*
X154834428Y-106958571D01*
X154705857Y-106958571D01*
X154534428Y-106915714D01*
X154448714Y-106872857D01*
X154363000Y-106787142D01*
X154320142Y-106658571D01*
X154320142Y-106572857D01*
X154363000Y-106444285D01*
X154405857Y-106401428D01*
X155220142Y-106015714D02*
X154320142Y-106015714D01*
X155220142Y-105501428D02*
X154705857Y-105887142D01*
X154320142Y-105501428D02*
X154834428Y-106015714D01*
X155220142Y-90100000D02*
X154320142Y-90100000D01*
X154963000Y-89800000D01*
X154320142Y-89500000D01*
X155220142Y-89500000D01*
X155134428Y-88557142D02*
X155177285Y-88600000D01*
X155220142Y-88728571D01*
X155220142Y-88814285D01*
X155177285Y-88942857D01*
X155091571Y-89028571D01*
X155005857Y-89071428D01*
X154834428Y-89114285D01*
X154705857Y-89114285D01*
X154534428Y-89071428D01*
X154448714Y-89028571D01*
X154363000Y-88942857D01*
X154320142Y-88814285D01*
X154320142Y-88728571D01*
X154363000Y-88600000D01*
X154405857Y-88557142D01*
X155220142Y-88171428D02*
X154320142Y-88171428D01*
X155220142Y-87657142D02*
X154705857Y-88042857D01*
X154320142Y-87657142D02*
X154834428Y-88171428D01*
X138754000Y-114199142D02*
X138754000Y-113299142D01*
X139096857Y-113299142D01*
X139182571Y-113342000D01*
X139225428Y-113384857D01*
X139268285Y-113470571D01*
X139268285Y-113599142D01*
X139225428Y-113684857D01*
X139182571Y-113727714D01*
X139096857Y-113770571D01*
X138754000Y-113770571D01*
X139568285Y-113299142D02*
X139782571Y-114199142D01*
X139954000Y-113556285D01*
X140125428Y-114199142D01*
X140339714Y-113299142D01*
X141196857Y-114199142D02*
X140896857Y-113770571D01*
X140682571Y-114199142D02*
X140682571Y-113299142D01*
X141025428Y-113299142D01*
X141111142Y-113342000D01*
X141154000Y-113384857D01*
X141196857Y-113470571D01*
X141196857Y-113599142D01*
X141154000Y-113684857D01*
X141111142Y-113727714D01*
X141025428Y-113770571D01*
X140682571Y-113770571D01*
X136879857Y-100464285D02*
X137779857Y-100464285D01*
X137137000Y-100764285D01*
X137779857Y-101064285D01*
X136879857Y-101064285D01*
X137351285Y-101792857D02*
X137351285Y-101492857D01*
X136879857Y-101492857D02*
X137779857Y-101492857D01*
X137779857Y-101921428D01*
X137351285Y-102564285D02*
X137308428Y-102692857D01*
X137265571Y-102735714D01*
X137179857Y-102778571D01*
X137051285Y-102778571D01*
X136965571Y-102735714D01*
X136922714Y-102692857D01*
X136879857Y-102607142D01*
X136879857Y-102264285D01*
X137779857Y-102264285D01*
X137779857Y-102564285D01*
X137737000Y-102650000D01*
X137694142Y-102692857D01*
X137608428Y-102735714D01*
X137522714Y-102735714D01*
X137437000Y-102692857D01*
X137394142Y-102650000D01*
X137351285Y-102564285D01*
X137351285Y-102264285D01*
D12*
X148014357Y-116782904D02*
X148090547Y-116782904D01*
X148166738Y-116821000D01*
X148204833Y-116859095D01*
X148242928Y-116935285D01*
X148281023Y-117087666D01*
X148281023Y-117278142D01*
X148242928Y-117430523D01*
X148204833Y-117506714D01*
X148166738Y-117544809D01*
X148090547Y-117582904D01*
X148014357Y-117582904D01*
X147938166Y-117544809D01*
X147900071Y-117506714D01*
X147861976Y-117430523D01*
X147823880Y-117278142D01*
X147823880Y-117087666D01*
X147861976Y-116935285D01*
X147900071Y-116859095D01*
X147938166Y-116821000D01*
X148014357Y-116782904D01*
X149004833Y-116782904D02*
X148623880Y-116782904D01*
X148585785Y-117163857D01*
X148623880Y-117125761D01*
X148700071Y-117087666D01*
X148890547Y-117087666D01*
X148966738Y-117125761D01*
X149004833Y-117163857D01*
X149042928Y-117240047D01*
X149042928Y-117430523D01*
X149004833Y-117506714D01*
X148966738Y-117544809D01*
X148890547Y-117582904D01*
X148700071Y-117582904D01*
X148623880Y-117544809D01*
X148585785Y-117506714D01*
X149957214Y-116744809D02*
X149271500Y-117773380D01*
X150185785Y-116859095D02*
X150223880Y-116821000D01*
X150300071Y-116782904D01*
X150490547Y-116782904D01*
X150566738Y-116821000D01*
X150604833Y-116859095D01*
X150642928Y-116935285D01*
X150642928Y-117011476D01*
X150604833Y-117125761D01*
X150147690Y-117582904D01*
X150642928Y-117582904D01*
X151138166Y-116782904D02*
X151214357Y-116782904D01*
X151290547Y-116821000D01*
X151328642Y-116859095D01*
X151366738Y-116935285D01*
X151404833Y-117087666D01*
X151404833Y-117278142D01*
X151366738Y-117430523D01*
X151328642Y-117506714D01*
X151290547Y-117544809D01*
X151214357Y-117582904D01*
X151138166Y-117582904D01*
X151061976Y-117544809D01*
X151023880Y-117506714D01*
X150985785Y-117430523D01*
X150947690Y-117278142D01*
X150947690Y-117087666D01*
X150985785Y-116935285D01*
X151023880Y-116859095D01*
X151061976Y-116821000D01*
X151138166Y-116782904D01*
X151709595Y-116859095D02*
X151747690Y-116821000D01*
X151823880Y-116782904D01*
X152014357Y-116782904D01*
X152090547Y-116821000D01*
X152128642Y-116859095D01*
X152166738Y-116935285D01*
X152166738Y-117011476D01*
X152128642Y-117125761D01*
X151671500Y-117582904D01*
X152166738Y-117582904D01*
X152928642Y-117582904D02*
X152471500Y-117582904D01*
X152700071Y-117582904D02*
X152700071Y-116782904D01*
X152623880Y-116897190D01*
X152547690Y-116973380D01*
X152471500Y-117011476D01*
D11*
X136879857Y-96370000D02*
X137308428Y-96070000D01*
X136879857Y-95855714D02*
X137779857Y-95855714D01*
X137779857Y-96198571D01*
X137737000Y-96284285D01*
X137694142Y-96327142D01*
X137608428Y-96370000D01*
X137479857Y-96370000D01*
X137394142Y-96327142D01*
X137351285Y-96284285D01*
X137308428Y-96198571D01*
X137308428Y-95855714D01*
X137779857Y-96670000D02*
X136879857Y-97270000D01*
X137779857Y-97270000D02*
X136879857Y-96670000D01*
X148605142Y-114199142D02*
X148305142Y-113770571D01*
X148090857Y-114199142D02*
X148090857Y-113299142D01*
X148433714Y-113299142D01*
X148519428Y-113342000D01*
X148562285Y-113384857D01*
X148605142Y-113470571D01*
X148605142Y-113599142D01*
X148562285Y-113684857D01*
X148519428Y-113727714D01*
X148433714Y-113770571D01*
X148090857Y-113770571D01*
X148948000Y-114156285D02*
X149076571Y-114199142D01*
X149290857Y-114199142D01*
X149376571Y-114156285D01*
X149419428Y-114113428D01*
X149462285Y-114027714D01*
X149462285Y-113942000D01*
X149419428Y-113856285D01*
X149376571Y-113813428D01*
X149290857Y-113770571D01*
X149119428Y-113727714D01*
X149033714Y-113684857D01*
X148990857Y-113642000D01*
X148948000Y-113556285D01*
X148948000Y-113470571D01*
X148990857Y-113384857D01*
X149033714Y-113342000D01*
X149119428Y-113299142D01*
X149333714Y-113299142D01*
X149462285Y-113342000D01*
X149719428Y-113299142D02*
X150233714Y-113299142D01*
X149976571Y-114199142D02*
X149976571Y-113299142D01*
X137779857Y-98374285D02*
X137779857Y-98888571D01*
X136879857Y-98631428D02*
X137779857Y-98631428D01*
X137779857Y-99102857D02*
X136879857Y-99702857D01*
X137779857Y-99702857D02*
X136879857Y-99102857D01*
X155220142Y-102307142D02*
X154320142Y-102307142D01*
X154320142Y-102092857D01*
X154363000Y-101964285D01*
X154448714Y-101878571D01*
X154534428Y-101835714D01*
X154705857Y-101792857D01*
X154834428Y-101792857D01*
X155005857Y-101835714D01*
X155091571Y-101878571D01*
X155177285Y-101964285D01*
X155220142Y-102092857D01*
X155220142Y-102307142D01*
X154320142Y-101235714D02*
X154320142Y-101064285D01*
X154363000Y-100978571D01*
X154448714Y-100892857D01*
X154620142Y-100850000D01*
X154920142Y-100850000D01*
X155091571Y-100892857D01*
X155177285Y-100978571D01*
X155220142Y-101064285D01*
X155220142Y-101235714D01*
X155177285Y-101321428D01*
X155091571Y-101407142D01*
X154920142Y-101450000D01*
X154620142Y-101450000D01*
X154448714Y-101407142D01*
X154363000Y-101321428D01*
X154320142Y-101235714D01*
X143090285Y-112283142D02*
X143604571Y-112283142D01*
X143347428Y-113183142D02*
X143347428Y-112283142D01*
X143904571Y-112711714D02*
X144204571Y-112711714D01*
X144333142Y-113183142D02*
X143904571Y-113183142D01*
X143904571Y-112283142D01*
X144333142Y-112283142D01*
X144676000Y-113140285D02*
X144804571Y-113183142D01*
X145018857Y-113183142D01*
X145104571Y-113140285D01*
X145147428Y-113097428D01*
X145190285Y-113011714D01*
X145190285Y-112926000D01*
X145147428Y-112840285D01*
X145104571Y-112797428D01*
X145018857Y-112754571D01*
X144847428Y-112711714D01*
X144761714Y-112668857D01*
X144718857Y-112626000D01*
X144676000Y-112540285D01*
X144676000Y-112454571D01*
X144718857Y-112368857D01*
X144761714Y-112326000D01*
X144847428Y-112283142D01*
X145061714Y-112283142D01*
X145190285Y-112326000D01*
X145447428Y-112283142D02*
X145961714Y-112283142D01*
X145704571Y-113183142D02*
X145704571Y-112283142D01*
X139455285Y-115670214D02*
X139583857Y-115713071D01*
X139626714Y-115755928D01*
X139669571Y-115841642D01*
X139669571Y-115970214D01*
X139626714Y-116055928D01*
X139583857Y-116098785D01*
X139498142Y-116141642D01*
X139155285Y-116141642D01*
X139155285Y-115241642D01*
X139455285Y-115241642D01*
X139541000Y-115284500D01*
X139583857Y-115327357D01*
X139626714Y-115413071D01*
X139626714Y-115498785D01*
X139583857Y-115584500D01*
X139541000Y-115627357D01*
X139455285Y-115670214D01*
X139155285Y-115670214D01*
X140055285Y-116141642D02*
X140055285Y-115241642D01*
X140355285Y-115884500D01*
X140655285Y-115241642D01*
X140655285Y-116141642D01*
X141212428Y-115627357D02*
X141126714Y-115584500D01*
X141083857Y-115541642D01*
X141041000Y-115455928D01*
X141041000Y-115413071D01*
X141083857Y-115327357D01*
X141126714Y-115284500D01*
X141212428Y-115241642D01*
X141383857Y-115241642D01*
X141469571Y-115284500D01*
X141512428Y-115327357D01*
X141555285Y-115413071D01*
X141555285Y-115455928D01*
X141512428Y-115541642D01*
X141469571Y-115584500D01*
X141383857Y-115627357D01*
X141212428Y-115627357D01*
X141126714Y-115670214D01*
X141083857Y-115713071D01*
X141041000Y-115798785D01*
X141041000Y-115970214D01*
X141083857Y-116055928D01*
X141126714Y-116098785D01*
X141212428Y-116141642D01*
X141383857Y-116141642D01*
X141469571Y-116098785D01*
X141512428Y-116055928D01*
X141555285Y-115970214D01*
X141555285Y-115798785D01*
X141512428Y-115713071D01*
X141469571Y-115670214D01*
X141383857Y-115627357D01*
X141855285Y-115241642D02*
X142412428Y-115241642D01*
X142112428Y-115584500D01*
X142241000Y-115584500D01*
X142326714Y-115627357D01*
X142369571Y-115670214D01*
X142412428Y-115755928D01*
X142412428Y-115970214D01*
X142369571Y-116055928D01*
X142326714Y-116098785D01*
X142241000Y-116141642D01*
X141983857Y-116141642D01*
X141898142Y-116098785D01*
X141855285Y-116055928D01*
X143783857Y-115670214D02*
X143912428Y-115713071D01*
X143955285Y-115755928D01*
X143998142Y-115841642D01*
X143998142Y-115970214D01*
X143955285Y-116055928D01*
X143912428Y-116098785D01*
X143826714Y-116141642D01*
X143483857Y-116141642D01*
X143483857Y-115241642D01*
X143783857Y-115241642D01*
X143869571Y-115284500D01*
X143912428Y-115327357D01*
X143955285Y-115413071D01*
X143955285Y-115498785D01*
X143912428Y-115584500D01*
X143869571Y-115627357D01*
X143783857Y-115670214D01*
X143483857Y-115670214D01*
X144812428Y-116141642D02*
X144383857Y-116141642D01*
X144383857Y-115241642D01*
X145112428Y-115241642D02*
X145112428Y-115970214D01*
X145155285Y-116055928D01*
X145198142Y-116098785D01*
X145283857Y-116141642D01*
X145455285Y-116141642D01*
X145541000Y-116098785D01*
X145583857Y-116055928D01*
X145626714Y-115970214D01*
X145626714Y-115241642D01*
X146055285Y-115670214D02*
X146355285Y-115670214D01*
X146483857Y-116141642D02*
X146055285Y-116141642D01*
X146055285Y-115241642D01*
X146483857Y-115241642D01*
X146741000Y-115241642D02*
X147255285Y-115241642D01*
X146998142Y-116141642D02*
X146998142Y-115241642D01*
X147726714Y-115241642D02*
X147898142Y-115241642D01*
X147983857Y-115284500D01*
X148069571Y-115370214D01*
X148112428Y-115541642D01*
X148112428Y-115841642D01*
X148069571Y-116013071D01*
X147983857Y-116098785D01*
X147898142Y-116141642D01*
X147726714Y-116141642D01*
X147641000Y-116098785D01*
X147555285Y-116013071D01*
X147512428Y-115841642D01*
X147512428Y-115541642D01*
X147555285Y-115370214D01*
X147641000Y-115284500D01*
X147726714Y-115241642D01*
X148669571Y-115241642D02*
X148841000Y-115241642D01*
X148926714Y-115284500D01*
X149012428Y-115370214D01*
X149055285Y-115541642D01*
X149055285Y-115841642D01*
X149012428Y-116013071D01*
X148926714Y-116098785D01*
X148841000Y-116141642D01*
X148669571Y-116141642D01*
X148583857Y-116098785D01*
X148498142Y-116013071D01*
X148455285Y-115841642D01*
X148455285Y-115541642D01*
X148498142Y-115370214D01*
X148583857Y-115284500D01*
X148669571Y-115241642D01*
X149312428Y-115241642D02*
X149826714Y-115241642D01*
X149569571Y-116141642D02*
X149569571Y-115241642D01*
X150126714Y-116141642D02*
X150126714Y-115241642D01*
X150126714Y-115670214D02*
X150641000Y-115670214D01*
X150641000Y-116141642D02*
X150641000Y-115241642D01*
X152183857Y-115241642D02*
X151755285Y-115241642D01*
X151712428Y-115670214D01*
X151755285Y-115627357D01*
X151841000Y-115584500D01*
X152055285Y-115584500D01*
X152141000Y-115627357D01*
X152183857Y-115670214D01*
X152226714Y-115755928D01*
X152226714Y-115970214D01*
X152183857Y-116055928D01*
X152141000Y-116098785D01*
X152055285Y-116141642D01*
X151841000Y-116141642D01*
X151755285Y-116098785D01*
X151712428Y-116055928D01*
X152612428Y-116055928D02*
X152655285Y-116098785D01*
X152612428Y-116141642D01*
X152569571Y-116098785D01*
X152612428Y-116055928D01*
X152612428Y-116141642D01*
X153212428Y-115241642D02*
X153298142Y-115241642D01*
X153383857Y-115284500D01*
X153426714Y-115327357D01*
X153469571Y-115413071D01*
X153512428Y-115584500D01*
X153512428Y-115798785D01*
X153469571Y-115970214D01*
X153426714Y-116055928D01*
X153383857Y-116098785D01*
X153298142Y-116141642D01*
X153212428Y-116141642D01*
X153126714Y-116098785D01*
X153083857Y-116055928D01*
X153041000Y-115970214D01*
X152998142Y-115798785D01*
X152998142Y-115584500D01*
X153041000Y-115413071D01*
X153083857Y-115327357D01*
X153126714Y-115284500D01*
X153212428Y-115241642D01*
X139112428Y-117333500D02*
X139541000Y-117333500D01*
X139026714Y-117590642D02*
X139326714Y-116690642D01*
X139626714Y-117590642D01*
X139926714Y-116690642D02*
X139926714Y-117419214D01*
X139969571Y-117504928D01*
X140012428Y-117547785D01*
X140098142Y-117590642D01*
X140269571Y-117590642D01*
X140355285Y-117547785D01*
X140398142Y-117504928D01*
X140441000Y-117419214D01*
X140441000Y-116690642D01*
X140869571Y-117590642D02*
X140869571Y-116690642D01*
X141083857Y-116690642D01*
X141212428Y-116733500D01*
X141298142Y-116819214D01*
X141341000Y-116904928D01*
X141383857Y-117076357D01*
X141383857Y-117204928D01*
X141341000Y-117376357D01*
X141298142Y-117462071D01*
X141212428Y-117547785D01*
X141083857Y-117590642D01*
X140869571Y-117590642D01*
X141769571Y-117590642D02*
X141769571Y-116690642D01*
X142369571Y-116690642D02*
X142541000Y-116690642D01*
X142626714Y-116733500D01*
X142712428Y-116819214D01*
X142755285Y-116990642D01*
X142755285Y-117290642D01*
X142712428Y-117462071D01*
X142626714Y-117547785D01*
X142541000Y-117590642D01*
X142369571Y-117590642D01*
X142283857Y-117547785D01*
X142198142Y-117462071D01*
X142155285Y-117290642D01*
X142155285Y-116990642D01*
X142198142Y-116819214D01*
X142283857Y-116733500D01*
X142369571Y-116690642D01*
X143741000Y-116690642D02*
X143955285Y-117590642D01*
X144126714Y-116947785D01*
X144298142Y-117590642D01*
X144512428Y-116690642D01*
X144855285Y-117590642D02*
X144855285Y-116690642D01*
X145283857Y-117590642D02*
X145283857Y-116690642D01*
X145798142Y-117590642D01*
X145798142Y-116690642D01*
X146698142Y-116733500D02*
X146612428Y-116690642D01*
X146483857Y-116690642D01*
X146355285Y-116733500D01*
X146269571Y-116819214D01*
X146226714Y-116904928D01*
X146183857Y-117076357D01*
X146183857Y-117204928D01*
X146226714Y-117376357D01*
X146269571Y-117462071D01*
X146355285Y-117547785D01*
X146483857Y-117590642D01*
X146569571Y-117590642D01*
X146698142Y-117547785D01*
X146741000Y-117504928D01*
X146741000Y-117204928D01*
X146569571Y-117204928D01*
%TO.C,D1*%
X142057380Y-120626095D02*
X141057380Y-120626095D01*
X141057380Y-120388000D01*
X141105000Y-120245142D01*
X141200238Y-120149904D01*
X141295476Y-120102285D01*
X141485952Y-120054666D01*
X141628809Y-120054666D01*
X141819285Y-120102285D01*
X141914523Y-120149904D01*
X142009761Y-120245142D01*
X142057380Y-120388000D01*
X142057380Y-120626095D01*
X142057380Y-119102285D02*
X142057380Y-119673714D01*
X142057380Y-119388000D02*
X141057380Y-119388000D01*
X141200238Y-119483238D01*
X141295476Y-119578476D01*
X141343095Y-119673714D01*
%TO.C,C2*%
X152820761Y-123388380D02*
X152249333Y-123388380D01*
X152535047Y-123388380D02*
X152535047Y-122388380D01*
X152439809Y-122531238D01*
X152344571Y-122626476D01*
X152249333Y-122674095D01*
X153677904Y-122721714D02*
X153677904Y-123388380D01*
X153249333Y-122721714D02*
X153249333Y-123245523D01*
X153296952Y-123340761D01*
X153392190Y-123388380D01*
X153535047Y-123388380D01*
X153630285Y-123340761D01*
X153677904Y-123293142D01*
X154487428Y-122864571D02*
X154154095Y-122864571D01*
X154154095Y-123388380D02*
X154154095Y-122388380D01*
X154630285Y-122388380D01*
%TO.C,D2*%
X151836380Y-120626095D02*
X150836380Y-120626095D01*
X150836380Y-120388000D01*
X150884000Y-120245142D01*
X150979238Y-120149904D01*
X151074476Y-120102285D01*
X151264952Y-120054666D01*
X151407809Y-120054666D01*
X151598285Y-120102285D01*
X151693523Y-120149904D01*
X151788761Y-120245142D01*
X151836380Y-120388000D01*
X151836380Y-120626095D01*
X150931619Y-119673714D02*
X150884000Y-119626095D01*
X150836380Y-119530857D01*
X150836380Y-119292761D01*
X150884000Y-119197523D01*
X150931619Y-119149904D01*
X151026857Y-119102285D01*
X151122095Y-119102285D01*
X151264952Y-119149904D01*
X151836380Y-119721333D01*
X151836380Y-119102285D01*
%TO.C,*%
D10*
%TO.C,D5*%
X154122000Y-112096000D02*
X154122000Y-109236000D01*
X152202000Y-112096000D02*
X154122000Y-112096000D01*
X152202000Y-109236000D02*
X152202000Y-112096000D01*
D13*
%TO.C,J3*%
X141834000Y-124249000D02*
X141834000Y-125014000D01*
X150774000Y-128074000D02*
X150774000Y-128494000D01*
X141834000Y-128494000D02*
X141834000Y-128074000D01*
X150774000Y-124249000D02*
X150774000Y-125014000D01*
X150774000Y-128494000D02*
X141834000Y-128494000D01*
D11*
X143304000Y-120944000D02*
G75*
G03*
X143304000Y-120944000I-100000J0D01*
G01*
D10*
%TO.C,U1*%
X138557000Y-70366000D02*
X153557000Y-70366000D01*
X153557000Y-102366000D02*
X138557000Y-102366000D01*
X138557000Y-75696000D02*
X138557000Y-70366000D01*
X153557000Y-70366000D02*
X153557000Y-102366000D01*
X138557000Y-102366000D02*
X138557000Y-76966000D01*
X138557000Y-76966000D02*
G75*
G03*
X138557000Y-75696000I0J635000D01*
G01*
%TO.C,SW3*%
X145206000Y-105118000D02*
X145206000Y-105697000D01*
X143906000Y-111218000D02*
X143196000Y-111218000D01*
X143906000Y-105697000D02*
X143196000Y-105697000D01*
X145856000Y-111218000D02*
X145146000Y-111218000D01*
X145856000Y-105697000D02*
X145206000Y-105697000D01*
X145856000Y-105697000D02*
X145856000Y-111218000D01*
X143196000Y-105697000D02*
X143196000Y-111218000D01*
%TO.C,D1*%
X142372000Y-119038000D02*
X145522000Y-119038000D01*
X142372000Y-120738000D02*
X145522000Y-120738000D01*
X142372000Y-119038000D02*
X142372000Y-120738000D01*
D14*
%TO.C,SW1*%
X147248000Y-105154000D02*
X150948000Y-105154000D01*
X147248000Y-111254000D02*
X147248000Y-105154000D01*
X150948000Y-111254000D02*
X147248000Y-111254000D01*
X150948000Y-105154000D02*
X150948000Y-111254000D01*
D10*
X149352000Y-110744000D02*
G75*
G03*
X149352000Y-110744000I-254000J0D01*
G01*
%TO.C,D4*%
X154122000Y-107163000D02*
X154122000Y-104303000D01*
X154122000Y-104303000D02*
X152202000Y-104303000D01*
X152202000Y-104303000D02*
X152202000Y-107163000D01*
%TO.C,C2*%
X152681000Y-120134748D02*
X152681000Y-120657252D01*
X154151000Y-120134748D02*
X154151000Y-120657252D01*
%TO.C,D2*%
X150490000Y-120738000D02*
X150490000Y-119038000D01*
X150490000Y-120738000D02*
X147340000Y-120738000D01*
X150490000Y-119038000D02*
X147340000Y-119038000D01*
D14*
%TO.C,SW2*%
X141804000Y-105154000D02*
X141804000Y-111254000D01*
X138104000Y-111254000D02*
X138104000Y-105154000D01*
X141804000Y-111254000D02*
X138104000Y-111254000D01*
X138104000Y-105154000D02*
X141804000Y-105154000D01*
D10*
X140208000Y-105664000D02*
G75*
G03*
X140208000Y-105664000I-254000J0D01*
G01*
%TD*%
M02*
