%TF.GenerationSoftware,KiCad,Pcbnew,5.99.0-unknown-64d35ecebc~127~ubuntu20.04.1*%
%TF.CreationDate,2021-05-01T12:49:23+10:00*%
%TF.ProjectId,bm83-featherwing,626d3833-2d66-4656-9174-68657277696e,rev?*%
%TF.SameCoordinates,Original*%
%TF.FileFunction,Paste,Top*%
%TF.FilePolarity,Positive*%
%FSLAX46Y46*%
G04 Gerber Fmt 4.6, Leading zero omitted, Abs format (unit mm)*
G04 Created by KiCad (PCBNEW 5.99.0-unknown-64d35ecebc~127~ubuntu20.04.1) date 2021-05-01 12:49:23*
%MOMM*%
%LPD*%
G01*
G04 APERTURE LIST*
G04 Aperture macros list*
%AMRoundRect*
0 Rectangle with rounded corners*
0 $1 Rounding radius*
0 $2 $3 $4 $5 $6 $7 $8 $9 X,Y pos of 4 corners*
0 Add a 4 corners polygon primitive as box body*
4,1,4,$2,$3,$4,$5,$6,$7,$8,$9,$2,$3,0*
0 Add four circle primitives for the rounded corners*
1,1,$1+$1,$2,$3*
1,1,$1+$1,$4,$5*
1,1,$1+$1,$6,$7*
1,1,$1+$1,$8,$9*
0 Add four rect primitives between the rounded corners*
20,1,$1+$1,$2,$3,$4,$5,0*
20,1,$1+$1,$4,$5,$6,$7,0*
20,1,$1+$1,$6,$7,$8,$9,0*
20,1,$1+$1,$8,$9,$2,$3,0*%
G04 Aperture macros list end*
%ADD10RoundRect,0.250000X0.450000X-0.325000X0.450000X0.325000X-0.450000X0.325000X-0.450000X-0.325000X0*%
%ADD11R,0.520000X1.000000*%
%ADD12R,0.270000X1.000000*%
%ADD13R,1.000000X2.000000*%
%ADD14R,1.500000X0.600000*%
%ADD15R,0.600000X1.500000*%
%ADD16R,1.780000X1.780000*%
%ADD17R,2.790000X0.760000*%
%ADD18R,0.760000X1.600000*%
%ADD19R,1.000000X1.000000*%
%ADD20R,1.250000X1.000000*%
%ADD21RoundRect,0.250000X-0.450000X0.325000X-0.450000X-0.325000X0.450000X-0.325000X0.450000X0.325000X0*%
%ADD22RoundRect,0.250000X-0.475000X0.337500X-0.475000X-0.337500X0.475000X-0.337500X0.475000X0.337500X0*%
G04 APERTURE END LIST*
D10*
%TO.C,D5*%
X153162000Y-111261000D03*
X153162000Y-109211000D03*
%TD*%
D11*
%TO.C,J3*%
X143204000Y-122344000D03*
X143954000Y-122344000D03*
D12*
X144554000Y-122344000D03*
X145054000Y-122344000D03*
X145554000Y-122344000D03*
X146054000Y-122344000D03*
X146554000Y-122344000D03*
X147054000Y-122344000D03*
X147554000Y-122344000D03*
X148054000Y-122344000D03*
D11*
X148654000Y-122344000D03*
X149404000Y-122344000D03*
D13*
X144904000Y-126544000D03*
X147704000Y-126544000D03*
%TD*%
D14*
%TO.C,U1*%
X138807000Y-81466000D03*
X138807000Y-82466000D03*
X138807000Y-83466000D03*
X138807000Y-84466000D03*
X138807000Y-85466000D03*
X138807000Y-86466000D03*
X138807000Y-87466000D03*
X138807000Y-88466000D03*
X138807000Y-89466000D03*
X138807000Y-90466000D03*
X138807000Y-91466000D03*
X138807000Y-92466000D03*
X138807000Y-93466000D03*
X138807000Y-94466000D03*
X138807000Y-95466000D03*
X138807000Y-96466000D03*
X138807000Y-97466000D03*
X138807000Y-98466000D03*
X138807000Y-99466000D03*
X138807000Y-100466000D03*
D15*
X141557000Y-102116000D03*
X142557000Y-102116000D03*
X143557000Y-102116000D03*
X144557000Y-102116000D03*
X145557000Y-102116000D03*
X146557000Y-102116000D03*
X147557000Y-102116000D03*
X148557000Y-102116000D03*
X149557000Y-102116000D03*
X150557000Y-102116000D03*
D14*
X153307000Y-100466000D03*
X153307000Y-99466000D03*
X153307000Y-98466000D03*
X153307000Y-97466000D03*
X153307000Y-96466000D03*
X153307000Y-95466000D03*
X153307000Y-94466000D03*
X153307000Y-93466000D03*
X153307000Y-92466000D03*
X153307000Y-91466000D03*
X153307000Y-90466000D03*
X153307000Y-89466000D03*
X153307000Y-88466000D03*
X153307000Y-87466000D03*
X153307000Y-86466000D03*
X153307000Y-85466000D03*
X153307000Y-84466000D03*
X153307000Y-83466000D03*
X153307000Y-82466000D03*
X153307000Y-81466000D03*
D16*
X150827000Y-91896000D03*
D17*
X142767000Y-81786000D03*
%TD*%
D18*
%TO.C,SW3*%
X144526000Y-105918000D03*
X144526000Y-110998000D03*
%TD*%
D19*
%TO.C,D1*%
X143022000Y-119888000D03*
X145522000Y-119888000D03*
%TD*%
D20*
%TO.C,SW1*%
X149098000Y-112079000D03*
X149098000Y-104329000D03*
%TD*%
D21*
%TO.C,D4*%
X153162000Y-105138000D03*
X153162000Y-107188000D03*
%TD*%
D22*
%TO.C,C2*%
X153416000Y-119358500D03*
X153416000Y-121433500D03*
%TD*%
D19*
%TO.C,D2*%
X149840000Y-119888000D03*
X147340000Y-119888000D03*
%TD*%
D20*
%TO.C,SW2*%
X139954000Y-104329000D03*
X139954000Y-112079000D03*
%TD*%
M02*
