%TF.GenerationSoftware,KiCad,Pcbnew,5.99.0-unknown-64d35ecebc~127~ubuntu20.04.1*%
%TF.CreationDate,2021-05-01T12:49:23+10:00*%
%TF.ProjectId,bm83-featherwing,626d3833-2d66-4656-9174-68657277696e,rev?*%
%TF.SameCoordinates,Original*%
%TF.FileFunction,Soldermask,Bot*%
%TF.FilePolarity,Negative*%
%FSLAX46Y46*%
G04 Gerber Fmt 4.6, Leading zero omitted, Abs format (unit mm)*
G04 Created by KiCad (PCBNEW 5.99.0-unknown-64d35ecebc~127~ubuntu20.04.1) date 2021-05-01 12:49:23*
%MOMM*%
%LPD*%
G01*
G04 APERTURE LIST*
G04 Aperture macros list*
%AMRoundRect*
0 Rectangle with rounded corners*
0 $1 Rounding radius*
0 $2 $3 $4 $5 $6 $7 $8 $9 X,Y pos of 4 corners*
0 Add a 4 corners polygon primitive as box body*
4,1,4,$2,$3,$4,$5,$6,$7,$8,$9,$2,$3,0*
0 Add four circle primitives for the rounded corners*
1,1,$1+$1,$2,$3*
1,1,$1+$1,$4,$5*
1,1,$1+$1,$6,$7*
1,1,$1+$1,$8,$9*
0 Add four rect primitives between the rounded corners*
20,1,$1+$1,$2,$3,$4,$5,0*
20,1,$1+$1,$4,$5,$6,$7,0*
20,1,$1+$1,$6,$7,$8,$9,0*
20,1,$1+$1,$8,$9,$2,$3,0*%
G04 Aperture macros list end*
%ADD10C,1.270000*%
%ADD11C,0.630000*%
%ADD12C,0.600000*%
%ADD13O,1.158000X2.316000*%
%ADD14O,1.200000X2.400000*%
%ADD15C,4.700000*%
%ADD16C,2.700000*%
%ADD17RoundRect,0.250000X0.337500X0.475000X-0.337500X0.475000X-0.337500X-0.475000X0.337500X-0.475000X0*%
%ADD18RoundRect,0.250000X0.475000X-0.337500X0.475000X0.337500X-0.475000X0.337500X-0.475000X-0.337500X0*%
%ADD19RoundRect,0.250000X-0.350000X-0.450000X0.350000X-0.450000X0.350000X0.450000X-0.350000X0.450000X0*%
%ADD20RoundRect,0.250000X-0.450000X0.350000X-0.450000X-0.350000X0.450000X-0.350000X0.450000X0.350000X0*%
%ADD21RoundRect,0.250000X0.450000X-0.350000X0.450000X0.350000X-0.450000X0.350000X-0.450000X-0.350000X0*%
%ADD22R,3.500000X2.300000*%
G04 APERTURE END LIST*
D10*
%TO.C,J1*%
X135890000Y-111760000D03*
X135890000Y-109220000D03*
X135890000Y-106680000D03*
X135890000Y-104140000D03*
X135890000Y-101600000D03*
X135890000Y-99060000D03*
X135890000Y-96520000D03*
X135890000Y-93980000D03*
X135890000Y-91440000D03*
X135890000Y-88900000D03*
X135890000Y-86360000D03*
X135890000Y-83820000D03*
%TD*%
D11*
%TO.C,J3*%
X143304000Y-123444000D03*
D12*
X149304000Y-123444000D03*
D11*
X149304000Y-123444000D03*
D13*
X141984000Y-122719000D03*
X150624000Y-122719000D03*
D14*
X141984000Y-126544000D03*
X150624000Y-126544000D03*
%TD*%
D10*
%TO.C,J2*%
X156210000Y-83820000D03*
X156210000Y-86360000D03*
X156210000Y-88900000D03*
X156210000Y-91440000D03*
X156210000Y-93980000D03*
X156210000Y-96520000D03*
X156210000Y-99060000D03*
X156210000Y-101600000D03*
X156210000Y-104140000D03*
X156210000Y-106680000D03*
X156210000Y-109220000D03*
X156210000Y-111760000D03*
X156210000Y-114300000D03*
X156210000Y-116840000D03*
X156210000Y-119380000D03*
X156210000Y-121920000D03*
%TD*%
D15*
%TO.C,REF\u002A\u002A*%
X137160000Y-125730000D03*
%TD*%
D16*
%TO.C,REF\u002A\u002A*%
X154940000Y-72390000D03*
%TD*%
%TO.C,REF\u002A\u002A*%
X137160000Y-72390000D03*
%TD*%
D15*
%TO.C,*%
X154940000Y-125730000D03*
%TD*%
D17*
%TO.C,C1*%
X147341500Y-121412000D03*
X145266500Y-121412000D03*
%TD*%
D18*
%TO.C,C4*%
X143510000Y-98827500D03*
X143510000Y-96752500D03*
%TD*%
D19*
%TO.C,R3*%
X149114000Y-87376000D03*
X151114000Y-87376000D03*
%TD*%
D20*
%TO.C,R1*%
X152400000Y-117364000D03*
X152400000Y-119364000D03*
%TD*%
D18*
%TO.C,C3*%
X146050000Y-98827500D03*
X146050000Y-96752500D03*
%TD*%
D21*
%TO.C,R2*%
X140192000Y-119380000D03*
X140192000Y-117380000D03*
%TD*%
D22*
%TO.C,D3*%
X149004000Y-117856000D03*
X143604000Y-117856000D03*
%TD*%
M02*
