%TF.GenerationSoftware,KiCad,Pcbnew,5.99.0-unknown-fc7f1d1d86~106~ubuntu20.04.1*%
%TF.CreationDate,2021-01-14T15:04:19+11:00*%
%TF.ProjectId,esp32-s2-feather,65737033-322d-4733-922d-666561746865,rev?*%
%TF.SameCoordinates,Original*%
%TF.FileFunction,Soldermask,Top*%
%TF.FilePolarity,Negative*%
%FSLAX46Y46*%
G04 Gerber Fmt 4.6, Leading zero omitted, Abs format (unit mm)*
G04 Created by KiCad (PCBNEW 5.99.0-unknown-fc7f1d1d86~106~ubuntu20.04.1) date 2021-01-14 15:04:19*
%MOMM*%
%LPD*%
G01*
G04 APERTURE LIST*
G04 Aperture macros list*
%AMRoundRect*
0 Rectangle with rounded corners*
0 $1 Rounding radius*
0 $2 $3 $4 $5 $6 $7 $8 $9 X,Y pos of 4 corners*
0 Add a 4 corners polygon primitive as box body*
4,1,4,$2,$3,$4,$5,$6,$7,$8,$9,$2,$3,0*
0 Add four circle primitives for the rounded corners*
1,1,$1+$1,$2,$3,0*
1,1,$1+$1,$4,$5,0*
1,1,$1+$1,$6,$7,0*
1,1,$1+$1,$8,$9,0*
0 Add four rect primitives between the rounded corners*
20,1,$1+$1,$2,$3,$4,$5,0*
20,1,$1+$1,$4,$5,$6,$7,0*
20,1,$1+$1,$6,$7,$8,$9,0*
20,1,$1+$1,$8,$9,$2,$3,0*%
G04 Aperture macros list end*
%ADD10C,4.500000*%
%ADD11RoundRect,0.250000X-1.500000X0.250000X-1.500000X-0.250000X1.500000X-0.250000X1.500000X0.250000X0*%
%ADD12RoundRect,0.250001X-1.449999X0.499999X-1.449999X-0.499999X1.449999X-0.499999X1.449999X0.499999X0*%
%ADD13R,0.520000X1.000000*%
%ADD14R,0.270000X1.000000*%
%ADD15C,0.600000*%
%ADD16C,0.630000*%
%ADD17R,1.000000X2.000000*%
%ADD18O,1.158000X2.316000*%
%ADD19O,1.200000X2.400000*%
%ADD20R,1.250000X1.000000*%
%ADD21R,1.200000X0.900000*%
%ADD22R,0.900000X1.500000*%
%ADD23R,1.100000X1.100000*%
%ADD24C,0.400000*%
%ADD25C,1.270000*%
%ADD26RoundRect,0.250000X-0.325000X-0.450000X0.325000X-0.450000X0.325000X0.450000X-0.325000X0.450000X0*%
G04 APERTURE END LIST*
D10*
%TO.C,REF\u002A\u002A*%
X195580000Y-99060000D03*
%TD*%
D11*
%TO.C,J2*%
X183190000Y-89805000D03*
X183190000Y-91805000D03*
D12*
X177440000Y-87455000D03*
X177440000Y-94155000D03*
%TD*%
D13*
%TO.C,J1*%
X183844000Y-96436000D03*
X184594000Y-96436000D03*
D14*
X185194000Y-96436000D03*
X185694000Y-96436000D03*
X186194000Y-96436000D03*
X186694000Y-96436000D03*
X187194000Y-96436000D03*
X187694000Y-96436000D03*
X188194000Y-96436000D03*
X188694000Y-96436000D03*
D13*
X189294000Y-96436000D03*
X190044000Y-96436000D03*
D15*
X189944000Y-97536000D03*
D16*
X189944000Y-97536000D03*
X183944000Y-97536000D03*
D17*
X185544000Y-100636000D03*
X188344000Y-100636000D03*
D18*
X182624000Y-96811000D03*
X191264000Y-96811000D03*
D19*
X182624000Y-100636000D03*
X191264000Y-100636000D03*
%TD*%
D20*
%TO.C,SW2*%
X187960000Y-81977000D03*
X187960000Y-89727000D03*
%TD*%
D21*
%TO.C,U5*%
X178090000Y-56135000D03*
X178090000Y-57635000D03*
X178090000Y-59135000D03*
X178090000Y-60635000D03*
X178090000Y-62135000D03*
X178090000Y-63635000D03*
X178090000Y-65135000D03*
X178090000Y-66635000D03*
X178090000Y-68135000D03*
X178090000Y-69635000D03*
X178090000Y-71135000D03*
X178090000Y-72635000D03*
X178090000Y-74135000D03*
X178090000Y-75635000D03*
X178090000Y-77135000D03*
X178090000Y-78635000D03*
D22*
X179940000Y-79385000D03*
X181440000Y-79385000D03*
X182940000Y-79385000D03*
X184440000Y-79385000D03*
X185940000Y-79385000D03*
X187440000Y-79385000D03*
X188940000Y-79385000D03*
X190440000Y-79385000D03*
X191940000Y-79385000D03*
X193440000Y-79385000D03*
D21*
X195290000Y-78635000D03*
X195290000Y-77135000D03*
X195290000Y-75635000D03*
X195290000Y-74135000D03*
X195290000Y-72635000D03*
X195290000Y-71135000D03*
X195290000Y-69635000D03*
X195290000Y-68135000D03*
X195290000Y-66635000D03*
X195290000Y-65135000D03*
X195290000Y-63635000D03*
X195290000Y-62135000D03*
X195290000Y-60635000D03*
X195290000Y-59135000D03*
X195290000Y-57635000D03*
X195290000Y-56135000D03*
D23*
X185500000Y-64185000D03*
X184000000Y-64185000D03*
X187000000Y-64185000D03*
X184000000Y-65685000D03*
X185500000Y-65685000D03*
X187000000Y-65685000D03*
X184000000Y-62685000D03*
X185500000Y-62685000D03*
X187000000Y-62685000D03*
D24*
X185500000Y-63435000D03*
X184000000Y-63435000D03*
X187000000Y-63435000D03*
X184000000Y-64935000D03*
X185500000Y-64935000D03*
X187000000Y-64935000D03*
X184750000Y-62685000D03*
X186250000Y-62685000D03*
X184750000Y-64185000D03*
X186250000Y-64185000D03*
X184750000Y-65685000D03*
X186250000Y-65685000D03*
%TD*%
D25*
%TO.C,J3*%
X176530000Y-85090000D03*
X176530000Y-82550000D03*
X176530000Y-80010000D03*
X176530000Y-77470000D03*
X176530000Y-74930000D03*
X176530000Y-72390000D03*
X176530000Y-69850000D03*
X176530000Y-67310000D03*
X176530000Y-64770000D03*
X176530000Y-62230000D03*
X176530000Y-59690000D03*
X176530000Y-57150000D03*
%TD*%
D10*
%TO.C,REF\u002A\u002A*%
X195580000Y-45720000D03*
%TD*%
%TO.C,REF\u002A\u002A*%
X177800000Y-45720000D03*
%TD*%
D26*
%TO.C,D3*%
X182363000Y-82296000D03*
X184413000Y-82296000D03*
%TD*%
D10*
%TO.C,REF\u002A\u002A*%
X177800000Y-99060000D03*
%TD*%
D26*
%TO.C,D2*%
X182363000Y-84836000D03*
X184413000Y-84836000D03*
%TD*%
D20*
%TO.C,SW1*%
X193040000Y-81977000D03*
X193040000Y-89727000D03*
%TD*%
D25*
%TO.C,J4*%
X196850000Y-57150000D03*
X196850000Y-59690000D03*
X196850000Y-62230000D03*
X196850000Y-64770000D03*
X196850000Y-67310000D03*
X196850000Y-69850000D03*
X196850000Y-72390000D03*
X196850000Y-74930000D03*
X196850000Y-77470000D03*
X196850000Y-80010000D03*
X196850000Y-82550000D03*
X196850000Y-85090000D03*
X196850000Y-87630000D03*
X196850000Y-90170000D03*
X196850000Y-92710000D03*
X196850000Y-95250000D03*
%TD*%
M02*
