%TF.GenerationSoftware,KiCad,Pcbnew,5.99.0-unknown-fc7f1d1d86~106~ubuntu20.04.1*%
%TF.CreationDate,2021-01-14T15:04:19+11:00*%
%TF.ProjectId,esp32-s2-feather,65737033-322d-4733-922d-666561746865,rev?*%
%TF.SameCoordinates,Original*%
%TF.FileFunction,Copper,L4,Bot*%
%TF.FilePolarity,Positive*%
%FSLAX46Y46*%
G04 Gerber Fmt 4.6, Leading zero omitted, Abs format (unit mm)*
G04 Created by KiCad (PCBNEW 5.99.0-unknown-fc7f1d1d86~106~ubuntu20.04.1) date 2021-01-14 15:04:19*
%MOMM*%
%LPD*%
G01*
G04 APERTURE LIST*
G04 Aperture macros list*
%AMRoundRect*
0 Rectangle with rounded corners*
0 $1 Rounding radius*
0 $2 $3 $4 $5 $6 $7 $8 $9 X,Y pos of 4 corners*
0 Add a 4 corners polygon primitive as box body*
4,1,4,$2,$3,$4,$5,$6,$7,$8,$9,$2,$3,0*
0 Add four circle primitives for the rounded corners*
1,1,$1+$1,$2,$3,0*
1,1,$1+$1,$4,$5,0*
1,1,$1+$1,$6,$7,0*
1,1,$1+$1,$8,$9,0*
0 Add four rect primitives between the rounded corners*
20,1,$1+$1,$2,$3,$4,$5,0*
20,1,$1+$1,$4,$5,$6,$7,0*
20,1,$1+$1,$6,$7,$8,$9,0*
20,1,$1+$1,$8,$9,$2,$3,0*%
G04 Aperture macros list end*
%TA.AperFunction,ComponentPad*%
%ADD10C,4.500000*%
%TD*%
%TA.AperFunction,ComponentPad*%
%ADD11O,1.158000X2.316000*%
%TD*%
%TA.AperFunction,ComponentPad*%
%ADD12O,1.200000X2.400000*%
%TD*%
%TA.AperFunction,ComponentPad*%
%ADD13C,0.400000*%
%TD*%
%TA.AperFunction,ComponentPad*%
%ADD14C,1.270000*%
%TD*%
%TA.AperFunction,SMDPad,CuDef*%
%ADD15RoundRect,0.250000X-0.475000X0.337500X-0.475000X-0.337500X0.475000X-0.337500X0.475000X0.337500X0*%
%TD*%
%TA.AperFunction,SMDPad,CuDef*%
%ADD16RoundRect,0.250000X0.350000X0.450000X-0.350000X0.450000X-0.350000X-0.450000X0.350000X-0.450000X0*%
%TD*%
%TA.AperFunction,SMDPad,CuDef*%
%ADD17R,1.400000X2.100000*%
%TD*%
%TA.AperFunction,SMDPad,CuDef*%
%ADD18RoundRect,0.250000X0.337500X0.475000X-0.337500X0.475000X-0.337500X-0.475000X0.337500X-0.475000X0*%
%TD*%
%TA.AperFunction,SMDPad,CuDef*%
%ADD19RoundRect,0.250000X-0.337500X-0.475000X0.337500X-0.475000X0.337500X0.475000X-0.337500X0.475000X0*%
%TD*%
%TA.AperFunction,SMDPad,CuDef*%
%ADD20RoundRect,0.250000X0.450000X-0.350000X0.450000X0.350000X-0.450000X0.350000X-0.450000X-0.350000X0*%
%TD*%
%TA.AperFunction,SMDPad,CuDef*%
%ADD21C,1.524000*%
%TD*%
%TA.AperFunction,SMDPad,CuDef*%
%ADD22R,1.100000X0.600000*%
%TD*%
%TA.AperFunction,SMDPad,CuDef*%
%ADD23R,1.100000X0.700000*%
%TD*%
%TA.AperFunction,SMDPad,CuDef*%
%ADD24RoundRect,0.250000X-0.450000X0.350000X-0.450000X-0.350000X0.450000X-0.350000X0.450000X0.350000X0*%
%TD*%
%TA.AperFunction,SMDPad,CuDef*%
%ADD25RoundRect,0.150000X0.512500X0.150000X-0.512500X0.150000X-0.512500X-0.150000X0.512500X-0.150000X0*%
%TD*%
%TA.AperFunction,SMDPad,CuDef*%
%ADD26R,1.210000X0.590000*%
%TD*%
%TA.AperFunction,SMDPad,CuDef*%
%ADD27RoundRect,0.250000X-0.350000X-0.450000X0.350000X-0.450000X0.350000X0.450000X-0.350000X0.450000X0*%
%TD*%
%TA.AperFunction,SMDPad,CuDef*%
%ADD28RoundRect,0.250000X0.475000X-0.337500X0.475000X0.337500X-0.475000X0.337500X-0.475000X-0.337500X0*%
%TD*%
%TA.AperFunction,ViaPad*%
%ADD29C,0.600000*%
%TD*%
%TA.AperFunction,ViaPad*%
%ADD30C,0.650000*%
%TD*%
%TA.AperFunction,Conductor*%
%ADD31C,0.127000*%
%TD*%
%TA.AperFunction,Conductor*%
%ADD32C,0.300000*%
%TD*%
G04 APERTURE END LIST*
D10*
%TO.P,REF\u002A\u002A,*%
%TO.N,GND*%
X195580000Y-99060000D03*
%TD*%
D11*
%TO.P,J1,S3,SHIELD*%
%TO.N,GND*%
X182624000Y-96811000D03*
%TO.P,J1,S4,SHIELD*%
X191264000Y-96811000D03*
D12*
%TO.P,J1,S5,SHIELD*%
X182624000Y-100636000D03*
%TO.P,J1,S6,SHIELD*%
X191264000Y-100636000D03*
%TD*%
D13*
%TO.P,U5,43.10,GND*%
%TO.N,GND*%
X185500000Y-63435000D03*
%TO.P,U5,43.11,GND*%
X184000000Y-63435000D03*
%TO.P,U5,43.12,GND*%
X187000000Y-63435000D03*
%TO.P,U5,43.13,GND*%
X184000000Y-64935000D03*
%TO.P,U5,43.14,GND*%
X185500000Y-64935000D03*
%TO.P,U5,43.15,GND*%
X187000000Y-64935000D03*
%TO.P,U5,43.16,GND*%
X184750000Y-62685000D03*
%TO.P,U5,43.17,GND*%
X186250000Y-62685000D03*
%TO.P,U5,43.18,GND*%
X184750000Y-64185000D03*
%TO.P,U5,43.19,GND*%
X186250000Y-64185000D03*
%TO.P,U5,43.20,GND*%
X184750000Y-65685000D03*
%TO.P,U5,43.21,GND*%
X186250000Y-65685000D03*
%TD*%
D14*
%TO.P,J3,1,Pin_1*%
%TO.N,+BATT*%
X176530000Y-85090000D03*
%TO.P,J3,2,Pin_2*%
%TO.N,/3V3A_EN*%
X176530000Y-82550000D03*
%TO.P,J3,3,Pin_3*%
%TO.N,VBUS*%
X176530000Y-80010000D03*
%TO.P,J3,4,Pin_4*%
%TO.N,/IO7*%
X176530000Y-77470000D03*
%TO.P,J3,5,Pin_5*%
%TO.N,/IO6*%
X176530000Y-74930000D03*
%TO.P,J3,6,Pin_6*%
%TO.N,/IO5*%
X176530000Y-72390000D03*
%TO.P,J3,7,Pin_7*%
%TO.N,/IO4*%
X176530000Y-69850000D03*
%TO.P,J3,8,Pin_8*%
%TO.N,/IO3*%
X176530000Y-67310000D03*
%TO.P,J3,9,Pin_9*%
%TO.N,/IO2*%
X176530000Y-64770000D03*
%TO.P,J3,10,Pin_10*%
%TO.N,/IO1*%
X176530000Y-62230000D03*
%TO.P,J3,11,Pin_11*%
%TO.N,SCL*%
X176530000Y-59690000D03*
%TO.P,J3,12,Pin_12*%
%TO.N,SDA*%
X176530000Y-57150000D03*
%TD*%
D10*
%TO.P,REF\u002A\u002A,*%
%TO.N,*%
X195580000Y-45720000D03*
%TD*%
%TO.P,REF\u002A\u002A,*%
%TO.N,*%
X177800000Y-45720000D03*
%TD*%
%TO.P,REF\u002A\u002A,*%
%TO.N,*%
X177800000Y-99060000D03*
%TD*%
D14*
%TO.P,J4,1,Pin_1*%
%TO.N,+3.3VA*%
X196850000Y-57150000D03*
%TO.P,J4,2,Pin_2*%
%TO.N,/IO17*%
X196850000Y-59690000D03*
%TO.P,J4,3,Pin_3*%
%TO.N,/IO18*%
X196850000Y-62230000D03*
%TO.P,J4,4,Pin_4*%
%TO.N,/IO37*%
X196850000Y-64770000D03*
%TO.P,J4,5,Pin_5*%
%TO.N,/IO35*%
X196850000Y-67310000D03*
%TO.P,J4,6,Pin_6*%
%TO.N,/IO36*%
X196850000Y-69850000D03*
%TO.P,J4,7,Pin_7*%
%TO.N,/IO26*%
X196850000Y-72390000D03*
%TO.P,J4,8,Pin_8*%
%TO.N,/IO21*%
X196850000Y-74930000D03*
%TO.P,J4,9,Pin_9*%
%TO.N,/IO33*%
X196850000Y-77470000D03*
%TO.P,J4,10,Pin_10*%
%TO.N,/IO34*%
X196850000Y-80010000D03*
%TO.P,J4,11,Pin_11*%
%TO.N,/IO14*%
X196850000Y-82550000D03*
%TO.P,J4,12,Pin_12*%
%TO.N,/IO12*%
X196850000Y-85090000D03*
%TO.P,J4,13,Pin_13*%
%TO.N,GND*%
X196850000Y-87630000D03*
%TO.P,J4,14,Pin_14*%
%TO.N,/IO0*%
X196850000Y-90170000D03*
%TO.P,J4,15,Pin_15*%
%TO.N,+3V3*%
X196850000Y-92710000D03*
%TO.P,J4,16,Pin_16*%
%TO.N,/ESP32-EN*%
X196850000Y-95250000D03*
%TD*%
D15*
%TO.P,C13,1*%
%TO.N,/IO0*%
X186944000Y-84814500D03*
%TO.P,C13,2*%
%TO.N,GND*%
X186944000Y-86889500D03*
%TD*%
D16*
%TO.P,R11,1*%
%TO.N,VCC*%
X183180199Y-72390001D03*
%TO.P,R11,2*%
%TO.N,Net-(R11-Pad2)*%
X181180199Y-72390001D03*
%TD*%
D17*
%TO.P,D4,1,K*%
%TO.N,VCC*%
X189062000Y-66040000D03*
%TO.P,D4,2,A*%
%TO.N,Net-(C1-Pad1)*%
X193462000Y-66040000D03*
%TD*%
D18*
%TO.P,C3,1*%
%TO.N,Net-(C1-Pad1)*%
X190521500Y-89662000D03*
%TO.P,C3,2*%
%TO.N,GND*%
X188446500Y-89662000D03*
%TD*%
D19*
%TO.P,C8,1*%
%TO.N,+3V3*%
X180602800Y-64008000D03*
%TO.P,C8,2*%
%TO.N,GND*%
X182677800Y-64008000D03*
%TD*%
D18*
%TO.P,C6,1*%
%TO.N,VCC*%
X183181900Y-70104000D03*
%TO.P,C6,2*%
%TO.N,GND*%
X181106900Y-70104000D03*
%TD*%
D20*
%TO.P,R3,1*%
%TO.N,GND*%
X179451000Y-84439000D03*
%TO.P,R3,2*%
%TO.N,Net-(D3-Pad1)*%
X179451000Y-82439000D03*
%TD*%
D16*
%TO.P,R5,1*%
%TO.N,Net-(R5-Pad1)*%
X183626000Y-84455000D03*
%TO.P,R5,2*%
%TO.N,GND*%
X181626000Y-84455000D03*
%TD*%
D19*
%TO.P,C4,1*%
%TO.N,VCC*%
X188954500Y-68580000D03*
%TO.P,C4,2*%
%TO.N,GND*%
X191029500Y-68580000D03*
%TD*%
%TO.P,C2,1*%
%TO.N,GND*%
X181588500Y-90424000D03*
%TO.P,C2,2*%
%TO.N,+BATT*%
X183663500Y-90424000D03*
%TD*%
%TO.P,C11,1*%
%TO.N,+3V3*%
X180598900Y-59944000D03*
%TO.P,C11,2*%
%TO.N,GND*%
X182673900Y-59944000D03*
%TD*%
%TO.P,C10,1*%
%TO.N,+3V3*%
X180598900Y-61976000D03*
%TO.P,C10,2*%
%TO.N,GND*%
X182673900Y-61976000D03*
%TD*%
D16*
%TO.P,R4,1*%
%TO.N,Net-(R4-Pad1)*%
X183626000Y-82296000D03*
%TO.P,R4,2*%
%TO.N,Net-(D2-Pad1)*%
X181626000Y-82296000D03*
%TD*%
D21*
%TO.P,GND,1,Pin_1*%
%TO.N,GND*%
X185166000Y-57150000D03*
%TO.P,GND,2,Pin_2*%
%TO.N,/TXD0*%
X182626000Y-57150000D03*
%TO.P,GND,3,Pin_3*%
%TO.N,/RXD0*%
X180086000Y-57150000D03*
%TD*%
D22*
%TO.P,Q1,1,G*%
%TO.N,Net-(C1-Pad1)*%
X189046000Y-72324000D03*
%TO.P,Q1,2,S*%
%TO.N,VCC*%
X189046000Y-70424000D03*
D23*
%TO.P,Q1,3,D*%
%TO.N,+BATT*%
X191446000Y-71374000D03*
%TD*%
D17*
%TO.P,D1,1,K*%
%TO.N,Net-(C1-Pad1)*%
X191430000Y-92456000D03*
%TO.P,D1,2,A*%
%TO.N,VBUS*%
X187030000Y-92456000D03*
%TD*%
D15*
%TO.P,C12,1*%
%TO.N,/ESP32-EN*%
X189230000Y-84814500D03*
%TO.P,C12,2*%
%TO.N,GND*%
X189230000Y-86889500D03*
%TD*%
D24*
%TO.P,R13,1*%
%TO.N,+3V3*%
X191516000Y-84852000D03*
%TO.P,R13,2*%
%TO.N,/ESP32-EN*%
X191516000Y-86852000D03*
%TD*%
D16*
%TO.P,R6,1*%
%TO.N,GND*%
X190992000Y-74168000D03*
%TO.P,R6,2*%
%TO.N,Net-(C1-Pad1)*%
X188992000Y-74168000D03*
%TD*%
D25*
%TO.P,U1,1,STAT*%
%TO.N,Net-(R4-Pad1)*%
X183763500Y-86426000D03*
%TO.P,U1,2,VSS*%
%TO.N,GND*%
X183763500Y-87376000D03*
%TO.P,U1,3,VBAT*%
%TO.N,+BATT*%
X183763500Y-88326000D03*
%TO.P,U1,4,VDD*%
%TO.N,Net-(C1-Pad1)*%
X181488500Y-88326000D03*
%TO.P,U1,5,PROG*%
%TO.N,Net-(R5-Pad1)*%
X181488500Y-86426000D03*
%TD*%
D26*
%TO.P,U3,1,IN*%
%TO.N,VCC*%
X183149300Y-66106000D03*
%TO.P,U3,2,GND*%
%TO.N,GND*%
X183149300Y-67056000D03*
%TO.P,U3,3,EN*%
%TO.N,Net-(R11-Pad2)*%
X183149300Y-68006000D03*
%TO.P,U3,4*%
%TO.N,N/C*%
X180639300Y-68006000D03*
%TO.P,U3,5,OUT*%
%TO.N,+3V3*%
X180639300Y-66106000D03*
%TD*%
D18*
%TO.P,C9,1*%
%TO.N,+3.3VA*%
X193950500Y-56642000D03*
%TO.P,C9,2*%
%TO.N,GND*%
X191875500Y-56642000D03*
%TD*%
D20*
%TO.P,R12,1*%
%TO.N,VCC*%
X188976000Y-62341000D03*
%TO.P,R12,2*%
%TO.N,/3V3A_EN*%
X188976000Y-60341000D03*
%TD*%
D16*
%TO.P,R1,1*%
%TO.N,Net-(J1-Pad3)*%
X185912000Y-99060000D03*
%TO.P,R1,2*%
%TO.N,GND*%
X183912000Y-99060000D03*
%TD*%
D27*
%TO.P,R2,1*%
%TO.N,Net-(J1-Pad9)*%
X187976000Y-99060000D03*
%TO.P,R2,2*%
%TO.N,GND*%
X189976000Y-99060000D03*
%TD*%
D19*
%TO.P,C7,1*%
%TO.N,VCC*%
X191875500Y-62230000D03*
%TO.P,C7,2*%
%TO.N,GND*%
X193950500Y-62230000D03*
%TD*%
D16*
%TO.P,R14,1*%
%TO.N,+3V3*%
X188833000Y-82804000D03*
%TO.P,R14,2*%
%TO.N,/IO0*%
X186833000Y-82804000D03*
%TD*%
D28*
%TO.P,C1,1*%
%TO.N,Net-(C1-Pad1)*%
X179451000Y-88540500D03*
%TO.P,C1,2*%
%TO.N,GND*%
X179451000Y-86465500D03*
%TD*%
D26*
%TO.P,U4,1,IN*%
%TO.N,VCC*%
X191404000Y-60386000D03*
%TO.P,U4,2,GND*%
%TO.N,GND*%
X191404000Y-59436000D03*
%TO.P,U4,3,EN*%
%TO.N,/3V3A_EN*%
X191404000Y-58486000D03*
%TO.P,U4,4*%
%TO.N,N/C*%
X193914000Y-58486000D03*
%TO.P,U4,5,OUT*%
%TO.N,+3.3VA*%
X193914000Y-60386000D03*
%TD*%
D29*
%TO.N,GND*%
X196240400Y-55626000D03*
X184150000Y-61341000D03*
D30*
X185293000Y-87376000D03*
D29*
X193446400Y-78232000D03*
X182753000Y-65151000D03*
X191058800Y-67360800D03*
X190754000Y-56642000D03*
D30*
X189686000Y-100636000D03*
X188468000Y-90932000D03*
X179451000Y-85471000D03*
X193040000Y-88773000D03*
D29*
X183668400Y-59944000D03*
X179324000Y-55676800D03*
X192024000Y-74168000D03*
D30*
X180467000Y-90424000D03*
X185166000Y-57150000D03*
D29*
X193950500Y-63521500D03*
D30*
X184098000Y-100636000D03*
D29*
X181902138Y-68083738D03*
%TO.N,Net-(C1-Pad1)*%
X181991000Y-88315800D03*
D30*
X185166000Y-80645000D03*
D29*
X185360990Y-88586990D03*
%TO.N,+BATT*%
X185064400Y-90779600D03*
%TO.N,+3V3*%
X181636400Y-59944000D03*
D30*
X190754000Y-83693000D03*
X189992000Y-82804000D03*
D29*
X179425600Y-58420000D03*
X181636400Y-64008000D03*
X181864000Y-65405000D03*
X181636400Y-61976000D03*
X181864000Y-66929000D03*
%TO.N,/ESP32-EN*%
X191363600Y-81686400D03*
X194183000Y-81991200D03*
X197485000Y-58420000D03*
%TO.N,/IO0*%
X179324000Y-59436000D03*
X190500000Y-81686400D03*
X186690000Y-77216000D03*
X186690000Y-75946000D03*
X181229000Y-58420000D03*
%TO.N,VBUS*%
X180467000Y-92837000D03*
D30*
X184658000Y-95250000D03*
D29*
%TO.N,Net-(D2-Pad1)*%
X180594000Y-83439000D03*
%TO.N,Net-(D3-Pad1)*%
X180594000Y-82016600D03*
%TO.N,Net-(J1-Pad9)*%
X188194000Y-97643000D03*
%TO.N,Net-(J1-Pad3)*%
X185801000Y-97663000D03*
%TO.N,/IO1*%
X179070000Y-60706000D03*
%TO.N,/IO2*%
X179070000Y-61976000D03*
%TO.N,/IO3*%
X179070000Y-63754000D03*
%TO.N,/IO4*%
X179070000Y-65024000D03*
%TO.N,/IO5*%
X179070000Y-66548000D03*
%TO.N,/IO6*%
X179070000Y-68072000D03*
%TO.N,/IO7*%
X179070000Y-69596000D03*
%TO.N,/IO21*%
X191135000Y-77470000D03*
%TO.N,/IO26*%
X192405000Y-77470000D03*
%TO.N,/IO36*%
X194056000Y-74168000D03*
%TO.N,/IO35*%
X194056000Y-75438000D03*
%TO.N,/IO37*%
X194056000Y-72644000D03*
%TO.N,/IO18*%
X185039000Y-77851000D03*
X184785000Y-74295000D03*
%TO.N,/IO17*%
X184150000Y-77851000D03*
X184150000Y-75565000D03*
%TO.N,/RXD0*%
X180086000Y-57150000D03*
%TO.N,/TXD0*%
X182626000Y-57150000D03*
%TD*%
D31*
%TO.N,GND*%
X193950500Y-62230000D02*
X193950500Y-63521500D01*
X188468000Y-90932000D02*
X188446500Y-90910500D01*
X188446500Y-89662000D02*
X188468000Y-90932000D01*
X189976000Y-99060000D02*
X189976000Y-100346000D01*
X179451000Y-85471000D02*
X179451000Y-86465500D01*
X189230000Y-86889500D02*
X186944000Y-86889500D01*
X191058800Y-67360800D02*
X191029500Y-67339300D01*
X185779500Y-86889500D02*
X185293000Y-87376000D01*
X183763500Y-87376000D02*
X185293000Y-87376000D01*
X192684400Y-59842400D02*
X192278000Y-59436000D01*
X182677800Y-64008000D02*
X182677800Y-65075800D01*
X189976000Y-100346000D02*
X189686000Y-100636000D01*
X190992000Y-74168000D02*
X192024000Y-74168000D01*
X191875500Y-56642000D02*
X190754000Y-56642000D01*
X181106900Y-68878976D02*
X181106900Y-70104000D01*
X182677800Y-65075800D02*
X182753000Y-65151000D01*
X181610000Y-84439000D02*
X181626000Y-84455000D01*
X183912000Y-99060000D02*
X183912000Y-100450000D01*
X183308900Y-61341000D02*
X184150000Y-61341000D01*
X181902138Y-68083738D02*
X181106900Y-68878976D01*
X192684400Y-61010800D02*
X192684400Y-59842400D01*
X191029500Y-68580000D02*
X191058800Y-67360800D01*
X192278000Y-59436000D02*
X191404000Y-59436000D01*
X186944000Y-86889500D02*
X185779500Y-86889500D01*
X193086900Y-61366400D02*
X193040000Y-61366400D01*
X181588500Y-90424000D02*
X180467000Y-90424000D01*
X193040000Y-61366400D02*
X192684400Y-61010800D01*
X182673900Y-59944000D02*
X183668400Y-59944000D01*
X183149300Y-67056000D02*
X182929876Y-67056000D01*
X182929876Y-67056000D02*
X181902138Y-68083738D01*
X190754000Y-56642000D02*
X190627000Y-56642000D01*
X193950500Y-62230000D02*
X193086900Y-61366400D01*
X179451000Y-84439000D02*
X179451000Y-85471000D01*
X182673900Y-61976000D02*
X183308900Y-61341000D01*
X183912000Y-100450000D02*
X184098000Y-100636000D01*
X182673900Y-64004100D02*
X182677800Y-64008000D01*
X179451000Y-84439000D02*
X181610000Y-84439000D01*
D32*
%TO.N,Net-(C1-Pad1)*%
X179451000Y-88540500D02*
X179726500Y-88265000D01*
X185166000Y-80645000D02*
X188992000Y-76819000D01*
X192430400Y-67071600D02*
X192430400Y-69646800D01*
X189446490Y-88586990D02*
X185360990Y-88586990D01*
X191430000Y-92456000D02*
X191516000Y-92370000D01*
X192430400Y-69646800D02*
X191820800Y-70256400D01*
X188992000Y-76819000D02*
X188992000Y-74168000D01*
X190521500Y-89662000D02*
X189446490Y-88586990D01*
X179726500Y-88265000D02*
X181427500Y-88265000D01*
X191516000Y-92370000D02*
X191516000Y-90656500D01*
X189046000Y-72167600D02*
X189046000Y-72324000D01*
X181427500Y-88265000D02*
X181488500Y-88326000D01*
X188992000Y-72378000D02*
X189046000Y-72324000D01*
X193462000Y-66040000D02*
X192430400Y-67071600D01*
X190957200Y-70256400D02*
X189046000Y-72167600D01*
X188992000Y-74168000D02*
X188992000Y-72378000D01*
X191820800Y-70256400D02*
X190957200Y-70256400D01*
X191516000Y-90656500D02*
X190521500Y-89662000D01*
%TO.N,+BATT*%
X183663500Y-90424000D02*
X183663500Y-88426000D01*
X178612800Y-87426800D02*
X182444678Y-87426800D01*
X179070000Y-80772000D02*
X178308000Y-81534000D01*
X178308000Y-81534000D02*
X178308000Y-83312000D01*
D31*
X183763500Y-90324000D02*
X183663500Y-90424000D01*
D32*
X185506999Y-81320001D02*
X184841999Y-81320001D01*
X184293998Y-80772000D02*
X179070000Y-80772000D01*
X183663500Y-88426000D02*
X183763500Y-88326000D01*
X184841999Y-81320001D02*
X184293998Y-80772000D01*
X184708800Y-90424000D02*
X183663500Y-90424000D01*
X183343878Y-88326000D02*
X183763500Y-88326000D01*
X191446000Y-71374000D02*
X190041990Y-72778010D01*
X182444678Y-87426800D02*
X183343878Y-88326000D01*
X190041990Y-72778010D02*
X190041990Y-76785010D01*
X185064400Y-90779600D02*
X184708800Y-90424000D01*
X176530000Y-85090000D02*
X176530000Y-85344000D01*
X190041990Y-76785010D02*
X185506999Y-81320001D01*
X176530000Y-85344000D02*
X178612800Y-87426800D01*
X178308000Y-83312000D02*
X176530000Y-85090000D01*
%TO.N,VCC*%
X184252600Y-66764310D02*
X183594290Y-66106000D01*
X188954500Y-70332500D02*
X189046000Y-70424000D01*
X189062000Y-68472500D02*
X188954500Y-68580000D01*
D31*
X191897000Y-60879000D02*
X191404000Y-60386000D01*
D32*
X188954500Y-68580000D02*
X188954500Y-70332500D01*
X188866999Y-66235001D02*
X189062000Y-66040000D01*
X191875500Y-62230000D02*
X189087000Y-62230000D01*
D31*
X191875500Y-62230000D02*
X191897000Y-62208500D01*
X191897000Y-62208500D02*
X191897000Y-60879000D01*
D32*
X183181900Y-69549100D02*
X184252600Y-68478400D01*
D31*
X191764500Y-62341000D02*
X191875500Y-62230000D01*
D32*
X188976000Y-65954000D02*
X189062000Y-66040000D01*
X183180199Y-70105701D02*
X183181900Y-70104000D01*
X183278301Y-66235001D02*
X188866999Y-66235001D01*
X188976000Y-62341000D02*
X188976000Y-65954000D01*
X183594290Y-66106000D02*
X183149300Y-66106000D01*
X184252600Y-68478400D02*
X184252600Y-66764310D01*
X189062000Y-66040000D02*
X189062000Y-68472500D01*
X189087000Y-62230000D02*
X188976000Y-62341000D01*
X183149300Y-66106000D02*
X183278301Y-66235001D01*
X183181900Y-70104000D02*
X183181900Y-69549100D01*
X191516000Y-62589500D02*
X191875500Y-62230000D01*
X183180199Y-72390001D02*
X183180199Y-70105701D01*
D31*
%TO.N,+3V3*%
X191516000Y-84852000D02*
X191516000Y-84455000D01*
X188833000Y-82804000D02*
X189992000Y-82804000D01*
X181864000Y-65405000D02*
X181340300Y-65405000D01*
X181864000Y-66929000D02*
X181462300Y-66929000D01*
X180598900Y-59944000D02*
X181636400Y-59944000D01*
X191516000Y-84455000D02*
X190754000Y-83693000D01*
X180602800Y-64008000D02*
X181636400Y-64008000D01*
X181340300Y-65405000D02*
X180639300Y-66106000D01*
X181462300Y-66929000D02*
X180639300Y-66106000D01*
X180598900Y-61976000D02*
X181636400Y-61976000D01*
X180598900Y-64004100D02*
X180602800Y-64008000D01*
%TO.N,+3.3VA*%
X193045499Y-57547001D02*
X193045499Y-59517499D01*
X193950500Y-56642000D02*
X193045499Y-57547001D01*
X193045499Y-59517499D02*
X193914000Y-60386000D01*
X193950500Y-56642000D02*
X196342000Y-56642000D01*
X196342000Y-56642000D02*
X196850000Y-57150000D01*
%TO.N,/ESP32-EN*%
X191381000Y-86852000D02*
X191516000Y-86852000D01*
X189230000Y-84455000D02*
X189230000Y-84814500D01*
X189230000Y-84814500D02*
X189343500Y-84814500D01*
X191516000Y-89916000D02*
X196850000Y-95250000D01*
X197485000Y-58420000D02*
X197784999Y-58719999D01*
X191363600Y-82321400D02*
X189230000Y-84455000D01*
X197784999Y-80296743D02*
X196166742Y-81915000D01*
X196166742Y-81915000D02*
X196090542Y-81991200D01*
X189343500Y-84814500D02*
X191381000Y-86852000D01*
X191516000Y-86852000D02*
X191516000Y-89916000D01*
X197784999Y-58719999D02*
X197784999Y-80296743D01*
X191363600Y-81686400D02*
X191363600Y-82321400D01*
X196090542Y-81991200D02*
X194183000Y-81991200D01*
%TO.N,/IO0*%
X188300534Y-81913490D02*
X189365466Y-81913490D01*
X186833000Y-82804000D02*
X186833000Y-84703500D01*
X186833000Y-82804000D02*
X187722000Y-81915000D01*
X187722000Y-81915000D02*
X188299024Y-81915000D01*
X180340000Y-58420000D02*
X181229000Y-58420000D01*
X190271400Y-81915000D02*
X190500000Y-81686400D01*
X189366976Y-81915000D02*
X190271400Y-81915000D01*
X189365466Y-81913490D02*
X189366976Y-81915000D01*
X186833000Y-84703500D02*
X186944000Y-84814500D01*
X186690000Y-77216000D02*
X186690000Y-75946000D01*
X179324000Y-59436000D02*
X180340000Y-58420000D01*
X188299024Y-81915000D02*
X188300534Y-81913490D01*
D32*
%TO.N,VBUS*%
X187030000Y-93894000D02*
X187030000Y-92456000D01*
X185674000Y-95250000D02*
X187030000Y-93894000D01*
X187030000Y-92456000D02*
X186649000Y-92837000D01*
X184658000Y-95250000D02*
X185674000Y-95250000D01*
X186649000Y-92837000D02*
X180467000Y-92837000D01*
D31*
%TO.N,Net-(D2-Pad1)*%
X181626000Y-82296000D02*
X181626000Y-82407000D01*
X181626000Y-82407000D02*
X180594000Y-83439000D01*
%TO.N,Net-(D3-Pad1)*%
X179451000Y-82439000D02*
X179873400Y-82016600D01*
X179873400Y-82016600D02*
X180594000Y-82016600D01*
%TO.N,Net-(J1-Pad9)*%
X187976000Y-99060000D02*
X187976000Y-97861000D01*
X187976000Y-97861000D02*
X188194000Y-97643000D01*
%TO.N,Net-(J1-Pad3)*%
X185912000Y-97774000D02*
X185801000Y-97663000D01*
X185912000Y-99060000D02*
X185912000Y-97774000D01*
%TO.N,/IO1*%
X178054000Y-60706000D02*
X176530000Y-62230000D01*
X179070000Y-60706000D02*
X178054000Y-60706000D01*
%TO.N,/IO2*%
X179070000Y-61976000D02*
X179070000Y-62230000D01*
X179070000Y-62230000D02*
X176530000Y-64770000D01*
%TO.N,/IO3*%
X177546000Y-66802000D02*
X177038000Y-67310000D01*
X177546000Y-65278000D02*
X177546000Y-66802000D01*
X177038000Y-67310000D02*
X176530000Y-67310000D01*
X179070000Y-63754000D02*
X177546000Y-65278000D01*
%TO.N,/IO4*%
X177800000Y-68580000D02*
X176530000Y-69850000D01*
X179070000Y-65024000D02*
X177800000Y-66294000D01*
X177800000Y-66294000D02*
X177800000Y-68580000D01*
%TO.N,/IO5*%
X178054000Y-70866000D02*
X176530000Y-72390000D01*
X178054000Y-67564000D02*
X178054000Y-70866000D01*
X179070000Y-66548000D02*
X178054000Y-67564000D01*
%TO.N,/IO6*%
X178308000Y-68834000D02*
X178308000Y-73152000D01*
X178308000Y-73152000D02*
X176530000Y-74930000D01*
X179070000Y-68072000D02*
X178308000Y-68834000D01*
%TO.N,/IO7*%
X178562000Y-75438000D02*
X176530000Y-77470000D01*
X178562000Y-70104000D02*
X178562000Y-75438000D01*
X179070000Y-69596000D02*
X178562000Y-70104000D01*
%TO.N,/3V3A_EN*%
X179705000Y-63426020D02*
X179705000Y-79375000D01*
X187290200Y-62026800D02*
X184480200Y-62026800D01*
X184480200Y-62026800D02*
X183515000Y-62992000D01*
X183515000Y-62992000D02*
X180139020Y-62992000D01*
X188976000Y-60341000D02*
X187290200Y-62026800D01*
X190053000Y-58486000D02*
X191404000Y-58486000D01*
X188976000Y-59563000D02*
X190053000Y-58486000D01*
X180139020Y-62992000D02*
X179705000Y-63426020D01*
X188976000Y-60341000D02*
X188976000Y-59563000D01*
X179705000Y-79375000D02*
X178612800Y-80467200D01*
X178612800Y-80467200D02*
X176530000Y-82550000D01*
%TO.N,/IO21*%
X191135000Y-77470000D02*
X192422490Y-76182510D01*
X195597490Y-76182510D02*
X196850000Y-74930000D01*
X192422490Y-76182510D02*
X195597490Y-76182510D01*
%TO.N,/IO26*%
X191950557Y-75928501D02*
X195216499Y-75928501D01*
X190644499Y-77234559D02*
X191950557Y-75928501D01*
X195834000Y-74422000D02*
X196850000Y-73406000D01*
X196850000Y-73406000D02*
X196850000Y-72390000D01*
X192405000Y-77470000D02*
X191914499Y-77960501D01*
X191914499Y-77960501D02*
X190899559Y-77960501D01*
X195834000Y-75311000D02*
X195834000Y-74422000D01*
X195216499Y-75928501D02*
X195834000Y-75311000D01*
X190644499Y-77705441D02*
X190644499Y-77234559D01*
X190899559Y-77960501D02*
X190644499Y-77705441D01*
%TO.N,/IO36*%
X195580000Y-73660000D02*
X195580000Y-71120000D01*
X194056000Y-74168000D02*
X195072000Y-74168000D01*
X195072000Y-74168000D02*
X195580000Y-73660000D01*
X195580000Y-71120000D02*
X196850000Y-69850000D01*
%TO.N,/IO35*%
X193802000Y-73660000D02*
X194818000Y-73660000D01*
X193548000Y-73914000D02*
X193802000Y-73660000D01*
X195326000Y-73152000D02*
X195326000Y-68834000D01*
X194818000Y-73660000D02*
X195326000Y-73152000D01*
X195326000Y-68834000D02*
X196850000Y-67310000D01*
X193548000Y-74930000D02*
X193548000Y-73914000D01*
X194056000Y-75438000D02*
X193548000Y-74930000D01*
%TO.N,/IO37*%
X195072000Y-71628000D02*
X195072000Y-66654302D01*
X195072000Y-66654302D02*
X196850000Y-64876302D01*
X196850000Y-64876302D02*
X196850000Y-64770000D01*
X194056000Y-72644000D02*
X195072000Y-71628000D01*
%TO.N,/IO18*%
X184785000Y-74295000D02*
X184785000Y-77597000D01*
X184785000Y-77597000D02*
X185039000Y-77851000D01*
%TO.N,/IO17*%
X184150000Y-75565000D02*
X184150000Y-77851000D01*
%TO.N,Net-(R4-Pad1)*%
X184416510Y-83086510D02*
X183626000Y-82296000D01*
X183763500Y-86426000D02*
X184416510Y-85772990D01*
X184416510Y-85772990D02*
X184416510Y-83086510D01*
%TO.N,Net-(R5-Pad1)*%
X183459500Y-84455000D02*
X181488500Y-86426000D01*
X183626000Y-84455000D02*
X183459500Y-84455000D01*
%TO.N,Net-(R11-Pad2)*%
X183358300Y-68215000D02*
X183149300Y-68006000D01*
X182144400Y-71390000D02*
X182144400Y-69010900D01*
X181144400Y-72390000D02*
X182144400Y-71390000D01*
X182144400Y-69010900D02*
X183149300Y-68006000D01*
%TD*%
M02*
