%TF.GenerationSoftware,KiCad,Pcbnew,5.99.0-unknown-fc7f1d1d86~106~ubuntu20.04.1*%
%TF.CreationDate,2021-01-14T15:04:19+11:00*%
%TF.ProjectId,esp32-s2-feather,65737033-322d-4733-922d-666561746865,rev?*%
%TF.SameCoordinates,Original*%
%TF.FileFunction,Profile,NP*%
%FSLAX46Y46*%
G04 Gerber Fmt 4.6, Leading zero omitted, Abs format (unit mm)*
G04 Created by KiCad (PCBNEW 5.99.0-unknown-fc7f1d1d86~106~ubuntu20.04.1) date 2021-01-14 15:04:19*
%MOMM*%
%LPD*%
G01*
G04 APERTURE LIST*
%TA.AperFunction,Profile*%
%ADD10C,0.050000*%
%TD*%
%TA.AperFunction,Profile*%
%ADD11C,0.100000*%
%TD*%
G04 APERTURE END LIST*
D10*
X181356000Y-101600000D02*
X177800000Y-101600000D01*
X175260000Y-45720000D02*
G75*
G02*
X177800000Y-43180000I2540000J0D01*
G01*
X192024000Y-102108000D02*
G75*
G02*
X192532000Y-101600000I508000J0D01*
G01*
X192024000Y-102108000D02*
G75*
G02*
X191516000Y-102616000I-508000J0D01*
G01*
X182372000Y-102616000D02*
G75*
G02*
X181864000Y-102108000I0J508000D01*
G01*
X181356000Y-101600000D02*
G75*
G02*
X181864000Y-102108000I0J-508000D01*
G01*
X195580000Y-43180000D02*
G75*
G02*
X198120000Y-45720000I0J-2540000D01*
G01*
X177800000Y-101600000D02*
G75*
G02*
X175260000Y-99060000I0J2540000D01*
G01*
X177800000Y-43180000D02*
X195580000Y-43180000D01*
X175260000Y-99060000D02*
X175260000Y-45720000D01*
X191516000Y-102616000D02*
X182372000Y-102616000D01*
X195580000Y-101600000D02*
X192532000Y-101600000D01*
X198120000Y-99060000D02*
G75*
G02*
X195580000Y-101600000I-2540000J0D01*
G01*
X198120000Y-45720000D02*
X198120000Y-99060000D01*
D11*
%TO.C,J1*%
X189819000Y-97221000D02*
X190069000Y-97221000D01*
X190069000Y-97851000D02*
X189819000Y-97851000D01*
X189504000Y-97536000D02*
G75*
G02*
X189819000Y-97221000I315000J0D01*
G01*
X190069000Y-97221000D02*
G75*
G02*
X190384000Y-97536000I0J-315000D01*
G01*
X189819000Y-97851000D02*
G75*
G02*
X189504000Y-97536000I0J315000D01*
G01*
X190384000Y-97536000D02*
G75*
G02*
X190069000Y-97851000I-315000J0D01*
G01*
%TD*%
M02*
