M48
; DRILL file {KiCad 5.99.0-unknown-fc7f1d1d86~106~ubuntu20.04.1} date Thu Jan 14 15:04:15 2021
; FORMAT={-:-/ absolute / inch / decimal}
; #@! TF.CreationDate,2021-01-14T15:04:15+11:00
; #@! TF.GenerationSoftware,Kicad,Pcbnew,5.99.0-unknown-fc7f1d1d86~106~ubuntu20.04.1
; #@! TF.FileFunction,Plated,1,4,PTH
FMAT,2
INCH
T1C0.0079
T2C0.0118
T3C0.0138
T4C0.0256
T5C0.0374
T6C0.0394
T7C0.1063
%
G90
G05
T1
X7.2441Y-2.4974
X7.2441Y-2.5565
X7.2736Y-2.4679
X7.2736Y-2.527
X7.2736Y-2.586
X7.3031Y-2.4974
X7.3031Y-2.5565
X7.3327Y-2.4679
X7.3327Y-2.527
X7.3327Y-2.586
X7.3622Y-2.4974
X7.3622Y-2.5565
T2
X7.05Y-2.39
X7.05Y-2.44
X7.05Y-2.51
X7.05Y-2.56
X7.05Y-2.62
X7.05Y-2.68
X7.05Y-2.74
X7.06Y-2.192
X7.06Y-2.34
X7.064Y-2.3
X7.09Y-2.25
X7.105Y-3.655
X7.11Y-3.229
X7.11Y-3.285
X7.135Y-2.3
X7.151Y-2.36
X7.151Y-2.44
X7.151Y-2.52
X7.16Y-2.575
X7.16Y-2.635
X7.1615Y-2.6805
X7.165Y-3.477
X7.19Y-2.25
X7.195Y-2.565
X7.231Y-2.36
X7.25Y-2.415
X7.25Y-2.975
X7.25Y-3.065
X7.275Y-2.925
X7.285Y-3.065
X7.286Y-3.574
X7.2977Y-3.4877
X7.315Y-3.845
X7.35Y-2.99
X7.35Y-3.04
X7.4092Y-3.8442
X7.5Y-3.216
X7.51Y-2.23
X7.522Y-2.652
X7.525Y-3.05
X7.534Y-3.216
X7.56Y-2.92
X7.575Y-3.05
X7.616Y-3.08
X7.6358Y-2.5008
X7.64Y-2.86
X7.64Y-2.92
X7.64Y-2.97
X7.645Y-3.228
X7.726Y-2.19
X7.775Y-2.3
T3
X7.065Y-3.365
X7.105Y-3.56
X7.248Y-3.962
X7.27Y-3.75
X7.29Y-2.25
X7.29Y-3.175
X7.295Y-3.44
X7.42Y-3.58
X7.468Y-3.962
X7.48Y-3.26
X7.51Y-3.295
X7.6Y-3.495
T5
X6.95Y-2.25
X6.95Y-2.35
X6.95Y-2.45
X6.95Y-2.55
X6.95Y-2.65
X6.95Y-2.75
X6.95Y-2.85
X6.95Y-2.95
X6.95Y-3.05
X6.95Y-3.15
X6.95Y-3.25
X6.95Y-3.35
T6
X7.75Y-2.25
X7.75Y-2.35
X7.75Y-2.45
X7.75Y-2.55
X7.75Y-2.65
X7.75Y-2.75
X7.75Y-2.85
X7.75Y-2.95
X7.75Y-3.05
X7.75Y-3.15
X7.75Y-3.25
X7.75Y-3.35
X7.75Y-3.45
X7.75Y-3.55
X7.75Y-3.65
X7.75Y-3.75
T7
X7.0Y-1.8
X7.0Y-3.9
X7.7Y-1.8
X7.7Y-3.9
T4
G00X7.1899Y-3.7918
M15
G01X7.1899Y-3.8311
M16
G05
G00X7.1899Y-3.9365
M15
G01X7.1899Y-3.9876
M16
G05
G00X7.5301Y-3.7918
M15
G01X7.5301Y-3.8311
M16
G05
G00X7.5301Y-3.9365
M15
G01X7.5301Y-3.9876
M16
G05
T0
M30
