%TF.GenerationSoftware,KiCad,Pcbnew,5.99.0-unknown-fc7f1d1d86~106~ubuntu20.04.1*%
%TF.CreationDate,2021-01-14T15:04:19+11:00*%
%TF.ProjectId,esp32-s2-feather,65737033-322d-4733-922d-666561746865,rev?*%
%TF.SameCoordinates,Original*%
%TF.FileFunction,Soldermask,Bot*%
%TF.FilePolarity,Negative*%
%FSLAX46Y46*%
G04 Gerber Fmt 4.6, Leading zero omitted, Abs format (unit mm)*
G04 Created by KiCad (PCBNEW 5.99.0-unknown-fc7f1d1d86~106~ubuntu20.04.1) date 2021-01-14 15:04:19*
%MOMM*%
%LPD*%
G01*
G04 APERTURE LIST*
G04 Aperture macros list*
%AMRoundRect*
0 Rectangle with rounded corners*
0 $1 Rounding radius*
0 $2 $3 $4 $5 $6 $7 $8 $9 X,Y pos of 4 corners*
0 Add a 4 corners polygon primitive as box body*
4,1,4,$2,$3,$4,$5,$6,$7,$8,$9,$2,$3,0*
0 Add four circle primitives for the rounded corners*
1,1,$1+$1,$2,$3,0*
1,1,$1+$1,$4,$5,0*
1,1,$1+$1,$6,$7,0*
1,1,$1+$1,$8,$9,0*
0 Add four rect primitives between the rounded corners*
20,1,$1+$1,$2,$3,$4,$5,0*
20,1,$1+$1,$4,$5,$6,$7,0*
20,1,$1+$1,$6,$7,$8,$9,0*
20,1,$1+$1,$8,$9,$2,$3,0*%
G04 Aperture macros list end*
%ADD10C,4.500000*%
%ADD11C,0.600000*%
%ADD12C,0.630000*%
%ADD13O,1.158000X2.316000*%
%ADD14O,1.200000X2.400000*%
%ADD15C,0.400000*%
%ADD16C,1.270000*%
%ADD17RoundRect,0.250000X-0.475000X0.337500X-0.475000X-0.337500X0.475000X-0.337500X0.475000X0.337500X0*%
%ADD18RoundRect,0.250000X0.350000X0.450000X-0.350000X0.450000X-0.350000X-0.450000X0.350000X-0.450000X0*%
%ADD19R,1.400000X2.100000*%
%ADD20RoundRect,0.250000X0.337500X0.475000X-0.337500X0.475000X-0.337500X-0.475000X0.337500X-0.475000X0*%
%ADD21RoundRect,0.250000X-0.337500X-0.475000X0.337500X-0.475000X0.337500X0.475000X-0.337500X0.475000X0*%
%ADD22RoundRect,0.250000X0.450000X-0.350000X0.450000X0.350000X-0.450000X0.350000X-0.450000X-0.350000X0*%
%ADD23C,1.524000*%
%ADD24R,1.100000X0.600000*%
%ADD25R,1.100000X0.700000*%
%ADD26RoundRect,0.250000X-0.450000X0.350000X-0.450000X-0.350000X0.450000X-0.350000X0.450000X0.350000X0*%
%ADD27RoundRect,0.150000X0.512500X0.150000X-0.512500X0.150000X-0.512500X-0.150000X0.512500X-0.150000X0*%
%ADD28R,1.210000X0.590000*%
%ADD29RoundRect,0.250000X-0.350000X-0.450000X0.350000X-0.450000X0.350000X0.450000X-0.350000X0.450000X0*%
%ADD30RoundRect,0.250000X0.475000X-0.337500X0.475000X0.337500X-0.475000X0.337500X-0.475000X-0.337500X0*%
G04 APERTURE END LIST*
D10*
%TO.C,REF\u002A\u002A*%
X195580000Y-99060000D03*
%TD*%
D11*
%TO.C,J1*%
X189944000Y-97536000D03*
D12*
X189944000Y-97536000D03*
X183944000Y-97536000D03*
D13*
X182624000Y-96811000D03*
X191264000Y-96811000D03*
D14*
X182624000Y-100636000D03*
X191264000Y-100636000D03*
%TD*%
D15*
%TO.C,U5*%
X185500000Y-63435000D03*
X184000000Y-63435000D03*
X187000000Y-63435000D03*
X184000000Y-64935000D03*
X185500000Y-64935000D03*
X187000000Y-64935000D03*
X184750000Y-62685000D03*
X186250000Y-62685000D03*
X184750000Y-64185000D03*
X186250000Y-64185000D03*
X184750000Y-65685000D03*
X186250000Y-65685000D03*
%TD*%
D16*
%TO.C,J3*%
X176530000Y-85090000D03*
X176530000Y-82550000D03*
X176530000Y-80010000D03*
X176530000Y-77470000D03*
X176530000Y-74930000D03*
X176530000Y-72390000D03*
X176530000Y-69850000D03*
X176530000Y-67310000D03*
X176530000Y-64770000D03*
X176530000Y-62230000D03*
X176530000Y-59690000D03*
X176530000Y-57150000D03*
%TD*%
D10*
%TO.C,REF\u002A\u002A*%
X195580000Y-45720000D03*
%TD*%
%TO.C,REF\u002A\u002A*%
X177800000Y-45720000D03*
%TD*%
%TO.C,REF\u002A\u002A*%
X177800000Y-99060000D03*
%TD*%
D16*
%TO.C,J4*%
X196850000Y-57150000D03*
X196850000Y-59690000D03*
X196850000Y-62230000D03*
X196850000Y-64770000D03*
X196850000Y-67310000D03*
X196850000Y-69850000D03*
X196850000Y-72390000D03*
X196850000Y-74930000D03*
X196850000Y-77470000D03*
X196850000Y-80010000D03*
X196850000Y-82550000D03*
X196850000Y-85090000D03*
X196850000Y-87630000D03*
X196850000Y-90170000D03*
X196850000Y-92710000D03*
X196850000Y-95250000D03*
%TD*%
D17*
%TO.C,C13*%
X186944000Y-84814500D03*
X186944000Y-86889500D03*
%TD*%
D18*
%TO.C,R11*%
X183180199Y-72390001D03*
X181180199Y-72390001D03*
%TD*%
D19*
%TO.C,D4*%
X189062000Y-66040000D03*
X193462000Y-66040000D03*
%TD*%
D20*
%TO.C,C3*%
X190521500Y-89662000D03*
X188446500Y-89662000D03*
%TD*%
D21*
%TO.C,C8*%
X180602800Y-64008000D03*
X182677800Y-64008000D03*
%TD*%
D20*
%TO.C,C6*%
X183181900Y-70104000D03*
X181106900Y-70104000D03*
%TD*%
D22*
%TO.C,R3*%
X179451000Y-84439000D03*
X179451000Y-82439000D03*
%TD*%
D18*
%TO.C,R5*%
X183626000Y-84455000D03*
X181626000Y-84455000D03*
%TD*%
D21*
%TO.C,C4*%
X188954500Y-68580000D03*
X191029500Y-68580000D03*
%TD*%
%TO.C,C2*%
X181588500Y-90424000D03*
X183663500Y-90424000D03*
%TD*%
%TO.C,C11*%
X180598900Y-59944000D03*
X182673900Y-59944000D03*
%TD*%
%TO.C,C10*%
X180598900Y-61976000D03*
X182673900Y-61976000D03*
%TD*%
D18*
%TO.C,R4*%
X183626000Y-82296000D03*
X181626000Y-82296000D03*
%TD*%
D23*
%TO.C,GND*%
X185166000Y-57150000D03*
X182626000Y-57150000D03*
X180086000Y-57150000D03*
%TD*%
D24*
%TO.C,Q1*%
X189046000Y-72324000D03*
X189046000Y-70424000D03*
D25*
X191446000Y-71374000D03*
%TD*%
D19*
%TO.C,D1*%
X191430000Y-92456000D03*
X187030000Y-92456000D03*
%TD*%
D17*
%TO.C,C12*%
X189230000Y-84814500D03*
X189230000Y-86889500D03*
%TD*%
D26*
%TO.C,R13*%
X191516000Y-84852000D03*
X191516000Y-86852000D03*
%TD*%
D18*
%TO.C,R6*%
X190992000Y-74168000D03*
X188992000Y-74168000D03*
%TD*%
D27*
%TO.C,U1*%
X183763500Y-86426000D03*
X183763500Y-87376000D03*
X183763500Y-88326000D03*
X181488500Y-88326000D03*
X181488500Y-86426000D03*
%TD*%
D28*
%TO.C,U3*%
X183149300Y-66106000D03*
X183149300Y-67056000D03*
X183149300Y-68006000D03*
X180639300Y-68006000D03*
X180639300Y-66106000D03*
%TD*%
D20*
%TO.C,C9*%
X193950500Y-56642000D03*
X191875500Y-56642000D03*
%TD*%
D22*
%TO.C,R12*%
X188976000Y-62341000D03*
X188976000Y-60341000D03*
%TD*%
D18*
%TO.C,R1*%
X185912000Y-99060000D03*
X183912000Y-99060000D03*
%TD*%
D29*
%TO.C,R2*%
X187976000Y-99060000D03*
X189976000Y-99060000D03*
%TD*%
D21*
%TO.C,C7*%
X191875500Y-62230000D03*
X193950500Y-62230000D03*
%TD*%
D18*
%TO.C,R14*%
X188833000Y-82804000D03*
X186833000Y-82804000D03*
%TD*%
D30*
%TO.C,C1*%
X179451000Y-88540500D03*
X179451000Y-86465500D03*
%TD*%
D28*
%TO.C,U4*%
X191404000Y-60386000D03*
X191404000Y-59436000D03*
X191404000Y-58486000D03*
X193914000Y-58486000D03*
X193914000Y-60386000D03*
%TD*%
M02*
