%TF.GenerationSoftware,KiCad,Pcbnew,5.99.0-unknown-fc7f1d1d86~106~ubuntu20.04.1*%
%TF.CreationDate,2021-01-14T15:04:18+11:00*%
%TF.ProjectId,esp32-s2-feather,65737033-322d-4733-922d-666561746865,rev?*%
%TF.SameCoordinates,Original*%
%TF.FileFunction,Copper,L2,Inr*%
%TF.FilePolarity,Positive*%
%FSLAX46Y46*%
G04 Gerber Fmt 4.6, Leading zero omitted, Abs format (unit mm)*
G04 Created by KiCad (PCBNEW 5.99.0-unknown-fc7f1d1d86~106~ubuntu20.04.1) date 2021-01-14 15:04:18*
%MOMM*%
%LPD*%
G01*
G04 APERTURE LIST*
%TA.AperFunction,ComponentPad*%
%ADD10C,4.500000*%
%TD*%
%TA.AperFunction,ComponentPad*%
%ADD11O,1.158000X2.316000*%
%TD*%
%TA.AperFunction,ComponentPad*%
%ADD12O,1.200000X2.400000*%
%TD*%
%TA.AperFunction,ComponentPad*%
%ADD13C,0.400000*%
%TD*%
%TA.AperFunction,ComponentPad*%
%ADD14C,1.270000*%
%TD*%
%TA.AperFunction,ViaPad*%
%ADD15C,0.600000*%
%TD*%
%TA.AperFunction,ViaPad*%
%ADD16C,0.650000*%
%TD*%
G04 APERTURE END LIST*
D10*
%TO.N,GND*%
%TO.C,REF\u002A\u002A*%
X195580000Y-99060000D03*
%TD*%
D11*
%TO.N,GND*%
%TO.C,J1*%
X182624000Y-96811000D03*
X191264000Y-96811000D03*
D12*
X182624000Y-100636000D03*
X191264000Y-100636000D03*
%TD*%
D13*
%TO.N,GND*%
%TO.C,U5*%
X185500000Y-63435000D03*
X184000000Y-63435000D03*
X187000000Y-63435000D03*
X184000000Y-64935000D03*
X185500000Y-64935000D03*
X187000000Y-64935000D03*
X184750000Y-62685000D03*
X186250000Y-62685000D03*
X184750000Y-64185000D03*
X186250000Y-64185000D03*
X184750000Y-65685000D03*
X186250000Y-65685000D03*
%TD*%
D14*
%TO.N,+BATT*%
%TO.C,J3*%
X176530000Y-85090000D03*
%TO.N,/3V3A_EN*%
X176530000Y-82550000D03*
%TO.N,VBUS*%
X176530000Y-80010000D03*
%TO.N,/IO7*%
X176530000Y-77470000D03*
%TO.N,/IO6*%
X176530000Y-74930000D03*
%TO.N,/IO5*%
X176530000Y-72390000D03*
%TO.N,/IO4*%
X176530000Y-69850000D03*
%TO.N,/IO3*%
X176530000Y-67310000D03*
%TO.N,/IO2*%
X176530000Y-64770000D03*
%TO.N,/IO1*%
X176530000Y-62230000D03*
%TO.N,SCL*%
X176530000Y-59690000D03*
%TO.N,SDA*%
X176530000Y-57150000D03*
%TD*%
D10*
%TO.N,*%
%TO.C,REF\u002A\u002A*%
X195580000Y-45720000D03*
%TD*%
%TO.N,*%
%TO.C,REF\u002A\u002A*%
X177800000Y-45720000D03*
%TD*%
%TO.N,*%
%TO.C,REF\u002A\u002A*%
X177800000Y-99060000D03*
%TD*%
D14*
%TO.N,+3.3VA*%
%TO.C,J4*%
X196850000Y-57150000D03*
%TO.N,/IO17*%
X196850000Y-59690000D03*
%TO.N,/IO18*%
X196850000Y-62230000D03*
%TO.N,/IO37*%
X196850000Y-64770000D03*
%TO.N,/IO35*%
X196850000Y-67310000D03*
%TO.N,/IO36*%
X196850000Y-69850000D03*
%TO.N,/IO26*%
X196850000Y-72390000D03*
%TO.N,/IO21*%
X196850000Y-74930000D03*
%TO.N,/IO33*%
X196850000Y-77470000D03*
%TO.N,/IO34*%
X196850000Y-80010000D03*
%TO.N,/IO14*%
X196850000Y-82550000D03*
%TO.N,/IO12*%
X196850000Y-85090000D03*
%TO.N,GND*%
X196850000Y-87630000D03*
%TO.N,/IO0*%
X196850000Y-90170000D03*
%TO.N,+3V3*%
X196850000Y-92710000D03*
%TO.N,/ESP32-EN*%
X196850000Y-95250000D03*
%TD*%
D15*
%TO.N,GND*%
X196240400Y-55626000D03*
X184150000Y-61341000D03*
D16*
X185293000Y-87376000D03*
D15*
X193446400Y-78232000D03*
X182753000Y-65151000D03*
X191058800Y-67360800D03*
X190754000Y-56642000D03*
D16*
X189686000Y-100636000D03*
X188468000Y-90932000D03*
X179451000Y-85471000D03*
X193040000Y-88773000D03*
D15*
X183668400Y-59944000D03*
X179324000Y-55676800D03*
X192024000Y-74168000D03*
D16*
X180467000Y-90424000D03*
X185166000Y-57150000D03*
D15*
X193950500Y-63521500D03*
D16*
X184098000Y-100636000D03*
D15*
X181902138Y-68083738D03*
%TO.N,Net-(C1-Pad1)*%
X181991000Y-88315800D03*
D16*
X185166000Y-80645000D03*
D15*
X185360990Y-88586990D03*
%TO.N,+BATT*%
X185064400Y-90779600D03*
%TO.N,+3V3*%
X181636400Y-59944000D03*
D16*
X190754000Y-83693000D03*
X189992000Y-82804000D03*
D15*
X179425600Y-58420000D03*
X181636400Y-64008000D03*
X181864000Y-65405000D03*
X181636400Y-61976000D03*
X181864000Y-66929000D03*
%TO.N,/ESP32-EN*%
X191363600Y-81686400D03*
X194183000Y-81991200D03*
X197485000Y-58420000D03*
%TO.N,/IO0*%
X179324000Y-59436000D03*
X190500000Y-81686400D03*
X186690000Y-77216000D03*
X186690000Y-75946000D03*
X181229000Y-58420000D03*
%TO.N,VBUS*%
X180467000Y-92837000D03*
D16*
X184658000Y-95250000D03*
D15*
%TO.N,Net-(D2-Pad1)*%
X180594000Y-83439000D03*
%TO.N,Net-(D3-Pad1)*%
X180594000Y-82016600D03*
%TO.N,Net-(J1-Pad9)*%
X188194000Y-97643000D03*
%TO.N,Net-(J1-Pad3)*%
X185801000Y-97663000D03*
%TO.N,/IO1*%
X179070000Y-60706000D03*
%TO.N,/IO2*%
X179070000Y-61976000D03*
%TO.N,/IO3*%
X179070000Y-63754000D03*
%TO.N,/IO4*%
X179070000Y-65024000D03*
%TO.N,/IO5*%
X179070000Y-66548000D03*
%TO.N,/IO6*%
X179070000Y-68072000D03*
%TO.N,/IO7*%
X179070000Y-69596000D03*
%TO.N,/IO21*%
X191135000Y-77470000D03*
%TO.N,/IO26*%
X192405000Y-77470000D03*
%TO.N,/IO36*%
X194056000Y-74168000D03*
%TO.N,/IO35*%
X194056000Y-75438000D03*
%TO.N,/IO37*%
X194056000Y-72644000D03*
%TO.N,/IO18*%
X185039000Y-77851000D03*
X184785000Y-74295000D03*
%TO.N,/IO17*%
X184150000Y-77851000D03*
X184150000Y-75565000D03*
%TO.N,/RXD0*%
X180086000Y-57150000D03*
%TO.N,/TXD0*%
X182626000Y-57150000D03*
%TD*%
%TA.AperFunction,Conductor*%
%TO.N,GND*%
G36*
X197879191Y-55263907D02*
G01*
X197915155Y-55313407D01*
X197920000Y-55344000D01*
X197920000Y-57923493D01*
X197901093Y-57981684D01*
X197851593Y-58017648D01*
X197790407Y-58017648D01*
X197767153Y-58006568D01*
X197740325Y-57989179D01*
X197697033Y-57961118D01*
X197690275Y-57959097D01*
X197690273Y-57959096D01*
X197566479Y-57922074D01*
X197559718Y-57920052D01*
X197521727Y-57919820D01*
X197501088Y-57919694D01*
X197443013Y-57900432D01*
X197407352Y-57850713D01*
X197407726Y-57789529D01*
X197430238Y-57752174D01*
X197460055Y-57721082D01*
X197515919Y-57662827D01*
X197522758Y-57651624D01*
X197607712Y-57512446D01*
X197610507Y-57507867D01*
X197669613Y-57336212D01*
X197690480Y-57155868D01*
X197690500Y-57150000D01*
X197686618Y-57114264D01*
X197671472Y-56974840D01*
X197671471Y-56974835D01*
X197670893Y-56969515D01*
X197612987Y-56797451D01*
X197519483Y-56641834D01*
X197394745Y-56509927D01*
X197316350Y-56456650D01*
X197249025Y-56410896D01*
X197249023Y-56410895D01*
X197244591Y-56407883D01*
X197182079Y-56382880D01*
X197081006Y-56342453D01*
X197081002Y-56342452D01*
X197076027Y-56340462D01*
X197070742Y-56339587D01*
X197070738Y-56339586D01*
X196952612Y-56320031D01*
X196896918Y-56310811D01*
X196825832Y-56314536D01*
X196720974Y-56320031D01*
X196720970Y-56320032D01*
X196715620Y-56320312D01*
X196540591Y-56368523D01*
X196535852Y-56371022D01*
X196535851Y-56371022D01*
X196384735Y-56450696D01*
X196384732Y-56450698D01*
X196379998Y-56453194D01*
X196316431Y-56506913D01*
X196245423Y-56566919D01*
X196245421Y-56566922D01*
X196241334Y-56570375D01*
X196131066Y-56714598D01*
X196128802Y-56719454D01*
X196128801Y-56719455D01*
X196105079Y-56770327D01*
X196054341Y-56879136D01*
X196014738Y-57056310D01*
X196014104Y-57237856D01*
X196015238Y-57243100D01*
X196051335Y-57410056D01*
X196051337Y-57410061D01*
X196052470Y-57415303D01*
X196128044Y-57580372D01*
X196131266Y-57584648D01*
X196131268Y-57584651D01*
X196150548Y-57610236D01*
X196237302Y-57725362D01*
X196375145Y-57843508D01*
X196379871Y-57846042D01*
X196517232Y-57919694D01*
X196535143Y-57929298D01*
X196540299Y-57930757D01*
X196704674Y-57977271D01*
X196704677Y-57977271D01*
X196709831Y-57978730D01*
X196715183Y-57979048D01*
X196885705Y-57989179D01*
X196891058Y-57989497D01*
X196975482Y-57976125D01*
X197035913Y-57985696D01*
X197079178Y-58028960D01*
X197088750Y-58089392D01*
X197069494Y-58130271D01*
X197071040Y-58131287D01*
X197067166Y-58137184D01*
X197062499Y-58142469D01*
X197001588Y-58272206D01*
X196979538Y-58413824D01*
X196998121Y-58555939D01*
X197000962Y-58562395D01*
X197000962Y-58562396D01*
X197002870Y-58566731D01*
X197055845Y-58687126D01*
X197060384Y-58692526D01*
X197060386Y-58692529D01*
X197068930Y-58702694D01*
X197091899Y-58759404D01*
X197077147Y-58818785D01*
X197030310Y-58858154D01*
X196976978Y-58864065D01*
X196896918Y-58850811D01*
X196825832Y-58854536D01*
X196720974Y-58860031D01*
X196720970Y-58860032D01*
X196715620Y-58860312D01*
X196540591Y-58908523D01*
X196535852Y-58911022D01*
X196535851Y-58911022D01*
X196384735Y-58990696D01*
X196384732Y-58990698D01*
X196379998Y-58993194D01*
X196333408Y-59032566D01*
X196245423Y-59106919D01*
X196245421Y-59106922D01*
X196241334Y-59110375D01*
X196131066Y-59254598D01*
X196054341Y-59419136D01*
X196053172Y-59424367D01*
X196053171Y-59424369D01*
X196038734Y-59488956D01*
X196014738Y-59596310D01*
X196014719Y-59601668D01*
X196014719Y-59601671D01*
X196014493Y-59666469D01*
X196014104Y-59777856D01*
X196022513Y-59816747D01*
X196051335Y-59950056D01*
X196051337Y-59950061D01*
X196052470Y-59955303D01*
X196128044Y-60120372D01*
X196237302Y-60265362D01*
X196375145Y-60383508D01*
X196379871Y-60386042D01*
X196490751Y-60445495D01*
X196535143Y-60469298D01*
X196540299Y-60470757D01*
X196704674Y-60517271D01*
X196704677Y-60517271D01*
X196709831Y-60518730D01*
X196715183Y-60519048D01*
X196885705Y-60529179D01*
X196891058Y-60529497D01*
X196896355Y-60528658D01*
X196896356Y-60528658D01*
X196968271Y-60517267D01*
X197070370Y-60501096D01*
X197239400Y-60434854D01*
X197243855Y-60431872D01*
X197243860Y-60431869D01*
X197337060Y-60369477D01*
X197390263Y-60333860D01*
X197488039Y-60231900D01*
X197512205Y-60206700D01*
X197515919Y-60202827D01*
X197610507Y-60047867D01*
X197669613Y-59876212D01*
X197690480Y-59695868D01*
X197690500Y-59690000D01*
X197686618Y-59654264D01*
X197671472Y-59514840D01*
X197671471Y-59514835D01*
X197670893Y-59509515D01*
X197612987Y-59337451D01*
X197519483Y-59181834D01*
X197515801Y-59177940D01*
X197515797Y-59177935D01*
X197430596Y-59087837D01*
X197404352Y-59032566D01*
X197415607Y-58972425D01*
X197460063Y-58930386D01*
X197504341Y-58920833D01*
X197517706Y-58921078D01*
X197540428Y-58921495D01*
X197540430Y-58921495D01*
X197547481Y-58921624D01*
X197554284Y-58919769D01*
X197554286Y-58919769D01*
X197601065Y-58907015D01*
X197685758Y-58883925D01*
X197727730Y-58858154D01*
X197769199Y-58832692D01*
X197828681Y-58818356D01*
X197885230Y-58841722D01*
X197917244Y-58893863D01*
X197920000Y-58917058D01*
X197920000Y-99004007D01*
X197917165Y-99027527D01*
X197915328Y-99035035D01*
X197915250Y-99040635D01*
X197913619Y-99157681D01*
X197913448Y-99162278D01*
X197909532Y-99227030D01*
X197908992Y-99232975D01*
X197908324Y-99238477D01*
X197882713Y-99449402D01*
X197881818Y-99455288D01*
X197872404Y-99506659D01*
X197871167Y-99512419D01*
X197855635Y-99575436D01*
X197818988Y-99724118D01*
X197817382Y-99729879D01*
X197801864Y-99779676D01*
X197799914Y-99785328D01*
X197722613Y-99989156D01*
X197720324Y-99994681D01*
X197698913Y-100042254D01*
X197696295Y-100047631D01*
X197594995Y-100240641D01*
X197592063Y-100245839D01*
X197565054Y-100290519D01*
X197561816Y-100295525D01*
X197437996Y-100474909D01*
X197434452Y-100479726D01*
X197402278Y-100520793D01*
X197398450Y-100525387D01*
X197253899Y-100688552D01*
X197249800Y-100692907D01*
X197212899Y-100729808D01*
X197208545Y-100733905D01*
X197045390Y-100878448D01*
X197040824Y-100882254D01*
X196999698Y-100914474D01*
X196994938Y-100917976D01*
X196815504Y-101041831D01*
X196810524Y-101045051D01*
X196765817Y-101072077D01*
X196760637Y-101074998D01*
X196655045Y-101130417D01*
X196567644Y-101176288D01*
X196562269Y-101178905D01*
X196514682Y-101200323D01*
X196509172Y-101202607D01*
X196424472Y-101234729D01*
X196305326Y-101279915D01*
X196299673Y-101281865D01*
X196249875Y-101297383D01*
X196244114Y-101298989D01*
X196032426Y-101351165D01*
X196026659Y-101352404D01*
X195975291Y-101361817D01*
X195969408Y-101362712D01*
X195752994Y-101388990D01*
X195747038Y-101389531D01*
X195682278Y-101393448D01*
X195677680Y-101393619D01*
X195637142Y-101394184D01*
X195555227Y-101395325D01*
X195547488Y-101397204D01*
X195524129Y-101400000D01*
X192585800Y-101400000D01*
X192566326Y-101398066D01*
X192566261Y-101398053D01*
X192548357Y-101394461D01*
X192542757Y-101394618D01*
X192504926Y-101395679D01*
X192504836Y-101392466D01*
X192504608Y-101392483D01*
X192504719Y-101395587D01*
X192504717Y-101395587D01*
X192492399Y-101396028D01*
X192491775Y-101396048D01*
X192474415Y-101396534D01*
X192442618Y-101397425D01*
X192442614Y-101397426D01*
X192437711Y-101397563D01*
X192435809Y-101398053D01*
X192433666Y-101398130D01*
X192387149Y-101410594D01*
X192386458Y-101410775D01*
X192369031Y-101415268D01*
X192369028Y-101415269D01*
X192368018Y-101411350D01*
X192367614Y-101411416D01*
X192368717Y-101415533D01*
X192324415Y-101427404D01*
X192323666Y-101424610D01*
X192320842Y-101425558D01*
X192321261Y-101426924D01*
X192321260Y-101426924D01*
X192288715Y-101436904D01*
X192285393Y-101437859D01*
X192262410Y-101444018D01*
X192258108Y-101446291D01*
X192253289Y-101447769D01*
X192248444Y-101450566D01*
X192248438Y-101450569D01*
X192233065Y-101459445D01*
X192229823Y-101461237D01*
X192199701Y-101477152D01*
X192198620Y-101475106D01*
X192195661Y-101476343D01*
X192197695Y-101479866D01*
X192155338Y-101504321D01*
X192153907Y-101501842D01*
X192151423Y-101503483D01*
X192152168Y-101504673D01*
X192152166Y-101504674D01*
X192123287Y-101522754D01*
X192120354Y-101524519D01*
X192099746Y-101536417D01*
X192096176Y-101539729D01*
X192091906Y-101542402D01*
X192085905Y-101548403D01*
X192084452Y-101549143D01*
X192083558Y-101549855D01*
X192083413Y-101549673D01*
X192031388Y-101576180D01*
X192015901Y-101577399D01*
X181872100Y-101577399D01*
X181813909Y-101558492D01*
X181802096Y-101548403D01*
X181796230Y-101542537D01*
X181792109Y-101539947D01*
X181788420Y-101536513D01*
X181768235Y-101524859D01*
X181765055Y-101522943D01*
X181736180Y-101504795D01*
X181737412Y-101502835D01*
X181734861Y-101500891D01*
X181732826Y-101504416D01*
X181690471Y-101479962D01*
X181691944Y-101477411D01*
X181689269Y-101476090D01*
X181688579Y-101477391D01*
X181658512Y-101461438D01*
X181655413Y-101459721D01*
X181639697Y-101450647D01*
X181639691Y-101450644D01*
X181634877Y-101447865D01*
X181630226Y-101446430D01*
X181625775Y-101444068D01*
X181620370Y-101442620D01*
X181620363Y-101442617D01*
X181603238Y-101438028D01*
X181599670Y-101437000D01*
X181567106Y-101426951D01*
X181567788Y-101424741D01*
X181564820Y-101423523D01*
X181563767Y-101427453D01*
X181519469Y-101415583D01*
X181520305Y-101412462D01*
X181520080Y-101412413D01*
X181519295Y-101415436D01*
X181507490Y-101412371D01*
X181506745Y-101412174D01*
X181459268Y-101399452D01*
X181459266Y-101399452D01*
X181454520Y-101398180D01*
X181452554Y-101398106D01*
X181450481Y-101397568D01*
X181402403Y-101396221D01*
X181401567Y-101396193D01*
X181383644Y-101395520D01*
X181383643Y-101395520D01*
X181383795Y-101391477D01*
X181383387Y-101391425D01*
X181383268Y-101395684D01*
X181339834Y-101394466D01*
X181328919Y-101396636D01*
X181321555Y-101398100D01*
X181302251Y-101400000D01*
X179022896Y-101400000D01*
X178964705Y-101381093D01*
X178928741Y-101331593D01*
X178928741Y-101270407D01*
X178964705Y-101220907D01*
X178980038Y-101211758D01*
X179001679Y-101201366D01*
X179004325Y-101199651D01*
X179004332Y-101199647D01*
X179261382Y-101033035D01*
X179261389Y-101033030D01*
X179264030Y-101031318D01*
X179315761Y-100987525D01*
X179371972Y-100939938D01*
X179502648Y-100829313D01*
X179504775Y-100826988D01*
X179504781Y-100826982D01*
X179711541Y-100600947D01*
X179711542Y-100600946D01*
X179713664Y-100598626D01*
X179765351Y-100525219D01*
X179891836Y-100345583D01*
X179891838Y-100345580D01*
X179893658Y-100342995D01*
X180039711Y-100066566D01*
X180107053Y-99886929D01*
X180148346Y-99776781D01*
X180148348Y-99776775D01*
X180149456Y-99773819D01*
X180221113Y-99469501D01*
X180245211Y-99238285D01*
X180253309Y-99160592D01*
X180253310Y-99160581D01*
X180253522Y-99158544D01*
X180255500Y-99060000D01*
X180235597Y-98747993D01*
X180176210Y-98441044D01*
X180139323Y-98329181D01*
X180079292Y-98147129D01*
X180079290Y-98147123D01*
X180078302Y-98144128D01*
X179988691Y-97956676D01*
X179944818Y-97864901D01*
X179944816Y-97864897D01*
X179943460Y-97862061D01*
X179814965Y-97663056D01*
X179775583Y-97602064D01*
X179775581Y-97602061D01*
X179775048Y-97601236D01*
X183427604Y-97601236D01*
X183429349Y-97607747D01*
X183429349Y-97607750D01*
X183445575Y-97668304D01*
X183464170Y-97737702D01*
X183467604Y-97743508D01*
X183467605Y-97743511D01*
X183530521Y-97849894D01*
X183536088Y-97859307D01*
X183540962Y-97863981D01*
X183605293Y-97925672D01*
X183638058Y-97957093D01*
X183643999Y-97960279D01*
X183644001Y-97960280D01*
X183745005Y-98014438D01*
X183762568Y-98023855D01*
X183900446Y-98054675D01*
X183907185Y-98054322D01*
X183907187Y-98054322D01*
X183953639Y-98051887D01*
X184041532Y-98047281D01*
X184175433Y-98002218D01*
X184199680Y-97985740D01*
X184222251Y-97970400D01*
X184292282Y-97922807D01*
X184298782Y-97915115D01*
X184379117Y-97820053D01*
X184379118Y-97820051D01*
X184383473Y-97814898D01*
X184387823Y-97805398D01*
X184439476Y-97692577D01*
X184439477Y-97692575D01*
X184442285Y-97686441D01*
X184444359Y-97673351D01*
X184446977Y-97656824D01*
X185295538Y-97656824D01*
X185296453Y-97663822D01*
X185309662Y-97764835D01*
X185314121Y-97798939D01*
X185316962Y-97805395D01*
X185316962Y-97805396D01*
X185368625Y-97922807D01*
X185371845Y-97930126D01*
X185376382Y-97935523D01*
X185376383Y-97935525D01*
X185404256Y-97968683D01*
X185464068Y-98039838D01*
X185469939Y-98043746D01*
X185469940Y-98043747D01*
X185489957Y-98057071D01*
X185583377Y-98119257D01*
X185590104Y-98121359D01*
X185590107Y-98121360D01*
X185713448Y-98159894D01*
X185713449Y-98159894D01*
X185720180Y-98161997D01*
X185791831Y-98163311D01*
X185856427Y-98164495D01*
X185856429Y-98164495D01*
X185863481Y-98164624D01*
X185870284Y-98162769D01*
X185870286Y-98162769D01*
X185936839Y-98144624D01*
X186001758Y-98126925D01*
X186123897Y-98051931D01*
X186132598Y-98042318D01*
X186215346Y-97950900D01*
X186215346Y-97950899D01*
X186220078Y-97945672D01*
X186270379Y-97841852D01*
X186279494Y-97823038D01*
X186282570Y-97816689D01*
X186283905Y-97808759D01*
X186305715Y-97679120D01*
X186305715Y-97679117D01*
X186306349Y-97675350D01*
X186306500Y-97663000D01*
X186302751Y-97636824D01*
X187688538Y-97636824D01*
X187689453Y-97643822D01*
X187704671Y-97760199D01*
X187707121Y-97778939D01*
X187709962Y-97785395D01*
X187709962Y-97785396D01*
X187754751Y-97887185D01*
X187764845Y-97910126D01*
X187769382Y-97915523D01*
X187769383Y-97915525D01*
X187816895Y-97972047D01*
X187857068Y-98019838D01*
X187862939Y-98023746D01*
X187862940Y-98023747D01*
X187873868Y-98031021D01*
X187976377Y-98099257D01*
X187983104Y-98101359D01*
X187983107Y-98101360D01*
X188106448Y-98139894D01*
X188106449Y-98139894D01*
X188113180Y-98141997D01*
X188184830Y-98143310D01*
X188249427Y-98144495D01*
X188249429Y-98144495D01*
X188256481Y-98144624D01*
X188263284Y-98142769D01*
X188263286Y-98142769D01*
X188314599Y-98128779D01*
X188394758Y-98106925D01*
X188516897Y-98031931D01*
X188526159Y-98021699D01*
X188608346Y-97930900D01*
X188608346Y-97930899D01*
X188613078Y-97925672D01*
X188661201Y-97826346D01*
X188672494Y-97803038D01*
X188675570Y-97796689D01*
X188678557Y-97778939D01*
X188698715Y-97659120D01*
X188698715Y-97659117D01*
X188699349Y-97655350D01*
X188699407Y-97650659D01*
X188699453Y-97646826D01*
X188699500Y-97643000D01*
X188698650Y-97637061D01*
X188680182Y-97508106D01*
X188679182Y-97501123D01*
X188674273Y-97490325D01*
X188672208Y-97485783D01*
X189297929Y-97485783D01*
X189300661Y-97495278D01*
X189300654Y-97501598D01*
X189300179Y-97509768D01*
X189299015Y-97520024D01*
X189299000Y-97520292D01*
X189298062Y-97525824D01*
X189298388Y-97531421D01*
X189298319Y-97532668D01*
X189298319Y-97539009D01*
X189298396Y-97540433D01*
X189298073Y-97545984D01*
X189298992Y-97551462D01*
X189299001Y-97551627D01*
X189300160Y-97561920D01*
X189300657Y-97570452D01*
X189300659Y-97576494D01*
X189297949Y-97585851D01*
X189299799Y-97596848D01*
X189299799Y-97596850D01*
X189302562Y-97613274D01*
X189303767Y-97623948D01*
X189304219Y-97631721D01*
X189305768Y-97637061D01*
X189306067Y-97638092D01*
X189308613Y-97649239D01*
X189309744Y-97655962D01*
X189311887Y-97661135D01*
X189311887Y-97661137D01*
X189312682Y-97663056D01*
X189316294Y-97673349D01*
X189323979Y-97699838D01*
X189330574Y-97707194D01*
X189333323Y-97712890D01*
X189349465Y-97751861D01*
X189351542Y-97759936D01*
X189351790Y-97759850D01*
X189355456Y-97770377D01*
X189356689Y-97781456D01*
X189362604Y-97790904D01*
X189369260Y-97801535D01*
X189371895Y-97806011D01*
X189374000Y-97811094D01*
X189377210Y-97815620D01*
X189377212Y-97815623D01*
X189382953Y-97823716D01*
X189386097Y-97828429D01*
X189394416Y-97841716D01*
X189398312Y-97845612D01*
X189401386Y-97849702D01*
X189408275Y-97859413D01*
X189415035Y-97868943D01*
X189424791Y-97874340D01*
X189433101Y-97881770D01*
X189432962Y-97881925D01*
X189439692Y-97886992D01*
X189467815Y-97915115D01*
X189472823Y-97921779D01*
X189473019Y-97921604D01*
X189480434Y-97929927D01*
X189485813Y-97939691D01*
X189505119Y-97953437D01*
X189509256Y-97956556D01*
X189513148Y-97960448D01*
X189517847Y-97963402D01*
X189517854Y-97963407D01*
X189526248Y-97968683D01*
X189530980Y-97971851D01*
X189539165Y-97977678D01*
X189539168Y-97977680D01*
X189543729Y-97980927D01*
X189548817Y-97983034D01*
X189553233Y-97985642D01*
X189563756Y-97992256D01*
X189563758Y-97992257D01*
X189573198Y-97998190D01*
X189584276Y-97999442D01*
X189594801Y-98003128D01*
X189594732Y-98003324D01*
X189602887Y-98005430D01*
X189642173Y-98021702D01*
X189647599Y-98024327D01*
X189654841Y-98030843D01*
X189665544Y-98033968D01*
X189681528Y-98038635D01*
X189691668Y-98042204D01*
X189693720Y-98043054D01*
X189693724Y-98043055D01*
X189698861Y-98045183D01*
X189705402Y-98046295D01*
X189716554Y-98048862D01*
X189723087Y-98050770D01*
X189730468Y-98051199D01*
X189730757Y-98051216D01*
X189741591Y-98052448D01*
X189768783Y-98057071D01*
X189778279Y-98054339D01*
X189784598Y-98054346D01*
X189823442Y-98056605D01*
X189823445Y-98056605D01*
X189828985Y-98056927D01*
X189834456Y-98056009D01*
X189834459Y-98056009D01*
X189856184Y-98052364D01*
X189872564Y-98051000D01*
X189873074Y-98051000D01*
X189890386Y-98052911D01*
X189893859Y-98053203D01*
X189900446Y-98054675D01*
X189907185Y-98054322D01*
X189907187Y-98054322D01*
X189967974Y-98051136D01*
X189973155Y-98051000D01*
X190015469Y-98051000D01*
X190032018Y-98052393D01*
X190058824Y-98056938D01*
X190064415Y-98056613D01*
X190064417Y-98056613D01*
X190076731Y-98055897D01*
X190103468Y-98054342D01*
X190109493Y-98054340D01*
X190118851Y-98057051D01*
X190129848Y-98055201D01*
X190129850Y-98055201D01*
X190146274Y-98052438D01*
X190156948Y-98051233D01*
X190159170Y-98051104D01*
X190159173Y-98051104D01*
X190164721Y-98050781D01*
X190171094Y-98048933D01*
X190182239Y-98046387D01*
X190188962Y-98045256D01*
X190194135Y-98043113D01*
X190194137Y-98043113D01*
X190196056Y-98042318D01*
X190206351Y-98038705D01*
X190232838Y-98031021D01*
X190240194Y-98024426D01*
X190245890Y-98021677D01*
X190284861Y-98005535D01*
X190292936Y-98003458D01*
X190292850Y-98003210D01*
X190303377Y-97999544D01*
X190314456Y-97998311D01*
X190324128Y-97992256D01*
X190334535Y-97985740D01*
X190339011Y-97983105D01*
X190344094Y-97981000D01*
X190348620Y-97977790D01*
X190348623Y-97977788D01*
X190356716Y-97972047D01*
X190361429Y-97968903D01*
X190374716Y-97960584D01*
X190378612Y-97956688D01*
X190382702Y-97953614D01*
X190392848Y-97946417D01*
X190392849Y-97946416D01*
X190401943Y-97939965D01*
X190407340Y-97930209D01*
X190414770Y-97921899D01*
X190414925Y-97922038D01*
X190419992Y-97915308D01*
X190448115Y-97887185D01*
X190454779Y-97882177D01*
X190454604Y-97881981D01*
X190462927Y-97874566D01*
X190472691Y-97869187D01*
X190486437Y-97849881D01*
X190489556Y-97845744D01*
X190493448Y-97841852D01*
X190496402Y-97837153D01*
X190496407Y-97837146D01*
X190501683Y-97828752D01*
X190504851Y-97824020D01*
X190510678Y-97815835D01*
X190510680Y-97815832D01*
X190513927Y-97811271D01*
X190516034Y-97806183D01*
X190518642Y-97801767D01*
X190525256Y-97791244D01*
X190525257Y-97791242D01*
X190531190Y-97781802D01*
X190532442Y-97770724D01*
X190536128Y-97760199D01*
X190536324Y-97760268D01*
X190538430Y-97752113D01*
X190554699Y-97712834D01*
X190557327Y-97707401D01*
X190563843Y-97700159D01*
X190571635Y-97673471D01*
X190575204Y-97663332D01*
X190576054Y-97661280D01*
X190576055Y-97661276D01*
X190578183Y-97656139D01*
X190579295Y-97649598D01*
X190581862Y-97638447D01*
X190582199Y-97637292D01*
X190583770Y-97631913D01*
X190584216Y-97624243D01*
X190585448Y-97613409D01*
X190590071Y-97586217D01*
X190587339Y-97576721D01*
X190587346Y-97570404D01*
X190587821Y-97562232D01*
X190588985Y-97551975D01*
X190589000Y-97551709D01*
X190589938Y-97546176D01*
X190589612Y-97540577D01*
X190589680Y-97539347D01*
X190589681Y-97532986D01*
X190589604Y-97531564D01*
X190589927Y-97526015D01*
X190589008Y-97520537D01*
X190588999Y-97520372D01*
X190587840Y-97510080D01*
X190587343Y-97501549D01*
X190587341Y-97495508D01*
X190590051Y-97486150D01*
X190588201Y-97475151D01*
X190585438Y-97458728D01*
X190584233Y-97448053D01*
X190584104Y-97445831D01*
X190584104Y-97445828D01*
X190583781Y-97440279D01*
X190581933Y-97433910D01*
X190579383Y-97422741D01*
X190579326Y-97422398D01*
X190578256Y-97416039D01*
X190575319Y-97408948D01*
X190571704Y-97398645D01*
X190567129Y-97382875D01*
X190567128Y-97382873D01*
X190564021Y-97372162D01*
X190557424Y-97364805D01*
X190554675Y-97359108D01*
X190538536Y-97320142D01*
X190536458Y-97312066D01*
X190536211Y-97312152D01*
X190532544Y-97301622D01*
X190531311Y-97290544D01*
X190518720Y-97270432D01*
X190516106Y-97265991D01*
X190514000Y-97260907D01*
X190505060Y-97248304D01*
X190501895Y-97243559D01*
X190496555Y-97235030D01*
X190493584Y-97230284D01*
X190489689Y-97226389D01*
X190486614Y-97222298D01*
X190479418Y-97212153D01*
X190479414Y-97212149D01*
X190472965Y-97203058D01*
X190463209Y-97197661D01*
X190454901Y-97190233D01*
X190455040Y-97190077D01*
X190448311Y-97185011D01*
X190420189Y-97156889D01*
X190415180Y-97150224D01*
X190414984Y-97150398D01*
X190407567Y-97142073D01*
X190402188Y-97132309D01*
X190393108Y-97125845D01*
X190393106Y-97125842D01*
X190382889Y-97118568D01*
X190378740Y-97115440D01*
X190374852Y-97111552D01*
X190361750Y-97103317D01*
X190357013Y-97100146D01*
X190348828Y-97094318D01*
X190348825Y-97094316D01*
X190344271Y-97091074D01*
X190339186Y-97088967D01*
X190334780Y-97086366D01*
X190324240Y-97079742D01*
X190324241Y-97079742D01*
X190314802Y-97073810D01*
X190303725Y-97072557D01*
X190293204Y-97068873D01*
X190293273Y-97068676D01*
X190285113Y-97066570D01*
X190245829Y-97050298D01*
X190240403Y-97047674D01*
X190233159Y-97041157D01*
X190206449Y-97033358D01*
X190196336Y-97029798D01*
X190189139Y-97026817D01*
X190182598Y-97025705D01*
X190171447Y-97023138D01*
X190171200Y-97023066D01*
X190164913Y-97021230D01*
X190157532Y-97020801D01*
X190157243Y-97020784D01*
X190146409Y-97019552D01*
X190119217Y-97014929D01*
X190109722Y-97017661D01*
X190103402Y-97017654D01*
X190064559Y-97015395D01*
X190064556Y-97015395D01*
X190059016Y-97015073D01*
X190053545Y-97015991D01*
X190053542Y-97015991D01*
X190031817Y-97019636D01*
X190015437Y-97021000D01*
X189975858Y-97021000D01*
X189968607Y-97020734D01*
X189918052Y-97017021D01*
X189918048Y-97017021D01*
X189911318Y-97016527D01*
X189904703Y-97017861D01*
X189904700Y-97017861D01*
X189898820Y-97019047D01*
X189879252Y-97021000D01*
X189872531Y-97021000D01*
X189855981Y-97019607D01*
X189855651Y-97019551D01*
X189829176Y-97015062D01*
X189823585Y-97015387D01*
X189823583Y-97015387D01*
X189809910Y-97016182D01*
X189784533Y-97017658D01*
X189778509Y-97017660D01*
X189769150Y-97014949D01*
X189758153Y-97016799D01*
X189758152Y-97016799D01*
X189741728Y-97019562D01*
X189731053Y-97020767D01*
X189728831Y-97020896D01*
X189728828Y-97020896D01*
X189723279Y-97021219D01*
X189716910Y-97023067D01*
X189705747Y-97025616D01*
X189699039Y-97026744D01*
X189693865Y-97028887D01*
X189693866Y-97028887D01*
X189691948Y-97029681D01*
X189681645Y-97033296D01*
X189665875Y-97037871D01*
X189665873Y-97037872D01*
X189655162Y-97040979D01*
X189647805Y-97047576D01*
X189642108Y-97050325D01*
X189603142Y-97066464D01*
X189595066Y-97068542D01*
X189595152Y-97068789D01*
X189584622Y-97072456D01*
X189573544Y-97073689D01*
X189553432Y-97086280D01*
X189548991Y-97088894D01*
X189543907Y-97091000D01*
X189539377Y-97094214D01*
X189539376Y-97094214D01*
X189531304Y-97099940D01*
X189526559Y-97103105D01*
X189513284Y-97111416D01*
X189509389Y-97115311D01*
X189505298Y-97118386D01*
X189495153Y-97125582D01*
X189495149Y-97125586D01*
X189486058Y-97132035D01*
X189480661Y-97141791D01*
X189473233Y-97150099D01*
X189473077Y-97149960D01*
X189468011Y-97156689D01*
X189439889Y-97184811D01*
X189433224Y-97189820D01*
X189433398Y-97190016D01*
X189425073Y-97197433D01*
X189415309Y-97202812D01*
X189408845Y-97211892D01*
X189408842Y-97211894D01*
X189401568Y-97222111D01*
X189398440Y-97226260D01*
X189394552Y-97230148D01*
X189391598Y-97234848D01*
X189386318Y-97243249D01*
X189383147Y-97247986D01*
X189374074Y-97260729D01*
X189371967Y-97265814D01*
X189369366Y-97270219D01*
X189356810Y-97290198D01*
X189355557Y-97301275D01*
X189351873Y-97311796D01*
X189351676Y-97311727D01*
X189349570Y-97319886D01*
X189333325Y-97359108D01*
X189333301Y-97359165D01*
X189330674Y-97364597D01*
X189324157Y-97371841D01*
X189316358Y-97398551D01*
X189312798Y-97408664D01*
X189309817Y-97415861D01*
X189308849Y-97421557D01*
X189308706Y-97422398D01*
X189306138Y-97433553D01*
X189304230Y-97440087D01*
X189303905Y-97445682D01*
X189303784Y-97447757D01*
X189302552Y-97458591D01*
X189297929Y-97485783D01*
X188672208Y-97485783D01*
X188622780Y-97377073D01*
X188622780Y-97377072D01*
X188619860Y-97370651D01*
X188526303Y-97262074D01*
X188406033Y-97184118D01*
X188399275Y-97182097D01*
X188399273Y-97182096D01*
X188275479Y-97145074D01*
X188268718Y-97143052D01*
X188182694Y-97142527D01*
X188132448Y-97142220D01*
X188125396Y-97142177D01*
X188118620Y-97144114D01*
X188118617Y-97144114D01*
X187994369Y-97179624D01*
X187994367Y-97179625D01*
X187987589Y-97181562D01*
X187866375Y-97258042D01*
X187771499Y-97365469D01*
X187710588Y-97495206D01*
X187688538Y-97636824D01*
X186302751Y-97636824D01*
X186286182Y-97521123D01*
X186281020Y-97509768D01*
X186229780Y-97397073D01*
X186229780Y-97397072D01*
X186226860Y-97390651D01*
X186133303Y-97282074D01*
X186013033Y-97204118D01*
X186006275Y-97202097D01*
X186006273Y-97202096D01*
X185882479Y-97165074D01*
X185875718Y-97163052D01*
X185789694Y-97162527D01*
X185739448Y-97162220D01*
X185732396Y-97162177D01*
X185725620Y-97164114D01*
X185725617Y-97164114D01*
X185601369Y-97199624D01*
X185601367Y-97199625D01*
X185594589Y-97201562D01*
X185588625Y-97205325D01*
X185521010Y-97247987D01*
X185473375Y-97278042D01*
X185378499Y-97385469D01*
X185317588Y-97515206D01*
X185295538Y-97656824D01*
X184446977Y-97656824D01*
X184463817Y-97550493D01*
X184464386Y-97546901D01*
X184464500Y-97536000D01*
X184445326Y-97396027D01*
X184442649Y-97389841D01*
X184442648Y-97389837D01*
X184391895Y-97272555D01*
X184391894Y-97272554D01*
X184389217Y-97266367D01*
X184384652Y-97260729D01*
X184304552Y-97161814D01*
X184304551Y-97161814D01*
X184300307Y-97156572D01*
X184286779Y-97146958D01*
X184190644Y-97078638D01*
X184190643Y-97078637D01*
X184185146Y-97074731D01*
X184178802Y-97072447D01*
X184178798Y-97072445D01*
X184058566Y-97029159D01*
X184058563Y-97029158D01*
X184052218Y-97026874D01*
X184027993Y-97025095D01*
X183918052Y-97017021D01*
X183918048Y-97017021D01*
X183911318Y-97016527D01*
X183904703Y-97017861D01*
X183904701Y-97017861D01*
X183805463Y-97037871D01*
X183772825Y-97044452D01*
X183766819Y-97047512D01*
X183766817Y-97047513D01*
X183711982Y-97075453D01*
X183646944Y-97108592D01*
X183641981Y-97113155D01*
X183641979Y-97113157D01*
X183599016Y-97152664D01*
X183542948Y-97204221D01*
X183539391Y-97209958D01*
X183476082Y-97312066D01*
X183468500Y-97324294D01*
X183466617Y-97330776D01*
X183434859Y-97440087D01*
X183429084Y-97459964D01*
X183429013Y-97466711D01*
X183429013Y-97466713D01*
X183428768Y-97490088D01*
X183427604Y-97601236D01*
X179775048Y-97601236D01*
X179773871Y-97599413D01*
X179572282Y-97360442D01*
X179341963Y-97149024D01*
X179336374Y-97145074D01*
X179089221Y-96970404D01*
X179089220Y-96970403D01*
X179086647Y-96968585D01*
X178900575Y-96869856D01*
X178813253Y-96823523D01*
X178813246Y-96823520D01*
X178810474Y-96822049D01*
X178517919Y-96711794D01*
X178299478Y-96659955D01*
X178216786Y-96640331D01*
X178216783Y-96640331D01*
X178213726Y-96639605D01*
X178080407Y-96625475D01*
X177905953Y-96606985D01*
X177905946Y-96606985D01*
X177902826Y-96606654D01*
X177590259Y-96613474D01*
X177281092Y-96659955D01*
X177278054Y-96660818D01*
X177278052Y-96660818D01*
X176983376Y-96744481D01*
X176983373Y-96744482D01*
X176980337Y-96745344D01*
X176977429Y-96746587D01*
X176977430Y-96746587D01*
X176695774Y-96867014D01*
X176695770Y-96867016D01*
X176692870Y-96868256D01*
X176423351Y-97026698D01*
X176420852Y-97028633D01*
X176420846Y-97028637D01*
X176328491Y-97100146D01*
X176176149Y-97218102D01*
X176167848Y-97226418D01*
X175973271Y-97421335D01*
X175955271Y-97439366D01*
X175953352Y-97441854D01*
X175953348Y-97441858D01*
X175774659Y-97673472D01*
X175764298Y-97686902D01*
X175650199Y-97881770D01*
X175644433Y-97891617D01*
X175598714Y-97932279D01*
X175537826Y-97938303D01*
X175485026Y-97907387D01*
X175460481Y-97851341D01*
X175460000Y-97841594D01*
X175460000Y-95316489D01*
X184131683Y-95316489D01*
X184168952Y-95455577D01*
X184172388Y-95461387D01*
X184215483Y-95534256D01*
X184242251Y-95579519D01*
X184247120Y-95584188D01*
X184247123Y-95584192D01*
X184304364Y-95639084D01*
X184346180Y-95679184D01*
X184473083Y-95747228D01*
X184479662Y-95748699D01*
X184479666Y-95748700D01*
X184607023Y-95777167D01*
X184607024Y-95777167D01*
X184613609Y-95778639D01*
X184620348Y-95778286D01*
X184620350Y-95778286D01*
X184667620Y-95775808D01*
X184757406Y-95771103D01*
X184763807Y-95768949D01*
X184887485Y-95727327D01*
X184887486Y-95727326D01*
X184893879Y-95725175D01*
X185012974Y-95644238D01*
X185017328Y-95639086D01*
X185017330Y-95639084D01*
X185072576Y-95573708D01*
X185105916Y-95534256D01*
X185165858Y-95403331D01*
X185176229Y-95337856D01*
X196014104Y-95337856D01*
X196015238Y-95343100D01*
X196051335Y-95510056D01*
X196051337Y-95510061D01*
X196052470Y-95515303D01*
X196128044Y-95680372D01*
X196131266Y-95684648D01*
X196131268Y-95684651D01*
X196178424Y-95747228D01*
X196237302Y-95825362D01*
X196375145Y-95943508D01*
X196535143Y-96029298D01*
X196540299Y-96030757D01*
X196704674Y-96077271D01*
X196704677Y-96077271D01*
X196709831Y-96078730D01*
X196715183Y-96079048D01*
X196885705Y-96089179D01*
X196891058Y-96089497D01*
X196896355Y-96088658D01*
X196896356Y-96088658D01*
X196968271Y-96077267D01*
X197070370Y-96061096D01*
X197239400Y-95994854D01*
X197243855Y-95991872D01*
X197243860Y-95991869D01*
X197337060Y-95929477D01*
X197390263Y-95893860D01*
X197515919Y-95762827D01*
X197610507Y-95607867D01*
X197669613Y-95436212D01*
X197690480Y-95255868D01*
X197690500Y-95250000D01*
X197681377Y-95166020D01*
X197671472Y-95074840D01*
X197671471Y-95074835D01*
X197670893Y-95069515D01*
X197612987Y-94897451D01*
X197519483Y-94741834D01*
X197500615Y-94721881D01*
X197398428Y-94613822D01*
X197394745Y-94609927D01*
X197316350Y-94556650D01*
X197249025Y-94510896D01*
X197249023Y-94510895D01*
X197244591Y-94507883D01*
X197182079Y-94482880D01*
X197081006Y-94442453D01*
X197081002Y-94442452D01*
X197076027Y-94440462D01*
X197070742Y-94439587D01*
X197070738Y-94439586D01*
X196952612Y-94420031D01*
X196896918Y-94410811D01*
X196825832Y-94414536D01*
X196720974Y-94420031D01*
X196720970Y-94420032D01*
X196715620Y-94420312D01*
X196540591Y-94468523D01*
X196535852Y-94471022D01*
X196535851Y-94471022D01*
X196384735Y-94550696D01*
X196384732Y-94550698D01*
X196379998Y-94553194D01*
X196316431Y-94606913D01*
X196245423Y-94666919D01*
X196245421Y-94666922D01*
X196241334Y-94670375D01*
X196131066Y-94814598D01*
X196054341Y-94979136D01*
X196014738Y-95156310D01*
X196014104Y-95337856D01*
X185176229Y-95337856D01*
X185177079Y-95332489D01*
X185187815Y-95264701D01*
X185188384Y-95261110D01*
X185188500Y-95250000D01*
X185168958Y-95107338D01*
X185166281Y-95101152D01*
X185166280Y-95101148D01*
X185114452Y-94981381D01*
X185114450Y-94981377D01*
X185111771Y-94975187D01*
X185021152Y-94863282D01*
X184903779Y-94779869D01*
X184768297Y-94731093D01*
X184744078Y-94729314D01*
X184631424Y-94721041D01*
X184631420Y-94721041D01*
X184624690Y-94720547D01*
X184618075Y-94721881D01*
X184618072Y-94721881D01*
X184490147Y-94747675D01*
X184483536Y-94749008D01*
X184355236Y-94814380D01*
X184249243Y-94911847D01*
X184245686Y-94917584D01*
X184245685Y-94917585D01*
X184204277Y-94984369D01*
X184173364Y-95034226D01*
X184171481Y-95040708D01*
X184139415Y-95151081D01*
X184133191Y-95172503D01*
X184131683Y-95316489D01*
X175460000Y-95316489D01*
X175460000Y-92830824D01*
X179961538Y-92830824D01*
X179980121Y-92972939D01*
X179982962Y-92979395D01*
X179982962Y-92979396D01*
X180021891Y-93067867D01*
X180037845Y-93104126D01*
X180130068Y-93213838D01*
X180135939Y-93217746D01*
X180135940Y-93217747D01*
X180143572Y-93222827D01*
X180249377Y-93293257D01*
X180256104Y-93295359D01*
X180256107Y-93295360D01*
X180379448Y-93333894D01*
X180379449Y-93333894D01*
X180386180Y-93335997D01*
X180457830Y-93337310D01*
X180522427Y-93338495D01*
X180522429Y-93338495D01*
X180529481Y-93338624D01*
X180536284Y-93336769D01*
X180536286Y-93336769D01*
X180583065Y-93324015D01*
X180667758Y-93300925D01*
X180789897Y-93225931D01*
X180886078Y-93119672D01*
X180948570Y-92990689D01*
X180950338Y-92980185D01*
X180971715Y-92853120D01*
X180971715Y-92853117D01*
X180972349Y-92849350D01*
X180972500Y-92837000D01*
X180966894Y-92797856D01*
X196014104Y-92797856D01*
X196022567Y-92837000D01*
X196051335Y-92970056D01*
X196051337Y-92970061D01*
X196052470Y-92975303D01*
X196054705Y-92980184D01*
X196054705Y-92980185D01*
X196059514Y-92990689D01*
X196128044Y-93140372D01*
X196131266Y-93144648D01*
X196131268Y-93144651D01*
X196183405Y-93213838D01*
X196237302Y-93285362D01*
X196241369Y-93288847D01*
X196241370Y-93288849D01*
X196293566Y-93333586D01*
X196375145Y-93403508D01*
X196535143Y-93489298D01*
X196540299Y-93490757D01*
X196704674Y-93537271D01*
X196704677Y-93537271D01*
X196709831Y-93538730D01*
X196715183Y-93539048D01*
X196885705Y-93549179D01*
X196891058Y-93549497D01*
X196896355Y-93548658D01*
X196896356Y-93548658D01*
X196968271Y-93537267D01*
X197070370Y-93521096D01*
X197239400Y-93454854D01*
X197243855Y-93451872D01*
X197243860Y-93451869D01*
X197337060Y-93389477D01*
X197390263Y-93353860D01*
X197515919Y-93222827D01*
X197610507Y-93067867D01*
X197669613Y-92896212D01*
X197690480Y-92715868D01*
X197690500Y-92710000D01*
X197686618Y-92674264D01*
X197671472Y-92534840D01*
X197671471Y-92534835D01*
X197670893Y-92529515D01*
X197612987Y-92357451D01*
X197519483Y-92201834D01*
X197394745Y-92069927D01*
X197316350Y-92016650D01*
X197249025Y-91970896D01*
X197249023Y-91970895D01*
X197244591Y-91967883D01*
X197182079Y-91942880D01*
X197081006Y-91902453D01*
X197081002Y-91902452D01*
X197076027Y-91900462D01*
X197070742Y-91899587D01*
X197070738Y-91899586D01*
X196952612Y-91880031D01*
X196896918Y-91870811D01*
X196825832Y-91874536D01*
X196720974Y-91880031D01*
X196720970Y-91880032D01*
X196715620Y-91880312D01*
X196540591Y-91928523D01*
X196535852Y-91931022D01*
X196535851Y-91931022D01*
X196384735Y-92010696D01*
X196384732Y-92010698D01*
X196379998Y-92013194D01*
X196316431Y-92066913D01*
X196245423Y-92126919D01*
X196245421Y-92126922D01*
X196241334Y-92130375D01*
X196131066Y-92274598D01*
X196054341Y-92439136D01*
X196053172Y-92444367D01*
X196053171Y-92444369D01*
X196050555Y-92456074D01*
X196014738Y-92616310D01*
X196014104Y-92797856D01*
X180966894Y-92797856D01*
X180952182Y-92695123D01*
X180918786Y-92621671D01*
X180895780Y-92571073D01*
X180895780Y-92571072D01*
X180892860Y-92564651D01*
X180799303Y-92456074D01*
X180679033Y-92378118D01*
X180672275Y-92376097D01*
X180672273Y-92376096D01*
X180548479Y-92339074D01*
X180541718Y-92337052D01*
X180455694Y-92336527D01*
X180405448Y-92336220D01*
X180398396Y-92336177D01*
X180391620Y-92338114D01*
X180391617Y-92338114D01*
X180267369Y-92373624D01*
X180267367Y-92373625D01*
X180260589Y-92375562D01*
X180139375Y-92452042D01*
X180044499Y-92559469D01*
X179983588Y-92689206D01*
X179961538Y-92830824D01*
X175460000Y-92830824D01*
X175460000Y-90773424D01*
X184558938Y-90773424D01*
X184577521Y-90915539D01*
X184580362Y-90921995D01*
X184580362Y-90921996D01*
X184618495Y-91008658D01*
X184635245Y-91046726D01*
X184727468Y-91156438D01*
X184733339Y-91160346D01*
X184733340Y-91160347D01*
X184745635Y-91168531D01*
X184846777Y-91235857D01*
X184853504Y-91237959D01*
X184853507Y-91237960D01*
X184976848Y-91276494D01*
X184976849Y-91276494D01*
X184983580Y-91278597D01*
X185055230Y-91279910D01*
X185119827Y-91281095D01*
X185119829Y-91281095D01*
X185126881Y-91281224D01*
X185133684Y-91279369D01*
X185133686Y-91279369D01*
X185180465Y-91266615D01*
X185265158Y-91243525D01*
X185387297Y-91168531D01*
X185483478Y-91062272D01*
X185545970Y-90933289D01*
X185548743Y-90916810D01*
X185569115Y-90795720D01*
X185569115Y-90795717D01*
X185569749Y-90791950D01*
X185569900Y-90779600D01*
X185549582Y-90637723D01*
X185501716Y-90532446D01*
X185493180Y-90513673D01*
X185493180Y-90513672D01*
X185490260Y-90507251D01*
X185396703Y-90398674D01*
X185276433Y-90320718D01*
X185269675Y-90318697D01*
X185269673Y-90318696D01*
X185145879Y-90281674D01*
X185139118Y-90279652D01*
X185053094Y-90279127D01*
X185002848Y-90278820D01*
X184995796Y-90278777D01*
X184989020Y-90280714D01*
X184989017Y-90280714D01*
X184864769Y-90316224D01*
X184864767Y-90316225D01*
X184857989Y-90318162D01*
X184736775Y-90394642D01*
X184641899Y-90502069D01*
X184580988Y-90631806D01*
X184558938Y-90773424D01*
X175460000Y-90773424D01*
X175460000Y-90257856D01*
X196014104Y-90257856D01*
X196015238Y-90263100D01*
X196051335Y-90430056D01*
X196051337Y-90430061D01*
X196052470Y-90435303D01*
X196054705Y-90440184D01*
X196054705Y-90440185D01*
X196088350Y-90513673D01*
X196128044Y-90600372D01*
X196131266Y-90604648D01*
X196131268Y-90604651D01*
X196161452Y-90644706D01*
X196237302Y-90745362D01*
X196375145Y-90863508D01*
X196535143Y-90949298D01*
X196540299Y-90950757D01*
X196704674Y-90997271D01*
X196704677Y-90997271D01*
X196709831Y-90998730D01*
X196715183Y-90999048D01*
X196885705Y-91009179D01*
X196891058Y-91009497D01*
X196896355Y-91008658D01*
X196896356Y-91008658D01*
X196968271Y-90997267D01*
X197070370Y-90981096D01*
X197239400Y-90914854D01*
X197243855Y-90911872D01*
X197243860Y-90911869D01*
X197337060Y-90849477D01*
X197390263Y-90813860D01*
X197515919Y-90682827D01*
X197610507Y-90527867D01*
X197615395Y-90513673D01*
X197653153Y-90404016D01*
X197669613Y-90356212D01*
X197690480Y-90175868D01*
X197690500Y-90170000D01*
X197686618Y-90134264D01*
X197671472Y-89994840D01*
X197671471Y-89994835D01*
X197670893Y-89989515D01*
X197612987Y-89817451D01*
X197519483Y-89661834D01*
X197394745Y-89529927D01*
X197316350Y-89476650D01*
X197249025Y-89430896D01*
X197249023Y-89430895D01*
X197244591Y-89427883D01*
X197182079Y-89402880D01*
X197081006Y-89362453D01*
X197081002Y-89362452D01*
X197076027Y-89360462D01*
X197070742Y-89359587D01*
X197070738Y-89359586D01*
X196952612Y-89340031D01*
X196896918Y-89330811D01*
X196825832Y-89334536D01*
X196720974Y-89340031D01*
X196720970Y-89340032D01*
X196715620Y-89340312D01*
X196540591Y-89388523D01*
X196535852Y-89391022D01*
X196535851Y-89391022D01*
X196384735Y-89470696D01*
X196384732Y-89470698D01*
X196379998Y-89473194D01*
X196316431Y-89526913D01*
X196245423Y-89586919D01*
X196245421Y-89586922D01*
X196241334Y-89590375D01*
X196131066Y-89734598D01*
X196054341Y-89899136D01*
X196014738Y-90076310D01*
X196014104Y-90257856D01*
X175460000Y-90257856D01*
X175460000Y-88309624D01*
X181485538Y-88309624D01*
X181504121Y-88451739D01*
X181506962Y-88458195D01*
X181506962Y-88458196D01*
X181508870Y-88462531D01*
X181561845Y-88582926D01*
X181566382Y-88588323D01*
X181566383Y-88588325D01*
X181579307Y-88603700D01*
X181654068Y-88692638D01*
X181659939Y-88696546D01*
X181659940Y-88696547D01*
X181672235Y-88704731D01*
X181773377Y-88772057D01*
X181780104Y-88774159D01*
X181780107Y-88774160D01*
X181903448Y-88812694D01*
X181903449Y-88812694D01*
X181910180Y-88814797D01*
X181981831Y-88816111D01*
X182046427Y-88817295D01*
X182046429Y-88817295D01*
X182053481Y-88817424D01*
X182060284Y-88815569D01*
X182060286Y-88815569D01*
X182107065Y-88802815D01*
X182191758Y-88779725D01*
X182313897Y-88704731D01*
X182410078Y-88598472D01*
X182418633Y-88580814D01*
X184855528Y-88580814D01*
X184874111Y-88722929D01*
X184876952Y-88729385D01*
X184876952Y-88729386D01*
X184878860Y-88733721D01*
X184931835Y-88854116D01*
X185024058Y-88963828D01*
X185029929Y-88967736D01*
X185029930Y-88967737D01*
X185042225Y-88975921D01*
X185143367Y-89043247D01*
X185150094Y-89045349D01*
X185150097Y-89045350D01*
X185273438Y-89083884D01*
X185273439Y-89083884D01*
X185280170Y-89085987D01*
X185351821Y-89087301D01*
X185416417Y-89088485D01*
X185416419Y-89088485D01*
X185423471Y-89088614D01*
X185430274Y-89086759D01*
X185430276Y-89086759D01*
X185477055Y-89074005D01*
X185561748Y-89050915D01*
X185683887Y-88975921D01*
X185780068Y-88869662D01*
X185842560Y-88740679D01*
X185845547Y-88722929D01*
X185865705Y-88603110D01*
X185865705Y-88603107D01*
X185866339Y-88599340D01*
X185866490Y-88586990D01*
X185846172Y-88445113D01*
X185786850Y-88314641D01*
X185693293Y-88206064D01*
X185573023Y-88128108D01*
X185566265Y-88126087D01*
X185566263Y-88126086D01*
X185442469Y-88089064D01*
X185435708Y-88087042D01*
X185349684Y-88086517D01*
X185299438Y-88086210D01*
X185292386Y-88086167D01*
X185285610Y-88088104D01*
X185285607Y-88088104D01*
X185161359Y-88123614D01*
X185161357Y-88123615D01*
X185154579Y-88125552D01*
X185033365Y-88202032D01*
X184938489Y-88309459D01*
X184877578Y-88439196D01*
X184855528Y-88580814D01*
X182418633Y-88580814D01*
X182472570Y-88469489D01*
X182475497Y-88452096D01*
X182495715Y-88331920D01*
X182495715Y-88331917D01*
X182496349Y-88328150D01*
X182496500Y-88315800D01*
X182476182Y-88173923D01*
X182457097Y-88131946D01*
X182419780Y-88049873D01*
X182419780Y-88049872D01*
X182416860Y-88043451D01*
X182323303Y-87934874D01*
X182203033Y-87856918D01*
X182196275Y-87854897D01*
X182196273Y-87854896D01*
X182072479Y-87817874D01*
X182065718Y-87815852D01*
X181979694Y-87815327D01*
X181929448Y-87815020D01*
X181922396Y-87814977D01*
X181915620Y-87816914D01*
X181915617Y-87816914D01*
X181791369Y-87852424D01*
X181791367Y-87852425D01*
X181784589Y-87854362D01*
X181663375Y-87930842D01*
X181568499Y-88038269D01*
X181507588Y-88168006D01*
X181485538Y-88309624D01*
X175460000Y-88309624D01*
X175460000Y-85177856D01*
X175694104Y-85177856D01*
X175695238Y-85183100D01*
X175731335Y-85350056D01*
X175731337Y-85350061D01*
X175732470Y-85355303D01*
X175808044Y-85520372D01*
X175917302Y-85665362D01*
X176055145Y-85783508D01*
X176215143Y-85869298D01*
X176220299Y-85870757D01*
X176384674Y-85917271D01*
X176384677Y-85917271D01*
X176389831Y-85918730D01*
X176395183Y-85919048D01*
X176565705Y-85929179D01*
X176571058Y-85929497D01*
X176576355Y-85928658D01*
X176576356Y-85928658D01*
X176648271Y-85917267D01*
X176750370Y-85901096D01*
X176919400Y-85834854D01*
X176923855Y-85831872D01*
X176923860Y-85831869D01*
X177017060Y-85769477D01*
X177070263Y-85733860D01*
X177195919Y-85602827D01*
X177290507Y-85447867D01*
X177349613Y-85276212D01*
X177360993Y-85177856D01*
X196014104Y-85177856D01*
X196015238Y-85183100D01*
X196051335Y-85350056D01*
X196051337Y-85350061D01*
X196052470Y-85355303D01*
X196128044Y-85520372D01*
X196237302Y-85665362D01*
X196375145Y-85783508D01*
X196535143Y-85869298D01*
X196540299Y-85870757D01*
X196704674Y-85917271D01*
X196704677Y-85917271D01*
X196709831Y-85918730D01*
X196715183Y-85919048D01*
X196885705Y-85929179D01*
X196891058Y-85929497D01*
X196896355Y-85928658D01*
X196896356Y-85928658D01*
X196968271Y-85917267D01*
X197070370Y-85901096D01*
X197239400Y-85834854D01*
X197243855Y-85831872D01*
X197243860Y-85831869D01*
X197337060Y-85769477D01*
X197390263Y-85733860D01*
X197515919Y-85602827D01*
X197610507Y-85447867D01*
X197669613Y-85276212D01*
X197690480Y-85095868D01*
X197690500Y-85090000D01*
X197686618Y-85054264D01*
X197671472Y-84914840D01*
X197671471Y-84914835D01*
X197670893Y-84909515D01*
X197612987Y-84737451D01*
X197519483Y-84581834D01*
X197394745Y-84449927D01*
X197316350Y-84396650D01*
X197249025Y-84350896D01*
X197249023Y-84350895D01*
X197244591Y-84347883D01*
X197182079Y-84322880D01*
X197081006Y-84282453D01*
X197081002Y-84282452D01*
X197076027Y-84280462D01*
X197070742Y-84279587D01*
X197070738Y-84279586D01*
X196952612Y-84260031D01*
X196896918Y-84250811D01*
X196825832Y-84254536D01*
X196720974Y-84260031D01*
X196720970Y-84260032D01*
X196715620Y-84260312D01*
X196540591Y-84308523D01*
X196535852Y-84311022D01*
X196535851Y-84311022D01*
X196384735Y-84390696D01*
X196384732Y-84390698D01*
X196379998Y-84393194D01*
X196316431Y-84446913D01*
X196245423Y-84506919D01*
X196245421Y-84506922D01*
X196241334Y-84510375D01*
X196131066Y-84654598D01*
X196054341Y-84819136D01*
X196014738Y-84996310D01*
X196014104Y-85177856D01*
X177360993Y-85177856D01*
X177370480Y-85095868D01*
X177370500Y-85090000D01*
X177366618Y-85054264D01*
X177351472Y-84914840D01*
X177351471Y-84914835D01*
X177350893Y-84909515D01*
X177292987Y-84737451D01*
X177199483Y-84581834D01*
X177074745Y-84449927D01*
X176996350Y-84396650D01*
X176929025Y-84350896D01*
X176929023Y-84350895D01*
X176924591Y-84347883D01*
X176862079Y-84322880D01*
X176761006Y-84282453D01*
X176761002Y-84282452D01*
X176756027Y-84280462D01*
X176750742Y-84279587D01*
X176750738Y-84279586D01*
X176632612Y-84260031D01*
X176576918Y-84250811D01*
X176505832Y-84254536D01*
X176400974Y-84260031D01*
X176400970Y-84260032D01*
X176395620Y-84260312D01*
X176220591Y-84308523D01*
X176215852Y-84311022D01*
X176215851Y-84311022D01*
X176064735Y-84390696D01*
X176064732Y-84390698D01*
X176059998Y-84393194D01*
X175996431Y-84446913D01*
X175925423Y-84506919D01*
X175925421Y-84506922D01*
X175921334Y-84510375D01*
X175811066Y-84654598D01*
X175734341Y-84819136D01*
X175694738Y-84996310D01*
X175694104Y-85177856D01*
X175460000Y-85177856D01*
X175460000Y-83432824D01*
X180088538Y-83432824D01*
X180107121Y-83574939D01*
X180109962Y-83581395D01*
X180109962Y-83581396D01*
X180160663Y-83696621D01*
X180164845Y-83706126D01*
X180257068Y-83815838D01*
X180262939Y-83819746D01*
X180262940Y-83819747D01*
X180275235Y-83827931D01*
X180376377Y-83895257D01*
X180383104Y-83897359D01*
X180383107Y-83897360D01*
X180506448Y-83935894D01*
X180506449Y-83935894D01*
X180513180Y-83937997D01*
X180584831Y-83939311D01*
X180649427Y-83940495D01*
X180649429Y-83940495D01*
X180656481Y-83940624D01*
X180663284Y-83938769D01*
X180663286Y-83938769D01*
X180710065Y-83926015D01*
X180794758Y-83902925D01*
X180916897Y-83827931D01*
X181013078Y-83721672D01*
X181075570Y-83592689D01*
X181078557Y-83574939D01*
X181098715Y-83455120D01*
X181098715Y-83455117D01*
X181099349Y-83451350D01*
X181099500Y-83439000D01*
X181079182Y-83297123D01*
X181019860Y-83166651D01*
X180926303Y-83058074D01*
X180806033Y-82980118D01*
X180799275Y-82978097D01*
X180799273Y-82978096D01*
X180675479Y-82941074D01*
X180668718Y-82939052D01*
X180582694Y-82938527D01*
X180532448Y-82938220D01*
X180525396Y-82938177D01*
X180518620Y-82940114D01*
X180518617Y-82940114D01*
X180394369Y-82975624D01*
X180394367Y-82975625D01*
X180387589Y-82977562D01*
X180266375Y-83054042D01*
X180171499Y-83161469D01*
X180110588Y-83291206D01*
X180088538Y-83432824D01*
X175460000Y-83432824D01*
X175460000Y-82637856D01*
X175694104Y-82637856D01*
X175695238Y-82643100D01*
X175731335Y-82810056D01*
X175731337Y-82810061D01*
X175732470Y-82815303D01*
X175808044Y-82980372D01*
X175811266Y-82984648D01*
X175811268Y-82984651D01*
X175860723Y-83050279D01*
X175917302Y-83125362D01*
X175921369Y-83128847D01*
X175921370Y-83128849D01*
X175965475Y-83166651D01*
X176055145Y-83243508D01*
X176215143Y-83329298D01*
X176220299Y-83330757D01*
X176384674Y-83377271D01*
X176384677Y-83377271D01*
X176389831Y-83378730D01*
X176395183Y-83379048D01*
X176565705Y-83389179D01*
X176571058Y-83389497D01*
X176576355Y-83388658D01*
X176576356Y-83388658D01*
X176648271Y-83377267D01*
X176750370Y-83361096D01*
X176919400Y-83294854D01*
X176923855Y-83291872D01*
X176923860Y-83291869D01*
X177063723Y-83198238D01*
X177070263Y-83193860D01*
X177157459Y-83102933D01*
X177192205Y-83066700D01*
X177195919Y-83062827D01*
X177201163Y-83054237D01*
X177287712Y-82912446D01*
X177290507Y-82907867D01*
X177301135Y-82877003D01*
X177303378Y-82870489D01*
X189465683Y-82870489D01*
X189467428Y-82877000D01*
X189467428Y-82877003D01*
X189476925Y-82912446D01*
X189502952Y-83009577D01*
X189506388Y-83015387D01*
X189568896Y-83121082D01*
X189576251Y-83133519D01*
X189581120Y-83138188D01*
X189581123Y-83138192D01*
X189641023Y-83195634D01*
X189680180Y-83233184D01*
X189807083Y-83301228D01*
X189813662Y-83302699D01*
X189813666Y-83302700D01*
X189941023Y-83331167D01*
X189941024Y-83331167D01*
X189947609Y-83332639D01*
X189954348Y-83332286D01*
X189954350Y-83332286D01*
X190001620Y-83329808D01*
X190091406Y-83325103D01*
X190131747Y-83311527D01*
X190153798Y-83304106D01*
X190174859Y-83297018D01*
X190236041Y-83296377D01*
X190285915Y-83331821D01*
X190305431Y-83389810D01*
X190290575Y-83443015D01*
X190272923Y-83471485D01*
X190272921Y-83471488D01*
X190269364Y-83477226D01*
X190267481Y-83483708D01*
X190233975Y-83599038D01*
X190229191Y-83615503D01*
X190227683Y-83759489D01*
X190229428Y-83766000D01*
X190229428Y-83766003D01*
X190246022Y-83827931D01*
X190264952Y-83898577D01*
X190268388Y-83904387D01*
X190311483Y-83977256D01*
X190338251Y-84022519D01*
X190343120Y-84027188D01*
X190343123Y-84027192D01*
X190400364Y-84082084D01*
X190442180Y-84122184D01*
X190569083Y-84190228D01*
X190575662Y-84191699D01*
X190575666Y-84191700D01*
X190703023Y-84220167D01*
X190703024Y-84220167D01*
X190709609Y-84221639D01*
X190716348Y-84221286D01*
X190716350Y-84221286D01*
X190763620Y-84218808D01*
X190853406Y-84214103D01*
X190919976Y-84191700D01*
X190983485Y-84170327D01*
X190983486Y-84170326D01*
X190989879Y-84168175D01*
X191108974Y-84087238D01*
X191113328Y-84082086D01*
X191113330Y-84082084D01*
X191168576Y-84016708D01*
X191201916Y-83977256D01*
X191226933Y-83922613D01*
X191259049Y-83852467D01*
X191259050Y-83852465D01*
X191261858Y-83846331D01*
X191264773Y-83827931D01*
X191282607Y-83715327D01*
X191284384Y-83704110D01*
X191284500Y-83693000D01*
X191264958Y-83550338D01*
X191262281Y-83544152D01*
X191262280Y-83544148D01*
X191210452Y-83424381D01*
X191210450Y-83424377D01*
X191207771Y-83418187D01*
X191117152Y-83306282D01*
X191014294Y-83233184D01*
X191005277Y-83226776D01*
X191005276Y-83226775D01*
X190999779Y-83222869D01*
X190864297Y-83174093D01*
X190840078Y-83172314D01*
X190727424Y-83164041D01*
X190727420Y-83164041D01*
X190720690Y-83163547D01*
X190714075Y-83164881D01*
X190714072Y-83164881D01*
X190589549Y-83189989D01*
X190579536Y-83192008D01*
X190574906Y-83194367D01*
X190514413Y-83195634D01*
X190464171Y-83160715D01*
X190444050Y-83102933D01*
X190453012Y-83059651D01*
X190499858Y-82957331D01*
X190507693Y-82907867D01*
X190521815Y-82818701D01*
X190522384Y-82815110D01*
X190522500Y-82804000D01*
X190502958Y-82661338D01*
X190500281Y-82655152D01*
X190500280Y-82655148D01*
X190492797Y-82637856D01*
X196014104Y-82637856D01*
X196015238Y-82643100D01*
X196051335Y-82810056D01*
X196051337Y-82810061D01*
X196052470Y-82815303D01*
X196128044Y-82980372D01*
X196131266Y-82984648D01*
X196131268Y-82984651D01*
X196180723Y-83050279D01*
X196237302Y-83125362D01*
X196241369Y-83128847D01*
X196241370Y-83128849D01*
X196285475Y-83166651D01*
X196375145Y-83243508D01*
X196535143Y-83329298D01*
X196540299Y-83330757D01*
X196704674Y-83377271D01*
X196704677Y-83377271D01*
X196709831Y-83378730D01*
X196715183Y-83379048D01*
X196885705Y-83389179D01*
X196891058Y-83389497D01*
X196896355Y-83388658D01*
X196896356Y-83388658D01*
X196968271Y-83377267D01*
X197070370Y-83361096D01*
X197239400Y-83294854D01*
X197243855Y-83291872D01*
X197243860Y-83291869D01*
X197383723Y-83198238D01*
X197390263Y-83193860D01*
X197477459Y-83102933D01*
X197512205Y-83066700D01*
X197515919Y-83062827D01*
X197521163Y-83054237D01*
X197607712Y-82912446D01*
X197610507Y-82907867D01*
X197621135Y-82877003D01*
X197645025Y-82807621D01*
X197669613Y-82736212D01*
X197690480Y-82555868D01*
X197690500Y-82550000D01*
X197682120Y-82472857D01*
X197671472Y-82374840D01*
X197671471Y-82374835D01*
X197670893Y-82369515D01*
X197612987Y-82197451D01*
X197532344Y-82063238D01*
X197522243Y-82046427D01*
X197522242Y-82046425D01*
X197519483Y-82041834D01*
X197510865Y-82032720D01*
X197398428Y-81913822D01*
X197394745Y-81909927D01*
X197334237Y-81868806D01*
X197249025Y-81810896D01*
X197249023Y-81810895D01*
X197244591Y-81807883D01*
X197182079Y-81782880D01*
X197081006Y-81742453D01*
X197081002Y-81742452D01*
X197076027Y-81740462D01*
X197070742Y-81739587D01*
X197070738Y-81739586D01*
X196945484Y-81718851D01*
X196896918Y-81710811D01*
X196825832Y-81714536D01*
X196720974Y-81720031D01*
X196720970Y-81720032D01*
X196715620Y-81720312D01*
X196710450Y-81721736D01*
X196648108Y-81738908D01*
X196540591Y-81768523D01*
X196535852Y-81771022D01*
X196535851Y-81771022D01*
X196384735Y-81850696D01*
X196384732Y-81850698D01*
X196379998Y-81853194D01*
X196361524Y-81868806D01*
X196245423Y-81966919D01*
X196245421Y-81966922D01*
X196241334Y-81970375D01*
X196131066Y-82114598D01*
X196128802Y-82119454D01*
X196128801Y-82119455D01*
X196105097Y-82170289D01*
X196054341Y-82279136D01*
X196053172Y-82284367D01*
X196053171Y-82284369D01*
X196034469Y-82368038D01*
X196014738Y-82456310D01*
X196014719Y-82461668D01*
X196014719Y-82461671D01*
X196014528Y-82516369D01*
X196014104Y-82637856D01*
X190492797Y-82637856D01*
X190448452Y-82535381D01*
X190448450Y-82535377D01*
X190445771Y-82529187D01*
X190355152Y-82417282D01*
X190287938Y-82369515D01*
X190243283Y-82337780D01*
X190243280Y-82337779D01*
X190237779Y-82333869D01*
X190234798Y-82332796D01*
X190224995Y-82322785D01*
X190193615Y-82317969D01*
X190102297Y-82285093D01*
X190078078Y-82283314D01*
X189965424Y-82275041D01*
X189965420Y-82275041D01*
X189958690Y-82274547D01*
X189952075Y-82275881D01*
X189952072Y-82275881D01*
X189867533Y-82292927D01*
X189817536Y-82303008D01*
X189689236Y-82368380D01*
X189684267Y-82372949D01*
X189684266Y-82372950D01*
X189676457Y-82380131D01*
X189583243Y-82465847D01*
X189579686Y-82471584D01*
X189579685Y-82471585D01*
X189510921Y-82582489D01*
X189507364Y-82588226D01*
X189505481Y-82594708D01*
X189484182Y-82668021D01*
X189467191Y-82726503D01*
X189465683Y-82870489D01*
X177303378Y-82870489D01*
X177325025Y-82807621D01*
X177349613Y-82736212D01*
X177370480Y-82555868D01*
X177370500Y-82550000D01*
X177362120Y-82472857D01*
X177351472Y-82374840D01*
X177351471Y-82374835D01*
X177350893Y-82369515D01*
X177292987Y-82197451D01*
X177212344Y-82063238D01*
X177202243Y-82046427D01*
X177202242Y-82046425D01*
X177199483Y-82041834D01*
X177190865Y-82032720D01*
X177169781Y-82010424D01*
X180088538Y-82010424D01*
X180107121Y-82152539D01*
X180109962Y-82158995D01*
X180109962Y-82158996D01*
X180153669Y-82258326D01*
X180164845Y-82283726D01*
X180169382Y-82289123D01*
X180169383Y-82289125D01*
X180210282Y-82337780D01*
X180257068Y-82393438D01*
X180262939Y-82397346D01*
X180262940Y-82397347D01*
X180275235Y-82405531D01*
X180376377Y-82472857D01*
X180383104Y-82474959D01*
X180383107Y-82474960D01*
X180506448Y-82513494D01*
X180506449Y-82513494D01*
X180513180Y-82515597D01*
X180584831Y-82516911D01*
X180649427Y-82518095D01*
X180649429Y-82518095D01*
X180656481Y-82518224D01*
X180663284Y-82516369D01*
X180663286Y-82516369D01*
X180710065Y-82503615D01*
X180794758Y-82480525D01*
X180916897Y-82405531D01*
X180949497Y-82369515D01*
X181008346Y-82304500D01*
X181008346Y-82304499D01*
X181013078Y-82299272D01*
X181075570Y-82170289D01*
X181078557Y-82152539D01*
X181098715Y-82032720D01*
X181098715Y-82032717D01*
X181099349Y-82028950D01*
X181099500Y-82016600D01*
X181079182Y-81874723D01*
X181070809Y-81856306D01*
X181022780Y-81750673D01*
X181022780Y-81750672D01*
X181019860Y-81744251D01*
X180964690Y-81680224D01*
X189994538Y-81680224D01*
X189995453Y-81687222D01*
X190010971Y-81805893D01*
X190013121Y-81822339D01*
X190015962Y-81828795D01*
X190015962Y-81828796D01*
X190053375Y-81913822D01*
X190070845Y-81953526D01*
X190075382Y-81958923D01*
X190075383Y-81958925D01*
X190109683Y-81999729D01*
X190163068Y-82063238D01*
X190168939Y-82067146D01*
X190168940Y-82067147D01*
X190282007Y-82142411D01*
X190287900Y-82149859D01*
X190311286Y-82151689D01*
X190412448Y-82183294D01*
X190412449Y-82183294D01*
X190419180Y-82185397D01*
X190490831Y-82186711D01*
X190555427Y-82187895D01*
X190555429Y-82187895D01*
X190562481Y-82188024D01*
X190569284Y-82186169D01*
X190569286Y-82186169D01*
X190616065Y-82173415D01*
X190700758Y-82150325D01*
X190822897Y-82075331D01*
X190857664Y-82036921D01*
X190910732Y-82006467D01*
X190971566Y-82013022D01*
X191006844Y-82039654D01*
X191012537Y-82046427D01*
X191022129Y-82057838D01*
X191026668Y-82063238D01*
X191032539Y-82067146D01*
X191032540Y-82067147D01*
X191044835Y-82075331D01*
X191145977Y-82142657D01*
X191152704Y-82144759D01*
X191152707Y-82144760D01*
X191276048Y-82183294D01*
X191276049Y-82183294D01*
X191282780Y-82185397D01*
X191354431Y-82186711D01*
X191419027Y-82187895D01*
X191419029Y-82187895D01*
X191426081Y-82188024D01*
X191432884Y-82186169D01*
X191432886Y-82186169D01*
X191479665Y-82173415D01*
X191564358Y-82150325D01*
X191686497Y-82075331D01*
X191716817Y-82041834D01*
X191768239Y-81985024D01*
X193677538Y-81985024D01*
X193678453Y-81992022D01*
X193688663Y-82070100D01*
X193696121Y-82127139D01*
X193698962Y-82133595D01*
X193698962Y-82133596D01*
X193715108Y-82170289D01*
X193753845Y-82258326D01*
X193758382Y-82263723D01*
X193758383Y-82263725D01*
X193779734Y-82289125D01*
X193846068Y-82368038D01*
X193851939Y-82371946D01*
X193851940Y-82371947D01*
X193864235Y-82380131D01*
X193965377Y-82447457D01*
X193972104Y-82449559D01*
X193972107Y-82449560D01*
X194095448Y-82488094D01*
X194095449Y-82488094D01*
X194102180Y-82490197D01*
X194173830Y-82491510D01*
X194238427Y-82492695D01*
X194238429Y-82492695D01*
X194245481Y-82492824D01*
X194252284Y-82490969D01*
X194252286Y-82490969D01*
X194318718Y-82472857D01*
X194383758Y-82455125D01*
X194505897Y-82380131D01*
X194515506Y-82369515D01*
X194597346Y-82279100D01*
X194597346Y-82279099D01*
X194602078Y-82273872D01*
X194664570Y-82144889D01*
X194667557Y-82127139D01*
X194687715Y-82007320D01*
X194687715Y-82007317D01*
X194688349Y-82003550D01*
X194688500Y-81991200D01*
X194668182Y-81849323D01*
X194655914Y-81822339D01*
X194611780Y-81725273D01*
X194611780Y-81725272D01*
X194608860Y-81718851D01*
X194515303Y-81610274D01*
X194395033Y-81532318D01*
X194388275Y-81530297D01*
X194388273Y-81530296D01*
X194264479Y-81493274D01*
X194257718Y-81491252D01*
X194171694Y-81490727D01*
X194121448Y-81490420D01*
X194114396Y-81490377D01*
X194107620Y-81492314D01*
X194107617Y-81492314D01*
X193983369Y-81527824D01*
X193983367Y-81527825D01*
X193976589Y-81529762D01*
X193855375Y-81606242D01*
X193760499Y-81713669D01*
X193699588Y-81843406D01*
X193677538Y-81985024D01*
X191768239Y-81985024D01*
X191777946Y-81974300D01*
X191777946Y-81974299D01*
X191782678Y-81969072D01*
X191845170Y-81840089D01*
X191848157Y-81822339D01*
X191868315Y-81702520D01*
X191868315Y-81702517D01*
X191868949Y-81698750D01*
X191869100Y-81686400D01*
X191848782Y-81544523D01*
X191842314Y-81530296D01*
X191792380Y-81420473D01*
X191792380Y-81420472D01*
X191789460Y-81414051D01*
X191695903Y-81305474D01*
X191575633Y-81227518D01*
X191568875Y-81225497D01*
X191568873Y-81225496D01*
X191445079Y-81188474D01*
X191438318Y-81186452D01*
X191352294Y-81185927D01*
X191302048Y-81185620D01*
X191294996Y-81185577D01*
X191288220Y-81187514D01*
X191288217Y-81187514D01*
X191163969Y-81223024D01*
X191163967Y-81223025D01*
X191157189Y-81224962D01*
X191035975Y-81301442D01*
X191031309Y-81306725D01*
X191031307Y-81306727D01*
X191006249Y-81335100D01*
X190953556Y-81366200D01*
X190892648Y-81360388D01*
X190857047Y-81334189D01*
X190836911Y-81310820D01*
X190836905Y-81310815D01*
X190832303Y-81305474D01*
X190712033Y-81227518D01*
X190705275Y-81225497D01*
X190705273Y-81225496D01*
X190581479Y-81188474D01*
X190574718Y-81186452D01*
X190488694Y-81185927D01*
X190438448Y-81185620D01*
X190431396Y-81185577D01*
X190424620Y-81187514D01*
X190424617Y-81187514D01*
X190300369Y-81223024D01*
X190300367Y-81223025D01*
X190293589Y-81224962D01*
X190172375Y-81301442D01*
X190077499Y-81408869D01*
X190016588Y-81538606D01*
X189994538Y-81680224D01*
X180964690Y-81680224D01*
X180926303Y-81635674D01*
X180806033Y-81557718D01*
X180799275Y-81555697D01*
X180799273Y-81555696D01*
X180675479Y-81518674D01*
X180668718Y-81516652D01*
X180582694Y-81516127D01*
X180532448Y-81515820D01*
X180525396Y-81515777D01*
X180518620Y-81517714D01*
X180518617Y-81517714D01*
X180394369Y-81553224D01*
X180394367Y-81553225D01*
X180387589Y-81555162D01*
X180266375Y-81631642D01*
X180171499Y-81739069D01*
X180110588Y-81868806D01*
X180088538Y-82010424D01*
X177169781Y-82010424D01*
X177078428Y-81913822D01*
X177074745Y-81909927D01*
X177014237Y-81868806D01*
X176929025Y-81810896D01*
X176929023Y-81810895D01*
X176924591Y-81807883D01*
X176862079Y-81782880D01*
X176761006Y-81742453D01*
X176761002Y-81742452D01*
X176756027Y-81740462D01*
X176750742Y-81739587D01*
X176750738Y-81739586D01*
X176625484Y-81718851D01*
X176576918Y-81710811D01*
X176505832Y-81714536D01*
X176400974Y-81720031D01*
X176400970Y-81720032D01*
X176395620Y-81720312D01*
X176390450Y-81721736D01*
X176328108Y-81738908D01*
X176220591Y-81768523D01*
X176215852Y-81771022D01*
X176215851Y-81771022D01*
X176064735Y-81850696D01*
X176064732Y-81850698D01*
X176059998Y-81853194D01*
X176041524Y-81868806D01*
X175925423Y-81966919D01*
X175925421Y-81966922D01*
X175921334Y-81970375D01*
X175811066Y-82114598D01*
X175808802Y-82119454D01*
X175808801Y-82119455D01*
X175785097Y-82170289D01*
X175734341Y-82279136D01*
X175733172Y-82284367D01*
X175733171Y-82284369D01*
X175714469Y-82368038D01*
X175694738Y-82456310D01*
X175694719Y-82461668D01*
X175694719Y-82461671D01*
X175694528Y-82516369D01*
X175694104Y-82637856D01*
X175460000Y-82637856D01*
X175460000Y-80097856D01*
X175694104Y-80097856D01*
X175700102Y-80125599D01*
X175731335Y-80270056D01*
X175731337Y-80270061D01*
X175732470Y-80275303D01*
X175734705Y-80280184D01*
X175734705Y-80280185D01*
X175746912Y-80306847D01*
X175808044Y-80440372D01*
X175917302Y-80585362D01*
X176055145Y-80703508D01*
X176215143Y-80789298D01*
X176220299Y-80790757D01*
X176384674Y-80837271D01*
X176384677Y-80837271D01*
X176389831Y-80838730D01*
X176395183Y-80839048D01*
X176565705Y-80849179D01*
X176571058Y-80849497D01*
X176576355Y-80848658D01*
X176576356Y-80848658D01*
X176648271Y-80837267D01*
X176750370Y-80821096D01*
X176919400Y-80754854D01*
X176923855Y-80751872D01*
X176923860Y-80751869D01*
X176984179Y-80711489D01*
X184639683Y-80711489D01*
X184676952Y-80850577D01*
X184680388Y-80856387D01*
X184723483Y-80929256D01*
X184750251Y-80974519D01*
X184755120Y-80979188D01*
X184755123Y-80979192D01*
X184812364Y-81034084D01*
X184854180Y-81074184D01*
X184981083Y-81142228D01*
X184987662Y-81143699D01*
X184987666Y-81143700D01*
X185115023Y-81172167D01*
X185115024Y-81172167D01*
X185121609Y-81173639D01*
X185128348Y-81173286D01*
X185128350Y-81173286D01*
X185175620Y-81170808D01*
X185265406Y-81166103D01*
X185331976Y-81143700D01*
X185395485Y-81122327D01*
X185395486Y-81122326D01*
X185401879Y-81120175D01*
X185520974Y-81039238D01*
X185525328Y-81034086D01*
X185525330Y-81034084D01*
X185580576Y-80968708D01*
X185613916Y-80929256D01*
X185649938Y-80850577D01*
X185671049Y-80804467D01*
X185671050Y-80804465D01*
X185673858Y-80798331D01*
X185680435Y-80756810D01*
X185695815Y-80659701D01*
X185696384Y-80656110D01*
X185696500Y-80645000D01*
X185676958Y-80502338D01*
X185674281Y-80496152D01*
X185674280Y-80496148D01*
X185622452Y-80376381D01*
X185622450Y-80376377D01*
X185619771Y-80370187D01*
X185529152Y-80258282D01*
X185441811Y-80196212D01*
X185417277Y-80178776D01*
X185417276Y-80178775D01*
X185411779Y-80174869D01*
X185276297Y-80126093D01*
X185252078Y-80124314D01*
X185139424Y-80116041D01*
X185139420Y-80116041D01*
X185132690Y-80115547D01*
X185126075Y-80116881D01*
X185126072Y-80116881D01*
X184998147Y-80142675D01*
X184991536Y-80144008D01*
X184863236Y-80209380D01*
X184757243Y-80306847D01*
X184753686Y-80312584D01*
X184753685Y-80312585D01*
X184684921Y-80423489D01*
X184681364Y-80429226D01*
X184679481Y-80435708D01*
X184654171Y-80522827D01*
X184641191Y-80567503D01*
X184639683Y-80711489D01*
X176984179Y-80711489D01*
X177017060Y-80689477D01*
X177070263Y-80653860D01*
X177195919Y-80522827D01*
X177290507Y-80367867D01*
X177349613Y-80196212D01*
X177360993Y-80097856D01*
X196014104Y-80097856D01*
X196020102Y-80125599D01*
X196051335Y-80270056D01*
X196051337Y-80270061D01*
X196052470Y-80275303D01*
X196054705Y-80280184D01*
X196054705Y-80280185D01*
X196066912Y-80306847D01*
X196128044Y-80440372D01*
X196237302Y-80585362D01*
X196375145Y-80703508D01*
X196535143Y-80789298D01*
X196540299Y-80790757D01*
X196704674Y-80837271D01*
X196704677Y-80837271D01*
X196709831Y-80838730D01*
X196715183Y-80839048D01*
X196885705Y-80849179D01*
X196891058Y-80849497D01*
X196896355Y-80848658D01*
X196896356Y-80848658D01*
X196968271Y-80837267D01*
X197070370Y-80821096D01*
X197239400Y-80754854D01*
X197243855Y-80751872D01*
X197243860Y-80751869D01*
X197337060Y-80689477D01*
X197390263Y-80653860D01*
X197515919Y-80522827D01*
X197610507Y-80367867D01*
X197669613Y-80196212D01*
X197690480Y-80015868D01*
X197690500Y-80010000D01*
X197686618Y-79974264D01*
X197671472Y-79834840D01*
X197671471Y-79834835D01*
X197670893Y-79829515D01*
X197612987Y-79657451D01*
X197519483Y-79501834D01*
X197394745Y-79369927D01*
X197316350Y-79316650D01*
X197249025Y-79270896D01*
X197249023Y-79270895D01*
X197244591Y-79267883D01*
X197182079Y-79242880D01*
X197081006Y-79202453D01*
X197081002Y-79202452D01*
X197076027Y-79200462D01*
X197070742Y-79199587D01*
X197070738Y-79199586D01*
X196952612Y-79180031D01*
X196896918Y-79170811D01*
X196825831Y-79174536D01*
X196720974Y-79180031D01*
X196720970Y-79180032D01*
X196715620Y-79180312D01*
X196540591Y-79228523D01*
X196535852Y-79231022D01*
X196535851Y-79231022D01*
X196384735Y-79310696D01*
X196384732Y-79310698D01*
X196379998Y-79313194D01*
X196316431Y-79366913D01*
X196245423Y-79426919D01*
X196245421Y-79426922D01*
X196241334Y-79430375D01*
X196131066Y-79574598D01*
X196054341Y-79739136D01*
X196014738Y-79916310D01*
X196014104Y-80097856D01*
X177360993Y-80097856D01*
X177370480Y-80015868D01*
X177370500Y-80010000D01*
X177366618Y-79974264D01*
X177351472Y-79834840D01*
X177351471Y-79834835D01*
X177350893Y-79829515D01*
X177292987Y-79657451D01*
X177199483Y-79501834D01*
X177074745Y-79369927D01*
X176996350Y-79316650D01*
X176929025Y-79270896D01*
X176929023Y-79270895D01*
X176924591Y-79267883D01*
X176862079Y-79242880D01*
X176761006Y-79202453D01*
X176761002Y-79202452D01*
X176756027Y-79200462D01*
X176750742Y-79199587D01*
X176750738Y-79199586D01*
X176632612Y-79180031D01*
X176576918Y-79170811D01*
X176505831Y-79174536D01*
X176400974Y-79180031D01*
X176400970Y-79180032D01*
X176395620Y-79180312D01*
X176220591Y-79228523D01*
X176215852Y-79231022D01*
X176215851Y-79231022D01*
X176064735Y-79310696D01*
X176064732Y-79310698D01*
X176059998Y-79313194D01*
X175996431Y-79366913D01*
X175925423Y-79426919D01*
X175925421Y-79426922D01*
X175921334Y-79430375D01*
X175811066Y-79574598D01*
X175734341Y-79739136D01*
X175694738Y-79916310D01*
X175694104Y-80097856D01*
X175460000Y-80097856D01*
X175460000Y-77557856D01*
X175694104Y-77557856D01*
X175702513Y-77596747D01*
X175731335Y-77730056D01*
X175731337Y-77730061D01*
X175732470Y-77735303D01*
X175808044Y-77900372D01*
X175811266Y-77904648D01*
X175811268Y-77904651D01*
X175830548Y-77930236D01*
X175917302Y-78045362D01*
X176055145Y-78163508D01*
X176059871Y-78166042D01*
X176197674Y-78239931D01*
X176215143Y-78249298D01*
X176220299Y-78250757D01*
X176384674Y-78297271D01*
X176384677Y-78297271D01*
X176389831Y-78298730D01*
X176395183Y-78299048D01*
X176565705Y-78309179D01*
X176571058Y-78309497D01*
X176576355Y-78308658D01*
X176576356Y-78308658D01*
X176648271Y-78297267D01*
X176750370Y-78281096D01*
X176919400Y-78214854D01*
X176923855Y-78211872D01*
X176923860Y-78211869D01*
X177050146Y-78127327D01*
X177070263Y-78113860D01*
X177195919Y-77982827D01*
X177202758Y-77971624D01*
X177280156Y-77844824D01*
X183644538Y-77844824D01*
X183645453Y-77851822D01*
X183661102Y-77971495D01*
X183663121Y-77986939D01*
X183665962Y-77993395D01*
X183665962Y-77993396D01*
X183717265Y-78109989D01*
X183720845Y-78118126D01*
X183813068Y-78227838D01*
X183818939Y-78231746D01*
X183818940Y-78231747D01*
X183831235Y-78239931D01*
X183932377Y-78307257D01*
X183939104Y-78309359D01*
X183939107Y-78309360D01*
X184062448Y-78347894D01*
X184062449Y-78347894D01*
X184069180Y-78349997D01*
X184140830Y-78351310D01*
X184205427Y-78352495D01*
X184205429Y-78352495D01*
X184212481Y-78352624D01*
X184219284Y-78350769D01*
X184219286Y-78350769D01*
X184266065Y-78338015D01*
X184350758Y-78314925D01*
X184472897Y-78239931D01*
X184520833Y-78186972D01*
X184573901Y-78156518D01*
X184634734Y-78163073D01*
X184670013Y-78189705D01*
X184697528Y-78222438D01*
X184697531Y-78222441D01*
X184702068Y-78227838D01*
X184707939Y-78231746D01*
X184707940Y-78231747D01*
X184720235Y-78239931D01*
X184821377Y-78307257D01*
X184828104Y-78309359D01*
X184828107Y-78309360D01*
X184951448Y-78347894D01*
X184951449Y-78347894D01*
X184958180Y-78349997D01*
X185029830Y-78351310D01*
X185094427Y-78352495D01*
X185094429Y-78352495D01*
X185101481Y-78352624D01*
X185108284Y-78350769D01*
X185108286Y-78350769D01*
X185155065Y-78338015D01*
X185239758Y-78314925D01*
X185361897Y-78239931D01*
X185384596Y-78214854D01*
X185453346Y-78138900D01*
X185453346Y-78138899D01*
X185458078Y-78133672D01*
X185520570Y-78004689D01*
X185523557Y-77986939D01*
X185543715Y-77867120D01*
X185543715Y-77867117D01*
X185544349Y-77863350D01*
X185544500Y-77851000D01*
X185524182Y-77709123D01*
X185511750Y-77681779D01*
X185467780Y-77585073D01*
X185467780Y-77585072D01*
X185464860Y-77578651D01*
X185371303Y-77470074D01*
X185251033Y-77392118D01*
X185244275Y-77390097D01*
X185244273Y-77390096D01*
X185120479Y-77353074D01*
X185113718Y-77351052D01*
X185027694Y-77350527D01*
X184977448Y-77350220D01*
X184970396Y-77350177D01*
X184963620Y-77352114D01*
X184963617Y-77352114D01*
X184839369Y-77387624D01*
X184839367Y-77387625D01*
X184832589Y-77389562D01*
X184826625Y-77393325D01*
X184725944Y-77456850D01*
X184711375Y-77466042D01*
X184668792Y-77514258D01*
X184616102Y-77545357D01*
X184555193Y-77539547D01*
X184519591Y-77513347D01*
X184486910Y-77475420D01*
X184486908Y-77475418D01*
X184482303Y-77470074D01*
X184362033Y-77392118D01*
X184355275Y-77390097D01*
X184355273Y-77390096D01*
X184231479Y-77353074D01*
X184224718Y-77351052D01*
X184138694Y-77350527D01*
X184088448Y-77350220D01*
X184081396Y-77350177D01*
X184074620Y-77352114D01*
X184074617Y-77352114D01*
X183950369Y-77387624D01*
X183950367Y-77387625D01*
X183943589Y-77389562D01*
X183937625Y-77393325D01*
X183836944Y-77456850D01*
X183822375Y-77466042D01*
X183727499Y-77573469D01*
X183666588Y-77703206D01*
X183644538Y-77844824D01*
X177280156Y-77844824D01*
X177287712Y-77832446D01*
X177290507Y-77827867D01*
X177349613Y-77656212D01*
X177370480Y-77475868D01*
X177370500Y-77470000D01*
X177362456Y-77395956D01*
X177351472Y-77294840D01*
X177351471Y-77294835D01*
X177350893Y-77289515D01*
X177324074Y-77209824D01*
X186184538Y-77209824D01*
X186185453Y-77216822D01*
X186200145Y-77329176D01*
X186203121Y-77351939D01*
X186205962Y-77358395D01*
X186205962Y-77358396D01*
X186256285Y-77472762D01*
X186260845Y-77483126D01*
X186265382Y-77488523D01*
X186265383Y-77488525D01*
X186287013Y-77514257D01*
X186353068Y-77592838D01*
X186358939Y-77596746D01*
X186358940Y-77596747D01*
X186371235Y-77604931D01*
X186472377Y-77672257D01*
X186479104Y-77674359D01*
X186479107Y-77674360D01*
X186602448Y-77712894D01*
X186602449Y-77712894D01*
X186609180Y-77714997D01*
X186680830Y-77716310D01*
X186745427Y-77717495D01*
X186745429Y-77717495D01*
X186752481Y-77717624D01*
X186759284Y-77715769D01*
X186759286Y-77715769D01*
X186828777Y-77696823D01*
X186890758Y-77679925D01*
X187012897Y-77604931D01*
X187109078Y-77498672D01*
X187125962Y-77463824D01*
X190629538Y-77463824D01*
X190630453Y-77470822D01*
X190645393Y-77585073D01*
X190648121Y-77605939D01*
X190650962Y-77612395D01*
X190650962Y-77612396D01*
X190696448Y-77715769D01*
X190705845Y-77737126D01*
X190798068Y-77846838D01*
X190803939Y-77850746D01*
X190803940Y-77850747D01*
X190828537Y-77867120D01*
X190917377Y-77926257D01*
X190924104Y-77928359D01*
X190924107Y-77928360D01*
X191047448Y-77966894D01*
X191047449Y-77966894D01*
X191054180Y-77968997D01*
X191125830Y-77970310D01*
X191190427Y-77971495D01*
X191190429Y-77971495D01*
X191197481Y-77971624D01*
X191204284Y-77969769D01*
X191204286Y-77969769D01*
X191251065Y-77957015D01*
X191335758Y-77933925D01*
X191457897Y-77858931D01*
X191554078Y-77752672D01*
X191616570Y-77623689D01*
X191619557Y-77605939D01*
X191639715Y-77486120D01*
X191639715Y-77486117D01*
X191640349Y-77482350D01*
X191640419Y-77476670D01*
X191640453Y-77473826D01*
X191640500Y-77470000D01*
X191639616Y-77463824D01*
X191899538Y-77463824D01*
X191900453Y-77470822D01*
X191915393Y-77585073D01*
X191918121Y-77605939D01*
X191920962Y-77612395D01*
X191920962Y-77612396D01*
X191966448Y-77715769D01*
X191975845Y-77737126D01*
X192068068Y-77846838D01*
X192073939Y-77850746D01*
X192073940Y-77850747D01*
X192098537Y-77867120D01*
X192187377Y-77926257D01*
X192194104Y-77928359D01*
X192194107Y-77928360D01*
X192317448Y-77966894D01*
X192317449Y-77966894D01*
X192324180Y-77968997D01*
X192395830Y-77970310D01*
X192460427Y-77971495D01*
X192460429Y-77971495D01*
X192467481Y-77971624D01*
X192474284Y-77969769D01*
X192474286Y-77969769D01*
X192521065Y-77957015D01*
X192605758Y-77933925D01*
X192727897Y-77858931D01*
X192824078Y-77752672D01*
X192886570Y-77623689D01*
X192889557Y-77605939D01*
X192897646Y-77557856D01*
X196014104Y-77557856D01*
X196022513Y-77596747D01*
X196051335Y-77730056D01*
X196051337Y-77730061D01*
X196052470Y-77735303D01*
X196128044Y-77900372D01*
X196131266Y-77904648D01*
X196131268Y-77904651D01*
X196150548Y-77930236D01*
X196237302Y-78045362D01*
X196375145Y-78163508D01*
X196379871Y-78166042D01*
X196517674Y-78239931D01*
X196535143Y-78249298D01*
X196540299Y-78250757D01*
X196704674Y-78297271D01*
X196704677Y-78297271D01*
X196709831Y-78298730D01*
X196715183Y-78299048D01*
X196885705Y-78309179D01*
X196891058Y-78309497D01*
X196896355Y-78308658D01*
X196896356Y-78308658D01*
X196968271Y-78297267D01*
X197070370Y-78281096D01*
X197239400Y-78214854D01*
X197243855Y-78211872D01*
X197243860Y-78211869D01*
X197370146Y-78127327D01*
X197390263Y-78113860D01*
X197515919Y-77982827D01*
X197522758Y-77971624D01*
X197607712Y-77832446D01*
X197610507Y-77827867D01*
X197669613Y-77656212D01*
X197690480Y-77475868D01*
X197690500Y-77470000D01*
X197682456Y-77395956D01*
X197671472Y-77294840D01*
X197671471Y-77294835D01*
X197670893Y-77289515D01*
X197612987Y-77117451D01*
X197519483Y-76961834D01*
X197508362Y-76950073D01*
X197398428Y-76833822D01*
X197394745Y-76829927D01*
X197316350Y-76776650D01*
X197249025Y-76730896D01*
X197249023Y-76730895D01*
X197244591Y-76727883D01*
X197182079Y-76702880D01*
X197081006Y-76662453D01*
X197081002Y-76662452D01*
X197076027Y-76660462D01*
X197070742Y-76659587D01*
X197070738Y-76659586D01*
X196952612Y-76640031D01*
X196896918Y-76630811D01*
X196825832Y-76634536D01*
X196720974Y-76640031D01*
X196720970Y-76640032D01*
X196715620Y-76640312D01*
X196540591Y-76688523D01*
X196535852Y-76691022D01*
X196535851Y-76691022D01*
X196384735Y-76770696D01*
X196384732Y-76770698D01*
X196379998Y-76773194D01*
X196316431Y-76826913D01*
X196245423Y-76886919D01*
X196245421Y-76886922D01*
X196241334Y-76890375D01*
X196131066Y-77034598D01*
X196128802Y-77039454D01*
X196128801Y-77039455D01*
X196105079Y-77090327D01*
X196054341Y-77199136D01*
X196053172Y-77204367D01*
X196053171Y-77204369D01*
X196049716Y-77219826D01*
X196014738Y-77376310D01*
X196014719Y-77381668D01*
X196014719Y-77381671D01*
X196014669Y-77395956D01*
X196014104Y-77557856D01*
X192897646Y-77557856D01*
X192909715Y-77486120D01*
X192909715Y-77486117D01*
X192910349Y-77482350D01*
X192910419Y-77476670D01*
X192910453Y-77473826D01*
X192910500Y-77470000D01*
X192890182Y-77328123D01*
X192875050Y-77294840D01*
X192833780Y-77204073D01*
X192833780Y-77204072D01*
X192830860Y-77197651D01*
X192737303Y-77089074D01*
X192617033Y-77011118D01*
X192610275Y-77009097D01*
X192610273Y-77009096D01*
X192486479Y-76972074D01*
X192479718Y-76970052D01*
X192393694Y-76969527D01*
X192343448Y-76969220D01*
X192336396Y-76969177D01*
X192329620Y-76971114D01*
X192329617Y-76971114D01*
X192205369Y-77006624D01*
X192205367Y-77006625D01*
X192198589Y-77008562D01*
X192077375Y-77085042D01*
X191982499Y-77192469D01*
X191921588Y-77322206D01*
X191899538Y-77463824D01*
X191639616Y-77463824D01*
X191620182Y-77328123D01*
X191605050Y-77294840D01*
X191563780Y-77204073D01*
X191563780Y-77204072D01*
X191560860Y-77197651D01*
X191467303Y-77089074D01*
X191347033Y-77011118D01*
X191340275Y-77009097D01*
X191340273Y-77009096D01*
X191216479Y-76972074D01*
X191209718Y-76970052D01*
X191123694Y-76969527D01*
X191073448Y-76969220D01*
X191066396Y-76969177D01*
X191059620Y-76971114D01*
X191059617Y-76971114D01*
X190935369Y-77006624D01*
X190935367Y-77006625D01*
X190928589Y-77008562D01*
X190807375Y-77085042D01*
X190712499Y-77192469D01*
X190651588Y-77322206D01*
X190629538Y-77463824D01*
X187125962Y-77463824D01*
X187171570Y-77369689D01*
X187174366Y-77353074D01*
X187194715Y-77232120D01*
X187194715Y-77232117D01*
X187195349Y-77228350D01*
X187195500Y-77216000D01*
X187175182Y-77074123D01*
X187159420Y-77039455D01*
X187118780Y-76950073D01*
X187118780Y-76950072D01*
X187115860Y-76943651D01*
X187022303Y-76835074D01*
X186902033Y-76757118D01*
X186895275Y-76755097D01*
X186895273Y-76755096D01*
X186771479Y-76718074D01*
X186764718Y-76716052D01*
X186678694Y-76715527D01*
X186628448Y-76715220D01*
X186621396Y-76715177D01*
X186614620Y-76717114D01*
X186614617Y-76717114D01*
X186490369Y-76752624D01*
X186490367Y-76752625D01*
X186483589Y-76754562D01*
X186362375Y-76831042D01*
X186267499Y-76938469D01*
X186206588Y-77068206D01*
X186184538Y-77209824D01*
X177324074Y-77209824D01*
X177292987Y-77117451D01*
X177199483Y-76961834D01*
X177188362Y-76950073D01*
X177078428Y-76833822D01*
X177074745Y-76829927D01*
X176996350Y-76776650D01*
X176929025Y-76730896D01*
X176929023Y-76730895D01*
X176924591Y-76727883D01*
X176862079Y-76702880D01*
X176761006Y-76662453D01*
X176761002Y-76662452D01*
X176756027Y-76660462D01*
X176750742Y-76659587D01*
X176750738Y-76659586D01*
X176632612Y-76640031D01*
X176576918Y-76630811D01*
X176505832Y-76634536D01*
X176400974Y-76640031D01*
X176400970Y-76640032D01*
X176395620Y-76640312D01*
X176220591Y-76688523D01*
X176215852Y-76691022D01*
X176215851Y-76691022D01*
X176064735Y-76770696D01*
X176064732Y-76770698D01*
X176059998Y-76773194D01*
X175996431Y-76826913D01*
X175925423Y-76886919D01*
X175925421Y-76886922D01*
X175921334Y-76890375D01*
X175811066Y-77034598D01*
X175808802Y-77039454D01*
X175808801Y-77039455D01*
X175785079Y-77090327D01*
X175734341Y-77199136D01*
X175733172Y-77204367D01*
X175733171Y-77204369D01*
X175729716Y-77219826D01*
X175694738Y-77376310D01*
X175694719Y-77381668D01*
X175694719Y-77381671D01*
X175694669Y-77395956D01*
X175694104Y-77557856D01*
X175460000Y-77557856D01*
X175460000Y-75017856D01*
X175694104Y-75017856D01*
X175695238Y-75023100D01*
X175731335Y-75190056D01*
X175731337Y-75190061D01*
X175732470Y-75195303D01*
X175734705Y-75200184D01*
X175734705Y-75200185D01*
X175778629Y-75296123D01*
X175808044Y-75360372D01*
X175811266Y-75364648D01*
X175811268Y-75364651D01*
X175866541Y-75438000D01*
X175917302Y-75505362D01*
X176055145Y-75623508D01*
X176215143Y-75709298D01*
X176220299Y-75710757D01*
X176384674Y-75757271D01*
X176384677Y-75757271D01*
X176389831Y-75758730D01*
X176395183Y-75759048D01*
X176565705Y-75769179D01*
X176571058Y-75769497D01*
X176576355Y-75768658D01*
X176576356Y-75768658D01*
X176648271Y-75757267D01*
X176750370Y-75741096D01*
X176919400Y-75674854D01*
X176923855Y-75671872D01*
X176923860Y-75671869D01*
X177059418Y-75581120D01*
X177070263Y-75573860D01*
X177084682Y-75558824D01*
X183644538Y-75558824D01*
X183645453Y-75565822D01*
X183660393Y-75680073D01*
X183663121Y-75700939D01*
X183665962Y-75707395D01*
X183665962Y-75707396D01*
X183708987Y-75805176D01*
X183720845Y-75832126D01*
X183813068Y-75941838D01*
X183818939Y-75945746D01*
X183818940Y-75945747D01*
X183843537Y-75962120D01*
X183932377Y-76021257D01*
X183939104Y-76023359D01*
X183939107Y-76023360D01*
X184062448Y-76061894D01*
X184062449Y-76061894D01*
X184069180Y-76063997D01*
X184140831Y-76065311D01*
X184205427Y-76066495D01*
X184205429Y-76066495D01*
X184212481Y-76066624D01*
X184219284Y-76064769D01*
X184219286Y-76064769D01*
X184266065Y-76052015D01*
X184350758Y-76028925D01*
X184472897Y-75953931D01*
X184485666Y-75939824D01*
X186184538Y-75939824D01*
X186185453Y-75946822D01*
X186201102Y-76066495D01*
X186203121Y-76081939D01*
X186205962Y-76088395D01*
X186205962Y-76088396D01*
X186207870Y-76092731D01*
X186260845Y-76213126D01*
X186353068Y-76322838D01*
X186358939Y-76326746D01*
X186358940Y-76326747D01*
X186371235Y-76334931D01*
X186472377Y-76402257D01*
X186479104Y-76404359D01*
X186479107Y-76404360D01*
X186602448Y-76442894D01*
X186602449Y-76442894D01*
X186609180Y-76444997D01*
X186680830Y-76446310D01*
X186745427Y-76447495D01*
X186745429Y-76447495D01*
X186752481Y-76447624D01*
X186759284Y-76445769D01*
X186759286Y-76445769D01*
X186806065Y-76433015D01*
X186890758Y-76409925D01*
X187012897Y-76334931D01*
X187109078Y-76228672D01*
X187171570Y-76099689D01*
X187174557Y-76081939D01*
X187194715Y-75962120D01*
X187194715Y-75962117D01*
X187195349Y-75958350D01*
X187195500Y-75946000D01*
X187175182Y-75804123D01*
X187146907Y-75741934D01*
X187118780Y-75680073D01*
X187118780Y-75680072D01*
X187115860Y-75673651D01*
X187022303Y-75565074D01*
X186902033Y-75487118D01*
X186895275Y-75485097D01*
X186895273Y-75485096D01*
X186771479Y-75448074D01*
X186764718Y-75446052D01*
X186678694Y-75445527D01*
X186628448Y-75445220D01*
X186621396Y-75445177D01*
X186614620Y-75447114D01*
X186614617Y-75447114D01*
X186490369Y-75482624D01*
X186490367Y-75482625D01*
X186483589Y-75484562D01*
X186477625Y-75488325D01*
X186376944Y-75551850D01*
X186362375Y-75561042D01*
X186267499Y-75668469D01*
X186206588Y-75798206D01*
X186184538Y-75939824D01*
X184485666Y-75939824D01*
X184488731Y-75936438D01*
X184564346Y-75852900D01*
X184564346Y-75852899D01*
X184569078Y-75847672D01*
X184631570Y-75718689D01*
X184632905Y-75710757D01*
X184654715Y-75581120D01*
X184654715Y-75581117D01*
X184655349Y-75577350D01*
X184655500Y-75565000D01*
X184636428Y-75431824D01*
X193550538Y-75431824D01*
X193551453Y-75438822D01*
X193567145Y-75558824D01*
X193569121Y-75573939D01*
X193571962Y-75580395D01*
X193571962Y-75580396D01*
X193614386Y-75676810D01*
X193626845Y-75705126D01*
X193631382Y-75710523D01*
X193631383Y-75710525D01*
X193670678Y-75757271D01*
X193719068Y-75814838D01*
X193724939Y-75818746D01*
X193724940Y-75818747D01*
X193737235Y-75826931D01*
X193838377Y-75894257D01*
X193845104Y-75896359D01*
X193845107Y-75896360D01*
X193968448Y-75934894D01*
X193968449Y-75934894D01*
X193975180Y-75936997D01*
X194046831Y-75938311D01*
X194111427Y-75939495D01*
X194111429Y-75939495D01*
X194118481Y-75939624D01*
X194125284Y-75937769D01*
X194125286Y-75937769D01*
X194172065Y-75925015D01*
X194256758Y-75901925D01*
X194378897Y-75826931D01*
X194475078Y-75720672D01*
X194537570Y-75591689D01*
X194539349Y-75581120D01*
X194560715Y-75454120D01*
X194560715Y-75454117D01*
X194561349Y-75450350D01*
X194561500Y-75438000D01*
X194559370Y-75423123D01*
X194542182Y-75303106D01*
X194541182Y-75296123D01*
X194537429Y-75287867D01*
X194484780Y-75172073D01*
X194484780Y-75172072D01*
X194481860Y-75165651D01*
X194388303Y-75057074D01*
X194327798Y-75017856D01*
X196014104Y-75017856D01*
X196015238Y-75023100D01*
X196051335Y-75190056D01*
X196051337Y-75190061D01*
X196052470Y-75195303D01*
X196054705Y-75200184D01*
X196054705Y-75200185D01*
X196098629Y-75296123D01*
X196128044Y-75360372D01*
X196131266Y-75364648D01*
X196131268Y-75364651D01*
X196186541Y-75438000D01*
X196237302Y-75505362D01*
X196375145Y-75623508D01*
X196535143Y-75709298D01*
X196540299Y-75710757D01*
X196704674Y-75757271D01*
X196704677Y-75757271D01*
X196709831Y-75758730D01*
X196715183Y-75759048D01*
X196885705Y-75769179D01*
X196891058Y-75769497D01*
X196896355Y-75768658D01*
X196896356Y-75768658D01*
X196968271Y-75757267D01*
X197070370Y-75741096D01*
X197239400Y-75674854D01*
X197243855Y-75671872D01*
X197243860Y-75671869D01*
X197379418Y-75581120D01*
X197390263Y-75573860D01*
X197515919Y-75442827D01*
X197518866Y-75438000D01*
X197607712Y-75292446D01*
X197610507Y-75287867D01*
X197612464Y-75282185D01*
X197667867Y-75121282D01*
X197669613Y-75116212D01*
X197690480Y-74935868D01*
X197690500Y-74930000D01*
X197686618Y-74894264D01*
X197671472Y-74754840D01*
X197671471Y-74754835D01*
X197670893Y-74749515D01*
X197612987Y-74577451D01*
X197524954Y-74430939D01*
X197522243Y-74426427D01*
X197522242Y-74426425D01*
X197519483Y-74421834D01*
X197394745Y-74289927D01*
X197316350Y-74236650D01*
X197249025Y-74190896D01*
X197249023Y-74190895D01*
X197244591Y-74187883D01*
X197157685Y-74153123D01*
X197081006Y-74122453D01*
X197081002Y-74122452D01*
X197076027Y-74120462D01*
X197070742Y-74119587D01*
X197070738Y-74119586D01*
X196952612Y-74100031D01*
X196896918Y-74090811D01*
X196825832Y-74094536D01*
X196720974Y-74100031D01*
X196720970Y-74100032D01*
X196715620Y-74100312D01*
X196540591Y-74148523D01*
X196535852Y-74151022D01*
X196535851Y-74151022D01*
X196384735Y-74230696D01*
X196384732Y-74230698D01*
X196379998Y-74233194D01*
X196322422Y-74281850D01*
X196245423Y-74346919D01*
X196245421Y-74346922D01*
X196241334Y-74350375D01*
X196131066Y-74494598D01*
X196054341Y-74659136D01*
X196053172Y-74664367D01*
X196053171Y-74664369D01*
X196047973Y-74687623D01*
X196014738Y-74836310D01*
X196014104Y-75017856D01*
X194327798Y-75017856D01*
X194268033Y-74979118D01*
X194261275Y-74977097D01*
X194261273Y-74977096D01*
X194137479Y-74940074D01*
X194130718Y-74938052D01*
X194044694Y-74937527D01*
X193994448Y-74937220D01*
X193987396Y-74937177D01*
X193980620Y-74939114D01*
X193980617Y-74939114D01*
X193856369Y-74974624D01*
X193856367Y-74974625D01*
X193849589Y-74976562D01*
X193728375Y-75053042D01*
X193633499Y-75160469D01*
X193572588Y-75290206D01*
X193550538Y-75431824D01*
X184636428Y-75431824D01*
X184635182Y-75423123D01*
X184608597Y-75364651D01*
X184578780Y-75299073D01*
X184578780Y-75299072D01*
X184575860Y-75292651D01*
X184482303Y-75184074D01*
X184362033Y-75106118D01*
X184355275Y-75104097D01*
X184355273Y-75104096D01*
X184231479Y-75067074D01*
X184224718Y-75065052D01*
X184138694Y-75064527D01*
X184088448Y-75064220D01*
X184081396Y-75064177D01*
X184074620Y-75066114D01*
X184074617Y-75066114D01*
X183950369Y-75101624D01*
X183950367Y-75101625D01*
X183943589Y-75103562D01*
X183822375Y-75180042D01*
X183727499Y-75287469D01*
X183666588Y-75417206D01*
X183644538Y-75558824D01*
X177084682Y-75558824D01*
X177195919Y-75442827D01*
X177198866Y-75438000D01*
X177287712Y-75292446D01*
X177290507Y-75287867D01*
X177292464Y-75282185D01*
X177347867Y-75121282D01*
X177349613Y-75116212D01*
X177370480Y-74935868D01*
X177370500Y-74930000D01*
X177366618Y-74894264D01*
X177351472Y-74754840D01*
X177351471Y-74754835D01*
X177350893Y-74749515D01*
X177292987Y-74577451D01*
X177204954Y-74430939D01*
X177202243Y-74426427D01*
X177202242Y-74426425D01*
X177199483Y-74421834D01*
X177074745Y-74289927D01*
X177073122Y-74288824D01*
X184279538Y-74288824D01*
X184280453Y-74295822D01*
X184287135Y-74346919D01*
X184298121Y-74430939D01*
X184300962Y-74437395D01*
X184300962Y-74437396D01*
X184324259Y-74490341D01*
X184355845Y-74562126D01*
X184448068Y-74671838D01*
X184453939Y-74675746D01*
X184453940Y-74675747D01*
X184466235Y-74683931D01*
X184567377Y-74751257D01*
X184574104Y-74753359D01*
X184574107Y-74753360D01*
X184697448Y-74791894D01*
X184697449Y-74791894D01*
X184704180Y-74793997D01*
X184775830Y-74795310D01*
X184840427Y-74796495D01*
X184840429Y-74796495D01*
X184847481Y-74796624D01*
X184854284Y-74794769D01*
X184854286Y-74794769D01*
X184901065Y-74782015D01*
X184985758Y-74758925D01*
X185107897Y-74683931D01*
X185123731Y-74666438D01*
X185199346Y-74582900D01*
X185199346Y-74582899D01*
X185204078Y-74577672D01*
X185266570Y-74448689D01*
X185269557Y-74430939D01*
X185289715Y-74311120D01*
X185289715Y-74311117D01*
X185290349Y-74307350D01*
X185290500Y-74295000D01*
X185271428Y-74161824D01*
X193550538Y-74161824D01*
X193551453Y-74168822D01*
X193567145Y-74288824D01*
X193569121Y-74303939D01*
X193571962Y-74310395D01*
X193571962Y-74310396D01*
X193573870Y-74314731D01*
X193626845Y-74435126D01*
X193719068Y-74544838D01*
X193724939Y-74548746D01*
X193724940Y-74548747D01*
X193737235Y-74556931D01*
X193838377Y-74624257D01*
X193845104Y-74626359D01*
X193845107Y-74626360D01*
X193968448Y-74664894D01*
X193968449Y-74664894D01*
X193975180Y-74666997D01*
X194046831Y-74668311D01*
X194111427Y-74669495D01*
X194111429Y-74669495D01*
X194118481Y-74669624D01*
X194125284Y-74667769D01*
X194125286Y-74667769D01*
X194174773Y-74654277D01*
X194256758Y-74631925D01*
X194378897Y-74556931D01*
X194435318Y-74494598D01*
X194470346Y-74455900D01*
X194470346Y-74455899D01*
X194475078Y-74450672D01*
X194537570Y-74321689D01*
X194539349Y-74311120D01*
X194560715Y-74184120D01*
X194560715Y-74184117D01*
X194561349Y-74180350D01*
X194561500Y-74168000D01*
X194559370Y-74153123D01*
X194542182Y-74033106D01*
X194541182Y-74026123D01*
X194537248Y-74017469D01*
X194484780Y-73902073D01*
X194484780Y-73902072D01*
X194481860Y-73895651D01*
X194388303Y-73787074D01*
X194268033Y-73709118D01*
X194261275Y-73707097D01*
X194261273Y-73707096D01*
X194137479Y-73670074D01*
X194130718Y-73668052D01*
X194044694Y-73667527D01*
X193994448Y-73667220D01*
X193987396Y-73667177D01*
X193980620Y-73669114D01*
X193980617Y-73669114D01*
X193856369Y-73704624D01*
X193856367Y-73704625D01*
X193849589Y-73706562D01*
X193728375Y-73783042D01*
X193633499Y-73890469D01*
X193572588Y-74020206D01*
X193550538Y-74161824D01*
X185271428Y-74161824D01*
X185270182Y-74153123D01*
X185256238Y-74122453D01*
X185213780Y-74029073D01*
X185213780Y-74029072D01*
X185210860Y-74022651D01*
X185117303Y-73914074D01*
X184997033Y-73836118D01*
X184990275Y-73834097D01*
X184990273Y-73834096D01*
X184866479Y-73797074D01*
X184859718Y-73795052D01*
X184773694Y-73794527D01*
X184723448Y-73794220D01*
X184716396Y-73794177D01*
X184709620Y-73796114D01*
X184709617Y-73796114D01*
X184585369Y-73831624D01*
X184585367Y-73831625D01*
X184578589Y-73833562D01*
X184457375Y-73910042D01*
X184362499Y-74017469D01*
X184301588Y-74147206D01*
X184279538Y-74288824D01*
X177073122Y-74288824D01*
X176996350Y-74236650D01*
X176929025Y-74190896D01*
X176929023Y-74190895D01*
X176924591Y-74187883D01*
X176837685Y-74153123D01*
X176761006Y-74122453D01*
X176761002Y-74122452D01*
X176756027Y-74120462D01*
X176750742Y-74119587D01*
X176750738Y-74119586D01*
X176632612Y-74100031D01*
X176576918Y-74090811D01*
X176505832Y-74094536D01*
X176400974Y-74100031D01*
X176400970Y-74100032D01*
X176395620Y-74100312D01*
X176220591Y-74148523D01*
X176215852Y-74151022D01*
X176215851Y-74151022D01*
X176064735Y-74230696D01*
X176064732Y-74230698D01*
X176059998Y-74233194D01*
X176002422Y-74281850D01*
X175925423Y-74346919D01*
X175925421Y-74346922D01*
X175921334Y-74350375D01*
X175811066Y-74494598D01*
X175734341Y-74659136D01*
X175733172Y-74664367D01*
X175733171Y-74664369D01*
X175727973Y-74687623D01*
X175694738Y-74836310D01*
X175694104Y-75017856D01*
X175460000Y-75017856D01*
X175460000Y-72477856D01*
X175694104Y-72477856D01*
X175700861Y-72509106D01*
X175731335Y-72650056D01*
X175731337Y-72650061D01*
X175732470Y-72655303D01*
X175808044Y-72820372D01*
X175917302Y-72965362D01*
X176055145Y-73083508D01*
X176059871Y-73086042D01*
X176170751Y-73145495D01*
X176215143Y-73169298D01*
X176220299Y-73170757D01*
X176384674Y-73217271D01*
X176384677Y-73217271D01*
X176389831Y-73218730D01*
X176395183Y-73219048D01*
X176565705Y-73229179D01*
X176571058Y-73229497D01*
X176576355Y-73228658D01*
X176576356Y-73228658D01*
X176648271Y-73217267D01*
X176750370Y-73201096D01*
X176919400Y-73134854D01*
X176923855Y-73131872D01*
X176923860Y-73131869D01*
X177017060Y-73069477D01*
X177070263Y-73033860D01*
X177168039Y-72931900D01*
X177192205Y-72906700D01*
X177195919Y-72902827D01*
X177290507Y-72747867D01*
X177328398Y-72637824D01*
X193550538Y-72637824D01*
X193551453Y-72644822D01*
X193564264Y-72742791D01*
X193569121Y-72779939D01*
X193571962Y-72786395D01*
X193571962Y-72786396D01*
X193573870Y-72790731D01*
X193626845Y-72911126D01*
X193631382Y-72916523D01*
X193631383Y-72916525D01*
X193672435Y-72965362D01*
X193719068Y-73020838D01*
X193724939Y-73024746D01*
X193724940Y-73024747D01*
X193742781Y-73036623D01*
X193838377Y-73100257D01*
X193845104Y-73102359D01*
X193845107Y-73102360D01*
X193968448Y-73140894D01*
X193968449Y-73140894D01*
X193975180Y-73142997D01*
X194046830Y-73144310D01*
X194111427Y-73145495D01*
X194111429Y-73145495D01*
X194118481Y-73145624D01*
X194125284Y-73143769D01*
X194125286Y-73143769D01*
X194172065Y-73131015D01*
X194256758Y-73107925D01*
X194378897Y-73032931D01*
X194475078Y-72926672D01*
X194537570Y-72797689D01*
X194540557Y-72779939D01*
X194560715Y-72660120D01*
X194560715Y-72660117D01*
X194561349Y-72656350D01*
X194561500Y-72644000D01*
X194541182Y-72502123D01*
X194530149Y-72477856D01*
X196014104Y-72477856D01*
X196020861Y-72509106D01*
X196051335Y-72650056D01*
X196051337Y-72650061D01*
X196052470Y-72655303D01*
X196128044Y-72820372D01*
X196237302Y-72965362D01*
X196375145Y-73083508D01*
X196379871Y-73086042D01*
X196490751Y-73145495D01*
X196535143Y-73169298D01*
X196540299Y-73170757D01*
X196704674Y-73217271D01*
X196704677Y-73217271D01*
X196709831Y-73218730D01*
X196715183Y-73219048D01*
X196885705Y-73229179D01*
X196891058Y-73229497D01*
X196896355Y-73228658D01*
X196896356Y-73228658D01*
X196968271Y-73217267D01*
X197070370Y-73201096D01*
X197239400Y-73134854D01*
X197243855Y-73131872D01*
X197243860Y-73131869D01*
X197337060Y-73069477D01*
X197390263Y-73033860D01*
X197488039Y-72931900D01*
X197512205Y-72906700D01*
X197515919Y-72902827D01*
X197610507Y-72747867D01*
X197669613Y-72576212D01*
X197690480Y-72395868D01*
X197690500Y-72390000D01*
X197686618Y-72354264D01*
X197671472Y-72214840D01*
X197671471Y-72214835D01*
X197670893Y-72209515D01*
X197612987Y-72037451D01*
X197519483Y-71881834D01*
X197394745Y-71749927D01*
X197316350Y-71696650D01*
X197249025Y-71650896D01*
X197249023Y-71650895D01*
X197244591Y-71647883D01*
X197182079Y-71622880D01*
X197081006Y-71582453D01*
X197081002Y-71582452D01*
X197076027Y-71580462D01*
X197070742Y-71579587D01*
X197070738Y-71579586D01*
X196952612Y-71560031D01*
X196896918Y-71550811D01*
X196825832Y-71554536D01*
X196720974Y-71560031D01*
X196720970Y-71560032D01*
X196715620Y-71560312D01*
X196540591Y-71608523D01*
X196535852Y-71611022D01*
X196535851Y-71611022D01*
X196384735Y-71690696D01*
X196384732Y-71690698D01*
X196379998Y-71693194D01*
X196316431Y-71746913D01*
X196245423Y-71806919D01*
X196245421Y-71806922D01*
X196241334Y-71810375D01*
X196131066Y-71954598D01*
X196054341Y-72119136D01*
X196053172Y-72124367D01*
X196053171Y-72124369D01*
X196038734Y-72188956D01*
X196014738Y-72296310D01*
X196014719Y-72301668D01*
X196014719Y-72301671D01*
X196014493Y-72366469D01*
X196014104Y-72477856D01*
X194530149Y-72477856D01*
X194484780Y-72378073D01*
X194484780Y-72378072D01*
X194481860Y-72371651D01*
X194388303Y-72263074D01*
X194268033Y-72185118D01*
X194261275Y-72183097D01*
X194261273Y-72183096D01*
X194137479Y-72146074D01*
X194130718Y-72144052D01*
X194044694Y-72143527D01*
X193994448Y-72143220D01*
X193987396Y-72143177D01*
X193980620Y-72145114D01*
X193980617Y-72145114D01*
X193856369Y-72180624D01*
X193856367Y-72180625D01*
X193849589Y-72182562D01*
X193728375Y-72259042D01*
X193633499Y-72366469D01*
X193572588Y-72496206D01*
X193550538Y-72637824D01*
X177328398Y-72637824D01*
X177349613Y-72576212D01*
X177370480Y-72395868D01*
X177370500Y-72390000D01*
X177366618Y-72354264D01*
X177351472Y-72214840D01*
X177351471Y-72214835D01*
X177350893Y-72209515D01*
X177292987Y-72037451D01*
X177199483Y-71881834D01*
X177074745Y-71749927D01*
X176996350Y-71696650D01*
X176929025Y-71650896D01*
X176929023Y-71650895D01*
X176924591Y-71647883D01*
X176862079Y-71622880D01*
X176761006Y-71582453D01*
X176761002Y-71582452D01*
X176756027Y-71580462D01*
X176750742Y-71579587D01*
X176750738Y-71579586D01*
X176632612Y-71560031D01*
X176576918Y-71550811D01*
X176505832Y-71554536D01*
X176400974Y-71560031D01*
X176400970Y-71560032D01*
X176395620Y-71560312D01*
X176220591Y-71608523D01*
X176215852Y-71611022D01*
X176215851Y-71611022D01*
X176064735Y-71690696D01*
X176064732Y-71690698D01*
X176059998Y-71693194D01*
X175996431Y-71746913D01*
X175925423Y-71806919D01*
X175925421Y-71806922D01*
X175921334Y-71810375D01*
X175811066Y-71954598D01*
X175734341Y-72119136D01*
X175733172Y-72124367D01*
X175733171Y-72124369D01*
X175718734Y-72188956D01*
X175694738Y-72296310D01*
X175694719Y-72301668D01*
X175694719Y-72301671D01*
X175694493Y-72366469D01*
X175694104Y-72477856D01*
X175460000Y-72477856D01*
X175460000Y-69937856D01*
X175694104Y-69937856D01*
X175702513Y-69976747D01*
X175731335Y-70110056D01*
X175731337Y-70110061D01*
X175732470Y-70115303D01*
X175808044Y-70280372D01*
X175917302Y-70425362D01*
X176055145Y-70543508D01*
X176215143Y-70629298D01*
X176220299Y-70630757D01*
X176384674Y-70677271D01*
X176384677Y-70677271D01*
X176389831Y-70678730D01*
X176395183Y-70679048D01*
X176565705Y-70689179D01*
X176571058Y-70689497D01*
X176576355Y-70688658D01*
X176576356Y-70688658D01*
X176648271Y-70677267D01*
X176750370Y-70661096D01*
X176919400Y-70594854D01*
X176923855Y-70591872D01*
X176923860Y-70591869D01*
X177017060Y-70529477D01*
X177070263Y-70493860D01*
X177195919Y-70362827D01*
X177290507Y-70207867D01*
X177349613Y-70036212D01*
X177370480Y-69855868D01*
X177370500Y-69850000D01*
X177366618Y-69814264D01*
X177351472Y-69674840D01*
X177351471Y-69674835D01*
X177350893Y-69669515D01*
X177324074Y-69589824D01*
X178564538Y-69589824D01*
X178565453Y-69596822D01*
X178574295Y-69664438D01*
X178583121Y-69731939D01*
X178585962Y-69738395D01*
X178585962Y-69738396D01*
X178636285Y-69852762D01*
X178640845Y-69863126D01*
X178733068Y-69972838D01*
X178738939Y-69976746D01*
X178738940Y-69976747D01*
X178751235Y-69984931D01*
X178852377Y-70052257D01*
X178859104Y-70054359D01*
X178859107Y-70054360D01*
X178982448Y-70092894D01*
X178982449Y-70092894D01*
X178989180Y-70094997D01*
X179060830Y-70096310D01*
X179125427Y-70097495D01*
X179125429Y-70097495D01*
X179132481Y-70097624D01*
X179139284Y-70095769D01*
X179139286Y-70095769D01*
X179186065Y-70083015D01*
X179270758Y-70059925D01*
X179392897Y-69984931D01*
X179435507Y-69937856D01*
X196014104Y-69937856D01*
X196022513Y-69976747D01*
X196051335Y-70110056D01*
X196051337Y-70110061D01*
X196052470Y-70115303D01*
X196128044Y-70280372D01*
X196237302Y-70425362D01*
X196375145Y-70543508D01*
X196535143Y-70629298D01*
X196540299Y-70630757D01*
X196704674Y-70677271D01*
X196704677Y-70677271D01*
X196709831Y-70678730D01*
X196715183Y-70679048D01*
X196885705Y-70689179D01*
X196891058Y-70689497D01*
X196896355Y-70688658D01*
X196896356Y-70688658D01*
X196968271Y-70677267D01*
X197070370Y-70661096D01*
X197239400Y-70594854D01*
X197243855Y-70591872D01*
X197243860Y-70591869D01*
X197337060Y-70529477D01*
X197390263Y-70493860D01*
X197515919Y-70362827D01*
X197610507Y-70207867D01*
X197669613Y-70036212D01*
X197690480Y-69855868D01*
X197690500Y-69850000D01*
X197686618Y-69814264D01*
X197671472Y-69674840D01*
X197671471Y-69674835D01*
X197670893Y-69669515D01*
X197612987Y-69497451D01*
X197519483Y-69341834D01*
X197508362Y-69330073D01*
X197398428Y-69213822D01*
X197394745Y-69209927D01*
X197316350Y-69156650D01*
X197249025Y-69110896D01*
X197249023Y-69110895D01*
X197244591Y-69107883D01*
X197182079Y-69082880D01*
X197081006Y-69042453D01*
X197081002Y-69042452D01*
X197076027Y-69040462D01*
X197070742Y-69039587D01*
X197070738Y-69039586D01*
X196952612Y-69020031D01*
X196896918Y-69010811D01*
X196825832Y-69014536D01*
X196720974Y-69020031D01*
X196720970Y-69020032D01*
X196715620Y-69020312D01*
X196540591Y-69068523D01*
X196535852Y-69071022D01*
X196535851Y-69071022D01*
X196384735Y-69150696D01*
X196384732Y-69150698D01*
X196379998Y-69153194D01*
X196316431Y-69206913D01*
X196245423Y-69266919D01*
X196245421Y-69266922D01*
X196241334Y-69270375D01*
X196131066Y-69414598D01*
X196054341Y-69579136D01*
X196053172Y-69584367D01*
X196053171Y-69584369D01*
X196049716Y-69599826D01*
X196014738Y-69756310D01*
X196014104Y-69937856D01*
X179435507Y-69937856D01*
X179489078Y-69878672D01*
X179551570Y-69749689D01*
X179554557Y-69731939D01*
X179574715Y-69612120D01*
X179574715Y-69612117D01*
X179575349Y-69608350D01*
X179575500Y-69596000D01*
X179555182Y-69454123D01*
X179539420Y-69419455D01*
X179498780Y-69330073D01*
X179498780Y-69330072D01*
X179495860Y-69323651D01*
X179402303Y-69215074D01*
X179282033Y-69137118D01*
X179275275Y-69135097D01*
X179275273Y-69135096D01*
X179151479Y-69098074D01*
X179144718Y-69096052D01*
X179058694Y-69095527D01*
X179008448Y-69095220D01*
X179001396Y-69095177D01*
X178994620Y-69097114D01*
X178994617Y-69097114D01*
X178870369Y-69132624D01*
X178870367Y-69132625D01*
X178863589Y-69134562D01*
X178742375Y-69211042D01*
X178647499Y-69318469D01*
X178586588Y-69448206D01*
X178564538Y-69589824D01*
X177324074Y-69589824D01*
X177292987Y-69497451D01*
X177199483Y-69341834D01*
X177188362Y-69330073D01*
X177078428Y-69213822D01*
X177074745Y-69209927D01*
X176996350Y-69156650D01*
X176929025Y-69110896D01*
X176929023Y-69110895D01*
X176924591Y-69107883D01*
X176862079Y-69082880D01*
X176761006Y-69042453D01*
X176761002Y-69042452D01*
X176756027Y-69040462D01*
X176750742Y-69039587D01*
X176750738Y-69039586D01*
X176632612Y-69020031D01*
X176576918Y-69010811D01*
X176505832Y-69014536D01*
X176400974Y-69020031D01*
X176400970Y-69020032D01*
X176395620Y-69020312D01*
X176220591Y-69068523D01*
X176215852Y-69071022D01*
X176215851Y-69071022D01*
X176064735Y-69150696D01*
X176064732Y-69150698D01*
X176059998Y-69153194D01*
X175996431Y-69206913D01*
X175925423Y-69266919D01*
X175925421Y-69266922D01*
X175921334Y-69270375D01*
X175811066Y-69414598D01*
X175734341Y-69579136D01*
X175733172Y-69584367D01*
X175733171Y-69584369D01*
X175729716Y-69599826D01*
X175694738Y-69756310D01*
X175694104Y-69937856D01*
X175460000Y-69937856D01*
X175460000Y-67397856D01*
X175694104Y-67397856D01*
X175695238Y-67403100D01*
X175731335Y-67570056D01*
X175731337Y-67570061D01*
X175732470Y-67575303D01*
X175734705Y-67580184D01*
X175734705Y-67580185D01*
X175797234Y-67716760D01*
X175808044Y-67740372D01*
X175917302Y-67885362D01*
X176055145Y-68003508D01*
X176215143Y-68089298D01*
X176220299Y-68090757D01*
X176384674Y-68137271D01*
X176384677Y-68137271D01*
X176389831Y-68138730D01*
X176395183Y-68139048D01*
X176565705Y-68149179D01*
X176571058Y-68149497D01*
X176576355Y-68148658D01*
X176576356Y-68148658D01*
X176648271Y-68137267D01*
X176750370Y-68121096D01*
X176891408Y-68065824D01*
X178564538Y-68065824D01*
X178565453Y-68072822D01*
X178575438Y-68149179D01*
X178583121Y-68207939D01*
X178585962Y-68214395D01*
X178585962Y-68214396D01*
X178587870Y-68218731D01*
X178640845Y-68339126D01*
X178733068Y-68448838D01*
X178738939Y-68452746D01*
X178738940Y-68452747D01*
X178751235Y-68460931D01*
X178852377Y-68528257D01*
X178859104Y-68530359D01*
X178859107Y-68530360D01*
X178982448Y-68568894D01*
X178982449Y-68568894D01*
X178989180Y-68570997D01*
X179060830Y-68572310D01*
X179125427Y-68573495D01*
X179125429Y-68573495D01*
X179132481Y-68573624D01*
X179139284Y-68571769D01*
X179139286Y-68571769D01*
X179186065Y-68559015D01*
X179270758Y-68535925D01*
X179392897Y-68460931D01*
X179489078Y-68354672D01*
X179551570Y-68225689D01*
X179554557Y-68207939D01*
X179574715Y-68088120D01*
X179574715Y-68088117D01*
X179575349Y-68084350D01*
X179575500Y-68072000D01*
X179555182Y-67930123D01*
X179534831Y-67885362D01*
X179498780Y-67806073D01*
X179498780Y-67806072D01*
X179495860Y-67799651D01*
X179402303Y-67691074D01*
X179282033Y-67613118D01*
X179275275Y-67611097D01*
X179275273Y-67611096D01*
X179151479Y-67574074D01*
X179144718Y-67572052D01*
X179058694Y-67571527D01*
X179008448Y-67571220D01*
X179001396Y-67571177D01*
X178994620Y-67573114D01*
X178994617Y-67573114D01*
X178870369Y-67608624D01*
X178870367Y-67608625D01*
X178863589Y-67610562D01*
X178742375Y-67687042D01*
X178647499Y-67794469D01*
X178586588Y-67924206D01*
X178564538Y-68065824D01*
X176891408Y-68065824D01*
X176919400Y-68054854D01*
X176923855Y-68051872D01*
X176923860Y-68051869D01*
X177017060Y-67989477D01*
X177070263Y-67953860D01*
X177195919Y-67822827D01*
X177281100Y-67683279D01*
X177287712Y-67672446D01*
X177290507Y-67667867D01*
X177349613Y-67496212D01*
X177370480Y-67315868D01*
X177370500Y-67310000D01*
X177366618Y-67274264D01*
X177351472Y-67134840D01*
X177351471Y-67134835D01*
X177350893Y-67129515D01*
X177292987Y-66957451D01*
X177207470Y-66815126D01*
X177202243Y-66806427D01*
X177202242Y-66806425D01*
X177199483Y-66801834D01*
X177186568Y-66788176D01*
X177098201Y-66694731D01*
X177074745Y-66669927D01*
X176996350Y-66616650D01*
X176929025Y-66570896D01*
X176929023Y-66570895D01*
X176924591Y-66567883D01*
X176859439Y-66541824D01*
X178564538Y-66541824D01*
X178565453Y-66548822D01*
X178580393Y-66663073D01*
X178583121Y-66683939D01*
X178585962Y-66690395D01*
X178585962Y-66690396D01*
X178628987Y-66788176D01*
X178640845Y-66815126D01*
X178733068Y-66924838D01*
X178738939Y-66928746D01*
X178738940Y-66928747D01*
X178763537Y-66945120D01*
X178852377Y-67004257D01*
X178859104Y-67006359D01*
X178859107Y-67006360D01*
X178982448Y-67044894D01*
X178982449Y-67044894D01*
X178989180Y-67046997D01*
X179060831Y-67048311D01*
X179125427Y-67049495D01*
X179125429Y-67049495D01*
X179132481Y-67049624D01*
X179139284Y-67047769D01*
X179139286Y-67047769D01*
X179188773Y-67034277D01*
X179270758Y-67011925D01*
X179392897Y-66936931D01*
X179405666Y-66922824D01*
X181358538Y-66922824D01*
X181359453Y-66929822D01*
X181375102Y-67049495D01*
X181377121Y-67064939D01*
X181379962Y-67071395D01*
X181379962Y-67071396D01*
X181381870Y-67075731D01*
X181434845Y-67196126D01*
X181439382Y-67201523D01*
X181439383Y-67201525D01*
X181452307Y-67216900D01*
X181527068Y-67305838D01*
X181532939Y-67309746D01*
X181532940Y-67309747D01*
X181542136Y-67315868D01*
X181646377Y-67385257D01*
X181653104Y-67387359D01*
X181653107Y-67387360D01*
X181776448Y-67425894D01*
X181776449Y-67425894D01*
X181783180Y-67427997D01*
X181854830Y-67429310D01*
X181919427Y-67430495D01*
X181919429Y-67430495D01*
X181926481Y-67430624D01*
X181933284Y-67428769D01*
X181933286Y-67428769D01*
X181980065Y-67416015D01*
X182046671Y-67397856D01*
X196014104Y-67397856D01*
X196015238Y-67403100D01*
X196051335Y-67570056D01*
X196051337Y-67570061D01*
X196052470Y-67575303D01*
X196054705Y-67580184D01*
X196054705Y-67580185D01*
X196117234Y-67716760D01*
X196128044Y-67740372D01*
X196237302Y-67885362D01*
X196375145Y-68003508D01*
X196535143Y-68089298D01*
X196540299Y-68090757D01*
X196704674Y-68137271D01*
X196704677Y-68137271D01*
X196709831Y-68138730D01*
X196715183Y-68139048D01*
X196885705Y-68149179D01*
X196891058Y-68149497D01*
X196896355Y-68148658D01*
X196896356Y-68148658D01*
X196968271Y-68137267D01*
X197070370Y-68121096D01*
X197239400Y-68054854D01*
X197243855Y-68051872D01*
X197243860Y-68051869D01*
X197337060Y-67989477D01*
X197390263Y-67953860D01*
X197515919Y-67822827D01*
X197601100Y-67683279D01*
X197607712Y-67672446D01*
X197610507Y-67667867D01*
X197669613Y-67496212D01*
X197690480Y-67315868D01*
X197690500Y-67310000D01*
X197686618Y-67274264D01*
X197671472Y-67134840D01*
X197671471Y-67134835D01*
X197670893Y-67129515D01*
X197612987Y-66957451D01*
X197527470Y-66815126D01*
X197522243Y-66806427D01*
X197522242Y-66806425D01*
X197519483Y-66801834D01*
X197506568Y-66788176D01*
X197418201Y-66694731D01*
X197394745Y-66669927D01*
X197316350Y-66616650D01*
X197249025Y-66570896D01*
X197249023Y-66570895D01*
X197244591Y-66567883D01*
X197162003Y-66534850D01*
X197081006Y-66502453D01*
X197081002Y-66502452D01*
X197076027Y-66500462D01*
X197070742Y-66499587D01*
X197070738Y-66499586D01*
X196952612Y-66480031D01*
X196896918Y-66470811D01*
X196825832Y-66474536D01*
X196720974Y-66480031D01*
X196720970Y-66480032D01*
X196715620Y-66480312D01*
X196540591Y-66528523D01*
X196535852Y-66531022D01*
X196535851Y-66531022D01*
X196384735Y-66610696D01*
X196384732Y-66610698D01*
X196379998Y-66613194D01*
X196334706Y-66651469D01*
X196245423Y-66726919D01*
X196245421Y-66726922D01*
X196241334Y-66730375D01*
X196131066Y-66874598D01*
X196054341Y-67039136D01*
X196053172Y-67044367D01*
X196053171Y-67044369D01*
X196035274Y-67124438D01*
X196014738Y-67216310D01*
X196014104Y-67397856D01*
X182046671Y-67397856D01*
X182064758Y-67392925D01*
X182186897Y-67317931D01*
X182283078Y-67211672D01*
X182345570Y-67082689D01*
X182348557Y-67064939D01*
X182368715Y-66945120D01*
X182368715Y-66945117D01*
X182369349Y-66941350D01*
X182369500Y-66929000D01*
X182349182Y-66787123D01*
X182325315Y-66734629D01*
X182292780Y-66663073D01*
X182292780Y-66663072D01*
X182289860Y-66656651D01*
X182196303Y-66548074D01*
X182076033Y-66470118D01*
X182069275Y-66468097D01*
X182069273Y-66468096D01*
X181945479Y-66431074D01*
X181938718Y-66429052D01*
X181852694Y-66428527D01*
X181802448Y-66428220D01*
X181795396Y-66428177D01*
X181788620Y-66430114D01*
X181788617Y-66430114D01*
X181664369Y-66465624D01*
X181664367Y-66465625D01*
X181657589Y-66467562D01*
X181651625Y-66471325D01*
X181550944Y-66534850D01*
X181536375Y-66544042D01*
X181441499Y-66651469D01*
X181380588Y-66781206D01*
X181358538Y-66922824D01*
X179405666Y-66922824D01*
X179449318Y-66874598D01*
X179484346Y-66835900D01*
X179484346Y-66835899D01*
X179489078Y-66830672D01*
X179551570Y-66701689D01*
X179554557Y-66683939D01*
X179574715Y-66564120D01*
X179574715Y-66564117D01*
X179575349Y-66560350D01*
X179575500Y-66548000D01*
X179565807Y-66480312D01*
X179556182Y-66413106D01*
X179555182Y-66406123D01*
X179495860Y-66275651D01*
X179402303Y-66167074D01*
X179282033Y-66089118D01*
X179275275Y-66087097D01*
X179275273Y-66087096D01*
X179151479Y-66050074D01*
X179144718Y-66048052D01*
X179058694Y-66047527D01*
X179008448Y-66047220D01*
X179001396Y-66047177D01*
X178994620Y-66049114D01*
X178994617Y-66049114D01*
X178870369Y-66084624D01*
X178870367Y-66084625D01*
X178863589Y-66086562D01*
X178742375Y-66163042D01*
X178647499Y-66270469D01*
X178586588Y-66400206D01*
X178564538Y-66541824D01*
X176859439Y-66541824D01*
X176842003Y-66534850D01*
X176761006Y-66502453D01*
X176761002Y-66502452D01*
X176756027Y-66500462D01*
X176750742Y-66499587D01*
X176750738Y-66499586D01*
X176632612Y-66480031D01*
X176576918Y-66470811D01*
X176505832Y-66474536D01*
X176400974Y-66480031D01*
X176400970Y-66480032D01*
X176395620Y-66480312D01*
X176220591Y-66528523D01*
X176215852Y-66531022D01*
X176215851Y-66531022D01*
X176064735Y-66610696D01*
X176064732Y-66610698D01*
X176059998Y-66613194D01*
X176014706Y-66651469D01*
X175925423Y-66726919D01*
X175925421Y-66726922D01*
X175921334Y-66730375D01*
X175811066Y-66874598D01*
X175734341Y-67039136D01*
X175733172Y-67044367D01*
X175733171Y-67044369D01*
X175715274Y-67124438D01*
X175694738Y-67216310D01*
X175694104Y-67397856D01*
X175460000Y-67397856D01*
X175460000Y-64857856D01*
X175694104Y-64857856D01*
X175700861Y-64889106D01*
X175731335Y-65030056D01*
X175731337Y-65030061D01*
X175732470Y-65035303D01*
X175734705Y-65040184D01*
X175734705Y-65040185D01*
X175779979Y-65139073D01*
X175808044Y-65200372D01*
X175811266Y-65204648D01*
X175811268Y-65204651D01*
X175855330Y-65263123D01*
X175917302Y-65345362D01*
X176055145Y-65463508D01*
X176059871Y-65466042D01*
X176170751Y-65525495D01*
X176215143Y-65549298D01*
X176220299Y-65550757D01*
X176384674Y-65597271D01*
X176384677Y-65597271D01*
X176389831Y-65598730D01*
X176395183Y-65599048D01*
X176565705Y-65609179D01*
X176571058Y-65609497D01*
X176576355Y-65608658D01*
X176576356Y-65608658D01*
X176648271Y-65597267D01*
X176750370Y-65581096D01*
X176919400Y-65514854D01*
X176923855Y-65511872D01*
X176923860Y-65511869D01*
X177059418Y-65421120D01*
X177070263Y-65413860D01*
X177168039Y-65311900D01*
X177192205Y-65286700D01*
X177195919Y-65282827D01*
X177207947Y-65263123D01*
X177287712Y-65132446D01*
X177290507Y-65127867D01*
X177292464Y-65122185D01*
X177325815Y-65025327D01*
X177328398Y-65017824D01*
X178564538Y-65017824D01*
X178565453Y-65024822D01*
X178580393Y-65139073D01*
X178583121Y-65159939D01*
X178585962Y-65166395D01*
X178585962Y-65166396D01*
X178628987Y-65264176D01*
X178640845Y-65291126D01*
X178645382Y-65296523D01*
X178645383Y-65296525D01*
X178686435Y-65345362D01*
X178733068Y-65400838D01*
X178738939Y-65404746D01*
X178738940Y-65404747D01*
X178763537Y-65421120D01*
X178852377Y-65480257D01*
X178859104Y-65482359D01*
X178859107Y-65482360D01*
X178982448Y-65520894D01*
X178982449Y-65520894D01*
X178989180Y-65522997D01*
X179060830Y-65524310D01*
X179125427Y-65525495D01*
X179125429Y-65525495D01*
X179132481Y-65525624D01*
X179139284Y-65523769D01*
X179139286Y-65523769D01*
X179186065Y-65511015D01*
X179270758Y-65487925D01*
X179392897Y-65412931D01*
X179405666Y-65398824D01*
X181358538Y-65398824D01*
X181359453Y-65405822D01*
X181375102Y-65525495D01*
X181377121Y-65540939D01*
X181379962Y-65547395D01*
X181379962Y-65547396D01*
X181394791Y-65581096D01*
X181434845Y-65672126D01*
X181527068Y-65781838D01*
X181532939Y-65785746D01*
X181532940Y-65785747D01*
X181545235Y-65793931D01*
X181646377Y-65861257D01*
X181653104Y-65863359D01*
X181653107Y-65863360D01*
X181776448Y-65901894D01*
X181776449Y-65901894D01*
X181783180Y-65903997D01*
X181854831Y-65905311D01*
X181919427Y-65906495D01*
X181919429Y-65906495D01*
X181926481Y-65906624D01*
X181933284Y-65904769D01*
X181933286Y-65904769D01*
X181980065Y-65892015D01*
X182064758Y-65868925D01*
X182186897Y-65793931D01*
X182283078Y-65687672D01*
X182345570Y-65558689D01*
X182346905Y-65550757D01*
X182368715Y-65421120D01*
X182368715Y-65421117D01*
X182369349Y-65417350D01*
X182369500Y-65405000D01*
X182349182Y-65263123D01*
X182322597Y-65204651D01*
X182292780Y-65139073D01*
X182292780Y-65139072D01*
X182289860Y-65132651D01*
X182196303Y-65024074D01*
X182076033Y-64946118D01*
X182069275Y-64944097D01*
X182069273Y-64944096D01*
X181945479Y-64907074D01*
X181938718Y-64905052D01*
X181852694Y-64904527D01*
X181802448Y-64904220D01*
X181795396Y-64904177D01*
X181788620Y-64906114D01*
X181788617Y-64906114D01*
X181664369Y-64941624D01*
X181664367Y-64941625D01*
X181657589Y-64943562D01*
X181651625Y-64947325D01*
X181550944Y-65010850D01*
X181536375Y-65020042D01*
X181441499Y-65127469D01*
X181380588Y-65257206D01*
X181358538Y-65398824D01*
X179405666Y-65398824D01*
X179489078Y-65306672D01*
X179551570Y-65177689D01*
X179554557Y-65159939D01*
X179574715Y-65040120D01*
X179574715Y-65040117D01*
X179575349Y-65036350D01*
X179575500Y-65024000D01*
X179555182Y-64882123D01*
X179544149Y-64857856D01*
X196014104Y-64857856D01*
X196020861Y-64889106D01*
X196051335Y-65030056D01*
X196051337Y-65030061D01*
X196052470Y-65035303D01*
X196054705Y-65040184D01*
X196054705Y-65040185D01*
X196099979Y-65139073D01*
X196128044Y-65200372D01*
X196131266Y-65204648D01*
X196131268Y-65204651D01*
X196175330Y-65263123D01*
X196237302Y-65345362D01*
X196375145Y-65463508D01*
X196379871Y-65466042D01*
X196490751Y-65525495D01*
X196535143Y-65549298D01*
X196540299Y-65550757D01*
X196704674Y-65597271D01*
X196704677Y-65597271D01*
X196709831Y-65598730D01*
X196715183Y-65599048D01*
X196885705Y-65609179D01*
X196891058Y-65609497D01*
X196896355Y-65608658D01*
X196896356Y-65608658D01*
X196968271Y-65597267D01*
X197070370Y-65581096D01*
X197239400Y-65514854D01*
X197243855Y-65511872D01*
X197243860Y-65511869D01*
X197379418Y-65421120D01*
X197390263Y-65413860D01*
X197488039Y-65311900D01*
X197512205Y-65286700D01*
X197515919Y-65282827D01*
X197527947Y-65263123D01*
X197607712Y-65132446D01*
X197610507Y-65127867D01*
X197612464Y-65122185D01*
X197645815Y-65025327D01*
X197669613Y-64956212D01*
X197690480Y-64775868D01*
X197690500Y-64770000D01*
X197686618Y-64734264D01*
X197671472Y-64594840D01*
X197671471Y-64594835D01*
X197670893Y-64589515D01*
X197612987Y-64417451D01*
X197527470Y-64275126D01*
X197522243Y-64266427D01*
X197522242Y-64266425D01*
X197519483Y-64261834D01*
X197511857Y-64253769D01*
X197418201Y-64154731D01*
X197394745Y-64129927D01*
X197316350Y-64076650D01*
X197249025Y-64030896D01*
X197249023Y-64030895D01*
X197244591Y-64027883D01*
X197162003Y-63994850D01*
X197081006Y-63962453D01*
X197081002Y-63962452D01*
X197076027Y-63960462D01*
X197070742Y-63959587D01*
X197070738Y-63959586D01*
X196952612Y-63940031D01*
X196896918Y-63930811D01*
X196825832Y-63934536D01*
X196720974Y-63940031D01*
X196720970Y-63940032D01*
X196715620Y-63940312D01*
X196540591Y-63988523D01*
X196535852Y-63991022D01*
X196535851Y-63991022D01*
X196384735Y-64070696D01*
X196384732Y-64070698D01*
X196379998Y-64073194D01*
X196318176Y-64125438D01*
X196245423Y-64186919D01*
X196245421Y-64186922D01*
X196241334Y-64190375D01*
X196131066Y-64334598D01*
X196054341Y-64499136D01*
X196053172Y-64504367D01*
X196053171Y-64504369D01*
X196038734Y-64568956D01*
X196014738Y-64676310D01*
X196014719Y-64681668D01*
X196014719Y-64681671D01*
X196014493Y-64746469D01*
X196014104Y-64857856D01*
X179544149Y-64857856D01*
X179498780Y-64758073D01*
X179498780Y-64758072D01*
X179495860Y-64751651D01*
X179402303Y-64643074D01*
X179282033Y-64565118D01*
X179275275Y-64563097D01*
X179275273Y-64563096D01*
X179151479Y-64526074D01*
X179144718Y-64524052D01*
X179058694Y-64523527D01*
X179008448Y-64523220D01*
X179001396Y-64523177D01*
X178994620Y-64525114D01*
X178994617Y-64525114D01*
X178870369Y-64560624D01*
X178870367Y-64560625D01*
X178863589Y-64562562D01*
X178742375Y-64639042D01*
X178647499Y-64746469D01*
X178586588Y-64876206D01*
X178564538Y-65017824D01*
X177328398Y-65017824D01*
X177349613Y-64956212D01*
X177370480Y-64775868D01*
X177370500Y-64770000D01*
X177366618Y-64734264D01*
X177351472Y-64594840D01*
X177351471Y-64594835D01*
X177350893Y-64589515D01*
X177292987Y-64417451D01*
X177207470Y-64275126D01*
X177202243Y-64266427D01*
X177202242Y-64266425D01*
X177199483Y-64261834D01*
X177191857Y-64253769D01*
X177098201Y-64154731D01*
X177074745Y-64129927D01*
X176996350Y-64076650D01*
X176929025Y-64030896D01*
X176929023Y-64030895D01*
X176924591Y-64027883D01*
X176842003Y-63994850D01*
X176761006Y-63962453D01*
X176761002Y-63962452D01*
X176756027Y-63960462D01*
X176750742Y-63959587D01*
X176750738Y-63959586D01*
X176632612Y-63940031D01*
X176576918Y-63930811D01*
X176505832Y-63934536D01*
X176400974Y-63940031D01*
X176400970Y-63940032D01*
X176395620Y-63940312D01*
X176220591Y-63988523D01*
X176215852Y-63991022D01*
X176215851Y-63991022D01*
X176064735Y-64070696D01*
X176064732Y-64070698D01*
X176059998Y-64073194D01*
X175998176Y-64125438D01*
X175925423Y-64186919D01*
X175925421Y-64186922D01*
X175921334Y-64190375D01*
X175811066Y-64334598D01*
X175734341Y-64499136D01*
X175733172Y-64504367D01*
X175733171Y-64504369D01*
X175718734Y-64568956D01*
X175694738Y-64676310D01*
X175694719Y-64681668D01*
X175694719Y-64681671D01*
X175694493Y-64746469D01*
X175694104Y-64857856D01*
X175460000Y-64857856D01*
X175460000Y-63747824D01*
X178564538Y-63747824D01*
X178565453Y-63754822D01*
X178580145Y-63867176D01*
X178583121Y-63889939D01*
X178585962Y-63896395D01*
X178585962Y-63896396D01*
X178625873Y-63987099D01*
X178640845Y-64021126D01*
X178645382Y-64026523D01*
X178645383Y-64026525D01*
X178653913Y-64036672D01*
X178733068Y-64130838D01*
X178738939Y-64134746D01*
X178738940Y-64134747D01*
X178751235Y-64142931D01*
X178852377Y-64210257D01*
X178859104Y-64212359D01*
X178859107Y-64212360D01*
X178982448Y-64250894D01*
X178982449Y-64250894D01*
X178989180Y-64252997D01*
X179060831Y-64254311D01*
X179125427Y-64255495D01*
X179125429Y-64255495D01*
X179132481Y-64255624D01*
X179139284Y-64253769D01*
X179139286Y-64253769D01*
X179186065Y-64241015D01*
X179270758Y-64217925D01*
X179392897Y-64142931D01*
X179489078Y-64036672D01*
X179505962Y-64001824D01*
X181130938Y-64001824D01*
X181149521Y-64143939D01*
X181152362Y-64150395D01*
X181152362Y-64150396D01*
X181197848Y-64253769D01*
X181207245Y-64275126D01*
X181299468Y-64384838D01*
X181305339Y-64388746D01*
X181305340Y-64388747D01*
X181317635Y-64396931D01*
X181418777Y-64464257D01*
X181425504Y-64466359D01*
X181425507Y-64466360D01*
X181548848Y-64504894D01*
X181548849Y-64504894D01*
X181555580Y-64506997D01*
X181627231Y-64508311D01*
X181691827Y-64509495D01*
X181691829Y-64509495D01*
X181698881Y-64509624D01*
X181705684Y-64507769D01*
X181705686Y-64507769D01*
X181755173Y-64494277D01*
X181837158Y-64471925D01*
X181959297Y-64396931D01*
X182015718Y-64334598D01*
X182050746Y-64295900D01*
X182050746Y-64295899D01*
X182055478Y-64290672D01*
X182117970Y-64161689D01*
X182120957Y-64143939D01*
X182141115Y-64024120D01*
X182141115Y-64024117D01*
X182141749Y-64020350D01*
X182141819Y-64014670D01*
X182141853Y-64011826D01*
X182141900Y-64008000D01*
X182132207Y-63940312D01*
X182122582Y-63873106D01*
X182121582Y-63866123D01*
X182062260Y-63735651D01*
X181968703Y-63627074D01*
X181848433Y-63549118D01*
X181841675Y-63547097D01*
X181841673Y-63547096D01*
X181717879Y-63510074D01*
X181711118Y-63508052D01*
X181625094Y-63507527D01*
X181574848Y-63507220D01*
X181567796Y-63507177D01*
X181561020Y-63509114D01*
X181561017Y-63509114D01*
X181436769Y-63544624D01*
X181436767Y-63544625D01*
X181429989Y-63546562D01*
X181308775Y-63623042D01*
X181213899Y-63730469D01*
X181152988Y-63860206D01*
X181130938Y-64001824D01*
X179505962Y-64001824D01*
X179551570Y-63907689D01*
X179554557Y-63889939D01*
X179574715Y-63770120D01*
X179574715Y-63770117D01*
X179575349Y-63766350D01*
X179575500Y-63754000D01*
X179555182Y-63612123D01*
X179528281Y-63552956D01*
X179498780Y-63488073D01*
X179498780Y-63488072D01*
X179495860Y-63481651D01*
X179402303Y-63373074D01*
X179282033Y-63295118D01*
X179275275Y-63293097D01*
X179275273Y-63293096D01*
X179151479Y-63256074D01*
X179144718Y-63254052D01*
X179058694Y-63253527D01*
X179008448Y-63253220D01*
X179001396Y-63253177D01*
X178994620Y-63255114D01*
X178994617Y-63255114D01*
X178870369Y-63290624D01*
X178870367Y-63290625D01*
X178863589Y-63292562D01*
X178742375Y-63369042D01*
X178647499Y-63476469D01*
X178586588Y-63606206D01*
X178564538Y-63747824D01*
X175460000Y-63747824D01*
X175460000Y-62317856D01*
X175694104Y-62317856D01*
X175702513Y-62356747D01*
X175731335Y-62490056D01*
X175731337Y-62490061D01*
X175732470Y-62495303D01*
X175808044Y-62660372D01*
X175917302Y-62805362D01*
X176055145Y-62923508D01*
X176215143Y-63009298D01*
X176220299Y-63010757D01*
X176384674Y-63057271D01*
X176384677Y-63057271D01*
X176389831Y-63058730D01*
X176395183Y-63059048D01*
X176565705Y-63069179D01*
X176571058Y-63069497D01*
X176576355Y-63068658D01*
X176576356Y-63068658D01*
X176648271Y-63057267D01*
X176750370Y-63041096D01*
X176919400Y-62974854D01*
X176923855Y-62971872D01*
X176923860Y-62971869D01*
X177017060Y-62909477D01*
X177070263Y-62873860D01*
X177195919Y-62742827D01*
X177290507Y-62587867D01*
X177349613Y-62416212D01*
X177370480Y-62235868D01*
X177370500Y-62230000D01*
X177366618Y-62194264D01*
X177351472Y-62054840D01*
X177351471Y-62054835D01*
X177350893Y-62049515D01*
X177324074Y-61969824D01*
X178564538Y-61969824D01*
X178565453Y-61976822D01*
X178574295Y-62044438D01*
X178583121Y-62111939D01*
X178585962Y-62118395D01*
X178585962Y-62118396D01*
X178636285Y-62232762D01*
X178640845Y-62243126D01*
X178733068Y-62352838D01*
X178738939Y-62356746D01*
X178738940Y-62356747D01*
X178751235Y-62364931D01*
X178852377Y-62432257D01*
X178859104Y-62434359D01*
X178859107Y-62434360D01*
X178982448Y-62472894D01*
X178982449Y-62472894D01*
X178989180Y-62474997D01*
X179060831Y-62476311D01*
X179125427Y-62477495D01*
X179125429Y-62477495D01*
X179132481Y-62477624D01*
X179139284Y-62475769D01*
X179139286Y-62475769D01*
X179186065Y-62463015D01*
X179270758Y-62439925D01*
X179392897Y-62364931D01*
X179489078Y-62258672D01*
X179551570Y-62129689D01*
X179554557Y-62111939D01*
X179574715Y-61992120D01*
X179574715Y-61992117D01*
X179575349Y-61988350D01*
X179575500Y-61976000D01*
X179574616Y-61969824D01*
X181130938Y-61969824D01*
X181131853Y-61976822D01*
X181140695Y-62044438D01*
X181149521Y-62111939D01*
X181152362Y-62118395D01*
X181152362Y-62118396D01*
X181202685Y-62232762D01*
X181207245Y-62243126D01*
X181299468Y-62352838D01*
X181305339Y-62356746D01*
X181305340Y-62356747D01*
X181317635Y-62364931D01*
X181418777Y-62432257D01*
X181425504Y-62434359D01*
X181425507Y-62434360D01*
X181548848Y-62472894D01*
X181548849Y-62472894D01*
X181555580Y-62474997D01*
X181627231Y-62476311D01*
X181691827Y-62477495D01*
X181691829Y-62477495D01*
X181698881Y-62477624D01*
X181705684Y-62475769D01*
X181705686Y-62475769D01*
X181752465Y-62463015D01*
X181837158Y-62439925D01*
X181959297Y-62364931D01*
X182001907Y-62317856D01*
X196014104Y-62317856D01*
X196022513Y-62356747D01*
X196051335Y-62490056D01*
X196051337Y-62490061D01*
X196052470Y-62495303D01*
X196128044Y-62660372D01*
X196237302Y-62805362D01*
X196375145Y-62923508D01*
X196535143Y-63009298D01*
X196540299Y-63010757D01*
X196704674Y-63057271D01*
X196704677Y-63057271D01*
X196709831Y-63058730D01*
X196715183Y-63059048D01*
X196885705Y-63069179D01*
X196891058Y-63069497D01*
X196896355Y-63068658D01*
X196896356Y-63068658D01*
X196968271Y-63057267D01*
X197070370Y-63041096D01*
X197239400Y-62974854D01*
X197243855Y-62971872D01*
X197243860Y-62971869D01*
X197337060Y-62909477D01*
X197390263Y-62873860D01*
X197515919Y-62742827D01*
X197610507Y-62587867D01*
X197669613Y-62416212D01*
X197690480Y-62235868D01*
X197690500Y-62230000D01*
X197686618Y-62194264D01*
X197671472Y-62054840D01*
X197671471Y-62054835D01*
X197670893Y-62049515D01*
X197612987Y-61877451D01*
X197519483Y-61721834D01*
X197508362Y-61710073D01*
X197398428Y-61593822D01*
X197394745Y-61589927D01*
X197316350Y-61536650D01*
X197249025Y-61490896D01*
X197249023Y-61490895D01*
X197244591Y-61487883D01*
X197182079Y-61462880D01*
X197081006Y-61422453D01*
X197081002Y-61422452D01*
X197076027Y-61420462D01*
X197070742Y-61419587D01*
X197070738Y-61419586D01*
X196952612Y-61400031D01*
X196896918Y-61390811D01*
X196825832Y-61394536D01*
X196720974Y-61400031D01*
X196720970Y-61400032D01*
X196715620Y-61400312D01*
X196540591Y-61448523D01*
X196535852Y-61451022D01*
X196535851Y-61451022D01*
X196384735Y-61530696D01*
X196384732Y-61530698D01*
X196379998Y-61533194D01*
X196316431Y-61586913D01*
X196245423Y-61646919D01*
X196245421Y-61646922D01*
X196241334Y-61650375D01*
X196131066Y-61794598D01*
X196054341Y-61959136D01*
X196053172Y-61964367D01*
X196053171Y-61964369D01*
X196049716Y-61979826D01*
X196014738Y-62136310D01*
X196014104Y-62317856D01*
X182001907Y-62317856D01*
X182055478Y-62258672D01*
X182117970Y-62129689D01*
X182120957Y-62111939D01*
X182141115Y-61992120D01*
X182141115Y-61992117D01*
X182141749Y-61988350D01*
X182141900Y-61976000D01*
X182121582Y-61834123D01*
X182105820Y-61799455D01*
X182065180Y-61710073D01*
X182065180Y-61710072D01*
X182062260Y-61703651D01*
X181968703Y-61595074D01*
X181848433Y-61517118D01*
X181841675Y-61515097D01*
X181841673Y-61515096D01*
X181717879Y-61478074D01*
X181711118Y-61476052D01*
X181625094Y-61475527D01*
X181574848Y-61475220D01*
X181567796Y-61475177D01*
X181561020Y-61477114D01*
X181561017Y-61477114D01*
X181436769Y-61512624D01*
X181436767Y-61512625D01*
X181429989Y-61514562D01*
X181308775Y-61591042D01*
X181213899Y-61698469D01*
X181152988Y-61828206D01*
X181130938Y-61969824D01*
X179574616Y-61969824D01*
X179555182Y-61834123D01*
X179539420Y-61799455D01*
X179498780Y-61710073D01*
X179498780Y-61710072D01*
X179495860Y-61703651D01*
X179402303Y-61595074D01*
X179282033Y-61517118D01*
X179275275Y-61515097D01*
X179275273Y-61515096D01*
X179151479Y-61478074D01*
X179144718Y-61476052D01*
X179058694Y-61475527D01*
X179008448Y-61475220D01*
X179001396Y-61475177D01*
X178994620Y-61477114D01*
X178994617Y-61477114D01*
X178870369Y-61512624D01*
X178870367Y-61512625D01*
X178863589Y-61514562D01*
X178742375Y-61591042D01*
X178647499Y-61698469D01*
X178586588Y-61828206D01*
X178564538Y-61969824D01*
X177324074Y-61969824D01*
X177292987Y-61877451D01*
X177199483Y-61721834D01*
X177188362Y-61710073D01*
X177078428Y-61593822D01*
X177074745Y-61589927D01*
X176996350Y-61536650D01*
X176929025Y-61490896D01*
X176929023Y-61490895D01*
X176924591Y-61487883D01*
X176862079Y-61462880D01*
X176761006Y-61422453D01*
X176761002Y-61422452D01*
X176756027Y-61420462D01*
X176750742Y-61419587D01*
X176750738Y-61419586D01*
X176632612Y-61400031D01*
X176576918Y-61390811D01*
X176505832Y-61394536D01*
X176400974Y-61400031D01*
X176400970Y-61400032D01*
X176395620Y-61400312D01*
X176220591Y-61448523D01*
X176215852Y-61451022D01*
X176215851Y-61451022D01*
X176064735Y-61530696D01*
X176064732Y-61530698D01*
X176059998Y-61533194D01*
X175996431Y-61586913D01*
X175925423Y-61646919D01*
X175925421Y-61646922D01*
X175921334Y-61650375D01*
X175811066Y-61794598D01*
X175734341Y-61959136D01*
X175733172Y-61964367D01*
X175733171Y-61964369D01*
X175729716Y-61979826D01*
X175694738Y-62136310D01*
X175694104Y-62317856D01*
X175460000Y-62317856D01*
X175460000Y-60699824D01*
X178564538Y-60699824D01*
X178583121Y-60841939D01*
X178585962Y-60848395D01*
X178585962Y-60848396D01*
X178587870Y-60852731D01*
X178640845Y-60973126D01*
X178733068Y-61082838D01*
X178738939Y-61086746D01*
X178738940Y-61086747D01*
X178751235Y-61094931D01*
X178852377Y-61162257D01*
X178859104Y-61164359D01*
X178859107Y-61164360D01*
X178982448Y-61202894D01*
X178982449Y-61202894D01*
X178989180Y-61204997D01*
X179060830Y-61206310D01*
X179125427Y-61207495D01*
X179125429Y-61207495D01*
X179132481Y-61207624D01*
X179139284Y-61205769D01*
X179139286Y-61205769D01*
X179186065Y-61193015D01*
X179270758Y-61169925D01*
X179392897Y-61094931D01*
X179489078Y-60988672D01*
X179551570Y-60859689D01*
X179554557Y-60841939D01*
X179574715Y-60722120D01*
X179574715Y-60722117D01*
X179575349Y-60718350D01*
X179575500Y-60706000D01*
X179555182Y-60564123D01*
X179526907Y-60501934D01*
X179498780Y-60440073D01*
X179498780Y-60440072D01*
X179495860Y-60433651D01*
X179402303Y-60325074D01*
X179282033Y-60247118D01*
X179275275Y-60245097D01*
X179275273Y-60245096D01*
X179151479Y-60208074D01*
X179144718Y-60206052D01*
X179058694Y-60205527D01*
X179008448Y-60205220D01*
X179001396Y-60205177D01*
X178994620Y-60207114D01*
X178994617Y-60207114D01*
X178870369Y-60242624D01*
X178870367Y-60242625D01*
X178863589Y-60244562D01*
X178742375Y-60321042D01*
X178647499Y-60428469D01*
X178586588Y-60558206D01*
X178564538Y-60699824D01*
X175460000Y-60699824D01*
X175460000Y-59777856D01*
X175694104Y-59777856D01*
X175702513Y-59816747D01*
X175731335Y-59950056D01*
X175731337Y-59950061D01*
X175732470Y-59955303D01*
X175808044Y-60120372D01*
X175917302Y-60265362D01*
X176055145Y-60383508D01*
X176059871Y-60386042D01*
X176170751Y-60445495D01*
X176215143Y-60469298D01*
X176220299Y-60470757D01*
X176384674Y-60517271D01*
X176384677Y-60517271D01*
X176389831Y-60518730D01*
X176395183Y-60519048D01*
X176565705Y-60529179D01*
X176571058Y-60529497D01*
X176576355Y-60528658D01*
X176576356Y-60528658D01*
X176648271Y-60517267D01*
X176750370Y-60501096D01*
X176919400Y-60434854D01*
X176923855Y-60431872D01*
X176923860Y-60431869D01*
X177017060Y-60369477D01*
X177070263Y-60333860D01*
X177168039Y-60231900D01*
X177192205Y-60206700D01*
X177195919Y-60202827D01*
X177290507Y-60047867D01*
X177328398Y-59937824D01*
X181130938Y-59937824D01*
X181131853Y-59944822D01*
X181144664Y-60042791D01*
X181149521Y-60079939D01*
X181152362Y-60086395D01*
X181152362Y-60086396D01*
X181154270Y-60090731D01*
X181207245Y-60211126D01*
X181211782Y-60216523D01*
X181211783Y-60216525D01*
X181252835Y-60265362D01*
X181299468Y-60320838D01*
X181305339Y-60324746D01*
X181305340Y-60324747D01*
X181323181Y-60336623D01*
X181418777Y-60400257D01*
X181425504Y-60402359D01*
X181425507Y-60402360D01*
X181548848Y-60440894D01*
X181548849Y-60440894D01*
X181555580Y-60442997D01*
X181627231Y-60444311D01*
X181691827Y-60445495D01*
X181691829Y-60445495D01*
X181698881Y-60445624D01*
X181705684Y-60443769D01*
X181705686Y-60443769D01*
X181762395Y-60428308D01*
X181837158Y-60407925D01*
X181959297Y-60332931D01*
X181969882Y-60321237D01*
X182050746Y-60231900D01*
X182050746Y-60231899D01*
X182055478Y-60226672D01*
X182117970Y-60097689D01*
X182120957Y-60079939D01*
X182141115Y-59960120D01*
X182141115Y-59960117D01*
X182141749Y-59956350D01*
X182141900Y-59944000D01*
X182121582Y-59802123D01*
X182110549Y-59777856D01*
X182065180Y-59678073D01*
X182065180Y-59678072D01*
X182062260Y-59671651D01*
X181968703Y-59563074D01*
X181848433Y-59485118D01*
X181841675Y-59483097D01*
X181841673Y-59483096D01*
X181717879Y-59446074D01*
X181711118Y-59444052D01*
X181625094Y-59443527D01*
X181574848Y-59443220D01*
X181567796Y-59443177D01*
X181561020Y-59445114D01*
X181561017Y-59445114D01*
X181436769Y-59480624D01*
X181436767Y-59480625D01*
X181429989Y-59482562D01*
X181308775Y-59559042D01*
X181213899Y-59666469D01*
X181152988Y-59796206D01*
X181130938Y-59937824D01*
X177328398Y-59937824D01*
X177349613Y-59876212D01*
X177370480Y-59695868D01*
X177370500Y-59690000D01*
X177366618Y-59654264D01*
X177351472Y-59514840D01*
X177351471Y-59514835D01*
X177350893Y-59509515D01*
X177324074Y-59429824D01*
X178818538Y-59429824D01*
X178819453Y-59436822D01*
X178834943Y-59555279D01*
X178837121Y-59571939D01*
X178839962Y-59578395D01*
X178839962Y-59578396D01*
X178890285Y-59692762D01*
X178894845Y-59703126D01*
X178987068Y-59812838D01*
X178992939Y-59816746D01*
X178992940Y-59816747D01*
X179005235Y-59824931D01*
X179106377Y-59892257D01*
X179113104Y-59894359D01*
X179113107Y-59894360D01*
X179236448Y-59932894D01*
X179236449Y-59932894D01*
X179243180Y-59934997D01*
X179314831Y-59936311D01*
X179379427Y-59937495D01*
X179379429Y-59937495D01*
X179386481Y-59937624D01*
X179393284Y-59935769D01*
X179393286Y-59935769D01*
X179440065Y-59923015D01*
X179524758Y-59899925D01*
X179646897Y-59824931D01*
X179743078Y-59718672D01*
X179805570Y-59589689D01*
X179808557Y-59571939D01*
X179828715Y-59452120D01*
X179828715Y-59452117D01*
X179829349Y-59448350D01*
X179829500Y-59436000D01*
X179809182Y-59294123D01*
X179793420Y-59259455D01*
X179752780Y-59170073D01*
X179752780Y-59170072D01*
X179749860Y-59163651D01*
X179656303Y-59055074D01*
X179650083Y-59051042D01*
X179648362Y-59049927D01*
X179637803Y-59043083D01*
X179599257Y-58995567D01*
X179596001Y-58934469D01*
X179629280Y-58883125D01*
X179639848Y-58875642D01*
X179680289Y-58850811D01*
X179748497Y-58808931D01*
X179844678Y-58702672D01*
X179907170Y-58573689D01*
X179910157Y-58555939D01*
X179930315Y-58436120D01*
X179930315Y-58436117D01*
X179930949Y-58432350D01*
X179931100Y-58420000D01*
X179930216Y-58413824D01*
X180723538Y-58413824D01*
X180742121Y-58555939D01*
X180744962Y-58562395D01*
X180744962Y-58562396D01*
X180746870Y-58566731D01*
X180799845Y-58687126D01*
X180804382Y-58692523D01*
X180804383Y-58692525D01*
X180807579Y-58696327D01*
X180892068Y-58796838D01*
X180897939Y-58800746D01*
X180897940Y-58800747D01*
X180910235Y-58808931D01*
X181011377Y-58876257D01*
X181018104Y-58878359D01*
X181018107Y-58878360D01*
X181141448Y-58916894D01*
X181141449Y-58916894D01*
X181148180Y-58918997D01*
X181219831Y-58920311D01*
X181284427Y-58921495D01*
X181284429Y-58921495D01*
X181291481Y-58921624D01*
X181298284Y-58919769D01*
X181298286Y-58919769D01*
X181345065Y-58907015D01*
X181429758Y-58883925D01*
X181551897Y-58808931D01*
X181648078Y-58702672D01*
X181710570Y-58573689D01*
X181713557Y-58555939D01*
X181733715Y-58436120D01*
X181733715Y-58436117D01*
X181734349Y-58432350D01*
X181734500Y-58420000D01*
X181714182Y-58278123D01*
X181654860Y-58147651D01*
X181561303Y-58039074D01*
X181441033Y-57961118D01*
X181434275Y-57959097D01*
X181434273Y-57959096D01*
X181310479Y-57922074D01*
X181303718Y-57920052D01*
X181217694Y-57919527D01*
X181167448Y-57919220D01*
X181160396Y-57919177D01*
X181153620Y-57921114D01*
X181153617Y-57921114D01*
X181029369Y-57956624D01*
X181029367Y-57956625D01*
X181022589Y-57958562D01*
X180901375Y-58035042D01*
X180806499Y-58142469D01*
X180745588Y-58272206D01*
X180723538Y-58413824D01*
X179930216Y-58413824D01*
X179910782Y-58278123D01*
X179851460Y-58147651D01*
X179757903Y-58039074D01*
X179637633Y-57961118D01*
X179630875Y-57959097D01*
X179630873Y-57959096D01*
X179507079Y-57922074D01*
X179500318Y-57920052D01*
X179414294Y-57919527D01*
X179364048Y-57919220D01*
X179356996Y-57919177D01*
X179350220Y-57921114D01*
X179350217Y-57921114D01*
X179225969Y-57956624D01*
X179225967Y-57956625D01*
X179219189Y-57958562D01*
X179097975Y-58035042D01*
X179003099Y-58142469D01*
X178942188Y-58272206D01*
X178920138Y-58413824D01*
X178938721Y-58555939D01*
X178941562Y-58562395D01*
X178941562Y-58562396D01*
X178943470Y-58566731D01*
X178996445Y-58687126D01*
X179000982Y-58692523D01*
X179000983Y-58692525D01*
X179004179Y-58696327D01*
X179088668Y-58796838D01*
X179094539Y-58800746D01*
X179094540Y-58800747D01*
X179112665Y-58812812D01*
X179150628Y-58860796D01*
X179153137Y-58921930D01*
X179119232Y-58972863D01*
X179110634Y-58978950D01*
X178996375Y-59051042D01*
X178901499Y-59158469D01*
X178840588Y-59288206D01*
X178818538Y-59429824D01*
X177324074Y-59429824D01*
X177292987Y-59337451D01*
X177199483Y-59181834D01*
X177188362Y-59170073D01*
X177078428Y-59053822D01*
X177074745Y-59049927D01*
X176996350Y-58996650D01*
X176929025Y-58950896D01*
X176929023Y-58950895D01*
X176924591Y-58947883D01*
X176858939Y-58921624D01*
X176761006Y-58882453D01*
X176761002Y-58882452D01*
X176756027Y-58880462D01*
X176750742Y-58879587D01*
X176750738Y-58879586D01*
X176632612Y-58860031D01*
X176576918Y-58850811D01*
X176505832Y-58854536D01*
X176400974Y-58860031D01*
X176400970Y-58860032D01*
X176395620Y-58860312D01*
X176220591Y-58908523D01*
X176215852Y-58911022D01*
X176215851Y-58911022D01*
X176064735Y-58990696D01*
X176064732Y-58990698D01*
X176059998Y-58993194D01*
X176013408Y-59032566D01*
X175925423Y-59106919D01*
X175925421Y-59106922D01*
X175921334Y-59110375D01*
X175811066Y-59254598D01*
X175734341Y-59419136D01*
X175733172Y-59424367D01*
X175733171Y-59424369D01*
X175718734Y-59488956D01*
X175694738Y-59596310D01*
X175694719Y-59601668D01*
X175694719Y-59601671D01*
X175694493Y-59666469D01*
X175694104Y-59777856D01*
X175460000Y-59777856D01*
X175460000Y-57237856D01*
X175694104Y-57237856D01*
X175695238Y-57243100D01*
X175731335Y-57410056D01*
X175731337Y-57410061D01*
X175732470Y-57415303D01*
X175808044Y-57580372D01*
X175811266Y-57584648D01*
X175811268Y-57584651D01*
X175830548Y-57610236D01*
X175917302Y-57725362D01*
X176055145Y-57843508D01*
X176059871Y-57846042D01*
X176197232Y-57919694D01*
X176215143Y-57929298D01*
X176220299Y-57930757D01*
X176384674Y-57977271D01*
X176384677Y-57977271D01*
X176389831Y-57978730D01*
X176395183Y-57979048D01*
X176565705Y-57989179D01*
X176571058Y-57989497D01*
X176576355Y-57988658D01*
X176576356Y-57988658D01*
X176655483Y-57976125D01*
X176750370Y-57961096D01*
X176919400Y-57894854D01*
X176923855Y-57891872D01*
X176923860Y-57891869D01*
X177017060Y-57829477D01*
X177070263Y-57793860D01*
X177195919Y-57662827D01*
X177202758Y-57651624D01*
X177287712Y-57512446D01*
X177290507Y-57507867D01*
X177349613Y-57336212D01*
X177370480Y-57155868D01*
X177370500Y-57150000D01*
X177369829Y-57143824D01*
X179580538Y-57143824D01*
X179599121Y-57285939D01*
X179601962Y-57292395D01*
X179601962Y-57292396D01*
X179623473Y-57341282D01*
X179656845Y-57417126D01*
X179749068Y-57526838D01*
X179754939Y-57530746D01*
X179754940Y-57530747D01*
X179767235Y-57538931D01*
X179868377Y-57606257D01*
X179875104Y-57608359D01*
X179875107Y-57608360D01*
X179998448Y-57646894D01*
X179998449Y-57646894D01*
X180005180Y-57648997D01*
X180076830Y-57650310D01*
X180141427Y-57651495D01*
X180141429Y-57651495D01*
X180148481Y-57651624D01*
X180155284Y-57649769D01*
X180155286Y-57649769D01*
X180202065Y-57637015D01*
X180286758Y-57613925D01*
X180408897Y-57538931D01*
X180505078Y-57432672D01*
X180567570Y-57303689D01*
X180570557Y-57285939D01*
X180590715Y-57166120D01*
X180590715Y-57166117D01*
X180591349Y-57162350D01*
X180591500Y-57150000D01*
X180590616Y-57143824D01*
X182120538Y-57143824D01*
X182139121Y-57285939D01*
X182141962Y-57292395D01*
X182141962Y-57292396D01*
X182163473Y-57341282D01*
X182196845Y-57417126D01*
X182289068Y-57526838D01*
X182294939Y-57530746D01*
X182294940Y-57530747D01*
X182307235Y-57538931D01*
X182408377Y-57606257D01*
X182415104Y-57608359D01*
X182415107Y-57608360D01*
X182538448Y-57646894D01*
X182538449Y-57646894D01*
X182545180Y-57648997D01*
X182616830Y-57650310D01*
X182681427Y-57651495D01*
X182681429Y-57651495D01*
X182688481Y-57651624D01*
X182695284Y-57649769D01*
X182695286Y-57649769D01*
X182742065Y-57637015D01*
X182826758Y-57613925D01*
X182948897Y-57538931D01*
X183045078Y-57432672D01*
X183107570Y-57303689D01*
X183110557Y-57285939D01*
X183130715Y-57166120D01*
X183130715Y-57166117D01*
X183131349Y-57162350D01*
X183131500Y-57150000D01*
X183111182Y-57008123D01*
X183096050Y-56974840D01*
X183054780Y-56884073D01*
X183054780Y-56884072D01*
X183051860Y-56877651D01*
X182958303Y-56769074D01*
X182838033Y-56691118D01*
X182831275Y-56689097D01*
X182831273Y-56689096D01*
X182707479Y-56652074D01*
X182700718Y-56650052D01*
X182614694Y-56649527D01*
X182564448Y-56649220D01*
X182557396Y-56649177D01*
X182550620Y-56651114D01*
X182550617Y-56651114D01*
X182426369Y-56686624D01*
X182426367Y-56686625D01*
X182419589Y-56688562D01*
X182298375Y-56765042D01*
X182203499Y-56872469D01*
X182142588Y-57002206D01*
X182120538Y-57143824D01*
X180590616Y-57143824D01*
X180571182Y-57008123D01*
X180556050Y-56974840D01*
X180514780Y-56884073D01*
X180514780Y-56884072D01*
X180511860Y-56877651D01*
X180418303Y-56769074D01*
X180298033Y-56691118D01*
X180291275Y-56689097D01*
X180291273Y-56689096D01*
X180167479Y-56652074D01*
X180160718Y-56650052D01*
X180074694Y-56649527D01*
X180024448Y-56649220D01*
X180017396Y-56649177D01*
X180010620Y-56651114D01*
X180010617Y-56651114D01*
X179886369Y-56686624D01*
X179886367Y-56686625D01*
X179879589Y-56688562D01*
X179758375Y-56765042D01*
X179663499Y-56872469D01*
X179602588Y-57002206D01*
X179580538Y-57143824D01*
X177369829Y-57143824D01*
X177366618Y-57114264D01*
X177351472Y-56974840D01*
X177351471Y-56974835D01*
X177350893Y-56969515D01*
X177292987Y-56797451D01*
X177199483Y-56641834D01*
X177074745Y-56509927D01*
X176996350Y-56456650D01*
X176929025Y-56410896D01*
X176929023Y-56410895D01*
X176924591Y-56407883D01*
X176862079Y-56382880D01*
X176761006Y-56342453D01*
X176761002Y-56342452D01*
X176756027Y-56340462D01*
X176750742Y-56339587D01*
X176750738Y-56339586D01*
X176632612Y-56320031D01*
X176576918Y-56310811D01*
X176505832Y-56314536D01*
X176400974Y-56320031D01*
X176400970Y-56320032D01*
X176395620Y-56320312D01*
X176220591Y-56368523D01*
X176215852Y-56371022D01*
X176215851Y-56371022D01*
X176064735Y-56450696D01*
X176064732Y-56450698D01*
X176059998Y-56453194D01*
X175996431Y-56506913D01*
X175925423Y-56566919D01*
X175925421Y-56566922D01*
X175921334Y-56570375D01*
X175811066Y-56714598D01*
X175808802Y-56719454D01*
X175808801Y-56719455D01*
X175785079Y-56770327D01*
X175734341Y-56879136D01*
X175694738Y-57056310D01*
X175694104Y-57237856D01*
X175460000Y-57237856D01*
X175460000Y-55344000D01*
X175478907Y-55285809D01*
X175528407Y-55249845D01*
X175559000Y-55245000D01*
X197821000Y-55245000D01*
X197879191Y-55263907D01*
G37*
%TD.AperFunction*%
%TD*%
M02*
