M48
; DRILL file {KiCad 5.99.0-unknown-8f3343b9e3~128~ubuntu20.04.1} date Thu Jun  3 23:09:31 2021
; FORMAT={-:-/ absolute / inch / decimal}
; #@! TF.CreationDate,2021-06-03T23:09:31+10:00
; #@! TF.GenerationSoftware,Kicad,Pcbnew,5.99.0-unknown-8f3343b9e3~128~ubuntu20.04.1
; #@! TF.FileFunction,Plated,1,2,PTH
FMAT,2
INCH
; #@! TA.AperFunction,Plated,PTH,ViaDrill
T1C0.0157
; #@! TA.AperFunction,Plated,PTH,ComponentDrill
T2C0.0374
; #@! TA.AperFunction,Plated,PTH,ComponentDrill
T3C0.1063
%
G90
G05
T1
X4.6116Y-3.8047
X4.6411Y-3.8325
X4.6811Y-3.7625
X4.7161Y-2.9825
X4.7161Y-3.4075
X4.7214Y-3.8022
X4.7911Y-3.7825
X4.8307Y-3.9579
X4.8611Y-3.7225
X4.8911Y-2.8575
X4.8911Y-3.6925
X4.9161Y-3.6075
X4.9161Y-3.6575
X4.9711Y-3.7975
X4.9911Y-3.3725
T2
X4.3411Y-2.7325
X4.3411Y-2.8325
X4.3411Y-2.9325
X4.3411Y-3.0325
X4.3411Y-3.1325
X4.3411Y-3.2325
X4.3411Y-3.3325
X4.3411Y-3.4325
X4.3411Y-3.5325
X4.3411Y-3.6325
X4.3411Y-3.7325
X4.3411Y-3.8325
X5.1411Y-2.7325
X5.1411Y-2.8325
X5.1411Y-2.9325
X5.1411Y-3.0325
X5.1411Y-3.1325
X5.1411Y-3.2325
X5.1411Y-3.3325
X5.1411Y-3.4325
X5.1411Y-3.5325
X5.1411Y-3.6325
X5.1411Y-3.7325
X5.1411Y-3.8325
X5.1411Y-3.9325
X5.1411Y-4.0325
X5.1411Y-4.1325
X5.1411Y-4.2325
T3
X4.3911Y-2.2825
X4.3911Y-2.5825
X4.3911Y-4.3825
X5.0911Y-2.2825
X5.0911Y-2.5825
X5.0911Y-4.3825
T0
M30
