%TF.GenerationSoftware,KiCad,Pcbnew,5.99.0-unknown-8f3343b9e3~128~ubuntu20.04.1*%
%TF.CreationDate,2021-06-03T23:09:29+10:00*%
%TF.ProjectId,dac-featherwing-v2,6461632d-6665-4617-9468-657277696e67,rev?*%
%TF.SameCoordinates,Original*%
%TF.FileFunction,Soldermask,Top*%
%TF.FilePolarity,Negative*%
%FSLAX46Y46*%
G04 Gerber Fmt 4.6, Leading zero omitted, Abs format (unit mm)*
G04 Created by KiCad (PCBNEW 5.99.0-unknown-8f3343b9e3~128~ubuntu20.04.1) date 2021-06-03 23:09:29*
%MOMM*%
%LPD*%
G01*
G04 APERTURE LIST*
G04 Aperture macros list*
%AMRoundRect*
0 Rectangle with rounded corners*
0 $1 Rounding radius*
0 $2 $3 $4 $5 $6 $7 $8 $9 X,Y pos of 4 corners*
0 Add a 4 corners polygon primitive as box body*
4,1,4,$2,$3,$4,$5,$6,$7,$8,$9,$2,$3,0*
0 Add four circle primitives for the rounded corners*
1,1,$1+$1,$2,$3*
1,1,$1+$1,$4,$5*
1,1,$1+$1,$6,$7*
1,1,$1+$1,$8,$9*
0 Add four rect primitives between the rounded corners*
20,1,$1+$1,$2,$3,$4,$5,0*
20,1,$1+$1,$4,$5,$6,$7,0*
20,1,$1+$1,$6,$7,$8,$9,0*
20,1,$1+$1,$8,$9,$2,$3,0*%
G04 Aperture macros list end*
%ADD10RoundRect,0.250000X-0.350000X-0.450000X0.350000X-0.450000X0.350000X0.450000X-0.350000X0.450000X0*%
%ADD11C,1.270000*%
%ADD12RoundRect,0.250000X0.550000X-1.050000X0.550000X1.050000X-0.550000X1.050000X-0.550000X-1.050000X0*%
%ADD13C,2.700000*%
%ADD14RoundRect,0.250000X0.350000X0.450000X-0.350000X0.450000X-0.350000X-0.450000X0.350000X-0.450000X0*%
%ADD15RoundRect,0.250000X0.450000X-0.350000X0.450000X0.350000X-0.450000X0.350000X-0.450000X-0.350000X0*%
%ADD16C,4.700000*%
%ADD17RoundRect,0.250000X-0.450000X0.350000X-0.450000X-0.350000X0.450000X-0.350000X0.450000X0.350000X0*%
%ADD18RoundRect,0.250000X-0.475000X0.337500X-0.475000X-0.337500X0.475000X-0.337500X0.475000X0.337500X0*%
%ADD19RoundRect,0.250000X-0.925000X0.875000X-0.925000X-0.875000X0.925000X-0.875000X0.925000X0.875000X0*%
%ADD20RoundRect,0.250000X0.337500X0.475000X-0.337500X0.475000X-0.337500X-0.475000X0.337500X-0.475000X0*%
%ADD21RoundRect,0.062500X0.062500X-0.337500X0.062500X0.337500X-0.062500X0.337500X-0.062500X-0.337500X0*%
%ADD22RoundRect,0.062500X0.337500X-0.062500X0.337500X0.062500X-0.337500X0.062500X-0.337500X-0.062500X0*%
%ADD23R,3.350000X3.350000*%
%ADD24R,2.900000X1.800000*%
%ADD25R,2.900000X1.200000*%
%ADD26R,2.900000X2.400000*%
%ADD27RoundRect,0.250000X-0.875000X-0.925000X0.875000X-0.925000X0.875000X0.925000X-0.875000X0.925000X0*%
%ADD28RoundRect,0.250000X-0.337500X-0.475000X0.337500X-0.475000X0.337500X0.475000X-0.337500X0.475000X0*%
%ADD29RoundRect,0.250000X1.000000X-1.500000X1.000000X1.500000X-1.000000X1.500000X-1.000000X-1.500000X0*%
G04 APERTURE END LIST*
D10*
%TO.C,R2*%
X117900000Y-98743000D03*
X119900000Y-98743000D03*
%TD*%
D11*
%TO.C,J2*%
X110264000Y-97346000D03*
X110264000Y-94806000D03*
X110264000Y-92266000D03*
X110264000Y-89726000D03*
X110264000Y-87186000D03*
X110264000Y-84646000D03*
X110264000Y-82106000D03*
X110264000Y-79566000D03*
X110264000Y-77026000D03*
X110264000Y-74486000D03*
X110264000Y-71946000D03*
X110264000Y-69406000D03*
%TD*%
D12*
%TO.C,C12*%
X124234000Y-83398000D03*
X124234000Y-79798000D03*
%TD*%
D13*
%TO.C,REF\u002A\u002A*%
X149634000Y-57976000D03*
%TD*%
D14*
%TO.C,R3*%
X115709000Y-90361000D03*
X113709000Y-90361000D03*
%TD*%
D15*
%TO.C,R10*%
X122964000Y-76883000D03*
X122964000Y-74883000D03*
%TD*%
D14*
%TO.C,R6*%
X147078000Y-78296000D03*
X145078000Y-78296000D03*
%TD*%
D11*
%TO.C,J1*%
X130584000Y-69406000D03*
X130584000Y-71946000D03*
X130584000Y-74486000D03*
X130584000Y-77026000D03*
X130584000Y-79566000D03*
X130584000Y-82106000D03*
X130584000Y-84646000D03*
X130584000Y-87186000D03*
X130584000Y-89726000D03*
X130584000Y-92266000D03*
X130584000Y-94806000D03*
X130584000Y-97346000D03*
X130584000Y-99886000D03*
X130584000Y-102426000D03*
X130584000Y-104966000D03*
X130584000Y-107506000D03*
%TD*%
D16*
%TO.C,REF\u002A\u002A*%
X129314000Y-111316000D03*
%TD*%
D17*
%TO.C,R7*%
X115344000Y-74883000D03*
X115344000Y-76883000D03*
%TD*%
D18*
%TO.C,C4*%
X124488000Y-105960500D03*
X124488000Y-108035500D03*
%TD*%
D16*
%TO.C,REF\u002A\u002A*%
X129314000Y-57976000D03*
%TD*%
D19*
%TO.C,C14*%
X114709000Y-94796000D03*
X114709000Y-99896000D03*
%TD*%
D16*
%TO.C,REF\u002A\u002A*%
X129314000Y-65596000D03*
%TD*%
D12*
%TO.C,C10*%
X116614000Y-83398000D03*
X116614000Y-79798000D03*
%TD*%
D18*
%TO.C,C2*%
X119408000Y-104182500D03*
X119408000Y-106257500D03*
%TD*%
D20*
%TO.C,C9*%
X115746500Y-87821000D03*
X113671500Y-87821000D03*
%TD*%
D21*
%TO.C,U1*%
X118924000Y-94081000D03*
X119424000Y-94081000D03*
X119924000Y-94081000D03*
X120424000Y-94081000D03*
X120924000Y-94081000D03*
X121424000Y-94081000D03*
X121924000Y-94081000D03*
D22*
X122874000Y-93131000D03*
X122874000Y-92631000D03*
X122874000Y-92131000D03*
X122874000Y-91631000D03*
X122874000Y-91131000D03*
X122874000Y-90631000D03*
X122874000Y-90131000D03*
D21*
X121924000Y-89181000D03*
X121424000Y-89181000D03*
X120924000Y-89181000D03*
X120424000Y-89181000D03*
X119924000Y-89181000D03*
X119424000Y-89181000D03*
X118924000Y-89181000D03*
D22*
X117974000Y-90131000D03*
X117974000Y-90631000D03*
X117974000Y-91131000D03*
X117974000Y-91631000D03*
X117974000Y-92131000D03*
X117974000Y-92631000D03*
X117974000Y-93131000D03*
D23*
X120424000Y-91631000D03*
%TD*%
D14*
%TO.C,R1*%
X119900000Y-101156000D03*
X117900000Y-101156000D03*
%TD*%
D20*
%TO.C,C5*%
X125250000Y-86170000D03*
X123175000Y-86170000D03*
%TD*%
D18*
%TO.C,C1*%
X117122000Y-104182500D03*
X117122000Y-106257500D03*
%TD*%
D24*
%TO.C,J4*%
X124074000Y-62698000D03*
X116674000Y-60798000D03*
D25*
X116674000Y-57998000D03*
D24*
X124074000Y-59898000D03*
D26*
X116674000Y-70098000D03*
%TD*%
D18*
%TO.C,C3*%
X122202000Y-105960500D03*
X122202000Y-108035500D03*
%TD*%
D27*
%TO.C,C7*%
X122700000Y-98616000D03*
X127800000Y-98616000D03*
%TD*%
D28*
%TO.C,C8*%
X126244500Y-95060000D03*
X128319500Y-95060000D03*
%TD*%
D29*
%TO.C,C11*%
X136934000Y-89547000D03*
X136934000Y-83047000D03*
%TD*%
D16*
%TO.C,REF\u002A\u002A*%
X111534000Y-111316000D03*
%TD*%
D13*
%TO.C,REF\u002A\u002A*%
X149634000Y-111316000D03*
%TD*%
D16*
%TO.C,REF\u002A\u002A*%
X111534000Y-65596000D03*
%TD*%
D24*
%TO.C,J3*%
X145664000Y-62698000D03*
X138264000Y-60798000D03*
D25*
X138264000Y-57998000D03*
D24*
X145664000Y-59898000D03*
D26*
X138264000Y-70098000D03*
%TD*%
D16*
%TO.C,REF\u002A\u002A*%
X111534000Y-57976000D03*
%TD*%
D27*
%TO.C,C6*%
X122700000Y-102426000D03*
X127800000Y-102426000D03*
%TD*%
D15*
%TO.C,R9*%
X117884000Y-76883000D03*
X117884000Y-74883000D03*
%TD*%
%TO.C,R8*%
X125504000Y-76883000D03*
X125504000Y-74883000D03*
%TD*%
D14*
%TO.C,R5*%
X138950000Y-78296000D03*
X136950000Y-78296000D03*
%TD*%
D29*
%TO.C,C13*%
X147094000Y-89547000D03*
X147094000Y-83047000D03*
%TD*%
M02*
