M48
; DRILL file {KiCad 5.99.0-unknown-fc7f1d1d86~106~ubuntu20.04.1} date Thu Jan 14 14:57:35 2021
; FORMAT={-:-/ absolute / inch / decimal}
; #@! TF.CreationDate,2021-01-14T14:57:35+11:00
; #@! TF.GenerationSoftware,Kicad,Pcbnew,5.99.0-unknown-fc7f1d1d86~106~ubuntu20.04.1
; #@! TF.FileFunction,Plated,1,2,PTH
FMAT,2
INCH
T1C0.0157
T2C0.0374
T3C0.0394
T4C0.1063
%
G90
G05
T1
X6.43Y-4.215
X6.4387Y-4.1402
X6.485Y-4.23
X6.55Y-4.325
X6.575Y-4.275
X6.6Y-4.375
X6.625Y-4.325
X6.71Y-4.325
X6.71Y-4.38
X6.79Y-4.325
X6.825Y-4.375
X6.84Y-3.45
X6.84Y-3.55
X6.84Y-3.65
X6.84Y-3.75
X6.84Y-3.85
X6.84Y-3.95
X6.84Y-4.05
X6.84Y-4.15
X6.84Y-4.25
X6.86Y-3.355
X6.875Y-4.325
X6.9Y-3.45
X6.9Y-3.55
X6.9Y-3.65
X6.9Y-3.75
X6.9Y-3.85
X6.9Y-3.95
X6.9Y-4.05
X6.9Y-4.15
X6.9Y-4.25
T2
X6.15Y-3.1079
X6.15Y-3.2079
X6.15Y-3.3079
X6.15Y-3.4079
X6.15Y-3.5079
X6.15Y-3.6079
X6.15Y-3.7079
X6.15Y-3.8079
X6.15Y-3.9079
X6.15Y-4.0079
X6.15Y-4.1079
X6.15Y-4.2079
T3
X6.95Y-3.1079
X6.95Y-3.2079
X6.95Y-3.3079
X6.95Y-3.4079
X6.95Y-3.5079
X6.95Y-3.6079
X6.95Y-3.7079
X6.95Y-3.8079
X6.95Y-3.9079
X6.95Y-4.0079
X6.95Y-4.1079
X6.95Y-4.2079
X6.95Y-4.3079
X6.95Y-4.4079
X6.95Y-4.5079
X6.95Y-4.6079
T4
X6.2Y-2.96
X6.2Y-4.76
X6.9Y-2.96
X6.9Y-4.76
T0
M30
