%TF.GenerationSoftware,KiCad,Pcbnew,5.99.0-unknown-fc7f1d1d86~106~ubuntu20.04.1*%
%TF.CreationDate,2021-01-14T14:57:38+11:00*%
%TF.ProjectId,dac-featherwing,6461632d-6665-4617-9468-657277696e67,rev?*%
%TF.SameCoordinates,Original*%
%TF.FileFunction,Soldermask,Top*%
%TF.FilePolarity,Negative*%
%FSLAX46Y46*%
G04 Gerber Fmt 4.6, Leading zero omitted, Abs format (unit mm)*
G04 Created by KiCad (PCBNEW 5.99.0-unknown-fc7f1d1d86~106~ubuntu20.04.1) date 2021-01-14 14:57:38*
%MOMM*%
%LPD*%
G01*
G04 APERTURE LIST*
G04 Aperture macros list*
%AMRoundRect*
0 Rectangle with rounded corners*
0 $1 Rounding radius*
0 $2 $3 $4 $5 $6 $7 $8 $9 X,Y pos of 4 corners*
0 Add a 4 corners polygon primitive as box body*
4,1,4,$2,$3,$4,$5,$6,$7,$8,$9,$2,$3,0*
0 Add four circle primitives for the rounded corners*
1,1,$1+$1,$2,$3,0*
1,1,$1+$1,$4,$5,0*
1,1,$1+$1,$6,$7,0*
1,1,$1+$1,$8,$9,0*
0 Add four rect primitives between the rounded corners*
20,1,$1+$1,$2,$3,$4,$5,0*
20,1,$1+$1,$4,$5,$6,$7,0*
20,1,$1+$1,$6,$7,$8,$9,0*
20,1,$1+$1,$8,$9,$2,$3,0*%
G04 Aperture macros list end*
%ADD10C,1.270000*%
%ADD11RoundRect,0.062500X0.062500X-0.350000X0.062500X0.350000X-0.062500X0.350000X-0.062500X-0.350000X0*%
%ADD12RoundRect,0.062500X0.350000X-0.062500X0.350000X0.062500X-0.350000X0.062500X-0.350000X-0.062500X0*%
%ADD13RoundRect,0.250000X1.050000X-1.050000X1.050000X1.050000X-1.050000X1.050000X-1.050000X-1.050000X0*%
%ADD14C,4.500000*%
%ADD15RoundRect,0.250000X-0.325000X-0.450000X0.325000X-0.450000X0.325000X0.450000X-0.325000X0.450000X0*%
%ADD16RoundRect,0.250000X0.450000X-0.325000X0.450000X0.325000X-0.450000X0.325000X-0.450000X-0.325000X0*%
%ADD17R,2.100000X2.200000*%
%ADD18R,2.100000X2.700000*%
%ADD19R,2.100000X2.000000*%
%ADD20R,2.700000X2.600000*%
%ADD21C,1.600000*%
G04 APERTURE END LIST*
D10*
%TO.C,J1*%
X176530000Y-78939992D03*
X176530000Y-81479992D03*
X176530000Y-84019992D03*
X176530000Y-86559992D03*
X176530000Y-89099992D03*
X176530000Y-91639992D03*
X176530000Y-94179992D03*
X176530000Y-96719992D03*
X176530000Y-99259992D03*
X176530000Y-101799992D03*
X176530000Y-104339992D03*
X176530000Y-106879992D03*
X176530000Y-109419992D03*
X176530000Y-111959992D03*
X176530000Y-114499992D03*
X176530000Y-117039992D03*
%TD*%
D11*
%TO.C,U1*%
X165755000Y-104680500D03*
X166255000Y-104680500D03*
X166755000Y-104680500D03*
X167255000Y-104680500D03*
X167755000Y-104680500D03*
X168255000Y-104680500D03*
D12*
X168942500Y-103993000D03*
X168942500Y-103493000D03*
X168942500Y-102993000D03*
X168942500Y-102493000D03*
X168942500Y-101993000D03*
X168942500Y-101493000D03*
D11*
X168255000Y-100805500D03*
X167755000Y-100805500D03*
X167255000Y-100805500D03*
X166755000Y-100805500D03*
X166255000Y-100805500D03*
X165755000Y-100805500D03*
D12*
X165067500Y-101493000D03*
X165067500Y-101993000D03*
X165067500Y-102493000D03*
X165067500Y-102993000D03*
X165067500Y-103493000D03*
X165067500Y-103993000D03*
D13*
X167005000Y-102743000D03*
%TD*%
D14*
%TO.C,*%
X157480000Y-75184000D03*
%TD*%
%TO.C,*%
X175260000Y-120904000D03*
%TD*%
%TO.C,*%
X175260000Y-75184000D03*
%TD*%
D15*
%TO.C,C1*%
X169028000Y-107188000D03*
X171078000Y-107188000D03*
%TD*%
D16*
%TO.C,C5*%
X164338000Y-98561000D03*
X164338000Y-96511000D03*
%TD*%
%TO.C,C4*%
X169672000Y-98561000D03*
X169672000Y-96511000D03*
%TD*%
%TO.C,C3*%
X171450000Y-103133000D03*
X171450000Y-101083000D03*
%TD*%
D14*
%TO.C,REF\u002A\u002A*%
X157480000Y-120904000D03*
%TD*%
D17*
%TO.C,3.5MM STEREO*%
X162320000Y-77954000D03*
X170420000Y-79854000D03*
D18*
X162320000Y-87254000D03*
D19*
X170420000Y-77154000D03*
D20*
X167120000Y-91354000D03*
D21*
X166370000Y-79304000D03*
X166370000Y-86304000D03*
%TD*%
D15*
%TO.C,C2*%
X170425000Y-105283000D03*
X172475000Y-105283000D03*
%TD*%
D10*
%TO.C,J2*%
X156210000Y-106879992D03*
X156210000Y-104339992D03*
X156210000Y-101799992D03*
X156210000Y-99259992D03*
X156210000Y-96719992D03*
X156210000Y-94179992D03*
X156210000Y-91639992D03*
X156210000Y-89099992D03*
X156210000Y-86559992D03*
X156210000Y-84019992D03*
X156210000Y-81479992D03*
X156210000Y-78939992D03*
%TD*%
D16*
%TO.C,C6*%
X162052000Y-98561000D03*
X162052000Y-96511000D03*
%TD*%
M02*
