%TF.GenerationSoftware,KiCad,Pcbnew,5.99.0-unknown-8f3343b9e3~128~ubuntu20.04.1*%
%TF.CreationDate,2021-06-03T23:09:28+10:00*%
%TF.ProjectId,dac-featherwing-v2,6461632d-6665-4617-9468-657277696e67,rev?*%
%TF.SameCoordinates,Original*%
%TF.FileFunction,Legend,Bot*%
%TF.FilePolarity,Positive*%
%FSLAX46Y46*%
G04 Gerber Fmt 4.6, Leading zero omitted, Abs format (unit mm)*
G04 Created by KiCad (PCBNEW 5.99.0-unknown-8f3343b9e3~128~ubuntu20.04.1) date 2021-06-03 23:09:28*
%MOMM*%
%LPD*%
G01*
G04 APERTURE LIST*
%ADD10C,0.250000*%
%ADD11C,0.120000*%
G04 APERTURE END LIST*
D10*
X114315547Y-69810761D02*
X114172690Y-69858380D01*
X113934595Y-69858380D01*
X113839357Y-69810761D01*
X113791738Y-69763142D01*
X113744119Y-69667904D01*
X113744119Y-69572666D01*
X113791738Y-69477428D01*
X113839357Y-69429809D01*
X113934595Y-69382190D01*
X114125071Y-69334571D01*
X114220309Y-69286952D01*
X114267928Y-69239333D01*
X114315547Y-69144095D01*
X114315547Y-69048857D01*
X114267928Y-68953619D01*
X114220309Y-68906000D01*
X114125071Y-68858380D01*
X113886976Y-68858380D01*
X113744119Y-68906000D01*
X113315547Y-69858380D02*
X113315547Y-68858380D01*
X113077452Y-68858380D01*
X112934595Y-68906000D01*
X112839357Y-69001238D01*
X112791738Y-69096476D01*
X112744119Y-69286952D01*
X112744119Y-69429809D01*
X112791738Y-69620285D01*
X112839357Y-69715523D01*
X112934595Y-69810761D01*
X113077452Y-69858380D01*
X113315547Y-69858380D01*
X112363166Y-69572666D02*
X111886976Y-69572666D01*
X112458404Y-69858380D02*
X112125071Y-68858380D01*
X111791738Y-69858380D01*
X129008642Y-89178380D02*
X128770547Y-90178380D01*
X128580071Y-89464095D01*
X128389595Y-90178380D01*
X128151500Y-89178380D01*
X127818166Y-90130761D02*
X127675309Y-90178380D01*
X127437214Y-90178380D01*
X127341976Y-90130761D01*
X127294357Y-90083142D01*
X127246738Y-89987904D01*
X127246738Y-89892666D01*
X127294357Y-89797428D01*
X127341976Y-89749809D01*
X127437214Y-89702190D01*
X127627690Y-89654571D01*
X127722928Y-89606952D01*
X127770547Y-89559333D01*
X127818166Y-89464095D01*
X127818166Y-89368857D01*
X127770547Y-89273619D01*
X127722928Y-89226000D01*
X127627690Y-89178380D01*
X127389595Y-89178380D01*
X127246738Y-89226000D01*
X128913404Y-87638380D02*
X128913404Y-86638380D01*
X128675309Y-86638380D01*
X128532452Y-86686000D01*
X128437214Y-86781238D01*
X128389595Y-86876476D01*
X128341976Y-87066952D01*
X128341976Y-87209809D01*
X128389595Y-87400285D01*
X128437214Y-87495523D01*
X128532452Y-87590761D01*
X128675309Y-87638380D01*
X128913404Y-87638380D01*
X127913404Y-87638380D02*
X127913404Y-86638380D01*
X127437214Y-87638380D02*
X127437214Y-86638380D01*
X126865785Y-87638380D01*
X126865785Y-86638380D01*
X134921261Y-74938380D02*
X134921261Y-73938380D01*
X134587928Y-74652666D01*
X134254595Y-73938380D01*
X134254595Y-74938380D01*
X133206976Y-74843142D02*
X133254595Y-74890761D01*
X133397452Y-74938380D01*
X133492690Y-74938380D01*
X133635547Y-74890761D01*
X133730785Y-74795523D01*
X133778404Y-74700285D01*
X133826023Y-74509809D01*
X133826023Y-74366952D01*
X133778404Y-74176476D01*
X133730785Y-74081238D01*
X133635547Y-73986000D01*
X133492690Y-73938380D01*
X133397452Y-73938380D01*
X133254595Y-73986000D01*
X133206976Y-74033619D01*
X132778404Y-74938380D02*
X132778404Y-73938380D01*
X132206976Y-74938380D02*
X132635547Y-74366952D01*
X132206976Y-73938380D02*
X132778404Y-74509809D01*
X128580071Y-92194571D02*
X128437214Y-92242190D01*
X128389595Y-92289809D01*
X128341976Y-92385047D01*
X128341976Y-92527904D01*
X128389595Y-92623142D01*
X128437214Y-92670761D01*
X128532452Y-92718380D01*
X128913404Y-92718380D01*
X128913404Y-91718380D01*
X128580071Y-91718380D01*
X128484833Y-91766000D01*
X128437214Y-91813619D01*
X128389595Y-91908857D01*
X128389595Y-92004095D01*
X128437214Y-92099333D01*
X128484833Y-92146952D01*
X128580071Y-92194571D01*
X128913404Y-92194571D01*
X127341976Y-92623142D02*
X127389595Y-92670761D01*
X127532452Y-92718380D01*
X127627690Y-92718380D01*
X127770547Y-92670761D01*
X127865785Y-92575523D01*
X127913404Y-92480285D01*
X127961023Y-92289809D01*
X127961023Y-92146952D01*
X127913404Y-91956476D01*
X127865785Y-91861238D01*
X127770547Y-91766000D01*
X127627690Y-91718380D01*
X127532452Y-91718380D01*
X127389595Y-91766000D01*
X127341976Y-91813619D01*
X126913404Y-92718380D02*
X126913404Y-91718380D01*
X126341976Y-92718380D02*
X126770547Y-92146952D01*
X126341976Y-91718380D02*
X126913404Y-92289809D01*
X134302214Y-99386000D02*
X134397452Y-99338380D01*
X134540309Y-99338380D01*
X134683166Y-99386000D01*
X134778404Y-99481238D01*
X134826023Y-99576476D01*
X134873642Y-99766952D01*
X134873642Y-99909809D01*
X134826023Y-100100285D01*
X134778404Y-100195523D01*
X134683166Y-100290761D01*
X134540309Y-100338380D01*
X134445071Y-100338380D01*
X134302214Y-100290761D01*
X134254595Y-100243142D01*
X134254595Y-99909809D01*
X134445071Y-99909809D01*
X133826023Y-100338380D02*
X133826023Y-99338380D01*
X133254595Y-100338380D01*
X133254595Y-99338380D01*
X132778404Y-100338380D02*
X132778404Y-99338380D01*
X132540309Y-99338380D01*
X132397452Y-99386000D01*
X132302214Y-99481238D01*
X132254595Y-99576476D01*
X132206976Y-99766952D01*
X132206976Y-99909809D01*
X132254595Y-100100285D01*
X132302214Y-100195523D01*
X132397452Y-100290761D01*
X132540309Y-100338380D01*
X132778404Y-100338380D01*
X114267928Y-72350761D02*
X114125071Y-72398380D01*
X113886976Y-72398380D01*
X113791738Y-72350761D01*
X113744119Y-72303142D01*
X113696500Y-72207904D01*
X113696500Y-72112666D01*
X113744119Y-72017428D01*
X113791738Y-71969809D01*
X113886976Y-71922190D01*
X114077452Y-71874571D01*
X114172690Y-71826952D01*
X114220309Y-71779333D01*
X114267928Y-71684095D01*
X114267928Y-71588857D01*
X114220309Y-71493619D01*
X114172690Y-71446000D01*
X114077452Y-71398380D01*
X113839357Y-71398380D01*
X113696500Y-71446000D01*
X112696500Y-72303142D02*
X112744119Y-72350761D01*
X112886976Y-72398380D01*
X112982214Y-72398380D01*
X113125071Y-72350761D01*
X113220309Y-72255523D01*
X113267928Y-72160285D01*
X113315547Y-71969809D01*
X113315547Y-71826952D01*
X113267928Y-71636476D01*
X113220309Y-71541238D01*
X113125071Y-71446000D01*
X112982214Y-71398380D01*
X112886976Y-71398380D01*
X112744119Y-71446000D01*
X112696500Y-71493619D01*
X111791738Y-72398380D02*
X112267928Y-72398380D01*
X112267928Y-71398380D01*
X135492690Y-68858380D02*
X134873642Y-68858380D01*
X135206976Y-69239333D01*
X135064119Y-69239333D01*
X134968880Y-69286952D01*
X134921261Y-69334571D01*
X134873642Y-69429809D01*
X134873642Y-69667904D01*
X134921261Y-69763142D01*
X134968880Y-69810761D01*
X135064119Y-69858380D01*
X135349833Y-69858380D01*
X135445071Y-69810761D01*
X135492690Y-69763142D01*
X134587928Y-68858380D02*
X134254595Y-69858380D01*
X133921261Y-68858380D01*
X133683166Y-68858380D02*
X133064119Y-68858380D01*
X133397452Y-69239333D01*
X133254595Y-69239333D01*
X133159357Y-69286952D01*
X133111738Y-69334571D01*
X133064119Y-69429809D01*
X133064119Y-69667904D01*
X133111738Y-69763142D01*
X133159357Y-69810761D01*
X133254595Y-69858380D01*
X133540309Y-69858380D01*
X133635547Y-69810761D01*
X133683166Y-69763142D01*
X132683166Y-69572666D02*
X132206976Y-69572666D01*
X132778404Y-69858380D02*
X132445071Y-68858380D01*
X132111738Y-69858380D01*
X134635547Y-104418380D02*
X134016500Y-104418380D01*
X134349833Y-104799333D01*
X134206976Y-104799333D01*
X134111738Y-104846952D01*
X134064119Y-104894571D01*
X134016500Y-104989809D01*
X134016500Y-105227904D01*
X134064119Y-105323142D01*
X134111738Y-105370761D01*
X134206976Y-105418380D01*
X134492690Y-105418380D01*
X134587928Y-105370761D01*
X134635547Y-105323142D01*
X133730785Y-104418380D02*
X133397452Y-105418380D01*
X133064119Y-104418380D01*
X132826023Y-104418380D02*
X132206976Y-104418380D01*
X132540309Y-104799333D01*
X132397452Y-104799333D01*
X132302214Y-104846952D01*
X132254595Y-104894571D01*
X132206976Y-104989809D01*
X132206976Y-105227904D01*
X132254595Y-105323142D01*
X132302214Y-105370761D01*
X132397452Y-105418380D01*
X132683166Y-105418380D01*
X132778404Y-105370761D01*
X132826023Y-105323142D01*
%TO.C,3V3A SRC*%
X136386380Y-82392190D02*
X136386380Y-83011238D01*
X136767333Y-82677904D01*
X136767333Y-82820761D01*
X136814952Y-82916000D01*
X136862571Y-82963619D01*
X136957809Y-83011238D01*
X137195904Y-83011238D01*
X137291142Y-82963619D01*
X137338761Y-82916000D01*
X137386380Y-82820761D01*
X137386380Y-82535047D01*
X137338761Y-82439809D01*
X137291142Y-82392190D01*
X136386380Y-83296952D02*
X137386380Y-83630285D01*
X136386380Y-83963619D01*
X136386380Y-84201714D02*
X136386380Y-84820761D01*
X136767333Y-84487428D01*
X136767333Y-84630285D01*
X136814952Y-84725523D01*
X136862571Y-84773142D01*
X136957809Y-84820761D01*
X137195904Y-84820761D01*
X137291142Y-84773142D01*
X137338761Y-84725523D01*
X137386380Y-84630285D01*
X137386380Y-84344571D01*
X137338761Y-84249333D01*
X137291142Y-84201714D01*
X137100666Y-85201714D02*
X137100666Y-85677904D01*
X137386380Y-85106476D02*
X136386380Y-85439809D01*
X137386380Y-85773142D01*
X137338761Y-86820761D02*
X137386380Y-86963619D01*
X137386380Y-87201714D01*
X137338761Y-87296952D01*
X137291142Y-87344571D01*
X137195904Y-87392190D01*
X137100666Y-87392190D01*
X137005428Y-87344571D01*
X136957809Y-87296952D01*
X136910190Y-87201714D01*
X136862571Y-87011238D01*
X136814952Y-86916000D01*
X136767333Y-86868380D01*
X136672095Y-86820761D01*
X136576857Y-86820761D01*
X136481619Y-86868380D01*
X136434000Y-86916000D01*
X136386380Y-87011238D01*
X136386380Y-87249333D01*
X136434000Y-87392190D01*
X137386380Y-88392190D02*
X136910190Y-88058857D01*
X137386380Y-87820761D02*
X136386380Y-87820761D01*
X136386380Y-88201714D01*
X136434000Y-88296952D01*
X136481619Y-88344571D01*
X136576857Y-88392190D01*
X136719714Y-88392190D01*
X136814952Y-88344571D01*
X136862571Y-88296952D01*
X136910190Y-88201714D01*
X136910190Y-87820761D01*
X137291142Y-89392190D02*
X137338761Y-89344571D01*
X137386380Y-89201714D01*
X137386380Y-89106476D01*
X137338761Y-88963619D01*
X137243523Y-88868380D01*
X137148285Y-88820761D01*
X136957809Y-88773142D01*
X136814952Y-88773142D01*
X136624476Y-88820761D01*
X136529238Y-88868380D01*
X136434000Y-88963619D01*
X136386380Y-89106476D01*
X136386380Y-89201714D01*
X136434000Y-89344571D01*
X136481619Y-89392190D01*
X134798761Y-89805523D02*
X134846380Y-89948380D01*
X134846380Y-90186476D01*
X134798761Y-90281714D01*
X134751142Y-90329333D01*
X134655904Y-90376952D01*
X134560666Y-90376952D01*
X134465428Y-90329333D01*
X134417809Y-90281714D01*
X134370190Y-90186476D01*
X134322571Y-89996000D01*
X134274952Y-89900761D01*
X134227333Y-89853142D01*
X134132095Y-89805523D01*
X134036857Y-89805523D01*
X133941619Y-89853142D01*
X133894000Y-89900761D01*
X133846380Y-89996000D01*
X133846380Y-90234095D01*
X133894000Y-90376952D01*
X134370190Y-90996000D02*
X134846380Y-90996000D01*
X133846380Y-90662666D02*
X134370190Y-90996000D01*
X133846380Y-91329333D01*
X134798761Y-91615047D02*
X134846380Y-91757904D01*
X134846380Y-91996000D01*
X134798761Y-92091238D01*
X134751142Y-92138857D01*
X134655904Y-92186476D01*
X134560666Y-92186476D01*
X134465428Y-92138857D01*
X134417809Y-92091238D01*
X134370190Y-91996000D01*
X134322571Y-91805523D01*
X134274952Y-91710285D01*
X134227333Y-91662666D01*
X134132095Y-91615047D01*
X134036857Y-91615047D01*
X133941619Y-91662666D01*
X133894000Y-91710285D01*
X133846380Y-91805523D01*
X133846380Y-92043619D01*
X133894000Y-92186476D01*
X134322571Y-79764571D02*
X134322571Y-80097904D01*
X134846380Y-80240761D02*
X134846380Y-79764571D01*
X133846380Y-79764571D01*
X133846380Y-80240761D01*
X133846380Y-80574095D02*
X134846380Y-81240761D01*
X133846380Y-81240761D02*
X134846380Y-80574095D01*
X133846380Y-81478857D02*
X133846380Y-82050285D01*
X134846380Y-81764571D02*
X133846380Y-81764571D01*
D11*
X135394000Y-83166000D02*
X133444000Y-83166000D01*
X133444000Y-88666000D02*
X135394000Y-88666000D01*
X133444000Y-83166000D02*
X133444000Y-88666000D01*
X135394000Y-88666000D02*
X135394000Y-83166000D01*
%TD*%
M02*
