%TF.GenerationSoftware,KiCad,Pcbnew,5.99.0-unknown-8f3343b9e3~128~ubuntu20.04.1*%
%TF.CreationDate,2021-06-03T23:09:28+10:00*%
%TF.ProjectId,dac-featherwing-v2,6461632d-6665-4617-9468-657277696e67,rev?*%
%TF.SameCoordinates,Original*%
%TF.FileFunction,Copper,L2,Bot*%
%TF.FilePolarity,Positive*%
%FSLAX46Y46*%
G04 Gerber Fmt 4.6, Leading zero omitted, Abs format (unit mm)*
G04 Created by KiCad (PCBNEW 5.99.0-unknown-8f3343b9e3~128~ubuntu20.04.1) date 2021-06-03 23:09:28*
%MOMM*%
%LPD*%
G01*
G04 APERTURE LIST*
G04 Aperture macros list*
%AMFreePoly0*
4,1,6,1.000000,0.000000,0.500000,-0.750000,-0.500000,-0.750000,-0.500000,0.750000,0.500000,0.750000,1.000000,0.000000,1.000000,0.000000,$1*%
%AMFreePoly1*
4,1,7,0.700000,0.000000,1.200000,-0.750000,-1.200000,-0.750000,-0.700000,0.000000,-1.200000,0.750000,1.200000,0.750000,0.700000,0.000000,0.700000,0.000000,$1*%
G04 Aperture macros list end*
%TA.AperFunction,ComponentPad*%
%ADD10C,1.270000*%
%TD*%
%TA.AperFunction,ComponentPad*%
%ADD11C,4.700000*%
%TD*%
%TA.AperFunction,SMDPad,CuDef*%
%ADD12FreePoly0,90.000000*%
%TD*%
%TA.AperFunction,SMDPad,CuDef*%
%ADD13FreePoly1,90.000000*%
%TD*%
%TA.AperFunction,SMDPad,CuDef*%
%ADD14FreePoly0,270.000000*%
%TD*%
%TA.AperFunction,ViaPad*%
%ADD15C,0.800000*%
%TD*%
%TA.AperFunction,Conductor*%
%ADD16C,0.300000*%
%TD*%
%TA.AperFunction,Conductor*%
%ADD17C,0.500000*%
%TD*%
%TA.AperFunction,Conductor*%
%ADD18C,1.000000*%
%TD*%
G04 APERTURE END LIST*
D10*
%TO.P,J2,1,Pin_1*%
%TO.N,+BATT*%
X110264000Y-97346000D03*
%TO.P,J2,2,Pin_2*%
%TO.N,/3v3A_EN*%
X110264000Y-94806000D03*
%TO.P,J2,3,Pin_3*%
%TO.N,VBUS*%
X110264000Y-92266000D03*
%TO.P,J2,4,Pin_4*%
%TO.N,/~MUTE*%
X110264000Y-89726000D03*
%TO.P,J2,5,Pin_5*%
%TO.N,/IO6*%
X110264000Y-87186000D03*
%TO.P,J2,6,Pin_6*%
%TO.N,/IO5*%
X110264000Y-84646000D03*
%TO.P,J2,7,Pin_7*%
%TO.N,/IO4*%
X110264000Y-82106000D03*
%TO.P,J2,8,Pin_8*%
%TO.N,/IO3*%
X110264000Y-79566000D03*
%TO.P,J2,9,Pin_9*%
%TO.N,/IO2*%
X110264000Y-77026000D03*
%TO.P,J2,10,Pin_10*%
%TO.N,/IO1*%
X110264000Y-74486000D03*
%TO.P,J2,11,Pin_11*%
%TO.N,SCL*%
X110264000Y-71946000D03*
%TO.P,J2,12,Pin_12*%
%TO.N,SDA*%
X110264000Y-69406000D03*
%TD*%
%TO.P,J1,1,Pin_1*%
%TO.N,+3.3VDAC*%
X130584000Y-69406000D03*
%TO.P,J1,2,Pin_2*%
%TO.N,/U1TXD*%
X130584000Y-71946000D03*
%TO.P,J1,3,Pin_3*%
%TO.N,/I2S_MCLK*%
X130584000Y-74486000D03*
%TO.P,J1,4,Pin_4*%
%TO.N,/SPI_SDI*%
X130584000Y-77026000D03*
%TO.P,J1,5,Pin_5*%
%TO.N,/SPI_SDO*%
X130584000Y-79566000D03*
%TO.P,J1,6,Pin_6*%
%TO.N,/SPI_SCK*%
X130584000Y-82106000D03*
%TO.P,J1,7,Pin_7*%
%TO.N,/I2S_DI*%
X130584000Y-84646000D03*
%TO.P,J1,8,Pin_8*%
%TO.N,/I2S_DO*%
X130584000Y-87186000D03*
%TO.P,J1,9,Pin_9*%
%TO.N,/I2S_WS*%
X130584000Y-89726000D03*
%TO.P,J1,10,Pin_10*%
%TO.N,/I2S_BCK*%
X130584000Y-92266000D03*
%TO.P,J1,11,Pin_11*%
%TO.N,/IO14*%
X130584000Y-94806000D03*
%TO.P,J1,12,Pin_12*%
%TO.N,/IO12*%
X130584000Y-97346000D03*
%TO.P,J1,13,Pin_13*%
%TO.N,GND*%
X130584000Y-99886000D03*
%TO.P,J1,14,Pin_14*%
%TO.N,/ESP32-IO0*%
X130584000Y-102426000D03*
%TO.P,J1,15,Pin_15*%
%TO.N,+3V3*%
X130584000Y-104966000D03*
%TO.P,J1,16,Pin_16*%
%TO.N,/ESP32-EN*%
X130584000Y-107506000D03*
%TD*%
D11*
%TO.P,REF\u002A\u002A,*%
%TO.N,*%
X129314000Y-111316000D03*
%TD*%
%TO.P,REF\u002A\u002A,*%
%TO.N,*%
X129314000Y-57976000D03*
%TD*%
%TO.P,REF\u002A\u002A,*%
%TO.N,*%
X129314000Y-65596000D03*
%TD*%
%TO.P,REF\u002A\u002A,*%
%TO.N,*%
X111534000Y-111316000D03*
%TD*%
%TO.P,REF\u002A\u002A,*%
%TO.N,*%
X111534000Y-65596000D03*
%TD*%
%TO.P,REF\u002A\u002A,*%
%TO.N,*%
X111534000Y-57976000D03*
%TD*%
D12*
%TO.P,3V3A SRC,1,A*%
%TO.N,+3V3*%
X134394000Y-87916000D03*
D13*
%TO.P,3V3A SRC,2,C*%
%TO.N,+3.3VA*%
X134394000Y-85916000D03*
D14*
%TO.P,3V3A SRC,3,B*%
%TO.N,+3.3VDAC*%
X134394000Y-83916000D03*
%TD*%
D15*
%TO.N,SCL*%
X117884000Y-97346000D03*
%TO.N,SDA*%
X117134500Y-96639245D03*
%TO.N,+3.3VA*%
X124869000Y-91631000D03*
X126774000Y-85662000D03*
X119789000Y-86551000D03*
X126266000Y-96457000D03*
X122700000Y-100531000D03*
%TO.N,/I2S_DO*%
X124234000Y-93790000D03*
%TO.N,/I2S_WS*%
X124869000Y-92901000D03*
%TO.N,/I2S_BCK*%
X123472000Y-94552000D03*
%TO.N,+3V3*%
X121694000Y-96076000D03*
X119924000Y-96576000D03*
%TO.N,/I2S_MCLK*%
X118900000Y-95568000D03*
%TO.N,ROUT*%
X124234000Y-72581000D03*
X119789000Y-75756000D03*
%TD*%
D16*
%TO.N,SCL*%
X117841244Y-97388756D02*
X117884000Y-97346000D01*
X110264000Y-71946000D02*
X111788000Y-73470000D01*
X116656756Y-97388756D02*
X117841244Y-97388756D01*
X111788000Y-92520000D02*
X116656756Y-97388756D01*
X111788000Y-73470000D02*
X111788000Y-92520000D01*
%TO.N,SDA*%
X112287520Y-92313092D02*
X112287520Y-71429520D01*
X116613673Y-96639245D02*
X112287520Y-92313092D01*
X117134500Y-96639245D02*
X116613673Y-96639245D01*
X112287520Y-71429520D02*
X110264000Y-69406000D01*
%TO.N,/I2S_DO*%
X129171144Y-90996000D02*
X126377144Y-93790000D01*
X130584000Y-87186000D02*
X131568511Y-88170511D01*
X131568511Y-90422527D02*
X130995038Y-90996000D01*
X131568511Y-88170511D02*
X131568511Y-90422527D01*
X126377144Y-93790000D02*
X124234000Y-93790000D01*
X130995038Y-90996000D02*
X129171144Y-90996000D01*
%TO.N,/I2S_WS*%
X129734716Y-89726000D02*
X126559716Y-92901000D01*
X130584000Y-89726000D02*
X129734716Y-89726000D01*
X126559716Y-92901000D02*
X124869000Y-92901000D01*
%TO.N,/I2S_BCK*%
X130584000Y-92266000D02*
X128607572Y-92266000D01*
X128607572Y-92266000D02*
X126321572Y-94552000D01*
X126321572Y-94552000D02*
X123472000Y-94552000D01*
D17*
%TO.N,+3V3*%
X130584000Y-104966000D02*
X134394000Y-101156000D01*
X134394000Y-101156000D02*
X134394000Y-87916000D01*
D16*
X120424000Y-96076000D02*
X119924000Y-96576000D01*
X121694000Y-96076000D02*
X120424000Y-96076000D01*
%TO.N,/I2S_MCLK*%
X132068031Y-92686969D02*
X131219000Y-93536000D01*
X132068031Y-75970031D02*
X132068031Y-92686969D01*
X126253511Y-95326489D02*
X119141511Y-95326489D01*
X119141511Y-95326489D02*
X118900000Y-95568000D01*
X131219000Y-93536000D02*
X128044000Y-93536000D01*
X130584000Y-74486000D02*
X132068031Y-75970031D01*
X128044000Y-93536000D02*
X126253511Y-95326489D01*
D18*
%TO.N,ROUT*%
X123916500Y-75756000D02*
X119789000Y-75756000D01*
X124234000Y-72581000D02*
X124234000Y-75438500D01*
X124234000Y-75438500D02*
X123916500Y-75756000D01*
D17*
%TO.N,+3.3VDAC*%
X134394000Y-73216000D02*
X134394000Y-83916000D01*
X130584000Y-69406000D02*
X134394000Y-73216000D01*
%TD*%
%TA.AperFunction,Conductor*%
%TO.N,+3.3VA*%
G36*
X127986503Y-55583002D02*
G01*
X128032996Y-55636658D01*
X128043100Y-55706932D01*
X128013606Y-55771512D01*
X127979083Y-55799415D01*
X127944695Y-55818320D01*
X127941491Y-55820648D01*
X127941486Y-55820651D01*
X127688267Y-56004625D01*
X127685063Y-56006953D01*
X127451121Y-56226640D01*
X127308591Y-56398929D01*
X127255381Y-56463249D01*
X127246557Y-56473915D01*
X127074598Y-56744878D01*
X127072914Y-56748457D01*
X127072910Y-56748464D01*
X126960760Y-56986796D01*
X126937956Y-57035258D01*
X126838786Y-57340473D01*
X126778651Y-57655711D01*
X126758500Y-57976000D01*
X126778651Y-58296289D01*
X126838786Y-58611527D01*
X126937956Y-58916742D01*
X126939643Y-58920328D01*
X126939645Y-58920332D01*
X127072910Y-59203536D01*
X127072914Y-59203543D01*
X127074598Y-59207122D01*
X127246557Y-59478085D01*
X127249076Y-59481130D01*
X127249079Y-59481134D01*
X127288637Y-59528951D01*
X127451121Y-59725360D01*
X127685063Y-59945047D01*
X127688265Y-59947374D01*
X127688267Y-59947375D01*
X127941486Y-60131349D01*
X127941491Y-60131352D01*
X127944695Y-60133680D01*
X128225921Y-60288286D01*
X128388666Y-60352721D01*
X128520624Y-60404967D01*
X128520627Y-60404968D01*
X128524307Y-60406425D01*
X128528141Y-60407409D01*
X128528149Y-60407412D01*
X128720313Y-60456751D01*
X128835147Y-60486235D01*
X128839075Y-60486731D01*
X128839079Y-60486732D01*
X128965440Y-60502695D01*
X129153539Y-60526457D01*
X129474461Y-60526457D01*
X129662560Y-60502695D01*
X129788921Y-60486732D01*
X129788925Y-60486731D01*
X129792853Y-60486235D01*
X129907687Y-60456751D01*
X130099851Y-60407412D01*
X130099859Y-60407409D01*
X130103693Y-60406425D01*
X130107373Y-60404968D01*
X130107376Y-60404967D01*
X130239334Y-60352721D01*
X130402079Y-60288286D01*
X130683305Y-60133680D01*
X130686509Y-60131352D01*
X130686514Y-60131349D01*
X130939733Y-59947375D01*
X130939735Y-59947374D01*
X130942937Y-59945047D01*
X131176879Y-59725360D01*
X131339363Y-59528951D01*
X131378921Y-59481134D01*
X131378924Y-59481130D01*
X131381443Y-59478085D01*
X131553402Y-59207122D01*
X131555086Y-59203543D01*
X131555090Y-59203536D01*
X131688355Y-58920332D01*
X131688357Y-58920328D01*
X131690044Y-58916742D01*
X131789214Y-58611527D01*
X131849349Y-58296289D01*
X131862673Y-58084506D01*
X148082289Y-58084506D01*
X148119598Y-58331200D01*
X148195869Y-58568755D01*
X148309139Y-58791060D01*
X148456494Y-58992396D01*
X148634144Y-59167582D01*
X148638269Y-59170514D01*
X148638272Y-59170516D01*
X148684736Y-59203536D01*
X148837517Y-59312112D01*
X148842053Y-59314344D01*
X149056841Y-59420033D01*
X149056846Y-59420035D01*
X149061382Y-59422267D01*
X149066226Y-59423748D01*
X149295131Y-59493732D01*
X149295133Y-59493732D01*
X149299979Y-59495214D01*
X149305000Y-59495902D01*
X149305001Y-59495902D01*
X149423575Y-59512145D01*
X149547170Y-59529075D01*
X149625793Y-59527153D01*
X149791533Y-59523103D01*
X149791537Y-59523103D01*
X149796594Y-59522979D01*
X150041835Y-59477083D01*
X150276584Y-59392568D01*
X150494801Y-59271609D01*
X150498779Y-59268479D01*
X150498783Y-59268476D01*
X150686895Y-59120446D01*
X150686896Y-59120445D01*
X150690871Y-59117317D01*
X150805742Y-58992396D01*
X150856327Y-58937385D01*
X150856329Y-58937382D01*
X150859751Y-58933661D01*
X150997095Y-58725368D01*
X151048257Y-58611527D01*
X151097296Y-58502411D01*
X151097298Y-58502406D01*
X151099370Y-58497795D01*
X151145350Y-58326195D01*
X151162637Y-58261680D01*
X151162637Y-58261678D01*
X151163945Y-58256798D01*
X151189159Y-58008576D01*
X151189500Y-57976000D01*
X151181001Y-57870367D01*
X151169896Y-57732347D01*
X151169895Y-57732343D01*
X151169490Y-57727305D01*
X151152879Y-57659674D01*
X151111184Y-57489922D01*
X151109977Y-57485008D01*
X151052159Y-57348796D01*
X151014466Y-57259998D01*
X151014466Y-57259997D01*
X151012490Y-57255343D01*
X150879538Y-57044219D01*
X150714541Y-56857067D01*
X150521745Y-56698702D01*
X150362531Y-56606038D01*
X150310484Y-56575746D01*
X150310481Y-56575745D01*
X150306109Y-56573200D01*
X150301386Y-56571387D01*
X150301384Y-56571386D01*
X150077902Y-56485599D01*
X150077904Y-56485599D01*
X150073182Y-56483787D01*
X150068236Y-56482754D01*
X150068230Y-56482752D01*
X149833910Y-56433801D01*
X149833911Y-56433801D01*
X149828956Y-56432766D01*
X149823907Y-56432537D01*
X149823901Y-56432536D01*
X149710029Y-56427366D01*
X149579714Y-56421448D01*
X149574693Y-56422029D01*
X149574690Y-56422029D01*
X149336898Y-56449542D01*
X149331868Y-56450124D01*
X149326997Y-56451503D01*
X149326994Y-56451503D01*
X149216802Y-56482685D01*
X149091796Y-56518058D01*
X148998216Y-56561695D01*
X148870255Y-56621364D01*
X148870251Y-56621366D01*
X148865673Y-56623501D01*
X148861492Y-56626343D01*
X148861491Y-56626343D01*
X148663505Y-56760894D01*
X148663501Y-56760897D01*
X148659318Y-56763740D01*
X148478038Y-56935167D01*
X148474960Y-56939193D01*
X148474959Y-56939194D01*
X148329572Y-57129353D01*
X148329569Y-57129357D01*
X148326499Y-57133373D01*
X148208598Y-57353257D01*
X148127369Y-57589163D01*
X148084902Y-57835021D01*
X148084849Y-57840080D01*
X148084471Y-57876219D01*
X148082289Y-58084506D01*
X131862673Y-58084506D01*
X131869500Y-57976000D01*
X131849349Y-57655711D01*
X131789214Y-57340473D01*
X131690044Y-57035258D01*
X131667240Y-56986796D01*
X131555090Y-56748464D01*
X131555086Y-56748457D01*
X131553402Y-56744878D01*
X131381443Y-56473915D01*
X131372620Y-56463249D01*
X131319409Y-56398929D01*
X131176879Y-56226640D01*
X130942937Y-56006953D01*
X130939733Y-56004625D01*
X130686514Y-55820651D01*
X130686509Y-55820648D01*
X130683305Y-55818320D01*
X130648917Y-55799415D01*
X130598858Y-55749069D01*
X130583965Y-55679652D01*
X130608966Y-55613203D01*
X130665923Y-55570819D01*
X130709618Y-55563000D01*
X149567723Y-55563000D01*
X149588630Y-55566941D01*
X149588676Y-55566403D01*
X149593256Y-55566798D01*
X149593264Y-55566803D01*
X149597682Y-55567507D01*
X149733792Y-55569403D01*
X149739620Y-55569621D01*
X149806855Y-55573687D01*
X149814403Y-55574373D01*
X150033578Y-55600987D01*
X150041069Y-55602126D01*
X150077603Y-55608822D01*
X150095153Y-55612038D01*
X150102591Y-55613635D01*
X150316912Y-55666459D01*
X150324234Y-55668500D01*
X150376760Y-55684868D01*
X150383943Y-55687347D01*
X150590337Y-55765622D01*
X150597367Y-55768534D01*
X150611372Y-55774837D01*
X150647466Y-55791082D01*
X150654309Y-55794413D01*
X150849805Y-55897017D01*
X150856435Y-55900757D01*
X150903450Y-55929179D01*
X150909841Y-55933311D01*
X151091528Y-56058720D01*
X151097657Y-56063230D01*
X151119282Y-56080172D01*
X151140917Y-56097122D01*
X151146756Y-56101988D01*
X151311995Y-56248377D01*
X151317537Y-56253594D01*
X151356404Y-56292461D01*
X151361622Y-56298003D01*
X151508016Y-56463249D01*
X151512887Y-56469095D01*
X151546764Y-56512335D01*
X151551266Y-56518452D01*
X151607354Y-56599710D01*
X151676695Y-56700168D01*
X151680818Y-56706545D01*
X151709252Y-56753579D01*
X151712982Y-56760194D01*
X151815580Y-56955676D01*
X151818912Y-56962520D01*
X151841465Y-57012631D01*
X151844378Y-57019663D01*
X151922649Y-57226048D01*
X151925131Y-57233241D01*
X151941498Y-57285762D01*
X151943543Y-57293096D01*
X151993028Y-57493865D01*
X151996367Y-57507414D01*
X151997964Y-57514856D01*
X152007870Y-57568913D01*
X152009015Y-57576436D01*
X152011167Y-57594155D01*
X152035627Y-57795601D01*
X152036312Y-57803136D01*
X152037939Y-57830033D01*
X152040379Y-57870367D01*
X152040597Y-57876206D01*
X152042250Y-57994881D01*
X152044904Y-58003483D01*
X152045458Y-58006990D01*
X152047000Y-58026642D01*
X152047000Y-111249723D01*
X152043059Y-111270630D01*
X152043597Y-111270676D01*
X152043202Y-111275256D01*
X152043197Y-111275264D01*
X152042493Y-111279682D01*
X152041494Y-111351429D01*
X152040597Y-111415780D01*
X152040379Y-111421632D01*
X152036314Y-111488839D01*
X152035627Y-111496403D01*
X152015010Y-111666195D01*
X152009015Y-111715566D01*
X152007874Y-111723069D01*
X152002141Y-111754348D01*
X151997962Y-111777152D01*
X151996365Y-111784590D01*
X151943540Y-111998915D01*
X151941495Y-112006249D01*
X151925132Y-112058757D01*
X151922650Y-112065950D01*
X151844377Y-112272339D01*
X151841471Y-112279356D01*
X151818908Y-112329488D01*
X151815585Y-112336312D01*
X151712987Y-112531796D01*
X151709249Y-112538424D01*
X151680818Y-112585456D01*
X151676691Y-112591841D01*
X151559054Y-112762267D01*
X151551278Y-112773532D01*
X151546767Y-112779662D01*
X151512884Y-112822910D01*
X151508012Y-112828756D01*
X151361623Y-112993996D01*
X151356405Y-112999538D01*
X151317539Y-113038404D01*
X151311997Y-113043622D01*
X151146753Y-113190014D01*
X151140906Y-113194887D01*
X151097667Y-113228762D01*
X151091538Y-113233271D01*
X150909853Y-113358681D01*
X150903461Y-113362814D01*
X150856416Y-113391254D01*
X150849793Y-113394990D01*
X150654299Y-113497592D01*
X150647485Y-113500910D01*
X150597369Y-113523465D01*
X150590352Y-113526371D01*
X150546688Y-113542931D01*
X150383929Y-113604657D01*
X150376737Y-113607139D01*
X150361275Y-113611957D01*
X150324226Y-113623502D01*
X150316936Y-113625535D01*
X150102580Y-113678368D01*
X150095144Y-113679964D01*
X150041087Y-113689870D01*
X150033564Y-113691015D01*
X149981528Y-113697334D01*
X149814399Y-113717627D01*
X149806864Y-113718312D01*
X149739619Y-113722380D01*
X149733794Y-113722597D01*
X149615120Y-113724250D01*
X149606518Y-113726904D01*
X149603011Y-113727458D01*
X149583359Y-113729000D01*
X130709618Y-113729000D01*
X130641497Y-113708998D01*
X130595004Y-113655342D01*
X130584900Y-113585068D01*
X130614394Y-113520488D01*
X130648917Y-113492585D01*
X130679833Y-113475589D01*
X130679836Y-113475587D01*
X130683305Y-113473680D01*
X130686509Y-113471352D01*
X130686514Y-113471349D01*
X130939733Y-113287375D01*
X130939735Y-113287374D01*
X130942937Y-113285047D01*
X131176879Y-113065360D01*
X131339363Y-112868951D01*
X131378921Y-112821134D01*
X131378924Y-112821130D01*
X131381443Y-112818085D01*
X131553402Y-112547122D01*
X131555086Y-112543543D01*
X131555090Y-112543536D01*
X131688355Y-112260332D01*
X131688357Y-112260328D01*
X131690044Y-112256742D01*
X131789214Y-111951527D01*
X131849349Y-111636289D01*
X131862673Y-111424506D01*
X148082289Y-111424506D01*
X148119598Y-111671200D01*
X148121144Y-111676016D01*
X148121145Y-111676019D01*
X148173086Y-111837795D01*
X148195869Y-111908755D01*
X148309139Y-112131060D01*
X148456494Y-112332396D01*
X148634144Y-112507582D01*
X148638269Y-112510514D01*
X148638272Y-112510516D01*
X148668216Y-112531796D01*
X148837517Y-112652112D01*
X148842053Y-112654344D01*
X149056841Y-112760033D01*
X149056846Y-112760035D01*
X149061382Y-112762267D01*
X149066226Y-112763748D01*
X149295131Y-112833732D01*
X149295133Y-112833732D01*
X149299979Y-112835214D01*
X149305000Y-112835902D01*
X149305001Y-112835902D01*
X149423574Y-112852144D01*
X149547170Y-112869075D01*
X149625793Y-112867153D01*
X149791533Y-112863103D01*
X149791537Y-112863103D01*
X149796594Y-112862979D01*
X150041835Y-112817083D01*
X150276584Y-112732568D01*
X150286938Y-112726829D01*
X150382372Y-112673929D01*
X150494801Y-112611609D01*
X150498779Y-112608479D01*
X150498783Y-112608476D01*
X150686895Y-112460446D01*
X150686896Y-112460445D01*
X150690871Y-112457317D01*
X150808416Y-112329488D01*
X150856327Y-112277385D01*
X150856329Y-112277382D01*
X150859751Y-112273661D01*
X150997095Y-112065368D01*
X151000066Y-112058757D01*
X151097296Y-111842411D01*
X151097298Y-111842406D01*
X151099370Y-111837795D01*
X151100679Y-111832910D01*
X151162637Y-111601680D01*
X151162637Y-111601678D01*
X151163945Y-111596798D01*
X151189159Y-111348576D01*
X151189500Y-111316000D01*
X151186517Y-111278924D01*
X151169896Y-111072347D01*
X151169895Y-111072343D01*
X151169490Y-111067305D01*
X151152879Y-110999674D01*
X151111184Y-110829922D01*
X151109977Y-110825008D01*
X151052159Y-110688796D01*
X151014466Y-110599998D01*
X151014466Y-110599997D01*
X151012490Y-110595343D01*
X150879538Y-110384219D01*
X150714541Y-110197067D01*
X150521745Y-110038702D01*
X150388864Y-109961364D01*
X150310484Y-109915746D01*
X150310481Y-109915745D01*
X150306109Y-109913200D01*
X150301386Y-109911387D01*
X150301384Y-109911386D01*
X150077902Y-109825599D01*
X150077904Y-109825599D01*
X150073182Y-109823787D01*
X150068236Y-109822754D01*
X150068230Y-109822752D01*
X149833910Y-109773801D01*
X149833911Y-109773801D01*
X149828956Y-109772766D01*
X149823907Y-109772537D01*
X149823901Y-109772536D01*
X149710029Y-109767366D01*
X149579714Y-109761448D01*
X149574693Y-109762029D01*
X149574690Y-109762029D01*
X149336898Y-109789542D01*
X149331868Y-109790124D01*
X149326997Y-109791503D01*
X149326994Y-109791503D01*
X149216802Y-109822685D01*
X149091796Y-109858058D01*
X148978734Y-109910780D01*
X148870255Y-109961364D01*
X148870251Y-109961366D01*
X148865673Y-109963501D01*
X148861492Y-109966343D01*
X148861491Y-109966343D01*
X148663505Y-110100894D01*
X148663501Y-110100897D01*
X148659318Y-110103740D01*
X148478038Y-110275167D01*
X148474960Y-110279193D01*
X148474959Y-110279194D01*
X148329572Y-110469353D01*
X148329569Y-110469357D01*
X148326499Y-110473373D01*
X148208598Y-110693257D01*
X148127369Y-110929163D01*
X148084902Y-111175021D01*
X148084849Y-111180080D01*
X148083896Y-111271119D01*
X148082289Y-111424506D01*
X131862673Y-111424506D01*
X131869500Y-111316000D01*
X131849349Y-110995711D01*
X131789214Y-110680473D01*
X131690044Y-110375258D01*
X131642945Y-110275167D01*
X131555090Y-110088464D01*
X131555086Y-110088457D01*
X131553402Y-110084878D01*
X131381443Y-109813915D01*
X131361762Y-109790124D01*
X131319409Y-109738929D01*
X131176879Y-109566640D01*
X130942937Y-109346953D01*
X130939733Y-109344625D01*
X130686514Y-109160651D01*
X130686509Y-109160648D01*
X130683305Y-109158320D01*
X130402079Y-109003714D01*
X130239334Y-108939279D01*
X130107376Y-108887033D01*
X130107373Y-108887032D01*
X130103693Y-108885575D01*
X130099859Y-108884591D01*
X130099851Y-108884588D01*
X129907687Y-108835249D01*
X129792853Y-108805765D01*
X129788925Y-108805269D01*
X129788921Y-108805268D01*
X129662560Y-108789305D01*
X129474461Y-108765543D01*
X129153539Y-108765543D01*
X128965440Y-108789305D01*
X128839079Y-108805268D01*
X128839075Y-108805269D01*
X128835147Y-108805765D01*
X128720313Y-108835249D01*
X128528149Y-108884588D01*
X128528141Y-108884591D01*
X128524307Y-108885575D01*
X128520627Y-108887032D01*
X128520624Y-108887033D01*
X128388666Y-108939279D01*
X128225921Y-109003714D01*
X127944695Y-109158320D01*
X127941491Y-109160648D01*
X127941486Y-109160651D01*
X127688267Y-109344625D01*
X127685063Y-109346953D01*
X127451121Y-109566640D01*
X127308591Y-109738929D01*
X127266239Y-109790124D01*
X127246557Y-109813915D01*
X127074598Y-110084878D01*
X127072914Y-110088457D01*
X127072910Y-110088464D01*
X126985055Y-110275167D01*
X126937956Y-110375258D01*
X126838786Y-110680473D01*
X126778651Y-110995711D01*
X126758500Y-111316000D01*
X126778651Y-111636289D01*
X126838786Y-111951527D01*
X126937956Y-112256742D01*
X126939643Y-112260328D01*
X126939645Y-112260332D01*
X127072910Y-112543536D01*
X127072914Y-112543543D01*
X127074598Y-112547122D01*
X127246557Y-112818085D01*
X127249076Y-112821130D01*
X127249079Y-112821134D01*
X127288637Y-112868951D01*
X127451121Y-113065360D01*
X127685063Y-113285047D01*
X127688265Y-113287374D01*
X127688267Y-113287375D01*
X127941486Y-113471349D01*
X127941491Y-113471352D01*
X127944695Y-113473680D01*
X127948164Y-113475587D01*
X127948167Y-113475589D01*
X127979083Y-113492585D01*
X128029142Y-113542931D01*
X128044035Y-113612348D01*
X128019034Y-113678797D01*
X127962077Y-113721181D01*
X127918382Y-113729000D01*
X112929618Y-113729000D01*
X112861497Y-113708998D01*
X112815004Y-113655342D01*
X112804900Y-113585068D01*
X112834394Y-113520488D01*
X112868917Y-113492585D01*
X112899833Y-113475589D01*
X112899836Y-113475587D01*
X112903305Y-113473680D01*
X112906509Y-113471352D01*
X112906514Y-113471349D01*
X113159733Y-113287375D01*
X113159735Y-113287374D01*
X113162937Y-113285047D01*
X113396879Y-113065360D01*
X113559363Y-112868951D01*
X113598921Y-112821134D01*
X113598924Y-112821130D01*
X113601443Y-112818085D01*
X113773402Y-112547122D01*
X113775086Y-112543543D01*
X113775090Y-112543536D01*
X113908355Y-112260332D01*
X113908357Y-112260328D01*
X113910044Y-112256742D01*
X114009214Y-111951527D01*
X114069349Y-111636289D01*
X114089500Y-111316000D01*
X114069349Y-110995711D01*
X114009214Y-110680473D01*
X113910044Y-110375258D01*
X113862945Y-110275167D01*
X113775090Y-110088464D01*
X113775086Y-110088457D01*
X113773402Y-110084878D01*
X113601443Y-109813915D01*
X113581762Y-109790124D01*
X113539409Y-109738929D01*
X113396879Y-109566640D01*
X113162937Y-109346953D01*
X113159733Y-109344625D01*
X112906514Y-109160651D01*
X112906509Y-109160648D01*
X112903305Y-109158320D01*
X112622079Y-109003714D01*
X112459334Y-108939279D01*
X112327376Y-108887033D01*
X112327373Y-108887032D01*
X112323693Y-108885575D01*
X112319859Y-108884591D01*
X112319851Y-108884588D01*
X112127687Y-108835249D01*
X112012853Y-108805765D01*
X112008925Y-108805269D01*
X112008921Y-108805268D01*
X111882560Y-108789305D01*
X111694461Y-108765543D01*
X111373539Y-108765543D01*
X111185440Y-108789305D01*
X111059079Y-108805268D01*
X111059075Y-108805269D01*
X111055147Y-108805765D01*
X110940313Y-108835249D01*
X110748149Y-108884588D01*
X110748141Y-108884591D01*
X110744307Y-108885575D01*
X110740627Y-108887032D01*
X110740624Y-108887033D01*
X110608666Y-108939279D01*
X110445921Y-109003714D01*
X110164695Y-109158320D01*
X110161491Y-109160648D01*
X110161486Y-109160651D01*
X109908267Y-109344625D01*
X109905063Y-109346953D01*
X109671121Y-109566640D01*
X109528591Y-109738929D01*
X109486239Y-109790124D01*
X109466557Y-109813915D01*
X109369823Y-109966343D01*
X109353385Y-109992245D01*
X109299996Y-110039044D01*
X109229781Y-110049549D01*
X109165033Y-110020425D01*
X109126309Y-109960919D01*
X109121000Y-109924731D01*
X109121000Y-107593856D01*
X129748104Y-107593856D01*
X129749547Y-107600529D01*
X129749547Y-107600531D01*
X129770766Y-107698669D01*
X129786470Y-107771303D01*
X129862044Y-107936372D01*
X129971302Y-108081362D01*
X130109145Y-108199508D01*
X130269143Y-108285298D01*
X130275707Y-108287156D01*
X130275711Y-108287157D01*
X130381514Y-108317096D01*
X130443831Y-108334730D01*
X130450642Y-108335135D01*
X130450644Y-108335135D01*
X130588120Y-108343302D01*
X130625058Y-108345497D01*
X130704773Y-108332871D01*
X130797636Y-108318163D01*
X130797640Y-108318162D01*
X130804370Y-108317096D01*
X130810716Y-108314609D01*
X130810720Y-108314608D01*
X130913690Y-108274254D01*
X130973400Y-108250854D01*
X131124263Y-108149860D01*
X131249919Y-108018827D01*
X131344507Y-107863867D01*
X131403613Y-107692212D01*
X131424480Y-107511868D01*
X131424500Y-107506000D01*
X131404893Y-107325515D01*
X131346987Y-107153451D01*
X131253483Y-106997834D01*
X131128745Y-106865927D01*
X131045265Y-106809194D01*
X130984234Y-106767718D01*
X130978591Y-106763883D01*
X130972261Y-106761351D01*
X130972257Y-106761349D01*
X130816364Y-106698996D01*
X130816359Y-106698995D01*
X130810027Y-106696462D01*
X130719872Y-106681537D01*
X130637656Y-106667926D01*
X130637652Y-106667926D01*
X130630918Y-106666811D01*
X130624101Y-106667168D01*
X130624097Y-106667168D01*
X130469357Y-106675278D01*
X130449620Y-106676312D01*
X130443047Y-106678123D01*
X130443044Y-106678123D01*
X130367266Y-106698996D01*
X130274591Y-106724523D01*
X130113998Y-106809194D01*
X130108785Y-106813599D01*
X130108781Y-106813602D01*
X130022420Y-106886584D01*
X129975334Y-106926375D01*
X129971190Y-106931794D01*
X129971189Y-106931796D01*
X129869212Y-107065175D01*
X129865066Y-107070598D01*
X129788341Y-107235136D01*
X129748738Y-107412310D01*
X129748104Y-107593856D01*
X109121000Y-107593856D01*
X109121000Y-105053856D01*
X129748104Y-105053856D01*
X129749547Y-105060529D01*
X129749547Y-105060531D01*
X129770766Y-105158669D01*
X129786470Y-105231303D01*
X129862044Y-105396372D01*
X129971302Y-105541362D01*
X130109145Y-105659508D01*
X130269143Y-105745298D01*
X130275707Y-105747156D01*
X130275711Y-105747157D01*
X130381514Y-105777096D01*
X130443831Y-105794730D01*
X130450642Y-105795135D01*
X130450644Y-105795135D01*
X130588120Y-105803302D01*
X130625058Y-105805497D01*
X130704773Y-105792871D01*
X130797636Y-105778163D01*
X130797640Y-105778162D01*
X130804370Y-105777096D01*
X130810716Y-105774609D01*
X130810720Y-105774608D01*
X130913690Y-105734254D01*
X130973400Y-105710854D01*
X131124263Y-105609860D01*
X131249919Y-105478827D01*
X131344507Y-105323867D01*
X131403613Y-105152212D01*
X131424480Y-104971868D01*
X131424500Y-104966000D01*
X131411089Y-104842549D01*
X131423617Y-104772666D01*
X131447257Y-104739846D01*
X134688881Y-101498222D01*
X134699970Y-101488367D01*
X134700744Y-101487757D01*
X134726045Y-101467811D01*
X134731398Y-101460066D01*
X134731400Y-101460064D01*
X134759406Y-101419543D01*
X134761706Y-101416325D01*
X134790960Y-101376717D01*
X134796555Y-101369142D01*
X134798946Y-101362332D01*
X134803052Y-101356392D01*
X134820744Y-101300453D01*
X134821996Y-101296701D01*
X134838309Y-101250246D01*
X134838309Y-101250244D01*
X134841432Y-101241352D01*
X134841714Y-101234163D01*
X134841725Y-101234106D01*
X134843892Y-101227256D01*
X134844500Y-101219531D01*
X134844500Y-101165738D01*
X134844597Y-101160792D01*
X134846379Y-101115429D01*
X134846749Y-101106016D01*
X134844921Y-101099121D01*
X134844500Y-101091473D01*
X134844500Y-88747500D01*
X134864502Y-88679379D01*
X134918158Y-88632886D01*
X134970500Y-88621500D01*
X135144000Y-88621500D01*
X135168831Y-88616561D01*
X135210472Y-88608278D01*
X135210474Y-88608277D01*
X135222641Y-88605857D01*
X135232956Y-88598965D01*
X135232958Y-88598964D01*
X135278994Y-88568203D01*
X135289310Y-88561310D01*
X135296203Y-88550994D01*
X135326964Y-88504958D01*
X135326965Y-88504956D01*
X135333857Y-88494641D01*
X135349500Y-88416000D01*
X135349500Y-87416000D01*
X135345509Y-87375698D01*
X135325295Y-87327042D01*
X135319509Y-87313113D01*
X135319507Y-87313111D01*
X135314747Y-87301652D01*
X135283721Y-87270690D01*
X135262372Y-87249386D01*
X135262373Y-87249386D01*
X135257991Y-87245014D01*
X134507991Y-86745014D01*
X134434302Y-86714491D01*
X134421926Y-86714478D01*
X134368339Y-86714422D01*
X134354120Y-86714407D01*
X134280009Y-86745014D01*
X134274855Y-86748450D01*
X133532602Y-87243285D01*
X133532597Y-87243288D01*
X133530009Y-87245014D01*
X133498690Y-87270690D01*
X133483859Y-87292886D01*
X133461036Y-87327042D01*
X133461035Y-87327044D01*
X133454143Y-87337359D01*
X133438500Y-87416000D01*
X133438500Y-88416000D01*
X133454143Y-88494641D01*
X133461035Y-88504956D01*
X133461036Y-88504958D01*
X133491797Y-88550994D01*
X133498690Y-88561310D01*
X133509006Y-88568203D01*
X133555042Y-88598964D01*
X133555044Y-88598965D01*
X133565359Y-88605857D01*
X133577526Y-88608277D01*
X133577528Y-88608278D01*
X133619169Y-88616561D01*
X133644000Y-88621500D01*
X133817500Y-88621500D01*
X133885621Y-88641502D01*
X133932114Y-88695158D01*
X133943500Y-88747500D01*
X133943500Y-100917207D01*
X133923498Y-100985328D01*
X133906595Y-101006302D01*
X130809835Y-104103061D01*
X130747523Y-104137087D01*
X130700161Y-104138274D01*
X130637656Y-104127926D01*
X130637652Y-104127926D01*
X130630918Y-104126811D01*
X130624101Y-104127168D01*
X130624097Y-104127168D01*
X130469357Y-104135278D01*
X130449620Y-104136312D01*
X130443047Y-104138123D01*
X130443044Y-104138123D01*
X130281173Y-104182710D01*
X130274591Y-104184523D01*
X130113998Y-104269194D01*
X130108785Y-104273599D01*
X130108781Y-104273602D01*
X130022420Y-104346584D01*
X129975334Y-104386375D01*
X129865066Y-104530598D01*
X129788341Y-104695136D01*
X129748738Y-104872310D01*
X129748104Y-105053856D01*
X109121000Y-105053856D01*
X109121000Y-102513856D01*
X129748104Y-102513856D01*
X129749547Y-102520529D01*
X129749547Y-102520531D01*
X129770766Y-102618669D01*
X129786470Y-102691303D01*
X129862044Y-102856372D01*
X129971302Y-103001362D01*
X130109145Y-103119508D01*
X130269143Y-103205298D01*
X130275707Y-103207156D01*
X130275711Y-103207157D01*
X130381514Y-103237096D01*
X130443831Y-103254730D01*
X130450642Y-103255135D01*
X130450644Y-103255135D01*
X130588120Y-103263302D01*
X130625058Y-103265497D01*
X130704773Y-103252871D01*
X130797636Y-103238163D01*
X130797640Y-103238162D01*
X130804370Y-103237096D01*
X130810716Y-103234609D01*
X130810720Y-103234608D01*
X130913690Y-103194254D01*
X130973400Y-103170854D01*
X131124263Y-103069860D01*
X131249919Y-102938827D01*
X131344507Y-102783867D01*
X131403613Y-102612212D01*
X131424480Y-102431868D01*
X131424500Y-102426000D01*
X131404893Y-102245515D01*
X131346987Y-102073451D01*
X131253483Y-101917834D01*
X131128745Y-101785927D01*
X131045265Y-101729194D01*
X130984234Y-101687718D01*
X130978591Y-101683883D01*
X130972261Y-101681351D01*
X130972257Y-101681349D01*
X130816364Y-101618996D01*
X130816359Y-101618995D01*
X130810027Y-101616462D01*
X130719872Y-101601537D01*
X130637656Y-101587926D01*
X130637652Y-101587926D01*
X130630918Y-101586811D01*
X130624101Y-101587168D01*
X130624097Y-101587168D01*
X130469357Y-101595278D01*
X130449620Y-101596312D01*
X130443047Y-101598123D01*
X130443044Y-101598123D01*
X130367266Y-101618996D01*
X130274591Y-101644523D01*
X130113998Y-101729194D01*
X130108785Y-101733599D01*
X130108781Y-101733602D01*
X130022420Y-101806584D01*
X129975334Y-101846375D01*
X129971190Y-101851794D01*
X129971189Y-101851796D01*
X129869212Y-101985175D01*
X129865066Y-101990598D01*
X129788341Y-102155136D01*
X129748738Y-102332310D01*
X129748104Y-102513856D01*
X109121000Y-102513856D01*
X109121000Y-99973856D01*
X129748104Y-99973856D01*
X129749547Y-99980529D01*
X129749547Y-99980531D01*
X129770766Y-100078669D01*
X129786470Y-100151303D01*
X129862044Y-100316372D01*
X129971302Y-100461362D01*
X130109145Y-100579508D01*
X130269143Y-100665298D01*
X130275707Y-100667156D01*
X130275711Y-100667157D01*
X130381514Y-100697096D01*
X130443831Y-100714730D01*
X130450642Y-100715135D01*
X130450644Y-100715135D01*
X130588120Y-100723302D01*
X130625058Y-100725497D01*
X130704773Y-100712871D01*
X130797636Y-100698163D01*
X130797640Y-100698162D01*
X130804370Y-100697096D01*
X130810716Y-100694609D01*
X130810720Y-100694608D01*
X130913690Y-100654254D01*
X130973400Y-100630854D01*
X131124263Y-100529860D01*
X131249919Y-100398827D01*
X131344507Y-100243867D01*
X131403613Y-100072212D01*
X131424480Y-99891868D01*
X131424500Y-99886000D01*
X131404893Y-99705515D01*
X131346987Y-99533451D01*
X131253483Y-99377834D01*
X131128745Y-99245927D01*
X131045265Y-99189194D01*
X130984234Y-99147718D01*
X130978591Y-99143883D01*
X130972261Y-99141351D01*
X130972257Y-99141349D01*
X130816364Y-99078996D01*
X130816359Y-99078995D01*
X130810027Y-99076462D01*
X130719872Y-99061537D01*
X130637656Y-99047926D01*
X130637652Y-99047926D01*
X130630918Y-99046811D01*
X130624101Y-99047168D01*
X130624097Y-99047168D01*
X130469357Y-99055278D01*
X130449620Y-99056312D01*
X130443047Y-99058123D01*
X130443044Y-99058123D01*
X130367266Y-99078996D01*
X130274591Y-99104523D01*
X130113998Y-99189194D01*
X130108785Y-99193599D01*
X130108781Y-99193602D01*
X130022420Y-99266584D01*
X129975334Y-99306375D01*
X129971190Y-99311794D01*
X129971189Y-99311796D01*
X129869212Y-99445175D01*
X129865066Y-99450598D01*
X129788341Y-99615136D01*
X129748738Y-99792310D01*
X129748104Y-99973856D01*
X109121000Y-99973856D01*
X109121000Y-97433856D01*
X109428104Y-97433856D01*
X109429547Y-97440529D01*
X109429547Y-97440531D01*
X109464058Y-97600146D01*
X109466470Y-97611303D01*
X109542044Y-97776372D01*
X109651302Y-97921362D01*
X109656481Y-97925801D01*
X109656482Y-97925802D01*
X109686465Y-97951500D01*
X109789145Y-98039508D01*
X109949143Y-98125298D01*
X109955707Y-98127156D01*
X109955711Y-98127157D01*
X110061514Y-98157096D01*
X110123831Y-98174730D01*
X110130642Y-98175135D01*
X110130644Y-98175135D01*
X110268120Y-98183302D01*
X110305058Y-98185497D01*
X110384773Y-98172871D01*
X110477636Y-98158163D01*
X110477640Y-98158162D01*
X110484370Y-98157096D01*
X110490716Y-98154609D01*
X110490720Y-98154608D01*
X110593690Y-98114254D01*
X110653400Y-98090854D01*
X110804263Y-97989860D01*
X110929919Y-97858827D01*
X111024507Y-97703867D01*
X111042778Y-97650805D01*
X111081390Y-97538669D01*
X111081391Y-97538666D01*
X111083613Y-97532212D01*
X111104480Y-97351868D01*
X111104500Y-97346000D01*
X111084893Y-97165515D01*
X111026987Y-96993451D01*
X110933483Y-96837834D01*
X110808745Y-96705927D01*
X110774871Y-96682906D01*
X110664234Y-96607718D01*
X110658591Y-96603883D01*
X110652261Y-96601351D01*
X110652257Y-96601349D01*
X110496364Y-96538996D01*
X110496359Y-96538995D01*
X110490027Y-96536462D01*
X110399872Y-96521537D01*
X110317656Y-96507926D01*
X110317652Y-96507926D01*
X110310918Y-96506811D01*
X110304101Y-96507168D01*
X110304097Y-96507168D01*
X110149357Y-96515278D01*
X110129620Y-96516312D01*
X110123047Y-96518123D01*
X110123044Y-96518123D01*
X110047266Y-96538996D01*
X109954591Y-96564523D01*
X109793998Y-96649194D01*
X109788785Y-96653599D01*
X109788781Y-96653602D01*
X109704854Y-96724527D01*
X109655334Y-96766375D01*
X109651190Y-96771794D01*
X109651189Y-96771796D01*
X109569416Y-96878750D01*
X109545066Y-96910598D01*
X109542183Y-96916781D01*
X109542181Y-96916784D01*
X109471221Y-97068959D01*
X109468341Y-97075136D01*
X109466855Y-97081784D01*
X109466854Y-97081787D01*
X109461992Y-97103538D01*
X109428738Y-97252310D01*
X109428104Y-97433856D01*
X109121000Y-97433856D01*
X109121000Y-94893856D01*
X109428104Y-94893856D01*
X109429547Y-94900529D01*
X109429547Y-94900531D01*
X109459802Y-95040462D01*
X109466470Y-95071303D01*
X109542044Y-95236372D01*
X109546148Y-95241818D01*
X109546149Y-95241820D01*
X109563805Y-95265250D01*
X109651302Y-95381362D01*
X109656481Y-95385801D01*
X109656482Y-95385802D01*
X109686214Y-95411285D01*
X109789145Y-95499508D01*
X109877822Y-95547056D01*
X109913714Y-95566301D01*
X109949143Y-95585298D01*
X109955707Y-95587156D01*
X109955711Y-95587157D01*
X110061514Y-95617096D01*
X110123831Y-95634730D01*
X110130642Y-95635135D01*
X110130644Y-95635135D01*
X110268120Y-95643302D01*
X110305058Y-95645497D01*
X110384773Y-95632871D01*
X110477636Y-95618163D01*
X110477640Y-95618162D01*
X110484370Y-95617096D01*
X110490716Y-95614609D01*
X110490720Y-95614608D01*
X110618490Y-95564535D01*
X110653400Y-95550854D01*
X110804263Y-95449860D01*
X110929919Y-95318827D01*
X111024507Y-95163867D01*
X111083613Y-94992212D01*
X111084862Y-94981423D01*
X111094993Y-94893856D01*
X111104480Y-94811868D01*
X111104500Y-94806000D01*
X111084893Y-94625515D01*
X111026987Y-94453451D01*
X110933483Y-94297834D01*
X110887540Y-94249250D01*
X110861742Y-94221970D01*
X110808745Y-94165927D01*
X110725265Y-94109194D01*
X110664234Y-94067718D01*
X110658591Y-94063883D01*
X110652261Y-94061351D01*
X110652257Y-94061349D01*
X110496364Y-93998996D01*
X110496359Y-93998995D01*
X110490027Y-93996462D01*
X110399872Y-93981537D01*
X110317656Y-93967926D01*
X110317652Y-93967926D01*
X110310918Y-93966811D01*
X110304101Y-93967168D01*
X110304097Y-93967168D01*
X110149357Y-93975278D01*
X110129620Y-93976312D01*
X110123047Y-93978123D01*
X110123044Y-93978123D01*
X110047266Y-93998996D01*
X109954591Y-94024523D01*
X109793998Y-94109194D01*
X109788785Y-94113599D01*
X109788781Y-94113602D01*
X109702420Y-94186584D01*
X109655334Y-94226375D01*
X109651190Y-94231794D01*
X109651189Y-94231796D01*
X109549212Y-94365175D01*
X109545066Y-94370598D01*
X109542183Y-94376781D01*
X109542181Y-94376784D01*
X109533554Y-94395285D01*
X109468341Y-94535136D01*
X109466855Y-94541784D01*
X109466854Y-94541787D01*
X109464571Y-94552000D01*
X109428738Y-94712310D01*
X109428104Y-94893856D01*
X109121000Y-94893856D01*
X109121000Y-92353856D01*
X109428104Y-92353856D01*
X109429547Y-92360529D01*
X109429547Y-92360531D01*
X109462641Y-92513593D01*
X109466470Y-92531303D01*
X109542044Y-92696372D01*
X109546148Y-92701818D01*
X109546149Y-92701820D01*
X109574363Y-92739261D01*
X109651302Y-92841362D01*
X109656481Y-92845801D01*
X109656482Y-92845802D01*
X109777945Y-92949908D01*
X109789145Y-92959508D01*
X109877822Y-93007056D01*
X109942187Y-93041568D01*
X109949143Y-93045298D01*
X109955707Y-93047156D01*
X109955711Y-93047157D01*
X110061514Y-93077096D01*
X110123831Y-93094730D01*
X110130642Y-93095135D01*
X110130644Y-93095135D01*
X110268120Y-93103302D01*
X110305058Y-93105497D01*
X110384773Y-93092871D01*
X110477636Y-93078163D01*
X110477640Y-93078162D01*
X110484370Y-93077096D01*
X110490716Y-93074609D01*
X110490720Y-93074608D01*
X110593690Y-93034254D01*
X110653400Y-93010854D01*
X110804263Y-92909860D01*
X110929919Y-92778827D01*
X110950594Y-92744957D01*
X111012023Y-92644319D01*
X111024507Y-92623867D01*
X111049401Y-92551570D01*
X111081390Y-92458669D01*
X111081391Y-92458666D01*
X111083613Y-92452212D01*
X111104480Y-92271868D01*
X111104500Y-92266000D01*
X111084893Y-92085515D01*
X111026987Y-91913451D01*
X110933483Y-91757834D01*
X110808745Y-91625927D01*
X110725265Y-91569194D01*
X110664234Y-91527718D01*
X110658591Y-91523883D01*
X110652261Y-91521351D01*
X110652257Y-91521349D01*
X110496364Y-91458996D01*
X110496359Y-91458995D01*
X110490027Y-91456462D01*
X110394719Y-91440684D01*
X110317656Y-91427926D01*
X110317652Y-91427926D01*
X110310918Y-91426811D01*
X110304101Y-91427168D01*
X110304097Y-91427168D01*
X110149357Y-91435278D01*
X110129620Y-91436312D01*
X110123047Y-91438123D01*
X110123044Y-91438123D01*
X110047266Y-91458996D01*
X109954591Y-91484523D01*
X109793998Y-91569194D01*
X109788785Y-91573599D01*
X109788781Y-91573602D01*
X109702420Y-91646584D01*
X109655334Y-91686375D01*
X109651190Y-91691794D01*
X109651189Y-91691796D01*
X109590198Y-91771568D01*
X109545066Y-91830598D01*
X109542183Y-91836781D01*
X109542181Y-91836784D01*
X109503414Y-91919921D01*
X109468341Y-91995136D01*
X109428738Y-92172310D01*
X109428104Y-92353856D01*
X109121000Y-92353856D01*
X109121000Y-89813856D01*
X109428104Y-89813856D01*
X109429547Y-89820529D01*
X109429547Y-89820531D01*
X109450766Y-89918669D01*
X109466470Y-89991303D01*
X109542044Y-90156372D01*
X109546148Y-90161818D01*
X109546149Y-90161820D01*
X109570803Y-90194537D01*
X109651302Y-90301362D01*
X109789145Y-90419508D01*
X109877822Y-90467056D01*
X109942187Y-90501568D01*
X109949143Y-90505298D01*
X109955707Y-90507156D01*
X109955711Y-90507157D01*
X110061514Y-90537096D01*
X110123831Y-90554730D01*
X110130642Y-90555135D01*
X110130644Y-90555135D01*
X110268120Y-90563302D01*
X110305058Y-90565497D01*
X110384773Y-90552871D01*
X110477636Y-90538163D01*
X110477640Y-90538162D01*
X110484370Y-90537096D01*
X110490716Y-90534609D01*
X110490720Y-90534608D01*
X110593690Y-90494254D01*
X110653400Y-90470854D01*
X110804263Y-90369860D01*
X110929919Y-90238827D01*
X110960046Y-90189472D01*
X111020947Y-90089699D01*
X111024507Y-90083867D01*
X111083613Y-89912212D01*
X111104480Y-89731868D01*
X111104500Y-89726000D01*
X111084893Y-89545515D01*
X111026987Y-89373451D01*
X110933483Y-89217834D01*
X110808745Y-89085927D01*
X110725265Y-89029194D01*
X110664234Y-88987718D01*
X110658591Y-88983883D01*
X110652261Y-88981351D01*
X110652257Y-88981349D01*
X110496364Y-88918996D01*
X110496359Y-88918995D01*
X110490027Y-88916462D01*
X110399872Y-88901537D01*
X110317656Y-88887926D01*
X110317652Y-88887926D01*
X110310918Y-88886811D01*
X110304101Y-88887168D01*
X110304097Y-88887168D01*
X110149357Y-88895278D01*
X110129620Y-88896312D01*
X110123047Y-88898123D01*
X110123044Y-88898123D01*
X110047266Y-88918996D01*
X109954591Y-88944523D01*
X109793998Y-89029194D01*
X109788785Y-89033599D01*
X109788781Y-89033602D01*
X109702420Y-89106584D01*
X109655334Y-89146375D01*
X109651190Y-89151794D01*
X109651189Y-89151796D01*
X109549212Y-89285175D01*
X109545066Y-89290598D01*
X109542183Y-89296781D01*
X109542181Y-89296784D01*
X109471221Y-89448959D01*
X109468341Y-89455136D01*
X109428738Y-89632310D01*
X109428104Y-89813856D01*
X109121000Y-89813856D01*
X109121000Y-87273856D01*
X109428104Y-87273856D01*
X109429547Y-87280529D01*
X109429547Y-87280531D01*
X109460175Y-87422187D01*
X109466470Y-87451303D01*
X109542044Y-87616372D01*
X109651302Y-87761362D01*
X109656481Y-87765801D01*
X109656482Y-87765802D01*
X109724207Y-87823849D01*
X109789145Y-87879508D01*
X109949143Y-87965298D01*
X109955707Y-87967156D01*
X109955711Y-87967157D01*
X110060404Y-87996782D01*
X110123831Y-88014730D01*
X110130642Y-88015135D01*
X110130644Y-88015135D01*
X110268120Y-88023302D01*
X110305058Y-88025497D01*
X110384773Y-88012871D01*
X110477636Y-87998163D01*
X110477640Y-87998162D01*
X110484370Y-87997096D01*
X110490716Y-87994609D01*
X110490720Y-87994608D01*
X110593690Y-87954254D01*
X110653400Y-87930854D01*
X110804263Y-87829860D01*
X110929919Y-87698827D01*
X110963156Y-87644377D01*
X111020947Y-87549699D01*
X111024507Y-87543867D01*
X111032843Y-87519659D01*
X111081390Y-87378669D01*
X111081391Y-87378666D01*
X111083613Y-87372212D01*
X111104480Y-87191868D01*
X111104500Y-87186000D01*
X111084893Y-87005515D01*
X111026987Y-86833451D01*
X110933483Y-86677834D01*
X110808745Y-86545927D01*
X110725265Y-86489194D01*
X110664234Y-86447718D01*
X110658591Y-86443883D01*
X110652261Y-86441351D01*
X110652257Y-86441349D01*
X110496364Y-86378996D01*
X110496359Y-86378995D01*
X110490027Y-86376462D01*
X110399872Y-86361537D01*
X110317656Y-86347926D01*
X110317652Y-86347926D01*
X110310918Y-86346811D01*
X110304101Y-86347168D01*
X110304097Y-86347168D01*
X110149357Y-86355278D01*
X110129620Y-86356312D01*
X110123047Y-86358123D01*
X110123044Y-86358123D01*
X110047266Y-86378996D01*
X109954591Y-86404523D01*
X109793998Y-86489194D01*
X109788785Y-86493599D01*
X109788781Y-86493602D01*
X109702420Y-86566584D01*
X109655334Y-86606375D01*
X109651190Y-86611794D01*
X109651189Y-86611796D01*
X109549335Y-86745014D01*
X109545066Y-86750598D01*
X109468341Y-86915136D01*
X109428738Y-87092310D01*
X109428104Y-87273856D01*
X109121000Y-87273856D01*
X109121000Y-84733856D01*
X109428104Y-84733856D01*
X109429547Y-84740529D01*
X109429547Y-84740531D01*
X109450766Y-84838669D01*
X109466470Y-84911303D01*
X109542044Y-85076372D01*
X109546148Y-85081818D01*
X109546149Y-85081820D01*
X109573106Y-85117593D01*
X109651302Y-85221362D01*
X109789145Y-85339508D01*
X109949143Y-85425298D01*
X109955707Y-85427156D01*
X109955711Y-85427157D01*
X110061514Y-85457096D01*
X110123831Y-85474730D01*
X110130642Y-85475135D01*
X110130644Y-85475135D01*
X110268120Y-85483302D01*
X110305058Y-85485497D01*
X110384773Y-85472871D01*
X110477636Y-85458163D01*
X110477640Y-85458162D01*
X110484370Y-85457096D01*
X110490716Y-85454609D01*
X110490720Y-85454608D01*
X110593690Y-85414254D01*
X110653400Y-85390854D01*
X110804263Y-85289860D01*
X110929919Y-85158827D01*
X110955089Y-85117593D01*
X111020947Y-85009699D01*
X111024507Y-85003867D01*
X111083613Y-84832212D01*
X111104480Y-84651868D01*
X111104500Y-84646000D01*
X111084893Y-84465515D01*
X111026987Y-84293451D01*
X110933483Y-84137834D01*
X110808745Y-84005927D01*
X110725265Y-83949194D01*
X110664234Y-83907718D01*
X110658591Y-83903883D01*
X110652261Y-83901351D01*
X110652257Y-83901349D01*
X110496364Y-83838996D01*
X110496359Y-83838995D01*
X110490027Y-83836462D01*
X110399872Y-83821537D01*
X110317656Y-83807926D01*
X110317652Y-83807926D01*
X110310918Y-83806811D01*
X110304101Y-83807168D01*
X110304097Y-83807168D01*
X110149357Y-83815278D01*
X110129620Y-83816312D01*
X110123047Y-83818123D01*
X110123044Y-83818123D01*
X110047266Y-83838996D01*
X109954591Y-83864523D01*
X109793998Y-83949194D01*
X109788785Y-83953599D01*
X109788781Y-83953602D01*
X109702420Y-84026584D01*
X109655334Y-84066375D01*
X109651190Y-84071794D01*
X109651189Y-84071796D01*
X109549212Y-84205175D01*
X109545066Y-84210598D01*
X109468341Y-84375136D01*
X109428738Y-84552310D01*
X109428714Y-84559131D01*
X109428714Y-84559133D01*
X109428686Y-84567211D01*
X109428104Y-84733856D01*
X109121000Y-84733856D01*
X109121000Y-82193856D01*
X109428104Y-82193856D01*
X109429547Y-82200529D01*
X109429547Y-82200531D01*
X109450766Y-82298669D01*
X109466470Y-82371303D01*
X109542044Y-82536372D01*
X109651302Y-82681362D01*
X109789145Y-82799508D01*
X109949143Y-82885298D01*
X109955707Y-82887156D01*
X109955711Y-82887157D01*
X110061514Y-82917096D01*
X110123831Y-82934730D01*
X110130642Y-82935135D01*
X110130644Y-82935135D01*
X110268120Y-82943302D01*
X110305058Y-82945497D01*
X110384773Y-82932871D01*
X110477636Y-82918163D01*
X110477640Y-82918162D01*
X110484370Y-82917096D01*
X110490716Y-82914609D01*
X110490720Y-82914608D01*
X110593690Y-82874254D01*
X110653400Y-82850854D01*
X110804263Y-82749860D01*
X110929919Y-82618827D01*
X111024507Y-82463867D01*
X111083613Y-82292212D01*
X111104480Y-82111868D01*
X111104500Y-82106000D01*
X111084893Y-81925515D01*
X111026987Y-81753451D01*
X110933483Y-81597834D01*
X110808745Y-81465927D01*
X110725265Y-81409194D01*
X110664234Y-81367718D01*
X110658591Y-81363883D01*
X110652261Y-81361351D01*
X110652257Y-81361349D01*
X110496364Y-81298996D01*
X110496359Y-81298995D01*
X110490027Y-81296462D01*
X110399872Y-81281537D01*
X110317656Y-81267926D01*
X110317652Y-81267926D01*
X110310918Y-81266811D01*
X110304101Y-81267168D01*
X110304097Y-81267168D01*
X110149357Y-81275278D01*
X110129620Y-81276312D01*
X110123047Y-81278123D01*
X110123044Y-81278123D01*
X110047266Y-81298996D01*
X109954591Y-81324523D01*
X109793998Y-81409194D01*
X109788785Y-81413599D01*
X109788781Y-81413602D01*
X109702420Y-81486584D01*
X109655334Y-81526375D01*
X109651190Y-81531794D01*
X109651189Y-81531796D01*
X109549212Y-81665175D01*
X109545066Y-81670598D01*
X109468341Y-81835136D01*
X109428738Y-82012310D01*
X109428104Y-82193856D01*
X109121000Y-82193856D01*
X109121000Y-79653856D01*
X109428104Y-79653856D01*
X109429547Y-79660529D01*
X109429547Y-79660531D01*
X109450766Y-79758669D01*
X109466470Y-79831303D01*
X109542044Y-79996372D01*
X109651302Y-80141362D01*
X109789145Y-80259508D01*
X109949143Y-80345298D01*
X109955707Y-80347156D01*
X109955711Y-80347157D01*
X110061514Y-80377096D01*
X110123831Y-80394730D01*
X110130642Y-80395135D01*
X110130644Y-80395135D01*
X110268120Y-80403302D01*
X110305058Y-80405497D01*
X110384773Y-80392871D01*
X110477636Y-80378163D01*
X110477640Y-80378162D01*
X110484370Y-80377096D01*
X110490716Y-80374609D01*
X110490720Y-80374608D01*
X110593690Y-80334254D01*
X110653400Y-80310854D01*
X110804263Y-80209860D01*
X110929919Y-80078827D01*
X111024507Y-79923867D01*
X111083613Y-79752212D01*
X111104480Y-79571868D01*
X111104500Y-79566000D01*
X111084893Y-79385515D01*
X111026987Y-79213451D01*
X110933483Y-79057834D01*
X110808745Y-78925927D01*
X110725265Y-78869194D01*
X110664234Y-78827718D01*
X110658591Y-78823883D01*
X110652261Y-78821351D01*
X110652257Y-78821349D01*
X110496364Y-78758996D01*
X110496359Y-78758995D01*
X110490027Y-78756462D01*
X110399872Y-78741537D01*
X110317656Y-78727926D01*
X110317652Y-78727926D01*
X110310918Y-78726811D01*
X110304101Y-78727168D01*
X110304097Y-78727168D01*
X110149357Y-78735278D01*
X110129620Y-78736312D01*
X110123047Y-78738123D01*
X110123044Y-78738123D01*
X110047266Y-78758996D01*
X109954591Y-78784523D01*
X109793998Y-78869194D01*
X109788785Y-78873599D01*
X109788781Y-78873602D01*
X109702420Y-78946584D01*
X109655334Y-78986375D01*
X109651190Y-78991794D01*
X109651189Y-78991796D01*
X109549212Y-79125175D01*
X109545066Y-79130598D01*
X109468341Y-79295136D01*
X109428738Y-79472310D01*
X109428104Y-79653856D01*
X109121000Y-79653856D01*
X109121000Y-77113856D01*
X109428104Y-77113856D01*
X109429547Y-77120529D01*
X109429547Y-77120531D01*
X109450766Y-77218669D01*
X109466470Y-77291303D01*
X109542044Y-77456372D01*
X109651302Y-77601362D01*
X109789145Y-77719508D01*
X109949143Y-77805298D01*
X109955707Y-77807156D01*
X109955711Y-77807157D01*
X110061514Y-77837096D01*
X110123831Y-77854730D01*
X110130642Y-77855135D01*
X110130644Y-77855135D01*
X110268120Y-77863302D01*
X110305058Y-77865497D01*
X110384773Y-77852871D01*
X110477636Y-77838163D01*
X110477640Y-77838162D01*
X110484370Y-77837096D01*
X110490716Y-77834609D01*
X110490720Y-77834608D01*
X110593690Y-77794254D01*
X110653400Y-77770854D01*
X110804263Y-77669860D01*
X110929919Y-77538827D01*
X111024507Y-77383867D01*
X111083613Y-77212212D01*
X111104480Y-77031868D01*
X111104500Y-77026000D01*
X111084893Y-76845515D01*
X111026987Y-76673451D01*
X110933483Y-76517834D01*
X110808745Y-76385927D01*
X110801815Y-76381217D01*
X110664234Y-76287718D01*
X110658591Y-76283883D01*
X110652261Y-76281351D01*
X110652257Y-76281349D01*
X110496364Y-76218996D01*
X110496359Y-76218995D01*
X110490027Y-76216462D01*
X110399872Y-76201537D01*
X110317656Y-76187926D01*
X110317652Y-76187926D01*
X110310918Y-76186811D01*
X110304101Y-76187168D01*
X110304097Y-76187168D01*
X110149357Y-76195278D01*
X110129620Y-76196312D01*
X110123047Y-76198123D01*
X110123044Y-76198123D01*
X110047266Y-76218996D01*
X109954591Y-76244523D01*
X109793998Y-76329194D01*
X109788785Y-76333599D01*
X109788781Y-76333602D01*
X109706037Y-76403527D01*
X109655334Y-76446375D01*
X109651190Y-76451794D01*
X109651189Y-76451796D01*
X109549212Y-76585175D01*
X109545066Y-76590598D01*
X109468341Y-76755136D01*
X109428738Y-76932310D01*
X109428104Y-77113856D01*
X109121000Y-77113856D01*
X109121000Y-74573856D01*
X109428104Y-74573856D01*
X109429547Y-74580529D01*
X109429547Y-74580531D01*
X109450766Y-74678669D01*
X109466470Y-74751303D01*
X109542044Y-74916372D01*
X109546148Y-74921818D01*
X109546149Y-74921820D01*
X109599789Y-74993002D01*
X109651302Y-75061362D01*
X109656481Y-75065801D01*
X109656482Y-75065802D01*
X109737315Y-75135084D01*
X109789145Y-75179508D01*
X109949143Y-75265298D01*
X109955707Y-75267156D01*
X109955711Y-75267157D01*
X110060404Y-75296782D01*
X110123831Y-75314730D01*
X110130642Y-75315135D01*
X110130644Y-75315135D01*
X110268120Y-75323302D01*
X110305058Y-75325497D01*
X110384773Y-75312871D01*
X110477636Y-75298163D01*
X110477640Y-75298162D01*
X110484370Y-75297096D01*
X110490716Y-75294609D01*
X110490720Y-75294608D01*
X110593690Y-75254254D01*
X110653400Y-75230854D01*
X110804263Y-75129860D01*
X110929919Y-74998827D01*
X110972237Y-74929500D01*
X111020947Y-74849699D01*
X111024507Y-74843867D01*
X111030991Y-74825037D01*
X111081390Y-74678669D01*
X111081391Y-74678666D01*
X111083613Y-74672212D01*
X111104480Y-74491868D01*
X111104500Y-74486000D01*
X111084893Y-74305515D01*
X111026987Y-74133451D01*
X110933483Y-73977834D01*
X110808745Y-73845927D01*
X110725265Y-73789194D01*
X110664234Y-73747718D01*
X110658591Y-73743883D01*
X110652261Y-73741351D01*
X110652257Y-73741349D01*
X110496364Y-73678996D01*
X110496359Y-73678995D01*
X110490027Y-73676462D01*
X110399872Y-73661537D01*
X110317656Y-73647926D01*
X110317652Y-73647926D01*
X110310918Y-73646811D01*
X110304101Y-73647168D01*
X110304097Y-73647168D01*
X110149357Y-73655278D01*
X110129620Y-73656312D01*
X110123047Y-73658123D01*
X110123044Y-73658123D01*
X110047266Y-73678996D01*
X109954591Y-73704523D01*
X109793998Y-73789194D01*
X109788785Y-73793599D01*
X109788781Y-73793602D01*
X109702420Y-73866584D01*
X109655334Y-73906375D01*
X109651190Y-73911794D01*
X109651189Y-73911796D01*
X109549212Y-74045175D01*
X109545066Y-74050598D01*
X109468341Y-74215136D01*
X109428738Y-74392310D01*
X109428104Y-74573856D01*
X109121000Y-74573856D01*
X109121000Y-69493856D01*
X109428104Y-69493856D01*
X109429547Y-69500529D01*
X109429547Y-69500531D01*
X109462489Y-69652890D01*
X109466470Y-69671303D01*
X109542044Y-69836372D01*
X109546148Y-69841818D01*
X109546149Y-69841820D01*
X109593023Y-69904023D01*
X109651302Y-69981362D01*
X109789145Y-70099508D01*
X109949143Y-70185298D01*
X109955707Y-70187156D01*
X109955711Y-70187157D01*
X110060404Y-70216782D01*
X110123831Y-70234730D01*
X110130642Y-70235135D01*
X110130644Y-70235135D01*
X110255943Y-70242579D01*
X110305058Y-70245497D01*
X110384773Y-70232871D01*
X110477636Y-70218163D01*
X110477640Y-70218162D01*
X110484370Y-70217096D01*
X110488810Y-70215356D01*
X110559007Y-70216782D01*
X110610155Y-70247837D01*
X111900115Y-71537796D01*
X111934140Y-71600108D01*
X111937020Y-71626891D01*
X111937020Y-72819148D01*
X111917018Y-72887269D01*
X111863362Y-72933762D01*
X111793088Y-72943866D01*
X111728508Y-72914372D01*
X111721925Y-72908243D01*
X111104011Y-72290329D01*
X111069985Y-72228017D01*
X111073972Y-72160211D01*
X111083613Y-72132212D01*
X111104480Y-71951868D01*
X111104500Y-71946000D01*
X111084893Y-71765515D01*
X111026987Y-71593451D01*
X110933483Y-71437834D01*
X110911640Y-71414735D01*
X110841609Y-71340680D01*
X110808745Y-71305927D01*
X110725265Y-71249194D01*
X110664234Y-71207718D01*
X110658591Y-71203883D01*
X110652261Y-71201351D01*
X110652257Y-71201349D01*
X110496364Y-71138996D01*
X110496359Y-71138995D01*
X110490027Y-71136462D01*
X110399872Y-71121537D01*
X110317656Y-71107926D01*
X110317652Y-71107926D01*
X110310918Y-71106811D01*
X110304101Y-71107168D01*
X110304097Y-71107168D01*
X110149357Y-71115278D01*
X110129620Y-71116312D01*
X110123047Y-71118123D01*
X110123044Y-71118123D01*
X110047266Y-71138996D01*
X109954591Y-71164523D01*
X109793998Y-71249194D01*
X109788785Y-71253599D01*
X109788781Y-71253602D01*
X109718235Y-71313219D01*
X109655334Y-71366375D01*
X109651190Y-71371794D01*
X109651189Y-71371796D01*
X109549212Y-71505175D01*
X109545066Y-71510598D01*
X109468341Y-71675136D01*
X109428738Y-71852310D01*
X109428714Y-71859131D01*
X109428714Y-71859133D01*
X109428634Y-71881948D01*
X109428104Y-72033856D01*
X109429547Y-72040529D01*
X109429547Y-72040531D01*
X109450766Y-72138669D01*
X109466470Y-72211303D01*
X109542044Y-72376372D01*
X109546148Y-72381818D01*
X109546149Y-72381820D01*
X109599789Y-72453002D01*
X109651302Y-72521362D01*
X109789145Y-72639508D01*
X109949143Y-72725298D01*
X109955707Y-72727156D01*
X109955711Y-72727157D01*
X110060401Y-72756781D01*
X110123831Y-72774730D01*
X110130642Y-72775135D01*
X110130644Y-72775135D01*
X110268120Y-72783302D01*
X110305058Y-72785497D01*
X110384773Y-72772871D01*
X110477630Y-72758164D01*
X110477634Y-72758163D01*
X110484370Y-72757096D01*
X110488810Y-72755356D01*
X110559004Y-72756781D01*
X110610154Y-72787836D01*
X111400595Y-73578276D01*
X111434620Y-73640589D01*
X111437500Y-73667372D01*
X111437500Y-92468453D01*
X111435251Y-92489590D01*
X111435087Y-92493074D01*
X111432895Y-92503254D01*
X111434119Y-92513593D01*
X111436627Y-92534785D01*
X111436915Y-92539672D01*
X111437072Y-92539659D01*
X111437500Y-92544839D01*
X111437500Y-92550039D01*
X111440245Y-92566531D01*
X111441073Y-92572348D01*
X111446616Y-92619182D01*
X111450278Y-92626808D01*
X111451667Y-92635153D01*
X111474058Y-92676651D01*
X111476735Y-92681904D01*
X111497148Y-92724414D01*
X111499340Y-92727022D01*
X111501279Y-92728961D01*
X111503105Y-92730952D01*
X111503008Y-92731041D01*
X111504032Y-92732203D01*
X111507100Y-92737888D01*
X111514747Y-92744957D01*
X111546389Y-92774207D01*
X111549954Y-92777636D01*
X116372464Y-97600146D01*
X116385816Y-97616678D01*
X116388167Y-97619262D01*
X116393817Y-97628012D01*
X116401995Y-97634459D01*
X116418757Y-97647673D01*
X116422417Y-97650926D01*
X116422519Y-97650805D01*
X116426476Y-97654158D01*
X116430156Y-97657838D01*
X116434388Y-97660862D01*
X116434389Y-97660863D01*
X116443735Y-97667542D01*
X116448481Y-97671105D01*
X116485493Y-97700283D01*
X116493474Y-97703086D01*
X116500358Y-97708005D01*
X116545571Y-97721526D01*
X116551145Y-97723338D01*
X116595635Y-97738962D01*
X116599029Y-97739256D01*
X116601739Y-97739256D01*
X116604470Y-97739374D01*
X116604464Y-97739504D01*
X116606008Y-97739601D01*
X116612200Y-97741453D01*
X116665649Y-97739353D01*
X116670596Y-97739256D01*
X117370283Y-97739256D01*
X117438404Y-97759258D01*
X117454163Y-97771958D01*
X117455847Y-97774153D01*
X117581250Y-97870378D01*
X117727285Y-97930868D01*
X117884000Y-97951500D01*
X117892188Y-97950422D01*
X118032527Y-97931946D01*
X118040715Y-97930868D01*
X118186750Y-97870378D01*
X118312153Y-97774153D01*
X118408378Y-97648750D01*
X118468868Y-97502715D01*
X118477933Y-97433856D01*
X129748104Y-97433856D01*
X129749547Y-97440529D01*
X129749547Y-97440531D01*
X129784058Y-97600146D01*
X129786470Y-97611303D01*
X129862044Y-97776372D01*
X129971302Y-97921362D01*
X129976481Y-97925801D01*
X129976482Y-97925802D01*
X130006465Y-97951500D01*
X130109145Y-98039508D01*
X130269143Y-98125298D01*
X130275707Y-98127156D01*
X130275711Y-98127157D01*
X130381514Y-98157096D01*
X130443831Y-98174730D01*
X130450642Y-98175135D01*
X130450644Y-98175135D01*
X130588120Y-98183302D01*
X130625058Y-98185497D01*
X130704773Y-98172871D01*
X130797636Y-98158163D01*
X130797640Y-98158162D01*
X130804370Y-98157096D01*
X130810716Y-98154609D01*
X130810720Y-98154608D01*
X130913690Y-98114254D01*
X130973400Y-98090854D01*
X131124263Y-97989860D01*
X131249919Y-97858827D01*
X131344507Y-97703867D01*
X131362778Y-97650805D01*
X131401390Y-97538669D01*
X131401391Y-97538666D01*
X131403613Y-97532212D01*
X131424480Y-97351868D01*
X131424500Y-97346000D01*
X131404893Y-97165515D01*
X131346987Y-96993451D01*
X131253483Y-96837834D01*
X131128745Y-96705927D01*
X131094871Y-96682906D01*
X130984234Y-96607718D01*
X130978591Y-96603883D01*
X130972261Y-96601351D01*
X130972257Y-96601349D01*
X130816364Y-96538996D01*
X130816359Y-96538995D01*
X130810027Y-96536462D01*
X130719872Y-96521537D01*
X130637656Y-96507926D01*
X130637652Y-96507926D01*
X130630918Y-96506811D01*
X130624101Y-96507168D01*
X130624097Y-96507168D01*
X130469357Y-96515278D01*
X130449620Y-96516312D01*
X130443047Y-96518123D01*
X130443044Y-96518123D01*
X130367266Y-96538996D01*
X130274591Y-96564523D01*
X130113998Y-96649194D01*
X130108785Y-96653599D01*
X130108781Y-96653602D01*
X130024854Y-96724527D01*
X129975334Y-96766375D01*
X129971190Y-96771794D01*
X129971189Y-96771796D01*
X129889416Y-96878750D01*
X129865066Y-96910598D01*
X129862183Y-96916781D01*
X129862181Y-96916784D01*
X129791221Y-97068959D01*
X129788341Y-97075136D01*
X129786855Y-97081784D01*
X129786854Y-97081787D01*
X129781992Y-97103538D01*
X129748738Y-97252310D01*
X129748104Y-97433856D01*
X118477933Y-97433856D01*
X118489500Y-97346000D01*
X118468868Y-97189285D01*
X118408378Y-97043250D01*
X118312153Y-96917847D01*
X118186750Y-96821622D01*
X118040715Y-96761132D01*
X117884000Y-96740500D01*
X117875812Y-96741578D01*
X117867554Y-96741578D01*
X117867554Y-96738947D01*
X117810340Y-96730029D01*
X117757237Y-96682906D01*
X117739110Y-96632488D01*
X117732752Y-96584188D01*
X117719368Y-96482530D01*
X117658878Y-96336495D01*
X117562653Y-96211092D01*
X117437250Y-96114867D01*
X117291215Y-96054377D01*
X117134500Y-96033745D01*
X116977785Y-96054377D01*
X116831750Y-96114867D01*
X116825199Y-96119894D01*
X116825195Y-96119896D01*
X116779782Y-96154742D01*
X116713562Y-96180342D01*
X116644013Y-96166077D01*
X116613984Y-96143874D01*
X116038110Y-95568000D01*
X118294500Y-95568000D01*
X118315132Y-95724715D01*
X118375622Y-95870750D01*
X118471847Y-95996153D01*
X118597250Y-96092378D01*
X118743285Y-96152868D01*
X118900000Y-96173500D01*
X118908188Y-96172422D01*
X119048527Y-96153946D01*
X119056715Y-96152868D01*
X119202750Y-96092378D01*
X119209303Y-96087350D01*
X119209306Y-96087348D01*
X119259732Y-96048655D01*
X119325952Y-96023054D01*
X119372051Y-96032509D01*
X119361787Y-95987891D01*
X119387601Y-95918679D01*
X119419351Y-95877301D01*
X119424378Y-95870750D01*
X119472419Y-95754770D01*
X119516966Y-95699490D01*
X119588827Y-95676989D01*
X120023139Y-95676989D01*
X120091260Y-95696991D01*
X120137753Y-95750647D01*
X120147857Y-95820921D01*
X120118363Y-95885501D01*
X120112234Y-95892084D01*
X120064979Y-95939339D01*
X120002667Y-95973365D01*
X119959440Y-95975166D01*
X119924000Y-95970500D01*
X119767285Y-95991132D01*
X119621250Y-96051622D01*
X119614697Y-96056650D01*
X119614694Y-96056652D01*
X119564268Y-96095345D01*
X119498048Y-96120946D01*
X119451949Y-96111491D01*
X119462213Y-96156109D01*
X119436399Y-96225321D01*
X119424872Y-96240344D01*
X119399622Y-96273250D01*
X119339132Y-96419285D01*
X119318500Y-96576000D01*
X119339132Y-96732715D01*
X119399622Y-96878750D01*
X119495847Y-97004153D01*
X119621250Y-97100378D01*
X119767285Y-97160868D01*
X119924000Y-97181500D01*
X119932188Y-97180422D01*
X120072527Y-97161946D01*
X120080715Y-97160868D01*
X120226750Y-97100378D01*
X120352153Y-97004153D01*
X120448378Y-96878750D01*
X120508868Y-96732715D01*
X120529500Y-96576000D01*
X120528422Y-96567812D01*
X120528422Y-96559553D01*
X120530037Y-96559553D01*
X120539507Y-96498805D01*
X120586632Y-96445703D01*
X120653493Y-96426500D01*
X121144125Y-96426500D01*
X121212246Y-96446502D01*
X121244088Y-96475796D01*
X121265847Y-96504153D01*
X121391250Y-96600378D01*
X121537285Y-96660868D01*
X121694000Y-96681500D01*
X121702188Y-96680422D01*
X121842527Y-96661946D01*
X121850715Y-96660868D01*
X121996750Y-96600378D01*
X122122153Y-96504153D01*
X122218378Y-96378750D01*
X122278868Y-96232715D01*
X122299500Y-96076000D01*
X122278868Y-95919285D01*
X122250669Y-95851207D01*
X122243080Y-95780618D01*
X122274859Y-95717131D01*
X122335917Y-95680903D01*
X122367078Y-95676989D01*
X126201964Y-95676989D01*
X126223101Y-95679238D01*
X126226585Y-95679402D01*
X126236765Y-95681594D01*
X126268296Y-95677862D01*
X126273183Y-95677574D01*
X126273170Y-95677417D01*
X126278350Y-95676989D01*
X126283550Y-95676989D01*
X126300042Y-95674244D01*
X126305859Y-95673416D01*
X126352693Y-95667873D01*
X126360319Y-95664211D01*
X126368664Y-95662822D01*
X126410162Y-95640431D01*
X126415415Y-95637754D01*
X126457925Y-95617341D01*
X126460533Y-95615149D01*
X126462472Y-95613210D01*
X126464463Y-95611384D01*
X126464552Y-95611481D01*
X126465714Y-95610457D01*
X126471399Y-95607389D01*
X126507718Y-95568100D01*
X126511147Y-95564535D01*
X128152277Y-93923405D01*
X128214589Y-93889379D01*
X128241372Y-93886500D01*
X130033346Y-93886500D01*
X130101467Y-93906502D01*
X130147960Y-93960158D01*
X130158064Y-94030432D01*
X130128570Y-94095012D01*
X130113385Y-94108469D01*
X130113998Y-94109194D01*
X129975334Y-94226375D01*
X129971190Y-94231794D01*
X129971189Y-94231796D01*
X129869212Y-94365175D01*
X129865066Y-94370598D01*
X129862183Y-94376781D01*
X129862181Y-94376784D01*
X129853554Y-94395285D01*
X129788341Y-94535136D01*
X129786855Y-94541784D01*
X129786854Y-94541787D01*
X129784571Y-94552000D01*
X129748738Y-94712310D01*
X129748104Y-94893856D01*
X129749547Y-94900529D01*
X129749547Y-94900531D01*
X129779802Y-95040462D01*
X129786470Y-95071303D01*
X129862044Y-95236372D01*
X129866148Y-95241818D01*
X129866149Y-95241820D01*
X129883805Y-95265250D01*
X129971302Y-95381362D01*
X129976481Y-95385801D01*
X129976482Y-95385802D01*
X130006214Y-95411285D01*
X130109145Y-95499508D01*
X130197822Y-95547056D01*
X130233714Y-95566301D01*
X130269143Y-95585298D01*
X130275707Y-95587156D01*
X130275711Y-95587157D01*
X130381514Y-95617096D01*
X130443831Y-95634730D01*
X130450642Y-95635135D01*
X130450644Y-95635135D01*
X130588120Y-95643302D01*
X130625058Y-95645497D01*
X130704773Y-95632871D01*
X130797636Y-95618163D01*
X130797640Y-95618162D01*
X130804370Y-95617096D01*
X130810716Y-95614609D01*
X130810720Y-95614608D01*
X130938490Y-95564535D01*
X130973400Y-95550854D01*
X131124263Y-95449860D01*
X131249919Y-95318827D01*
X131344507Y-95163867D01*
X131403613Y-94992212D01*
X131404862Y-94981423D01*
X131414993Y-94893856D01*
X131424480Y-94811868D01*
X131424500Y-94806000D01*
X131404893Y-94625515D01*
X131346987Y-94453451D01*
X131253483Y-94297834D01*
X131207540Y-94249250D01*
X131181742Y-94221970D01*
X131128745Y-94165927D01*
X131056327Y-94116712D01*
X131011228Y-94061880D01*
X131002934Y-93991369D01*
X131034076Y-93927568D01*
X131094769Y-93890732D01*
X131127149Y-93886500D01*
X131167453Y-93886500D01*
X131188590Y-93888749D01*
X131192074Y-93888913D01*
X131202254Y-93891105D01*
X131233785Y-93887373D01*
X131238672Y-93887085D01*
X131238659Y-93886928D01*
X131243839Y-93886500D01*
X131249039Y-93886500D01*
X131265531Y-93883755D01*
X131271348Y-93882927D01*
X131318182Y-93877384D01*
X131325808Y-93873722D01*
X131334153Y-93872333D01*
X131375651Y-93849942D01*
X131380904Y-93847265D01*
X131423414Y-93826852D01*
X131426022Y-93824660D01*
X131427961Y-93822721D01*
X131429952Y-93820895D01*
X131430041Y-93820992D01*
X131431203Y-93819968D01*
X131436888Y-93816900D01*
X131473207Y-93777611D01*
X131476636Y-93774046D01*
X132279421Y-92971261D01*
X132295953Y-92957909D01*
X132298537Y-92955558D01*
X132307287Y-92949908D01*
X132326948Y-92924968D01*
X132330201Y-92921308D01*
X132330080Y-92921206D01*
X132333433Y-92917249D01*
X132337113Y-92913569D01*
X132346095Y-92901000D01*
X132346817Y-92899990D01*
X132350383Y-92895240D01*
X132373112Y-92866409D01*
X132373113Y-92866408D01*
X132379558Y-92858232D01*
X132382361Y-92850251D01*
X132387280Y-92843367D01*
X132400789Y-92798194D01*
X132402625Y-92792546D01*
X132415610Y-92755570D01*
X132418237Y-92748090D01*
X132418531Y-92744696D01*
X132418531Y-92741986D01*
X132418649Y-92739255D01*
X132418779Y-92739261D01*
X132418876Y-92737713D01*
X132420727Y-92731525D01*
X132418628Y-92678089D01*
X132418531Y-92673143D01*
X132418531Y-76021583D01*
X132420781Y-76000444D01*
X132420945Y-75996958D01*
X132423137Y-75986778D01*
X132419405Y-75955249D01*
X132419116Y-75950359D01*
X132418959Y-75950372D01*
X132418531Y-75945196D01*
X132418531Y-75939992D01*
X132415786Y-75923500D01*
X132414961Y-75917706D01*
X132409415Y-75870850D01*
X132405753Y-75863224D01*
X132404364Y-75854878D01*
X132399420Y-75845715D01*
X132399418Y-75845709D01*
X132381977Y-75813385D01*
X132379282Y-75808097D01*
X132362313Y-75772760D01*
X132358883Y-75765617D01*
X132356691Y-75763009D01*
X132354752Y-75761070D01*
X132352926Y-75759079D01*
X132353023Y-75758990D01*
X132351999Y-75757828D01*
X132348931Y-75752143D01*
X132309642Y-75715824D01*
X132306077Y-75712395D01*
X131424011Y-74830329D01*
X131389985Y-74768017D01*
X131393972Y-74700211D01*
X131403613Y-74672212D01*
X131424480Y-74491868D01*
X131424500Y-74486000D01*
X131404893Y-74305515D01*
X131346987Y-74133451D01*
X131253483Y-73977834D01*
X131128745Y-73845927D01*
X131045265Y-73789194D01*
X130984234Y-73747718D01*
X130978591Y-73743883D01*
X130972261Y-73741351D01*
X130972257Y-73741349D01*
X130816364Y-73678996D01*
X130816359Y-73678995D01*
X130810027Y-73676462D01*
X130719872Y-73661537D01*
X130637656Y-73647926D01*
X130637652Y-73647926D01*
X130630918Y-73646811D01*
X130624101Y-73647168D01*
X130624097Y-73647168D01*
X130469357Y-73655278D01*
X130449620Y-73656312D01*
X130443047Y-73658123D01*
X130443044Y-73658123D01*
X130367266Y-73678996D01*
X130274591Y-73704523D01*
X130113998Y-73789194D01*
X130108785Y-73793599D01*
X130108781Y-73793602D01*
X130022420Y-73866584D01*
X129975334Y-73906375D01*
X129971190Y-73911794D01*
X129971189Y-73911796D01*
X129869212Y-74045175D01*
X129865066Y-74050598D01*
X129788341Y-74215136D01*
X129748738Y-74392310D01*
X129748104Y-74573856D01*
X129749547Y-74580529D01*
X129749547Y-74580531D01*
X129770766Y-74678669D01*
X129786470Y-74751303D01*
X129862044Y-74916372D01*
X129866148Y-74921818D01*
X129866149Y-74921820D01*
X129919789Y-74993002D01*
X129971302Y-75061362D01*
X129976481Y-75065801D01*
X129976482Y-75065802D01*
X130057315Y-75135084D01*
X130109145Y-75179508D01*
X130269143Y-75265298D01*
X130275707Y-75267156D01*
X130275711Y-75267157D01*
X130380404Y-75296782D01*
X130443831Y-75314730D01*
X130450642Y-75315135D01*
X130450644Y-75315135D01*
X130588120Y-75323302D01*
X130625058Y-75325497D01*
X130704773Y-75312871D01*
X130797636Y-75298163D01*
X130797640Y-75298162D01*
X130804370Y-75297096D01*
X130808810Y-75295356D01*
X130879007Y-75296782D01*
X130930155Y-75327837D01*
X131680626Y-76078308D01*
X131714652Y-76140620D01*
X131717531Y-76167403D01*
X131717531Y-87519659D01*
X131697529Y-87587780D01*
X131643873Y-87634273D01*
X131573599Y-87644377D01*
X131509019Y-87614883D01*
X131502436Y-87608754D01*
X131424011Y-87530329D01*
X131389985Y-87468017D01*
X131393972Y-87400211D01*
X131403613Y-87372212D01*
X131424480Y-87191868D01*
X131424500Y-87186000D01*
X131404893Y-87005515D01*
X131346987Y-86833451D01*
X131253483Y-86677834D01*
X131128745Y-86545927D01*
X131045265Y-86489194D01*
X130984234Y-86447718D01*
X130978591Y-86443883D01*
X130972261Y-86441351D01*
X130972257Y-86441349D01*
X130816364Y-86378996D01*
X130816359Y-86378995D01*
X130810027Y-86376462D01*
X130719872Y-86361537D01*
X130637656Y-86347926D01*
X130637652Y-86347926D01*
X130630918Y-86346811D01*
X130624101Y-86347168D01*
X130624097Y-86347168D01*
X130469357Y-86355278D01*
X130449620Y-86356312D01*
X130443047Y-86358123D01*
X130443044Y-86358123D01*
X130367266Y-86378996D01*
X130274591Y-86404523D01*
X130113998Y-86489194D01*
X130108785Y-86493599D01*
X130108781Y-86493602D01*
X130022420Y-86566584D01*
X129975334Y-86606375D01*
X129971190Y-86611794D01*
X129971189Y-86611796D01*
X129869335Y-86745014D01*
X129865066Y-86750598D01*
X129788341Y-86915136D01*
X129748738Y-87092310D01*
X129748104Y-87273856D01*
X129749547Y-87280529D01*
X129749547Y-87280531D01*
X129780175Y-87422187D01*
X129786470Y-87451303D01*
X129862044Y-87616372D01*
X129971302Y-87761362D01*
X129976481Y-87765801D01*
X129976482Y-87765802D01*
X130044207Y-87823849D01*
X130109145Y-87879508D01*
X130269143Y-87965298D01*
X130275707Y-87967156D01*
X130275711Y-87967157D01*
X130380404Y-87996782D01*
X130443831Y-88014730D01*
X130450642Y-88015135D01*
X130450644Y-88015135D01*
X130588120Y-88023302D01*
X130625058Y-88025497D01*
X130704773Y-88012871D01*
X130797636Y-87998163D01*
X130797640Y-87998162D01*
X130804370Y-87997096D01*
X130808810Y-87995356D01*
X130879007Y-87996782D01*
X130930155Y-88027837D01*
X131181106Y-88278788D01*
X131215132Y-88341100D01*
X131218011Y-88367883D01*
X131218011Y-88908620D01*
X131198009Y-88976741D01*
X131144353Y-89023234D01*
X131074079Y-89033338D01*
X131021191Y-89012834D01*
X130978591Y-88983883D01*
X130972261Y-88981351D01*
X130972257Y-88981349D01*
X130816364Y-88918996D01*
X130816359Y-88918995D01*
X130810027Y-88916462D01*
X130719872Y-88901537D01*
X130637656Y-88887926D01*
X130637652Y-88887926D01*
X130630918Y-88886811D01*
X130624101Y-88887168D01*
X130624097Y-88887168D01*
X130469357Y-88895278D01*
X130449620Y-88896312D01*
X130443047Y-88898123D01*
X130443044Y-88898123D01*
X130367266Y-88918996D01*
X130274591Y-88944523D01*
X130113998Y-89029194D01*
X130108785Y-89033599D01*
X130108781Y-89033602D01*
X130022420Y-89106584D01*
X129975334Y-89146375D01*
X129971190Y-89151794D01*
X129971189Y-89151796D01*
X129935002Y-89199127D01*
X129865066Y-89290598D01*
X129862180Y-89296787D01*
X129860920Y-89299489D01*
X129859714Y-89300859D01*
X129858648Y-89302619D01*
X129858333Y-89302428D01*
X129814005Y-89352776D01*
X129751277Y-89369334D01*
X129751462Y-89370895D01*
X129719931Y-89374627D01*
X129715044Y-89374915D01*
X129715057Y-89375072D01*
X129709877Y-89375500D01*
X129704677Y-89375500D01*
X129688185Y-89378245D01*
X129682368Y-89379073D01*
X129635534Y-89384616D01*
X129627908Y-89388278D01*
X129619563Y-89389667D01*
X129578065Y-89412058D01*
X129572812Y-89414735D01*
X129530302Y-89435148D01*
X129527694Y-89437340D01*
X129525755Y-89439279D01*
X129523764Y-89441105D01*
X129523675Y-89441008D01*
X129522513Y-89442032D01*
X129516828Y-89445100D01*
X129509759Y-89452747D01*
X129480509Y-89484389D01*
X129477080Y-89487954D01*
X126451439Y-92513595D01*
X126389127Y-92547621D01*
X126362344Y-92550500D01*
X125418875Y-92550500D01*
X125350754Y-92530498D01*
X125318912Y-92501204D01*
X125302176Y-92479393D01*
X125297153Y-92472847D01*
X125171750Y-92376622D01*
X125025715Y-92316132D01*
X124869000Y-92295500D01*
X124712285Y-92316132D01*
X124566250Y-92376622D01*
X124440847Y-92472847D01*
X124344622Y-92598250D01*
X124284132Y-92744285D01*
X124263500Y-92901000D01*
X124277920Y-93010526D01*
X124283239Y-93050931D01*
X124272300Y-93121079D01*
X124225172Y-93174178D01*
X124174764Y-93192299D01*
X124077285Y-93205132D01*
X123931250Y-93265622D01*
X123805847Y-93361847D01*
X123709622Y-93487250D01*
X123649132Y-93633285D01*
X123628500Y-93790000D01*
X123629578Y-93798188D01*
X123629578Y-93798190D01*
X123630794Y-93807427D01*
X123619854Y-93877576D01*
X123572726Y-93930674D01*
X123504371Y-93949863D01*
X123489427Y-93948794D01*
X123480190Y-93947578D01*
X123480188Y-93947578D01*
X123472000Y-93946500D01*
X123315285Y-93967132D01*
X123169250Y-94027622D01*
X123162699Y-94032649D01*
X123053146Y-94116712D01*
X123043847Y-94123847D01*
X122947622Y-94249250D01*
X122887132Y-94395285D01*
X122866500Y-94552000D01*
X122887132Y-94708715D01*
X122890291Y-94716342D01*
X122890292Y-94716345D01*
X122925677Y-94801771D01*
X122933266Y-94872361D01*
X122901487Y-94935848D01*
X122840429Y-94972075D01*
X122809268Y-94975989D01*
X119193058Y-94975989D01*
X119171921Y-94973740D01*
X119168437Y-94973576D01*
X119158257Y-94971384D01*
X119126726Y-94975116D01*
X119121839Y-94975404D01*
X119121852Y-94975561D01*
X119116675Y-94975989D01*
X119111472Y-94975989D01*
X119095004Y-94978730D01*
X119089142Y-94979564D01*
X119073431Y-94981423D01*
X119042179Y-94981218D01*
X118908188Y-94963578D01*
X118900000Y-94962500D01*
X118891812Y-94963578D01*
X118770387Y-94979564D01*
X118743285Y-94983132D01*
X118597250Y-95043622D01*
X118471847Y-95139847D01*
X118375622Y-95265250D01*
X118315132Y-95411285D01*
X118294500Y-95568000D01*
X116038110Y-95568000D01*
X112674925Y-92204815D01*
X112640899Y-92142503D01*
X112638020Y-92115720D01*
X112638020Y-84733856D01*
X129748104Y-84733856D01*
X129749547Y-84740529D01*
X129749547Y-84740531D01*
X129770766Y-84838669D01*
X129786470Y-84911303D01*
X129862044Y-85076372D01*
X129866148Y-85081818D01*
X129866149Y-85081820D01*
X129893106Y-85117593D01*
X129971302Y-85221362D01*
X130109145Y-85339508D01*
X130269143Y-85425298D01*
X130275707Y-85427156D01*
X130275711Y-85427157D01*
X130381514Y-85457096D01*
X130443831Y-85474730D01*
X130450642Y-85475135D01*
X130450644Y-85475135D01*
X130588120Y-85483302D01*
X130625058Y-85485497D01*
X130704773Y-85472871D01*
X130797636Y-85458163D01*
X130797640Y-85458162D01*
X130804370Y-85457096D01*
X130810716Y-85454609D01*
X130810720Y-85454608D01*
X130913690Y-85414254D01*
X130973400Y-85390854D01*
X131124263Y-85289860D01*
X131249919Y-85158827D01*
X131275089Y-85117593D01*
X131340947Y-85009699D01*
X131344507Y-85003867D01*
X131403613Y-84832212D01*
X131424480Y-84651868D01*
X131424500Y-84646000D01*
X131404893Y-84465515D01*
X131346987Y-84293451D01*
X131253483Y-84137834D01*
X131128745Y-84005927D01*
X131045265Y-83949194D01*
X130984234Y-83907718D01*
X130978591Y-83903883D01*
X130972261Y-83901351D01*
X130972257Y-83901349D01*
X130816364Y-83838996D01*
X130816359Y-83838995D01*
X130810027Y-83836462D01*
X130719872Y-83821537D01*
X130637656Y-83807926D01*
X130637652Y-83807926D01*
X130630918Y-83806811D01*
X130624101Y-83807168D01*
X130624097Y-83807168D01*
X130469357Y-83815278D01*
X130449620Y-83816312D01*
X130443047Y-83818123D01*
X130443044Y-83818123D01*
X130367266Y-83838996D01*
X130274591Y-83864523D01*
X130113998Y-83949194D01*
X130108785Y-83953599D01*
X130108781Y-83953602D01*
X130022420Y-84026584D01*
X129975334Y-84066375D01*
X129971190Y-84071794D01*
X129971189Y-84071796D01*
X129869212Y-84205175D01*
X129865066Y-84210598D01*
X129788341Y-84375136D01*
X129748738Y-84552310D01*
X129748714Y-84559131D01*
X129748714Y-84559133D01*
X129748686Y-84567211D01*
X129748104Y-84733856D01*
X112638020Y-84733856D01*
X112638020Y-82193856D01*
X129748104Y-82193856D01*
X129749547Y-82200529D01*
X129749547Y-82200531D01*
X129770766Y-82298669D01*
X129786470Y-82371303D01*
X129862044Y-82536372D01*
X129971302Y-82681362D01*
X130109145Y-82799508D01*
X130269143Y-82885298D01*
X130275707Y-82887156D01*
X130275711Y-82887157D01*
X130381514Y-82917096D01*
X130443831Y-82934730D01*
X130450642Y-82935135D01*
X130450644Y-82935135D01*
X130588120Y-82943302D01*
X130625058Y-82945497D01*
X130704773Y-82932871D01*
X130797636Y-82918163D01*
X130797640Y-82918162D01*
X130804370Y-82917096D01*
X130810716Y-82914609D01*
X130810720Y-82914608D01*
X130913690Y-82874254D01*
X130973400Y-82850854D01*
X131124263Y-82749860D01*
X131249919Y-82618827D01*
X131344507Y-82463867D01*
X131403613Y-82292212D01*
X131424480Y-82111868D01*
X131424500Y-82106000D01*
X131404893Y-81925515D01*
X131346987Y-81753451D01*
X131253483Y-81597834D01*
X131128745Y-81465927D01*
X131045265Y-81409194D01*
X130984234Y-81367718D01*
X130978591Y-81363883D01*
X130972261Y-81361351D01*
X130972257Y-81361349D01*
X130816364Y-81298996D01*
X130816359Y-81298995D01*
X130810027Y-81296462D01*
X130719872Y-81281537D01*
X130637656Y-81267926D01*
X130637652Y-81267926D01*
X130630918Y-81266811D01*
X130624101Y-81267168D01*
X130624097Y-81267168D01*
X130469357Y-81275278D01*
X130449620Y-81276312D01*
X130443047Y-81278123D01*
X130443044Y-81278123D01*
X130367266Y-81298996D01*
X130274591Y-81324523D01*
X130113998Y-81409194D01*
X130108785Y-81413599D01*
X130108781Y-81413602D01*
X130022420Y-81486584D01*
X129975334Y-81526375D01*
X129971190Y-81531794D01*
X129971189Y-81531796D01*
X129869212Y-81665175D01*
X129865066Y-81670598D01*
X129788341Y-81835136D01*
X129748738Y-82012310D01*
X129748104Y-82193856D01*
X112638020Y-82193856D01*
X112638020Y-79653856D01*
X129748104Y-79653856D01*
X129749547Y-79660529D01*
X129749547Y-79660531D01*
X129770766Y-79758669D01*
X129786470Y-79831303D01*
X129862044Y-79996372D01*
X129971302Y-80141362D01*
X130109145Y-80259508D01*
X130269143Y-80345298D01*
X130275707Y-80347156D01*
X130275711Y-80347157D01*
X130381514Y-80377096D01*
X130443831Y-80394730D01*
X130450642Y-80395135D01*
X130450644Y-80395135D01*
X130588120Y-80403302D01*
X130625058Y-80405497D01*
X130704773Y-80392871D01*
X130797636Y-80378163D01*
X130797640Y-80378162D01*
X130804370Y-80377096D01*
X130810716Y-80374609D01*
X130810720Y-80374608D01*
X130913690Y-80334254D01*
X130973400Y-80310854D01*
X131124263Y-80209860D01*
X131249919Y-80078827D01*
X131344507Y-79923867D01*
X131403613Y-79752212D01*
X131424480Y-79571868D01*
X131424500Y-79566000D01*
X131404893Y-79385515D01*
X131346987Y-79213451D01*
X131253483Y-79057834D01*
X131128745Y-78925927D01*
X131045265Y-78869194D01*
X130984234Y-78827718D01*
X130978591Y-78823883D01*
X130972261Y-78821351D01*
X130972257Y-78821349D01*
X130816364Y-78758996D01*
X130816359Y-78758995D01*
X130810027Y-78756462D01*
X130719872Y-78741537D01*
X130637656Y-78727926D01*
X130637652Y-78727926D01*
X130630918Y-78726811D01*
X130624101Y-78727168D01*
X130624097Y-78727168D01*
X130469357Y-78735278D01*
X130449620Y-78736312D01*
X130443047Y-78738123D01*
X130443044Y-78738123D01*
X130367266Y-78758996D01*
X130274591Y-78784523D01*
X130113998Y-78869194D01*
X130108785Y-78873599D01*
X130108781Y-78873602D01*
X130022420Y-78946584D01*
X129975334Y-78986375D01*
X129971190Y-78991794D01*
X129971189Y-78991796D01*
X129869212Y-79125175D01*
X129865066Y-79130598D01*
X129788341Y-79295136D01*
X129748738Y-79472310D01*
X129748104Y-79653856D01*
X112638020Y-79653856D01*
X112638020Y-77113856D01*
X129748104Y-77113856D01*
X129749547Y-77120529D01*
X129749547Y-77120531D01*
X129770766Y-77218669D01*
X129786470Y-77291303D01*
X129862044Y-77456372D01*
X129971302Y-77601362D01*
X130109145Y-77719508D01*
X130269143Y-77805298D01*
X130275707Y-77807156D01*
X130275711Y-77807157D01*
X130381514Y-77837096D01*
X130443831Y-77854730D01*
X130450642Y-77855135D01*
X130450644Y-77855135D01*
X130588120Y-77863302D01*
X130625058Y-77865497D01*
X130704773Y-77852871D01*
X130797636Y-77838163D01*
X130797640Y-77838162D01*
X130804370Y-77837096D01*
X130810716Y-77834609D01*
X130810720Y-77834608D01*
X130913690Y-77794254D01*
X130973400Y-77770854D01*
X131124263Y-77669860D01*
X131249919Y-77538827D01*
X131344507Y-77383867D01*
X131403613Y-77212212D01*
X131424480Y-77031868D01*
X131424500Y-77026000D01*
X131404893Y-76845515D01*
X131346987Y-76673451D01*
X131253483Y-76517834D01*
X131128745Y-76385927D01*
X131121815Y-76381217D01*
X130984234Y-76287718D01*
X130978591Y-76283883D01*
X130972261Y-76281351D01*
X130972257Y-76281349D01*
X130816364Y-76218996D01*
X130816359Y-76218995D01*
X130810027Y-76216462D01*
X130719872Y-76201537D01*
X130637656Y-76187926D01*
X130637652Y-76187926D01*
X130630918Y-76186811D01*
X130624101Y-76187168D01*
X130624097Y-76187168D01*
X130469357Y-76195278D01*
X130449620Y-76196312D01*
X130443047Y-76198123D01*
X130443044Y-76198123D01*
X130367266Y-76218996D01*
X130274591Y-76244523D01*
X130113998Y-76329194D01*
X130108785Y-76333599D01*
X130108781Y-76333602D01*
X130026037Y-76403527D01*
X129975334Y-76446375D01*
X129971190Y-76451794D01*
X129971189Y-76451796D01*
X129869212Y-76585175D01*
X129865066Y-76590598D01*
X129788341Y-76755136D01*
X129748738Y-76932310D01*
X129748104Y-77113856D01*
X112638020Y-77113856D01*
X112638020Y-75837088D01*
X119088176Y-75837088D01*
X119089948Y-75844467D01*
X119089948Y-75844471D01*
X119121630Y-75976436D01*
X119127748Y-76001918D01*
X119205495Y-76152550D01*
X119210487Y-76158272D01*
X119210488Y-76158274D01*
X119260277Y-76215348D01*
X119316928Y-76280289D01*
X119330041Y-76289505D01*
X119449398Y-76373391D01*
X119449400Y-76373392D01*
X119455615Y-76377760D01*
X119613549Y-76439335D01*
X119743930Y-76456500D01*
X123889966Y-76456500D01*
X123898536Y-76456792D01*
X123953423Y-76460534D01*
X123960900Y-76459229D01*
X123960903Y-76459229D01*
X124015629Y-76449678D01*
X124022152Y-76448715D01*
X124077242Y-76442048D01*
X124077243Y-76442048D01*
X124084785Y-76441135D01*
X124091892Y-76438449D01*
X124095268Y-76437620D01*
X124109622Y-76433694D01*
X124112928Y-76432696D01*
X124120412Y-76431390D01*
X124127367Y-76428337D01*
X124127370Y-76428336D01*
X124178206Y-76406020D01*
X124184314Y-76403527D01*
X124236253Y-76383901D01*
X124236256Y-76383900D01*
X124243355Y-76381217D01*
X124249609Y-76376919D01*
X124252606Y-76375352D01*
X124265721Y-76368052D01*
X124268672Y-76366307D01*
X124275628Y-76363253D01*
X124325720Y-76324817D01*
X124331029Y-76320960D01*
X124376797Y-76289505D01*
X124376798Y-76289504D01*
X124383056Y-76285203D01*
X124422344Y-76241107D01*
X124427326Y-76235831D01*
X124710567Y-75952590D01*
X124716833Y-75946736D01*
X124752562Y-75915568D01*
X124758289Y-75910572D01*
X124794587Y-75858926D01*
X124798515Y-75853637D01*
X124832775Y-75809942D01*
X124832775Y-75809941D01*
X124837459Y-75803968D01*
X124840582Y-75797052D01*
X124842348Y-75794136D01*
X124849794Y-75781082D01*
X124851395Y-75778097D01*
X124855760Y-75771885D01*
X124878686Y-75713082D01*
X124881243Y-75706999D01*
X124904092Y-75656396D01*
X124904093Y-75656392D01*
X124907217Y-75649474D01*
X124908601Y-75642008D01*
X124909620Y-75638755D01*
X124913714Y-75624385D01*
X124914576Y-75621026D01*
X124917335Y-75613951D01*
X124925574Y-75551374D01*
X124926605Y-75544865D01*
X124936724Y-75490266D01*
X124938108Y-75482798D01*
X124934709Y-75423849D01*
X124934500Y-75416597D01*
X124934500Y-72539683D01*
X124919135Y-72412715D01*
X124916427Y-72405549D01*
X124861902Y-72261250D01*
X124861901Y-72261248D01*
X124859217Y-72254145D01*
X124854918Y-72247890D01*
X124854916Y-72247886D01*
X124767505Y-72120703D01*
X124767504Y-72120701D01*
X124763203Y-72114444D01*
X124672753Y-72033856D01*
X129748104Y-72033856D01*
X129749547Y-72040529D01*
X129749547Y-72040531D01*
X129770766Y-72138669D01*
X129786470Y-72211303D01*
X129862044Y-72376372D01*
X129866148Y-72381818D01*
X129866149Y-72381820D01*
X129919789Y-72453002D01*
X129971302Y-72521362D01*
X130109145Y-72639508D01*
X130269143Y-72725298D01*
X130275707Y-72727156D01*
X130275711Y-72727157D01*
X130380401Y-72756781D01*
X130443831Y-72774730D01*
X130450642Y-72775135D01*
X130450644Y-72775135D01*
X130588120Y-72783302D01*
X130625058Y-72785497D01*
X130704773Y-72772871D01*
X130797636Y-72758163D01*
X130797640Y-72758162D01*
X130804370Y-72757096D01*
X130810716Y-72754609D01*
X130810720Y-72754608D01*
X130913690Y-72714254D01*
X130973400Y-72690854D01*
X131124263Y-72589860D01*
X131249919Y-72458827D01*
X131277845Y-72413078D01*
X131340947Y-72309699D01*
X131344507Y-72303867D01*
X131366017Y-72241398D01*
X131401390Y-72138669D01*
X131401391Y-72138666D01*
X131403613Y-72132212D01*
X131424480Y-71951868D01*
X131424500Y-71946000D01*
X131404893Y-71765515D01*
X131346987Y-71593451D01*
X131253483Y-71437834D01*
X131231640Y-71414735D01*
X131161609Y-71340680D01*
X131128745Y-71305927D01*
X131045265Y-71249194D01*
X130984234Y-71207718D01*
X130978591Y-71203883D01*
X130972261Y-71201351D01*
X130972257Y-71201349D01*
X130816364Y-71138996D01*
X130816359Y-71138995D01*
X130810027Y-71136462D01*
X130719872Y-71121537D01*
X130637656Y-71107926D01*
X130637652Y-71107926D01*
X130630918Y-71106811D01*
X130624101Y-71107168D01*
X130624097Y-71107168D01*
X130469357Y-71115278D01*
X130449620Y-71116312D01*
X130443047Y-71118123D01*
X130443044Y-71118123D01*
X130367266Y-71138996D01*
X130274591Y-71164523D01*
X130113998Y-71249194D01*
X130108785Y-71253599D01*
X130108781Y-71253602D01*
X130038235Y-71313219D01*
X129975334Y-71366375D01*
X129971190Y-71371794D01*
X129971189Y-71371796D01*
X129869212Y-71505175D01*
X129865066Y-71510598D01*
X129788341Y-71675136D01*
X129748738Y-71852310D01*
X129748714Y-71859131D01*
X129748714Y-71859133D01*
X129748634Y-71881948D01*
X129748104Y-72033856D01*
X124672753Y-72033856D01*
X124636638Y-72001679D01*
X124486829Y-71922359D01*
X124322423Y-71881063D01*
X124314825Y-71881023D01*
X124314823Y-71881023D01*
X124241792Y-71880641D01*
X124152912Y-71880176D01*
X124145533Y-71881948D01*
X124145529Y-71881948D01*
X123995461Y-71917976D01*
X123995457Y-71917977D01*
X123988082Y-71919748D01*
X123837450Y-71997495D01*
X123831728Y-72002487D01*
X123831726Y-72002488D01*
X123759435Y-72065551D01*
X123709711Y-72108928D01*
X123698114Y-72125429D01*
X123621348Y-72234656D01*
X123612240Y-72247615D01*
X123550665Y-72405549D01*
X123533500Y-72535930D01*
X123533500Y-74929500D01*
X123513498Y-74997621D01*
X123459842Y-75044114D01*
X123407500Y-75055500D01*
X119747683Y-75055500D01*
X119666271Y-75065352D01*
X119628258Y-75069952D01*
X119628257Y-75069952D01*
X119620715Y-75070865D01*
X119613610Y-75073550D01*
X119613609Y-75073550D01*
X119469250Y-75128098D01*
X119469248Y-75128099D01*
X119462145Y-75130783D01*
X119455890Y-75135082D01*
X119455886Y-75135084D01*
X119386554Y-75182735D01*
X119322444Y-75226797D01*
X119209679Y-75353362D01*
X119130359Y-75503171D01*
X119089063Y-75667577D01*
X119089023Y-75675175D01*
X119089023Y-75675177D01*
X119088657Y-75745074D01*
X119088176Y-75837088D01*
X112638020Y-75837088D01*
X112638020Y-71481068D01*
X112640269Y-71459932D01*
X112640433Y-71456445D01*
X112642625Y-71446266D01*
X112638893Y-71414735D01*
X112638605Y-71409848D01*
X112638448Y-71409861D01*
X112638020Y-71404681D01*
X112638020Y-71399481D01*
X112635275Y-71382989D01*
X112634445Y-71377156D01*
X112630128Y-71340680D01*
X112628904Y-71330338D01*
X112625242Y-71322712D01*
X112623853Y-71314367D01*
X112601462Y-71272869D01*
X112598781Y-71267607D01*
X112581802Y-71232249D01*
X112578372Y-71225106D01*
X112576180Y-71222498D01*
X112574241Y-71220559D01*
X112572415Y-71218568D01*
X112572512Y-71218479D01*
X112571488Y-71217317D01*
X112568420Y-71211632D01*
X112529131Y-71175313D01*
X112525566Y-71171884D01*
X111104011Y-69750329D01*
X111069985Y-69688017D01*
X111073972Y-69620211D01*
X111083613Y-69592212D01*
X111104480Y-69411868D01*
X111104500Y-69406000D01*
X111084893Y-69225515D01*
X111026987Y-69053451D01*
X110933483Y-68897834D01*
X110923368Y-68887137D01*
X110920015Y-68883591D01*
X119392101Y-68883591D01*
X119392399Y-68887137D01*
X119408954Y-69084296D01*
X119436713Y-69181101D01*
X119449110Y-69224334D01*
X119464471Y-69277905D01*
X119485659Y-69319133D01*
X119530303Y-69406000D01*
X119556535Y-69457043D01*
X119560358Y-69461867D01*
X119560361Y-69461871D01*
X119645788Y-69569652D01*
X119681641Y-69614887D01*
X119686334Y-69618881D01*
X119686335Y-69618882D01*
X119767569Y-69688017D01*
X119835024Y-69745426D01*
X119840402Y-69748432D01*
X119840404Y-69748433D01*
X119951832Y-69810708D01*
X120010840Y-69843686D01*
X120016699Y-69845590D01*
X120016702Y-69845591D01*
X120052988Y-69857381D01*
X120202393Y-69905926D01*
X120208503Y-69906655D01*
X120208505Y-69906655D01*
X120276770Y-69914795D01*
X120402387Y-69929774D01*
X120408522Y-69929302D01*
X120408524Y-69929302D01*
X120597063Y-69914795D01*
X120597067Y-69914794D01*
X120603205Y-69914322D01*
X120797197Y-69860158D01*
X120976973Y-69769346D01*
X121003741Y-69748433D01*
X121130831Y-69649139D01*
X121135687Y-69645345D01*
X121266450Y-69493856D01*
X129748104Y-69493856D01*
X129749547Y-69500529D01*
X129749547Y-69500531D01*
X129782489Y-69652890D01*
X129786470Y-69671303D01*
X129862044Y-69836372D01*
X129866148Y-69841818D01*
X129866149Y-69841820D01*
X129913023Y-69904023D01*
X129971302Y-69981362D01*
X130109145Y-70099508D01*
X130269143Y-70185298D01*
X130275707Y-70187156D01*
X130275711Y-70187157D01*
X130380404Y-70216782D01*
X130443831Y-70234730D01*
X130450642Y-70235135D01*
X130450644Y-70235135D01*
X130575943Y-70242579D01*
X130625058Y-70245497D01*
X130700926Y-70233480D01*
X130771335Y-70242579D01*
X130809731Y-70268834D01*
X133906595Y-73365698D01*
X133940621Y-73428010D01*
X133943500Y-73454793D01*
X133943500Y-83084500D01*
X133923498Y-83152621D01*
X133869842Y-83199114D01*
X133817500Y-83210500D01*
X133644000Y-83210500D01*
X133619169Y-83215439D01*
X133577528Y-83223722D01*
X133577526Y-83223723D01*
X133565359Y-83226143D01*
X133555044Y-83233035D01*
X133555042Y-83233036D01*
X133509006Y-83263797D01*
X133498690Y-83270690D01*
X133491797Y-83281006D01*
X133461036Y-83327042D01*
X133461035Y-83327044D01*
X133454143Y-83337359D01*
X133438500Y-83416000D01*
X133438500Y-84416000D01*
X133442491Y-84456302D01*
X133453363Y-84482472D01*
X133468491Y-84518887D01*
X133468493Y-84518889D01*
X133473253Y-84530348D01*
X133482036Y-84539113D01*
X133482037Y-84539114D01*
X133510193Y-84567211D01*
X133530009Y-84586986D01*
X134280009Y-85086986D01*
X134353698Y-85117509D01*
X134366074Y-85117522D01*
X134419661Y-85117578D01*
X134433880Y-85117593D01*
X134507991Y-85086986D01*
X135257991Y-84586986D01*
X135289310Y-84561310D01*
X135311873Y-84527543D01*
X135326964Y-84504958D01*
X135326965Y-84504956D01*
X135333857Y-84494641D01*
X135349500Y-84416000D01*
X135349500Y-83416000D01*
X135333857Y-83337359D01*
X135326965Y-83327044D01*
X135326964Y-83327042D01*
X135296203Y-83281006D01*
X135289310Y-83270690D01*
X135278994Y-83263797D01*
X135232958Y-83233036D01*
X135232956Y-83233035D01*
X135222641Y-83226143D01*
X135210474Y-83223723D01*
X135210472Y-83223722D01*
X135168831Y-83215439D01*
X135144000Y-83210500D01*
X134970500Y-83210500D01*
X134902379Y-83190498D01*
X134855886Y-83136842D01*
X134844500Y-83084500D01*
X134844500Y-73249471D01*
X134845373Y-73234662D01*
X134848168Y-73211046D01*
X134849275Y-73201693D01*
X134838737Y-73143992D01*
X134838087Y-73140087D01*
X134830764Y-73091380D01*
X134829364Y-73082065D01*
X134826239Y-73075557D01*
X134824942Y-73068455D01*
X134797887Y-73016371D01*
X134796118Y-73012831D01*
X134774813Y-72968464D01*
X134770735Y-72959971D01*
X134765857Y-72954694D01*
X134765819Y-72954637D01*
X134762508Y-72948264D01*
X134757475Y-72942372D01*
X134719455Y-72904352D01*
X134716025Y-72900786D01*
X134685193Y-72867432D01*
X134678798Y-72860514D01*
X134672629Y-72856931D01*
X134666917Y-72851814D01*
X131447068Y-69631964D01*
X131413042Y-69569652D01*
X131410998Y-69528387D01*
X131414567Y-69497544D01*
X131424480Y-69411868D01*
X131424500Y-69406000D01*
X131404893Y-69225515D01*
X131346987Y-69053451D01*
X131253483Y-68897834D01*
X131243368Y-68887137D01*
X131240015Y-68883591D01*
X140982101Y-68883591D01*
X140982399Y-68887137D01*
X140998954Y-69084296D01*
X141026713Y-69181101D01*
X141039110Y-69224334D01*
X141054471Y-69277905D01*
X141075659Y-69319133D01*
X141120303Y-69406000D01*
X141146535Y-69457043D01*
X141150358Y-69461867D01*
X141150361Y-69461871D01*
X141235788Y-69569652D01*
X141271641Y-69614887D01*
X141276334Y-69618881D01*
X141276335Y-69618882D01*
X141357569Y-69688017D01*
X141425024Y-69745426D01*
X141430402Y-69748432D01*
X141430404Y-69748433D01*
X141541832Y-69810708D01*
X141600840Y-69843686D01*
X141606699Y-69845590D01*
X141606702Y-69845591D01*
X141642988Y-69857381D01*
X141792393Y-69905926D01*
X141798503Y-69906655D01*
X141798505Y-69906655D01*
X141866770Y-69914795D01*
X141992387Y-69929774D01*
X141998522Y-69929302D01*
X141998524Y-69929302D01*
X142187063Y-69914795D01*
X142187067Y-69914794D01*
X142193205Y-69914322D01*
X142387197Y-69860158D01*
X142566973Y-69769346D01*
X142593741Y-69748433D01*
X142720831Y-69649139D01*
X142725687Y-69645345D01*
X142857294Y-69492878D01*
X142860337Y-69487521D01*
X142860340Y-69487517D01*
X142925568Y-69372693D01*
X142956779Y-69317752D01*
X142960804Y-69305654D01*
X142989613Y-69219048D01*
X143020354Y-69126638D01*
X143026479Y-69078157D01*
X143045156Y-68930318D01*
X143045157Y-68930308D01*
X143045598Y-68926815D01*
X143046000Y-68898000D01*
X143026346Y-68697550D01*
X142968132Y-68504735D01*
X142873575Y-68326900D01*
X142769049Y-68198738D01*
X142750172Y-68175592D01*
X142750169Y-68175589D01*
X142746277Y-68170817D01*
X142741528Y-68166888D01*
X142595837Y-68046362D01*
X142595834Y-68046360D01*
X142591087Y-68042433D01*
X142413916Y-67946637D01*
X142290024Y-67908286D01*
X142227399Y-67888900D01*
X142227396Y-67888899D01*
X142221512Y-67887078D01*
X142215387Y-67886434D01*
X142215386Y-67886434D01*
X142027333Y-67866669D01*
X142027332Y-67866669D01*
X142021205Y-67866025D01*
X141938336Y-67873567D01*
X141826761Y-67883721D01*
X141826758Y-67883722D01*
X141820622Y-67884280D01*
X141814716Y-67886018D01*
X141814712Y-67886019D01*
X141734115Y-67909740D01*
X141627406Y-67941146D01*
X141448915Y-68034459D01*
X141291947Y-68160664D01*
X141162483Y-68314954D01*
X141159519Y-68320346D01*
X141159516Y-68320350D01*
X141112275Y-68406281D01*
X141065452Y-68491452D01*
X141004552Y-68683435D01*
X141003866Y-68689552D01*
X141003865Y-68689556D01*
X140982788Y-68877464D01*
X140982101Y-68883591D01*
X131240015Y-68883591D01*
X131133436Y-68770888D01*
X131128745Y-68765927D01*
X131045265Y-68709194D01*
X130984234Y-68667718D01*
X130978591Y-68663883D01*
X130972261Y-68661351D01*
X130972257Y-68661349D01*
X130816364Y-68598996D01*
X130816359Y-68598995D01*
X130810027Y-68596462D01*
X130719872Y-68581537D01*
X130637656Y-68567926D01*
X130637652Y-68567926D01*
X130630918Y-68566811D01*
X130624101Y-68567168D01*
X130624097Y-68567168D01*
X130469357Y-68575278D01*
X130449620Y-68576312D01*
X130443047Y-68578123D01*
X130443044Y-68578123D01*
X130367266Y-68598996D01*
X130274591Y-68624523D01*
X130113998Y-68709194D01*
X130108785Y-68713599D01*
X130108781Y-68713602D01*
X130022420Y-68786584D01*
X129975334Y-68826375D01*
X129971190Y-68831794D01*
X129971189Y-68831796D01*
X129869212Y-68965175D01*
X129865066Y-68970598D01*
X129862183Y-68976781D01*
X129862181Y-68976784D01*
X129791221Y-69128959D01*
X129788341Y-69135136D01*
X129748738Y-69312310D01*
X129748104Y-69493856D01*
X121266450Y-69493856D01*
X121267294Y-69492878D01*
X121270337Y-69487521D01*
X121270340Y-69487517D01*
X121335568Y-69372693D01*
X121366779Y-69317752D01*
X121370804Y-69305654D01*
X121399613Y-69219048D01*
X121430354Y-69126638D01*
X121436479Y-69078157D01*
X121455156Y-68930318D01*
X121455157Y-68930308D01*
X121455598Y-68926815D01*
X121456000Y-68898000D01*
X121436346Y-68697550D01*
X121378132Y-68504735D01*
X121283575Y-68326900D01*
X121179049Y-68198738D01*
X121160172Y-68175592D01*
X121160169Y-68175589D01*
X121156277Y-68170817D01*
X121151528Y-68166888D01*
X121005837Y-68046362D01*
X121005834Y-68046360D01*
X121001087Y-68042433D01*
X120823916Y-67946637D01*
X120700024Y-67908286D01*
X120637399Y-67888900D01*
X120637396Y-67888899D01*
X120631512Y-67887078D01*
X120625387Y-67886434D01*
X120625386Y-67886434D01*
X120437333Y-67866669D01*
X120437332Y-67866669D01*
X120431205Y-67866025D01*
X120348336Y-67873567D01*
X120236761Y-67883721D01*
X120236758Y-67883722D01*
X120230622Y-67884280D01*
X120224716Y-67886018D01*
X120224712Y-67886019D01*
X120144115Y-67909740D01*
X120037406Y-67941146D01*
X119858915Y-68034459D01*
X119701947Y-68160664D01*
X119572483Y-68314954D01*
X119569519Y-68320346D01*
X119569516Y-68320350D01*
X119522275Y-68406281D01*
X119475452Y-68491452D01*
X119414552Y-68683435D01*
X119413866Y-68689552D01*
X119413865Y-68689556D01*
X119392788Y-68877464D01*
X119392101Y-68883591D01*
X110920015Y-68883591D01*
X110813436Y-68770888D01*
X110808745Y-68765927D01*
X110725265Y-68709194D01*
X110664234Y-68667718D01*
X110658591Y-68663883D01*
X110652261Y-68661351D01*
X110652257Y-68661349D01*
X110496364Y-68598996D01*
X110496359Y-68598995D01*
X110490027Y-68596462D01*
X110399872Y-68581537D01*
X110317656Y-68567926D01*
X110317652Y-68567926D01*
X110310918Y-68566811D01*
X110304101Y-68567168D01*
X110304097Y-68567168D01*
X110149357Y-68575278D01*
X110129620Y-68576312D01*
X110123047Y-68578123D01*
X110123044Y-68578123D01*
X110047266Y-68598996D01*
X109954591Y-68624523D01*
X109793998Y-68709194D01*
X109788785Y-68713599D01*
X109788781Y-68713602D01*
X109702420Y-68786584D01*
X109655334Y-68826375D01*
X109651190Y-68831794D01*
X109651189Y-68831796D01*
X109549212Y-68965175D01*
X109545066Y-68970598D01*
X109542183Y-68976781D01*
X109542181Y-68976784D01*
X109471221Y-69128959D01*
X109468341Y-69135136D01*
X109428738Y-69312310D01*
X109428104Y-69493856D01*
X109121000Y-69493856D01*
X109121000Y-66987269D01*
X109141002Y-66919148D01*
X109194658Y-66872655D01*
X109264932Y-66862551D01*
X109329512Y-66892045D01*
X109353385Y-66919755D01*
X109466557Y-67098085D01*
X109671121Y-67345360D01*
X109905063Y-67565047D01*
X109908265Y-67567374D01*
X109908267Y-67567375D01*
X110161486Y-67751349D01*
X110161491Y-67751352D01*
X110164695Y-67753680D01*
X110316787Y-67837294D01*
X110406173Y-67886434D01*
X110445921Y-67908286D01*
X110524524Y-67939407D01*
X110740624Y-68024967D01*
X110740627Y-68024968D01*
X110744307Y-68026425D01*
X110748141Y-68027409D01*
X110748149Y-68027412D01*
X110940313Y-68076751D01*
X111055147Y-68106235D01*
X111059075Y-68106731D01*
X111059079Y-68106732D01*
X111164259Y-68120019D01*
X111373539Y-68146457D01*
X111694461Y-68146457D01*
X111903741Y-68120019D01*
X112008921Y-68106732D01*
X112008925Y-68106731D01*
X112012853Y-68106235D01*
X112127687Y-68076751D01*
X112319851Y-68027412D01*
X112319859Y-68027409D01*
X112323693Y-68026425D01*
X112327373Y-68024968D01*
X112327376Y-68024967D01*
X112543476Y-67939407D01*
X112622079Y-67908286D01*
X112661828Y-67886434D01*
X112751213Y-67837294D01*
X112903305Y-67753680D01*
X112906509Y-67751352D01*
X112906514Y-67751349D01*
X113159733Y-67567375D01*
X113159735Y-67567374D01*
X113162937Y-67565047D01*
X113396879Y-67345360D01*
X113601443Y-67098085D01*
X113773402Y-66827122D01*
X113775086Y-66823543D01*
X113775090Y-66823536D01*
X113908355Y-66540332D01*
X113908357Y-66540328D01*
X113910044Y-66536742D01*
X114009214Y-66231527D01*
X114069349Y-65916289D01*
X114089500Y-65596000D01*
X126758500Y-65596000D01*
X126778651Y-65916289D01*
X126838786Y-66231527D01*
X126937956Y-66536742D01*
X126939643Y-66540328D01*
X126939645Y-66540332D01*
X127072910Y-66823536D01*
X127072914Y-66823543D01*
X127074598Y-66827122D01*
X127246557Y-67098085D01*
X127451121Y-67345360D01*
X127685063Y-67565047D01*
X127688265Y-67567374D01*
X127688267Y-67567375D01*
X127941486Y-67751349D01*
X127941491Y-67751352D01*
X127944695Y-67753680D01*
X128096787Y-67837294D01*
X128186173Y-67886434D01*
X128225921Y-67908286D01*
X128304524Y-67939407D01*
X128520624Y-68024967D01*
X128520627Y-68024968D01*
X128524307Y-68026425D01*
X128528141Y-68027409D01*
X128528149Y-68027412D01*
X128720313Y-68076751D01*
X128835147Y-68106235D01*
X128839075Y-68106731D01*
X128839079Y-68106732D01*
X128944259Y-68120019D01*
X129153539Y-68146457D01*
X129474461Y-68146457D01*
X129683741Y-68120019D01*
X129788921Y-68106732D01*
X129788925Y-68106731D01*
X129792853Y-68106235D01*
X129907687Y-68076751D01*
X130099851Y-68027412D01*
X130099859Y-68027409D01*
X130103693Y-68026425D01*
X130107373Y-68024968D01*
X130107376Y-68024967D01*
X130323476Y-67939407D01*
X130402079Y-67908286D01*
X130441828Y-67886434D01*
X130531213Y-67837294D01*
X130683305Y-67753680D01*
X130686509Y-67751352D01*
X130686514Y-67751349D01*
X130939733Y-67567375D01*
X130939735Y-67567374D01*
X130942937Y-67565047D01*
X131176879Y-67345360D01*
X131381443Y-67098085D01*
X131553402Y-66827122D01*
X131555086Y-66823543D01*
X131555090Y-66823536D01*
X131688355Y-66540332D01*
X131688357Y-66540328D01*
X131690044Y-66536742D01*
X131789214Y-66231527D01*
X131849349Y-65916289D01*
X131869500Y-65596000D01*
X131849349Y-65275711D01*
X131789214Y-64960473D01*
X131690044Y-64655258D01*
X131688355Y-64651668D01*
X131555090Y-64368464D01*
X131555086Y-64368457D01*
X131553402Y-64364878D01*
X131381443Y-64093915D01*
X131176879Y-63846640D01*
X130942937Y-63626953D01*
X130939733Y-63624625D01*
X130686514Y-63440651D01*
X130686509Y-63440648D01*
X130683305Y-63438320D01*
X130402079Y-63283714D01*
X130239334Y-63219279D01*
X130107376Y-63167033D01*
X130107373Y-63167032D01*
X130103693Y-63165575D01*
X130099859Y-63164591D01*
X130099851Y-63164588D01*
X129907687Y-63115249D01*
X129792853Y-63085765D01*
X129788925Y-63085269D01*
X129788921Y-63085268D01*
X129662560Y-63069305D01*
X129474461Y-63045543D01*
X129153539Y-63045543D01*
X128965440Y-63069305D01*
X128839079Y-63085268D01*
X128839075Y-63085269D01*
X128835147Y-63085765D01*
X128720313Y-63115249D01*
X128528149Y-63164588D01*
X128528141Y-63164591D01*
X128524307Y-63165575D01*
X128520627Y-63167032D01*
X128520624Y-63167033D01*
X128388666Y-63219279D01*
X128225921Y-63283714D01*
X127944695Y-63438320D01*
X127941491Y-63440648D01*
X127941486Y-63440651D01*
X127688267Y-63624625D01*
X127685063Y-63626953D01*
X127451121Y-63846640D01*
X127246557Y-64093915D01*
X127074598Y-64364878D01*
X127072914Y-64368457D01*
X127072910Y-64368464D01*
X126939645Y-64651668D01*
X126937956Y-64655258D01*
X126838786Y-64960473D01*
X126778651Y-65275711D01*
X126758500Y-65596000D01*
X114089500Y-65596000D01*
X114069349Y-65275711D01*
X114009214Y-64960473D01*
X113910044Y-64655258D01*
X113908355Y-64651668D01*
X113775090Y-64368464D01*
X113775086Y-64368457D01*
X113773402Y-64364878D01*
X113601443Y-64093915D01*
X113396879Y-63846640D01*
X113162937Y-63626953D01*
X113159733Y-63624625D01*
X112906514Y-63440651D01*
X112906509Y-63440648D01*
X112903305Y-63438320D01*
X112622079Y-63283714D01*
X112459334Y-63219279D01*
X112327376Y-63167033D01*
X112327373Y-63167032D01*
X112323693Y-63165575D01*
X112319859Y-63164591D01*
X112319851Y-63164588D01*
X112127687Y-63115249D01*
X112012853Y-63085765D01*
X112008925Y-63085269D01*
X112008921Y-63085268D01*
X111882560Y-63069305D01*
X111694461Y-63045543D01*
X111373539Y-63045543D01*
X111185440Y-63069305D01*
X111059079Y-63085268D01*
X111059075Y-63085269D01*
X111055147Y-63085765D01*
X110940313Y-63115249D01*
X110748149Y-63164588D01*
X110748141Y-63164591D01*
X110744307Y-63165575D01*
X110740627Y-63167032D01*
X110740624Y-63167033D01*
X110608666Y-63219279D01*
X110445921Y-63283714D01*
X110164695Y-63438320D01*
X110161491Y-63440648D01*
X110161486Y-63440651D01*
X109908267Y-63624625D01*
X109905063Y-63626953D01*
X109671121Y-63846640D01*
X109466557Y-64093915D01*
X109464435Y-64097259D01*
X109353385Y-64272245D01*
X109299996Y-64319044D01*
X109229781Y-64329549D01*
X109165033Y-64300425D01*
X109126309Y-64240919D01*
X109121000Y-64204731D01*
X109121000Y-61883591D01*
X119392101Y-61883591D01*
X119392399Y-61887137D01*
X119408954Y-62084296D01*
X119422774Y-62132490D01*
X119449110Y-62224334D01*
X119464471Y-62277905D01*
X119556535Y-62457043D01*
X119560358Y-62461867D01*
X119560361Y-62461871D01*
X119604611Y-62517700D01*
X119681641Y-62614887D01*
X119835024Y-62745426D01*
X119840402Y-62748432D01*
X119840404Y-62748433D01*
X119951832Y-62810708D01*
X120010840Y-62843686D01*
X120016699Y-62845590D01*
X120016702Y-62845591D01*
X120052988Y-62857381D01*
X120202393Y-62905926D01*
X120208503Y-62906655D01*
X120208505Y-62906655D01*
X120276770Y-62914795D01*
X120402387Y-62929774D01*
X120408522Y-62929302D01*
X120408524Y-62929302D01*
X120597063Y-62914795D01*
X120597067Y-62914794D01*
X120603205Y-62914322D01*
X120797197Y-62860158D01*
X120976973Y-62769346D01*
X121003741Y-62748433D01*
X121130831Y-62649139D01*
X121135687Y-62645345D01*
X121267294Y-62492878D01*
X121270337Y-62487521D01*
X121270340Y-62487517D01*
X121335568Y-62372693D01*
X121366779Y-62317752D01*
X121378213Y-62283382D01*
X121428407Y-62132490D01*
X121430354Y-62126638D01*
X121436479Y-62078157D01*
X121455156Y-61930318D01*
X121455157Y-61930308D01*
X121455598Y-61926815D01*
X121456000Y-61898000D01*
X121454587Y-61883591D01*
X140982101Y-61883591D01*
X140982399Y-61887137D01*
X140998954Y-62084296D01*
X141012774Y-62132490D01*
X141039110Y-62224334D01*
X141054471Y-62277905D01*
X141146535Y-62457043D01*
X141150358Y-62461867D01*
X141150361Y-62461871D01*
X141194611Y-62517700D01*
X141271641Y-62614887D01*
X141425024Y-62745426D01*
X141430402Y-62748432D01*
X141430404Y-62748433D01*
X141541832Y-62810708D01*
X141600840Y-62843686D01*
X141606699Y-62845590D01*
X141606702Y-62845591D01*
X141642988Y-62857381D01*
X141792393Y-62905926D01*
X141798503Y-62906655D01*
X141798505Y-62906655D01*
X141866770Y-62914795D01*
X141992387Y-62929774D01*
X141998522Y-62929302D01*
X141998524Y-62929302D01*
X142187063Y-62914795D01*
X142187067Y-62914794D01*
X142193205Y-62914322D01*
X142387197Y-62860158D01*
X142566973Y-62769346D01*
X142593741Y-62748433D01*
X142720831Y-62649139D01*
X142725687Y-62645345D01*
X142857294Y-62492878D01*
X142860337Y-62487521D01*
X142860340Y-62487517D01*
X142925568Y-62372693D01*
X142956779Y-62317752D01*
X142968213Y-62283382D01*
X143018407Y-62132490D01*
X143020354Y-62126638D01*
X143026479Y-62078157D01*
X143045156Y-61930318D01*
X143045157Y-61930308D01*
X143045598Y-61926815D01*
X143046000Y-61898000D01*
X143026346Y-61697550D01*
X142968132Y-61504735D01*
X142873575Y-61326900D01*
X142769049Y-61198738D01*
X142750172Y-61175592D01*
X142750169Y-61175589D01*
X142746277Y-61170817D01*
X142741528Y-61166888D01*
X142595837Y-61046362D01*
X142595834Y-61046360D01*
X142591087Y-61042433D01*
X142413916Y-60946637D01*
X142317714Y-60916858D01*
X142227399Y-60888900D01*
X142227396Y-60888899D01*
X142221512Y-60887078D01*
X142215387Y-60886434D01*
X142215386Y-60886434D01*
X142027333Y-60866669D01*
X142027332Y-60866669D01*
X142021205Y-60866025D01*
X141938336Y-60873567D01*
X141826761Y-60883721D01*
X141826758Y-60883722D01*
X141820622Y-60884280D01*
X141814716Y-60886018D01*
X141814712Y-60886019D01*
X141669148Y-60928861D01*
X141627406Y-60941146D01*
X141448915Y-61034459D01*
X141291947Y-61160664D01*
X141162483Y-61314954D01*
X141159519Y-61320346D01*
X141159516Y-61320350D01*
X141112275Y-61406281D01*
X141065452Y-61491452D01*
X141004552Y-61683435D01*
X141003866Y-61689552D01*
X141003865Y-61689556D01*
X140982788Y-61877464D01*
X140982101Y-61883591D01*
X121454587Y-61883591D01*
X121436346Y-61697550D01*
X121378132Y-61504735D01*
X121283575Y-61326900D01*
X121179049Y-61198738D01*
X121160172Y-61175592D01*
X121160169Y-61175589D01*
X121156277Y-61170817D01*
X121151528Y-61166888D01*
X121005837Y-61046362D01*
X121005834Y-61046360D01*
X121001087Y-61042433D01*
X120823916Y-60946637D01*
X120727714Y-60916858D01*
X120637399Y-60888900D01*
X120637396Y-60888899D01*
X120631512Y-60887078D01*
X120625387Y-60886434D01*
X120625386Y-60886434D01*
X120437333Y-60866669D01*
X120437332Y-60866669D01*
X120431205Y-60866025D01*
X120348336Y-60873567D01*
X120236761Y-60883721D01*
X120236758Y-60883722D01*
X120230622Y-60884280D01*
X120224716Y-60886018D01*
X120224712Y-60886019D01*
X120079148Y-60928861D01*
X120037406Y-60941146D01*
X119858915Y-61034459D01*
X119701947Y-61160664D01*
X119572483Y-61314954D01*
X119569519Y-61320346D01*
X119569516Y-61320350D01*
X119522275Y-61406281D01*
X119475452Y-61491452D01*
X119414552Y-61683435D01*
X119413866Y-61689552D01*
X119413865Y-61689556D01*
X119392788Y-61877464D01*
X119392101Y-61883591D01*
X109121000Y-61883591D01*
X109121000Y-59367269D01*
X109141002Y-59299148D01*
X109194658Y-59252655D01*
X109264932Y-59242551D01*
X109329512Y-59272045D01*
X109353385Y-59299755D01*
X109466557Y-59478085D01*
X109469076Y-59481130D01*
X109469079Y-59481134D01*
X109508637Y-59528951D01*
X109671121Y-59725360D01*
X109905063Y-59945047D01*
X109908265Y-59947374D01*
X109908267Y-59947375D01*
X110161486Y-60131349D01*
X110161491Y-60131352D01*
X110164695Y-60133680D01*
X110445921Y-60288286D01*
X110608666Y-60352721D01*
X110740624Y-60404967D01*
X110740627Y-60404968D01*
X110744307Y-60406425D01*
X110748141Y-60407409D01*
X110748149Y-60407412D01*
X110940313Y-60456751D01*
X111055147Y-60486235D01*
X111059075Y-60486731D01*
X111059079Y-60486732D01*
X111185440Y-60502695D01*
X111373539Y-60526457D01*
X111694461Y-60526457D01*
X111882560Y-60502695D01*
X112008921Y-60486732D01*
X112008925Y-60486731D01*
X112012853Y-60486235D01*
X112127687Y-60456751D01*
X112319851Y-60407412D01*
X112319859Y-60407409D01*
X112323693Y-60406425D01*
X112327373Y-60404968D01*
X112327376Y-60404967D01*
X112459334Y-60352721D01*
X112622079Y-60288286D01*
X112903305Y-60133680D01*
X112906509Y-60131352D01*
X112906514Y-60131349D01*
X113159733Y-59947375D01*
X113159735Y-59947374D01*
X113162937Y-59945047D01*
X113396879Y-59725360D01*
X113559363Y-59528951D01*
X113598921Y-59481134D01*
X113598924Y-59481130D01*
X113601443Y-59478085D01*
X113773402Y-59207122D01*
X113775086Y-59203543D01*
X113775090Y-59203536D01*
X113908355Y-58920332D01*
X113908357Y-58920328D01*
X113910044Y-58916742D01*
X114009214Y-58611527D01*
X114069349Y-58296289D01*
X114089500Y-57976000D01*
X114069349Y-57655711D01*
X114009214Y-57340473D01*
X113910044Y-57035258D01*
X113887240Y-56986796D01*
X113775090Y-56748464D01*
X113775086Y-56748457D01*
X113773402Y-56744878D01*
X113601443Y-56473915D01*
X113592620Y-56463249D01*
X113539409Y-56398929D01*
X113396879Y-56226640D01*
X113162937Y-56006953D01*
X113159733Y-56004625D01*
X112906514Y-55820651D01*
X112906509Y-55820648D01*
X112903305Y-55818320D01*
X112868917Y-55799415D01*
X112818858Y-55749069D01*
X112803965Y-55679652D01*
X112828966Y-55613203D01*
X112885923Y-55570819D01*
X112929618Y-55563000D01*
X127918382Y-55563000D01*
X127986503Y-55583002D01*
G37*
%TD.AperFunction*%
%TD*%
M02*
