%TF.GenerationSoftware,KiCad,Pcbnew,5.99.0-unknown-8f3343b9e3~128~ubuntu20.04.1*%
%TF.CreationDate,2021-06-03T23:09:28+10:00*%
%TF.ProjectId,dac-featherwing-v2,6461632d-6665-4617-9468-657277696e67,rev?*%
%TF.SameCoordinates,Original*%
%TF.FileFunction,Legend,Top*%
%TF.FilePolarity,Positive*%
%FSLAX46Y46*%
G04 Gerber Fmt 4.6, Leading zero omitted, Abs format (unit mm)*
G04 Created by KiCad (PCBNEW 5.99.0-unknown-8f3343b9e3~128~ubuntu20.04.1) date 2021-06-03 23:09:28*
%MOMM*%
%LPD*%
G01*
G04 APERTURE LIST*
%ADD10C,0.250000*%
%ADD11C,0.375000*%
%ADD12C,0.175000*%
%ADD13C,0.150000*%
%ADD14C,0.400000*%
%ADD15C,0.120000*%
G04 APERTURE END LIST*
D10*
X127500785Y-87638380D02*
X127500785Y-86638380D01*
X127738880Y-86638380D01*
X127881738Y-86686000D01*
X127976976Y-86781238D01*
X128024595Y-86876476D01*
X128072214Y-87066952D01*
X128072214Y-87209809D01*
X128024595Y-87400285D01*
X127976976Y-87495523D01*
X127881738Y-87590761D01*
X127738880Y-87638380D01*
X127500785Y-87638380D01*
X128500785Y-87638380D02*
X128500785Y-86638380D01*
X128976976Y-87638380D02*
X128976976Y-86638380D01*
X129548404Y-87638380D01*
X129548404Y-86638380D01*
X111251976Y-69810761D02*
X111394833Y-69858380D01*
X111632928Y-69858380D01*
X111728166Y-69810761D01*
X111775785Y-69763142D01*
X111823404Y-69667904D01*
X111823404Y-69572666D01*
X111775785Y-69477428D01*
X111728166Y-69429809D01*
X111632928Y-69382190D01*
X111442452Y-69334571D01*
X111347214Y-69286952D01*
X111299595Y-69239333D01*
X111251976Y-69144095D01*
X111251976Y-69048857D01*
X111299595Y-68953619D01*
X111347214Y-68906000D01*
X111442452Y-68858380D01*
X111680547Y-68858380D01*
X111823404Y-68906000D01*
X112251976Y-69858380D02*
X112251976Y-68858380D01*
X112490071Y-68858380D01*
X112632928Y-68906000D01*
X112728166Y-69001238D01*
X112775785Y-69096476D01*
X112823404Y-69286952D01*
X112823404Y-69429809D01*
X112775785Y-69620285D01*
X112728166Y-69715523D01*
X112632928Y-69810761D01*
X112490071Y-69858380D01*
X112251976Y-69858380D01*
X113204357Y-69572666D02*
X113680547Y-69572666D01*
X113109119Y-69858380D02*
X113442452Y-68858380D01*
X113775785Y-69858380D01*
X132143404Y-99386000D02*
X132048166Y-99338380D01*
X131905309Y-99338380D01*
X131762452Y-99386000D01*
X131667214Y-99481238D01*
X131619595Y-99576476D01*
X131571976Y-99766952D01*
X131571976Y-99909809D01*
X131619595Y-100100285D01*
X131667214Y-100195523D01*
X131762452Y-100290761D01*
X131905309Y-100338380D01*
X132000547Y-100338380D01*
X132143404Y-100290761D01*
X132191023Y-100243142D01*
X132191023Y-99909809D01*
X132000547Y-99909809D01*
X132619595Y-100338380D02*
X132619595Y-99338380D01*
X133191023Y-100338380D01*
X133191023Y-99338380D01*
X133667214Y-100338380D02*
X133667214Y-99338380D01*
X133905309Y-99338380D01*
X134048166Y-99386000D01*
X134143404Y-99481238D01*
X134191023Y-99576476D01*
X134238642Y-99766952D01*
X134238642Y-99909809D01*
X134191023Y-100100285D01*
X134143404Y-100195523D01*
X134048166Y-100290761D01*
X133905309Y-100338380D01*
X133667214Y-100338380D01*
X127834119Y-89178380D02*
X128072214Y-90178380D01*
X128262690Y-89464095D01*
X128453166Y-90178380D01*
X128691261Y-89178380D01*
X129024595Y-90130761D02*
X129167452Y-90178380D01*
X129405547Y-90178380D01*
X129500785Y-90130761D01*
X129548404Y-90083142D01*
X129596023Y-89987904D01*
X129596023Y-89892666D01*
X129548404Y-89797428D01*
X129500785Y-89749809D01*
X129405547Y-89702190D01*
X129215071Y-89654571D01*
X129119833Y-89606952D01*
X129072214Y-89559333D01*
X129024595Y-89464095D01*
X129024595Y-89368857D01*
X129072214Y-89273619D01*
X129119833Y-89226000D01*
X129215071Y-89178380D01*
X129453166Y-89178380D01*
X129596023Y-89226000D01*
X131524357Y-104418380D02*
X132143404Y-104418380D01*
X131810071Y-104799333D01*
X131952928Y-104799333D01*
X132048166Y-104846952D01*
X132095785Y-104894571D01*
X132143404Y-104989809D01*
X132143404Y-105227904D01*
X132095785Y-105323142D01*
X132048166Y-105370761D01*
X131952928Y-105418380D01*
X131667214Y-105418380D01*
X131571976Y-105370761D01*
X131524357Y-105323142D01*
X132429119Y-104418380D02*
X132762452Y-105418380D01*
X133095785Y-104418380D01*
X133333880Y-104418380D02*
X133952928Y-104418380D01*
X133619595Y-104799333D01*
X133762452Y-104799333D01*
X133857690Y-104846952D01*
X133905309Y-104894571D01*
X133952928Y-104989809D01*
X133952928Y-105227904D01*
X133905309Y-105323142D01*
X133857690Y-105370761D01*
X133762452Y-105418380D01*
X133476738Y-105418380D01*
X133381500Y-105370761D01*
X133333880Y-105323142D01*
X111251976Y-72350761D02*
X111394833Y-72398380D01*
X111632928Y-72398380D01*
X111728166Y-72350761D01*
X111775785Y-72303142D01*
X111823404Y-72207904D01*
X111823404Y-72112666D01*
X111775785Y-72017428D01*
X111728166Y-71969809D01*
X111632928Y-71922190D01*
X111442452Y-71874571D01*
X111347214Y-71826952D01*
X111299595Y-71779333D01*
X111251976Y-71684095D01*
X111251976Y-71588857D01*
X111299595Y-71493619D01*
X111347214Y-71446000D01*
X111442452Y-71398380D01*
X111680547Y-71398380D01*
X111823404Y-71446000D01*
X112823404Y-72303142D02*
X112775785Y-72350761D01*
X112632928Y-72398380D01*
X112537690Y-72398380D01*
X112394833Y-72350761D01*
X112299595Y-72255523D01*
X112251976Y-72160285D01*
X112204357Y-71969809D01*
X112204357Y-71826952D01*
X112251976Y-71636476D01*
X112299595Y-71541238D01*
X112394833Y-71446000D01*
X112537690Y-71398380D01*
X112632928Y-71398380D01*
X112775785Y-71446000D01*
X112823404Y-71493619D01*
X113728166Y-72398380D02*
X113251976Y-72398380D01*
X113251976Y-71398380D01*
X127357928Y-92194571D02*
X127500785Y-92242190D01*
X127548404Y-92289809D01*
X127596023Y-92385047D01*
X127596023Y-92527904D01*
X127548404Y-92623142D01*
X127500785Y-92670761D01*
X127405547Y-92718380D01*
X127024595Y-92718380D01*
X127024595Y-91718380D01*
X127357928Y-91718380D01*
X127453166Y-91766000D01*
X127500785Y-91813619D01*
X127548404Y-91908857D01*
X127548404Y-92004095D01*
X127500785Y-92099333D01*
X127453166Y-92146952D01*
X127357928Y-92194571D01*
X127024595Y-92194571D01*
X128596023Y-92623142D02*
X128548404Y-92670761D01*
X128405547Y-92718380D01*
X128310309Y-92718380D01*
X128167452Y-92670761D01*
X128072214Y-92575523D01*
X128024595Y-92480285D01*
X127976976Y-92289809D01*
X127976976Y-92146952D01*
X128024595Y-91956476D01*
X128072214Y-91861238D01*
X128167452Y-91766000D01*
X128310309Y-91718380D01*
X128405547Y-91718380D01*
X128548404Y-91766000D01*
X128596023Y-91813619D01*
X129024595Y-92718380D02*
X129024595Y-91718380D01*
X129596023Y-92718380D02*
X129167452Y-92146952D01*
X129596023Y-91718380D02*
X129024595Y-92289809D01*
X131524357Y-68858380D02*
X132143404Y-68858380D01*
X131810071Y-69239333D01*
X131952928Y-69239333D01*
X132048166Y-69286952D01*
X132095785Y-69334571D01*
X132143404Y-69429809D01*
X132143404Y-69667904D01*
X132095785Y-69763142D01*
X132048166Y-69810761D01*
X131952928Y-69858380D01*
X131667214Y-69858380D01*
X131571976Y-69810761D01*
X131524357Y-69763142D01*
X132429119Y-68858380D02*
X132762452Y-69858380D01*
X133095785Y-68858380D01*
X133333880Y-68858380D02*
X133952928Y-68858380D01*
X133619595Y-69239333D01*
X133762452Y-69239333D01*
X133857690Y-69286952D01*
X133905309Y-69334571D01*
X133952928Y-69429809D01*
X133952928Y-69667904D01*
X133905309Y-69763142D01*
X133857690Y-69810761D01*
X133762452Y-69858380D01*
X133476738Y-69858380D01*
X133381500Y-69810761D01*
X133333880Y-69763142D01*
X134333880Y-69572666D02*
X134810071Y-69572666D01*
X134238642Y-69858380D02*
X134571976Y-68858380D01*
X134905309Y-69858380D01*
D11*
X138945071Y-103764035D02*
X137445071Y-103764035D01*
X137587928Y-103121178D02*
X137516500Y-103049750D01*
X137445071Y-102906892D01*
X137445071Y-102549750D01*
X137516500Y-102406892D01*
X137587928Y-102335464D01*
X137730785Y-102264035D01*
X137873642Y-102264035D01*
X138087928Y-102335464D01*
X138945071Y-103192607D01*
X138945071Y-102264035D01*
X138802214Y-100764035D02*
X138873642Y-100835464D01*
X138945071Y-101049750D01*
X138945071Y-101192607D01*
X138873642Y-101406892D01*
X138730785Y-101549750D01*
X138587928Y-101621178D01*
X138302214Y-101692607D01*
X138087928Y-101692607D01*
X137802214Y-101621178D01*
X137659357Y-101549750D01*
X137516500Y-101406892D01*
X137445071Y-101192607D01*
X137445071Y-101049750D01*
X137516500Y-100835464D01*
X137587928Y-100764035D01*
X138945071Y-98978321D02*
X137445071Y-98978321D01*
X137445071Y-98621178D01*
X137516500Y-98406892D01*
X137659357Y-98264035D01*
X137802214Y-98192607D01*
X138087928Y-98121178D01*
X138302214Y-98121178D01*
X138587928Y-98192607D01*
X138730785Y-98264035D01*
X138873642Y-98406892D01*
X138945071Y-98621178D01*
X138945071Y-98978321D01*
X138516500Y-97549750D02*
X138516500Y-96835464D01*
X138945071Y-97692607D02*
X137445071Y-97192607D01*
X138945071Y-96692607D01*
X138802214Y-95335464D02*
X138873642Y-95406892D01*
X138945071Y-95621178D01*
X138945071Y-95764035D01*
X138873642Y-95978321D01*
X138730785Y-96121178D01*
X138587928Y-96192607D01*
X138302214Y-96264035D01*
X138087928Y-96264035D01*
X137802214Y-96192607D01*
X137659357Y-96121178D01*
X137516500Y-95978321D01*
X137445071Y-95764035D01*
X137445071Y-95621178D01*
X137516500Y-95406892D01*
X137587928Y-95335464D01*
X140574357Y-109192607D02*
X140574357Y-109692607D01*
X141360071Y-109692607D02*
X139860071Y-109692607D01*
X139860071Y-108978321D01*
X140574357Y-108406892D02*
X140574357Y-107906892D01*
X141360071Y-107692607D02*
X141360071Y-108406892D01*
X139860071Y-108406892D01*
X139860071Y-107692607D01*
X140931500Y-107121178D02*
X140931500Y-106406892D01*
X141360071Y-107264035D02*
X139860071Y-106764035D01*
X141360071Y-106264035D01*
X139860071Y-105978321D02*
X139860071Y-105121178D01*
X141360071Y-105549750D02*
X139860071Y-105549750D01*
X141360071Y-104621178D02*
X139860071Y-104621178D01*
X140574357Y-104621178D02*
X140574357Y-103764035D01*
X141360071Y-103764035D02*
X139860071Y-103764035D01*
X140574357Y-103049750D02*
X140574357Y-102549750D01*
X141360071Y-102335464D02*
X141360071Y-103049750D01*
X139860071Y-103049750D01*
X139860071Y-102335464D01*
X141360071Y-100835464D02*
X140645785Y-101335464D01*
X141360071Y-101692607D02*
X139860071Y-101692607D01*
X139860071Y-101121178D01*
X139931500Y-100978321D01*
X140002928Y-100906892D01*
X140145785Y-100835464D01*
X140360071Y-100835464D01*
X140502928Y-100906892D01*
X140574357Y-100978321D01*
X140645785Y-101121178D01*
X140645785Y-101692607D01*
X139860071Y-100335464D02*
X141360071Y-99978321D01*
X140288642Y-99692607D01*
X141360071Y-99406892D01*
X139860071Y-99049750D01*
X141360071Y-98478321D02*
X139860071Y-98478321D01*
X141360071Y-97764035D02*
X139860071Y-97764035D01*
X141360071Y-96906892D01*
X139860071Y-96906892D01*
X139931500Y-95406892D02*
X139860071Y-95549750D01*
X139860071Y-95764035D01*
X139931500Y-95978321D01*
X140074357Y-96121178D01*
X140217214Y-96192607D01*
X140502928Y-96264035D01*
X140717214Y-96264035D01*
X141002928Y-96192607D01*
X141145785Y-96121178D01*
X141288642Y-95978321D01*
X141360071Y-95764035D01*
X141360071Y-95621178D01*
X141288642Y-95406892D01*
X141217214Y-95335464D01*
X140717214Y-95335464D01*
X140717214Y-95621178D01*
D12*
X142729714Y-97919750D02*
X143396380Y-97681654D01*
X142729714Y-97443559D01*
X142396380Y-96872130D02*
X142396380Y-96776892D01*
X142444000Y-96681654D01*
X142491619Y-96634035D01*
X142586857Y-96586416D01*
X142777333Y-96538797D01*
X143015428Y-96538797D01*
X143205904Y-96586416D01*
X143301142Y-96634035D01*
X143348761Y-96681654D01*
X143396380Y-96776892D01*
X143396380Y-96872130D01*
X143348761Y-96967369D01*
X143301142Y-97014988D01*
X143205904Y-97062607D01*
X143015428Y-97110226D01*
X142777333Y-97110226D01*
X142586857Y-97062607D01*
X142491619Y-97014988D01*
X142444000Y-96967369D01*
X142396380Y-96872130D01*
X143301142Y-96110226D02*
X143348761Y-96062607D01*
X143396380Y-96110226D01*
X143348761Y-96157845D01*
X143301142Y-96110226D01*
X143396380Y-96110226D01*
X142396380Y-95729273D02*
X142396380Y-95110226D01*
X142777333Y-95443559D01*
X142777333Y-95300702D01*
X142824952Y-95205464D01*
X142872571Y-95157845D01*
X142967809Y-95110226D01*
X143205904Y-95110226D01*
X143301142Y-95157845D01*
X143348761Y-95205464D01*
X143396380Y-95300702D01*
X143396380Y-95586416D01*
X143348761Y-95681654D01*
X143301142Y-95729273D01*
X145006380Y-104300702D02*
X145006380Y-104776892D01*
X144006380Y-104776892D01*
X144482571Y-103967369D02*
X144482571Y-103634035D01*
X145006380Y-103491178D02*
X145006380Y-103967369D01*
X144006380Y-103967369D01*
X144006380Y-103491178D01*
X145006380Y-103062607D02*
X144006380Y-103062607D01*
X144054000Y-102062607D02*
X144006380Y-102157845D01*
X144006380Y-102300702D01*
X144054000Y-102443559D01*
X144149238Y-102538797D01*
X144244476Y-102586416D01*
X144434952Y-102634035D01*
X144577809Y-102634035D01*
X144768285Y-102586416D01*
X144863523Y-102538797D01*
X144958761Y-102443559D01*
X145006380Y-102300702D01*
X145006380Y-102205464D01*
X144958761Y-102062607D01*
X144911142Y-102014988D01*
X144577809Y-102014988D01*
X144577809Y-102205464D01*
X145006380Y-101586416D02*
X144006380Y-101586416D01*
X144482571Y-101586416D02*
X144482571Y-101014988D01*
X145006380Y-101014988D02*
X144006380Y-101014988D01*
X144006380Y-99586416D02*
X144006380Y-99395940D01*
X144054000Y-99300702D01*
X144149238Y-99205464D01*
X144339714Y-99157845D01*
X144673047Y-99157845D01*
X144863523Y-99205464D01*
X144958761Y-99300702D01*
X145006380Y-99395940D01*
X145006380Y-99586416D01*
X144958761Y-99681654D01*
X144863523Y-99776892D01*
X144673047Y-99824511D01*
X144339714Y-99824511D01*
X144149238Y-99776892D01*
X144054000Y-99681654D01*
X144006380Y-99586416D01*
X145006380Y-98253083D02*
X145006380Y-98729273D01*
X144006380Y-98729273D01*
X145006380Y-97919750D02*
X144006380Y-97919750D01*
X144006380Y-97586416D02*
X145006380Y-97253083D01*
X144006380Y-96919750D01*
X144482571Y-96586416D02*
X144482571Y-96253083D01*
X145006380Y-96110226D02*
X145006380Y-96586416D01*
X144006380Y-96586416D01*
X144006380Y-96110226D01*
X145006380Y-95110226D02*
X144530190Y-95443559D01*
X145006380Y-95681654D02*
X144006380Y-95681654D01*
X144006380Y-95300702D01*
X144054000Y-95205464D01*
X144101619Y-95157845D01*
X144196857Y-95110226D01*
X144339714Y-95110226D01*
X144434952Y-95157845D01*
X144482571Y-95205464D01*
X144530190Y-95300702D01*
X144530190Y-95681654D01*
X145616380Y-101253083D02*
X145616380Y-101157845D01*
X145664000Y-101062607D01*
X145711619Y-101014988D01*
X145806857Y-100967369D01*
X145997333Y-100919750D01*
X146235428Y-100919750D01*
X146425904Y-100967369D01*
X146521142Y-101014988D01*
X146568761Y-101062607D01*
X146616380Y-101157845D01*
X146616380Y-101253083D01*
X146568761Y-101348321D01*
X146521142Y-101395940D01*
X146425904Y-101443559D01*
X146235428Y-101491178D01*
X145997333Y-101491178D01*
X145806857Y-101443559D01*
X145711619Y-101395940D01*
X145664000Y-101348321D01*
X145616380Y-101253083D01*
X145616380Y-100062607D02*
X145616380Y-100253083D01*
X145664000Y-100348321D01*
X145711619Y-100395940D01*
X145854476Y-100491178D01*
X146044952Y-100538797D01*
X146425904Y-100538797D01*
X146521142Y-100491178D01*
X146568761Y-100443559D01*
X146616380Y-100348321D01*
X146616380Y-100157845D01*
X146568761Y-100062607D01*
X146521142Y-100014988D01*
X146425904Y-99967369D01*
X146187809Y-99967369D01*
X146092571Y-100014988D01*
X146044952Y-100062607D01*
X145997333Y-100157845D01*
X145997333Y-100348321D01*
X146044952Y-100443559D01*
X146092571Y-100491178D01*
X146187809Y-100538797D01*
X145568761Y-98824511D02*
X146854476Y-99681654D01*
X145711619Y-98538797D02*
X145664000Y-98491178D01*
X145616380Y-98395940D01*
X145616380Y-98157845D01*
X145664000Y-98062607D01*
X145711619Y-98014988D01*
X145806857Y-97967369D01*
X145902095Y-97967369D01*
X146044952Y-98014988D01*
X146616380Y-98586416D01*
X146616380Y-97967369D01*
X145616380Y-97348321D02*
X145616380Y-97253083D01*
X145664000Y-97157845D01*
X145711619Y-97110226D01*
X145806857Y-97062607D01*
X145997333Y-97014988D01*
X146235428Y-97014988D01*
X146425904Y-97062607D01*
X146521142Y-97110226D01*
X146568761Y-97157845D01*
X146616380Y-97253083D01*
X146616380Y-97348321D01*
X146568761Y-97443559D01*
X146521142Y-97491178D01*
X146425904Y-97538797D01*
X146235428Y-97586416D01*
X145997333Y-97586416D01*
X145806857Y-97538797D01*
X145711619Y-97491178D01*
X145664000Y-97443559D01*
X145616380Y-97348321D01*
X145711619Y-96634035D02*
X145664000Y-96586416D01*
X145616380Y-96491178D01*
X145616380Y-96253083D01*
X145664000Y-96157845D01*
X145711619Y-96110226D01*
X145806857Y-96062607D01*
X145902095Y-96062607D01*
X146044952Y-96110226D01*
X146616380Y-96681654D01*
X146616380Y-96062607D01*
X146616380Y-95110226D02*
X146616380Y-95681654D01*
X146616380Y-95395940D02*
X145616380Y-95395940D01*
X145759238Y-95491178D01*
X145854476Y-95586416D01*
X145902095Y-95681654D01*
D10*
X131619595Y-74938380D02*
X131619595Y-73938380D01*
X131952928Y-74652666D01*
X132286261Y-73938380D01*
X132286261Y-74938380D01*
X133333880Y-74843142D02*
X133286261Y-74890761D01*
X133143404Y-74938380D01*
X133048166Y-74938380D01*
X132905309Y-74890761D01*
X132810071Y-74795523D01*
X132762452Y-74700285D01*
X132714833Y-74509809D01*
X132714833Y-74366952D01*
X132762452Y-74176476D01*
X132810071Y-74081238D01*
X132905309Y-73986000D01*
X133048166Y-73938380D01*
X133143404Y-73938380D01*
X133286261Y-73986000D01*
X133333880Y-74033619D01*
X133762452Y-74938380D02*
X133762452Y-73938380D01*
X134333880Y-74938380D02*
X133905309Y-74366952D01*
X134333880Y-73938380D02*
X133762452Y-74509809D01*
D13*
%TO.C,R2*%
X117876190Y-96877714D02*
X117876190Y-97544380D01*
X117638095Y-96496761D02*
X117400000Y-97211047D01*
X118019047Y-97211047D01*
X118400000Y-97449142D02*
X118447619Y-97496761D01*
X118400000Y-97544380D01*
X118352380Y-97496761D01*
X118400000Y-97449142D01*
X118400000Y-97544380D01*
X118780952Y-96544380D02*
X119447619Y-96544380D01*
X119019047Y-97544380D01*
X119828571Y-97544380D02*
X119828571Y-96544380D01*
X120400000Y-97544380D02*
X119971428Y-96972952D01*
X120400000Y-96544380D02*
X119828571Y-97115809D01*
%TO.C,C12*%
X127886380Y-82193238D02*
X127886380Y-82764666D01*
X127886380Y-82478952D02*
X126886380Y-82478952D01*
X127029238Y-82574190D01*
X127124476Y-82669428D01*
X127172095Y-82764666D01*
X127219714Y-81336095D02*
X127886380Y-81336095D01*
X127219714Y-81764666D02*
X127743523Y-81764666D01*
X127838761Y-81717047D01*
X127886380Y-81621809D01*
X127886380Y-81478952D01*
X127838761Y-81383714D01*
X127791142Y-81336095D01*
X127362571Y-80526571D02*
X127362571Y-80859904D01*
X127886380Y-80859904D02*
X126886380Y-80859904D01*
X126886380Y-80383714D01*
%TO.C,R3*%
X112494380Y-90670476D02*
X112494380Y-91241904D01*
X112494380Y-90956190D02*
X111494380Y-90956190D01*
X111637238Y-91051428D01*
X111732476Y-91146666D01*
X111780095Y-91241904D01*
X111494380Y-90051428D02*
X111494380Y-89956190D01*
X111542000Y-89860952D01*
X111589619Y-89813333D01*
X111684857Y-89765714D01*
X111875333Y-89718095D01*
X112113428Y-89718095D01*
X112303904Y-89765714D01*
X112399142Y-89813333D01*
X112446761Y-89860952D01*
X112494380Y-89956190D01*
X112494380Y-90051428D01*
X112446761Y-90146666D01*
X112399142Y-90194285D01*
X112303904Y-90241904D01*
X112113428Y-90289523D01*
X111875333Y-90289523D01*
X111684857Y-90241904D01*
X111589619Y-90194285D01*
X111542000Y-90146666D01*
X111494380Y-90051428D01*
X112494380Y-89289523D02*
X111494380Y-89289523D01*
X112494380Y-88718095D02*
X111922952Y-89146666D01*
X111494380Y-88718095D02*
X112065809Y-89289523D01*
%TO.C,R10*%
X121892380Y-76549666D02*
X121892380Y-77121095D01*
X121892380Y-76835380D02*
X120892380Y-76835380D01*
X121035238Y-76930619D01*
X121130476Y-77025857D01*
X121178095Y-77121095D01*
X120892380Y-75930619D02*
X120892380Y-75835380D01*
X120940000Y-75740142D01*
X120987619Y-75692523D01*
X121082857Y-75644904D01*
X121273333Y-75597285D01*
X121511428Y-75597285D01*
X121701904Y-75644904D01*
X121797142Y-75692523D01*
X121844761Y-75740142D01*
X121892380Y-75835380D01*
X121892380Y-75930619D01*
X121844761Y-76025857D01*
X121797142Y-76073476D01*
X121701904Y-76121095D01*
X121511428Y-76168714D01*
X121273333Y-76168714D01*
X121082857Y-76121095D01*
X120987619Y-76073476D01*
X120940000Y-76025857D01*
X120892380Y-75930619D01*
X120892380Y-74978238D02*
X120892380Y-74883000D01*
X120940000Y-74787761D01*
X120987619Y-74740142D01*
X121082857Y-74692523D01*
X121273333Y-74644904D01*
X121511428Y-74644904D01*
X121701904Y-74692523D01*
X121797142Y-74740142D01*
X121844761Y-74787761D01*
X121892380Y-74883000D01*
X121892380Y-74978238D01*
X121844761Y-75073476D01*
X121797142Y-75121095D01*
X121701904Y-75168714D01*
X121511428Y-75216333D01*
X121273333Y-75216333D01*
X121082857Y-75168714D01*
X120987619Y-75121095D01*
X120940000Y-75073476D01*
X120892380Y-74978238D01*
%TO.C,R6*%
X145292285Y-76431714D02*
X145292285Y-77098380D01*
X145054190Y-76050761D02*
X144816095Y-76765047D01*
X145435142Y-76765047D01*
X145720857Y-76098380D02*
X146387523Y-76098380D01*
X145958952Y-77098380D01*
X146768476Y-77098380D02*
X146768476Y-76098380D01*
X147339904Y-77098380D02*
X146911333Y-76526952D01*
X147339904Y-76098380D02*
X146768476Y-76669809D01*
%TO.C,R7*%
X113479714Y-76668714D02*
X114146380Y-76668714D01*
X113098761Y-76906809D02*
X113813047Y-77144904D01*
X113813047Y-76525857D01*
X113146380Y-76240142D02*
X113146380Y-75573476D01*
X114146380Y-76002047D01*
X114146380Y-75192523D02*
X113146380Y-75192523D01*
X114146380Y-74621095D02*
X113574952Y-75049666D01*
X113146380Y-74621095D02*
X113717809Y-75192523D01*
%TO.C,C4*%
X123940380Y-112704857D02*
X123940380Y-112609619D01*
X123988000Y-112514380D01*
X124035619Y-112466761D01*
X124130857Y-112419142D01*
X124321333Y-112371523D01*
X124559428Y-112371523D01*
X124749904Y-112419142D01*
X124845142Y-112466761D01*
X124892761Y-112514380D01*
X124940380Y-112609619D01*
X124940380Y-112704857D01*
X124892761Y-112800095D01*
X124845142Y-112847714D01*
X124749904Y-112895333D01*
X124559428Y-112942952D01*
X124321333Y-112942952D01*
X124130857Y-112895333D01*
X124035619Y-112847714D01*
X123988000Y-112800095D01*
X123940380Y-112704857D01*
X124845142Y-111942952D02*
X124892761Y-111895333D01*
X124940380Y-111942952D01*
X124892761Y-111990571D01*
X124845142Y-111942952D01*
X124940380Y-111942952D01*
X124940380Y-110942952D02*
X124940380Y-111514380D01*
X124940380Y-111228666D02*
X123940380Y-111228666D01*
X124083238Y-111323904D01*
X124178476Y-111419142D01*
X124226095Y-111514380D01*
X124273714Y-110085809D02*
X124940380Y-110085809D01*
X124273714Y-110514380D02*
X124797523Y-110514380D01*
X124892761Y-110466761D01*
X124940380Y-110371523D01*
X124940380Y-110228666D01*
X124892761Y-110133428D01*
X124845142Y-110085809D01*
X124416571Y-109276285D02*
X124416571Y-109609619D01*
X124940380Y-109609619D02*
X123940380Y-109609619D01*
X123940380Y-109133428D01*
%TO.C,C14*%
X113637571Y-97798380D02*
X113066142Y-97798380D01*
X113351857Y-97798380D02*
X113351857Y-96798380D01*
X113256619Y-96941238D01*
X113161380Y-97036476D01*
X113066142Y-97084095D01*
X114256619Y-96798380D02*
X114351857Y-96798380D01*
X114447095Y-96846000D01*
X114494714Y-96893619D01*
X114542333Y-96988857D01*
X114589952Y-97179333D01*
X114589952Y-97417428D01*
X114542333Y-97607904D01*
X114494714Y-97703142D01*
X114447095Y-97750761D01*
X114351857Y-97798380D01*
X114256619Y-97798380D01*
X114161380Y-97750761D01*
X114113761Y-97703142D01*
X114066142Y-97607904D01*
X114018523Y-97417428D01*
X114018523Y-97179333D01*
X114066142Y-96988857D01*
X114113761Y-96893619D01*
X114161380Y-96846000D01*
X114256619Y-96798380D01*
X115447095Y-97131714D02*
X115447095Y-97798380D01*
X115018523Y-97131714D02*
X115018523Y-97655523D01*
X115066142Y-97750761D01*
X115161380Y-97798380D01*
X115304238Y-97798380D01*
X115399476Y-97750761D01*
X115447095Y-97703142D01*
X116256619Y-97274571D02*
X115923285Y-97274571D01*
X115923285Y-97798380D02*
X115923285Y-96798380D01*
X116399476Y-96798380D01*
%TO.C,C10*%
X120266380Y-82193238D02*
X120266380Y-82764666D01*
X120266380Y-82478952D02*
X119266380Y-82478952D01*
X119409238Y-82574190D01*
X119504476Y-82669428D01*
X119552095Y-82764666D01*
X119599714Y-81336095D02*
X120266380Y-81336095D01*
X119599714Y-81764666D02*
X120123523Y-81764666D01*
X120218761Y-81717047D01*
X120266380Y-81621809D01*
X120266380Y-81478952D01*
X120218761Y-81383714D01*
X120171142Y-81336095D01*
X119742571Y-80526571D02*
X119742571Y-80859904D01*
X120266380Y-80859904D02*
X119266380Y-80859904D01*
X119266380Y-80383714D01*
%TO.C,C2*%
X119860380Y-110101428D02*
X119860380Y-110672857D01*
X119860380Y-110387142D02*
X118860380Y-110387142D01*
X119003238Y-110482380D01*
X119098476Y-110577619D01*
X119146095Y-110672857D01*
X118860380Y-109482380D02*
X118860380Y-109387142D01*
X118908000Y-109291904D01*
X118955619Y-109244285D01*
X119050857Y-109196666D01*
X119241333Y-109149047D01*
X119479428Y-109149047D01*
X119669904Y-109196666D01*
X119765142Y-109244285D01*
X119812761Y-109291904D01*
X119860380Y-109387142D01*
X119860380Y-109482380D01*
X119812761Y-109577619D01*
X119765142Y-109625238D01*
X119669904Y-109672857D01*
X119479428Y-109720476D01*
X119241333Y-109720476D01*
X119050857Y-109672857D01*
X118955619Y-109625238D01*
X118908000Y-109577619D01*
X118860380Y-109482380D01*
X119193714Y-108291904D02*
X119860380Y-108291904D01*
X119193714Y-108720476D02*
X119717523Y-108720476D01*
X119812761Y-108672857D01*
X119860380Y-108577619D01*
X119860380Y-108434761D01*
X119812761Y-108339523D01*
X119765142Y-108291904D01*
X119336571Y-107482380D02*
X119336571Y-107815714D01*
X119860380Y-107815714D02*
X118860380Y-107815714D01*
X118860380Y-107339523D01*
%TO.C,C9*%
X113066142Y-85593380D02*
X113161380Y-85593380D01*
X113256619Y-85641000D01*
X113304238Y-85688619D01*
X113351857Y-85783857D01*
X113399476Y-85974333D01*
X113399476Y-86212428D01*
X113351857Y-86402904D01*
X113304238Y-86498142D01*
X113256619Y-86545761D01*
X113161380Y-86593380D01*
X113066142Y-86593380D01*
X112970904Y-86545761D01*
X112923285Y-86498142D01*
X112875666Y-86402904D01*
X112828047Y-86212428D01*
X112828047Y-85974333D01*
X112875666Y-85783857D01*
X112923285Y-85688619D01*
X112970904Y-85641000D01*
X113066142Y-85593380D01*
X113828047Y-86498142D02*
X113875666Y-86545761D01*
X113828047Y-86593380D01*
X113780428Y-86545761D01*
X113828047Y-86498142D01*
X113828047Y-86593380D01*
X114828047Y-86593380D02*
X114256619Y-86593380D01*
X114542333Y-86593380D02*
X114542333Y-85593380D01*
X114447095Y-85736238D01*
X114351857Y-85831476D01*
X114256619Y-85879095D01*
X115685190Y-85926714D02*
X115685190Y-86593380D01*
X115256619Y-85926714D02*
X115256619Y-86450523D01*
X115304238Y-86545761D01*
X115399476Y-86593380D01*
X115542333Y-86593380D01*
X115637571Y-86545761D01*
X115685190Y-86498142D01*
X116494714Y-86069571D02*
X116161380Y-86069571D01*
X116161380Y-86593380D02*
X116161380Y-85593380D01*
X116637571Y-85593380D01*
%TO.C,R1*%
X117876190Y-102567314D02*
X117876190Y-103233980D01*
X117638095Y-102186361D02*
X117400000Y-102900647D01*
X118019047Y-102900647D01*
X118400000Y-103138742D02*
X118447619Y-103186361D01*
X118400000Y-103233980D01*
X118352380Y-103186361D01*
X118400000Y-103138742D01*
X118400000Y-103233980D01*
X118780952Y-102233980D02*
X119447619Y-102233980D01*
X119019047Y-103233980D01*
X119828571Y-103233980D02*
X119828571Y-102233980D01*
X120400000Y-103233980D02*
X119971428Y-102662552D01*
X120400000Y-102233980D02*
X119828571Y-102805409D01*
%TO.C,C5*%
X122591142Y-87400380D02*
X122686380Y-87400380D01*
X122781619Y-87448000D01*
X122829238Y-87495619D01*
X122876857Y-87590857D01*
X122924476Y-87781333D01*
X122924476Y-88019428D01*
X122876857Y-88209904D01*
X122829238Y-88305142D01*
X122781619Y-88352761D01*
X122686380Y-88400380D01*
X122591142Y-88400380D01*
X122495904Y-88352761D01*
X122448285Y-88305142D01*
X122400666Y-88209904D01*
X122353047Y-88019428D01*
X122353047Y-87781333D01*
X122400666Y-87590857D01*
X122448285Y-87495619D01*
X122495904Y-87448000D01*
X122591142Y-87400380D01*
X123353047Y-88305142D02*
X123400666Y-88352761D01*
X123353047Y-88400380D01*
X123305428Y-88352761D01*
X123353047Y-88305142D01*
X123353047Y-88400380D01*
X124353047Y-88400380D02*
X123781619Y-88400380D01*
X124067333Y-88400380D02*
X124067333Y-87400380D01*
X123972095Y-87543238D01*
X123876857Y-87638476D01*
X123781619Y-87686095D01*
X125210190Y-87733714D02*
X125210190Y-88400380D01*
X124781619Y-87733714D02*
X124781619Y-88257523D01*
X124829238Y-88352761D01*
X124924476Y-88400380D01*
X125067333Y-88400380D01*
X125162571Y-88352761D01*
X125210190Y-88305142D01*
X126019714Y-87876571D02*
X125686380Y-87876571D01*
X125686380Y-88400380D02*
X125686380Y-87400380D01*
X126162571Y-87400380D01*
%TO.C,C1*%
X116574380Y-110926857D02*
X116574380Y-110831619D01*
X116622000Y-110736380D01*
X116669619Y-110688761D01*
X116764857Y-110641142D01*
X116955333Y-110593523D01*
X117193428Y-110593523D01*
X117383904Y-110641142D01*
X117479142Y-110688761D01*
X117526761Y-110736380D01*
X117574380Y-110831619D01*
X117574380Y-110926857D01*
X117526761Y-111022095D01*
X117479142Y-111069714D01*
X117383904Y-111117333D01*
X117193428Y-111164952D01*
X116955333Y-111164952D01*
X116764857Y-111117333D01*
X116669619Y-111069714D01*
X116622000Y-111022095D01*
X116574380Y-110926857D01*
X117479142Y-110164952D02*
X117526761Y-110117333D01*
X117574380Y-110164952D01*
X117526761Y-110212571D01*
X117479142Y-110164952D01*
X117574380Y-110164952D01*
X117574380Y-109164952D02*
X117574380Y-109736380D01*
X117574380Y-109450666D02*
X116574380Y-109450666D01*
X116717238Y-109545904D01*
X116812476Y-109641142D01*
X116860095Y-109736380D01*
X116907714Y-108307809D02*
X117574380Y-108307809D01*
X116907714Y-108736380D02*
X117431523Y-108736380D01*
X117526761Y-108688761D01*
X117574380Y-108593523D01*
X117574380Y-108450666D01*
X117526761Y-108355428D01*
X117479142Y-108307809D01*
X117050571Y-107498285D02*
X117050571Y-107831619D01*
X117574380Y-107831619D02*
X116574380Y-107831619D01*
X116574380Y-107355428D01*
D14*
%TO.C,J4*%
X126916761Y-71781428D02*
X126916761Y-72733809D01*
X124916761Y-72733809D01*
X126916761Y-71114761D02*
X124916761Y-71114761D01*
X126916761Y-70162380D02*
X124916761Y-70162380D01*
X126916761Y-69019523D01*
X124916761Y-69019523D01*
X125869142Y-68067142D02*
X125869142Y-67400476D01*
X126916761Y-67114761D02*
X126916761Y-68067142D01*
X124916761Y-68067142D01*
X124916761Y-67114761D01*
D13*
%TO.C,C3*%
X122654380Y-111879428D02*
X122654380Y-112450857D01*
X122654380Y-112165142D02*
X121654380Y-112165142D01*
X121797238Y-112260380D01*
X121892476Y-112355619D01*
X121940095Y-112450857D01*
X121654380Y-111260380D02*
X121654380Y-111165142D01*
X121702000Y-111069904D01*
X121749619Y-111022285D01*
X121844857Y-110974666D01*
X122035333Y-110927047D01*
X122273428Y-110927047D01*
X122463904Y-110974666D01*
X122559142Y-111022285D01*
X122606761Y-111069904D01*
X122654380Y-111165142D01*
X122654380Y-111260380D01*
X122606761Y-111355619D01*
X122559142Y-111403238D01*
X122463904Y-111450857D01*
X122273428Y-111498476D01*
X122035333Y-111498476D01*
X121844857Y-111450857D01*
X121749619Y-111403238D01*
X121702000Y-111355619D01*
X121654380Y-111260380D01*
X121987714Y-110069904D02*
X122654380Y-110069904D01*
X121987714Y-110498476D02*
X122511523Y-110498476D01*
X122606761Y-110450857D01*
X122654380Y-110355619D01*
X122654380Y-110212761D01*
X122606761Y-110117523D01*
X122559142Y-110069904D01*
X122130571Y-109260380D02*
X122130571Y-109593714D01*
X122654380Y-109593714D02*
X121654380Y-109593714D01*
X121654380Y-109117523D01*
%TO.C,C7*%
X125702380Y-101719428D02*
X125702380Y-102290857D01*
X125702380Y-102005142D02*
X124702380Y-102005142D01*
X124845238Y-102100380D01*
X124940476Y-102195619D01*
X124988095Y-102290857D01*
X124702380Y-101100380D02*
X124702380Y-101005142D01*
X124750000Y-100909904D01*
X124797619Y-100862285D01*
X124892857Y-100814666D01*
X125083333Y-100767047D01*
X125321428Y-100767047D01*
X125511904Y-100814666D01*
X125607142Y-100862285D01*
X125654761Y-100909904D01*
X125702380Y-101005142D01*
X125702380Y-101100380D01*
X125654761Y-101195619D01*
X125607142Y-101243238D01*
X125511904Y-101290857D01*
X125321428Y-101338476D01*
X125083333Y-101338476D01*
X124892857Y-101290857D01*
X124797619Y-101243238D01*
X124750000Y-101195619D01*
X124702380Y-101100380D01*
X125035714Y-99909904D02*
X125702380Y-99909904D01*
X125035714Y-100338476D02*
X125559523Y-100338476D01*
X125654761Y-100290857D01*
X125702380Y-100195619D01*
X125702380Y-100052761D01*
X125654761Y-99957523D01*
X125607142Y-99909904D01*
X125178571Y-99100380D02*
X125178571Y-99433714D01*
X125702380Y-99433714D02*
X124702380Y-99433714D01*
X124702380Y-98957523D01*
%TO.C,C8*%
X121702142Y-95020380D02*
X121797380Y-95020380D01*
X121892619Y-95068000D01*
X121940238Y-95115619D01*
X121987857Y-95210857D01*
X122035476Y-95401333D01*
X122035476Y-95639428D01*
X121987857Y-95829904D01*
X121940238Y-95925142D01*
X121892619Y-95972761D01*
X121797380Y-96020380D01*
X121702142Y-96020380D01*
X121606904Y-95972761D01*
X121559285Y-95925142D01*
X121511666Y-95829904D01*
X121464047Y-95639428D01*
X121464047Y-95401333D01*
X121511666Y-95210857D01*
X121559285Y-95115619D01*
X121606904Y-95068000D01*
X121702142Y-95020380D01*
X122464047Y-95925142D02*
X122511666Y-95972761D01*
X122464047Y-96020380D01*
X122416428Y-95972761D01*
X122464047Y-95925142D01*
X122464047Y-96020380D01*
X123464047Y-96020380D02*
X122892619Y-96020380D01*
X123178333Y-96020380D02*
X123178333Y-95020380D01*
X123083095Y-95163238D01*
X122987857Y-95258476D01*
X122892619Y-95306095D01*
X124321190Y-95353714D02*
X124321190Y-96020380D01*
X123892619Y-95353714D02*
X123892619Y-95877523D01*
X123940238Y-95972761D01*
X124035476Y-96020380D01*
X124178333Y-96020380D01*
X124273571Y-95972761D01*
X124321190Y-95925142D01*
X125130714Y-95496571D02*
X124797380Y-95496571D01*
X124797380Y-96020380D02*
X124797380Y-95020380D01*
X125273571Y-95020380D01*
%TO.C,C11*%
X134814952Y-92067619D02*
X134862571Y-92020000D01*
X134957809Y-91972380D01*
X135195904Y-91972380D01*
X135291142Y-92020000D01*
X135338761Y-92067619D01*
X135386380Y-92162857D01*
X135386380Y-92258095D01*
X135338761Y-92400952D01*
X134767333Y-92972380D01*
X135386380Y-92972380D01*
X135767333Y-92067619D02*
X135814952Y-92020000D01*
X135910190Y-91972380D01*
X136148285Y-91972380D01*
X136243523Y-92020000D01*
X136291142Y-92067619D01*
X136338761Y-92162857D01*
X136338761Y-92258095D01*
X136291142Y-92400952D01*
X135719714Y-92972380D01*
X136338761Y-92972380D01*
X136957809Y-91972380D02*
X137053047Y-91972380D01*
X137148285Y-92020000D01*
X137195904Y-92067619D01*
X137243523Y-92162857D01*
X137291142Y-92353333D01*
X137291142Y-92591428D01*
X137243523Y-92781904D01*
X137195904Y-92877142D01*
X137148285Y-92924761D01*
X137053047Y-92972380D01*
X136957809Y-92972380D01*
X136862571Y-92924761D01*
X136814952Y-92877142D01*
X136767333Y-92781904D01*
X136719714Y-92591428D01*
X136719714Y-92353333D01*
X136767333Y-92162857D01*
X136814952Y-92067619D01*
X136862571Y-92020000D01*
X136957809Y-91972380D01*
X138148285Y-92305714D02*
X138148285Y-92972380D01*
X137719714Y-92305714D02*
X137719714Y-92829523D01*
X137767333Y-92924761D01*
X137862571Y-92972380D01*
X138005428Y-92972380D01*
X138100666Y-92924761D01*
X138148285Y-92877142D01*
X138957809Y-92448571D02*
X138624476Y-92448571D01*
X138624476Y-92972380D02*
X138624476Y-91972380D01*
X139100666Y-91972380D01*
D14*
%TO.C,J3*%
X148411523Y-72829047D02*
X148506761Y-72543333D01*
X148506761Y-72067142D01*
X148411523Y-71876666D01*
X148316285Y-71781428D01*
X148125809Y-71686190D01*
X147935333Y-71686190D01*
X147744857Y-71781428D01*
X147649619Y-71876666D01*
X147554380Y-72067142D01*
X147459142Y-72448095D01*
X147363904Y-72638571D01*
X147268666Y-72733809D01*
X147078190Y-72829047D01*
X146887714Y-72829047D01*
X146697238Y-72733809D01*
X146602000Y-72638571D01*
X146506761Y-72448095D01*
X146506761Y-71971904D01*
X146602000Y-71686190D01*
X148506761Y-70829047D02*
X146506761Y-70829047D01*
X146506761Y-70067142D01*
X146602000Y-69876666D01*
X146697238Y-69781428D01*
X146887714Y-69686190D01*
X147173428Y-69686190D01*
X147363904Y-69781428D01*
X147459142Y-69876666D01*
X147554380Y-70067142D01*
X147554380Y-70829047D01*
X148506761Y-68829047D02*
X146506761Y-68829047D01*
X148506761Y-67686190D02*
X147363904Y-68543333D01*
X146506761Y-67686190D02*
X147649619Y-68829047D01*
D13*
%TO.C,R9*%
X119986380Y-76549666D02*
X119986380Y-77121095D01*
X119986380Y-76835380D02*
X118986380Y-76835380D01*
X119129238Y-76930619D01*
X119224476Y-77025857D01*
X119272095Y-77121095D01*
X118986380Y-75930619D02*
X118986380Y-75835380D01*
X119034000Y-75740142D01*
X119081619Y-75692523D01*
X119176857Y-75644904D01*
X119367333Y-75597285D01*
X119605428Y-75597285D01*
X119795904Y-75644904D01*
X119891142Y-75692523D01*
X119938761Y-75740142D01*
X119986380Y-75835380D01*
X119986380Y-75930619D01*
X119938761Y-76025857D01*
X119891142Y-76073476D01*
X119795904Y-76121095D01*
X119605428Y-76168714D01*
X119367333Y-76168714D01*
X119176857Y-76121095D01*
X119081619Y-76073476D01*
X119034000Y-76025857D01*
X118986380Y-75930619D01*
X118986380Y-74978238D02*
X118986380Y-74883000D01*
X119034000Y-74787761D01*
X119081619Y-74740142D01*
X119176857Y-74692523D01*
X119367333Y-74644904D01*
X119605428Y-74644904D01*
X119795904Y-74692523D01*
X119891142Y-74740142D01*
X119938761Y-74787761D01*
X119986380Y-74883000D01*
X119986380Y-74978238D01*
X119938761Y-75073476D01*
X119891142Y-75121095D01*
X119795904Y-75168714D01*
X119605428Y-75216333D01*
X119367333Y-75216333D01*
X119176857Y-75168714D01*
X119081619Y-75121095D01*
X119034000Y-75073476D01*
X118986380Y-74978238D01*
%TO.C,R8*%
X126939714Y-76668714D02*
X127606380Y-76668714D01*
X126558761Y-76906809D02*
X127273047Y-77144904D01*
X127273047Y-76525857D01*
X126606380Y-76240142D02*
X126606380Y-75573476D01*
X127606380Y-76002047D01*
X127606380Y-75192523D02*
X126606380Y-75192523D01*
X127606380Y-74621095D02*
X127034952Y-75049666D01*
X126606380Y-74621095D02*
X127177809Y-75192523D01*
%TO.C,R5*%
X137164285Y-76431714D02*
X137164285Y-77098380D01*
X136926190Y-76050761D02*
X136688095Y-76765047D01*
X137307142Y-76765047D01*
X137592857Y-76098380D02*
X138259523Y-76098380D01*
X137830952Y-77098380D01*
X138640476Y-77098380D02*
X138640476Y-76098380D01*
X139211904Y-77098380D02*
X138783333Y-76526952D01*
X139211904Y-76098380D02*
X138640476Y-76669809D01*
%TO.C,C13*%
X144974952Y-92067619D02*
X145022571Y-92020000D01*
X145117809Y-91972380D01*
X145355904Y-91972380D01*
X145451142Y-92020000D01*
X145498761Y-92067619D01*
X145546380Y-92162857D01*
X145546380Y-92258095D01*
X145498761Y-92400952D01*
X144927333Y-92972380D01*
X145546380Y-92972380D01*
X145927333Y-92067619D02*
X145974952Y-92020000D01*
X146070190Y-91972380D01*
X146308285Y-91972380D01*
X146403523Y-92020000D01*
X146451142Y-92067619D01*
X146498761Y-92162857D01*
X146498761Y-92258095D01*
X146451142Y-92400952D01*
X145879714Y-92972380D01*
X146498761Y-92972380D01*
X147117809Y-91972380D02*
X147213047Y-91972380D01*
X147308285Y-92020000D01*
X147355904Y-92067619D01*
X147403523Y-92162857D01*
X147451142Y-92353333D01*
X147451142Y-92591428D01*
X147403523Y-92781904D01*
X147355904Y-92877142D01*
X147308285Y-92924761D01*
X147213047Y-92972380D01*
X147117809Y-92972380D01*
X147022571Y-92924761D01*
X146974952Y-92877142D01*
X146927333Y-92781904D01*
X146879714Y-92591428D01*
X146879714Y-92353333D01*
X146927333Y-92162857D01*
X146974952Y-92067619D01*
X147022571Y-92020000D01*
X147117809Y-91972380D01*
X148308285Y-92305714D02*
X148308285Y-92972380D01*
X147879714Y-92305714D02*
X147879714Y-92829523D01*
X147927333Y-92924761D01*
X148022571Y-92972380D01*
X148165428Y-92972380D01*
X148260666Y-92924761D01*
X148308285Y-92877142D01*
X149117809Y-92448571D02*
X148784476Y-92448571D01*
X148784476Y-92972380D02*
X148784476Y-91972380D01*
X149260666Y-91972380D01*
D15*
%TO.C,R2*%
X118672936Y-98008000D02*
X119127064Y-98008000D01*
X118672936Y-99478000D02*
X119127064Y-99478000D01*
%TO.C,C12*%
X125429563Y-83858000D02*
X126494000Y-82793563D01*
X122424000Y-84348000D02*
X122924000Y-84348000D01*
X123038437Y-83858000D02*
X123174000Y-83858000D01*
X126494000Y-82793563D02*
X126494000Y-79338000D01*
X123038437Y-83858000D02*
X121974000Y-82793563D01*
X121974000Y-82793563D02*
X121974000Y-79338000D01*
X122674000Y-84598000D02*
X122674000Y-84098000D01*
X121974000Y-79338000D02*
X123174000Y-79338000D01*
X125429563Y-83858000D02*
X125294000Y-83858000D01*
X126494000Y-79338000D02*
X125294000Y-79338000D01*
%TO.C,R3*%
X114936064Y-91096000D02*
X114481936Y-91096000D01*
X114936064Y-89626000D02*
X114481936Y-89626000D01*
%TO.C,R10*%
X122229000Y-76110064D02*
X122229000Y-75655936D01*
X123699000Y-76110064D02*
X123699000Y-75655936D01*
%TO.C,R6*%
X146305064Y-77561000D02*
X145850936Y-77561000D01*
X146305064Y-79031000D02*
X145850936Y-79031000D01*
%TO.C,R7*%
X114609000Y-75655936D02*
X114609000Y-76110064D01*
X116079000Y-75655936D02*
X116079000Y-76110064D01*
%TO.C,C4*%
X123753000Y-106736748D02*
X123753000Y-107259252D01*
X125223000Y-106736748D02*
X125223000Y-107259252D01*
%TO.C,C14*%
X112999000Y-93411000D02*
X112999000Y-100346000D01*
X116419000Y-100346000D02*
X116419000Y-93411000D01*
X116419000Y-93411000D02*
X112999000Y-93411000D01*
%TO.C,C10*%
X115054000Y-84598000D02*
X115054000Y-84098000D01*
X114354000Y-82793563D02*
X114354000Y-79338000D01*
X114354000Y-79338000D02*
X115554000Y-79338000D01*
X118874000Y-82793563D02*
X118874000Y-79338000D01*
X118874000Y-79338000D02*
X117674000Y-79338000D01*
X117809563Y-83858000D02*
X118874000Y-82793563D01*
X114804000Y-84348000D02*
X115304000Y-84348000D01*
X117809563Y-83858000D02*
X117674000Y-83858000D01*
X115418437Y-83858000D02*
X114354000Y-82793563D01*
X115418437Y-83858000D02*
X115554000Y-83858000D01*
%TO.C,C2*%
X118673000Y-104958748D02*
X118673000Y-105481252D01*
X120143000Y-104958748D02*
X120143000Y-105481252D01*
%TO.C,C9*%
X114970252Y-87086000D02*
X114447748Y-87086000D01*
X114970252Y-88556000D02*
X114447748Y-88556000D01*
%TO.C,U1*%
X117814000Y-93516000D02*
X117814000Y-94241000D01*
X117814000Y-89746000D02*
X117814000Y-89021000D01*
X123034000Y-94241000D02*
X122309000Y-94241000D01*
X123034000Y-93516000D02*
X123034000Y-94241000D01*
X123034000Y-89021000D02*
X122309000Y-89021000D01*
X117814000Y-89021000D02*
X118539000Y-89021000D01*
X123034000Y-89746000D02*
X123034000Y-89021000D01*
%TO.C,R1*%
X119127064Y-101891000D02*
X118672936Y-101891000D01*
X119127064Y-100421000D02*
X118672936Y-100421000D01*
%TO.C,C5*%
X124473752Y-85435000D02*
X123951248Y-85435000D01*
X124473752Y-86905000D02*
X123951248Y-86905000D01*
%TO.C,C1*%
X117857000Y-104958748D02*
X117857000Y-105481252D01*
X116387000Y-104958748D02*
X116387000Y-105481252D01*
%TO.C,J4*%
X117924000Y-55714000D02*
X117924000Y-57214000D01*
X122924000Y-55714000D02*
X122924000Y-57214000D01*
X117274000Y-72714000D02*
X123574000Y-72714000D01*
X117274000Y-62040000D02*
X117274000Y-68644000D01*
X117924000Y-55714000D02*
X122924000Y-55714000D01*
X117274000Y-58738000D02*
X117274000Y-59754000D01*
X123574000Y-63818000D02*
X123574000Y-72714000D01*
X117274000Y-57214000D02*
X123574000Y-57214000D01*
X117274000Y-72714000D02*
X117274000Y-71692000D01*
X123574000Y-57214000D02*
X123574000Y-58738000D01*
%TO.C,C3*%
X122937000Y-106736748D02*
X122937000Y-107259252D01*
X121467000Y-106736748D02*
X121467000Y-107259252D01*
%TO.C,C7*%
X121315000Y-96906000D02*
X121315000Y-100326000D01*
X121315000Y-100326000D02*
X128250000Y-100326000D01*
X128250000Y-96906000D02*
X121315000Y-96906000D01*
%TO.C,C8*%
X127020748Y-95795000D02*
X127543252Y-95795000D01*
X127020748Y-94325000D02*
X127543252Y-94325000D01*
%TO.C,C11*%
X133738437Y-90557000D02*
X135424000Y-90557000D01*
X133738437Y-90557000D02*
X132674000Y-89492563D01*
X132674000Y-82037000D02*
X135424000Y-82037000D01*
X133924000Y-91297000D02*
X134924000Y-91297000D01*
X132674000Y-89492563D02*
X132674000Y-82037000D01*
X141194000Y-89492563D02*
X141194000Y-82037000D01*
X134424000Y-91797000D02*
X134424000Y-90797000D01*
X140129563Y-90557000D02*
X138444000Y-90557000D01*
X140129563Y-90557000D02*
X141194000Y-89492563D01*
X141194000Y-82037000D02*
X138444000Y-82037000D01*
%TO.C,J3*%
X145164000Y-57214000D02*
X145164000Y-58738000D01*
X144514000Y-55714000D02*
X144514000Y-57214000D01*
X139514000Y-55714000D02*
X144514000Y-55714000D01*
X138864000Y-57214000D02*
X145164000Y-57214000D01*
X138864000Y-58738000D02*
X138864000Y-59754000D01*
X145164000Y-63818000D02*
X145164000Y-72714000D01*
X139514000Y-55714000D02*
X139514000Y-57214000D01*
X138864000Y-62040000D02*
X138864000Y-68644000D01*
X138864000Y-72714000D02*
X138864000Y-71692000D01*
X138864000Y-72714000D02*
X145164000Y-72714000D01*
%TO.C,C6*%
X128250000Y-100716000D02*
X121315000Y-100716000D01*
X121315000Y-100716000D02*
X121315000Y-104136000D01*
X121315000Y-104136000D02*
X128250000Y-104136000D01*
%TO.C,R9*%
X117149000Y-76110064D02*
X117149000Y-75655936D01*
X118619000Y-76110064D02*
X118619000Y-75655936D01*
%TO.C,R8*%
X124769000Y-76110064D02*
X124769000Y-75655936D01*
X126239000Y-76110064D02*
X126239000Y-75655936D01*
%TO.C,R5*%
X138177064Y-77561000D02*
X137722936Y-77561000D01*
X138177064Y-79031000D02*
X137722936Y-79031000D01*
%TO.C,C13*%
X151354000Y-82037000D02*
X148604000Y-82037000D01*
X144084000Y-91297000D02*
X145084000Y-91297000D01*
X150289563Y-90557000D02*
X151354000Y-89492563D01*
X150289563Y-90557000D02*
X148604000Y-90557000D01*
X151354000Y-89492563D02*
X151354000Y-82037000D01*
X143898437Y-90557000D02*
X145584000Y-90557000D01*
X142834000Y-82037000D02*
X145584000Y-82037000D01*
X144584000Y-91797000D02*
X144584000Y-90797000D01*
X143898437Y-90557000D02*
X142834000Y-89492563D01*
X142834000Y-89492563D02*
X142834000Y-82037000D01*
%TD*%
M02*
