%TF.GenerationSoftware,KiCad,Pcbnew,5.99.0-unknown-fc7f1d1d86~106~ubuntu20.04.1*%
%TF.CreationDate,2021-01-14T14:58:15+11:00*%
%TF.ProjectId,automotive-featherwing,6175746f-6d6f-4746-9976-652d66656174,rev?*%
%TF.SameCoordinates,Original*%
%TF.FileFunction,Paste,Top*%
%TF.FilePolarity,Positive*%
%FSLAX46Y46*%
G04 Gerber Fmt 4.6, Leading zero omitted, Abs format (unit mm)*
G04 Created by KiCad (PCBNEW 5.99.0-unknown-fc7f1d1d86~106~ubuntu20.04.1) date 2021-01-14 14:58:15*
%MOMM*%
%LPD*%
G01*
G04 APERTURE LIST*
G04 Aperture macros list*
%AMRoundRect*
0 Rectangle with rounded corners*
0 $1 Rounding radius*
0 $2 $3 $4 $5 $6 $7 $8 $9 X,Y pos of 4 corners*
0 Add a 4 corners polygon primitive as box body*
4,1,4,$2,$3,$4,$5,$6,$7,$8,$9,$2,$3,0*
0 Add four circle primitives for the rounded corners*
1,1,$1+$1,$2,$3,0*
1,1,$1+$1,$4,$5,0*
1,1,$1+$1,$6,$7,0*
1,1,$1+$1,$8,$9,0*
0 Add four rect primitives between the rounded corners*
20,1,$1+$1,$2,$3,$4,$5,0*
20,1,$1+$1,$4,$5,$6,$7,0*
20,1,$1+$1,$6,$7,$8,$9,0*
20,1,$1+$1,$8,$9,$2,$3,0*%
G04 Aperture macros list end*
%ADD10C,0.010000*%
%ADD11R,2.750000X3.050000*%
%ADD12R,1.200000X2.200000*%
%ADD13RoundRect,0.250000X-0.337500X-0.475000X0.337500X-0.475000X0.337500X0.475000X-0.337500X0.475000X0*%
%ADD14RoundRect,0.250000X0.337500X0.475000X-0.337500X0.475000X-0.337500X-0.475000X0.337500X-0.475000X0*%
%ADD15RoundRect,0.250000X-0.350000X-0.450000X0.350000X-0.450000X0.350000X0.450000X-0.350000X0.450000X0*%
%ADD16RoundRect,0.250000X-0.325000X-0.450000X0.325000X-0.450000X0.325000X0.450000X-0.325000X0.450000X0*%
%ADD17R,2.000000X2.000000*%
%ADD18RoundRect,0.150000X-0.825000X-0.150000X0.825000X-0.150000X0.825000X0.150000X-0.825000X0.150000X0*%
%ADD19RoundRect,0.230000X0.375000X-0.230000X0.375000X0.230000X-0.375000X0.230000X-0.375000X-0.230000X0*%
%ADD20RoundRect,0.150000X0.150000X-0.825000X0.150000X0.825000X-0.150000X0.825000X-0.150000X-0.825000X0*%
%ADD21R,0.760000X0.270000*%
G04 APERTURE END LIST*
D10*
%TO.C,U1*%
X137896000Y-111985000D02*
X138456000Y-111985000D01*
X138456000Y-111985000D02*
X138456000Y-112805000D01*
X138456000Y-112805000D02*
X137896000Y-112805000D01*
X137896000Y-112805000D02*
X137896000Y-111985000D01*
G36*
X138456000Y-112805000D02*
G01*
X137896000Y-112805000D01*
X137896000Y-111985000D01*
X138456000Y-111985000D01*
X138456000Y-112805000D01*
G37*
X138456000Y-112805000D02*
X137896000Y-112805000D01*
X137896000Y-111985000D01*
X138456000Y-111985000D01*
X138456000Y-112805000D01*
%TD*%
D11*
%TO.C,IC1*%
X137540000Y-97755000D03*
X140590000Y-94405000D03*
X137540000Y-94405000D03*
X140590000Y-97755000D03*
D12*
X141345000Y-89780000D03*
X139065000Y-89780000D03*
X136785000Y-89780000D03*
%TD*%
D13*
%TO.C,C3*%
X135487500Y-86995000D03*
X137562500Y-86995000D03*
%TD*%
D14*
%TO.C,C5*%
X148357500Y-97536000D03*
X146282500Y-97536000D03*
%TD*%
D15*
%TO.C,R1*%
X146320000Y-87630000D03*
X148320000Y-87630000D03*
%TD*%
D14*
%TO.C,C2*%
X141372500Y-86995000D03*
X139297500Y-86995000D03*
%TD*%
%TO.C,C1*%
X138959500Y-115570000D03*
X136884500Y-115570000D03*
%TD*%
D13*
%TO.C,C4*%
X145520500Y-111125000D03*
X147595500Y-111125000D03*
%TD*%
D16*
%TO.C,R2*%
X141469000Y-114046000D03*
X143519000Y-114046000D03*
%TD*%
D17*
%TO.C,X2*%
X137092000Y-102402000D03*
X137092000Y-107402000D03*
X141292000Y-107402000D03*
X141292000Y-102402000D03*
%TD*%
D16*
%TO.C,R3*%
X141469000Y-111125000D03*
X143519000Y-111125000D03*
%TD*%
D18*
%TO.C,U2*%
X144083000Y-101027000D03*
X144083000Y-102297000D03*
X144083000Y-103567000D03*
X144083000Y-104837000D03*
X144083000Y-106107000D03*
X144083000Y-107377000D03*
X144083000Y-108647000D03*
X149033000Y-108647000D03*
X149033000Y-107377000D03*
X149033000Y-106107000D03*
X149033000Y-104837000D03*
X149033000Y-103567000D03*
X149033000Y-102297000D03*
X149033000Y-101027000D03*
%TD*%
D19*
%TO.C,IC2*%
X148070000Y-92013000D03*
X146570000Y-93153000D03*
X148070000Y-93153000D03*
X146570000Y-92013000D03*
D20*
X145415000Y-95058000D03*
X146685000Y-95058000D03*
X147955000Y-95058000D03*
X149225000Y-95058000D03*
X149225000Y-90108000D03*
X147955000Y-90108000D03*
X146685000Y-90108000D03*
X145415000Y-90108000D03*
%TD*%
D21*
%TO.C,U1*%
X137191000Y-111645000D03*
X137191000Y-112145000D03*
X137191000Y-112645000D03*
X137191000Y-113145000D03*
X139161000Y-113145000D03*
X139161000Y-112645000D03*
X139161000Y-112145000D03*
X139161000Y-111645000D03*
%TD*%
M02*
