M48
; DRILL file {KiCad 5.99.0-unknown-fc7f1d1d86~106~ubuntu20.04.1} date Thu Jan 14 14:58:13 2021
; FORMAT={-:-/ absolute / inch / decimal}
; #@! TF.CreationDate,2021-01-14T14:58:13+11:00
; #@! TF.GenerationSoftware,Kicad,Pcbnew,5.99.0-unknown-fc7f1d1d86~106~ubuntu20.04.1
; #@! TF.FileFunction,Plated,1,2,PTH
FMAT,2
INCH
T1C0.0138
T2C0.0374
T3C0.0689
T4C0.1063
%
G90
G05
T1
X5.4816Y-4.0316
X5.5Y-4.375
X5.5411Y-4.4339
X5.64Y-3.815
X5.6504Y-4.4354
X5.71Y-3.815
X5.798Y-3.892
X5.8674Y-3.9296
X5.914Y-3.548
T2
X5.25Y-3.45
X5.25Y-3.55
X5.25Y-3.65
X5.25Y-3.75
X5.25Y-3.85
X5.25Y-3.95
X5.25Y-4.05
X5.25Y-4.15
X5.25Y-4.25
X5.25Y-4.35
X5.25Y-4.45
X5.25Y-4.55
X6.05Y-3.45
X6.05Y-3.55
X6.05Y-3.65
X6.05Y-3.75
X6.05Y-3.85
X6.05Y-3.95
X6.05Y-4.05
X6.05Y-4.15
X6.05Y-4.25
X6.05Y-4.35
X6.05Y-4.45
X6.05Y-4.55
X6.05Y-4.65
X6.05Y-4.75
X6.05Y-4.85
X6.05Y-4.95
T3
X5.34Y-3.2
X5.54Y-3.2
X5.76Y-3.2
X5.96Y-3.2
T4
X5.3Y-5.1
X6.0Y-5.1
T0
M30
